%TF.GenerationSoftware,KiCad,Pcbnew,8.0.6+1*%
%TF.CreationDate,2024-11-30T16:17:35+00:00*%
%TF.ProjectId,frontplate,66726f6e-7470-46c6-9174-652e6b696361,0.2*%
%TF.SameCoordinates,Original*%
%TF.FileFunction,Drillmap*%
%TF.FilePolarity,Positive*%
%FSLAX45Y45*%
G04 Gerber Fmt 4.5, Leading zero omitted, Abs format (unit mm)*
G04 Created by KiCad (PCBNEW 8.0.6+1) date 2024-11-30 16:17:35*
%MOMM*%
%LPD*%
G01*
G04 APERTURE LIST*
%ADD10C,0.150000*%
%ADD11C,0.200000*%
%ADD12C,0.220000*%
G04 APERTURE END LIST*
D10*
X9100000Y-10950000D02*
X12612845Y-10950000D01*
X9000000Y-10850000D02*
X9000000Y-5750000D01*
X9100000Y-10950000D02*
G75*
G02*
X9000000Y-10850000I0J100000D01*
G01*
X10750000Y-5650000D02*
X9100000Y-5650000D01*
X9000000Y-5750000D02*
G75*
G02*
X9100000Y-5650000I100000J0D01*
G01*
X12550000Y-5225000D02*
X10900000Y-5225000D01*
X10800000Y-5325000D02*
G75*
G02*
X10900000Y-5225000I100000J0D01*
G01*
X10800000Y-5325000D02*
X10800000Y-5600000D01*
X14600000Y-5175000D02*
X14600000Y-5112500D01*
X14500000Y-5012500D02*
G75*
G02*
X14600000Y-5112500I0J-100000D01*
G01*
X14500000Y-5012500D02*
X12700000Y-5012500D01*
X12600000Y-5112500D02*
G75*
G02*
X12700000Y-5012500I100000J0D01*
G01*
X12600000Y-5112500D02*
X12600000Y-5175000D01*
X16400000Y-5387500D02*
X16400000Y-5325000D01*
X16300000Y-5225000D02*
G75*
G02*
X16400000Y-5325000I0J-100000D01*
G01*
X16300000Y-5225000D02*
X14650000Y-5225000D01*
X18200000Y-10930848D02*
X18200000Y-5537500D01*
X18100000Y-5437500D02*
G75*
G02*
X18200000Y-5537500I0J-100000D01*
G01*
X18100000Y-5437500D02*
X16450000Y-5437500D01*
X19293298Y-14146751D02*
X20375000Y-12273188D01*
X18225000Y-10974150D02*
X20356699Y-12204886D01*
X19237056Y-14170047D02*
X14056392Y-12781892D01*
X14029668Y-12764037D02*
X12652510Y-10969559D01*
X12612845Y-10950000D02*
G75*
G02*
X12652507Y-10969562I-5J-50000D01*
G01*
X14056392Y-12781892D02*
G75*
G02*
X14029668Y-12764037I12938J48292D01*
G01*
X19293298Y-14146751D02*
G75*
G02*
X19237057Y-14170043I-43298J25001D01*
G01*
X20356699Y-12204886D02*
G75*
G02*
X20375003Y-12273189I-24999J-43304D01*
G01*
X18225000Y-10974150D02*
G75*
G02*
X18200002Y-10930848I25000J43300D01*
G01*
X16450000Y-5437500D02*
G75*
G02*
X16400000Y-5387500I0J50000D01*
G01*
X14650000Y-5225000D02*
G75*
G02*
X14600000Y-5175000I0J50000D01*
G01*
X12600000Y-5175000D02*
G75*
G02*
X12550000Y-5225000I-50000J0D01*
G01*
X10800000Y-5600000D02*
G75*
G02*
X10750000Y-5650000I-50000J0D01*
G01*
X9300000Y-10700000D02*
X10700000Y-10700000D01*
X10700000Y-10700000D02*
X10700000Y-9300000D01*
X10700000Y-9300000D02*
X9300000Y-9300000D01*
X9300000Y-9300000D02*
X9300000Y-10700000D01*
X9300000Y-9000000D02*
X10700000Y-9000000D01*
X10700000Y-9000000D02*
X10700000Y-7600000D01*
X10700000Y-7600000D02*
X9300000Y-7600000D01*
X9300000Y-7600000D02*
X9300000Y-9000000D01*
X9300000Y-7300000D02*
X10700000Y-7300000D01*
X10700000Y-7300000D02*
X10700000Y-5900000D01*
X10700000Y-5900000D02*
X9300000Y-5900000D01*
X9300000Y-5900000D02*
X9300000Y-7300000D01*
X11100000Y-10275000D02*
X12500000Y-10275000D01*
X12500000Y-10275000D02*
X12500000Y-8875000D01*
X12500000Y-8875000D02*
X11100000Y-8875000D01*
X11100000Y-8875000D02*
X11100000Y-10275000D01*
X11100000Y-8575000D02*
X12500000Y-8575000D01*
X12500000Y-8575000D02*
X12500000Y-7175000D01*
X12500000Y-7175000D02*
X11100000Y-7175000D01*
X11100000Y-7175000D02*
X11100000Y-8575000D01*
X11100000Y-6875000D02*
X12500000Y-6875000D01*
X12500000Y-6875000D02*
X12500000Y-5475000D01*
X12500000Y-5475000D02*
X11100000Y-5475000D01*
X11100000Y-5475000D02*
X11100000Y-6875000D01*
X12900000Y-10062500D02*
X14300000Y-10062500D01*
X14300000Y-10062500D02*
X14300000Y-8662500D01*
X14300000Y-8662500D02*
X12900000Y-8662500D01*
X12900000Y-8662500D02*
X12900000Y-10062500D01*
X12900000Y-8362500D02*
X14300000Y-8362500D01*
X14300000Y-8362500D02*
X14300000Y-6962500D01*
X14300000Y-6962500D02*
X12900000Y-6962500D01*
X12900000Y-6962500D02*
X12900000Y-8362500D01*
X12900000Y-6662500D02*
X14300000Y-6662500D01*
X14300000Y-6662500D02*
X14300000Y-5262500D01*
X14300000Y-5262500D02*
X12900000Y-5262500D01*
X12900000Y-5262500D02*
X12900000Y-6662500D01*
X14700000Y-10275000D02*
X16100000Y-10275000D01*
X16100000Y-10275000D02*
X16100000Y-8875000D01*
X16100000Y-8875000D02*
X14700000Y-8875000D01*
X14700000Y-8875000D02*
X14700000Y-10275000D01*
X14700000Y-8575000D02*
X16100000Y-8575000D01*
X16100000Y-8575000D02*
X16100000Y-7175000D01*
X16100000Y-7175000D02*
X14700000Y-7175000D01*
X14700000Y-7175000D02*
X14700000Y-8575000D01*
X14700000Y-6875000D02*
X16100000Y-6875000D01*
X16100000Y-6875000D02*
X16100000Y-5475000D01*
X16100000Y-5475000D02*
X14700000Y-5475000D01*
X14700000Y-5475000D02*
X14700000Y-6875000D01*
X16500000Y-10487500D02*
X17900000Y-10487500D01*
X17900000Y-10487500D02*
X17900000Y-9087500D01*
X17900000Y-9087500D02*
X16500000Y-9087500D01*
X16500000Y-9087500D02*
X16500000Y-10487500D01*
X16500000Y-8787500D02*
X17900000Y-8787500D01*
X17900000Y-8787500D02*
X17900000Y-7387500D01*
X17900000Y-7387500D02*
X16500000Y-7387500D01*
X16500000Y-7387500D02*
X16500000Y-8787500D01*
X16500000Y-7087500D02*
X17900000Y-7087500D01*
X17900000Y-7087500D02*
X17900000Y-5687500D01*
X17900000Y-5687500D02*
X16500000Y-5687500D01*
X16500000Y-5687500D02*
X16500000Y-7087500D01*
X14340000Y-12527500D02*
X15740000Y-12527500D01*
X15740000Y-12527500D02*
X15740000Y-11127500D01*
X15740000Y-11127500D02*
X14340000Y-11127500D01*
X14340000Y-11127500D02*
X14340000Y-12527500D01*
X16172008Y-12584375D02*
X17524304Y-12946722D01*
X17524304Y-12946722D02*
X17886651Y-11594425D01*
X17886651Y-11594425D02*
X16534355Y-11232079D01*
X16534355Y-11232079D02*
X16172008Y-12584375D01*
X17926872Y-13113470D02*
X19139307Y-13813470D01*
X19139307Y-13813470D02*
X19839307Y-12601035D01*
X19839307Y-12601035D02*
X18626872Y-11901035D01*
X18626872Y-11901035D02*
X17926872Y-13113470D01*
X11010000Y-7025000D02*
G75*
G02*
X10790000Y-7025000I-110000J0D01*
G01*
X10790000Y-7025000D02*
G75*
G02*
X11010000Y-7025000I110000J0D01*
G01*
X11010000Y-8725000D02*
G75*
G02*
X10790000Y-8725000I-110000J0D01*
G01*
X10790000Y-8725000D02*
G75*
G02*
X11010000Y-8725000I110000J0D01*
G01*
X16410000Y-7025000D02*
G75*
G02*
X16190000Y-7025000I-110000J0D01*
G01*
X16190000Y-7025000D02*
G75*
G02*
X16410000Y-7025000I110000J0D01*
G01*
X14250000Y-10977500D02*
G75*
G02*
X14030000Y-10977500I-110000J0D01*
G01*
X14030000Y-10977500D02*
G75*
G02*
X14250000Y-10977500I110000J0D01*
G01*
X18228659Y-11501300D02*
G75*
G02*
X18008659Y-11501300I-110000J0D01*
G01*
X18008659Y-11501300D02*
G75*
G02*
X18228659Y-11501300I110000J0D01*
G01*
D11*
D12*
X10790000Y-6915000D02*
X11010000Y-7135000D01*
X11010000Y-6915000D02*
X10790000Y-7135000D01*
X10790000Y-8615000D02*
X11010000Y-8835000D01*
X11010000Y-8615000D02*
X10790000Y-8835000D01*
X14030000Y-10867500D02*
X14250000Y-11087500D01*
X14250000Y-10867500D02*
X14030000Y-11087500D01*
X16190000Y-6915000D02*
X16410000Y-7135000D01*
X16410000Y-6915000D02*
X16190000Y-7135000D01*
X18008659Y-11391300D02*
X18228659Y-11611300D01*
X18228659Y-11391300D02*
X18008659Y-11611300D01*
D11*
X9253277Y-14490731D02*
X9253277Y-14290731D01*
X9253277Y-14290731D02*
X9300896Y-14290731D01*
X9300896Y-14290731D02*
X9329467Y-14300255D01*
X9329467Y-14300255D02*
X9348515Y-14319303D01*
X9348515Y-14319303D02*
X9358039Y-14338350D01*
X9358039Y-14338350D02*
X9367563Y-14376445D01*
X9367563Y-14376445D02*
X9367563Y-14405017D01*
X9367563Y-14405017D02*
X9358039Y-14443112D01*
X9358039Y-14443112D02*
X9348515Y-14462160D01*
X9348515Y-14462160D02*
X9329467Y-14481207D01*
X9329467Y-14481207D02*
X9300896Y-14490731D01*
X9300896Y-14490731D02*
X9253277Y-14490731D01*
X9453277Y-14490731D02*
X9453277Y-14357398D01*
X9453277Y-14395493D02*
X9462801Y-14376445D01*
X9462801Y-14376445D02*
X9472324Y-14366922D01*
X9472324Y-14366922D02*
X9491372Y-14357398D01*
X9491372Y-14357398D02*
X9510420Y-14357398D01*
X9577086Y-14490731D02*
X9577086Y-14357398D01*
X9577086Y-14290731D02*
X9567563Y-14300255D01*
X9567563Y-14300255D02*
X9577086Y-14309779D01*
X9577086Y-14309779D02*
X9586610Y-14300255D01*
X9586610Y-14300255D02*
X9577086Y-14290731D01*
X9577086Y-14290731D02*
X9577086Y-14309779D01*
X9700896Y-14490731D02*
X9681848Y-14481207D01*
X9681848Y-14481207D02*
X9672324Y-14462160D01*
X9672324Y-14462160D02*
X9672324Y-14290731D01*
X9805658Y-14490731D02*
X9786610Y-14481207D01*
X9786610Y-14481207D02*
X9777086Y-14462160D01*
X9777086Y-14462160D02*
X9777086Y-14290731D01*
X10034229Y-14490731D02*
X10034229Y-14290731D01*
X10034229Y-14290731D02*
X10100896Y-14433588D01*
X10100896Y-14433588D02*
X10167563Y-14290731D01*
X10167563Y-14290731D02*
X10167563Y-14490731D01*
X10348515Y-14490731D02*
X10348515Y-14385969D01*
X10348515Y-14385969D02*
X10338991Y-14366922D01*
X10338991Y-14366922D02*
X10319944Y-14357398D01*
X10319944Y-14357398D02*
X10281848Y-14357398D01*
X10281848Y-14357398D02*
X10262801Y-14366922D01*
X10348515Y-14481207D02*
X10329467Y-14490731D01*
X10329467Y-14490731D02*
X10281848Y-14490731D01*
X10281848Y-14490731D02*
X10262801Y-14481207D01*
X10262801Y-14481207D02*
X10253277Y-14462160D01*
X10253277Y-14462160D02*
X10253277Y-14443112D01*
X10253277Y-14443112D02*
X10262801Y-14424064D01*
X10262801Y-14424064D02*
X10281848Y-14414541D01*
X10281848Y-14414541D02*
X10329467Y-14414541D01*
X10329467Y-14414541D02*
X10348515Y-14405017D01*
X10443753Y-14357398D02*
X10443753Y-14557398D01*
X10443753Y-14366922D02*
X10462801Y-14357398D01*
X10462801Y-14357398D02*
X10500896Y-14357398D01*
X10500896Y-14357398D02*
X10519944Y-14366922D01*
X10519944Y-14366922D02*
X10529467Y-14376445D01*
X10529467Y-14376445D02*
X10538991Y-14395493D01*
X10538991Y-14395493D02*
X10538991Y-14452636D01*
X10538991Y-14452636D02*
X10529467Y-14471683D01*
X10529467Y-14471683D02*
X10519944Y-14481207D01*
X10519944Y-14481207D02*
X10500896Y-14490731D01*
X10500896Y-14490731D02*
X10462801Y-14490731D01*
X10462801Y-14490731D02*
X10443753Y-14481207D01*
X10624705Y-14471683D02*
X10634229Y-14481207D01*
X10634229Y-14481207D02*
X10624705Y-14490731D01*
X10624705Y-14490731D02*
X10615182Y-14481207D01*
X10615182Y-14481207D02*
X10624705Y-14471683D01*
X10624705Y-14471683D02*
X10624705Y-14490731D01*
X10624705Y-14366922D02*
X10634229Y-14376445D01*
X10634229Y-14376445D02*
X10624705Y-14385969D01*
X10624705Y-14385969D02*
X10615182Y-14376445D01*
X10615182Y-14376445D02*
X10624705Y-14366922D01*
X10624705Y-14366922D02*
X10624705Y-14385969D01*
X8792500Y-14719247D02*
X8992500Y-14919247D01*
X8992500Y-14719247D02*
X8792500Y-14919247D01*
X9243753Y-14729779D02*
X9253277Y-14720255D01*
X9253277Y-14720255D02*
X9272324Y-14710731D01*
X9272324Y-14710731D02*
X9319944Y-14710731D01*
X9319944Y-14710731D02*
X9338991Y-14720255D01*
X9338991Y-14720255D02*
X9348515Y-14729779D01*
X9348515Y-14729779D02*
X9358039Y-14748826D01*
X9358039Y-14748826D02*
X9358039Y-14767874D01*
X9358039Y-14767874D02*
X9348515Y-14796445D01*
X9348515Y-14796445D02*
X9234229Y-14910731D01*
X9234229Y-14910731D02*
X9358039Y-14910731D01*
X9443753Y-14891683D02*
X9453277Y-14901207D01*
X9453277Y-14901207D02*
X9443753Y-14910731D01*
X9443753Y-14910731D02*
X9434229Y-14901207D01*
X9434229Y-14901207D02*
X9443753Y-14891683D01*
X9443753Y-14891683D02*
X9443753Y-14910731D01*
X9529467Y-14729779D02*
X9538991Y-14720255D01*
X9538991Y-14720255D02*
X9558039Y-14710731D01*
X9558039Y-14710731D02*
X9605658Y-14710731D01*
X9605658Y-14710731D02*
X9624705Y-14720255D01*
X9624705Y-14720255D02*
X9634229Y-14729779D01*
X9634229Y-14729779D02*
X9643753Y-14748826D01*
X9643753Y-14748826D02*
X9643753Y-14767874D01*
X9643753Y-14767874D02*
X9634229Y-14796445D01*
X9634229Y-14796445D02*
X9519944Y-14910731D01*
X9519944Y-14910731D02*
X9643753Y-14910731D01*
X9767563Y-14710731D02*
X9786610Y-14710731D01*
X9786610Y-14710731D02*
X9805658Y-14720255D01*
X9805658Y-14720255D02*
X9815182Y-14729779D01*
X9815182Y-14729779D02*
X9824705Y-14748826D01*
X9824705Y-14748826D02*
X9834229Y-14786922D01*
X9834229Y-14786922D02*
X9834229Y-14834541D01*
X9834229Y-14834541D02*
X9824705Y-14872636D01*
X9824705Y-14872636D02*
X9815182Y-14891683D01*
X9815182Y-14891683D02*
X9805658Y-14901207D01*
X9805658Y-14901207D02*
X9786610Y-14910731D01*
X9786610Y-14910731D02*
X9767563Y-14910731D01*
X9767563Y-14910731D02*
X9748515Y-14901207D01*
X9748515Y-14901207D02*
X9738991Y-14891683D01*
X9738991Y-14891683D02*
X9729467Y-14872636D01*
X9729467Y-14872636D02*
X9719944Y-14834541D01*
X9719944Y-14834541D02*
X9719944Y-14786922D01*
X9719944Y-14786922D02*
X9729467Y-14748826D01*
X9729467Y-14748826D02*
X9738991Y-14729779D01*
X9738991Y-14729779D02*
X9748515Y-14720255D01*
X9748515Y-14720255D02*
X9767563Y-14710731D01*
X9958039Y-14710731D02*
X9977086Y-14710731D01*
X9977086Y-14710731D02*
X9996134Y-14720255D01*
X9996134Y-14720255D02*
X10005658Y-14729779D01*
X10005658Y-14729779D02*
X10015182Y-14748826D01*
X10015182Y-14748826D02*
X10024705Y-14786922D01*
X10024705Y-14786922D02*
X10024705Y-14834541D01*
X10024705Y-14834541D02*
X10015182Y-14872636D01*
X10015182Y-14872636D02*
X10005658Y-14891683D01*
X10005658Y-14891683D02*
X9996134Y-14901207D01*
X9996134Y-14901207D02*
X9977086Y-14910731D01*
X9977086Y-14910731D02*
X9958039Y-14910731D01*
X9958039Y-14910731D02*
X9938991Y-14901207D01*
X9938991Y-14901207D02*
X9929467Y-14891683D01*
X9929467Y-14891683D02*
X9919944Y-14872636D01*
X9919944Y-14872636D02*
X9910420Y-14834541D01*
X9910420Y-14834541D02*
X9910420Y-14786922D01*
X9910420Y-14786922D02*
X9919944Y-14748826D01*
X9919944Y-14748826D02*
X9929467Y-14729779D01*
X9929467Y-14729779D02*
X9938991Y-14720255D01*
X9938991Y-14720255D02*
X9958039Y-14710731D01*
X10110420Y-14910731D02*
X10110420Y-14777398D01*
X10110420Y-14796445D02*
X10119944Y-14786922D01*
X10119944Y-14786922D02*
X10138991Y-14777398D01*
X10138991Y-14777398D02*
X10167563Y-14777398D01*
X10167563Y-14777398D02*
X10186610Y-14786922D01*
X10186610Y-14786922D02*
X10196134Y-14805969D01*
X10196134Y-14805969D02*
X10196134Y-14910731D01*
X10196134Y-14805969D02*
X10205658Y-14786922D01*
X10205658Y-14786922D02*
X10224705Y-14777398D01*
X10224705Y-14777398D02*
X10253277Y-14777398D01*
X10253277Y-14777398D02*
X10272325Y-14786922D01*
X10272325Y-14786922D02*
X10281848Y-14805969D01*
X10281848Y-14805969D02*
X10281848Y-14910731D01*
X10377086Y-14910731D02*
X10377086Y-14777398D01*
X10377086Y-14796445D02*
X10386610Y-14786922D01*
X10386610Y-14786922D02*
X10405658Y-14777398D01*
X10405658Y-14777398D02*
X10434229Y-14777398D01*
X10434229Y-14777398D02*
X10453277Y-14786922D01*
X10453277Y-14786922D02*
X10462801Y-14805969D01*
X10462801Y-14805969D02*
X10462801Y-14910731D01*
X10462801Y-14805969D02*
X10472325Y-14786922D01*
X10472325Y-14786922D02*
X10491372Y-14777398D01*
X10491372Y-14777398D02*
X10519944Y-14777398D01*
X10519944Y-14777398D02*
X10538991Y-14786922D01*
X10538991Y-14786922D02*
X10548515Y-14805969D01*
X10548515Y-14805969D02*
X10548515Y-14910731D01*
X10938991Y-14701207D02*
X10767563Y-14958350D01*
X11196134Y-14710731D02*
X11215182Y-14710731D01*
X11215182Y-14710731D02*
X11234229Y-14720255D01*
X11234229Y-14720255D02*
X11243753Y-14729779D01*
X11243753Y-14729779D02*
X11253277Y-14748826D01*
X11253277Y-14748826D02*
X11262801Y-14786922D01*
X11262801Y-14786922D02*
X11262801Y-14834541D01*
X11262801Y-14834541D02*
X11253277Y-14872636D01*
X11253277Y-14872636D02*
X11243753Y-14891683D01*
X11243753Y-14891683D02*
X11234229Y-14901207D01*
X11234229Y-14901207D02*
X11215182Y-14910731D01*
X11215182Y-14910731D02*
X11196134Y-14910731D01*
X11196134Y-14910731D02*
X11177087Y-14901207D01*
X11177087Y-14901207D02*
X11167563Y-14891683D01*
X11167563Y-14891683D02*
X11158039Y-14872636D01*
X11158039Y-14872636D02*
X11148515Y-14834541D01*
X11148515Y-14834541D02*
X11148515Y-14786922D01*
X11148515Y-14786922D02*
X11158039Y-14748826D01*
X11158039Y-14748826D02*
X11167563Y-14729779D01*
X11167563Y-14729779D02*
X11177087Y-14720255D01*
X11177087Y-14720255D02*
X11196134Y-14710731D01*
X11348515Y-14891683D02*
X11358039Y-14901207D01*
X11358039Y-14901207D02*
X11348515Y-14910731D01*
X11348515Y-14910731D02*
X11338991Y-14901207D01*
X11338991Y-14901207D02*
X11348515Y-14891683D01*
X11348515Y-14891683D02*
X11348515Y-14910731D01*
X11481848Y-14710731D02*
X11500896Y-14710731D01*
X11500896Y-14710731D02*
X11519944Y-14720255D01*
X11519944Y-14720255D02*
X11529467Y-14729779D01*
X11529467Y-14729779D02*
X11538991Y-14748826D01*
X11538991Y-14748826D02*
X11548515Y-14786922D01*
X11548515Y-14786922D02*
X11548515Y-14834541D01*
X11548515Y-14834541D02*
X11538991Y-14872636D01*
X11538991Y-14872636D02*
X11529467Y-14891683D01*
X11529467Y-14891683D02*
X11519944Y-14901207D01*
X11519944Y-14901207D02*
X11500896Y-14910731D01*
X11500896Y-14910731D02*
X11481848Y-14910731D01*
X11481848Y-14910731D02*
X11462801Y-14901207D01*
X11462801Y-14901207D02*
X11453277Y-14891683D01*
X11453277Y-14891683D02*
X11443753Y-14872636D01*
X11443753Y-14872636D02*
X11434229Y-14834541D01*
X11434229Y-14834541D02*
X11434229Y-14786922D01*
X11434229Y-14786922D02*
X11443753Y-14748826D01*
X11443753Y-14748826D02*
X11453277Y-14729779D01*
X11453277Y-14729779D02*
X11462801Y-14720255D01*
X11462801Y-14720255D02*
X11481848Y-14710731D01*
X11662801Y-14796445D02*
X11643753Y-14786922D01*
X11643753Y-14786922D02*
X11634229Y-14777398D01*
X11634229Y-14777398D02*
X11624706Y-14758350D01*
X11624706Y-14758350D02*
X11624706Y-14748826D01*
X11624706Y-14748826D02*
X11634229Y-14729779D01*
X11634229Y-14729779D02*
X11643753Y-14720255D01*
X11643753Y-14720255D02*
X11662801Y-14710731D01*
X11662801Y-14710731D02*
X11700896Y-14710731D01*
X11700896Y-14710731D02*
X11719944Y-14720255D01*
X11719944Y-14720255D02*
X11729467Y-14729779D01*
X11729467Y-14729779D02*
X11738991Y-14748826D01*
X11738991Y-14748826D02*
X11738991Y-14758350D01*
X11738991Y-14758350D02*
X11729467Y-14777398D01*
X11729467Y-14777398D02*
X11719944Y-14786922D01*
X11719944Y-14786922D02*
X11700896Y-14796445D01*
X11700896Y-14796445D02*
X11662801Y-14796445D01*
X11662801Y-14796445D02*
X11643753Y-14805969D01*
X11643753Y-14805969D02*
X11634229Y-14815493D01*
X11634229Y-14815493D02*
X11624706Y-14834541D01*
X11624706Y-14834541D02*
X11624706Y-14872636D01*
X11624706Y-14872636D02*
X11634229Y-14891683D01*
X11634229Y-14891683D02*
X11643753Y-14901207D01*
X11643753Y-14901207D02*
X11662801Y-14910731D01*
X11662801Y-14910731D02*
X11700896Y-14910731D01*
X11700896Y-14910731D02*
X11719944Y-14901207D01*
X11719944Y-14901207D02*
X11729467Y-14891683D01*
X11729467Y-14891683D02*
X11738991Y-14872636D01*
X11738991Y-14872636D02*
X11738991Y-14834541D01*
X11738991Y-14834541D02*
X11729467Y-14815493D01*
X11729467Y-14815493D02*
X11719944Y-14805969D01*
X11719944Y-14805969D02*
X11700896Y-14796445D01*
X11910420Y-14710731D02*
X11872325Y-14710731D01*
X11872325Y-14710731D02*
X11853277Y-14720255D01*
X11853277Y-14720255D02*
X11843753Y-14729779D01*
X11843753Y-14729779D02*
X11824706Y-14758350D01*
X11824706Y-14758350D02*
X11815182Y-14796445D01*
X11815182Y-14796445D02*
X11815182Y-14872636D01*
X11815182Y-14872636D02*
X11824706Y-14891683D01*
X11824706Y-14891683D02*
X11834229Y-14901207D01*
X11834229Y-14901207D02*
X11853277Y-14910731D01*
X11853277Y-14910731D02*
X11891372Y-14910731D01*
X11891372Y-14910731D02*
X11910420Y-14901207D01*
X11910420Y-14901207D02*
X11919944Y-14891683D01*
X11919944Y-14891683D02*
X11929467Y-14872636D01*
X11929467Y-14872636D02*
X11929467Y-14825017D01*
X11929467Y-14825017D02*
X11919944Y-14805969D01*
X11919944Y-14805969D02*
X11910420Y-14796445D01*
X11910420Y-14796445D02*
X11891372Y-14786922D01*
X11891372Y-14786922D02*
X11853277Y-14786922D01*
X11853277Y-14786922D02*
X11834229Y-14796445D01*
X11834229Y-14796445D02*
X11824706Y-14805969D01*
X11824706Y-14805969D02*
X11815182Y-14825017D01*
X12100896Y-14710731D02*
X12062801Y-14710731D01*
X12062801Y-14710731D02*
X12043753Y-14720255D01*
X12043753Y-14720255D02*
X12034229Y-14729779D01*
X12034229Y-14729779D02*
X12015182Y-14758350D01*
X12015182Y-14758350D02*
X12005658Y-14796445D01*
X12005658Y-14796445D02*
X12005658Y-14872636D01*
X12005658Y-14872636D02*
X12015182Y-14891683D01*
X12015182Y-14891683D02*
X12024706Y-14901207D01*
X12024706Y-14901207D02*
X12043753Y-14910731D01*
X12043753Y-14910731D02*
X12081848Y-14910731D01*
X12081848Y-14910731D02*
X12100896Y-14901207D01*
X12100896Y-14901207D02*
X12110420Y-14891683D01*
X12110420Y-14891683D02*
X12119944Y-14872636D01*
X12119944Y-14872636D02*
X12119944Y-14825017D01*
X12119944Y-14825017D02*
X12110420Y-14805969D01*
X12110420Y-14805969D02*
X12100896Y-14796445D01*
X12100896Y-14796445D02*
X12081848Y-14786922D01*
X12081848Y-14786922D02*
X12043753Y-14786922D01*
X12043753Y-14786922D02*
X12024706Y-14796445D01*
X12024706Y-14796445D02*
X12015182Y-14805969D01*
X12015182Y-14805969D02*
X12005658Y-14825017D01*
X12196134Y-14710731D02*
X12196134Y-14748826D01*
X12272325Y-14710731D02*
X12272325Y-14748826D01*
X12567563Y-14986922D02*
X12558039Y-14977398D01*
X12558039Y-14977398D02*
X12538991Y-14948826D01*
X12538991Y-14948826D02*
X12529468Y-14929779D01*
X12529468Y-14929779D02*
X12519944Y-14901207D01*
X12519944Y-14901207D02*
X12510420Y-14853588D01*
X12510420Y-14853588D02*
X12510420Y-14815493D01*
X12510420Y-14815493D02*
X12519944Y-14767874D01*
X12519944Y-14767874D02*
X12529468Y-14739303D01*
X12529468Y-14739303D02*
X12538991Y-14720255D01*
X12538991Y-14720255D02*
X12558039Y-14691683D01*
X12558039Y-14691683D02*
X12567563Y-14682160D01*
X12738991Y-14710731D02*
X12643753Y-14710731D01*
X12643753Y-14710731D02*
X12634229Y-14805969D01*
X12634229Y-14805969D02*
X12643753Y-14796445D01*
X12643753Y-14796445D02*
X12662801Y-14786922D01*
X12662801Y-14786922D02*
X12710420Y-14786922D01*
X12710420Y-14786922D02*
X12729468Y-14796445D01*
X12729468Y-14796445D02*
X12738991Y-14805969D01*
X12738991Y-14805969D02*
X12748515Y-14825017D01*
X12748515Y-14825017D02*
X12748515Y-14872636D01*
X12748515Y-14872636D02*
X12738991Y-14891683D01*
X12738991Y-14891683D02*
X12729468Y-14901207D01*
X12729468Y-14901207D02*
X12710420Y-14910731D01*
X12710420Y-14910731D02*
X12662801Y-14910731D01*
X12662801Y-14910731D02*
X12643753Y-14901207D01*
X12643753Y-14901207D02*
X12634229Y-14891683D01*
X12986610Y-14910731D02*
X12986610Y-14710731D01*
X13072325Y-14910731D02*
X13072325Y-14805969D01*
X13072325Y-14805969D02*
X13062801Y-14786922D01*
X13062801Y-14786922D02*
X13043753Y-14777398D01*
X13043753Y-14777398D02*
X13015182Y-14777398D01*
X13015182Y-14777398D02*
X12996134Y-14786922D01*
X12996134Y-14786922D02*
X12986610Y-14796445D01*
X13196134Y-14910731D02*
X13177087Y-14901207D01*
X13177087Y-14901207D02*
X13167563Y-14891683D01*
X13167563Y-14891683D02*
X13158039Y-14872636D01*
X13158039Y-14872636D02*
X13158039Y-14815493D01*
X13158039Y-14815493D02*
X13167563Y-14796445D01*
X13167563Y-14796445D02*
X13177087Y-14786922D01*
X13177087Y-14786922D02*
X13196134Y-14777398D01*
X13196134Y-14777398D02*
X13224706Y-14777398D01*
X13224706Y-14777398D02*
X13243753Y-14786922D01*
X13243753Y-14786922D02*
X13253277Y-14796445D01*
X13253277Y-14796445D02*
X13262801Y-14815493D01*
X13262801Y-14815493D02*
X13262801Y-14872636D01*
X13262801Y-14872636D02*
X13253277Y-14891683D01*
X13253277Y-14891683D02*
X13243753Y-14901207D01*
X13243753Y-14901207D02*
X13224706Y-14910731D01*
X13224706Y-14910731D02*
X13196134Y-14910731D01*
X13377087Y-14910731D02*
X13358039Y-14901207D01*
X13358039Y-14901207D02*
X13348515Y-14882160D01*
X13348515Y-14882160D02*
X13348515Y-14710731D01*
X13529468Y-14901207D02*
X13510420Y-14910731D01*
X13510420Y-14910731D02*
X13472325Y-14910731D01*
X13472325Y-14910731D02*
X13453277Y-14901207D01*
X13453277Y-14901207D02*
X13443753Y-14882160D01*
X13443753Y-14882160D02*
X13443753Y-14805969D01*
X13443753Y-14805969D02*
X13453277Y-14786922D01*
X13453277Y-14786922D02*
X13472325Y-14777398D01*
X13472325Y-14777398D02*
X13510420Y-14777398D01*
X13510420Y-14777398D02*
X13529468Y-14786922D01*
X13529468Y-14786922D02*
X13538991Y-14805969D01*
X13538991Y-14805969D02*
X13538991Y-14825017D01*
X13538991Y-14825017D02*
X13443753Y-14844064D01*
X13615182Y-14901207D02*
X13634230Y-14910731D01*
X13634230Y-14910731D02*
X13672325Y-14910731D01*
X13672325Y-14910731D02*
X13691372Y-14901207D01*
X13691372Y-14901207D02*
X13700896Y-14882160D01*
X13700896Y-14882160D02*
X13700896Y-14872636D01*
X13700896Y-14872636D02*
X13691372Y-14853588D01*
X13691372Y-14853588D02*
X13672325Y-14844064D01*
X13672325Y-14844064D02*
X13643753Y-14844064D01*
X13643753Y-14844064D02*
X13624706Y-14834541D01*
X13624706Y-14834541D02*
X13615182Y-14815493D01*
X13615182Y-14815493D02*
X13615182Y-14805969D01*
X13615182Y-14805969D02*
X13624706Y-14786922D01*
X13624706Y-14786922D02*
X13643753Y-14777398D01*
X13643753Y-14777398D02*
X13672325Y-14777398D01*
X13672325Y-14777398D02*
X13691372Y-14786922D01*
X13767563Y-14986922D02*
X13777087Y-14977398D01*
X13777087Y-14977398D02*
X13796134Y-14948826D01*
X13796134Y-14948826D02*
X13805658Y-14929779D01*
X13805658Y-14929779D02*
X13815182Y-14901207D01*
X13815182Y-14901207D02*
X13824706Y-14853588D01*
X13824706Y-14853588D02*
X13824706Y-14815493D01*
X13824706Y-14815493D02*
X13815182Y-14767874D01*
X13815182Y-14767874D02*
X13805658Y-14739303D01*
X13805658Y-14739303D02*
X13796134Y-14720255D01*
X13796134Y-14720255D02*
X13777087Y-14691683D01*
X13777087Y-14691683D02*
X13767563Y-14682160D01*
X14129468Y-14986922D02*
X14119944Y-14977398D01*
X14119944Y-14977398D02*
X14100896Y-14948826D01*
X14100896Y-14948826D02*
X14091372Y-14929779D01*
X14091372Y-14929779D02*
X14081849Y-14901207D01*
X14081849Y-14901207D02*
X14072325Y-14853588D01*
X14072325Y-14853588D02*
X14072325Y-14815493D01*
X14072325Y-14815493D02*
X14081849Y-14767874D01*
X14081849Y-14767874D02*
X14091372Y-14739303D01*
X14091372Y-14739303D02*
X14100896Y-14720255D01*
X14100896Y-14720255D02*
X14119944Y-14691683D01*
X14119944Y-14691683D02*
X14129468Y-14682160D01*
X14205658Y-14777398D02*
X14205658Y-14910731D01*
X14205658Y-14796445D02*
X14215182Y-14786922D01*
X14215182Y-14786922D02*
X14234230Y-14777398D01*
X14234230Y-14777398D02*
X14262801Y-14777398D01*
X14262801Y-14777398D02*
X14281849Y-14786922D01*
X14281849Y-14786922D02*
X14291372Y-14805969D01*
X14291372Y-14805969D02*
X14291372Y-14910731D01*
X14415182Y-14910731D02*
X14396134Y-14901207D01*
X14396134Y-14901207D02*
X14386611Y-14891683D01*
X14386611Y-14891683D02*
X14377087Y-14872636D01*
X14377087Y-14872636D02*
X14377087Y-14815493D01*
X14377087Y-14815493D02*
X14386611Y-14796445D01*
X14386611Y-14796445D02*
X14396134Y-14786922D01*
X14396134Y-14786922D02*
X14415182Y-14777398D01*
X14415182Y-14777398D02*
X14443753Y-14777398D01*
X14443753Y-14777398D02*
X14462801Y-14786922D01*
X14462801Y-14786922D02*
X14472325Y-14796445D01*
X14472325Y-14796445D02*
X14481849Y-14815493D01*
X14481849Y-14815493D02*
X14481849Y-14872636D01*
X14481849Y-14872636D02*
X14472325Y-14891683D01*
X14472325Y-14891683D02*
X14462801Y-14901207D01*
X14462801Y-14901207D02*
X14443753Y-14910731D01*
X14443753Y-14910731D02*
X14415182Y-14910731D01*
X14538992Y-14777398D02*
X14615182Y-14777398D01*
X14567563Y-14710731D02*
X14567563Y-14882160D01*
X14567563Y-14882160D02*
X14577087Y-14901207D01*
X14577087Y-14901207D02*
X14596134Y-14910731D01*
X14596134Y-14910731D02*
X14615182Y-14910731D01*
X14834230Y-14777398D02*
X14834230Y-14977398D01*
X14834230Y-14786922D02*
X14853277Y-14777398D01*
X14853277Y-14777398D02*
X14891373Y-14777398D01*
X14891373Y-14777398D02*
X14910420Y-14786922D01*
X14910420Y-14786922D02*
X14919944Y-14796445D01*
X14919944Y-14796445D02*
X14929468Y-14815493D01*
X14929468Y-14815493D02*
X14929468Y-14872636D01*
X14929468Y-14872636D02*
X14919944Y-14891683D01*
X14919944Y-14891683D02*
X14910420Y-14901207D01*
X14910420Y-14901207D02*
X14891373Y-14910731D01*
X14891373Y-14910731D02*
X14853277Y-14910731D01*
X14853277Y-14910731D02*
X14834230Y-14901207D01*
X15043753Y-14910731D02*
X15024706Y-14901207D01*
X15024706Y-14901207D02*
X15015182Y-14882160D01*
X15015182Y-14882160D02*
X15015182Y-14710731D01*
X15205658Y-14910731D02*
X15205658Y-14805969D01*
X15205658Y-14805969D02*
X15196134Y-14786922D01*
X15196134Y-14786922D02*
X15177087Y-14777398D01*
X15177087Y-14777398D02*
X15138992Y-14777398D01*
X15138992Y-14777398D02*
X15119944Y-14786922D01*
X15205658Y-14901207D02*
X15186611Y-14910731D01*
X15186611Y-14910731D02*
X15138992Y-14910731D01*
X15138992Y-14910731D02*
X15119944Y-14901207D01*
X15119944Y-14901207D02*
X15110420Y-14882160D01*
X15110420Y-14882160D02*
X15110420Y-14863112D01*
X15110420Y-14863112D02*
X15119944Y-14844064D01*
X15119944Y-14844064D02*
X15138992Y-14834541D01*
X15138992Y-14834541D02*
X15186611Y-14834541D01*
X15186611Y-14834541D02*
X15205658Y-14825017D01*
X15272325Y-14777398D02*
X15348515Y-14777398D01*
X15300896Y-14710731D02*
X15300896Y-14882160D01*
X15300896Y-14882160D02*
X15310420Y-14901207D01*
X15310420Y-14901207D02*
X15329468Y-14910731D01*
X15329468Y-14910731D02*
X15348515Y-14910731D01*
X15491373Y-14901207D02*
X15472325Y-14910731D01*
X15472325Y-14910731D02*
X15434230Y-14910731D01*
X15434230Y-14910731D02*
X15415182Y-14901207D01*
X15415182Y-14901207D02*
X15405658Y-14882160D01*
X15405658Y-14882160D02*
X15405658Y-14805969D01*
X15405658Y-14805969D02*
X15415182Y-14786922D01*
X15415182Y-14786922D02*
X15434230Y-14777398D01*
X15434230Y-14777398D02*
X15472325Y-14777398D01*
X15472325Y-14777398D02*
X15491373Y-14786922D01*
X15491373Y-14786922D02*
X15500896Y-14805969D01*
X15500896Y-14805969D02*
X15500896Y-14825017D01*
X15500896Y-14825017D02*
X15405658Y-14844064D01*
X15672325Y-14910731D02*
X15672325Y-14710731D01*
X15672325Y-14901207D02*
X15653277Y-14910731D01*
X15653277Y-14910731D02*
X15615182Y-14910731D01*
X15615182Y-14910731D02*
X15596134Y-14901207D01*
X15596134Y-14901207D02*
X15586611Y-14891683D01*
X15586611Y-14891683D02*
X15577087Y-14872636D01*
X15577087Y-14872636D02*
X15577087Y-14815493D01*
X15577087Y-14815493D02*
X15586611Y-14796445D01*
X15586611Y-14796445D02*
X15596134Y-14786922D01*
X15596134Y-14786922D02*
X15615182Y-14777398D01*
X15615182Y-14777398D02*
X15653277Y-14777398D01*
X15653277Y-14777398D02*
X15672325Y-14786922D01*
X15748515Y-14986922D02*
X15758039Y-14977398D01*
X15758039Y-14977398D02*
X15777087Y-14948826D01*
X15777087Y-14948826D02*
X15786611Y-14929779D01*
X15786611Y-14929779D02*
X15796134Y-14901207D01*
X15796134Y-14901207D02*
X15805658Y-14853588D01*
X15805658Y-14853588D02*
X15805658Y-14815493D01*
X15805658Y-14815493D02*
X15796134Y-14767874D01*
X15796134Y-14767874D02*
X15786611Y-14739303D01*
X15786611Y-14739303D02*
X15777087Y-14720255D01*
X15777087Y-14720255D02*
X15758039Y-14691683D01*
X15758039Y-14691683D02*
X15748515Y-14682160D01*
M02*
