G04 #@! TF.GenerationSoftware,KiCad,Pcbnew,8.0.6+1*
G04 #@! TF.CreationDate,2024-12-31T16:22:12+00:00*
G04 #@! TF.ProjectId,frontplate,66726f6e-7470-46c6-9174-652e6b696361,0.2*
G04 #@! TF.SameCoordinates,Original*
G04 #@! TF.FileFunction,Profile,NP*
%FSLAX46Y46*%
G04 Gerber Fmt 4.6, Leading zero omitted, Abs format (unit mm)*
G04 Created by KiCad (PCBNEW 8.0.6+1) date 2024-12-31 16:22:12*
%MOMM*%
%LPD*%
G01*
G04 APERTURE LIST*
G04 #@! TA.AperFunction,Profile*
%ADD10C,0.150000*%
G04 #@! TD*
G04 APERTURE END LIST*
D10*
X91000000Y-109500000D02*
X125918976Y-109500000D01*
X90000000Y-108500000D02*
X90000000Y-57500000D01*
X91000000Y-109500000D02*
G75*
G02*
X90000000Y-108500000I0J1000000D01*
G01*
X107500000Y-56500000D02*
X91000000Y-56500000D01*
X90000000Y-57500000D02*
G75*
G02*
X91000000Y-56500000I1000000J0D01*
G01*
X125500000Y-45875000D02*
X109000000Y-45875000D01*
X108000000Y-46875000D02*
G75*
G02*
X109000000Y-45875000I1000000J0D01*
G01*
X108000000Y-46875000D02*
X108000000Y-56000000D01*
X146000000Y-49625000D02*
X146000000Y-44750000D01*
X145000000Y-43750000D02*
G75*
G02*
X146000000Y-44750000I0J-1000000D01*
G01*
X145000000Y-43750000D02*
X127000000Y-43750000D01*
X126000000Y-44750000D02*
G75*
G02*
X127000000Y-43750000I1000000J0D01*
G01*
X126000000Y-44750000D02*
X126000000Y-45375000D01*
X164000000Y-51750000D02*
X164000000Y-51125000D01*
X163000000Y-50125000D02*
G75*
G02*
X164000000Y-51125000I0J-1000000D01*
G01*
X163000000Y-50125000D02*
X146500000Y-50125000D01*
X182000000Y-106894808D02*
X182000000Y-53250000D01*
X181000000Y-52250000D02*
G75*
G02*
X182000000Y-53250000I0J-1000000D01*
G01*
X181000000Y-52250000D02*
X164500000Y-52250000D01*
X193124811Y-139010244D02*
X203500000Y-121039889D01*
X182500000Y-107760833D02*
X203133975Y-119673864D01*
X191999967Y-139476169D02*
X140695574Y-125729199D01*
X140199360Y-125418960D02*
X126674009Y-109844313D01*
X182500000Y-107760833D02*
G75*
G02*
X181999993Y-106894808I500000J866033D01*
G01*
X203133975Y-119673864D02*
G75*
G02*
X203500021Y-121039901I-499975J-866036D01*
G01*
X193124811Y-139010244D02*
G75*
G02*
X191999976Y-139476134I-866011J500044D01*
G01*
X140695574Y-125729199D02*
G75*
G02*
X140199369Y-125418952I258826J965899D01*
G01*
X125918976Y-109500000D02*
G75*
G02*
X126674023Y-109844301I24J-1000000D01*
G01*
X164500000Y-52250000D02*
G75*
G02*
X164000000Y-51750000I0J500000D01*
G01*
X146500000Y-50125000D02*
G75*
G02*
X146000000Y-49625000I0J500000D01*
G01*
X126000000Y-45375000D02*
G75*
G02*
X125500000Y-45875000I-500000J0D01*
G01*
X108000000Y-56000000D02*
G75*
G02*
X107500000Y-56500000I-500000J0D01*
G01*
X93000000Y-107000000D02*
X107000000Y-107000000D01*
X107000000Y-107000000D02*
X107000000Y-93000000D01*
X107000000Y-93000000D02*
X93000000Y-93000000D01*
X93000000Y-93000000D02*
X93000000Y-107000000D01*
X93000000Y-90000000D02*
X107000000Y-90000000D01*
X107000000Y-90000000D02*
X107000000Y-76000000D01*
X107000000Y-76000000D02*
X93000000Y-76000000D01*
X93000000Y-76000000D02*
X93000000Y-90000000D01*
X93000000Y-73000000D02*
X107000000Y-73000000D01*
X107000000Y-73000000D02*
X107000000Y-59000000D01*
X107000000Y-59000000D02*
X93000000Y-59000000D01*
X93000000Y-59000000D02*
X93000000Y-73000000D01*
X111000000Y-96375000D02*
X125000000Y-96375000D01*
X125000000Y-96375000D02*
X125000000Y-82375000D01*
X125000000Y-82375000D02*
X111000000Y-82375000D01*
X111000000Y-82375000D02*
X111000000Y-96375000D01*
X111000000Y-79375000D02*
X125000000Y-79375000D01*
X125000000Y-79375000D02*
X125000000Y-65375000D01*
X125000000Y-65375000D02*
X111000000Y-65375000D01*
X111000000Y-65375000D02*
X111000000Y-79375000D01*
X111000000Y-62375000D02*
X125000000Y-62375000D01*
X125000000Y-62375000D02*
X125000000Y-48375000D01*
X125000000Y-48375000D02*
X111000000Y-48375000D01*
X111000000Y-48375000D02*
X111000000Y-62375000D01*
X129000000Y-94250000D02*
X143000000Y-94250000D01*
X143000000Y-94250000D02*
X143000000Y-80250000D01*
X143000000Y-80250000D02*
X129000000Y-80250000D01*
X129000000Y-80250000D02*
X129000000Y-94250000D01*
X129000000Y-77250000D02*
X143000000Y-77250000D01*
X143000000Y-77250000D02*
X143000000Y-63250000D01*
X143000000Y-63250000D02*
X129000000Y-63250000D01*
X129000000Y-63250000D02*
X129000000Y-77250000D01*
X129000000Y-60250000D02*
X143000000Y-60250000D01*
X143000000Y-60250000D02*
X143000000Y-46250000D01*
X143000000Y-46250000D02*
X129000000Y-46250000D01*
X129000000Y-46250000D02*
X129000000Y-60250000D01*
X147000000Y-100625000D02*
X161000000Y-100625000D01*
X161000000Y-100625000D02*
X161000000Y-86625000D01*
X161000000Y-86625000D02*
X147000000Y-86625000D01*
X147000000Y-86625000D02*
X147000000Y-100625000D01*
X147000000Y-83625000D02*
X161000000Y-83625000D01*
X161000000Y-83625000D02*
X161000000Y-69625000D01*
X161000000Y-69625000D02*
X147000000Y-69625000D01*
X147000000Y-69625000D02*
X147000000Y-83625000D01*
X147000000Y-66625000D02*
X161000000Y-66625000D01*
X161000000Y-66625000D02*
X161000000Y-52625000D01*
X161000000Y-52625000D02*
X147000000Y-52625000D01*
X147000000Y-52625000D02*
X147000000Y-66625000D01*
X165000000Y-102750000D02*
X179000000Y-102750000D01*
X179000000Y-102750000D02*
X179000000Y-88750000D01*
X179000000Y-88750000D02*
X165000000Y-88750000D01*
X165000000Y-88750000D02*
X165000000Y-102750000D01*
X165000000Y-85750000D02*
X179000000Y-85750000D01*
X179000000Y-85750000D02*
X179000000Y-71750000D01*
X179000000Y-71750000D02*
X165000000Y-71750000D01*
X165000000Y-71750000D02*
X165000000Y-85750000D01*
X165000000Y-68750000D02*
X179000000Y-68750000D01*
X179000000Y-68750000D02*
X179000000Y-54750000D01*
X179000000Y-54750000D02*
X165000000Y-54750000D01*
X165000000Y-54750000D02*
X165000000Y-68750000D01*
X143400000Y-123150000D02*
X157400000Y-123150000D01*
X157400000Y-123150000D02*
X157400000Y-109150000D01*
X157400000Y-109150000D02*
X143400000Y-109150000D01*
X143400000Y-109150000D02*
X143400000Y-123150000D01*
X161720080Y-123718749D02*
X175243042Y-127342216D01*
X175243042Y-127342216D02*
X178866508Y-113819254D01*
X178866508Y-113819254D02*
X165343547Y-110195788D01*
X165343547Y-110195788D02*
X161720080Y-123718749D01*
X179268716Y-129009705D02*
X191393071Y-136009705D01*
X191393071Y-136009705D02*
X198393071Y-123885349D01*
X198393071Y-123885349D02*
X186268716Y-116885349D01*
X186268716Y-116885349D02*
X179268716Y-129009705D01*
X110100000Y-74500000D02*
G75*
G02*
X107900000Y-74500000I-1100000J0D01*
G01*
X107900000Y-74500000D02*
G75*
G02*
X110100000Y-74500000I1100000J0D01*
G01*
X110100000Y-91500000D02*
G75*
G02*
X107900000Y-91500000I-1100000J0D01*
G01*
X107900000Y-91500000D02*
G75*
G02*
X110100000Y-91500000I1100000J0D01*
G01*
X164100000Y-68125000D02*
G75*
G02*
X161900000Y-68125000I-1100000J0D01*
G01*
X161900000Y-68125000D02*
G75*
G02*
X164100000Y-68125000I1100000J0D01*
G01*
X142500000Y-107650000D02*
G75*
G02*
X140300000Y-107650000I-1100000J0D01*
G01*
X140300000Y-107650000D02*
G75*
G02*
X142500000Y-107650000I1100000J0D01*
G01*
X182286589Y-112888004D02*
G75*
G02*
X180086589Y-112888004I-1100000J0D01*
G01*
X180086589Y-112888004D02*
G75*
G02*
X182286589Y-112888004I1100000J0D01*
G01*
M02*
