%TF.GenerationSoftware,KiCad,Pcbnew,8.0.6+1*%
%TF.CreationDate,2024-11-30T16:17:35+00:00*%
%TF.ProjectId,frontplate,66726f6e-7470-46c6-9174-652e6b696361,0.2*%
%TF.SameCoordinates,Original*%
%TF.FileFunction,Drillmap*%
%TF.FilePolarity,Positive*%
%FSLAX45Y45*%
G04 Gerber Fmt 4.5, Leading zero omitted, Abs format (unit mm)*
G04 Created by KiCad (PCBNEW 8.0.6+1) date 2024-11-30 16:17:35*
%MOMM*%
%LPD*%
G01*
G04 APERTURE LIST*
%ADD10C,0.150000*%
%ADD11C,0.200000*%
G04 APERTURE END LIST*
D10*
X9100000Y-10950000D02*
X12612845Y-10950000D01*
X9000000Y-10850000D02*
X9000000Y-5750000D01*
X9100000Y-10950000D02*
G75*
G02*
X9000000Y-10850000I0J100000D01*
G01*
X10750000Y-5650000D02*
X9100000Y-5650000D01*
X9000000Y-5750000D02*
G75*
G02*
X9100000Y-5650000I100000J0D01*
G01*
X12550000Y-5225000D02*
X10900000Y-5225000D01*
X10800000Y-5325000D02*
G75*
G02*
X10900000Y-5225000I100000J0D01*
G01*
X10800000Y-5325000D02*
X10800000Y-5600000D01*
X14600000Y-5175000D02*
X14600000Y-5112500D01*
X14500000Y-5012500D02*
G75*
G02*
X14600000Y-5112500I0J-100000D01*
G01*
X14500000Y-5012500D02*
X12700000Y-5012500D01*
X12600000Y-5112500D02*
G75*
G02*
X12700000Y-5012500I100000J0D01*
G01*
X12600000Y-5112500D02*
X12600000Y-5175000D01*
X16400000Y-5387500D02*
X16400000Y-5325000D01*
X16300000Y-5225000D02*
G75*
G02*
X16400000Y-5325000I0J-100000D01*
G01*
X16300000Y-5225000D02*
X14650000Y-5225000D01*
X18200000Y-10930848D02*
X18200000Y-5537500D01*
X18100000Y-5437500D02*
G75*
G02*
X18200000Y-5537500I0J-100000D01*
G01*
X18100000Y-5437500D02*
X16450000Y-5437500D01*
X19293298Y-14146751D02*
X20375000Y-12273188D01*
X18225000Y-10974150D02*
X20356699Y-12204886D01*
X19237056Y-14170047D02*
X14056392Y-12781892D01*
X14029668Y-12764037D02*
X12652510Y-10969559D01*
X12612845Y-10950000D02*
G75*
G02*
X12652507Y-10969562I-5J-50000D01*
G01*
X14056392Y-12781892D02*
G75*
G02*
X14029668Y-12764037I12938J48292D01*
G01*
X19293298Y-14146751D02*
G75*
G02*
X19237057Y-14170043I-43298J25001D01*
G01*
X20356699Y-12204886D02*
G75*
G02*
X20375003Y-12273189I-24999J-43304D01*
G01*
X18225000Y-10974150D02*
G75*
G02*
X18200002Y-10930848I25000J43300D01*
G01*
X16450000Y-5437500D02*
G75*
G02*
X16400000Y-5387500I0J50000D01*
G01*
X14650000Y-5225000D02*
G75*
G02*
X14600000Y-5175000I0J50000D01*
G01*
X12600000Y-5175000D02*
G75*
G02*
X12550000Y-5225000I-50000J0D01*
G01*
X10800000Y-5600000D02*
G75*
G02*
X10750000Y-5650000I-50000J0D01*
G01*
X9300000Y-10700000D02*
X10700000Y-10700000D01*
X10700000Y-10700000D02*
X10700000Y-9300000D01*
X10700000Y-9300000D02*
X9300000Y-9300000D01*
X9300000Y-9300000D02*
X9300000Y-10700000D01*
X9300000Y-9000000D02*
X10700000Y-9000000D01*
X10700000Y-9000000D02*
X10700000Y-7600000D01*
X10700000Y-7600000D02*
X9300000Y-7600000D01*
X9300000Y-7600000D02*
X9300000Y-9000000D01*
X9300000Y-7300000D02*
X10700000Y-7300000D01*
X10700000Y-7300000D02*
X10700000Y-5900000D01*
X10700000Y-5900000D02*
X9300000Y-5900000D01*
X9300000Y-5900000D02*
X9300000Y-7300000D01*
X11100000Y-10275000D02*
X12500000Y-10275000D01*
X12500000Y-10275000D02*
X12500000Y-8875000D01*
X12500000Y-8875000D02*
X11100000Y-8875000D01*
X11100000Y-8875000D02*
X11100000Y-10275000D01*
X11100000Y-8575000D02*
X12500000Y-8575000D01*
X12500000Y-8575000D02*
X12500000Y-7175000D01*
X12500000Y-7175000D02*
X11100000Y-7175000D01*
X11100000Y-7175000D02*
X11100000Y-8575000D01*
X11100000Y-6875000D02*
X12500000Y-6875000D01*
X12500000Y-6875000D02*
X12500000Y-5475000D01*
X12500000Y-5475000D02*
X11100000Y-5475000D01*
X11100000Y-5475000D02*
X11100000Y-6875000D01*
X12900000Y-10062500D02*
X14300000Y-10062500D01*
X14300000Y-10062500D02*
X14300000Y-8662500D01*
X14300000Y-8662500D02*
X12900000Y-8662500D01*
X12900000Y-8662500D02*
X12900000Y-10062500D01*
X12900000Y-8362500D02*
X14300000Y-8362500D01*
X14300000Y-8362500D02*
X14300000Y-6962500D01*
X14300000Y-6962500D02*
X12900000Y-6962500D01*
X12900000Y-6962500D02*
X12900000Y-8362500D01*
X12900000Y-6662500D02*
X14300000Y-6662500D01*
X14300000Y-6662500D02*
X14300000Y-5262500D01*
X14300000Y-5262500D02*
X12900000Y-5262500D01*
X12900000Y-5262500D02*
X12900000Y-6662500D01*
X14700000Y-10275000D02*
X16100000Y-10275000D01*
X16100000Y-10275000D02*
X16100000Y-8875000D01*
X16100000Y-8875000D02*
X14700000Y-8875000D01*
X14700000Y-8875000D02*
X14700000Y-10275000D01*
X14700000Y-8575000D02*
X16100000Y-8575000D01*
X16100000Y-8575000D02*
X16100000Y-7175000D01*
X16100000Y-7175000D02*
X14700000Y-7175000D01*
X14700000Y-7175000D02*
X14700000Y-8575000D01*
X14700000Y-6875000D02*
X16100000Y-6875000D01*
X16100000Y-6875000D02*
X16100000Y-5475000D01*
X16100000Y-5475000D02*
X14700000Y-5475000D01*
X14700000Y-5475000D02*
X14700000Y-6875000D01*
X16500000Y-10487500D02*
X17900000Y-10487500D01*
X17900000Y-10487500D02*
X17900000Y-9087500D01*
X17900000Y-9087500D02*
X16500000Y-9087500D01*
X16500000Y-9087500D02*
X16500000Y-10487500D01*
X16500000Y-8787500D02*
X17900000Y-8787500D01*
X17900000Y-8787500D02*
X17900000Y-7387500D01*
X17900000Y-7387500D02*
X16500000Y-7387500D01*
X16500000Y-7387500D02*
X16500000Y-8787500D01*
X16500000Y-7087500D02*
X17900000Y-7087500D01*
X17900000Y-7087500D02*
X17900000Y-5687500D01*
X17900000Y-5687500D02*
X16500000Y-5687500D01*
X16500000Y-5687500D02*
X16500000Y-7087500D01*
X14340000Y-12527500D02*
X15740000Y-12527500D01*
X15740000Y-12527500D02*
X15740000Y-11127500D01*
X15740000Y-11127500D02*
X14340000Y-11127500D01*
X14340000Y-11127500D02*
X14340000Y-12527500D01*
X16172008Y-12584375D02*
X17524304Y-12946722D01*
X17524304Y-12946722D02*
X17886651Y-11594425D01*
X17886651Y-11594425D02*
X16534355Y-11232079D01*
X16534355Y-11232079D02*
X16172008Y-12584375D01*
X17926872Y-13113470D02*
X19139307Y-13813470D01*
X19139307Y-13813470D02*
X19839307Y-12601035D01*
X19839307Y-12601035D02*
X18626872Y-11901035D01*
X18626872Y-11901035D02*
X17926872Y-13113470D01*
X11010000Y-7025000D02*
G75*
G02*
X10790000Y-7025000I-110000J0D01*
G01*
X10790000Y-7025000D02*
G75*
G02*
X11010000Y-7025000I110000J0D01*
G01*
X11010000Y-8725000D02*
G75*
G02*
X10790000Y-8725000I-110000J0D01*
G01*
X10790000Y-8725000D02*
G75*
G02*
X11010000Y-8725000I110000J0D01*
G01*
X16410000Y-7025000D02*
G75*
G02*
X16190000Y-7025000I-110000J0D01*
G01*
X16190000Y-7025000D02*
G75*
G02*
X16410000Y-7025000I110000J0D01*
G01*
X14250000Y-10977500D02*
G75*
G02*
X14030000Y-10977500I-110000J0D01*
G01*
X14030000Y-10977500D02*
G75*
G02*
X14250000Y-10977500I110000J0D01*
G01*
X18228659Y-11501300D02*
G75*
G02*
X18008659Y-11501300I-110000J0D01*
G01*
X18008659Y-11501300D02*
G75*
G02*
X18228659Y-11501300I110000J0D01*
G01*
D11*
X9253277Y-14490731D02*
X9253277Y-14290731D01*
X9253277Y-14290731D02*
X9300896Y-14290731D01*
X9300896Y-14290731D02*
X9329467Y-14300255D01*
X9329467Y-14300255D02*
X9348515Y-14319303D01*
X9348515Y-14319303D02*
X9358039Y-14338350D01*
X9358039Y-14338350D02*
X9367563Y-14376445D01*
X9367563Y-14376445D02*
X9367563Y-14405017D01*
X9367563Y-14405017D02*
X9358039Y-14443112D01*
X9358039Y-14443112D02*
X9348515Y-14462160D01*
X9348515Y-14462160D02*
X9329467Y-14481207D01*
X9329467Y-14481207D02*
X9300896Y-14490731D01*
X9300896Y-14490731D02*
X9253277Y-14490731D01*
X9453277Y-14490731D02*
X9453277Y-14357398D01*
X9453277Y-14395493D02*
X9462801Y-14376445D01*
X9462801Y-14376445D02*
X9472324Y-14366922D01*
X9472324Y-14366922D02*
X9491372Y-14357398D01*
X9491372Y-14357398D02*
X9510420Y-14357398D01*
X9577086Y-14490731D02*
X9577086Y-14357398D01*
X9577086Y-14290731D02*
X9567563Y-14300255D01*
X9567563Y-14300255D02*
X9577086Y-14309779D01*
X9577086Y-14309779D02*
X9586610Y-14300255D01*
X9586610Y-14300255D02*
X9577086Y-14290731D01*
X9577086Y-14290731D02*
X9577086Y-14309779D01*
X9700896Y-14490731D02*
X9681848Y-14481207D01*
X9681848Y-14481207D02*
X9672324Y-14462160D01*
X9672324Y-14462160D02*
X9672324Y-14290731D01*
X9805658Y-14490731D02*
X9786610Y-14481207D01*
X9786610Y-14481207D02*
X9777086Y-14462160D01*
X9777086Y-14462160D02*
X9777086Y-14290731D01*
X10034229Y-14490731D02*
X10034229Y-14290731D01*
X10034229Y-14290731D02*
X10100896Y-14433588D01*
X10100896Y-14433588D02*
X10167563Y-14290731D01*
X10167563Y-14290731D02*
X10167563Y-14490731D01*
X10348515Y-14490731D02*
X10348515Y-14385969D01*
X10348515Y-14385969D02*
X10338991Y-14366922D01*
X10338991Y-14366922D02*
X10319944Y-14357398D01*
X10319944Y-14357398D02*
X10281848Y-14357398D01*
X10281848Y-14357398D02*
X10262801Y-14366922D01*
X10348515Y-14481207D02*
X10329467Y-14490731D01*
X10329467Y-14490731D02*
X10281848Y-14490731D01*
X10281848Y-14490731D02*
X10262801Y-14481207D01*
X10262801Y-14481207D02*
X10253277Y-14462160D01*
X10253277Y-14462160D02*
X10253277Y-14443112D01*
X10253277Y-14443112D02*
X10262801Y-14424064D01*
X10262801Y-14424064D02*
X10281848Y-14414541D01*
X10281848Y-14414541D02*
X10329467Y-14414541D01*
X10329467Y-14414541D02*
X10348515Y-14405017D01*
X10443753Y-14357398D02*
X10443753Y-14557398D01*
X10443753Y-14366922D02*
X10462801Y-14357398D01*
X10462801Y-14357398D02*
X10500896Y-14357398D01*
X10500896Y-14357398D02*
X10519944Y-14366922D01*
X10519944Y-14366922D02*
X10529467Y-14376445D01*
X10529467Y-14376445D02*
X10538991Y-14395493D01*
X10538991Y-14395493D02*
X10538991Y-14452636D01*
X10538991Y-14452636D02*
X10529467Y-14471683D01*
X10529467Y-14471683D02*
X10519944Y-14481207D01*
X10519944Y-14481207D02*
X10500896Y-14490731D01*
X10500896Y-14490731D02*
X10462801Y-14490731D01*
X10462801Y-14490731D02*
X10443753Y-14481207D01*
X10624705Y-14471683D02*
X10634229Y-14481207D01*
X10634229Y-14481207D02*
X10624705Y-14490731D01*
X10624705Y-14490731D02*
X10615182Y-14481207D01*
X10615182Y-14481207D02*
X10624705Y-14471683D01*
X10624705Y-14471683D02*
X10624705Y-14490731D01*
X10624705Y-14366922D02*
X10634229Y-14376445D01*
X10634229Y-14376445D02*
X10624705Y-14385969D01*
X10624705Y-14385969D02*
X10615182Y-14376445D01*
X10615182Y-14376445D02*
X10624705Y-14366922D01*
X10624705Y-14366922D02*
X10624705Y-14385969D01*
M02*
