G04 #@! TF.GenerationSoftware,KiCad,Pcbnew,8.0.6+1*
G04 #@! TF.CreationDate,2024-11-30T16:17:35+00:00*
G04 #@! TF.ProjectId,frontplate,66726f6e-7470-46c6-9174-652e6b696361,0.2*
G04 #@! TF.SameCoordinates,Original*
G04 #@! TF.FileFunction,Profile,NP*
%FSLAX46Y46*%
G04 Gerber Fmt 4.6, Leading zero omitted, Abs format (unit mm)*
G04 Created by KiCad (PCBNEW 8.0.6+1) date 2024-11-30 16:17:35*
%MOMM*%
%LPD*%
G01*
G04 APERTURE LIST*
G04 #@! TA.AperFunction,Profile*
%ADD10C,0.150000*%
G04 #@! TD*
G04 APERTURE END LIST*
D10*
X91000000Y-109500000D02*
X126128450Y-109500000D01*
X90000000Y-108500000D02*
X90000000Y-57500000D01*
X91000000Y-109500000D02*
G75*
G02*
X90000000Y-108500000I0J1000000D01*
G01*
X107500000Y-56500000D02*
X91000000Y-56500000D01*
X90000000Y-57500000D02*
G75*
G02*
X91000000Y-56500000I1000000J0D01*
G01*
X125500000Y-52250000D02*
X109000000Y-52250000D01*
X108000000Y-53250000D02*
G75*
G02*
X109000000Y-52250000I1000000J0D01*
G01*
X108000000Y-53250000D02*
X108000000Y-56000000D01*
X146000000Y-51750000D02*
X146000000Y-51125000D01*
X145000000Y-50125000D02*
G75*
G02*
X146000000Y-51125000I0J-1000000D01*
G01*
X145000000Y-50125000D02*
X127000000Y-50125000D01*
X126000000Y-51125000D02*
G75*
G02*
X127000000Y-50125000I1000000J0D01*
G01*
X126000000Y-51125000D02*
X126000000Y-51750000D01*
X164000000Y-53875000D02*
X164000000Y-53250000D01*
X163000000Y-52250000D02*
G75*
G02*
X164000000Y-53250000I0J-1000000D01*
G01*
X163000000Y-52250000D02*
X146500000Y-52250000D01*
X182000000Y-109308483D02*
X182000000Y-55375000D01*
X181000000Y-54375000D02*
G75*
G02*
X182000000Y-55375000I0J-1000000D01*
G01*
X181000000Y-54375000D02*
X164500000Y-54375000D01*
X192932979Y-141467506D02*
X203750000Y-122731876D01*
X182250000Y-109741495D02*
X203566987Y-122048864D01*
X192370557Y-141700469D02*
X140563924Y-127818923D01*
X140296679Y-127640370D02*
X126525104Y-109695591D01*
X126128450Y-109500000D02*
G75*
G02*
X126525073Y-109695615I-50J-500000D01*
G01*
X140563924Y-127818923D02*
G75*
G02*
X140296676Y-127640372I129376J482923D01*
G01*
X192932979Y-141467506D02*
G75*
G02*
X192370568Y-141700430I-432979J250006D01*
G01*
X203566987Y-122048864D02*
G75*
G02*
X203750032Y-122731894I-249987J-433036D01*
G01*
X182250000Y-109741495D02*
G75*
G02*
X182000015Y-109308483I250000J432995D01*
G01*
X164500000Y-54375000D02*
G75*
G02*
X164000000Y-53875000I0J500000D01*
G01*
X146500000Y-52250000D02*
G75*
G02*
X146000000Y-51750000I0J500000D01*
G01*
X126000000Y-51750000D02*
G75*
G02*
X125500000Y-52250000I-500000J0D01*
G01*
X108000000Y-56000000D02*
G75*
G02*
X107500000Y-56500000I-500000J0D01*
G01*
X93000000Y-107000000D02*
X107000000Y-107000000D01*
X107000000Y-107000000D02*
X107000000Y-93000000D01*
X107000000Y-93000000D02*
X93000000Y-93000000D01*
X93000000Y-93000000D02*
X93000000Y-107000000D01*
X93000000Y-90000000D02*
X107000000Y-90000000D01*
X107000000Y-90000000D02*
X107000000Y-76000000D01*
X107000000Y-76000000D02*
X93000000Y-76000000D01*
X93000000Y-76000000D02*
X93000000Y-90000000D01*
X93000000Y-73000000D02*
X107000000Y-73000000D01*
X107000000Y-73000000D02*
X107000000Y-59000000D01*
X107000000Y-59000000D02*
X93000000Y-59000000D01*
X93000000Y-59000000D02*
X93000000Y-73000000D01*
X111000000Y-102750000D02*
X125000000Y-102750000D01*
X125000000Y-102750000D02*
X125000000Y-88750000D01*
X125000000Y-88750000D02*
X111000000Y-88750000D01*
X111000000Y-88750000D02*
X111000000Y-102750000D01*
X111000000Y-85750000D02*
X125000000Y-85750000D01*
X125000000Y-85750000D02*
X125000000Y-71750000D01*
X125000000Y-71750000D02*
X111000000Y-71750000D01*
X111000000Y-71750000D02*
X111000000Y-85750000D01*
X111000000Y-68750000D02*
X125000000Y-68750000D01*
X125000000Y-68750000D02*
X125000000Y-54750000D01*
X125000000Y-54750000D02*
X111000000Y-54750000D01*
X111000000Y-54750000D02*
X111000000Y-68750000D01*
X129000000Y-100625000D02*
X143000000Y-100625000D01*
X143000000Y-100625000D02*
X143000000Y-86625000D01*
X143000000Y-86625000D02*
X129000000Y-86625000D01*
X129000000Y-86625000D02*
X129000000Y-100625000D01*
X129000000Y-83625000D02*
X143000000Y-83625000D01*
X143000000Y-83625000D02*
X143000000Y-69625000D01*
X143000000Y-69625000D02*
X129000000Y-69625000D01*
X129000000Y-69625000D02*
X129000000Y-83625000D01*
X129000000Y-66625000D02*
X143000000Y-66625000D01*
X143000000Y-66625000D02*
X143000000Y-52625000D01*
X143000000Y-52625000D02*
X129000000Y-52625000D01*
X129000000Y-52625000D02*
X129000000Y-66625000D01*
X147000000Y-102750000D02*
X161000000Y-102750000D01*
X161000000Y-102750000D02*
X161000000Y-88750000D01*
X161000000Y-88750000D02*
X147000000Y-88750000D01*
X147000000Y-88750000D02*
X147000000Y-102750000D01*
X147000000Y-85750000D02*
X161000000Y-85750000D01*
X161000000Y-85750000D02*
X161000000Y-71750000D01*
X161000000Y-71750000D02*
X147000000Y-71750000D01*
X147000000Y-71750000D02*
X147000000Y-85750000D01*
X147000000Y-68750000D02*
X161000000Y-68750000D01*
X161000000Y-68750000D02*
X161000000Y-54750000D01*
X161000000Y-54750000D02*
X147000000Y-54750000D01*
X147000000Y-54750000D02*
X147000000Y-68750000D01*
X165000000Y-104875000D02*
X179000000Y-104875000D01*
X179000000Y-104875000D02*
X179000000Y-90875000D01*
X179000000Y-90875000D02*
X165000000Y-90875000D01*
X165000000Y-90875000D02*
X165000000Y-104875000D01*
X165000000Y-87875000D02*
X179000000Y-87875000D01*
X179000000Y-87875000D02*
X179000000Y-73875000D01*
X179000000Y-73875000D02*
X165000000Y-73875000D01*
X165000000Y-73875000D02*
X165000000Y-87875000D01*
X165000000Y-70875000D02*
X179000000Y-70875000D01*
X179000000Y-70875000D02*
X179000000Y-56875000D01*
X179000000Y-56875000D02*
X165000000Y-56875000D01*
X165000000Y-56875000D02*
X165000000Y-70875000D01*
X143400000Y-125275000D02*
X157400000Y-125275000D01*
X157400000Y-125275000D02*
X157400000Y-111275000D01*
X157400000Y-111275000D02*
X143400000Y-111275000D01*
X143400000Y-111275000D02*
X143400000Y-125275000D01*
X161720080Y-125843749D02*
X175243042Y-129467216D01*
X175243042Y-129467216D02*
X178866508Y-115944254D01*
X178866508Y-115944254D02*
X165343547Y-112320788D01*
X165343547Y-112320788D02*
X161720080Y-125843749D01*
X179268716Y-131134705D02*
X191393071Y-138134705D01*
X191393071Y-138134705D02*
X198393071Y-126010349D01*
X198393071Y-126010349D02*
X186268716Y-119010349D01*
X186268716Y-119010349D02*
X179268716Y-131134705D01*
X110100000Y-70250000D02*
G75*
G02*
X107900000Y-70250000I-1100000J0D01*
G01*
X107900000Y-70250000D02*
G75*
G02*
X110100000Y-70250000I1100000J0D01*
G01*
X110100000Y-87250000D02*
G75*
G02*
X107900000Y-87250000I-1100000J0D01*
G01*
X107900000Y-87250000D02*
G75*
G02*
X110100000Y-87250000I1100000J0D01*
G01*
X164100000Y-70250000D02*
G75*
G02*
X161900000Y-70250000I-1100000J0D01*
G01*
X161900000Y-70250000D02*
G75*
G02*
X164100000Y-70250000I1100000J0D01*
G01*
X142500000Y-109775000D02*
G75*
G02*
X140300000Y-109775000I-1100000J0D01*
G01*
X140300000Y-109775000D02*
G75*
G02*
X142500000Y-109775000I1100000J0D01*
G01*
X182286589Y-115013004D02*
G75*
G02*
X180086589Y-115013004I-1100000J0D01*
G01*
X180086589Y-115013004D02*
G75*
G02*
X182286589Y-115013004I1100000J0D01*
G01*
M02*
