0
SECTION
2
HEADER
9
$INSUNITS
70
4
0
ENDSEC
0
SECTION
2
TABLES
0
TABLE
2
LTYPE
0
LTYPE
72
65
70
64
2
CONTINUOUS
3
______
73
0
40
0
0
ENDTAB
0
TABLE
2
LAYER
0
ENDTAB
0
ENDSEC
0
SECTION
2
ENTITIES
0
LINE
8
0
10
91
20
-109.5
11
126.1284497
21
-109.5
0
LINE
8
0
10
90
20
-108.5
11
90
21
-57.5
0
ARC
8
0
10
91
20
-108.5
40
1
50
180
51
270
0
LINE
8
0
10
107.5
20
-56.5
11
91
21
-56.5
0
ARC
8
0
10
91
20
-57.5
40
1
50
90
51
180
0
LINE
8
0
10
125.5
20
-52.25
11
109
21
-52.25
0
ARC
8
0
10
109
20
-53.25
40
1
50
90
51
180
0
LINE
8
0
10
108
20
-53.25
11
108
21
-56
0
LINE
8
0
10
146
20
-51.75
11
146
21
-51.125
0
ARC
8
0
10
145
20
-51.125
40
1
50
0
51
90
0
LINE
8
0
10
145
20
-50.125
11
127
21
-50.125
0
ARC
8
0
10
127
20
-51.125
40
1
50
90
51
180
0
LINE
8
0
10
126
20
-51.125
11
126
21
-51.75
0
LINE
8
0
10
164
20
-53.875
11
164
21
-53.25
0
ARC
8
0
10
163
20
-53.25
40
1
50
0
51
90
0
LINE
8
0
10
163
20
-52.25
11
146.5
21
-52.25
0
LINE
8
0
10
182
20
-58.625
11
182
21
-55.375
0
ARC
8
0
10
181
20
-55.375
40
1
50
0
51
90
0
LINE
8
0
10
181
20
-54.375
11
164.5
21
-54.375
0
LINE
8
0
10
192.9329792
20
-141.4675059
11
203.9330127
21
-122.4148891
0
LINE
8
0
10
192.370557
20
-141.7004688
11
140.5639244
21
-127.8189234
0
LINE
8
0
10
140.2966793
20
-127.6403699
11
126.5251044
21
-109.6955906
0
LINE
8
0
10
182.5
20
-59.125
11
203.5
21
-59.125
0
LINE
8
0
10
204
20
-59.625
11
204
21
-122.1648891
0
ARC
8
0
10
126.1284497
20
-110
40
0.5
50
37.5041439
51
90
0
ARC
8
0
10
140.6933339
20
-127.3359605
40
0.5
50
217.5041439
51
255.0000021
0
ARC
8
0
10
192.4999665
20
-141.2175059
40
0.5
50
255.0000021
51
329.9999999
0
ARC
8
0
10
203.5
20
-122.1648891
40
0.5
50
329.9999999
51
0
0
ARC
8
0
10
203.5
20
-59.625
40
0.5
50
0
51
90
0
ARC
8
0
10
182.5
20
-58.625
40
0.5
50
180
51
270
0
ARC
8
0
10
164.5
20
-53.875
40
0.5
50
180
51
270
0
ARC
8
0
10
146.5
20
-51.75
40
0.5
50
180
51
270
0
ARC
8
0
10
125.5
20
-51.75
40
0.5
50
270
51
0
0
ARC
8
0
10
107.5
20
-56
40
0.5
50
270
51
0
0
CIRCLE
8
0
10
109
20
-70.25
40
1.1
0
CIRCLE
8
0
10
109
20
-87.25
40
1.1
0
CIRCLE
8
0
10
163
20
-70.25
40
1.1
0
CIRCLE
8
0
10
141.4
20
-109.775
40
1.1
0
CIRCLE
8
0
10
181.1865886
20
-115.0130038
40
1.1
0
ENDSEC
0
EOF