0
SECTION
2
HEADER
9
$INSUNITS
70
4
0
ENDSEC
0
SECTION
2
TABLES
0
TABLE
2
LTYPE
0
LTYPE
72
65
70
64
2
CONTINUOUS
3
______
73
0
40
0
0
ENDTAB
0
TABLE
2
LAYER
0
ENDTAB
0
ENDSEC
0
SECTION
2
ENTITIES
0
LINE
8
0
10
91
20
-109.5
11
125.9189758
21
-109.5
0
LINE
8
0
10
90
20
-108.5
11
90
21
-57.5
0
ARC
8
0
10
91
20
-108.5
40
1
50
180
51
270
0
LINE
8
0
10
107
20
-56.5
11
91
21
-56.5
0
ARC
8
0
10
91
20
-57.5
40
1
50
90
51
180
0
LINE
8
0
10
125
20
-45.875
11
109
21
-45.875
0
ARC
8
0
10
109
20
-46.875
40
1
50
90
51
180
0
LINE
8
0
10
108
20
-46.875
11
108
21
-55.5
0
LINE
8
0
10
146
20
-49.125
11
146
21
-44.75
0
ARC
8
0
10
145
20
-44.75
40
1
50
0
51
90
0
LINE
8
0
10
145
20
-43.75
11
127
21
-43.75
0
ARC
8
0
10
127
20
-44.75
40
1
50
90
51
180
0
LINE
8
0
10
126
20
-44.75
11
126
21
-44.875
0
LINE
8
0
10
164
20
-51.25
11
164
21
-51.125
0
ARC
8
0
10
163
20
-51.125
40
1
50
0
51
90
0
LINE
8
0
10
163
20
-50.125
11
147
21
-50.125
0
LINE
8
0
10
182
20
-56
11
182
21
-53.25
0
ARC
8
0
10
181
20
-53.25
40
1
50
0
51
90
0
LINE
8
0
10
181
20
-52.25
11
165
21
-52.25
0
LINE
8
0
10
193.124811
20
-139.0102436
11
203.8660254
21
-120.4059145
0
LINE
8
0
10
191.9999666
20
-139.4761694
11
140.6955738
21
-125.7291988
0
LINE
8
0
10
140.1993597
20
-125.4189597
11
126.6740089
21
-109.8443133
0
ARC
8
0
10
192.2587856
20
-138.5102436
40
1
50
255.0000021
51
329.9999999
0
ARC
8
0
10
140.9543928
20
-124.763273
40
1
50
220.971739
51
255.0000021
0
ARC
8
0
10
125.9189758
20
-110.5
40
1
50
40.971739
51
90
0
LINE
8
0
10
183
20
-57
11
203
21
-57
0
LINE
8
0
10
204
20
-119.9059145
11
204
21
-58
0
ARC
8
0
10
203
20
-119.9059145
40
1
50
329.9999999
51
0
0
ARC
8
0
10
203
20
-58
40
1
50
0
51
90
0
ARC
8
0
10
183
20
-56
40
1
50
180
51
270
0
ARC
8
0
10
165
20
-51.25
40
1
50
180
51
270
0
ARC
8
0
10
147
20
-49.125
40
1
50
180
51
270
0
ARC
8
0
10
125
20
-44.875
40
1
50
270
51
0
0
ARC
8
0
10
107
20
-55.5
40
1
50
270
51
0
0
CIRCLE
8
0
10
109
20
-74.5
40
1.1
0
CIRCLE
8
0
10
109
20
-91.5
40
1.1
0
CIRCLE
8
0
10
163
20
-68.125
40
1.1
0
CIRCLE
8
0
10
141.4
20
-107.65
40
1.1
0
CIRCLE
8
0
10
181.1865886
20
-112.8880038
40
1.1
0
ENDSEC
0
EOF