<svg width="114mm" height="91.593mm" viewBox="0 0 114 91.593" xmlns="http://www.w3.org/2000/svg"><g id="svgGroup" stroke-linecap="round" fill-rule="evenodd" font-size="9pt" stroke="#000" stroke-width="0.25mm" fill="none" style="stroke:#000;stroke-width:0.25mm;fill:none"><path d="M 1 59.375 L 36.128 59.375 A 0.5 0.5 0 0 1 36.525 59.571 L 50.297 77.515 A 0.5 0.5 0 0 0 50.564 77.694 L 102.371 91.575 A 0.5 0.5 0 0 0 102.933 91.343 L 113.933 72.29 A 0.5 0.5 0 0 0 114 72.04 L 114 9.5 A 0.5 0.5 0 0 0 113.5 9 L 92.5 9 A 0.5 0.5 0 0 1 92 8.5 L 92 5.25 A 1 1 0 0 0 91 4.25 L 74.5 4.25 A 0.5 0.5 0 0 1 74 3.75 L 74 3.125 A 1 1 0 0 0 73 2.125 L 56.5 2.125 A 0.5 0.5 0 0 1 56 1.625 L 56 1 A 1 1 0 0 0 55 0 L 37 0 A 1 1 0 0 0 36 1 L 36 1.625 A 0.5 0.5 0 0 1 35.5 2.125 L 19 2.125 A 1 1 0 0 0 18 3.125 L 18 5.875 A 0.5 0.5 0 0 1 17.5 6.375 L 1 6.375 A 1 1 0 0 0 0 7.375 L 0 58.375 A 1 1 0 0 0 1 59.375 Z M 19 20.125 m -1.1 0 a 1.1 1.1 0 0 1 2.2 0 a 1.1 1.1 0 0 1 -2.2 0 z M 19 37.125 m -1.1 0 a 1.1 1.1 0 0 1 2.2 0 a 1.1 1.1 0 0 1 -2.2 0 z M 73 20.125 m -1.1 0 a 1.1 1.1 0 0 1 2.2 0 a 1.1 1.1 0 0 1 -2.2 0 z M 51.4 59.65 m -1.1 0 a 1.1 1.1 0 0 1 2.2 0 a 1.1 1.1 0 0 1 -2.2 0 z M 91.187 64.888 m -1.1 0 a 1.1 1.1 0 0 1 2.2 0 a 1.1 1.1 0 0 1 -2.2 0 z" vector-effect="non-scaling-stroke"/></g></svg>