<svg width="22mm" height="62.808mm" viewBox="0 0 22 62.808" xmlns="http://www.w3.org/2000/svg"><g id="svgGroup" stroke-linecap="round" fill-rule="evenodd" font-size="9pt" stroke="#000" stroke-width="0.25mm" fill="none" style="stroke:#000;stroke-width:0.25mm;fill:none"><path d="M 0 50.183 L 0 0.5 A 0.5 0.5 0 0 1 0.5 0 L 21.5 0 A 0.5 0.5 0 0 1 22 0.5 L 22 62.308 A 0.5 0.5 0 0 1 21.25 62.741 L 0.25 50.616 A 0.5 0.5 0 0 1 0 50.183 Z M 3 48.575 m -1.1 0 a 1.1 1.1 0 0 1 2.2 0 a 1.1 1.1 0 0 1 -2.2 0 z M 19 57.475 m -1.1 0 a 1.1 1.1 0 0 1 2.2 0 a 1.1 1.1 0 0 1 -2.2 0 z" vector-effect="non-scaling-stroke"/></g></svg>