<svg width="22mm" height="62.442mm" viewBox="0 0 22 62.442" xmlns="http://www.w3.org/2000/svg"><g id="svgGroup" stroke-linecap="round" fill-rule="evenodd" font-size="9pt" stroke="#000" stroke-width="0.25mm" fill="none" style="stroke:#000;stroke-width:0.25mm;fill:none"><path d="M 0 49.895 L 0 1 A 1 1 0 0 1 1 0 L 21 0 A 1 1 0 0 1 22 1 L 22 61.442 A 1 1 0 0 1 20.5 62.308 L 0.5 50.761 A 1 1 0 0 1 0 49.895 Z M 3 48.575 m -1.1 0 a 1.1 1.1 0 0 1 2.2 0 a 1.1 1.1 0 0 1 -2.2 0 z M 19 57.475 m -1.1 0 a 1.1 1.1 0 0 1 2.2 0 a 1.1 1.1 0 0 1 -2.2 0 z" vector-effect="non-scaling-stroke"/></g></svg>