<svg width="113.634mm" height="95.76mm" viewBox="0 0 113.634 95.76" xmlns="http://www.w3.org/2000/svg"><g id="svgGroup" stroke-linecap="round" fill-rule="evenodd" font-size="9pt" stroke="#000" stroke-width="0.25mm" fill="none" style="stroke:#000;stroke-width:0.25mm;fill:none"><path d="M 1 65.75 L 35.919 65.75 A 1 1 0 0 1 36.674 66.094 L 50.199 81.669 A 1 1 0 0 0 50.696 81.979 L 102 95.726 A 1 1 0 0 0 103.125 95.26 L 113.5 77.29 A 1 1 0 0 0 113.134 75.924 L 92.5 64.011 A 1 1 0 0 1 92 63.145 L 92 9.5 A 1 1 0 0 0 91 8.5 L 74.5 8.5 A 0.5 0.5 0 0 1 74 8 L 74 7.375 A 1 1 0 0 0 73 6.375 L 56.5 6.375 A 0.5 0.5 0 0 1 56 5.875 L 56 1 A 1 1 0 0 0 55 0 L 37 0 A 1 1 0 0 0 36 1 L 36 1.625 A 0.5 0.5 0 0 1 35.5 2.125 L 19 2.125 A 1 1 0 0 0 18 3.125 L 18 12.25 A 0.5 0.5 0 0 1 17.5 12.75 L 1 12.75 A 1 1 0 0 0 0 13.75 L 0 64.75 A 1 1 0 0 0 1 65.75 Z M 71.72 79.969 L 85.243 83.592 L 88.867 70.069 L 75.344 66.446 L 71.72 79.969 Z M 3 63.25 L 17 63.25 L 17 49.25 L 3 49.25 L 3 63.25 Z M 3 46.25 L 17 46.25 L 17 32.25 L 3 32.25 L 3 46.25 Z M 3 29.25 L 17 29.25 L 17 15.25 L 3 15.25 L 3 29.25 Z M 21 52.625 L 35 52.625 L 35 38.625 L 21 38.625 L 21 52.625 Z M 21 35.625 L 35 35.625 L 35 21.625 L 21 21.625 L 21 35.625 Z M 21 18.625 L 35 18.625 L 35 4.625 L 21 4.625 L 21 18.625 Z M 39 50.5 L 53 50.5 L 53 36.5 L 39 36.5 L 39 50.5 Z M 39 33.5 L 53 33.5 L 53 19.5 L 39 19.5 L 39 33.5 Z M 39 16.5 L 53 16.5 L 53 2.5 L 39 2.5 L 39 16.5 Z M 57 56.875 L 71 56.875 L 71 42.875 L 57 42.875 L 57 56.875 Z M 57 39.875 L 71 39.875 L 71 25.875 L 57 25.875 L 57 39.875 Z M 57 22.875 L 71 22.875 L 71 8.875 L 57 8.875 L 57 22.875 Z M 75 59 L 89 59 L 89 45 L 75 45 L 75 59 Z M 75 42 L 89 42 L 89 28 L 75 28 L 75 42 Z M 75 25 L 89 25 L 89 11 L 75 11 L 75 25 Z M 53.4 79.4 L 67.4 79.4 L 67.4 65.4 L 53.4 65.4 L 53.4 79.4 Z M 89.269 85.26 L 101.393 92.26 L 108.393 80.135 L 96.269 73.135 L 89.269 85.26 Z M 19 30.75 m -1.1 0 a 1.1 1.1 0 0 1 2.2 0 a 1.1 1.1 0 0 1 -2.2 0 z M 19 47.75 m -1.1 0 a 1.1 1.1 0 0 1 2.2 0 a 1.1 1.1 0 0 1 -2.2 0 z M 73 24.375 m -1.1 0 a 1.1 1.1 0 0 1 2.2 0 a 1.1 1.1 0 0 1 -2.2 0 z M 51.4 63.9 m -1.1 0 a 1.1 1.1 0 0 1 2.2 0 a 1.1 1.1 0 0 1 -2.2 0 z M 91.187 69.138 m -1.1 0 a 1.1 1.1 0 0 1 2.2 0 a 1.1 1.1 0 0 1 -2.2 0 z" vector-effect="non-scaling-stroke"/></g></svg>