<svg width="113.817mm" height="91.593mm" viewBox="0 0 113.817 91.593" xmlns="http://www.w3.org/2000/svg"><g id="svgGroup" stroke-linecap="round" fill-rule="evenodd" font-size="9pt" stroke="#000" stroke-width="0.25mm" fill="none" style="stroke:#000;stroke-width:0.25mm;fill:none"><path d="M 1 59.375 L 36.128 59.375 A 0.5 0.5 0 0 1 36.525 59.571 L 50.297 77.515 A 0.5 0.5 0 0 0 50.564 77.694 L 102.371 91.575 A 0.5 0.5 0 0 0 102.933 91.343 L 113.75 72.607 A 0.5 0.5 0 0 0 113.567 71.924 L 92.25 59.616 A 0.5 0.5 0 0 1 92 59.183 L 92 5.25 A 1 1 0 0 0 91 4.25 L 74.5 4.25 A 0.5 0.5 0 0 1 74 3.75 L 74 3.125 A 1 1 0 0 0 73 2.125 L 56.5 2.125 A 0.5 0.5 0 0 1 56 1.625 L 56 1 A 1 1 0 0 0 55 0 L 37 0 A 1 1 0 0 0 36 1 L 36 1.625 A 0.5 0.5 0 0 1 35.5 2.125 L 19 2.125 A 1 1 0 0 0 18 3.125 L 18 5.875 A 0.5 0.5 0 0 1 17.5 6.375 L 1 6.375 A 1 1 0 0 0 0 7.375 L 0 58.375 A 1 1 0 0 0 1 59.375 Z M 71.72 75.719 L 85.243 79.342 L 88.867 65.819 L 75.344 62.196 L 71.72 75.719 Z M 3 56.875 L 17 56.875 L 17 42.875 L 3 42.875 L 3 56.875 Z M 3 39.875 L 17 39.875 L 17 25.875 L 3 25.875 L 3 39.875 Z M 3 22.875 L 17 22.875 L 17 8.875 L 3 8.875 L 3 22.875 Z M 21 52.625 L 35 52.625 L 35 38.625 L 21 38.625 L 21 52.625 Z M 21 35.625 L 35 35.625 L 35 21.625 L 21 21.625 L 21 35.625 Z M 21 18.625 L 35 18.625 L 35 4.625 L 21 4.625 L 21 18.625 Z M 39 50.5 L 53 50.5 L 53 36.5 L 39 36.5 L 39 50.5 Z M 39 33.5 L 53 33.5 L 53 19.5 L 39 19.5 L 39 33.5 Z M 39 16.5 L 53 16.5 L 53 2.5 L 39 2.5 L 39 16.5 Z M 57 52.625 L 71 52.625 L 71 38.625 L 57 38.625 L 57 52.625 Z M 57 35.625 L 71 35.625 L 71 21.625 L 57 21.625 L 57 35.625 Z M 57 18.625 L 71 18.625 L 71 4.625 L 57 4.625 L 57 18.625 Z M 75 54.75 L 89 54.75 L 89 40.75 L 75 40.75 L 75 54.75 Z M 75 37.75 L 89 37.75 L 89 23.75 L 75 23.75 L 75 37.75 Z M 75 20.75 L 89 20.75 L 89 6.75 L 75 6.75 L 75 20.75 Z M 53.4 75.15 L 67.4 75.15 L 67.4 61.15 L 53.4 61.15 L 53.4 75.15 Z M 89.269 81.01 L 101.393 88.01 L 108.393 75.885 L 96.269 68.885 L 89.269 81.01 Z M 19 20.125 m -1.1 0 a 1.1 1.1 0 0 1 2.2 0 a 1.1 1.1 0 0 1 -2.2 0 z M 19 37.125 m -1.1 0 a 1.1 1.1 0 0 1 2.2 0 a 1.1 1.1 0 0 1 -2.2 0 z M 73 20.125 m -1.1 0 a 1.1 1.1 0 0 1 2.2 0 a 1.1 1.1 0 0 1 -2.2 0 z M 51.4 59.65 m -1.1 0 a 1.1 1.1 0 0 1 2.2 0 a 1.1 1.1 0 0 1 -2.2 0 z M 91.187 64.888 m -1.1 0 a 1.1 1.1 0 0 1 2.2 0 a 1.1 1.1 0 0 1 -2.2 0 z" vector-effect="non-scaling-stroke"/></g></svg>