0
SECTION
2
HEADER
9
$INSUNITS
70
4
0
ENDSEC
0
SECTION
2
TABLES
0
TABLE
2
LTYPE
0
LTYPE
72
65
70
64
2
CONTINUOUS
3
______
73
0
40
0
0
ENDTAB
0
TABLE
2
LAYER
0
ENDTAB
0
ENDSEC
0
SECTION
2
ENTITIES
0
LINE
8
0
10
91
20
-109.5
11
126.1284497
21
-109.5
0
LINE
8
0
10
90
20
-108.5
11
90
21
-57.5
0
ARC
8
0
10
91
20
-108.5
40
1
50
180
51
270
0
LINE
8
0
10
107.5
20
-56.5
11
91
21
-56.5
0
ARC
8
0
10
91
20
-57.5
40
1
50
90
51
180
0
LINE
8
0
10
125.5
20
-52.25
11
109
21
-52.25
0
ARC
8
0
10
109
20
-53.25
40
1
50
90
51
180
0
LINE
8
0
10
108
20
-53.25
11
108
21
-56
0
LINE
8
0
10
146
20
-51.75
11
146
21
-51.125
0
ARC
8
0
10
145
20
-51.125
40
1
50
0
51
90
0
LINE
8
0
10
145
20
-50.125
11
127
21
-50.125
0
ARC
8
0
10
127
20
-51.125
40
1
50
90
51
180
0
LINE
8
0
10
126
20
-51.125
11
126
21
-51.75
0
LINE
8
0
10
164
20
-53.875
11
164
21
-53.25
0
ARC
8
0
10
163
20
-53.25
40
1
50
0
51
90
0
LINE
8
0
10
163
20
-52.25
11
146.5
21
-52.25
0
LINE
8
0
10
182
20
-109.3084827
11
182
21
-55.375
0
ARC
8
0
10
181
20
-55.375
40
1
50
0
51
90
0
LINE
8
0
10
181
20
-54.375
11
164.5
21
-54.375
0
LINE
8
0
10
192.9329792
20
-141.4675059
11
203.75
21
-122.7318764
0
LINE
8
0
10
182.25
20
-109.7414954
11
203.5669873
21
-122.0488637
0
LINE
8
0
10
192.370557
20
-141.7004688
11
140.5639244
21
-127.8189234
0
LINE
8
0
10
140.2966793
20
-127.6403699
11
126.5251044
21
-109.6955906
0
ARC
8
0
10
126.1284497
20
-110
40
0.5
50
37.5041439
51
90
0
ARC
8
0
10
140.6933339
20
-127.3359605
40
0.5
50
217.5041439
51
255.0000021
0
ARC
8
0
10
192.4999665
20
-141.2175059
40
0.5
50
255.0000021
51
329.9999999
0
ARC
8
0
10
203.3169873
20
-122.4818764
40
0.5
50
329.9999999
51
59.9999999
0
ARC
8
0
10
182.5
20
-109.3084827
40
0.5
50
180
51
239.9999999
0
ARC
8
0
10
164.5
20
-53.875
40
0.5
50
180
51
270
0
ARC
8
0
10
146.5
20
-51.75
40
0.5
50
180
51
270
0
ARC
8
0
10
125.5
20
-51.75
40
0.5
50
270
51
0
0
ARC
8
0
10
107.5
20
-56
40
0.5
50
270
51
0
0
LINE
8
0
10
93
20
-107
11
107
21
-107
0
LINE
8
0
10
107
20
-107
11
107
21
-93
0
LINE
8
0
10
107
20
-93
11
93
21
-93
0
LINE
8
0
10
93
20
-93
11
93
21
-107
0
LINE
8
0
10
93
20
-90
11
107
21
-90
0
LINE
8
0
10
107
20
-90
11
107
21
-76
0
LINE
8
0
10
107
20
-76
11
93
21
-76
0
LINE
8
0
10
93
20
-76
11
93
21
-90
0
LINE
8
0
10
93
20
-73
11
107
21
-73
0
LINE
8
0
10
107
20
-73
11
107
21
-59
0
LINE
8
0
10
107
20
-59
11
93
21
-59
0
LINE
8
0
10
93
20
-59
11
93
21
-73
0
LINE
8
0
10
111
20
-102.75
11
125
21
-102.75
0
LINE
8
0
10
125
20
-102.75
11
125
21
-88.75
0
LINE
8
0
10
125
20
-88.75
11
111
21
-88.75
0
LINE
8
0
10
111
20
-88.75
11
111
21
-102.75
0
LINE
8
0
10
111
20
-85.75
11
125
21
-85.75
0
LINE
8
0
10
125
20
-85.75
11
125
21
-71.75
0
LINE
8
0
10
125
20
-71.75
11
111
21
-71.75
0
LINE
8
0
10
111
20
-71.75
11
111
21
-85.75
0
LINE
8
0
10
111
20
-68.75
11
125
21
-68.75
0
LINE
8
0
10
125
20
-68.75
11
125
21
-54.75
0
LINE
8
0
10
125
20
-54.75
11
111
21
-54.75
0
LINE
8
0
10
111
20
-54.75
11
111
21
-68.75
0
LINE
8
0
10
129
20
-100.625
11
143
21
-100.625
0
LINE
8
0
10
143
20
-100.625
11
143
21
-86.625
0
LINE
8
0
10
143
20
-86.625
11
129
21
-86.625
0
LINE
8
0
10
129
20
-86.625
11
129
21
-100.625
0
LINE
8
0
10
129
20
-83.625
11
143
21
-83.625
0
LINE
8
0
10
143
20
-83.625
11
143
21
-69.625
0
LINE
8
0
10
143
20
-69.625
11
129
21
-69.625
0
LINE
8
0
10
129
20
-69.625
11
129
21
-83.625
0
LINE
8
0
10
129
20
-66.625
11
143
21
-66.625
0
LINE
8
0
10
143
20
-66.625
11
143
21
-52.625
0
LINE
8
0
10
143
20
-52.625
11
129
21
-52.625
0
LINE
8
0
10
129
20
-52.625
11
129
21
-66.625
0
LINE
8
0
10
147
20
-102.75
11
161
21
-102.75
0
LINE
8
0
10
161
20
-102.75
11
161
21
-88.75
0
LINE
8
0
10
161
20
-88.75
11
147
21
-88.75
0
LINE
8
0
10
147
20
-88.75
11
147
21
-102.75
0
LINE
8
0
10
147
20
-85.75
11
161
21
-85.75
0
LINE
8
0
10
161
20
-85.75
11
161
21
-71.75
0
LINE
8
0
10
161
20
-71.75
11
147
21
-71.75
0
LINE
8
0
10
147
20
-71.75
11
147
21
-85.75
0
LINE
8
0
10
147
20
-68.75
11
161
21
-68.75
0
LINE
8
0
10
161
20
-68.75
11
161
21
-54.75
0
LINE
8
0
10
161
20
-54.75
11
147
21
-54.75
0
LINE
8
0
10
147
20
-54.75
11
147
21
-68.75
0
LINE
8
0
10
165
20
-104.875
11
179
21
-104.875
0
LINE
8
0
10
179
20
-104.875
11
179
21
-90.875
0
LINE
8
0
10
179
20
-90.875
11
165
21
-90.875
0
LINE
8
0
10
165
20
-90.875
11
165
21
-104.875
0
LINE
8
0
10
165
20
-87.875
11
179
21
-87.875
0
LINE
8
0
10
179
20
-87.875
11
179
21
-73.875
0
LINE
8
0
10
179
20
-73.875
11
165
21
-73.875
0
LINE
8
0
10
165
20
-73.875
11
165
21
-87.875
0
LINE
8
0
10
165
20
-70.875
11
179
21
-70.875
0
LINE
8
0
10
179
20
-70.875
11
179
21
-56.875
0
LINE
8
0
10
179
20
-56.875
11
165
21
-56.875
0
LINE
8
0
10
165
20
-56.875
11
165
21
-70.875
0
LINE
8
0
10
143.4
20
-125.275
11
157.4
21
-125.275
0
LINE
8
0
10
157.4
20
-125.275
11
157.4
21
-111.275
0
LINE
8
0
10
157.4
20
-111.275
11
143.4
21
-111.275
0
LINE
8
0
10
143.4
20
-111.275
11
143.4
21
-125.275
0
LINE
8
0
10
161.7200802
20
-125.8437494
11
175.2430418
21
-129.467216
0
LINE
8
0
10
175.2430418
20
-129.467216
11
178.8665084
21
-115.9442544
0
LINE
8
0
10
178.8665084
20
-115.9442544
11
165.3435468
21
-112.3207878
0
LINE
8
0
10
165.3435468
20
-112.3207878
11
161.7200802
21
-125.8437494
0
LINE
8
0
10
179.2687157
20
-131.1347047
11
191.3930713
21
-138.1347047
0
LINE
8
0
10
191.3930713
20
-138.1347047
11
198.3930713
21
-126.0103491
0
LINE
8
0
10
198.3930713
20
-126.0103491
11
186.2687157
21
-119.0103491
0
LINE
8
0
10
186.2687157
20
-119.0103491
11
179.2687157
21
-131.1347047
0
CIRCLE
8
0
10
109
20
-70.25
40
1.1
0
CIRCLE
8
0
10
109
20
-87.25
40
1.1
0
CIRCLE
8
0
10
163
20
-70.25
40
1.1
0
CIRCLE
8
0
10
141.4
20
-109.775
40
1.1
0
CIRCLE
8
0
10
181.1865886
20
-115.0130038
40
1.1
0
ENDSEC
0
EOF