0
SECTION
2
HEADER
9
$INSUNITS
70
4
0
ENDSEC
0
SECTION
2
TABLES
0
TABLE
2
LTYPE
0
LTYPE
72
65
70
64
2
CONTINUOUS
3
______
73
0
40
0
0
ENDTAB
0
TABLE
2
LAYER
0
ENDTAB
0
ENDSEC
0
SECTION
2
ENTITIES
0
LINE
8
0
10
91
20
-109.5
11
125.9189758
21
-109.5
0
LINE
8
0
10
90
20
-108.5
11
90
21
-57.5
0
ARC
8
0
10
91
20
-108.5
40
1
50
180
51
270
0
LINE
8
0
10
107.5
20
-56.5
11
91
21
-56.5
0
ARC
8
0
10
91
20
-57.5
40
1
50
90
51
180
0
LINE
8
0
10
125.5
20
-45.875
11
109
21
-45.875
0
ARC
8
0
10
109
20
-46.875
40
1
50
90
51
180
0
LINE
8
0
10
108
20
-46.875
11
108
21
-56
0
LINE
8
0
10
146
20
-49.625
11
146
21
-44.75
0
ARC
8
0
10
145
20
-44.75
40
1
50
0
51
90
0
LINE
8
0
10
145
20
-43.75
11
127
21
-43.75
0
ARC
8
0
10
127
20
-44.75
40
1
50
90
51
180
0
LINE
8
0
10
126
20
-44.75
11
126
21
-45.375
0
LINE
8
0
10
164
20
-51.75
11
164
21
-51.125
0
ARC
8
0
10
163
20
-51.125
40
1
50
0
51
90
0
LINE
8
0
10
163
20
-50.125
11
146.5
21
-50.125
0
LINE
8
0
10
182
20
-106.8948075
11
182
21
-53.25
0
ARC
8
0
10
181
20
-53.25
40
1
50
0
51
90
0
LINE
8
0
10
181
20
-52.25
11
164.5
21
-52.25
0
LINE
8
0
10
193.124811
20
-139.0102436
11
203.5
21
-121.0398891
0
LINE
8
0
10
182.5
20
-107.7608329
11
203.1339746
21
-119.6738637
0
LINE
8
0
10
191.9999666
20
-139.4761694
11
140.6955738
21
-125.7291988
0
LINE
8
0
10
140.1993597
20
-125.4189597
11
126.6740089
21
-109.8443133
0
ARC
8
0
10
183
20
-106.8948075
40
1
50
180
51
239.9999999
0
ARC
8
0
10
202.6339746
20
-120.5398891
40
1
50
329.9999999
51
59.9999999
0
ARC
8
0
10
192.2587856
20
-138.5102436
40
1
50
255.0000021
51
329.9999999
0
ARC
8
0
10
140.9543928
20
-124.763273
40
1
50
220.971739
51
255.0000021
0
ARC
8
0
10
125.9189758
20
-110.5
40
1
50
40.971739
51
90
0
ARC
8
0
10
164.5
20
-51.75
40
0.5
50
180
51
270
0
ARC
8
0
10
146.5
20
-49.625
40
0.5
50
180
51
270
0
ARC
8
0
10
125.5
20
-45.375
40
0.5
50
270
51
0
0
ARC
8
0
10
107.5
20
-56
40
0.5
50
270
51
0
0
LINE
8
0
10
93
20
-107
11
107
21
-107
0
LINE
8
0
10
107
20
-107
11
107
21
-93
0
LINE
8
0
10
107
20
-93
11
93
21
-93
0
LINE
8
0
10
93
20
-93
11
93
21
-107
0
LINE
8
0
10
93
20
-90
11
107
21
-90
0
LINE
8
0
10
107
20
-90
11
107
21
-76
0
LINE
8
0
10
107
20
-76
11
93
21
-76
0
LINE
8
0
10
93
20
-76
11
93
21
-90
0
LINE
8
0
10
93
20
-73
11
107
21
-73
0
LINE
8
0
10
107
20
-73
11
107
21
-59
0
LINE
8
0
10
107
20
-59
11
93
21
-59
0
LINE
8
0
10
93
20
-59
11
93
21
-73
0
LINE
8
0
10
111
20
-96.375
11
125
21
-96.375
0
LINE
8
0
10
125
20
-96.375
11
125
21
-82.375
0
LINE
8
0
10
125
20
-82.375
11
111
21
-82.375
0
LINE
8
0
10
111
20
-82.375
11
111
21
-96.375
0
LINE
8
0
10
111
20
-79.375
11
125
21
-79.375
0
LINE
8
0
10
125
20
-79.375
11
125
21
-65.375
0
LINE
8
0
10
125
20
-65.375
11
111
21
-65.375
0
LINE
8
0
10
111
20
-65.375
11
111
21
-79.375
0
LINE
8
0
10
111
20
-62.375
11
125
21
-62.375
0
LINE
8
0
10
125
20
-62.375
11
125
21
-48.375
0
LINE
8
0
10
125
20
-48.375
11
111
21
-48.375
0
LINE
8
0
10
111
20
-48.375
11
111
21
-62.375
0
LINE
8
0
10
129
20
-94.25
11
143
21
-94.25
0
LINE
8
0
10
143
20
-94.25
11
143
21
-80.25
0
LINE
8
0
10
143
20
-80.25
11
129
21
-80.25
0
LINE
8
0
10
129
20
-80.25
11
129
21
-94.25
0
LINE
8
0
10
129
20
-77.25
11
143
21
-77.25
0
LINE
8
0
10
143
20
-77.25
11
143
21
-63.25
0
LINE
8
0
10
143
20
-63.25
11
129
21
-63.25
0
LINE
8
0
10
129
20
-63.25
11
129
21
-77.25
0
LINE
8
0
10
129
20
-60.25
11
143
21
-60.25
0
LINE
8
0
10
143
20
-60.25
11
143
21
-46.25
0
LINE
8
0
10
143
20
-46.25
11
129
21
-46.25
0
LINE
8
0
10
129
20
-46.25
11
129
21
-60.25
0
LINE
8
0
10
147
20
-100.625
11
161
21
-100.625
0
LINE
8
0
10
161
20
-100.625
11
161
21
-86.625
0
LINE
8
0
10
161
20
-86.625
11
147
21
-86.625
0
LINE
8
0
10
147
20
-86.625
11
147
21
-100.625
0
LINE
8
0
10
147
20
-83.625
11
161
21
-83.625
0
LINE
8
0
10
161
20
-83.625
11
161
21
-69.625
0
LINE
8
0
10
161
20
-69.625
11
147
21
-69.625
0
LINE
8
0
10
147
20
-69.625
11
147
21
-83.625
0
LINE
8
0
10
147
20
-66.625
11
161
21
-66.625
0
LINE
8
0
10
161
20
-66.625
11
161
21
-52.625
0
LINE
8
0
10
161
20
-52.625
11
147
21
-52.625
0
LINE
8
0
10
147
20
-52.625
11
147
21
-66.625
0
LINE
8
0
10
165
20
-102.75
11
179
21
-102.75
0
LINE
8
0
10
179
20
-102.75
11
179
21
-88.75
0
LINE
8
0
10
179
20
-88.75
11
165
21
-88.75
0
LINE
8
0
10
165
20
-88.75
11
165
21
-102.75
0
LINE
8
0
10
165
20
-85.75
11
179
21
-85.75
0
LINE
8
0
10
179
20
-85.75
11
179
21
-71.75
0
LINE
8
0
10
179
20
-71.75
11
165
21
-71.75
0
LINE
8
0
10
165
20
-71.75
11
165
21
-85.75
0
LINE
8
0
10
165
20
-68.75
11
179
21
-68.75
0
LINE
8
0
10
179
20
-68.75
11
179
21
-54.75
0
LINE
8
0
10
179
20
-54.75
11
165
21
-54.75
0
LINE
8
0
10
165
20
-54.75
11
165
21
-68.75
0
LINE
8
0
10
143.4
20
-123.15
11
157.4
21
-123.15
0
LINE
8
0
10
157.4
20
-123.15
11
157.4
21
-109.15
0
LINE
8
0
10
157.4
20
-109.15
11
143.4
21
-109.15
0
LINE
8
0
10
143.4
20
-109.15
11
143.4
21
-123.15
0
LINE
8
0
10
161.7200802
20
-123.7187494
11
175.2430418
21
-127.342216
0
LINE
8
0
10
175.2430418
20
-127.342216
11
178.8665084
21
-113.8192544
0
LINE
8
0
10
178.8665084
20
-113.8192544
11
165.3435468
21
-110.1957878
0
LINE
8
0
10
165.3435468
20
-110.1957878
11
161.7200802
21
-123.7187494
0
LINE
8
0
10
179.2687157
20
-129.0097047
11
191.3930713
21
-136.0097047
0
LINE
8
0
10
191.3930713
20
-136.0097047
11
198.3930713
21
-123.8853491
0
LINE
8
0
10
198.3930713
20
-123.8853491
11
186.2687157
21
-116.8853491
0
LINE
8
0
10
186.2687157
20
-116.8853491
11
179.2687157
21
-129.0097047
0
CIRCLE
8
0
10
109
20
-74.5
40
1.1
0
CIRCLE
8
0
10
109
20
-91.5
40
1.1
0
CIRCLE
8
0
10
163
20
-68.125
40
1.1
0
CIRCLE
8
0
10
141.4
20
-107.65
40
1.1
0
CIRCLE
8
0
10
181.1865886
20
-112.8880038
40
1.1
0
ENDSEC
0
EOF