<svg width="114mm" height="95.76mm" viewBox="0 0 114 95.76" xmlns="http://www.w3.org/2000/svg"><g id="svgGroup" stroke-linecap="round" fill-rule="evenodd" font-size="9pt" stroke="#000" stroke-width="0.25mm" fill="none" style="stroke:#000;stroke-width:0.25mm;fill:none"><path d="M 1 65.75 L 35.919 65.75 A 1 1 0 0 1 36.674 66.094 L 50.199 81.669 A 1 1 0 0 0 50.696 81.979 L 102 95.726 A 1 1 0 0 0 103.125 95.26 L 113.866 76.656 A 1 1 0 0 0 114 76.156 L 114 14.25 A 1 1 0 0 0 113 13.25 L 93 13.25 A 1 1 0 0 1 92 12.25 L 92 9.5 A 1 1 0 0 0 91 8.5 L 75 8.5 A 1 1 0 0 1 74 7.5 L 74 7.375 A 1 1 0 0 0 73 6.375 L 57 6.375 A 1 1 0 0 1 56 5.375 L 56 1 A 1 1 0 0 0 55 0 L 37 0 A 1 1 0 0 0 36 1 L 36 1.125 A 1 1 0 0 1 35 2.125 L 19 2.125 A 1 1 0 0 0 18 3.125 L 18 11.75 A 1 1 0 0 1 17 12.75 L 1 12.75 A 1 1 0 0 0 0 13.75 L 0 64.75 A 1 1 0 0 0 1 65.75 Z M 19 30.75 m -2.15 0 a 2.15 2.15 0 0 1 4.3 0 a 2.15 2.15 0 0 1 -4.3 0 z M 19 47.75 m -2.15 0 a 2.15 2.15 0 0 1 4.3 0 a 2.15 2.15 0 0 1 -4.3 0 z M 73 24.375 m -2.15 0 a 2.15 2.15 0 0 1 4.3 0 a 2.15 2.15 0 0 1 -4.3 0 z M 51.4 63.9 m -2.15 0 a 2.15 2.15 0 0 1 4.3 0 a 2.15 2.15 0 0 1 -4.3 0 z M 91.187 69.138 m -2.15 0 a 2.15 2.15 0 0 1 4.3 0 a 2.15 2.15 0 0 1 -4.3 0 z M 95 61.825 m -1.1 0 a 1.1 1.1 0 0 1 2.2 0 a 1.1 1.1 0 0 1 -2.2 0 z M 111 70.725 m -1.1 0 a 1.1 1.1 0 0 1 2.2 0 a 1.1 1.1 0 0 1 -2.2 0 z" vector-effect="non-scaling-stroke"/></g></svg>