0
SECTION
2
HEADER
9
$INSUNITS
70
4
0
ENDSEC
0
SECTION
2
TABLES
0
TABLE
2
LTYPE
0
LTYPE
72
65
70
64
2
CONTINUOUS
3
______
73
0
40
0
0
ENDTAB
0
TABLE
2
LAYER
0
ENDTAB
0
ENDSEC
0
SECTION
2
ENTITIES
0
LINE
8
0
10
91
20
-109.5
11
125.9189758
21
-109.5
0
LINE
8
0
10
90
20
-108.5
11
90
21
-57.5
0
ARC
8
0
10
91
20
-108.5
40
1
50
180
51
540
0
LINE
8
0
10
91
20
-56.5
11
107.5
21
-56.5
0
ARC
8
0
10
91
20
-57.5
40
1
50
90
51
450
0
LINE
8
0
10
109
20
-45.875
11
125.5
21
-45.875
0
ARC
8
0
10
109
20
-46.875
40
1
50
90
51
450
0
LINE
8
0
10
108
20
-56
11
108
21
-46.875
0
LINE
8
0
10
146
20
-49.625
11
146
21
-44.75
0
ARC
8
0
10
145
20
-44.75
40
1
50
0
51
360
0
LINE
8
0
10
127
20
-43.75
11
145
21
-43.75
0
ARC
8
0
10
127
20
-44.75
40
1
50
90
51
450
0
LINE
8
0
10
126
20
-45.375
11
126
21
-44.75
0
LINE
8
0
10
164
20
-51.75
11
164
21
-51.125
0
ARC
8
0
10
163
20
-51.125
40
1
50
0
51
360
0
LINE
8
0
10
146.5
20
-50.125
11
163
21
-50.125
0
LINE
8
0
10
182
20
-106.8948075
11
182
21
-53.25
0
ARC
8
0
10
181
20
-53.25
40
1
50
0
51
360
0
LINE
8
0
10
164.5
20
-52.25
11
181
21
-52.25
0
LINE
8
0
10
193.124811
20
-139.0102436
11
203.8660254
21
-120.4059145
0
LINE
8
0
10
140.6955738
20
-125.7291988
11
191.9999666
21
-139.4761694
0
LINE
8
0
10
126.6740089
20
-109.8443133
11
140.1993597
21
-125.4189597
0
ARC
8
0
10
192.2587856
20
-138.5102436
40
1
50
255.0000021
51
615.0000021
0
ARC
8
0
10
140.9543928
20
-124.763273
40
1
50
220.971739
51
580.971739
0
ARC
8
0
10
125.9189758
20
-110.5
40
1
50
40.971739
51
400.971739
0
LINE
8
0
10
183
20
-57
11
203
21
-57
0
LINE
8
0
10
204
20
-119.9059145
11
204
21
-58
0
ARC
8
0
10
203
20
-119.9059145
40
1
50
329.9999999
51
0
0
ARC
8
0
10
203
20
-58
40
1
50
0
51
360
0
ARC
8
0
10
183
20
-56
40
1
50
180
51
270
0
ARC
8
0
10
165
20
-51.25
40
1
50
180
51
270
0
ARC
8
0
10
147
20
-49.125
40
1
50
180
51
270
0
ARC
8
0
10
125
20
-44.875
40
1
50
270
51
0
0
ARC
8
0
10
107
20
-55.5
40
1
50
270
51
0
0
CIRCLE
8
0
10
109
20
-74.5
40
2.15
0
CIRCLE
8
0
10
109
20
-91.5
40
2.15
0
CIRCLE
8
0
10
163
20
-68.125
40
2.15
0
CIRCLE
8
0
10
141.4
20
-107.65
40
2.15
0
CIRCLE
8
0
10
181.1865886
20
-112.8880038
40
2.15
0
CIRCLE
8
0
10
185
20
-105.575
40
1.1
0
CIRCLE
8
0
10
201
20
-114.475
40
1.1
0
LINE
8
0
10
182.5
20
-107.7608329
11
203.1339746
21
-119.6738637
0
ARC
8
0
10
183
20
-106.8948075
40
1
50
180
51
540
0
ARC
8
0
10
202.6339746
20
-120.5398891
40
1
50
329.9999999
51
59.9999999
0
ARC
8
0
10
164.5
20
-51.75
40
0.5
50
180
51
270
0
ARC
8
0
10
146.5
20
-49.625
40
0.5
50
180
51
270
0
ARC
8
0
10
125.5
20
-45.375
40
0.5
50
270
51
0
0
ARC
8
0
10
107.5
20
-56
40
0.5
50
270
51
0
0
LINE
8
0
10
93
20
-107
11
107
21
-107
0
LINE
8
0
10
107
20
-107
11
107
21
-93
0
LINE
8
0
10
107
20
-93
11
93
21
-93
0
LINE
8
0
10
93
20
-93
11
93
21
-107
0
LINE
8
0
10
93
20
-90
11
107
21
-90
0
LINE
8
0
10
107
20
-90
11
107
21
-76
0
LINE
8
0
10
107
20
-76
11
93
21
-76
0
LINE
8
0
10
93
20
-76
11
93
21
-90
0
LINE
8
0
10
93
20
-73
11
107
21
-73
0
LINE
8
0
10
107
20
-73
11
107
21
-59
0
LINE
8
0
10
107
20
-59
11
93
21
-59
0
LINE
8
0
10
93
20
-59
11
93
21
-73
0
LINE
8
0
10
111
20
-96.375
11
125
21
-96.375
0
LINE
8
0
10
125
20
-96.375
11
125
21
-82.375
0
LINE
8
0
10
125
20
-82.375
11
111
21
-82.375
0
LINE
8
0
10
111
20
-82.375
11
111
21
-96.375
0
LINE
8
0
10
111
20
-79.375
11
125
21
-79.375
0
LINE
8
0
10
125
20
-79.375
11
125
21
-65.375
0
LINE
8
0
10
125
20
-65.375
11
111
21
-65.375
0
LINE
8
0
10
111
20
-65.375
11
111
21
-79.375
0
LINE
8
0
10
111
20
-62.375
11
125
21
-62.375
0
LINE
8
0
10
125
20
-62.375
11
125
21
-48.375
0
LINE
8
0
10
125
20
-48.375
11
111
21
-48.375
0
LINE
8
0
10
111
20
-48.375
11
111
21
-62.375
0
LINE
8
0
10
129
20
-94.25
11
143
21
-94.25
0
LINE
8
0
10
143
20
-94.25
11
143
21
-80.25
0
LINE
8
0
10
143
20
-80.25
11
129
21
-80.25
0
LINE
8
0
10
129
20
-80.25
11
129
21
-94.25
0
LINE
8
0
10
129
20
-77.25
11
143
21
-77.25
0
LINE
8
0
10
143
20
-77.25
11
143
21
-63.25
0
LINE
8
0
10
143
20
-63.25
11
129
21
-63.25
0
LINE
8
0
10
129
20
-63.25
11
129
21
-77.25
0
LINE
8
0
10
129
20
-60.25
11
143
21
-60.25
0
LINE
8
0
10
143
20
-60.25
11
143
21
-46.25
0
LINE
8
0
10
143
20
-46.25
11
129
21
-46.25
0
LINE
8
0
10
129
20
-46.25
11
129
21
-60.25
0
LINE
8
0
10
147
20
-100.625
11
161
21
-100.625
0
LINE
8
0
10
161
20
-100.625
11
161
21
-86.625
0
LINE
8
0
10
161
20
-86.625
11
147
21
-86.625
0
LINE
8
0
10
147
20
-86.625
11
147
21
-100.625
0
LINE
8
0
10
147
20
-83.625
11
161
21
-83.625
0
LINE
8
0
10
161
20
-83.625
11
161
21
-69.625
0
LINE
8
0
10
161
20
-69.625
11
147
21
-69.625
0
LINE
8
0
10
147
20
-69.625
11
147
21
-83.625
0
LINE
8
0
10
147
20
-66.625
11
161
21
-66.625
0
LINE
8
0
10
161
20
-66.625
11
161
21
-52.625
0
LINE
8
0
10
161
20
-52.625
11
147
21
-52.625
0
LINE
8
0
10
147
20
-52.625
11
147
21
-66.625
0
LINE
8
0
10
165
20
-102.75
11
179
21
-102.75
0
LINE
8
0
10
179
20
-102.75
11
179
21
-88.75
0
LINE
8
0
10
179
20
-88.75
11
165
21
-88.75
0
LINE
8
0
10
165
20
-88.75
11
165
21
-102.75
0
LINE
8
0
10
165
20
-85.75
11
179
21
-85.75
0
LINE
8
0
10
179
20
-85.75
11
179
21
-71.75
0
LINE
8
0
10
179
20
-71.75
11
165
21
-71.75
0
LINE
8
0
10
165
20
-71.75
11
165
21
-85.75
0
LINE
8
0
10
165
20
-68.75
11
179
21
-68.75
0
LINE
8
0
10
179
20
-68.75
11
179
21
-54.75
0
LINE
8
0
10
179
20
-54.75
11
165
21
-54.75
0
LINE
8
0
10
165
20
-54.75
11
165
21
-68.75
0
LINE
8
0
10
143.4
20
-123.15
11
157.4
21
-123.15
0
LINE
8
0
10
157.4
20
-123.15
11
157.4
21
-109.15
0
LINE
8
0
10
157.4
20
-109.15
11
143.4
21
-109.15
0
LINE
8
0
10
143.4
20
-109.15
11
143.4
21
-123.15
0
LINE
8
0
10
161.7200802
20
-123.7187494
11
175.2430418
21
-127.342216
0
LINE
8
0
10
175.2430418
20
-127.342216
11
178.8665084
21
-113.8192544
0
LINE
8
0
10
178.8665084
20
-113.8192544
11
165.3435468
21
-110.1957878
0
LINE
8
0
10
165.3435468
20
-110.1957878
11
161.7200802
21
-123.7187494
0
LINE
8
0
10
179.2687157
20
-129.0097047
11
191.3930713
21
-136.0097047
0
LINE
8
0
10
191.3930713
20
-136.0097047
11
198.3930713
21
-123.8853491
0
LINE
8
0
10
198.3930713
20
-123.8853491
11
186.2687157
21
-116.8853491
0
LINE
8
0
10
186.2687157
20
-116.8853491
11
179.2687157
21
-129.0097047
0
CIRCLE
8
0
10
109
20
-74.5
40
1.1
0
CIRCLE
8
0
10
109
20
-91.5
40
1.1
0
CIRCLE
8
0
10
163
20
-68.125
40
1.1
0
CIRCLE
8
0
10
141.4
20
-107.65
40
1.1
0
CIRCLE
8
0
10
181.1865886
20
-112.8880038
40
1.1
0
ARC
8
0
10
183
20
-58
40
1
50
90
51
180
0
ARC
8
0
10
203
20
-118.4418129
40
1
50
239.9999999
51
0
0
LINE
8
0
10
93.25
20
-108.25
11
106.75
21
-108.25
0
LINE
8
0
10
108.75
20
-106.25
11
108.75
21
-93.75
0
LINE
8
0
10
106.75
20
-91.75
11
93.25
21
-91.75
0
LINE
8
0
10
91.25
20
-93.75
11
91.25
21
-106.25
0
LINE
8
0
10
93.25
20
-91.25
11
106.75
21
-91.25
0
LINE
8
0
10
108.75
20
-89.25
11
108.75
21
-76.75
0
LINE
8
0
10
106.75
20
-74.75
11
93.25
21
-74.75
0
LINE
8
0
10
91.25
20
-76.75
11
91.25
21
-89.25
0
LINE
8
0
10
93.25
20
-74.25
11
106.75
21
-74.25
0
LINE
8
0
10
108.75
20
-72.25
11
108.75
21
-59.75
0
LINE
8
0
10
106.75
20
-57.75
11
93.25
21
-57.75
0
LINE
8
0
10
91.25
20
-59.75
11
91.25
21
-72.25
0
LINE
8
0
10
111.25
20
-97.625
11
124.75
21
-97.625
0
LINE
8
0
10
126.75
20
-95.625
11
126.75
21
-83.125
0
LINE
8
0
10
124.75
20
-81.125
11
111.25
21
-81.125
0
LINE
8
0
10
109.25
20
-83.125
11
109.25
21
-95.625
0
LINE
8
0
10
111.25
20
-80.625
11
124.75
21
-80.625
0
LINE
8
0
10
126.75
20
-78.625
11
126.75
21
-66.125
0
LINE
8
0
10
124.75
20
-64.125
11
111.25
21
-64.125
0
LINE
8
0
10
109.25
20
-66.125
11
109.25
21
-78.625
0
LINE
8
0
10
111.25
20
-63.625
11
124.75
21
-63.625
0
LINE
8
0
10
126.75
20
-61.625
11
126.75
21
-49.125
0
LINE
8
0
10
124.75
20
-47.125
11
111.25
21
-47.125
0
LINE
8
0
10
109.25
20
-49.125
11
109.25
21
-61.625
0
LINE
8
0
10
129.25
20
-95.5
11
142.75
21
-95.5
0
LINE
8
0
10
144.75
20
-93.5
11
144.75
21
-81
0
LINE
8
0
10
142.75
20
-79
11
129.25
21
-79
0
LINE
8
0
10
127.25
20
-81
11
127.25
21
-93.5
0
LINE
8
0
10
129.25
20
-78.5
11
142.75
21
-78.5
0
LINE
8
0
10
144.75
20
-76.5
11
144.75
21
-64
0
LINE
8
0
10
142.75
20
-62
11
129.25
21
-62
0
LINE
8
0
10
127.25
20
-64
11
127.25
21
-76.5
0
LINE
8
0
10
129.25
20
-61.5
11
142.75
21
-61.5
0
LINE
8
0
10
144.75
20
-59.5
11
144.75
21
-47
0
LINE
8
0
10
142.75
20
-45
11
129.25
21
-45
0
LINE
8
0
10
127.25
20
-47
11
127.25
21
-59.5
0
LINE
8
0
10
147.25
20
-101.875
11
160.75
21
-101.875
0
LINE
8
0
10
162.75
20
-99.875
11
162.75
21
-87.375
0
LINE
8
0
10
160.75
20
-85.375
11
147.25
21
-85.375
0
LINE
8
0
10
145.25
20
-87.375
11
145.25
21
-99.875
0
LINE
8
0
10
147.25
20
-84.875
11
160.75
21
-84.875
0
LINE
8
0
10
162.75
20
-82.875
11
162.75
21
-70.375
0
LINE
8
0
10
160.75
20
-68.375
11
147.25
21
-68.375
0
LINE
8
0
10
145.25
20
-70.375
11
145.25
21
-82.875
0
LINE
8
0
10
147.25
20
-67.875
11
160.75
21
-67.875
0
LINE
8
0
10
162.75
20
-65.875
11
162.75
21
-53.375
0
LINE
8
0
10
160.75
20
-51.375
11
147.25
21
-51.375
0
LINE
8
0
10
145.25
20
-53.375
11
145.25
21
-65.875
0
LINE
8
0
10
165.25
20
-104
11
178.75
21
-104
0
LINE
8
0
10
180.75
20
-102
11
180.75
21
-89.5
0
LINE
8
0
10
178.75
20
-87.5
11
165.25
21
-87.5
0
LINE
8
0
10
163.25
20
-89.5
11
163.25
21
-102
0
LINE
8
0
10
165.25
20
-87
11
178.75
21
-87
0
LINE
8
0
10
180.75
20
-85
11
180.75
21
-72.5
0
LINE
8
0
10
178.75
20
-70.5
11
165.25
21
-70.5
0
LINE
8
0
10
163.25
20
-72.5
11
163.25
21
-85
0
LINE
8
0
10
165.25
20
-70
11
178.75
21
-70
0
LINE
8
0
10
180.75
20
-68
11
180.75
21
-55.5
0
LINE
8
0
10
178.75
20
-53.5
11
165.25
21
-53.5
0
LINE
8
0
10
163.25
20
-55.5
11
163.25
21
-68
0
LINE
8
0
10
143.65
20
-124.4
11
157.15
21
-124.4
0
LINE
8
0
10
159.15
20
-122.4
11
159.15
21
-109.9
0
LINE
8
0
10
157.15
20
-107.9
11
143.65
21
-107.9
0
LINE
8
0
10
141.65
20
-109.9
11
141.65
21
-122.4
0
LINE
8
0
10
161.638038
20
-124.9908614
11
174.6780366
21
-128.4849185
0
LINE
8
0
10
177.1275263
20
-127.0707048
11
180.3627643
21
-114.9966321
0
LINE
8
0
10
178.9485506
20
-112.5471424
11
165.908552
21
-109.0530853
0
LINE
8
0
10
163.4590623
20
-110.467299
11
160.2238243
21
-122.5413717
0
LINE
8
0
10
178.860222
20
-130.2172365
11
190.551565
21
-136.9672365
0
LINE
8
0
10
193.2836158
20
-136.2351857
11
199.5336158
21
-125.4098681
0
LINE
8
0
10
198.801565
20
-122.6778173
11
187.110222
21
-115.9278173
0
LINE
8
0
10
184.3781712
20
-116.6598681
11
178.1281712
21
-127.4851857
0
ARC
8
0
10
191.551565
20
-135.2351857
40
2
50
239.9999999
51
329.9999999
0
ARC
8
0
10
197.801565
20
-124.4098681
40
2
50
329.9999999
51
59.9999999
0
ARC
8
0
10
186.110222
20
-117.6598681
40
2
50
59.9999999
51
149.9999999
0
ARC
8
0
10
179.860222
20
-128.4851857
40
2
50
149.9999999
51
239.9999999
0
ARC
8
0
10
106.75
20
-106.25
40
2
50
270
51
0
0
ARC
8
0
10
106.75
20
-93.75
40
2
50
0
51
90
0
ARC
8
0
10
93.25
20
-93.75
40
2
50
90
51
180
0
ARC
8
0
10
93.25
20
-106.25
40
2
50
180
51
270
0
ARC
8
0
10
106.75
20
-89.25
40
2
50
270
51
0
0
ARC
8
0
10
106.75
20
-76.75
40
2
50
0
51
90
0
ARC
8
0
10
93.25
20
-76.75
40
2
50
90
51
180
0
ARC
8
0
10
93.25
20
-89.25
40
2
50
180
51
270
0
ARC
8
0
10
106.75
20
-72.25
40
2
50
270
51
0
0
ARC
8
0
10
106.75
20
-59.75
40
2
50
0
51
90
0
ARC
8
0
10
93.25
20
-59.75
40
2
50
90
51
180
0
ARC
8
0
10
93.25
20
-72.25
40
2
50
180
51
270
0
ARC
8
0
10
124.75
20
-95.625
40
2
50
270
51
0
0
ARC
8
0
10
124.75
20
-83.125
40
2
50
0
51
90
0
ARC
8
0
10
111.25
20
-83.125
40
2
50
90
51
180
0
ARC
8
0
10
111.25
20
-95.625
40
2
50
180
51
270
0
ARC
8
0
10
124.75
20
-78.625
40
2
50
270
51
0
0
ARC
8
0
10
124.75
20
-66.125
40
2
50
0
51
90
0
ARC
8
0
10
111.25
20
-66.125
40
2
50
90
51
180
0
ARC
8
0
10
111.25
20
-78.625
40
2
50
180
51
270
0
ARC
8
0
10
124.75
20
-61.625
40
2
50
270
51
0
0
ARC
8
0
10
124.75
20
-49.125
40
2
50
0
51
90
0
ARC
8
0
10
111.25
20
-49.125
40
2
50
90
51
180
0
ARC
8
0
10
111.25
20
-61.625
40
2
50
180
51
270
0
ARC
8
0
10
142.75
20
-93.5
40
2
50
270
51
0
0
ARC
8
0
10
142.75
20
-81
40
2
50
0
51
90
0
ARC
8
0
10
129.25
20
-81
40
2
50
90
51
180
0
ARC
8
0
10
129.25
20
-93.5
40
2
50
180
51
270
0
ARC
8
0
10
142.75
20
-76.5
40
2
50
270
51
0
0
ARC
8
0
10
142.75
20
-64
40
2
50
0
51
90
0
ARC
8
0
10
129.25
20
-64
40
2
50
90
51
180
0
ARC
8
0
10
129.25
20
-76.5
40
2
50
180
51
270
0
ARC
8
0
10
142.75
20
-59.5
40
2
50
270
51
0
0
ARC
8
0
10
142.75
20
-47
40
2
50
0
51
90
0
ARC
8
0
10
129.25
20
-47
40
2
50
90
51
180
0
ARC
8
0
10
129.25
20
-59.5
40
2
50
180
51
270
0
ARC
8
0
10
160.75
20
-99.875
40
2
50
270
51
0
0
ARC
8
0
10
160.75
20
-87.375
40
2
50
0
51
90
0
ARC
8
0
10
147.25
20
-87.375
40
2
50
90
51
180
0
ARC
8
0
10
147.25
20
-99.875
40
2
50
180
51
270
0
ARC
8
0
10
160.75
20
-82.875
40
2
50
270
51
0
0
ARC
8
0
10
160.75
20
-70.375
40
2
50
0
51
90
0
ARC
8
0
10
147.25
20
-70.375
40
2
50
90
51
180
0
ARC
8
0
10
147.25
20
-82.875
40
2
50
180
51
270
0
ARC
8
0
10
160.75
20
-65.875
40
2
50
270
51
0
0
ARC
8
0
10
160.75
20
-53.375
40
2
50
0
51
90
0
ARC
8
0
10
147.25
20
-53.375
40
2
50
90
51
180
0
ARC
8
0
10
147.25
20
-65.875
40
2
50
180
51
270
0
ARC
8
0
10
178.75
20
-102
40
2
50
270
51
0
0
ARC
8
0
10
178.75
20
-89.5
40
2
50
0
51
90
0
ARC
8
0
10
165.25
20
-89.5
40
2
50
90
51
180
0
ARC
8
0
10
165.25
20
-102
40
2
50
180
51
270
0
ARC
8
0
10
178.75
20
-85
40
2
50
270
51
0
0
ARC
8
0
10
178.75
20
-72.5
40
2
50
0
51
90
0
ARC
8
0
10
165.25
20
-72.5
40
2
50
90
51
180
0
ARC
8
0
10
165.25
20
-85
40
2
50
180
51
270
0
ARC
8
0
10
178.75
20
-68
40
2
50
270
51
0
0
ARC
8
0
10
178.75
20
-55.5
40
2
50
0
51
90
0
ARC
8
0
10
165.25
20
-55.5
40
2
50
90
51
180
0
ARC
8
0
10
165.25
20
-68
40
2
50
180
51
270
0
ARC
8
0
10
157.15
20
-122.4
40
2
50
270
51
0
0
ARC
8
0
10
157.15
20
-109.9
40
2
50
0
51
90
0
ARC
8
0
10
143.65
20
-109.9
40
2
50
90
51
180
0
ARC
8
0
10
143.65
20
-122.4
40
2
50
180
51
270
0
ARC
8
0
10
175.1956746
20
-126.5530668
40
2
50
255.0000021
51
345.0000021
0
ARC
8
0
10
178.4309126
20
-114.4789941
40
2
50
345.0000021
51
75.0000021
0
ARC
8
0
10
165.390914
20
-110.984937
40
2
50
75.0000021
51
165.0000021
0
ARC
8
0
10
162.155676
20
-123.0590097
40
2
50
165.0000021
51
255.0000021
0
ENDSEC
0
EOF