0
SECTION
2
HEADER
9
$INSUNITS
70
4
0
ENDSEC
0
SECTION
2
TABLES
0
TABLE
2
LTYPE
0
LTYPE
72
65
70
64
2
CONTINUOUS
3
______
73
0
40
0
0
ENDTAB
0
TABLE
2
LAYER
0
ENDTAB
0
ENDSEC
0
SECTION
2
ENTITIES
0
LINE
8
0
10
91
20
-109.5
11
126.1284497
21
-109.5
0
LINE
8
0
10
90
20
-108.5
11
90
21
-57.5
0
ARC
8
0
10
91
20
-108.5
40
1
50
180
51
540
0
LINE
8
0
10
91
20
-56.5
11
107.5
21
-56.5
0
ARC
8
0
10
91
20
-57.5
40
1
50
90
51
450
0
LINE
8
0
10
109
20
-52.25
11
125.5
21
-52.25
0
ARC
8
0
10
109
20
-53.25
40
1
50
90
51
450
0
LINE
8
0
10
108
20
-56
11
108
21
-53.25
0
LINE
8
0
10
146
20
-51.75
11
146
21
-51.125
0
ARC
8
0
10
145
20
-51.125
40
1
50
0
51
360
0
LINE
8
0
10
127
20
-50.125
11
145
21
-50.125
0
ARC
8
0
10
127
20
-51.125
40
1
50
90
51
450
0
LINE
8
0
10
126
20
-51.75
11
126
21
-51.125
0
LINE
8
0
10
164
20
-53.875
11
164
21
-53.25
0
ARC
8
0
10
163
20
-53.25
40
1
50
0
51
360
0
LINE
8
0
10
146.5
20
-52.25
11
163
21
-52.25
0
LINE
8
0
10
182
20
-109.3084827
11
182
21
-55.375
0
ARC
8
0
10
181
20
-55.375
40
1
50
0
51
360
0
LINE
8
0
10
164.5
20
-54.375
11
181
21
-54.375
0
LINE
8
0
10
192.9329792
20
-141.4675059
11
203.9330127
21
-122.4148891
0
LINE
8
0
10
140.5639244
20
-127.8189234
11
192.370557
21
-141.7004688
0
LINE
8
0
10
126.5251044
20
-109.6955906
11
140.2966793
21
-127.6403699
0
LINE
8
0
10
182.5
20
-59.125
11
203.5
21
-59.125
0
LINE
8
0
10
204
20
-122.1648891
11
204
21
-59.625
0
ARC
8
0
10
126.1284497
20
-110
40
0.5
50
37.5041439
51
397.5041439
0
ARC
8
0
10
140.6933339
20
-127.3359605
40
0.5
50
217.5041439
51
577.5041439
0
ARC
8
0
10
192.4999665
20
-141.2175059
40
0.5
50
255.0000021
51
615.0000021
0
ARC
8
0
10
203.5
20
-122.1648891
40
0.5
50
329.9999999
51
0
0
ARC
8
0
10
203.5
20
-59.625
40
0.5
50
0
51
360
0
ARC
8
0
10
182.5
20
-58.625
40
0.5
50
180
51
270
0
ARC
8
0
10
164.5
20
-53.875
40
0.5
50
180
51
540
0
ARC
8
0
10
146.5
20
-51.75
40
0.5
50
180
51
540
0
ARC
8
0
10
125.5
20
-51.75
40
0.5
50
270
51
630
0
ARC
8
0
10
107.5
20
-56
40
0.5
50
270
51
630
0
CIRCLE
8
0
10
109
20
-70.25
40
2.15
0
CIRCLE
8
0
10
109
20
-87.25
40
2.15
0
CIRCLE
8
0
10
163
20
-70.25
40
2.15
0
CIRCLE
8
0
10
141.4
20
-109.775
40
2.15
0
CIRCLE
8
0
10
181.1865886
20
-115.0130038
40
2.15
0
CIRCLE
8
0
10
185
20
-107.7
40
1.1
0
CIRCLE
8
0
10
201
20
-116.6
40
1.1
0
LINE
8
0
10
182.25
20
-109.7414954
11
203.5669873
21
-122.0488637
0
ARC
8
0
10
203.3169873
20
-122.4818764
40
0.5
50
329.9999999
51
59.9999999
0
ARC
8
0
10
182.5
20
-109.3084827
40
0.5
50
180
51
540
0
LINE
8
0
10
93
20
-107
11
107
21
-107
0
LINE
8
0
10
107
20
-107
11
107
21
-93
0
LINE
8
0
10
107
20
-93
11
93
21
-93
0
LINE
8
0
10
93
20
-93
11
93
21
-107
0
LINE
8
0
10
93
20
-90
11
107
21
-90
0
LINE
8
0
10
107
20
-90
11
107
21
-76
0
LINE
8
0
10
107
20
-76
11
93
21
-76
0
LINE
8
0
10
93
20
-76
11
93
21
-90
0
LINE
8
0
10
93
20
-73
11
107
21
-73
0
LINE
8
0
10
107
20
-73
11
107
21
-59
0
LINE
8
0
10
107
20
-59
11
93
21
-59
0
LINE
8
0
10
93
20
-59
11
93
21
-73
0
LINE
8
0
10
111
20
-102.75
11
125
21
-102.75
0
LINE
8
0
10
125
20
-102.75
11
125
21
-88.75
0
LINE
8
0
10
125
20
-88.75
11
111
21
-88.75
0
LINE
8
0
10
111
20
-88.75
11
111
21
-102.75
0
LINE
8
0
10
111
20
-85.75
11
125
21
-85.75
0
LINE
8
0
10
125
20
-85.75
11
125
21
-71.75
0
LINE
8
0
10
125
20
-71.75
11
111
21
-71.75
0
LINE
8
0
10
111
20
-71.75
11
111
21
-85.75
0
LINE
8
0
10
111
20
-68.75
11
125
21
-68.75
0
LINE
8
0
10
125
20
-68.75
11
125
21
-54.75
0
LINE
8
0
10
125
20
-54.75
11
111
21
-54.75
0
LINE
8
0
10
111
20
-54.75
11
111
21
-68.75
0
LINE
8
0
10
129
20
-100.625
11
143
21
-100.625
0
LINE
8
0
10
143
20
-100.625
11
143
21
-86.625
0
LINE
8
0
10
143
20
-86.625
11
129
21
-86.625
0
LINE
8
0
10
129
20
-86.625
11
129
21
-100.625
0
LINE
8
0
10
129
20
-83.625
11
143
21
-83.625
0
LINE
8
0
10
143
20
-83.625
11
143
21
-69.625
0
LINE
8
0
10
143
20
-69.625
11
129
21
-69.625
0
LINE
8
0
10
129
20
-69.625
11
129
21
-83.625
0
LINE
8
0
10
129
20
-66.625
11
143
21
-66.625
0
LINE
8
0
10
143
20
-66.625
11
143
21
-52.625
0
LINE
8
0
10
143
20
-52.625
11
129
21
-52.625
0
LINE
8
0
10
129
20
-52.625
11
129
21
-66.625
0
LINE
8
0
10
147
20
-102.75
11
161
21
-102.75
0
LINE
8
0
10
161
20
-102.75
11
161
21
-88.75
0
LINE
8
0
10
161
20
-88.75
11
147
21
-88.75
0
LINE
8
0
10
147
20
-88.75
11
147
21
-102.75
0
LINE
8
0
10
147
20
-85.75
11
161
21
-85.75
0
LINE
8
0
10
161
20
-85.75
11
161
21
-71.75
0
LINE
8
0
10
161
20
-71.75
11
147
21
-71.75
0
LINE
8
0
10
147
20
-71.75
11
147
21
-85.75
0
LINE
8
0
10
147
20
-68.75
11
161
21
-68.75
0
LINE
8
0
10
161
20
-68.75
11
161
21
-54.75
0
LINE
8
0
10
161
20
-54.75
11
147
21
-54.75
0
LINE
8
0
10
147
20
-54.75
11
147
21
-68.75
0
LINE
8
0
10
165
20
-104.875
11
179
21
-104.875
0
LINE
8
0
10
179
20
-104.875
11
179
21
-90.875
0
LINE
8
0
10
179
20
-90.875
11
165
21
-90.875
0
LINE
8
0
10
165
20
-90.875
11
165
21
-104.875
0
LINE
8
0
10
165
20
-87.875
11
179
21
-87.875
0
LINE
8
0
10
179
20
-87.875
11
179
21
-73.875
0
LINE
8
0
10
179
20
-73.875
11
165
21
-73.875
0
LINE
8
0
10
165
20
-73.875
11
165
21
-87.875
0
LINE
8
0
10
165
20
-70.875
11
179
21
-70.875
0
LINE
8
0
10
179
20
-70.875
11
179
21
-56.875
0
LINE
8
0
10
179
20
-56.875
11
165
21
-56.875
0
LINE
8
0
10
165
20
-56.875
11
165
21
-70.875
0
LINE
8
0
10
143.4
20
-125.275
11
157.4
21
-125.275
0
LINE
8
0
10
157.4
20
-125.275
11
157.4
21
-111.275
0
LINE
8
0
10
157.4
20
-111.275
11
143.4
21
-111.275
0
LINE
8
0
10
143.4
20
-111.275
11
143.4
21
-125.275
0
LINE
8
0
10
161.7200802
20
-125.8437494
11
175.2430418
21
-129.467216
0
LINE
8
0
10
175.2430418
20
-129.467216
11
178.8665084
21
-115.9442544
0
LINE
8
0
10
178.8665084
20
-115.9442544
11
165.3435468
21
-112.3207878
0
LINE
8
0
10
165.3435468
20
-112.3207878
11
161.7200802
21
-125.8437494
0
LINE
8
0
10
179.2687157
20
-131.1347047
11
191.3930713
21
-138.1347047
0
LINE
8
0
10
191.3930713
20
-138.1347047
11
198.3930713
21
-126.0103491
0
LINE
8
0
10
198.3930713
20
-126.0103491
11
186.2687157
21
-119.0103491
0
LINE
8
0
10
186.2687157
20
-119.0103491
11
179.2687157
21
-131.1347047
0
CIRCLE
8
0
10
109
20
-70.25
40
1.1
0
CIRCLE
8
0
10
109
20
-87.25
40
1.1
0
CIRCLE
8
0
10
163
20
-70.25
40
1.1
0
CIRCLE
8
0
10
141.4
20
-109.775
40
1.1
0
CIRCLE
8
0
10
181.1865886
20
-115.0130038
40
1.1
0
ARC
8
0
10
182.5
20
-59.625
40
0.5
50
90
51
180
0
ARC
8
0
10
203.5
20
-121.4328383
40
0.5
50
239.9999999
51
0
0
LINE
8
0
10
93.25
20
-108.25
11
106.75
21
-108.25
0
LINE
8
0
10
108.75
20
-106.25
11
108.75
21
-93.75
0
LINE
8
0
10
106.75
20
-91.75
11
93.25
21
-91.75
0
LINE
8
0
10
91.25
20
-93.75
11
91.25
21
-106.25
0
LINE
8
0
10
93.25
20
-91.25
11
106.75
21
-91.25
0
LINE
8
0
10
108.75
20
-89.25
11
108.75
21
-76.75
0
LINE
8
0
10
106.75
20
-74.75
11
93.25
21
-74.75
0
LINE
8
0
10
91.25
20
-76.75
11
91.25
21
-89.25
0
LINE
8
0
10
93.25
20
-74.25
11
106.75
21
-74.25
0
LINE
8
0
10
108.75
20
-72.25
11
108.75
21
-59.75
0
LINE
8
0
10
106.75
20
-57.75
11
93.25
21
-57.75
0
LINE
8
0
10
91.25
20
-59.75
11
91.25
21
-72.25
0
LINE
8
0
10
111.25
20
-104
11
124.75
21
-104
0
LINE
8
0
10
126.75
20
-102
11
126.75
21
-89.5
0
LINE
8
0
10
124.75
20
-87.5
11
111.25
21
-87.5
0
LINE
8
0
10
109.25
20
-89.5
11
109.25
21
-102
0
LINE
8
0
10
111.25
20
-87
11
124.75
21
-87
0
LINE
8
0
10
126.75
20
-85
11
126.75
21
-72.5
0
LINE
8
0
10
124.75
20
-70.5
11
111.25
21
-70.5
0
LINE
8
0
10
109.25
20
-72.5
11
109.25
21
-85
0
LINE
8
0
10
111.25
20
-70
11
124.75
21
-70
0
LINE
8
0
10
126.75
20
-68
11
126.75
21
-55.5
0
LINE
8
0
10
124.75
20
-53.5
11
111.25
21
-53.5
0
LINE
8
0
10
109.25
20
-55.5
11
109.25
21
-68
0
LINE
8
0
10
129.25
20
-101.875
11
142.75
21
-101.875
0
LINE
8
0
10
144.75
20
-99.875
11
144.75
21
-87.375
0
LINE
8
0
10
142.75
20
-85.375
11
129.25
21
-85.375
0
LINE
8
0
10
127.25
20
-87.375
11
127.25
21
-99.875
0
LINE
8
0
10
129.25
20
-84.875
11
142.75
21
-84.875
0
LINE
8
0
10
144.75
20
-82.875
11
144.75
21
-70.375
0
LINE
8
0
10
142.75
20
-68.375
11
129.25
21
-68.375
0
LINE
8
0
10
127.25
20
-70.375
11
127.25
21
-82.875
0
LINE
8
0
10
129.25
20
-67.875
11
142.75
21
-67.875
0
LINE
8
0
10
144.75
20
-65.875
11
144.75
21
-53.375
0
LINE
8
0
10
142.75
20
-51.375
11
129.25
21
-51.375
0
LINE
8
0
10
127.25
20
-53.375
11
127.25
21
-65.875
0
LINE
8
0
10
147.25
20
-104
11
160.75
21
-104
0
LINE
8
0
10
162.75
20
-102
11
162.75
21
-89.5
0
LINE
8
0
10
160.75
20
-87.5
11
147.25
21
-87.5
0
LINE
8
0
10
145.25
20
-89.5
11
145.25
21
-102
0
LINE
8
0
10
147.25
20
-87
11
160.75
21
-87
0
LINE
8
0
10
162.75
20
-85
11
162.75
21
-72.5
0
LINE
8
0
10
160.75
20
-70.5
11
147.25
21
-70.5
0
LINE
8
0
10
145.25
20
-72.5
11
145.25
21
-85
0
LINE
8
0
10
147.25
20
-70
11
160.75
21
-70
0
LINE
8
0
10
162.75
20
-68
11
162.75
21
-55.5
0
LINE
8
0
10
160.75
20
-53.5
11
147.25
21
-53.5
0
LINE
8
0
10
145.25
20
-55.5
11
145.25
21
-68
0
LINE
8
0
10
165.25
20
-106.125
11
178.75
21
-106.125
0
LINE
8
0
10
180.75
20
-104.125
11
180.75
21
-91.625
0
LINE
8
0
10
178.75
20
-89.625
11
165.25
21
-89.625
0
LINE
8
0
10
163.25
20
-91.625
11
163.25
21
-104.125
0
LINE
8
0
10
165.25
20
-89.125
11
178.75
21
-89.125
0
LINE
8
0
10
180.75
20
-87.125
11
180.75
21
-74.625
0
LINE
8
0
10
178.75
20
-72.625
11
165.25
21
-72.625
0
LINE
8
0
10
163.25
20
-74.625
11
163.25
21
-87.125
0
LINE
8
0
10
165.25
20
-72.125
11
178.75
21
-72.125
0
LINE
8
0
10
180.75
20
-70.125
11
180.75
21
-57.625
0
LINE
8
0
10
178.75
20
-55.625
11
165.25
21
-55.625
0
LINE
8
0
10
163.25
20
-57.625
11
163.25
21
-70.125
0
LINE
8
0
10
143.65
20
-126.525
11
157.15
21
-126.525
0
LINE
8
0
10
159.15
20
-124.525
11
159.15
21
-112.025
0
LINE
8
0
10
157.15
20
-110.025
11
143.65
21
-110.025
0
LINE
8
0
10
141.65
20
-112.025
11
141.65
21
-124.525
0
LINE
8
0
10
161.638038
20
-127.1158614
11
174.6780366
21
-130.6099185
0
LINE
8
0
10
177.1275263
20
-129.1957048
11
180.3627643
21
-117.1216321
0
LINE
8
0
10
178.9485506
20
-114.6721424
11
165.908552
21
-111.1780853
0
LINE
8
0
10
163.4590623
20
-112.592299
11
160.2238243
21
-124.6663717
0
LINE
8
0
10
178.860222
20
-132.3422365
11
190.551565
21
-139.0922365
0
LINE
8
0
10
193.2836158
20
-138.3601857
11
199.5336158
21
-127.5348681
0
LINE
8
0
10
198.801565
20
-124.8028173
11
187.110222
21
-118.0528173
0
LINE
8
0
10
184.3781712
20
-118.7848681
11
178.1281712
21
-129.6101857
0
ARC
8
0
10
191.551565
20
-137.3601857
40
2
50
239.9999999
51
329.9999999
0
ARC
8
0
10
197.801565
20
-126.5348681
40
2
50
329.9999999
51
59.9999999
0
ARC
8
0
10
186.110222
20
-119.7848681
40
2
50
59.9999999
51
149.9999999
0
ARC
8
0
10
179.860222
20
-130.6101857
40
2
50
149.9999999
51
239.9999999
0
ARC
8
0
10
106.75
20
-106.25
40
2
50
270
51
0
0
ARC
8
0
10
106.75
20
-93.75
40
2
50
0
51
90
0
ARC
8
0
10
93.25
20
-93.75
40
2
50
90
51
180
0
ARC
8
0
10
93.25
20
-106.25
40
2
50
180
51
270
0
ARC
8
0
10
106.75
20
-89.25
40
2
50
270
51
0
0
ARC
8
0
10
106.75
20
-76.75
40
2
50
0
51
90
0
ARC
8
0
10
93.25
20
-76.75
40
2
50
90
51
180
0
ARC
8
0
10
93.25
20
-89.25
40
2
50
180
51
270
0
ARC
8
0
10
106.75
20
-72.25
40
2
50
270
51
0
0
ARC
8
0
10
106.75
20
-59.75
40
2
50
0
51
90
0
ARC
8
0
10
93.25
20
-59.75
40
2
50
90
51
180
0
ARC
8
0
10
93.25
20
-72.25
40
2
50
180
51
270
0
ARC
8
0
10
124.75
20
-102
40
2
50
270
51
0
0
ARC
8
0
10
124.75
20
-89.5
40
2
50
0
51
90
0
ARC
8
0
10
111.25
20
-89.5
40
2
50
90
51
180
0
ARC
8
0
10
111.25
20
-102
40
2
50
180
51
270
0
ARC
8
0
10
124.75
20
-85
40
2
50
270
51
0
0
ARC
8
0
10
124.75
20
-72.5
40
2
50
0
51
90
0
ARC
8
0
10
111.25
20
-72.5
40
2
50
90
51
180
0
ARC
8
0
10
111.25
20
-85
40
2
50
180
51
270
0
ARC
8
0
10
124.75
20
-68
40
2
50
270
51
0
0
ARC
8
0
10
124.75
20
-55.5
40
2
50
0
51
90
0
ARC
8
0
10
111.25
20
-55.5
40
2
50
90
51
180
0
ARC
8
0
10
111.25
20
-68
40
2
50
180
51
270
0
ARC
8
0
10
142.75
20
-99.875
40
2
50
270
51
0
0
ARC
8
0
10
142.75
20
-87.375
40
2
50
0
51
90
0
ARC
8
0
10
129.25
20
-87.375
40
2
50
90
51
180
0
ARC
8
0
10
129.25
20
-99.875
40
2
50
180
51
270
0
ARC
8
0
10
142.75
20
-82.875
40
2
50
270
51
0
0
ARC
8
0
10
142.75
20
-70.375
40
2
50
0
51
90
0
ARC
8
0
10
129.25
20
-70.375
40
2
50
90
51
180
0
ARC
8
0
10
129.25
20
-82.875
40
2
50
180
51
270
0
ARC
8
0
10
142.75
20
-65.875
40
2
50
270
51
0
0
ARC
8
0
10
142.75
20
-53.375
40
2
50
0
51
90
0
ARC
8
0
10
129.25
20
-53.375
40
2
50
90
51
180
0
ARC
8
0
10
129.25
20
-65.875
40
2
50
180
51
270
0
ARC
8
0
10
160.75
20
-102
40
2
50
270
51
0
0
ARC
8
0
10
160.75
20
-89.5
40
2
50
0
51
90
0
ARC
8
0
10
147.25
20
-89.5
40
2
50
90
51
180
0
ARC
8
0
10
147.25
20
-102
40
2
50
180
51
270
0
ARC
8
0
10
160.75
20
-85
40
2
50
270
51
0
0
ARC
8
0
10
160.75
20
-72.5
40
2
50
0
51
90
0
ARC
8
0
10
147.25
20
-72.5
40
2
50
90
51
180
0
ARC
8
0
10
147.25
20
-85
40
2
50
180
51
270
0
ARC
8
0
10
160.75
20
-68
40
2
50
270
51
0
0
ARC
8
0
10
160.75
20
-55.5
40
2
50
0
51
90
0
ARC
8
0
10
147.25
20
-55.5
40
2
50
90
51
180
0
ARC
8
0
10
147.25
20
-68
40
2
50
180
51
270
0
ARC
8
0
10
178.75
20
-104.125
40
2
50
270
51
0
0
ARC
8
0
10
178.75
20
-91.625
40
2
50
0
51
90
0
ARC
8
0
10
165.25
20
-91.625
40
2
50
90
51
180
0
ARC
8
0
10
165.25
20
-104.125
40
2
50
180
51
270
0
ARC
8
0
10
178.75
20
-87.125
40
2
50
270
51
0
0
ARC
8
0
10
178.75
20
-74.625
40
2
50
0
51
90
0
ARC
8
0
10
165.25
20
-74.625
40
2
50
90
51
180
0
ARC
8
0
10
165.25
20
-87.125
40
2
50
180
51
270
0
ARC
8
0
10
178.75
20
-70.125
40
2
50
270
51
0
0
ARC
8
0
10
178.75
20
-57.625
40
2
50
0
51
90
0
ARC
8
0
10
165.25
20
-57.625
40
2
50
90
51
180
0
ARC
8
0
10
165.25
20
-70.125
40
2
50
180
51
270
0
ARC
8
0
10
157.15
20
-124.525
40
2
50
270
51
0
0
ARC
8
0
10
157.15
20
-112.025
40
2
50
0
51
90
0
ARC
8
0
10
143.65
20
-112.025
40
2
50
90
51
180
0
ARC
8
0
10
143.65
20
-124.525
40
2
50
180
51
270
0
ARC
8
0
10
175.1956746
20
-128.6780668
40
2
50
255.0000021
51
345.0000021
0
ARC
8
0
10
178.4309126
20
-116.6039941
40
2
50
345.0000021
51
75.0000021
0
ARC
8
0
10
165.390914
20
-113.109937
40
2
50
75.0000021
51
165.0000021
0
ARC
8
0
10
162.155676
20
-125.1840097
40
2
50
165.0000021
51
255.0000021
0
ENDSEC
0
EOF