<svg width="114mm" height="95.76mm" viewBox="0 0 114 95.76" xmlns="http://www.w3.org/2000/svg"><g id="svgGroup" stroke-linecap="round" fill-rule="evenodd" font-size="9pt" stroke="#000" stroke-width="0.25mm" fill="none" style="stroke:#000;stroke-width:0.25mm;fill:none"><path d="M 114 14.25 L 114 76.156 A 1 1 0 0 1 113.866 76.656 L 103.125 95.26 M 88.86 86.467 L 100.552 93.217 A 2 2 0 0 0 103.284 92.485 L 109.534 81.66 A 2 2 0 0 0 108.802 78.928 L 97.11 72.178 A 2 2 0 0 0 94.378 72.91 L 88.128 83.735 A 2 2 0 0 0 88.86 86.467 Z M 3.25 64.5 L 16.75 64.5 A 2 2 0 0 0 18.75 62.5 L 18.75 50 A 2 2 0 0 0 16.75 48 L 3.25 48 A 2 2 0 0 0 1.25 50 L 1.25 62.5 A 2 2 0 0 0 3.25 64.5 Z M 3.25 47.5 L 16.75 47.5 A 2 2 0 0 0 18.75 45.5 L 18.75 33 A 2 2 0 0 0 16.75 31 L 3.25 31 A 2 2 0 0 0 1.25 33 L 1.25 45.5 A 2 2 0 0 0 3.25 47.5 Z M 3.25 30.5 L 16.75 30.5 A 2 2 0 0 0 18.75 28.5 L 18.75 16 A 2 2 0 0 0 16.75 14 L 3.25 14 A 2 2 0 0 0 1.25 16 L 1.25 28.5 A 2 2 0 0 0 3.25 30.5 Z M 21.25 53.875 L 34.75 53.875 A 2 2 0 0 0 36.75 51.875 L 36.75 39.375 A 2 2 0 0 0 34.75 37.375 L 21.25 37.375 A 2 2 0 0 0 19.25 39.375 L 19.25 51.875 A 2 2 0 0 0 21.25 53.875 Z M 21.25 36.875 L 34.75 36.875 A 2 2 0 0 0 36.75 34.875 L 36.75 22.375 A 2 2 0 0 0 34.75 20.375 L 21.25 20.375 A 2 2 0 0 0 19.25 22.375 L 19.25 34.875 A 2 2 0 0 0 21.25 36.875 Z M 21.25 19.875 L 34.75 19.875 A 2 2 0 0 0 36.75 17.875 L 36.75 5.375 A 2 2 0 0 0 34.75 3.375 L 21.25 3.375 A 2 2 0 0 0 19.25 5.375 L 19.25 17.875 A 2 2 0 0 0 21.25 19.875 Z M 39.25 51.75 L 52.75 51.75 A 2 2 0 0 0 54.75 49.75 L 54.75 37.25 A 2 2 0 0 0 52.75 35.25 L 39.25 35.25 A 2 2 0 0 0 37.25 37.25 L 37.25 49.75 A 2 2 0 0 0 39.25 51.75 Z M 39.25 34.75 L 52.75 34.75 A 2 2 0 0 0 54.75 32.75 L 54.75 20.25 A 2 2 0 0 0 52.75 18.25 L 39.25 18.25 A 2 2 0 0 0 37.25 20.25 L 37.25 32.75 A 2 2 0 0 0 39.25 34.75 Z M 39.25 17.75 L 52.75 17.75 A 2 2 0 0 0 54.75 15.75 L 54.75 3.25 A 2 2 0 0 0 52.75 1.25 L 39.25 1.25 A 2 2 0 0 0 37.25 3.25 L 37.25 15.75 A 2 2 0 0 0 39.25 17.75 Z M 57.25 58.125 L 70.75 58.125 A 2 2 0 0 0 72.75 56.125 L 72.75 43.625 A 2 2 0 0 0 70.75 41.625 L 57.25 41.625 A 2 2 0 0 0 55.25 43.625 L 55.25 56.125 A 2 2 0 0 0 57.25 58.125 Z M 57.25 41.125 L 70.75 41.125 A 2 2 0 0 0 72.75 39.125 L 72.75 26.625 A 2 2 0 0 0 70.75 24.625 L 57.25 24.625 A 2 2 0 0 0 55.25 26.625 L 55.25 39.125 A 2 2 0 0 0 57.25 41.125 Z M 57.25 24.125 L 70.75 24.125 A 2 2 0 0 0 72.75 22.125 L 72.75 9.625 A 2 2 0 0 0 70.75 7.625 L 57.25 7.625 A 2 2 0 0 0 55.25 9.625 L 55.25 22.125 A 2 2 0 0 0 57.25 24.125 Z M 75.25 60.25 L 88.75 60.25 A 2 2 0 0 0 90.75 58.25 L 90.75 45.75 A 2 2 0 0 0 88.75 43.75 L 75.25 43.75 A 2 2 0 0 0 73.25 45.75 L 73.25 58.25 A 2 2 0 0 0 75.25 60.25 Z M 75.25 43.25 L 88.75 43.25 A 2 2 0 0 0 90.75 41.25 L 90.75 28.75 A 2 2 0 0 0 88.75 26.75 L 75.25 26.75 A 2 2 0 0 0 73.25 28.75 L 73.25 41.25 A 2 2 0 0 0 75.25 43.25 Z M 75.25 26.25 L 88.75 26.25 A 2 2 0 0 0 90.75 24.25 L 90.75 11.75 A 2 2 0 0 0 88.75 9.75 L 75.25 9.75 A 2 2 0 0 0 73.25 11.75 L 73.25 24.25 A 2 2 0 0 0 75.25 26.25 Z M 53.65 80.65 L 67.15 80.65 A 2 2 0 0 0 69.15 78.65 L 69.15 66.15 A 2 2 0 0 0 67.15 64.15 L 53.65 64.15 A 2 2 0 0 0 51.65 66.15 L 51.65 78.65 A 2 2 0 0 0 53.65 80.65 Z M 71.638 81.241 L 84.678 84.735 A 2 2 0 0 0 87.128 83.321 L 90.363 71.247 A 2 2 0 0 0 88.949 68.797 L 75.909 65.303 A 2 2 0 0 0 73.459 66.717 L 70.224 78.791 A 2 2 0 0 0 71.638 81.241 Z M 71.72 79.969 L 85.243 83.592 L 88.867 70.069 L 75.344 66.446 L 71.72 79.969 Z M 3 63.25 L 17 63.25 L 17 49.25 L 3 49.25 L 3 63.25 Z M 3 46.25 L 17 46.25 L 17 32.25 L 3 32.25 L 3 46.25 Z M 3 29.25 L 17 29.25 L 17 15.25 L 3 15.25 L 3 29.25 Z M 21 52.625 L 35 52.625 L 35 38.625 L 21 38.625 L 21 52.625 Z M 21 35.625 L 35 35.625 L 35 21.625 L 21 21.625 L 21 35.625 Z M 21 18.625 L 35 18.625 L 35 4.625 L 21 4.625 L 21 18.625 Z M 39 50.5 L 53 50.5 L 53 36.5 L 39 36.5 L 39 50.5 Z M 39 33.5 L 53 33.5 L 53 19.5 L 39 19.5 L 39 33.5 Z M 39 16.5 L 53 16.5 L 53 2.5 L 39 2.5 L 39 16.5 Z M 57 56.875 L 71 56.875 L 71 42.875 L 57 42.875 L 57 56.875 Z M 57 39.875 L 71 39.875 L 71 25.875 L 57 25.875 L 57 39.875 Z M 57 22.875 L 71 22.875 L 71 8.875 L 57 8.875 L 57 22.875 Z M 75 59 L 89 59 L 89 45 L 75 45 L 75 59 Z M 75 42 L 89 42 L 89 28 L 75 28 L 75 42 Z M 75 25 L 89 25 L 89 11 L 75 11 L 75 25 Z M 53.4 79.4 L 67.4 79.4 L 67.4 65.4 L 53.4 65.4 L 53.4 79.4 Z M 89.269 85.26 L 101.393 92.26 L 108.393 80.135 L 96.269 73.135 L 89.269 85.26 Z M 18 3.125 L 18 12.25 A 0.5 0.5 0 0 1 17.5 12.75 L 1 12.75 M 113.5 77.29 A 1 1 0 0 0 113.134 75.924 L 92.5 64.011 M 56 1 L 56 5.875 A 0.5 0.5 0 0 0 56.5 6.375 L 73 6.375 M 113 13.25 L 93 13.25 A 1 1 0 0 1 92 12.25 M 36 1 L 36 1.625 A 0.5 0.5 0 0 1 35.5 2.125 L 19 2.125 M 74 7.375 L 74 8 A 0.5 0.5 0 0 0 74.5 8.5 L 91 8.5 M 19 30.75 m -2.15 0 a 2.15 2.15 0 0 1 4.3 0 a 2.15 2.15 0 0 1 -4.3 0 z M 19 47.75 m -2.15 0 a 2.15 2.15 0 0 1 4.3 0 a 2.15 2.15 0 0 1 -4.3 0 z M 73 24.375 m -2.15 0 a 2.15 2.15 0 0 1 4.3 0 a 2.15 2.15 0 0 1 -4.3 0 z M 51.4 63.9 m -2.15 0 a 2.15 2.15 0 0 1 4.3 0 a 2.15 2.15 0 0 1 -4.3 0 z M 91.187 69.138 m -2.15 0 a 2.15 2.15 0 0 1 4.3 0 a 2.15 2.15 0 0 1 -4.3 0 z M 95 61.825 m -1.1 0 a 1.1 1.1 0 0 1 2.2 0 a 1.1 1.1 0 0 1 -2.2 0 z M 111 70.725 m -1.1 0 a 1.1 1.1 0 0 1 2.2 0 a 1.1 1.1 0 0 1 -2.2 0 z M 19 30.75 m -1.1 0 a 1.1 1.1 0 0 1 2.2 0 a 1.1 1.1 0 0 1 -2.2 0 z M 19 47.75 m -1.1 0 a 1.1 1.1 0 0 1 2.2 0 a 1.1 1.1 0 0 1 -2.2 0 z M 73 24.375 m -1.1 0 a 1.1 1.1 0 0 1 2.2 0 a 1.1 1.1 0 0 1 -2.2 0 z M 51.4 63.9 m -1.1 0 a 1.1 1.1 0 0 1 2.2 0 a 1.1 1.1 0 0 1 -2.2 0 z M 91.187 69.138 m -1.1 0 a 1.1 1.1 0 0 1 2.2 0 a 1.1 1.1 0 0 1 -2.2 0 z M 50.954 81.013 m -1 0 a 1 1 0 0 0 2 0 a 1 1 0 0 0 -2 0 z M 1 64.75 m -1 0 a 1 1 0 0 0 2 0 a 1 1 0 0 0 -2 0 z M 1 13.75 m -1 0 a 1 1 0 0 0 2 0 a 1 1 0 0 0 -2 0 z M 19 3.125 m -1 0 a 1 1 0 0 0 2 0 a 1 1 0 0 0 -2 0 z M 55 1 m -1 0 a 1 1 0 0 0 2 0 a 1 1 0 0 0 -2 0 z M 37 1 m -1 0 a 1 1 0 0 0 2 0 a 1 1 0 0 0 -2 0 z M 73 7.375 m -1 0 a 1 1 0 0 0 2 0 a 1 1 0 0 0 -2 0 z M 91 9.5 m -1 0 a 1 1 0 0 0 2 0 a 1 1 0 0 0 -2 0 z M 102.259 94.76 m -1 0 a 1 1 0 0 0 2 0 a 1 1 0 0 0 -2 0 z M 35.919 66.75 m -1 0 a 1 1 0 0 0 2 0 a 1 1 0 0 0 -2 0 z M 113 14.25 m -1 0 a 1 1 0 0 0 2 0 a 1 1 0 0 0 -2 0 z M 93 63.145 m -1 0 a 1 1 0 0 0 2 0 a 1 1 0 0 0 -2 0 z M 1 65.75 35.919 65.75 M 0 64.75 0 13.75 M 37 0 55 0 M 92 63.145 92 9.5 M 50.696 81.979 102 95.726 M 36.674 66.094 50.199 81.669 M 75 8.5 A 1 1 0 0 1 74 7.5 M 57 6.375 A 1 1 0 0 1 56 5.375 M 36 1.125 A 1 1 0 0 1 35 2.125 M 18 11.75 A 1 1 0 0 1 17 12.75 M 92 14.25 A 1 1 0 0 1 93 13.25 M 114 74.692 A 1 1 0 0 1 112.5 75.558" vector-effect="non-scaling-stroke"/></g></svg>