<svg width="114mm" height="91.593mm" viewBox="0 0 114 91.593" xmlns="http://www.w3.org/2000/svg"><g id="svgGroup" stroke-linecap="round" fill-rule="evenodd" font-size="9pt" stroke="#000" stroke-width="0.25mm" fill="none" style="stroke:#000;stroke-width:0.25mm;fill:none"><path d="M 114 9.5 L 114 72.04 A 0.5 0.5 0 0 1 113.933 72.29 L 102.933 91.343 M 88.86 82.217 L 100.552 88.967 A 2 2 0 0 0 103.284 88.235 L 109.534 77.41 A 2 2 0 0 0 108.802 74.678 L 97.11 67.928 A 2 2 0 0 0 94.378 68.66 L 88.128 79.485 A 2 2 0 0 0 88.86 82.217 Z M 3.25 58.125 L 16.75 58.125 A 2 2 0 0 0 18.75 56.125 L 18.75 43.625 A 2 2 0 0 0 16.75 41.625 L 3.25 41.625 A 2 2 0 0 0 1.25 43.625 L 1.25 56.125 A 2 2 0 0 0 3.25 58.125 Z M 3.25 41.125 L 16.75 41.125 A 2 2 0 0 0 18.75 39.125 L 18.75 26.625 A 2 2 0 0 0 16.75 24.625 L 3.25 24.625 A 2 2 0 0 0 1.25 26.625 L 1.25 39.125 A 2 2 0 0 0 3.25 41.125 Z M 3.25 24.125 L 16.75 24.125 A 2 2 0 0 0 18.75 22.125 L 18.75 9.625 A 2 2 0 0 0 16.75 7.625 L 3.25 7.625 A 2 2 0 0 0 1.25 9.625 L 1.25 22.125 A 2 2 0 0 0 3.25 24.125 Z M 21.25 53.875 L 34.75 53.875 A 2 2 0 0 0 36.75 51.875 L 36.75 39.375 A 2 2 0 0 0 34.75 37.375 L 21.25 37.375 A 2 2 0 0 0 19.25 39.375 L 19.25 51.875 A 2 2 0 0 0 21.25 53.875 Z M 21.25 36.875 L 34.75 36.875 A 2 2 0 0 0 36.75 34.875 L 36.75 22.375 A 2 2 0 0 0 34.75 20.375 L 21.25 20.375 A 2 2 0 0 0 19.25 22.375 L 19.25 34.875 A 2 2 0 0 0 21.25 36.875 Z M 21.25 19.875 L 34.75 19.875 A 2 2 0 0 0 36.75 17.875 L 36.75 5.375 A 2 2 0 0 0 34.75 3.375 L 21.25 3.375 A 2 2 0 0 0 19.25 5.375 L 19.25 17.875 A 2 2 0 0 0 21.25 19.875 Z M 39.25 51.75 L 52.75 51.75 A 2 2 0 0 0 54.75 49.75 L 54.75 37.25 A 2 2 0 0 0 52.75 35.25 L 39.25 35.25 A 2 2 0 0 0 37.25 37.25 L 37.25 49.75 A 2 2 0 0 0 39.25 51.75 Z M 39.25 34.75 L 52.75 34.75 A 2 2 0 0 0 54.75 32.75 L 54.75 20.25 A 2 2 0 0 0 52.75 18.25 L 39.25 18.25 A 2 2 0 0 0 37.25 20.25 L 37.25 32.75 A 2 2 0 0 0 39.25 34.75 Z M 39.25 17.75 L 52.75 17.75 A 2 2 0 0 0 54.75 15.75 L 54.75 3.25 A 2 2 0 0 0 52.75 1.25 L 39.25 1.25 A 2 2 0 0 0 37.25 3.25 L 37.25 15.75 A 2 2 0 0 0 39.25 17.75 Z M 57.25 53.875 L 70.75 53.875 A 2 2 0 0 0 72.75 51.875 L 72.75 39.375 A 2 2 0 0 0 70.75 37.375 L 57.25 37.375 A 2 2 0 0 0 55.25 39.375 L 55.25 51.875 A 2 2 0 0 0 57.25 53.875 Z M 57.25 36.875 L 70.75 36.875 A 2 2 0 0 0 72.75 34.875 L 72.75 22.375 A 2 2 0 0 0 70.75 20.375 L 57.25 20.375 A 2 2 0 0 0 55.25 22.375 L 55.25 34.875 A 2 2 0 0 0 57.25 36.875 Z M 57.25 19.875 L 70.75 19.875 A 2 2 0 0 0 72.75 17.875 L 72.75 5.375 A 2 2 0 0 0 70.75 3.375 L 57.25 3.375 A 2 2 0 0 0 55.25 5.375 L 55.25 17.875 A 2 2 0 0 0 57.25 19.875 Z M 75.25 56 L 88.75 56 A 2 2 0 0 0 90.75 54 L 90.75 41.5 A 2 2 0 0 0 88.75 39.5 L 75.25 39.5 A 2 2 0 0 0 73.25 41.5 L 73.25 54 A 2 2 0 0 0 75.25 56 Z M 75.25 39 L 88.75 39 A 2 2 0 0 0 90.75 37 L 90.75 24.5 A 2 2 0 0 0 88.75 22.5 L 75.25 22.5 A 2 2 0 0 0 73.25 24.5 L 73.25 37 A 2 2 0 0 0 75.25 39 Z M 75.25 22 L 88.75 22 A 2 2 0 0 0 90.75 20 L 90.75 7.5 A 2 2 0 0 0 88.75 5.5 L 75.25 5.5 A 2 2 0 0 0 73.25 7.5 L 73.25 20 A 2 2 0 0 0 75.25 22 Z M 53.65 76.4 L 67.15 76.4 A 2 2 0 0 0 69.15 74.4 L 69.15 61.9 A 2 2 0 0 0 67.15 59.9 L 53.65 59.9 A 2 2 0 0 0 51.65 61.9 L 51.65 74.4 A 2 2 0 0 0 53.65 76.4 Z M 71.638 76.991 L 84.678 80.485 A 2 2 0 0 0 87.128 79.071 L 90.363 66.997 A 2 2 0 0 0 88.949 64.547 L 75.909 61.053 A 2 2 0 0 0 73.459 62.467 L 70.224 74.541 A 2 2 0 0 0 71.638 76.991 Z M 71.72 75.719 L 85.243 79.342 L 88.867 65.819 L 75.344 62.196 L 71.72 75.719 Z M 3 56.875 L 17 56.875 L 17 42.875 L 3 42.875 L 3 56.875 Z M 3 39.875 L 17 39.875 L 17 25.875 L 3 25.875 L 3 39.875 Z M 3 22.875 L 17 22.875 L 17 8.875 L 3 8.875 L 3 22.875 Z M 21 52.625 L 35 52.625 L 35 38.625 L 21 38.625 L 21 52.625 Z M 21 35.625 L 35 35.625 L 35 21.625 L 21 21.625 L 21 35.625 Z M 21 18.625 L 35 18.625 L 35 4.625 L 21 4.625 L 21 18.625 Z M 39 50.5 L 53 50.5 L 53 36.5 L 39 36.5 L 39 50.5 Z M 39 33.5 L 53 33.5 L 53 19.5 L 39 19.5 L 39 33.5 Z M 39 16.5 L 53 16.5 L 53 2.5 L 39 2.5 L 39 16.5 Z M 57 52.625 L 71 52.625 L 71 38.625 L 57 38.625 L 57 52.625 Z M 57 35.625 L 71 35.625 L 71 21.625 L 57 21.625 L 57 35.625 Z M 57 18.625 L 71 18.625 L 71 4.625 L 57 4.625 L 57 18.625 Z M 75 54.75 L 89 54.75 L 89 40.75 L 75 40.75 L 75 54.75 Z M 75 37.75 L 89 37.75 L 89 23.75 L 75 23.75 L 75 37.75 Z M 75 20.75 L 89 20.75 L 89 6.75 L 75 6.75 L 75 20.75 Z M 53.4 75.15 L 67.4 75.15 L 67.4 61.15 L 53.4 61.15 L 53.4 75.15 Z M 89.269 81.01 L 101.393 88.01 L 108.393 75.885 L 96.269 68.885 L 89.269 81.01 Z M 113.75 72.607 A 0.5 0.5 0 0 0 113.567 71.924 L 92.25 59.616 M 113.5 9 L 92.5 9 A 0.5 0.5 0 0 1 92 8.5 M 19 20.125 m -2.15 0 a 2.15 2.15 0 0 1 4.3 0 a 2.15 2.15 0 0 1 -4.3 0 z M 19 37.125 m -2.15 0 a 2.15 2.15 0 0 1 4.3 0 a 2.15 2.15 0 0 1 -4.3 0 z M 73 20.125 m -2.15 0 a 2.15 2.15 0 0 1 4.3 0 a 2.15 2.15 0 0 1 -4.3 0 z M 51.4 59.65 m -2.15 0 a 2.15 2.15 0 0 1 4.3 0 a 2.15 2.15 0 0 1 -4.3 0 z M 91.187 64.888 m -2.15 0 a 2.15 2.15 0 0 1 4.3 0 a 2.15 2.15 0 0 1 -4.3 0 z M 95 57.575 m -1.1 0 a 1.1 1.1 0 0 1 2.2 0 a 1.1 1.1 0 0 1 -2.2 0 z M 111 66.475 m -1.1 0 a 1.1 1.1 0 0 1 2.2 0 a 1.1 1.1 0 0 1 -2.2 0 z M 19 20.125 m -1.1 0 a 1.1 1.1 0 0 1 2.2 0 a 1.1 1.1 0 0 1 -2.2 0 z M 19 37.125 m -1.1 0 a 1.1 1.1 0 0 1 2.2 0 a 1.1 1.1 0 0 1 -2.2 0 z M 73 20.125 m -1.1 0 a 1.1 1.1 0 0 1 2.2 0 a 1.1 1.1 0 0 1 -2.2 0 z M 51.4 59.65 m -1.1 0 a 1.1 1.1 0 0 1 2.2 0 a 1.1 1.1 0 0 1 -2.2 0 z M 91.187 64.888 m -1.1 0 a 1.1 1.1 0 0 1 2.2 0 a 1.1 1.1 0 0 1 -2.2 0 z M 1 58.375 m -1 0 a 1 1 0 0 0 2 0 a 1 1 0 0 0 -2 0 z M 1 7.375 m -1 0 a 1 1 0 0 0 2 0 a 1 1 0 0 0 -2 0 z M 19 3.125 m -1 0 a 1 1 0 0 0 2 0 a 1 1 0 0 0 -2 0 z M 55 1 m -1 0 a 1 1 0 0 0 2 0 a 1 1 0 0 0 -2 0 z M 37 1 m -1 0 a 1 1 0 0 0 2 0 a 1 1 0 0 0 -2 0 z M 73 3.125 m -1 0 a 1 1 0 0 0 2 0 a 1 1 0 0 0 -2 0 z M 91 5.25 m -1 0 a 1 1 0 0 0 2 0 a 1 1 0 0 0 -2 0 z M 36.128 59.875 m -0.5 0 a 0.5 0.5 0 0 0 1 0 a 0.5 0.5 0 0 0 -1 0 z M 102.5 91.093 m -0.5 0 a 0.5 0.5 0 0 0 1 0 a 0.5 0.5 0 0 0 -1 0 z M 113.5 9.5 m -0.5 0 a 0.5 0.5 0 0 0 1 0 a 0.5 0.5 0 0 0 -1 0 z M 74.5 3.75 m -0.5 0 a 0.5 0.5 0 0 0 1 0 a 0.5 0.5 0 0 0 -1 0 z M 56.5 1.625 m -0.5 0 a 0.5 0.5 0 0 0 1 0 a 0.5 0.5 0 0 0 -1 0 z M 35.5 1.625 m -0.5 0 a 0.5 0.5 0 0 0 1 0 a 0.5 0.5 0 0 0 -1 0 z M 17.5 5.875 m -0.5 0 a 0.5 0.5 0 0 0 1 0 a 0.5 0.5 0 0 0 -1 0 z M 92.5 59.183 m -0.5 0 a 0.5 0.5 0 0 0 1 0 a 0.5 0.5 0 0 0 -1 0 z M 50.693 77.211 m -0.5 0 a 0.5 0.5 0 0 0 1 0 a 0.5 0.5 0 0 0 -1 0 z M 1 59.375 36.128 59.375 M 0 58.375 0 7.375 M 1 6.375 17.5 6.375 M 19 2.125 35.5 2.125 M 18 5.875 18 3.125 M 56 1.625 56 1 M 37 0 55 0 M 36 1.625 36 1 M 74 3.75 74 3.125 M 56.5 2.125 73 2.125 M 92 59.183 92 5.25 M 74.5 4.25 91 4.25 M 50.564 77.694 102.371 91.575 M 36.525 59.571 50.297 77.515 M 92 9.5 A 0.5 0.5 0 0 1 92.5 9 M 114 71.308 A 0.5 0.5 0 0 1 113.25 71.741" vector-effect="non-scaling-stroke"/></g></svg>