<svg width="111.875mm" height="91.309mm" viewBox="0 0 111.875 91.309" xmlns="http://www.w3.org/2000/svg"><g id="svgGroup" stroke-linecap="round" fill-rule="evenodd" font-size="9pt" stroke="#000" stroke-width="0.25mm" fill="none" style="stroke:#000;stroke-width:0.25mm;fill:none"><path d="M 1 59.375 L 19 59.375 A 1 1 0 0 0 20 58.375 L 20 55.125 L 37 55.125 A 1 1 0 0 0 38 54.125 L 38 53 L 54 53 L 54 54.125 A 1 1 0 0 0 55 55.125 L 72 55.125 L 72 56.25 A 1 1 0 0 0 73 57.25 L 91 57.25 A 1 1 0 0 0 92 56.25 L 92 5.25 A 1 1 0 0 0 91 4.25 L 74 4.25 L 74 3.125 A 1 1 0 0 0 73 2.125 L 56 2.125 L 56 1 A 1 1 0 0 0 55 0 L 37 0 A 1 1 0 0 0 36 1 L 36 2.125 L 19 2.125 A 1 1 0 0 0 18 3.125 L 18 6.375 L 1 6.375 A 1 1 0 0 0 0 7.375 L 0 58.375 A 1 1 0 0 0 1 59.375 Z M 51.4 77.65 L 69.268 77.65 L 86.401 82.241 L 101.875 91.175 A 1 1 0 0 0 103.241 90.809 L 111.741 76.086 A 1 1 0 0 0 111.375 74.72 L 95.787 65.72 A 1 1 0 0 0 94.421 66.086 L 89.719 74.231 L 92.153 65.147 A 1 1 0 0 0 91.445 63.922 L 74.059 59.263 A 1 1 0 0 0 72.834 59.97 L 70.4 69.054 L 70.4 59.65 A 1 1 0 0 0 69.4 58.65 L 51.4 58.65 A 1 1 0 0 0 50.4 59.65 L 50.4 76.65 A 1 1 0 0 0 51.4 77.65 Z" vector-effect="non-scaling-stroke"/></g></svg>