0
SECTION
2
HEADER
9
$INSUNITS
70
4
0
ENDSEC
0
SECTION
2
TABLES
0
TABLE
2
LTYPE
0
LTYPE
72
65
70
64
2
CONTINUOUS
3
______
73
0
40
0
0
ENDTAB
0
TABLE
2
LAYER
0
ENDTAB
0
ENDSEC
0
SECTION
2
ENTITIES
0
LINE
8
0
10
91
20
-109.5
11
109
21
-109.5
0
ARC
8
0
10
109
20
-108.5
40
1
50
270
51
360
0
LINE
8
0
10
110
20
-108.5
11
110
21
-105.25
0
LINE
8
0
10
90
20
-108.5
11
90
21
-57.5
0
ARC
8
0
10
91
20
-108.5
40
1
50
180
51
270
0
LINE
8
0
10
108
20
-56.5
11
91
21
-56.5
0
ARC
8
0
10
91
20
-57.5
40
1
50
90
51
180
0
LINE
8
0
10
110
20
-105.25
11
127
21
-105.25
0
ARC
8
0
10
127
20
-104.25
40
1
50
270
51
360
0
LINE
8
0
10
128
20
-104.25
11
128
21
-103.125
0
LINE
8
0
10
126
20
-52.25
11
109
21
-52.25
0
ARC
8
0
10
109
20
-53.25
40
1
50
90
51
180
0
LINE
8
0
10
108
20
-53.25
11
108
21
-56.5
0
LINE
8
0
10
128
20
-103.125
11
144
21
-103.125
0
LINE
8
0
10
146
20
-52.25
11
146
21
-51.125
0
ARC
8
0
10
145
20
-51.125
40
1
50
0
51
90
0
LINE
8
0
10
145
20
-50.125
11
127
21
-50.125
0
ARC
8
0
10
127
20
-51.125
40
1
50
90
51
180
0
LINE
8
0
10
126
20
-51.125
11
126
21
-52.25
0
LINE
8
0
10
145
20
-105.25
11
162
21
-105.25
0
LINE
8
0
10
144
20
-103.125
11
144
21
-104.25
0
ARC
8
0
10
145
20
-104.25
40
1
50
180
51
270
0
LINE
8
0
10
164
20
-54.375
11
164
21
-53.25
0
ARC
8
0
10
163
20
-53.25
40
1
50
0
51
90
0
LINE
8
0
10
163
20
-52.25
11
146
21
-52.25
0
LINE
8
0
10
163
20
-107.375
11
181
21
-107.375
0
ARC
8
0
10
181
20
-106.375
40
1
50
270
51
360
0
LINE
8
0
10
182
20
-106.375
11
182
21
-55.375
0
LINE
8
0
10
162
20
-105.25
11
162
21
-106.375
0
ARC
8
0
10
163
20
-106.375
40
1
50
180
51
270
0
ARC
8
0
10
181
20
-55.375
40
1
50
0
51
90
0
LINE
8
0
10
181
20
-54.375
11
164
21
-54.375
0
LINE
8
0
10
141.4
20
-127.775
11
159.2683475
21
-127.775
0
LINE
8
0
10
160.4
20
-119.1792459
11
160.4
21
-109.775
0
ARC
8
0
10
159.4
20
-109.775
40
1
50
0
51
90
0
LINE
8
0
10
159.4
20
-108.775
11
141.4
21
-108.775
0
ARC
8
0
10
141.4
20
-109.775
40
1
50
90
51
180
0
LINE
8
0
10
140.4
20
-109.775
11
140.4
21
-126.775
0
ARC
8
0
10
141.4
20
-126.775
40
1
50
180
51
270
0
LINE
8
0
10
159.2683475
20
-127.775
11
176.4006796
21
-132.3655946
0
LINE
8
0
10
179.7185164
20
-124.355627
11
182.1525144
21
-115.2718228
0
ARC
8
0
10
181.1865886
20
-115.0130038
40
1
50
345
51
75
0
LINE
8
0
10
181.4454077
20
-114.047078
11
164.0587428
21
-109.3883351
0
ARC
8
0
10
163.7999237
20
-110.354261
40
1
50
75
51
165
0
LINE
8
0
10
162.8339979
20
-110.0954419
11
160.4
21
-119.1792459
0
LINE
8
0
10
176.4006796
20
-132.3655946
11
191.8751221
21
-141.2997682
0
ARC
8
0
10
192.3751221
20
-140.4337428
40
1
50
240
51
330
0
LINE
8
0
10
193.2411475
20
-140.9337428
11
201.7411475
21
-126.211311
0
ARC
8
0
10
200.8751221
20
-125.711311
40
1
50
330
51
60
0
LINE
8
0
10
201.3751221
20
-124.8452856
11
185.7866649
21
-115.8452856
0
ARC
8
0
10
185.2866649
20
-116.711311
40
1
50
60
51
150
0
LINE
8
0
10
184.4206395
20
-116.211311
11
179.7185164
21
-124.355627
0
ENDSEC
0
EOF