<svg width="111.875mm" height="95.559mm" viewBox="0 0 111.875 95.559" xmlns="http://www.w3.org/2000/svg"><g id="svgGroup" stroke-linecap="round" fill-rule="evenodd" font-size="9pt" stroke="#000" stroke-width="0.25mm" fill="none" style="stroke:#000;stroke-width:0.25mm;fill:none"><path d="M 1 65.75 L 19 65.75 A 1 1 0 0 0 20 64.75 L 20 55.125 L 37 55.125 A 1 1 0 0 0 38 54.125 L 38 53 L 54 53 L 54 58.375 A 1 1 0 0 0 55 59.375 L 72 59.375 L 72 60.5 A 1 1 0 0 0 73 61.5 L 91 61.5 A 1 1 0 0 0 92 60.5 L 92 9.5 A 1 1 0 0 0 91 8.5 L 74 8.5 L 74 7.375 A 1 1 0 0 0 73 6.375 L 56 6.375 L 56 1 A 1 1 0 0 0 55 0 L 37 0 A 1 1 0 0 0 36 1 L 36 2.125 L 19 2.125 A 1 1 0 0 0 18 3.125 L 18 12.75 L 1 12.75 A 1 1 0 0 0 0 13.75 L 0 64.75 A 1 1 0 0 0 1 65.75 Z M 51.4 81.9 L 69.268 81.9 L 86.401 86.491 L 101.875 95.425 A 1 1 0 0 0 103.241 95.059 L 111.741 80.336 A 1 1 0 0 0 111.375 78.97 L 95.787 69.97 A 1 1 0 0 0 94.421 70.336 L 89.719 78.481 L 92.153 69.397 A 1 1 0 0 0 91.445 68.172 L 74.059 63.513 A 1 1 0 0 0 72.834 64.22 L 70.4 73.304 L 70.4 63.9 A 1 1 0 0 0 69.4 62.9 L 51.4 62.9 A 1 1 0 0 0 50.4 63.9 L 50.4 80.9 A 1 1 0 0 0 51.4 81.9 Z" vector-effect="non-scaling-stroke"/></g></svg>