0
SECTION
2
HEADER
9
$INSUNITS
70
4
0
ENDSEC
0
SECTION
2
TABLES
0
TABLE
2
LTYPE
0
LTYPE
72
65
70
64
2
CONTINUOUS
3
______
73
0
40
0
0
ENDTAB
0
TABLE
2
LAYER
0
ENDTAB
0
ENDSEC
0
SECTION
2
ENTITIES
0
LINE
8
0
10
91
20
-109.5
11
109
21
-109.5
0
ARC
8
0
10
109
20
-108.5
40
1
50
270
51
360
0
LINE
8
0
10
110
20
-108.5
11
110
21
-98.875
0
LINE
8
0
10
90
20
-108.5
11
90
21
-57.5
0
ARC
8
0
10
91
20
-108.5
40
1
50
180
51
270
0
LINE
8
0
10
108
20
-56.5
11
91
21
-56.5
0
ARC
8
0
10
91
20
-57.5
40
1
50
90
51
180
0
LINE
8
0
10
110
20
-98.875
11
127
21
-98.875
0
ARC
8
0
10
127
20
-97.875
40
1
50
270
51
360
0
LINE
8
0
10
128
20
-97.875
11
128
21
-96.75
0
LINE
8
0
10
126
20
-45.875
11
109
21
-45.875
0
ARC
8
0
10
109
20
-46.875
40
1
50
90
51
180
0
LINE
8
0
10
108
20
-46.875
11
108
21
-56.5
0
LINE
8
0
10
128
20
-96.75
11
144
21
-96.75
0
LINE
8
0
10
146
20
-50.125
11
146
21
-44.75
0
ARC
8
0
10
145
20
-44.75
40
1
50
0
51
90
0
LINE
8
0
10
145
20
-43.75
11
127
21
-43.75
0
ARC
8
0
10
127
20
-44.75
40
1
50
90
51
180
0
LINE
8
0
10
126
20
-44.75
11
126
21
-45.875
0
LINE
8
0
10
145
20
-103.125
11
162
21
-103.125
0
LINE
8
0
10
144
20
-96.75
11
144
21
-102.125
0
ARC
8
0
10
145
20
-102.125
40
1
50
180
51
270
0
LINE
8
0
10
164
20
-52.25
11
164
21
-51.125
0
ARC
8
0
10
163
20
-51.125
40
1
50
0
51
90
0
LINE
8
0
10
163
20
-50.125
11
146
21
-50.125
0
LINE
8
0
10
163
20
-105.25
11
181
21
-105.25
0
ARC
8
0
10
181
20
-104.25
40
1
50
270
51
360
0
LINE
8
0
10
182
20
-104.25
11
182
21
-53.25
0
LINE
8
0
10
162
20
-103.125
11
162
21
-104.25
0
ARC
8
0
10
163
20
-104.25
40
1
50
180
51
270
0
ARC
8
0
10
181
20
-53.25
40
1
50
0
51
90
0
LINE
8
0
10
181
20
-52.25
11
164
21
-52.25
0
LINE
8
0
10
141.4
20
-125.65
11
159.2683475
21
-125.65
0
LINE
8
0
10
160.4
20
-117.0542459
11
160.4
21
-107.65
0
ARC
8
0
10
159.4
20
-107.65
40
1
50
0
51
90
0
LINE
8
0
10
159.4
20
-106.65
11
141.4
21
-106.65
0
ARC
8
0
10
141.4
20
-107.65
40
1
50
90
51
180
0
LINE
8
0
10
140.4
20
-107.65
11
140.4
21
-124.65
0
ARC
8
0
10
141.4
20
-124.65
40
1
50
180
51
270
0
LINE
8
0
10
159.2683475
20
-125.65
11
176.4006796
21
-130.2405946
0
LINE
8
0
10
179.7185164
20
-122.230627
11
182.1525144
21
-113.1468228
0
ARC
8
0
10
181.1865886
20
-112.8880038
40
1
50
345
51
75
0
LINE
8
0
10
181.4454077
20
-111.922078
11
164.0587428
21
-107.2633351
0
ARC
8
0
10
163.7999237
20
-108.229261
40
1
50
75
51
165
0
LINE
8
0
10
162.8339979
20
-107.9704419
11
160.4
21
-117.0542459
0
LINE
8
0
10
176.4006796
20
-130.2405946
11
191.8751221
21
-139.1747682
0
ARC
8
0
10
192.3751221
20
-138.3087428
40
1
50
240
51
330
0
LINE
8
0
10
193.2411475
20
-138.8087428
11
201.7411475
21
-124.086311
0
ARC
8
0
10
200.8751221
20
-123.586311
40
1
50
330
51
60
0
LINE
8
0
10
201.3751221
20
-122.7202856
11
185.7866649
21
-113.7202856
0
ARC
8
0
10
185.2866649
20
-114.586311
40
1
50
60
51
150
0
LINE
8
0
10
184.4206395
20
-114.086311
11
179.7185164
21
-122.230627
0
ENDSEC
0
EOF