%TF.GenerationSoftware,KiCad,Pcbnew,8.0.6+1*%
%TF.CreationDate,2024-11-30T16:17:57+00:00*%
%TF.ProjectId,corney_island_wireless_autorouted,636f726e-6579-45f6-9973-6c616e645f77,0.2*%
%TF.SameCoordinates,Original*%
%TF.FileFunction,Drillmap*%
%TF.FilePolarity,Positive*%
%FSLAX45Y45*%
G04 Gerber Fmt 4.5, Leading zero omitted, Abs format (unit mm)*
G04 Created by KiCad (PCBNEW 8.0.6+1) date 2024-11-30 16:17:57*
%MOMM*%
%LPD*%
G01*
G04 APERTURE LIST*
%ADD10C,0.150000*%
%ADD11C,0.200000*%
%ADD12C,0.100000*%
%ADD13C,0.130000*%
G04 APERTURE END LIST*
D10*
X12600000Y-5112500D02*
X12600000Y-5175000D01*
X14600000Y-5175000D02*
X14600000Y-5112500D01*
X18100000Y-5437500D02*
X16450000Y-5437500D01*
X9000000Y-10850000D02*
X9000000Y-5750000D01*
X20400000Y-12216489D02*
G75*
G02*
X20393301Y-12241488I-49990J-1D01*
G01*
X9100000Y-10950000D02*
X12612845Y-10950000D01*
X12600000Y-5112500D02*
G75*
G02*
X12700000Y-5012500I100000J0D01*
G01*
X16450000Y-5437500D02*
G75*
G02*
X16400000Y-5387500I0J50000D01*
G01*
X14029668Y-12764037D02*
X12652510Y-10969559D01*
X16400000Y-5387500D02*
X16400000Y-5325000D01*
X14500000Y-5012500D02*
X12700000Y-5012500D01*
X9100000Y-10950000D02*
G75*
G02*
X9000000Y-10850000I0J100000D01*
G01*
X10800000Y-5600000D02*
G75*
G02*
X10750000Y-5650000I-50000J0D01*
G01*
X14056392Y-12781892D02*
G75*
G02*
X14029668Y-12764037I12938J48292D01*
G01*
X19293298Y-14146751D02*
X20393301Y-12241489D01*
X18250000Y-5912500D02*
X20350000Y-5912500D01*
X12612845Y-10950000D02*
G75*
G02*
X12652513Y-10969557I-5J-50020D01*
G01*
X14650000Y-5225000D02*
G75*
G02*
X14600000Y-5175000I0J50000D01*
G01*
X18200000Y-5862500D02*
X18200000Y-5537500D01*
X16300000Y-5225000D02*
G75*
G02*
X16400000Y-5325000I0J-100000D01*
G01*
X10800000Y-5325000D02*
X10800000Y-5600000D01*
X14500000Y-5012500D02*
G75*
G02*
X14600000Y-5112500I0J-100000D01*
G01*
X18100000Y-5437500D02*
G75*
G02*
X18200000Y-5537500I0J-100000D01*
G01*
X10750000Y-5650000D02*
X9100000Y-5650000D01*
X12600000Y-5175000D02*
G75*
G02*
X12550000Y-5225000I-50000J0D01*
G01*
X10800000Y-5325000D02*
G75*
G02*
X10900000Y-5225000I100000J0D01*
G01*
X16300000Y-5225000D02*
X14650000Y-5225000D01*
X18250000Y-5912500D02*
G75*
G02*
X18200000Y-5862500I0J50000D01*
G01*
X19293298Y-14146751D02*
G75*
G02*
X19237055Y-14170049I-43308J25011D01*
G01*
X20400000Y-5962500D02*
X20400000Y-12216489D01*
X20350000Y-5912500D02*
G75*
G02*
X20400000Y-5962500I0J-50000D01*
G01*
X12550000Y-5225000D02*
X10900000Y-5225000D01*
X19237056Y-14170047D02*
X14056392Y-12781892D01*
X9000000Y-5750000D02*
G75*
G02*
X9100000Y-5650000I100000J0D01*
G01*
D11*
D12*
X9784230Y-9196400D02*
X9814230Y-9226400D01*
X9814230Y-9196400D02*
X9784230Y-9226400D01*
X10238410Y-8696590D02*
X10268410Y-8726590D01*
X10268410Y-8696590D02*
X10238410Y-8726590D01*
X10240160Y-7175160D02*
X10270160Y-7205160D01*
X10270160Y-7175160D02*
X10240160Y-7205160D01*
X10246120Y-10468130D02*
X10276120Y-10498130D01*
X10276120Y-10468130D02*
X10246120Y-10498130D01*
X10693030Y-6416920D02*
X10723030Y-6446920D01*
X10723030Y-6416920D02*
X10693030Y-6446920D01*
X11854340Y-6660000D02*
X11884340Y-6690000D01*
X11884340Y-6660000D02*
X11854340Y-6690000D01*
X12042160Y-10152160D02*
X12072160Y-10182160D01*
X12072160Y-10152160D02*
X12042160Y-10182160D01*
X12046490Y-8389500D02*
X12076490Y-8419500D01*
X12076490Y-8389500D02*
X12046490Y-8419500D01*
X12057330Y-5785350D02*
X12087330Y-5815350D01*
X12087330Y-5785350D02*
X12057330Y-5815350D01*
X12057330Y-7523650D02*
X12087330Y-7553650D01*
X12087330Y-7523650D02*
X12057330Y-7553650D01*
X12112500Y-8687800D02*
X12142500Y-8717800D01*
X12142500Y-8687800D02*
X12112500Y-8717800D01*
X13750000Y-8036360D02*
X13780000Y-8066360D01*
X13780000Y-8036360D02*
X13750000Y-8066360D01*
X13806700Y-6334780D02*
X13836700Y-6364780D01*
X13836700Y-6334780D02*
X13806700Y-6364780D01*
X13846960Y-9873050D02*
X13876960Y-9903050D01*
X13876960Y-9873050D02*
X13846960Y-9903050D01*
X13877380Y-8392550D02*
X13907380Y-8422550D01*
X13907380Y-8392550D02*
X13877380Y-8422550D01*
X13878160Y-6837970D02*
X13908160Y-6867970D01*
X13908160Y-6837970D02*
X13878160Y-6867970D01*
X13912500Y-5124470D02*
X13942500Y-5154470D01*
X13942500Y-5124470D02*
X13912500Y-5154470D01*
X14688270Y-11036350D02*
X14718270Y-11066350D01*
X14718270Y-11036350D02*
X14688270Y-11066350D01*
X15271080Y-5359250D02*
X15301080Y-5389250D01*
X15301080Y-5359250D02*
X15271080Y-5389250D01*
X15285210Y-12310890D02*
X15315210Y-12340890D01*
X15315210Y-12310890D02*
X15285210Y-12340890D01*
X15543390Y-6547970D02*
X15573390Y-6577970D01*
X15573390Y-6547970D02*
X15543390Y-6577970D01*
X15543390Y-6931530D02*
X15573390Y-6961530D01*
X15573390Y-6931530D02*
X15543390Y-6961530D01*
X15645550Y-10070550D02*
X15675550Y-10100550D01*
X15675550Y-10070550D02*
X15645550Y-10100550D01*
X15647650Y-8332250D02*
X15677650Y-8362250D01*
X15677650Y-8332250D02*
X15647650Y-8362250D01*
X15673390Y-7738380D02*
X15703390Y-7768380D01*
X15703390Y-7738380D02*
X15673390Y-7768380D01*
X15712500Y-8687800D02*
X15742500Y-8717800D01*
X15742500Y-8687800D02*
X15712500Y-8717800D01*
X17114880Y-12493510D02*
X17144880Y-12523510D01*
X17144880Y-12493510D02*
X17114880Y-12523510D01*
X17253600Y-6912050D02*
X17283600Y-6942050D01*
X17283600Y-6912050D02*
X17253600Y-6942050D01*
X17254270Y-10268670D02*
X17284270Y-10298670D01*
X17284270Y-10268670D02*
X17254270Y-10298670D01*
X17254520Y-8586550D02*
X17284520Y-8616550D01*
X17284520Y-8586550D02*
X17254520Y-8616550D01*
X17474340Y-8709720D02*
X17504340Y-8739720D01*
X17504340Y-8709720D02*
X17474340Y-8739720D01*
X17484670Y-11265080D02*
X17514670Y-11295080D01*
X17514670Y-11265080D02*
X17484670Y-11295080D01*
X17601910Y-7215370D02*
X17631910Y-7245370D01*
X17631910Y-7215370D02*
X17601910Y-7245370D01*
X17672670Y-5572330D02*
X17702670Y-5602330D01*
X17702670Y-5572330D02*
X17672670Y-5602330D01*
X17677950Y-7140690D02*
X17707950Y-7170690D01*
X17707950Y-7140690D02*
X17677950Y-7170690D01*
X18199150Y-8351030D02*
X18229150Y-8381030D01*
X18229150Y-8351030D02*
X18199150Y-8381030D01*
X18707700Y-9275310D02*
X18737700Y-9305310D01*
X18737700Y-9275310D02*
X18707700Y-9305310D01*
X18827000Y-6698500D02*
X18857000Y-6728500D01*
X18857000Y-6698500D02*
X18827000Y-6728500D01*
X18847000Y-13430160D02*
X18877000Y-13460160D01*
X18877000Y-13430160D02*
X18847000Y-13460160D01*
X19287270Y-9993640D02*
X19317270Y-10023640D01*
X19317270Y-9993640D02*
X19287270Y-10023640D01*
X19300180Y-10091650D02*
X19330180Y-10121650D01*
X19330180Y-10091650D02*
X19300180Y-10121650D01*
X19304450Y-7446850D02*
X19334450Y-7476850D01*
X19334450Y-7446850D02*
X19304450Y-7476850D01*
X19364620Y-7646370D02*
X19394620Y-7676370D01*
X19394620Y-7646370D02*
X19364620Y-7676370D01*
X19449210Y-11932440D02*
X19479210Y-11962440D01*
X19479210Y-11932440D02*
X19449210Y-11962440D01*
X19566600Y-10814700D02*
X19596600Y-10844700D01*
X19596600Y-10814700D02*
X19566600Y-10844700D01*
X19575590Y-10158920D02*
X19605590Y-10188920D01*
X19605590Y-10158920D02*
X19575590Y-10188920D01*
X19681320Y-9273830D02*
X19711320Y-9303830D01*
X19711320Y-9273830D02*
X19681320Y-9303830D01*
X19892580Y-9922500D02*
X19922580Y-9952500D01*
X19922580Y-9922500D02*
X19892580Y-9952500D01*
X19902990Y-9622500D02*
X19932990Y-9652500D01*
X19932990Y-9622500D02*
X19902990Y-9652500D01*
X18980000Y-6317000D02*
G75*
G02*
X18940000Y-6317000I-20000J0D01*
G01*
X18940000Y-6317000D02*
G75*
G02*
X18980000Y-6317000I20000J0D01*
G01*
X18980000Y-6571000D02*
G75*
G02*
X18940000Y-6571000I-20000J0D01*
G01*
X18940000Y-6571000D02*
G75*
G02*
X18980000Y-6571000I20000J0D01*
G01*
X18980000Y-6825000D02*
G75*
G02*
X18940000Y-6825000I-20000J0D01*
G01*
X18940000Y-6825000D02*
G75*
G02*
X18980000Y-6825000I20000J0D01*
G01*
X18980000Y-7079000D02*
G75*
G02*
X18940000Y-7079000I-20000J0D01*
G01*
X18940000Y-7079000D02*
G75*
G02*
X18980000Y-7079000I20000J0D01*
G01*
X18980000Y-7333000D02*
G75*
G02*
X18940000Y-7333000I-20000J0D01*
G01*
X18940000Y-7333000D02*
G75*
G02*
X18980000Y-7333000I20000J0D01*
G01*
X18980000Y-7587000D02*
G75*
G02*
X18940000Y-7587000I-20000J0D01*
G01*
X18940000Y-7587000D02*
G75*
G02*
X18980000Y-7587000I20000J0D01*
G01*
X18980000Y-7841000D02*
G75*
G02*
X18940000Y-7841000I-20000J0D01*
G01*
X18940000Y-7841000D02*
G75*
G02*
X18980000Y-7841000I20000J0D01*
G01*
X18980000Y-8095000D02*
G75*
G02*
X18940000Y-8095000I-20000J0D01*
G01*
X18940000Y-8095000D02*
G75*
G02*
X18980000Y-8095000I20000J0D01*
G01*
X18980000Y-8349000D02*
G75*
G02*
X18940000Y-8349000I-20000J0D01*
G01*
X18940000Y-8349000D02*
G75*
G02*
X18980000Y-8349000I20000J0D01*
G01*
X18980000Y-8603000D02*
G75*
G02*
X18940000Y-8603000I-20000J0D01*
G01*
X18940000Y-8603000D02*
G75*
G02*
X18980000Y-8603000I20000J0D01*
G01*
X18980000Y-8857000D02*
G75*
G02*
X18940000Y-8857000I-20000J0D01*
G01*
X18940000Y-8857000D02*
G75*
G02*
X18980000Y-8857000I20000J0D01*
G01*
X18980000Y-9111000D02*
G75*
G02*
X18940000Y-9111000I-20000J0D01*
G01*
X18940000Y-9111000D02*
G75*
G02*
X18980000Y-9111000I20000J0D01*
G01*
X19660000Y-6317000D02*
G75*
G02*
X19620000Y-6317000I-20000J0D01*
G01*
X19620000Y-6317000D02*
G75*
G02*
X19660000Y-6317000I20000J0D01*
G01*
X19660000Y-6571000D02*
G75*
G02*
X19620000Y-6571000I-20000J0D01*
G01*
X19620000Y-6571000D02*
G75*
G02*
X19660000Y-6571000I20000J0D01*
G01*
X19660000Y-6825000D02*
G75*
G02*
X19620000Y-6825000I-20000J0D01*
G01*
X19620000Y-6825000D02*
G75*
G02*
X19660000Y-6825000I20000J0D01*
G01*
X19660000Y-7079000D02*
G75*
G02*
X19620000Y-7079000I-20000J0D01*
G01*
X19620000Y-7079000D02*
G75*
G02*
X19660000Y-7079000I20000J0D01*
G01*
X19660000Y-7333000D02*
G75*
G02*
X19620000Y-7333000I-20000J0D01*
G01*
X19620000Y-7333000D02*
G75*
G02*
X19660000Y-7333000I20000J0D01*
G01*
X19660000Y-7587000D02*
G75*
G02*
X19620000Y-7587000I-20000J0D01*
G01*
X19620000Y-7587000D02*
G75*
G02*
X19660000Y-7587000I20000J0D01*
G01*
X19660000Y-7841000D02*
G75*
G02*
X19620000Y-7841000I-20000J0D01*
G01*
X19620000Y-7841000D02*
G75*
G02*
X19660000Y-7841000I20000J0D01*
G01*
X19660000Y-8095000D02*
G75*
G02*
X19620000Y-8095000I-20000J0D01*
G01*
X19620000Y-8095000D02*
G75*
G02*
X19660000Y-8095000I20000J0D01*
G01*
X19660000Y-8349000D02*
G75*
G02*
X19620000Y-8349000I-20000J0D01*
G01*
X19620000Y-8349000D02*
G75*
G02*
X19660000Y-8349000I20000J0D01*
G01*
X19660000Y-8603000D02*
G75*
G02*
X19620000Y-8603000I-20000J0D01*
G01*
X19620000Y-8603000D02*
G75*
G02*
X19660000Y-8603000I20000J0D01*
G01*
X19660000Y-8857000D02*
G75*
G02*
X19620000Y-8857000I-20000J0D01*
G01*
X19620000Y-8857000D02*
G75*
G02*
X19660000Y-8857000I20000J0D01*
G01*
X19660000Y-9111000D02*
G75*
G02*
X19620000Y-9111000I-20000J0D01*
G01*
X19620000Y-9111000D02*
G75*
G02*
X19660000Y-9111000I20000J0D01*
G01*
X19300000Y-10437500D02*
X19300000Y-10512500D01*
X19262500Y-10475000D02*
X19337500Y-10475000D01*
X19300000Y-10637500D02*
X19300000Y-10712500D01*
X19262500Y-10675000D02*
X19337500Y-10675000D01*
X18573356Y-6352356D02*
X18573356Y-6281644D01*
X18502644Y-6281644D01*
X18502644Y-6352356D01*
X18573356Y-6352356D01*
X18573356Y-6606356D02*
X18573356Y-6535644D01*
X18502644Y-6535644D01*
X18502644Y-6606356D01*
X18573356Y-6606356D01*
X18573356Y-6860356D02*
X18573356Y-6789644D01*
X18502644Y-6789644D01*
X18502644Y-6860356D01*
X18573356Y-6860356D01*
X18573356Y-7114356D02*
X18573356Y-7043644D01*
X18502644Y-7043644D01*
X18502644Y-7114356D01*
X18573356Y-7114356D01*
X18573356Y-7368356D02*
X18573356Y-7297644D01*
X18502644Y-7297644D01*
X18502644Y-7368356D01*
X18573356Y-7368356D01*
X18573356Y-7622356D02*
X18573356Y-7551644D01*
X18502644Y-7551644D01*
X18502644Y-7622356D01*
X18573356Y-7622356D01*
X18573356Y-7876356D02*
X18573356Y-7805644D01*
X18502644Y-7805644D01*
X18502644Y-7876356D01*
X18573356Y-7876356D01*
X18573356Y-8130356D02*
X18573356Y-8059644D01*
X18502644Y-8059644D01*
X18502644Y-8130356D01*
X18573356Y-8130356D01*
X18573356Y-8384356D02*
X18573356Y-8313644D01*
X18502644Y-8313644D01*
X18502644Y-8384356D01*
X18573356Y-8384356D01*
X18573356Y-8638356D02*
X18573356Y-8567644D01*
X18502644Y-8567644D01*
X18502644Y-8638356D01*
X18573356Y-8638356D01*
X18573356Y-8892356D02*
X18573356Y-8821644D01*
X18502644Y-8821644D01*
X18502644Y-8892356D01*
X18573356Y-8892356D01*
X18573356Y-9146356D02*
X18573356Y-9075644D01*
X18502644Y-9075644D01*
X18502644Y-9146356D01*
X18573356Y-9146356D01*
X18954356Y-9855356D02*
X18954356Y-9784644D01*
X18883644Y-9784644D01*
X18883644Y-9855356D01*
X18954356Y-9855356D01*
X19208356Y-9855356D02*
X19208356Y-9784644D01*
X19137644Y-9784644D01*
X19137644Y-9855356D01*
X19208356Y-9855356D01*
X19462356Y-9855356D02*
X19462356Y-9784644D01*
X19391644Y-9784644D01*
X19391644Y-9855356D01*
X19462356Y-9855356D01*
X19716356Y-9855356D02*
X19716356Y-9784644D01*
X19645644Y-9784644D01*
X19645644Y-9855356D01*
X19716356Y-9855356D01*
X20097356Y-6352356D02*
X20097356Y-6281644D01*
X20026644Y-6281644D01*
X20026644Y-6352356D01*
X20097356Y-6352356D01*
X20097356Y-6606356D02*
X20097356Y-6535644D01*
X20026644Y-6535644D01*
X20026644Y-6606356D01*
X20097356Y-6606356D01*
X20097356Y-6860356D02*
X20097356Y-6789644D01*
X20026644Y-6789644D01*
X20026644Y-6860356D01*
X20097356Y-6860356D01*
X20097356Y-7114356D02*
X20097356Y-7043644D01*
X20026644Y-7043644D01*
X20026644Y-7114356D01*
X20097356Y-7114356D01*
X20097356Y-7368356D02*
X20097356Y-7297644D01*
X20026644Y-7297644D01*
X20026644Y-7368356D01*
X20097356Y-7368356D01*
X20097356Y-7622356D02*
X20097356Y-7551644D01*
X20026644Y-7551644D01*
X20026644Y-7622356D01*
X20097356Y-7622356D01*
X20097356Y-7876356D02*
X20097356Y-7805644D01*
X20026644Y-7805644D01*
X20026644Y-7876356D01*
X20097356Y-7876356D01*
X20097356Y-8130356D02*
X20097356Y-8059644D01*
X20026644Y-8059644D01*
X20026644Y-8130356D01*
X20097356Y-8130356D01*
X20097356Y-8384356D02*
X20097356Y-8313644D01*
X20026644Y-8313644D01*
X20026644Y-8384356D01*
X20097356Y-8384356D01*
X20097356Y-8638356D02*
X20097356Y-8567644D01*
X20026644Y-8567644D01*
X20026644Y-8638356D01*
X20097356Y-8638356D01*
X20097356Y-8892356D02*
X20097356Y-8821644D01*
X20026644Y-8821644D01*
X20026644Y-8892356D01*
X20097356Y-8892356D01*
X20097356Y-9146356D02*
X20097356Y-9075644D01*
X20026644Y-9075644D01*
X20026644Y-9146356D01*
X20097356Y-9146356D01*
D13*
X20190000Y-10702500D02*
X20255000Y-10637500D01*
X20190000Y-10572500D01*
X20125000Y-10637500D01*
X20190000Y-10702500D01*
X20190000Y-11352500D02*
X20255000Y-11287500D01*
X20190000Y-11222500D01*
X20125000Y-11287500D01*
X20190000Y-11352500D01*
D11*
X9253277Y-14490735D02*
X9253277Y-14290735D01*
X9253277Y-14290735D02*
X9300896Y-14290735D01*
X9300896Y-14290735D02*
X9329467Y-14300259D01*
X9329467Y-14300259D02*
X9348515Y-14319306D01*
X9348515Y-14319306D02*
X9358039Y-14338354D01*
X9358039Y-14338354D02*
X9367563Y-14376449D01*
X9367563Y-14376449D02*
X9367563Y-14405020D01*
X9367563Y-14405020D02*
X9358039Y-14443116D01*
X9358039Y-14443116D02*
X9348515Y-14462163D01*
X9348515Y-14462163D02*
X9329467Y-14481211D01*
X9329467Y-14481211D02*
X9300896Y-14490735D01*
X9300896Y-14490735D02*
X9253277Y-14490735D01*
X9453277Y-14490735D02*
X9453277Y-14357401D01*
X9453277Y-14395497D02*
X9462801Y-14376449D01*
X9462801Y-14376449D02*
X9472324Y-14366925D01*
X9472324Y-14366925D02*
X9491372Y-14357401D01*
X9491372Y-14357401D02*
X9510420Y-14357401D01*
X9577086Y-14490735D02*
X9577086Y-14357401D01*
X9577086Y-14290735D02*
X9567563Y-14300259D01*
X9567563Y-14300259D02*
X9577086Y-14309782D01*
X9577086Y-14309782D02*
X9586610Y-14300259D01*
X9586610Y-14300259D02*
X9577086Y-14290735D01*
X9577086Y-14290735D02*
X9577086Y-14309782D01*
X9700896Y-14490735D02*
X9681848Y-14481211D01*
X9681848Y-14481211D02*
X9672324Y-14462163D01*
X9672324Y-14462163D02*
X9672324Y-14290735D01*
X9805658Y-14490735D02*
X9786610Y-14481211D01*
X9786610Y-14481211D02*
X9777086Y-14462163D01*
X9777086Y-14462163D02*
X9777086Y-14290735D01*
X10034229Y-14490735D02*
X10034229Y-14290735D01*
X10034229Y-14290735D02*
X10100896Y-14433592D01*
X10100896Y-14433592D02*
X10167563Y-14290735D01*
X10167563Y-14290735D02*
X10167563Y-14490735D01*
X10348515Y-14490735D02*
X10348515Y-14385973D01*
X10348515Y-14385973D02*
X10338991Y-14366925D01*
X10338991Y-14366925D02*
X10319944Y-14357401D01*
X10319944Y-14357401D02*
X10281848Y-14357401D01*
X10281848Y-14357401D02*
X10262801Y-14366925D01*
X10348515Y-14481211D02*
X10329467Y-14490735D01*
X10329467Y-14490735D02*
X10281848Y-14490735D01*
X10281848Y-14490735D02*
X10262801Y-14481211D01*
X10262801Y-14481211D02*
X10253277Y-14462163D01*
X10253277Y-14462163D02*
X10253277Y-14443116D01*
X10253277Y-14443116D02*
X10262801Y-14424068D01*
X10262801Y-14424068D02*
X10281848Y-14414544D01*
X10281848Y-14414544D02*
X10329467Y-14414544D01*
X10329467Y-14414544D02*
X10348515Y-14405020D01*
X10443753Y-14357401D02*
X10443753Y-14557401D01*
X10443753Y-14366925D02*
X10462801Y-14357401D01*
X10462801Y-14357401D02*
X10500896Y-14357401D01*
X10500896Y-14357401D02*
X10519944Y-14366925D01*
X10519944Y-14366925D02*
X10529467Y-14376449D01*
X10529467Y-14376449D02*
X10538991Y-14395497D01*
X10538991Y-14395497D02*
X10538991Y-14452639D01*
X10538991Y-14452639D02*
X10529467Y-14471687D01*
X10529467Y-14471687D02*
X10519944Y-14481211D01*
X10519944Y-14481211D02*
X10500896Y-14490735D01*
X10500896Y-14490735D02*
X10462801Y-14490735D01*
X10462801Y-14490735D02*
X10443753Y-14481211D01*
X10624705Y-14471687D02*
X10634229Y-14481211D01*
X10634229Y-14481211D02*
X10624705Y-14490735D01*
X10624705Y-14490735D02*
X10615182Y-14481211D01*
X10615182Y-14481211D02*
X10624705Y-14471687D01*
X10624705Y-14471687D02*
X10624705Y-14490735D01*
X10624705Y-14366925D02*
X10634229Y-14376449D01*
X10634229Y-14376449D02*
X10624705Y-14385973D01*
X10624705Y-14385973D02*
X10615182Y-14376449D01*
X10615182Y-14376449D02*
X10624705Y-14366925D01*
X10624705Y-14366925D02*
X10624705Y-14385973D01*
D12*
X8962500Y-14804251D02*
X8992500Y-14834251D01*
X8992500Y-14804251D02*
X8962500Y-14834251D01*
D11*
X9291372Y-14710735D02*
X9310420Y-14710735D01*
X9310420Y-14710735D02*
X9329467Y-14720259D01*
X9329467Y-14720259D02*
X9338991Y-14729782D01*
X9338991Y-14729782D02*
X9348515Y-14748830D01*
X9348515Y-14748830D02*
X9358039Y-14786925D01*
X9358039Y-14786925D02*
X9358039Y-14834544D01*
X9358039Y-14834544D02*
X9348515Y-14872639D01*
X9348515Y-14872639D02*
X9338991Y-14891687D01*
X9338991Y-14891687D02*
X9329467Y-14901211D01*
X9329467Y-14901211D02*
X9310420Y-14910735D01*
X9310420Y-14910735D02*
X9291372Y-14910735D01*
X9291372Y-14910735D02*
X9272324Y-14901211D01*
X9272324Y-14901211D02*
X9262801Y-14891687D01*
X9262801Y-14891687D02*
X9253277Y-14872639D01*
X9253277Y-14872639D02*
X9243753Y-14834544D01*
X9243753Y-14834544D02*
X9243753Y-14786925D01*
X9243753Y-14786925D02*
X9253277Y-14748830D01*
X9253277Y-14748830D02*
X9262801Y-14729782D01*
X9262801Y-14729782D02*
X9272324Y-14720259D01*
X9272324Y-14720259D02*
X9291372Y-14710735D01*
X9443753Y-14891687D02*
X9453277Y-14901211D01*
X9453277Y-14901211D02*
X9443753Y-14910735D01*
X9443753Y-14910735D02*
X9434229Y-14901211D01*
X9434229Y-14901211D02*
X9443753Y-14891687D01*
X9443753Y-14891687D02*
X9443753Y-14910735D01*
X9519944Y-14710735D02*
X9643753Y-14710735D01*
X9643753Y-14710735D02*
X9577086Y-14786925D01*
X9577086Y-14786925D02*
X9605658Y-14786925D01*
X9605658Y-14786925D02*
X9624705Y-14796449D01*
X9624705Y-14796449D02*
X9634229Y-14805973D01*
X9634229Y-14805973D02*
X9643753Y-14825020D01*
X9643753Y-14825020D02*
X9643753Y-14872639D01*
X9643753Y-14872639D02*
X9634229Y-14891687D01*
X9634229Y-14891687D02*
X9624705Y-14901211D01*
X9624705Y-14901211D02*
X9605658Y-14910735D01*
X9605658Y-14910735D02*
X9548515Y-14910735D01*
X9548515Y-14910735D02*
X9529467Y-14901211D01*
X9529467Y-14901211D02*
X9519944Y-14891687D01*
X9767563Y-14710735D02*
X9786610Y-14710735D01*
X9786610Y-14710735D02*
X9805658Y-14720259D01*
X9805658Y-14720259D02*
X9815182Y-14729782D01*
X9815182Y-14729782D02*
X9824705Y-14748830D01*
X9824705Y-14748830D02*
X9834229Y-14786925D01*
X9834229Y-14786925D02*
X9834229Y-14834544D01*
X9834229Y-14834544D02*
X9824705Y-14872639D01*
X9824705Y-14872639D02*
X9815182Y-14891687D01*
X9815182Y-14891687D02*
X9805658Y-14901211D01*
X9805658Y-14901211D02*
X9786610Y-14910735D01*
X9786610Y-14910735D02*
X9767563Y-14910735D01*
X9767563Y-14910735D02*
X9748515Y-14901211D01*
X9748515Y-14901211D02*
X9738991Y-14891687D01*
X9738991Y-14891687D02*
X9729467Y-14872639D01*
X9729467Y-14872639D02*
X9719944Y-14834544D01*
X9719944Y-14834544D02*
X9719944Y-14786925D01*
X9719944Y-14786925D02*
X9729467Y-14748830D01*
X9729467Y-14748830D02*
X9738991Y-14729782D01*
X9738991Y-14729782D02*
X9748515Y-14720259D01*
X9748515Y-14720259D02*
X9767563Y-14710735D01*
X9958039Y-14710735D02*
X9977086Y-14710735D01*
X9977086Y-14710735D02*
X9996134Y-14720259D01*
X9996134Y-14720259D02*
X10005658Y-14729782D01*
X10005658Y-14729782D02*
X10015182Y-14748830D01*
X10015182Y-14748830D02*
X10024705Y-14786925D01*
X10024705Y-14786925D02*
X10024705Y-14834544D01*
X10024705Y-14834544D02*
X10015182Y-14872639D01*
X10015182Y-14872639D02*
X10005658Y-14891687D01*
X10005658Y-14891687D02*
X9996134Y-14901211D01*
X9996134Y-14901211D02*
X9977086Y-14910735D01*
X9977086Y-14910735D02*
X9958039Y-14910735D01*
X9958039Y-14910735D02*
X9938991Y-14901211D01*
X9938991Y-14901211D02*
X9929467Y-14891687D01*
X9929467Y-14891687D02*
X9919944Y-14872639D01*
X9919944Y-14872639D02*
X9910420Y-14834544D01*
X9910420Y-14834544D02*
X9910420Y-14786925D01*
X9910420Y-14786925D02*
X9919944Y-14748830D01*
X9919944Y-14748830D02*
X9929467Y-14729782D01*
X9929467Y-14729782D02*
X9938991Y-14720259D01*
X9938991Y-14720259D02*
X9958039Y-14710735D01*
X10110420Y-14910735D02*
X10110420Y-14777401D01*
X10110420Y-14796449D02*
X10119944Y-14786925D01*
X10119944Y-14786925D02*
X10138991Y-14777401D01*
X10138991Y-14777401D02*
X10167563Y-14777401D01*
X10167563Y-14777401D02*
X10186610Y-14786925D01*
X10186610Y-14786925D02*
X10196134Y-14805973D01*
X10196134Y-14805973D02*
X10196134Y-14910735D01*
X10196134Y-14805973D02*
X10205658Y-14786925D01*
X10205658Y-14786925D02*
X10224705Y-14777401D01*
X10224705Y-14777401D02*
X10253277Y-14777401D01*
X10253277Y-14777401D02*
X10272325Y-14786925D01*
X10272325Y-14786925D02*
X10281848Y-14805973D01*
X10281848Y-14805973D02*
X10281848Y-14910735D01*
X10377086Y-14910735D02*
X10377086Y-14777401D01*
X10377086Y-14796449D02*
X10386610Y-14786925D01*
X10386610Y-14786925D02*
X10405658Y-14777401D01*
X10405658Y-14777401D02*
X10434229Y-14777401D01*
X10434229Y-14777401D02*
X10453277Y-14786925D01*
X10453277Y-14786925D02*
X10462801Y-14805973D01*
X10462801Y-14805973D02*
X10462801Y-14910735D01*
X10462801Y-14805973D02*
X10472325Y-14786925D01*
X10472325Y-14786925D02*
X10491372Y-14777401D01*
X10491372Y-14777401D02*
X10519944Y-14777401D01*
X10519944Y-14777401D02*
X10538991Y-14786925D01*
X10538991Y-14786925D02*
X10548515Y-14805973D01*
X10548515Y-14805973D02*
X10548515Y-14910735D01*
X10938991Y-14701211D02*
X10767563Y-14958354D01*
X11196134Y-14710735D02*
X11215182Y-14710735D01*
X11215182Y-14710735D02*
X11234229Y-14720259D01*
X11234229Y-14720259D02*
X11243753Y-14729782D01*
X11243753Y-14729782D02*
X11253277Y-14748830D01*
X11253277Y-14748830D02*
X11262801Y-14786925D01*
X11262801Y-14786925D02*
X11262801Y-14834544D01*
X11262801Y-14834544D02*
X11253277Y-14872639D01*
X11253277Y-14872639D02*
X11243753Y-14891687D01*
X11243753Y-14891687D02*
X11234229Y-14901211D01*
X11234229Y-14901211D02*
X11215182Y-14910735D01*
X11215182Y-14910735D02*
X11196134Y-14910735D01*
X11196134Y-14910735D02*
X11177087Y-14901211D01*
X11177087Y-14901211D02*
X11167563Y-14891687D01*
X11167563Y-14891687D02*
X11158039Y-14872639D01*
X11158039Y-14872639D02*
X11148515Y-14834544D01*
X11148515Y-14834544D02*
X11148515Y-14786925D01*
X11148515Y-14786925D02*
X11158039Y-14748830D01*
X11158039Y-14748830D02*
X11167563Y-14729782D01*
X11167563Y-14729782D02*
X11177087Y-14720259D01*
X11177087Y-14720259D02*
X11196134Y-14710735D01*
X11348515Y-14891687D02*
X11358039Y-14901211D01*
X11358039Y-14901211D02*
X11348515Y-14910735D01*
X11348515Y-14910735D02*
X11338991Y-14901211D01*
X11338991Y-14901211D02*
X11348515Y-14891687D01*
X11348515Y-14891687D02*
X11348515Y-14910735D01*
X11481848Y-14710735D02*
X11500896Y-14710735D01*
X11500896Y-14710735D02*
X11519944Y-14720259D01*
X11519944Y-14720259D02*
X11529467Y-14729782D01*
X11529467Y-14729782D02*
X11538991Y-14748830D01*
X11538991Y-14748830D02*
X11548515Y-14786925D01*
X11548515Y-14786925D02*
X11548515Y-14834544D01*
X11548515Y-14834544D02*
X11538991Y-14872639D01*
X11538991Y-14872639D02*
X11529467Y-14891687D01*
X11529467Y-14891687D02*
X11519944Y-14901211D01*
X11519944Y-14901211D02*
X11500896Y-14910735D01*
X11500896Y-14910735D02*
X11481848Y-14910735D01*
X11481848Y-14910735D02*
X11462801Y-14901211D01*
X11462801Y-14901211D02*
X11453277Y-14891687D01*
X11453277Y-14891687D02*
X11443753Y-14872639D01*
X11443753Y-14872639D02*
X11434229Y-14834544D01*
X11434229Y-14834544D02*
X11434229Y-14786925D01*
X11434229Y-14786925D02*
X11443753Y-14748830D01*
X11443753Y-14748830D02*
X11453277Y-14729782D01*
X11453277Y-14729782D02*
X11462801Y-14720259D01*
X11462801Y-14720259D02*
X11481848Y-14710735D01*
X11738991Y-14910735D02*
X11624706Y-14910735D01*
X11681848Y-14910735D02*
X11681848Y-14710735D01*
X11681848Y-14710735D02*
X11662801Y-14739306D01*
X11662801Y-14739306D02*
X11643753Y-14758354D01*
X11643753Y-14758354D02*
X11624706Y-14767878D01*
X11929467Y-14910735D02*
X11815182Y-14910735D01*
X11872325Y-14910735D02*
X11872325Y-14710735D01*
X11872325Y-14710735D02*
X11853277Y-14739306D01*
X11853277Y-14739306D02*
X11834229Y-14758354D01*
X11834229Y-14758354D02*
X11815182Y-14767878D01*
X12043753Y-14796449D02*
X12024706Y-14786925D01*
X12024706Y-14786925D02*
X12015182Y-14777401D01*
X12015182Y-14777401D02*
X12005658Y-14758354D01*
X12005658Y-14758354D02*
X12005658Y-14748830D01*
X12005658Y-14748830D02*
X12015182Y-14729782D01*
X12015182Y-14729782D02*
X12024706Y-14720259D01*
X12024706Y-14720259D02*
X12043753Y-14710735D01*
X12043753Y-14710735D02*
X12081848Y-14710735D01*
X12081848Y-14710735D02*
X12100896Y-14720259D01*
X12100896Y-14720259D02*
X12110420Y-14729782D01*
X12110420Y-14729782D02*
X12119944Y-14748830D01*
X12119944Y-14748830D02*
X12119944Y-14758354D01*
X12119944Y-14758354D02*
X12110420Y-14777401D01*
X12110420Y-14777401D02*
X12100896Y-14786925D01*
X12100896Y-14786925D02*
X12081848Y-14796449D01*
X12081848Y-14796449D02*
X12043753Y-14796449D01*
X12043753Y-14796449D02*
X12024706Y-14805973D01*
X12024706Y-14805973D02*
X12015182Y-14815497D01*
X12015182Y-14815497D02*
X12005658Y-14834544D01*
X12005658Y-14834544D02*
X12005658Y-14872639D01*
X12005658Y-14872639D02*
X12015182Y-14891687D01*
X12015182Y-14891687D02*
X12024706Y-14901211D01*
X12024706Y-14901211D02*
X12043753Y-14910735D01*
X12043753Y-14910735D02*
X12081848Y-14910735D01*
X12081848Y-14910735D02*
X12100896Y-14901211D01*
X12100896Y-14901211D02*
X12110420Y-14891687D01*
X12110420Y-14891687D02*
X12119944Y-14872639D01*
X12119944Y-14872639D02*
X12119944Y-14834544D01*
X12119944Y-14834544D02*
X12110420Y-14815497D01*
X12110420Y-14815497D02*
X12100896Y-14805973D01*
X12100896Y-14805973D02*
X12081848Y-14796449D01*
X12196134Y-14710735D02*
X12196134Y-14748830D01*
X12272325Y-14710735D02*
X12272325Y-14748830D01*
X12567563Y-14986925D02*
X12558039Y-14977401D01*
X12558039Y-14977401D02*
X12538991Y-14948830D01*
X12538991Y-14948830D02*
X12529468Y-14929782D01*
X12529468Y-14929782D02*
X12519944Y-14901211D01*
X12519944Y-14901211D02*
X12510420Y-14853592D01*
X12510420Y-14853592D02*
X12510420Y-14815497D01*
X12510420Y-14815497D02*
X12519944Y-14767878D01*
X12519944Y-14767878D02*
X12529468Y-14739306D01*
X12529468Y-14739306D02*
X12538991Y-14720259D01*
X12538991Y-14720259D02*
X12558039Y-14691687D01*
X12558039Y-14691687D02*
X12567563Y-14682163D01*
X12729468Y-14777401D02*
X12729468Y-14910735D01*
X12681848Y-14701211D02*
X12634229Y-14844068D01*
X12634229Y-14844068D02*
X12758039Y-14844068D01*
X12843753Y-14910735D02*
X12881848Y-14910735D01*
X12881848Y-14910735D02*
X12900896Y-14901211D01*
X12900896Y-14901211D02*
X12910420Y-14891687D01*
X12910420Y-14891687D02*
X12929468Y-14863116D01*
X12929468Y-14863116D02*
X12938991Y-14825020D01*
X12938991Y-14825020D02*
X12938991Y-14748830D01*
X12938991Y-14748830D02*
X12929468Y-14729782D01*
X12929468Y-14729782D02*
X12919944Y-14720259D01*
X12919944Y-14720259D02*
X12900896Y-14710735D01*
X12900896Y-14710735D02*
X12862801Y-14710735D01*
X12862801Y-14710735D02*
X12843753Y-14720259D01*
X12843753Y-14720259D02*
X12834229Y-14729782D01*
X12834229Y-14729782D02*
X12824706Y-14748830D01*
X12824706Y-14748830D02*
X12824706Y-14796449D01*
X12824706Y-14796449D02*
X12834229Y-14815497D01*
X12834229Y-14815497D02*
X12843753Y-14825020D01*
X12843753Y-14825020D02*
X12862801Y-14834544D01*
X12862801Y-14834544D02*
X12900896Y-14834544D01*
X12900896Y-14834544D02*
X12919944Y-14825020D01*
X12919944Y-14825020D02*
X12929468Y-14815497D01*
X12929468Y-14815497D02*
X12938991Y-14796449D01*
X13177087Y-14910735D02*
X13177087Y-14710735D01*
X13262801Y-14910735D02*
X13262801Y-14805973D01*
X13262801Y-14805973D02*
X13253277Y-14786925D01*
X13253277Y-14786925D02*
X13234230Y-14777401D01*
X13234230Y-14777401D02*
X13205658Y-14777401D01*
X13205658Y-14777401D02*
X13186610Y-14786925D01*
X13186610Y-14786925D02*
X13177087Y-14796449D01*
X13386610Y-14910735D02*
X13367563Y-14901211D01*
X13367563Y-14901211D02*
X13358039Y-14891687D01*
X13358039Y-14891687D02*
X13348515Y-14872639D01*
X13348515Y-14872639D02*
X13348515Y-14815497D01*
X13348515Y-14815497D02*
X13358039Y-14796449D01*
X13358039Y-14796449D02*
X13367563Y-14786925D01*
X13367563Y-14786925D02*
X13386610Y-14777401D01*
X13386610Y-14777401D02*
X13415182Y-14777401D01*
X13415182Y-14777401D02*
X13434230Y-14786925D01*
X13434230Y-14786925D02*
X13443753Y-14796449D01*
X13443753Y-14796449D02*
X13453277Y-14815497D01*
X13453277Y-14815497D02*
X13453277Y-14872639D01*
X13453277Y-14872639D02*
X13443753Y-14891687D01*
X13443753Y-14891687D02*
X13434230Y-14901211D01*
X13434230Y-14901211D02*
X13415182Y-14910735D01*
X13415182Y-14910735D02*
X13386610Y-14910735D01*
X13567563Y-14910735D02*
X13548515Y-14901211D01*
X13548515Y-14901211D02*
X13538991Y-14882163D01*
X13538991Y-14882163D02*
X13538991Y-14710735D01*
X13719944Y-14901211D02*
X13700896Y-14910735D01*
X13700896Y-14910735D02*
X13662801Y-14910735D01*
X13662801Y-14910735D02*
X13643753Y-14901211D01*
X13643753Y-14901211D02*
X13634230Y-14882163D01*
X13634230Y-14882163D02*
X13634230Y-14805973D01*
X13634230Y-14805973D02*
X13643753Y-14786925D01*
X13643753Y-14786925D02*
X13662801Y-14777401D01*
X13662801Y-14777401D02*
X13700896Y-14777401D01*
X13700896Y-14777401D02*
X13719944Y-14786925D01*
X13719944Y-14786925D02*
X13729468Y-14805973D01*
X13729468Y-14805973D02*
X13729468Y-14825020D01*
X13729468Y-14825020D02*
X13634230Y-14844068D01*
X13805658Y-14901211D02*
X13824706Y-14910735D01*
X13824706Y-14910735D02*
X13862801Y-14910735D01*
X13862801Y-14910735D02*
X13881849Y-14901211D01*
X13881849Y-14901211D02*
X13891372Y-14882163D01*
X13891372Y-14882163D02*
X13891372Y-14872639D01*
X13891372Y-14872639D02*
X13881849Y-14853592D01*
X13881849Y-14853592D02*
X13862801Y-14844068D01*
X13862801Y-14844068D02*
X13834230Y-14844068D01*
X13834230Y-14844068D02*
X13815182Y-14834544D01*
X13815182Y-14834544D02*
X13805658Y-14815497D01*
X13805658Y-14815497D02*
X13805658Y-14805973D01*
X13805658Y-14805973D02*
X13815182Y-14786925D01*
X13815182Y-14786925D02*
X13834230Y-14777401D01*
X13834230Y-14777401D02*
X13862801Y-14777401D01*
X13862801Y-14777401D02*
X13881849Y-14786925D01*
X13958039Y-14986925D02*
X13967563Y-14977401D01*
X13967563Y-14977401D02*
X13986611Y-14948830D01*
X13986611Y-14948830D02*
X13996134Y-14929782D01*
X13996134Y-14929782D02*
X14005658Y-14901211D01*
X14005658Y-14901211D02*
X14015182Y-14853592D01*
X14015182Y-14853592D02*
X14015182Y-14815497D01*
X14015182Y-14815497D02*
X14005658Y-14767878D01*
X14005658Y-14767878D02*
X13996134Y-14739306D01*
X13996134Y-14739306D02*
X13986611Y-14720259D01*
X13986611Y-14720259D02*
X13967563Y-14691687D01*
X13967563Y-14691687D02*
X13958039Y-14682163D01*
D12*
X8992500Y-15083251D02*
G75*
G02*
X8952500Y-15083251I-20000J0D01*
G01*
X8952500Y-15083251D02*
G75*
G02*
X8992500Y-15083251I20000J0D01*
G01*
D11*
X9291372Y-14974735D02*
X9310420Y-14974735D01*
X9310420Y-14974735D02*
X9329467Y-14984259D01*
X9329467Y-14984259D02*
X9338991Y-14993782D01*
X9338991Y-14993782D02*
X9348515Y-15012830D01*
X9348515Y-15012830D02*
X9358039Y-15050925D01*
X9358039Y-15050925D02*
X9358039Y-15098544D01*
X9358039Y-15098544D02*
X9348515Y-15136639D01*
X9348515Y-15136639D02*
X9338991Y-15155687D01*
X9338991Y-15155687D02*
X9329467Y-15165211D01*
X9329467Y-15165211D02*
X9310420Y-15174735D01*
X9310420Y-15174735D02*
X9291372Y-15174735D01*
X9291372Y-15174735D02*
X9272324Y-15165211D01*
X9272324Y-15165211D02*
X9262801Y-15155687D01*
X9262801Y-15155687D02*
X9253277Y-15136639D01*
X9253277Y-15136639D02*
X9243753Y-15098544D01*
X9243753Y-15098544D02*
X9243753Y-15050925D01*
X9243753Y-15050925D02*
X9253277Y-15012830D01*
X9253277Y-15012830D02*
X9262801Y-14993782D01*
X9262801Y-14993782D02*
X9272324Y-14984259D01*
X9272324Y-14984259D02*
X9291372Y-14974735D01*
X9443753Y-15155687D02*
X9453277Y-15165211D01*
X9453277Y-15165211D02*
X9443753Y-15174735D01*
X9443753Y-15174735D02*
X9434229Y-15165211D01*
X9434229Y-15165211D02*
X9443753Y-15155687D01*
X9443753Y-15155687D02*
X9443753Y-15174735D01*
X9624705Y-15041401D02*
X9624705Y-15174735D01*
X9577086Y-14965211D02*
X9529467Y-15108068D01*
X9529467Y-15108068D02*
X9653277Y-15108068D01*
X9767563Y-14974735D02*
X9786610Y-14974735D01*
X9786610Y-14974735D02*
X9805658Y-14984259D01*
X9805658Y-14984259D02*
X9815182Y-14993782D01*
X9815182Y-14993782D02*
X9824705Y-15012830D01*
X9824705Y-15012830D02*
X9834229Y-15050925D01*
X9834229Y-15050925D02*
X9834229Y-15098544D01*
X9834229Y-15098544D02*
X9824705Y-15136639D01*
X9824705Y-15136639D02*
X9815182Y-15155687D01*
X9815182Y-15155687D02*
X9805658Y-15165211D01*
X9805658Y-15165211D02*
X9786610Y-15174735D01*
X9786610Y-15174735D02*
X9767563Y-15174735D01*
X9767563Y-15174735D02*
X9748515Y-15165211D01*
X9748515Y-15165211D02*
X9738991Y-15155687D01*
X9738991Y-15155687D02*
X9729467Y-15136639D01*
X9729467Y-15136639D02*
X9719944Y-15098544D01*
X9719944Y-15098544D02*
X9719944Y-15050925D01*
X9719944Y-15050925D02*
X9729467Y-15012830D01*
X9729467Y-15012830D02*
X9738991Y-14993782D01*
X9738991Y-14993782D02*
X9748515Y-14984259D01*
X9748515Y-14984259D02*
X9767563Y-14974735D01*
X9958039Y-14974735D02*
X9977086Y-14974735D01*
X9977086Y-14974735D02*
X9996134Y-14984259D01*
X9996134Y-14984259D02*
X10005658Y-14993782D01*
X10005658Y-14993782D02*
X10015182Y-15012830D01*
X10015182Y-15012830D02*
X10024705Y-15050925D01*
X10024705Y-15050925D02*
X10024705Y-15098544D01*
X10024705Y-15098544D02*
X10015182Y-15136639D01*
X10015182Y-15136639D02*
X10005658Y-15155687D01*
X10005658Y-15155687D02*
X9996134Y-15165211D01*
X9996134Y-15165211D02*
X9977086Y-15174735D01*
X9977086Y-15174735D02*
X9958039Y-15174735D01*
X9958039Y-15174735D02*
X9938991Y-15165211D01*
X9938991Y-15165211D02*
X9929467Y-15155687D01*
X9929467Y-15155687D02*
X9919944Y-15136639D01*
X9919944Y-15136639D02*
X9910420Y-15098544D01*
X9910420Y-15098544D02*
X9910420Y-15050925D01*
X9910420Y-15050925D02*
X9919944Y-15012830D01*
X9919944Y-15012830D02*
X9929467Y-14993782D01*
X9929467Y-14993782D02*
X9938991Y-14984259D01*
X9938991Y-14984259D02*
X9958039Y-14974735D01*
X10110420Y-15174735D02*
X10110420Y-15041401D01*
X10110420Y-15060449D02*
X10119944Y-15050925D01*
X10119944Y-15050925D02*
X10138991Y-15041401D01*
X10138991Y-15041401D02*
X10167563Y-15041401D01*
X10167563Y-15041401D02*
X10186610Y-15050925D01*
X10186610Y-15050925D02*
X10196134Y-15069973D01*
X10196134Y-15069973D02*
X10196134Y-15174735D01*
X10196134Y-15069973D02*
X10205658Y-15050925D01*
X10205658Y-15050925D02*
X10224705Y-15041401D01*
X10224705Y-15041401D02*
X10253277Y-15041401D01*
X10253277Y-15041401D02*
X10272325Y-15050925D01*
X10272325Y-15050925D02*
X10281848Y-15069973D01*
X10281848Y-15069973D02*
X10281848Y-15174735D01*
X10377086Y-15174735D02*
X10377086Y-15041401D01*
X10377086Y-15060449D02*
X10386610Y-15050925D01*
X10386610Y-15050925D02*
X10405658Y-15041401D01*
X10405658Y-15041401D02*
X10434229Y-15041401D01*
X10434229Y-15041401D02*
X10453277Y-15050925D01*
X10453277Y-15050925D02*
X10462801Y-15069973D01*
X10462801Y-15069973D02*
X10462801Y-15174735D01*
X10462801Y-15069973D02*
X10472325Y-15050925D01*
X10472325Y-15050925D02*
X10491372Y-15041401D01*
X10491372Y-15041401D02*
X10519944Y-15041401D01*
X10519944Y-15041401D02*
X10538991Y-15050925D01*
X10538991Y-15050925D02*
X10548515Y-15069973D01*
X10548515Y-15069973D02*
X10548515Y-15174735D01*
X10938991Y-14965211D02*
X10767563Y-15222354D01*
X11196134Y-14974735D02*
X11215182Y-14974735D01*
X11215182Y-14974735D02*
X11234229Y-14984259D01*
X11234229Y-14984259D02*
X11243753Y-14993782D01*
X11243753Y-14993782D02*
X11253277Y-15012830D01*
X11253277Y-15012830D02*
X11262801Y-15050925D01*
X11262801Y-15050925D02*
X11262801Y-15098544D01*
X11262801Y-15098544D02*
X11253277Y-15136639D01*
X11253277Y-15136639D02*
X11243753Y-15155687D01*
X11243753Y-15155687D02*
X11234229Y-15165211D01*
X11234229Y-15165211D02*
X11215182Y-15174735D01*
X11215182Y-15174735D02*
X11196134Y-15174735D01*
X11196134Y-15174735D02*
X11177087Y-15165211D01*
X11177087Y-15165211D02*
X11167563Y-15155687D01*
X11167563Y-15155687D02*
X11158039Y-15136639D01*
X11158039Y-15136639D02*
X11148515Y-15098544D01*
X11148515Y-15098544D02*
X11148515Y-15050925D01*
X11148515Y-15050925D02*
X11158039Y-15012830D01*
X11158039Y-15012830D02*
X11167563Y-14993782D01*
X11167563Y-14993782D02*
X11177087Y-14984259D01*
X11177087Y-14984259D02*
X11196134Y-14974735D01*
X11348515Y-15155687D02*
X11358039Y-15165211D01*
X11358039Y-15165211D02*
X11348515Y-15174735D01*
X11348515Y-15174735D02*
X11338991Y-15165211D01*
X11338991Y-15165211D02*
X11348515Y-15155687D01*
X11348515Y-15155687D02*
X11348515Y-15174735D01*
X11481848Y-14974735D02*
X11500896Y-14974735D01*
X11500896Y-14974735D02*
X11519944Y-14984259D01*
X11519944Y-14984259D02*
X11529467Y-14993782D01*
X11529467Y-14993782D02*
X11538991Y-15012830D01*
X11538991Y-15012830D02*
X11548515Y-15050925D01*
X11548515Y-15050925D02*
X11548515Y-15098544D01*
X11548515Y-15098544D02*
X11538991Y-15136639D01*
X11538991Y-15136639D02*
X11529467Y-15155687D01*
X11529467Y-15155687D02*
X11519944Y-15165211D01*
X11519944Y-15165211D02*
X11500896Y-15174735D01*
X11500896Y-15174735D02*
X11481848Y-15174735D01*
X11481848Y-15174735D02*
X11462801Y-15165211D01*
X11462801Y-15165211D02*
X11453277Y-15155687D01*
X11453277Y-15155687D02*
X11443753Y-15136639D01*
X11443753Y-15136639D02*
X11434229Y-15098544D01*
X11434229Y-15098544D02*
X11434229Y-15050925D01*
X11434229Y-15050925D02*
X11443753Y-15012830D01*
X11443753Y-15012830D02*
X11453277Y-14993782D01*
X11453277Y-14993782D02*
X11462801Y-14984259D01*
X11462801Y-14984259D02*
X11481848Y-14974735D01*
X11738991Y-15174735D02*
X11624706Y-15174735D01*
X11681848Y-15174735D02*
X11681848Y-14974735D01*
X11681848Y-14974735D02*
X11662801Y-15003306D01*
X11662801Y-15003306D02*
X11643753Y-15022354D01*
X11643753Y-15022354D02*
X11624706Y-15031878D01*
X11919944Y-14974735D02*
X11824706Y-14974735D01*
X11824706Y-14974735D02*
X11815182Y-15069973D01*
X11815182Y-15069973D02*
X11824706Y-15060449D01*
X11824706Y-15060449D02*
X11843753Y-15050925D01*
X11843753Y-15050925D02*
X11891372Y-15050925D01*
X11891372Y-15050925D02*
X11910420Y-15060449D01*
X11910420Y-15060449D02*
X11919944Y-15069973D01*
X11919944Y-15069973D02*
X11929467Y-15089020D01*
X11929467Y-15089020D02*
X11929467Y-15136639D01*
X11929467Y-15136639D02*
X11919944Y-15155687D01*
X11919944Y-15155687D02*
X11910420Y-15165211D01*
X11910420Y-15165211D02*
X11891372Y-15174735D01*
X11891372Y-15174735D02*
X11843753Y-15174735D01*
X11843753Y-15174735D02*
X11824706Y-15165211D01*
X11824706Y-15165211D02*
X11815182Y-15155687D01*
X11996134Y-14974735D02*
X12129467Y-14974735D01*
X12129467Y-14974735D02*
X12043753Y-15174735D01*
X12196134Y-14974735D02*
X12196134Y-15012830D01*
X12272325Y-14974735D02*
X12272325Y-15012830D01*
X12567563Y-15250925D02*
X12558039Y-15241401D01*
X12558039Y-15241401D02*
X12538991Y-15212830D01*
X12538991Y-15212830D02*
X12529468Y-15193782D01*
X12529468Y-15193782D02*
X12519944Y-15165211D01*
X12519944Y-15165211D02*
X12510420Y-15117592D01*
X12510420Y-15117592D02*
X12510420Y-15079497D01*
X12510420Y-15079497D02*
X12519944Y-15031878D01*
X12519944Y-15031878D02*
X12529468Y-15003306D01*
X12529468Y-15003306D02*
X12538991Y-14984259D01*
X12538991Y-14984259D02*
X12558039Y-14955687D01*
X12558039Y-14955687D02*
X12567563Y-14946163D01*
X12634229Y-14993782D02*
X12643753Y-14984259D01*
X12643753Y-14984259D02*
X12662801Y-14974735D01*
X12662801Y-14974735D02*
X12710420Y-14974735D01*
X12710420Y-14974735D02*
X12729468Y-14984259D01*
X12729468Y-14984259D02*
X12738991Y-14993782D01*
X12738991Y-14993782D02*
X12748515Y-15012830D01*
X12748515Y-15012830D02*
X12748515Y-15031878D01*
X12748515Y-15031878D02*
X12738991Y-15060449D01*
X12738991Y-15060449D02*
X12624706Y-15174735D01*
X12624706Y-15174735D02*
X12748515Y-15174735D01*
X12919944Y-15041401D02*
X12919944Y-15174735D01*
X12872325Y-14965211D02*
X12824706Y-15108068D01*
X12824706Y-15108068D02*
X12948515Y-15108068D01*
X13177087Y-15174735D02*
X13177087Y-14974735D01*
X13262801Y-15174735D02*
X13262801Y-15069973D01*
X13262801Y-15069973D02*
X13253277Y-15050925D01*
X13253277Y-15050925D02*
X13234230Y-15041401D01*
X13234230Y-15041401D02*
X13205658Y-15041401D01*
X13205658Y-15041401D02*
X13186610Y-15050925D01*
X13186610Y-15050925D02*
X13177087Y-15060449D01*
X13386610Y-15174735D02*
X13367563Y-15165211D01*
X13367563Y-15165211D02*
X13358039Y-15155687D01*
X13358039Y-15155687D02*
X13348515Y-15136639D01*
X13348515Y-15136639D02*
X13348515Y-15079497D01*
X13348515Y-15079497D02*
X13358039Y-15060449D01*
X13358039Y-15060449D02*
X13367563Y-15050925D01*
X13367563Y-15050925D02*
X13386610Y-15041401D01*
X13386610Y-15041401D02*
X13415182Y-15041401D01*
X13415182Y-15041401D02*
X13434230Y-15050925D01*
X13434230Y-15050925D02*
X13443753Y-15060449D01*
X13443753Y-15060449D02*
X13453277Y-15079497D01*
X13453277Y-15079497D02*
X13453277Y-15136639D01*
X13453277Y-15136639D02*
X13443753Y-15155687D01*
X13443753Y-15155687D02*
X13434230Y-15165211D01*
X13434230Y-15165211D02*
X13415182Y-15174735D01*
X13415182Y-15174735D02*
X13386610Y-15174735D01*
X13567563Y-15174735D02*
X13548515Y-15165211D01*
X13548515Y-15165211D02*
X13538991Y-15146163D01*
X13538991Y-15146163D02*
X13538991Y-14974735D01*
X13719944Y-15165211D02*
X13700896Y-15174735D01*
X13700896Y-15174735D02*
X13662801Y-15174735D01*
X13662801Y-15174735D02*
X13643753Y-15165211D01*
X13643753Y-15165211D02*
X13634230Y-15146163D01*
X13634230Y-15146163D02*
X13634230Y-15069973D01*
X13634230Y-15069973D02*
X13643753Y-15050925D01*
X13643753Y-15050925D02*
X13662801Y-15041401D01*
X13662801Y-15041401D02*
X13700896Y-15041401D01*
X13700896Y-15041401D02*
X13719944Y-15050925D01*
X13719944Y-15050925D02*
X13729468Y-15069973D01*
X13729468Y-15069973D02*
X13729468Y-15089020D01*
X13729468Y-15089020D02*
X13634230Y-15108068D01*
X13805658Y-15165211D02*
X13824706Y-15174735D01*
X13824706Y-15174735D02*
X13862801Y-15174735D01*
X13862801Y-15174735D02*
X13881849Y-15165211D01*
X13881849Y-15165211D02*
X13891372Y-15146163D01*
X13891372Y-15146163D02*
X13891372Y-15136639D01*
X13891372Y-15136639D02*
X13881849Y-15117592D01*
X13881849Y-15117592D02*
X13862801Y-15108068D01*
X13862801Y-15108068D02*
X13834230Y-15108068D01*
X13834230Y-15108068D02*
X13815182Y-15098544D01*
X13815182Y-15098544D02*
X13805658Y-15079497D01*
X13805658Y-15079497D02*
X13805658Y-15069973D01*
X13805658Y-15069973D02*
X13815182Y-15050925D01*
X13815182Y-15050925D02*
X13834230Y-15041401D01*
X13834230Y-15041401D02*
X13862801Y-15041401D01*
X13862801Y-15041401D02*
X13881849Y-15050925D01*
X13958039Y-15250925D02*
X13967563Y-15241401D01*
X13967563Y-15241401D02*
X13986611Y-15212830D01*
X13986611Y-15212830D02*
X13996134Y-15193782D01*
X13996134Y-15193782D02*
X14005658Y-15165211D01*
X14005658Y-15165211D02*
X14015182Y-15117592D01*
X14015182Y-15117592D02*
X14015182Y-15079497D01*
X14015182Y-15079497D02*
X14005658Y-15031878D01*
X14005658Y-15031878D02*
X13996134Y-15003306D01*
X13996134Y-15003306D02*
X13986611Y-14984259D01*
X13986611Y-14984259D02*
X13967563Y-14955687D01*
X13967563Y-14955687D02*
X13958039Y-14946163D01*
D12*
X8955000Y-15309751D02*
X8955000Y-15384751D01*
X8917500Y-15347251D02*
X8992500Y-15347251D01*
D11*
X9291372Y-15238735D02*
X9310420Y-15238735D01*
X9310420Y-15238735D02*
X9329467Y-15248259D01*
X9329467Y-15248259D02*
X9338991Y-15257782D01*
X9338991Y-15257782D02*
X9348515Y-15276830D01*
X9348515Y-15276830D02*
X9358039Y-15314925D01*
X9358039Y-15314925D02*
X9358039Y-15362544D01*
X9358039Y-15362544D02*
X9348515Y-15400639D01*
X9348515Y-15400639D02*
X9338991Y-15419687D01*
X9338991Y-15419687D02*
X9329467Y-15429211D01*
X9329467Y-15429211D02*
X9310420Y-15438735D01*
X9310420Y-15438735D02*
X9291372Y-15438735D01*
X9291372Y-15438735D02*
X9272324Y-15429211D01*
X9272324Y-15429211D02*
X9262801Y-15419687D01*
X9262801Y-15419687D02*
X9253277Y-15400639D01*
X9253277Y-15400639D02*
X9243753Y-15362544D01*
X9243753Y-15362544D02*
X9243753Y-15314925D01*
X9243753Y-15314925D02*
X9253277Y-15276830D01*
X9253277Y-15276830D02*
X9262801Y-15257782D01*
X9262801Y-15257782D02*
X9272324Y-15248259D01*
X9272324Y-15248259D02*
X9291372Y-15238735D01*
X9443753Y-15419687D02*
X9453277Y-15429211D01*
X9453277Y-15429211D02*
X9443753Y-15438735D01*
X9443753Y-15438735D02*
X9434229Y-15429211D01*
X9434229Y-15429211D02*
X9443753Y-15419687D01*
X9443753Y-15419687D02*
X9443753Y-15438735D01*
X9519944Y-15238735D02*
X9653277Y-15238735D01*
X9653277Y-15238735D02*
X9567563Y-15438735D01*
X9824705Y-15238735D02*
X9729467Y-15238735D01*
X9729467Y-15238735D02*
X9719944Y-15333973D01*
X9719944Y-15333973D02*
X9729467Y-15324449D01*
X9729467Y-15324449D02*
X9748515Y-15314925D01*
X9748515Y-15314925D02*
X9796134Y-15314925D01*
X9796134Y-15314925D02*
X9815182Y-15324449D01*
X9815182Y-15324449D02*
X9824705Y-15333973D01*
X9824705Y-15333973D02*
X9834229Y-15353020D01*
X9834229Y-15353020D02*
X9834229Y-15400639D01*
X9834229Y-15400639D02*
X9824705Y-15419687D01*
X9824705Y-15419687D02*
X9815182Y-15429211D01*
X9815182Y-15429211D02*
X9796134Y-15438735D01*
X9796134Y-15438735D02*
X9748515Y-15438735D01*
X9748515Y-15438735D02*
X9729467Y-15429211D01*
X9729467Y-15429211D02*
X9719944Y-15419687D01*
X9958039Y-15238735D02*
X9977086Y-15238735D01*
X9977086Y-15238735D02*
X9996134Y-15248259D01*
X9996134Y-15248259D02*
X10005658Y-15257782D01*
X10005658Y-15257782D02*
X10015182Y-15276830D01*
X10015182Y-15276830D02*
X10024705Y-15314925D01*
X10024705Y-15314925D02*
X10024705Y-15362544D01*
X10024705Y-15362544D02*
X10015182Y-15400639D01*
X10015182Y-15400639D02*
X10005658Y-15419687D01*
X10005658Y-15419687D02*
X9996134Y-15429211D01*
X9996134Y-15429211D02*
X9977086Y-15438735D01*
X9977086Y-15438735D02*
X9958039Y-15438735D01*
X9958039Y-15438735D02*
X9938991Y-15429211D01*
X9938991Y-15429211D02*
X9929467Y-15419687D01*
X9929467Y-15419687D02*
X9919944Y-15400639D01*
X9919944Y-15400639D02*
X9910420Y-15362544D01*
X9910420Y-15362544D02*
X9910420Y-15314925D01*
X9910420Y-15314925D02*
X9919944Y-15276830D01*
X9919944Y-15276830D02*
X9929467Y-15257782D01*
X9929467Y-15257782D02*
X9938991Y-15248259D01*
X9938991Y-15248259D02*
X9958039Y-15238735D01*
X10110420Y-15438735D02*
X10110420Y-15305401D01*
X10110420Y-15324449D02*
X10119944Y-15314925D01*
X10119944Y-15314925D02*
X10138991Y-15305401D01*
X10138991Y-15305401D02*
X10167563Y-15305401D01*
X10167563Y-15305401D02*
X10186610Y-15314925D01*
X10186610Y-15314925D02*
X10196134Y-15333973D01*
X10196134Y-15333973D02*
X10196134Y-15438735D01*
X10196134Y-15333973D02*
X10205658Y-15314925D01*
X10205658Y-15314925D02*
X10224705Y-15305401D01*
X10224705Y-15305401D02*
X10253277Y-15305401D01*
X10253277Y-15305401D02*
X10272325Y-15314925D01*
X10272325Y-15314925D02*
X10281848Y-15333973D01*
X10281848Y-15333973D02*
X10281848Y-15438735D01*
X10377086Y-15438735D02*
X10377086Y-15305401D01*
X10377086Y-15324449D02*
X10386610Y-15314925D01*
X10386610Y-15314925D02*
X10405658Y-15305401D01*
X10405658Y-15305401D02*
X10434229Y-15305401D01*
X10434229Y-15305401D02*
X10453277Y-15314925D01*
X10453277Y-15314925D02*
X10462801Y-15333973D01*
X10462801Y-15333973D02*
X10462801Y-15438735D01*
X10462801Y-15333973D02*
X10472325Y-15314925D01*
X10472325Y-15314925D02*
X10491372Y-15305401D01*
X10491372Y-15305401D02*
X10519944Y-15305401D01*
X10519944Y-15305401D02*
X10538991Y-15314925D01*
X10538991Y-15314925D02*
X10548515Y-15333973D01*
X10548515Y-15333973D02*
X10548515Y-15438735D01*
X10938991Y-15229211D02*
X10767563Y-15486354D01*
X11196134Y-15238735D02*
X11215182Y-15238735D01*
X11215182Y-15238735D02*
X11234229Y-15248259D01*
X11234229Y-15248259D02*
X11243753Y-15257782D01*
X11243753Y-15257782D02*
X11253277Y-15276830D01*
X11253277Y-15276830D02*
X11262801Y-15314925D01*
X11262801Y-15314925D02*
X11262801Y-15362544D01*
X11262801Y-15362544D02*
X11253277Y-15400639D01*
X11253277Y-15400639D02*
X11243753Y-15419687D01*
X11243753Y-15419687D02*
X11234229Y-15429211D01*
X11234229Y-15429211D02*
X11215182Y-15438735D01*
X11215182Y-15438735D02*
X11196134Y-15438735D01*
X11196134Y-15438735D02*
X11177087Y-15429211D01*
X11177087Y-15429211D02*
X11167563Y-15419687D01*
X11167563Y-15419687D02*
X11158039Y-15400639D01*
X11158039Y-15400639D02*
X11148515Y-15362544D01*
X11148515Y-15362544D02*
X11148515Y-15314925D01*
X11148515Y-15314925D02*
X11158039Y-15276830D01*
X11158039Y-15276830D02*
X11167563Y-15257782D01*
X11167563Y-15257782D02*
X11177087Y-15248259D01*
X11177087Y-15248259D02*
X11196134Y-15238735D01*
X11348515Y-15419687D02*
X11358039Y-15429211D01*
X11358039Y-15429211D02*
X11348515Y-15438735D01*
X11348515Y-15438735D02*
X11338991Y-15429211D01*
X11338991Y-15429211D02*
X11348515Y-15419687D01*
X11348515Y-15419687D02*
X11348515Y-15438735D01*
X11481848Y-15238735D02*
X11500896Y-15238735D01*
X11500896Y-15238735D02*
X11519944Y-15248259D01*
X11519944Y-15248259D02*
X11529467Y-15257782D01*
X11529467Y-15257782D02*
X11538991Y-15276830D01*
X11538991Y-15276830D02*
X11548515Y-15314925D01*
X11548515Y-15314925D02*
X11548515Y-15362544D01*
X11548515Y-15362544D02*
X11538991Y-15400639D01*
X11538991Y-15400639D02*
X11529467Y-15419687D01*
X11529467Y-15419687D02*
X11519944Y-15429211D01*
X11519944Y-15429211D02*
X11500896Y-15438735D01*
X11500896Y-15438735D02*
X11481848Y-15438735D01*
X11481848Y-15438735D02*
X11462801Y-15429211D01*
X11462801Y-15429211D02*
X11453277Y-15419687D01*
X11453277Y-15419687D02*
X11443753Y-15400639D01*
X11443753Y-15400639D02*
X11434229Y-15362544D01*
X11434229Y-15362544D02*
X11434229Y-15314925D01*
X11434229Y-15314925D02*
X11443753Y-15276830D01*
X11443753Y-15276830D02*
X11453277Y-15257782D01*
X11453277Y-15257782D02*
X11462801Y-15248259D01*
X11462801Y-15248259D02*
X11481848Y-15238735D01*
X11624706Y-15257782D02*
X11634229Y-15248259D01*
X11634229Y-15248259D02*
X11653277Y-15238735D01*
X11653277Y-15238735D02*
X11700896Y-15238735D01*
X11700896Y-15238735D02*
X11719944Y-15248259D01*
X11719944Y-15248259D02*
X11729467Y-15257782D01*
X11729467Y-15257782D02*
X11738991Y-15276830D01*
X11738991Y-15276830D02*
X11738991Y-15295878D01*
X11738991Y-15295878D02*
X11729467Y-15324449D01*
X11729467Y-15324449D02*
X11615182Y-15438735D01*
X11615182Y-15438735D02*
X11738991Y-15438735D01*
X11834229Y-15438735D02*
X11872325Y-15438735D01*
X11872325Y-15438735D02*
X11891372Y-15429211D01*
X11891372Y-15429211D02*
X11900896Y-15419687D01*
X11900896Y-15419687D02*
X11919944Y-15391116D01*
X11919944Y-15391116D02*
X11929467Y-15353020D01*
X11929467Y-15353020D02*
X11929467Y-15276830D01*
X11929467Y-15276830D02*
X11919944Y-15257782D01*
X11919944Y-15257782D02*
X11910420Y-15248259D01*
X11910420Y-15248259D02*
X11891372Y-15238735D01*
X11891372Y-15238735D02*
X11853277Y-15238735D01*
X11853277Y-15238735D02*
X11834229Y-15248259D01*
X11834229Y-15248259D02*
X11824706Y-15257782D01*
X11824706Y-15257782D02*
X11815182Y-15276830D01*
X11815182Y-15276830D02*
X11815182Y-15324449D01*
X11815182Y-15324449D02*
X11824706Y-15343497D01*
X11824706Y-15343497D02*
X11834229Y-15353020D01*
X11834229Y-15353020D02*
X11853277Y-15362544D01*
X11853277Y-15362544D02*
X11891372Y-15362544D01*
X11891372Y-15362544D02*
X11910420Y-15353020D01*
X11910420Y-15353020D02*
X11919944Y-15343497D01*
X11919944Y-15343497D02*
X11929467Y-15324449D01*
X12110420Y-15238735D02*
X12015182Y-15238735D01*
X12015182Y-15238735D02*
X12005658Y-15333973D01*
X12005658Y-15333973D02*
X12015182Y-15324449D01*
X12015182Y-15324449D02*
X12034229Y-15314925D01*
X12034229Y-15314925D02*
X12081848Y-15314925D01*
X12081848Y-15314925D02*
X12100896Y-15324449D01*
X12100896Y-15324449D02*
X12110420Y-15333973D01*
X12110420Y-15333973D02*
X12119944Y-15353020D01*
X12119944Y-15353020D02*
X12119944Y-15400639D01*
X12119944Y-15400639D02*
X12110420Y-15419687D01*
X12110420Y-15419687D02*
X12100896Y-15429211D01*
X12100896Y-15429211D02*
X12081848Y-15438735D01*
X12081848Y-15438735D02*
X12034229Y-15438735D01*
X12034229Y-15438735D02*
X12015182Y-15429211D01*
X12015182Y-15429211D02*
X12005658Y-15419687D01*
X12196134Y-15238735D02*
X12196134Y-15276830D01*
X12272325Y-15238735D02*
X12272325Y-15276830D01*
X12567563Y-15514925D02*
X12558039Y-15505401D01*
X12558039Y-15505401D02*
X12538991Y-15476830D01*
X12538991Y-15476830D02*
X12529468Y-15457782D01*
X12529468Y-15457782D02*
X12519944Y-15429211D01*
X12519944Y-15429211D02*
X12510420Y-15381592D01*
X12510420Y-15381592D02*
X12510420Y-15343497D01*
X12510420Y-15343497D02*
X12519944Y-15295878D01*
X12519944Y-15295878D02*
X12529468Y-15267306D01*
X12529468Y-15267306D02*
X12538991Y-15248259D01*
X12538991Y-15248259D02*
X12558039Y-15219687D01*
X12558039Y-15219687D02*
X12567563Y-15210163D01*
X12634229Y-15257782D02*
X12643753Y-15248259D01*
X12643753Y-15248259D02*
X12662801Y-15238735D01*
X12662801Y-15238735D02*
X12710420Y-15238735D01*
X12710420Y-15238735D02*
X12729468Y-15248259D01*
X12729468Y-15248259D02*
X12738991Y-15257782D01*
X12738991Y-15257782D02*
X12748515Y-15276830D01*
X12748515Y-15276830D02*
X12748515Y-15295878D01*
X12748515Y-15295878D02*
X12738991Y-15324449D01*
X12738991Y-15324449D02*
X12624706Y-15438735D01*
X12624706Y-15438735D02*
X12748515Y-15438735D01*
X12986610Y-15438735D02*
X12986610Y-15238735D01*
X13072325Y-15438735D02*
X13072325Y-15333973D01*
X13072325Y-15333973D02*
X13062801Y-15314925D01*
X13062801Y-15314925D02*
X13043753Y-15305401D01*
X13043753Y-15305401D02*
X13015182Y-15305401D01*
X13015182Y-15305401D02*
X12996134Y-15314925D01*
X12996134Y-15314925D02*
X12986610Y-15324449D01*
X13196134Y-15438735D02*
X13177087Y-15429211D01*
X13177087Y-15429211D02*
X13167563Y-15419687D01*
X13167563Y-15419687D02*
X13158039Y-15400639D01*
X13158039Y-15400639D02*
X13158039Y-15343497D01*
X13158039Y-15343497D02*
X13167563Y-15324449D01*
X13167563Y-15324449D02*
X13177087Y-15314925D01*
X13177087Y-15314925D02*
X13196134Y-15305401D01*
X13196134Y-15305401D02*
X13224706Y-15305401D01*
X13224706Y-15305401D02*
X13243753Y-15314925D01*
X13243753Y-15314925D02*
X13253277Y-15324449D01*
X13253277Y-15324449D02*
X13262801Y-15343497D01*
X13262801Y-15343497D02*
X13262801Y-15400639D01*
X13262801Y-15400639D02*
X13253277Y-15419687D01*
X13253277Y-15419687D02*
X13243753Y-15429211D01*
X13243753Y-15429211D02*
X13224706Y-15438735D01*
X13224706Y-15438735D02*
X13196134Y-15438735D01*
X13377087Y-15438735D02*
X13358039Y-15429211D01*
X13358039Y-15429211D02*
X13348515Y-15410163D01*
X13348515Y-15410163D02*
X13348515Y-15238735D01*
X13529468Y-15429211D02*
X13510420Y-15438735D01*
X13510420Y-15438735D02*
X13472325Y-15438735D01*
X13472325Y-15438735D02*
X13453277Y-15429211D01*
X13453277Y-15429211D02*
X13443753Y-15410163D01*
X13443753Y-15410163D02*
X13443753Y-15333973D01*
X13443753Y-15333973D02*
X13453277Y-15314925D01*
X13453277Y-15314925D02*
X13472325Y-15305401D01*
X13472325Y-15305401D02*
X13510420Y-15305401D01*
X13510420Y-15305401D02*
X13529468Y-15314925D01*
X13529468Y-15314925D02*
X13538991Y-15333973D01*
X13538991Y-15333973D02*
X13538991Y-15353020D01*
X13538991Y-15353020D02*
X13443753Y-15372068D01*
X13615182Y-15429211D02*
X13634230Y-15438735D01*
X13634230Y-15438735D02*
X13672325Y-15438735D01*
X13672325Y-15438735D02*
X13691372Y-15429211D01*
X13691372Y-15429211D02*
X13700896Y-15410163D01*
X13700896Y-15410163D02*
X13700896Y-15400639D01*
X13700896Y-15400639D02*
X13691372Y-15381592D01*
X13691372Y-15381592D02*
X13672325Y-15372068D01*
X13672325Y-15372068D02*
X13643753Y-15372068D01*
X13643753Y-15372068D02*
X13624706Y-15362544D01*
X13624706Y-15362544D02*
X13615182Y-15343497D01*
X13615182Y-15343497D02*
X13615182Y-15333973D01*
X13615182Y-15333973D02*
X13624706Y-15314925D01*
X13624706Y-15314925D02*
X13643753Y-15305401D01*
X13643753Y-15305401D02*
X13672325Y-15305401D01*
X13672325Y-15305401D02*
X13691372Y-15314925D01*
X13767563Y-15514925D02*
X13777087Y-15505401D01*
X13777087Y-15505401D02*
X13796134Y-15476830D01*
X13796134Y-15476830D02*
X13805658Y-15457782D01*
X13805658Y-15457782D02*
X13815182Y-15429211D01*
X13815182Y-15429211D02*
X13824706Y-15381592D01*
X13824706Y-15381592D02*
X13824706Y-15343497D01*
X13824706Y-15343497D02*
X13815182Y-15295878D01*
X13815182Y-15295878D02*
X13805658Y-15267306D01*
X13805658Y-15267306D02*
X13796134Y-15248259D01*
X13796134Y-15248259D02*
X13777087Y-15219687D01*
X13777087Y-15219687D02*
X13767563Y-15210163D01*
D12*
X8977856Y-15646607D02*
X8977856Y-15575895D01*
X8907144Y-15575895D01*
X8907144Y-15646607D01*
X8977856Y-15646607D01*
D11*
X9358039Y-15702735D02*
X9243753Y-15702735D01*
X9300896Y-15702735D02*
X9300896Y-15502735D01*
X9300896Y-15502735D02*
X9281848Y-15531306D01*
X9281848Y-15531306D02*
X9262801Y-15550354D01*
X9262801Y-15550354D02*
X9243753Y-15559878D01*
X9443753Y-15683687D02*
X9453277Y-15693211D01*
X9453277Y-15693211D02*
X9443753Y-15702735D01*
X9443753Y-15702735D02*
X9434229Y-15693211D01*
X9434229Y-15693211D02*
X9443753Y-15683687D01*
X9443753Y-15683687D02*
X9443753Y-15702735D01*
X9577086Y-15502735D02*
X9596134Y-15502735D01*
X9596134Y-15502735D02*
X9615182Y-15512259D01*
X9615182Y-15512259D02*
X9624705Y-15521782D01*
X9624705Y-15521782D02*
X9634229Y-15540830D01*
X9634229Y-15540830D02*
X9643753Y-15578925D01*
X9643753Y-15578925D02*
X9643753Y-15626544D01*
X9643753Y-15626544D02*
X9634229Y-15664639D01*
X9634229Y-15664639D02*
X9624705Y-15683687D01*
X9624705Y-15683687D02*
X9615182Y-15693211D01*
X9615182Y-15693211D02*
X9596134Y-15702735D01*
X9596134Y-15702735D02*
X9577086Y-15702735D01*
X9577086Y-15702735D02*
X9558039Y-15693211D01*
X9558039Y-15693211D02*
X9548515Y-15683687D01*
X9548515Y-15683687D02*
X9538991Y-15664639D01*
X9538991Y-15664639D02*
X9529467Y-15626544D01*
X9529467Y-15626544D02*
X9529467Y-15578925D01*
X9529467Y-15578925D02*
X9538991Y-15540830D01*
X9538991Y-15540830D02*
X9548515Y-15521782D01*
X9548515Y-15521782D02*
X9558039Y-15512259D01*
X9558039Y-15512259D02*
X9577086Y-15502735D01*
X9767563Y-15502735D02*
X9786610Y-15502735D01*
X9786610Y-15502735D02*
X9805658Y-15512259D01*
X9805658Y-15512259D02*
X9815182Y-15521782D01*
X9815182Y-15521782D02*
X9824705Y-15540830D01*
X9824705Y-15540830D02*
X9834229Y-15578925D01*
X9834229Y-15578925D02*
X9834229Y-15626544D01*
X9834229Y-15626544D02*
X9824705Y-15664639D01*
X9824705Y-15664639D02*
X9815182Y-15683687D01*
X9815182Y-15683687D02*
X9805658Y-15693211D01*
X9805658Y-15693211D02*
X9786610Y-15702735D01*
X9786610Y-15702735D02*
X9767563Y-15702735D01*
X9767563Y-15702735D02*
X9748515Y-15693211D01*
X9748515Y-15693211D02*
X9738991Y-15683687D01*
X9738991Y-15683687D02*
X9729467Y-15664639D01*
X9729467Y-15664639D02*
X9719944Y-15626544D01*
X9719944Y-15626544D02*
X9719944Y-15578925D01*
X9719944Y-15578925D02*
X9729467Y-15540830D01*
X9729467Y-15540830D02*
X9738991Y-15521782D01*
X9738991Y-15521782D02*
X9748515Y-15512259D01*
X9748515Y-15512259D02*
X9767563Y-15502735D01*
X9958039Y-15502735D02*
X9977086Y-15502735D01*
X9977086Y-15502735D02*
X9996134Y-15512259D01*
X9996134Y-15512259D02*
X10005658Y-15521782D01*
X10005658Y-15521782D02*
X10015182Y-15540830D01*
X10015182Y-15540830D02*
X10024705Y-15578925D01*
X10024705Y-15578925D02*
X10024705Y-15626544D01*
X10024705Y-15626544D02*
X10015182Y-15664639D01*
X10015182Y-15664639D02*
X10005658Y-15683687D01*
X10005658Y-15683687D02*
X9996134Y-15693211D01*
X9996134Y-15693211D02*
X9977086Y-15702735D01*
X9977086Y-15702735D02*
X9958039Y-15702735D01*
X9958039Y-15702735D02*
X9938991Y-15693211D01*
X9938991Y-15693211D02*
X9929467Y-15683687D01*
X9929467Y-15683687D02*
X9919944Y-15664639D01*
X9919944Y-15664639D02*
X9910420Y-15626544D01*
X9910420Y-15626544D02*
X9910420Y-15578925D01*
X9910420Y-15578925D02*
X9919944Y-15540830D01*
X9919944Y-15540830D02*
X9929467Y-15521782D01*
X9929467Y-15521782D02*
X9938991Y-15512259D01*
X9938991Y-15512259D02*
X9958039Y-15502735D01*
X10110420Y-15702735D02*
X10110420Y-15569401D01*
X10110420Y-15588449D02*
X10119944Y-15578925D01*
X10119944Y-15578925D02*
X10138991Y-15569401D01*
X10138991Y-15569401D02*
X10167563Y-15569401D01*
X10167563Y-15569401D02*
X10186610Y-15578925D01*
X10186610Y-15578925D02*
X10196134Y-15597973D01*
X10196134Y-15597973D02*
X10196134Y-15702735D01*
X10196134Y-15597973D02*
X10205658Y-15578925D01*
X10205658Y-15578925D02*
X10224705Y-15569401D01*
X10224705Y-15569401D02*
X10253277Y-15569401D01*
X10253277Y-15569401D02*
X10272325Y-15578925D01*
X10272325Y-15578925D02*
X10281848Y-15597973D01*
X10281848Y-15597973D02*
X10281848Y-15702735D01*
X10377086Y-15702735D02*
X10377086Y-15569401D01*
X10377086Y-15588449D02*
X10386610Y-15578925D01*
X10386610Y-15578925D02*
X10405658Y-15569401D01*
X10405658Y-15569401D02*
X10434229Y-15569401D01*
X10434229Y-15569401D02*
X10453277Y-15578925D01*
X10453277Y-15578925D02*
X10462801Y-15597973D01*
X10462801Y-15597973D02*
X10462801Y-15702735D01*
X10462801Y-15597973D02*
X10472325Y-15578925D01*
X10472325Y-15578925D02*
X10491372Y-15569401D01*
X10491372Y-15569401D02*
X10519944Y-15569401D01*
X10519944Y-15569401D02*
X10538991Y-15578925D01*
X10538991Y-15578925D02*
X10548515Y-15597973D01*
X10548515Y-15597973D02*
X10548515Y-15702735D01*
X10938991Y-15493211D02*
X10767563Y-15750354D01*
X11196134Y-15502735D02*
X11215182Y-15502735D01*
X11215182Y-15502735D02*
X11234229Y-15512259D01*
X11234229Y-15512259D02*
X11243753Y-15521782D01*
X11243753Y-15521782D02*
X11253277Y-15540830D01*
X11253277Y-15540830D02*
X11262801Y-15578925D01*
X11262801Y-15578925D02*
X11262801Y-15626544D01*
X11262801Y-15626544D02*
X11253277Y-15664639D01*
X11253277Y-15664639D02*
X11243753Y-15683687D01*
X11243753Y-15683687D02*
X11234229Y-15693211D01*
X11234229Y-15693211D02*
X11215182Y-15702735D01*
X11215182Y-15702735D02*
X11196134Y-15702735D01*
X11196134Y-15702735D02*
X11177087Y-15693211D01*
X11177087Y-15693211D02*
X11167563Y-15683687D01*
X11167563Y-15683687D02*
X11158039Y-15664639D01*
X11158039Y-15664639D02*
X11148515Y-15626544D01*
X11148515Y-15626544D02*
X11148515Y-15578925D01*
X11148515Y-15578925D02*
X11158039Y-15540830D01*
X11158039Y-15540830D02*
X11167563Y-15521782D01*
X11167563Y-15521782D02*
X11177087Y-15512259D01*
X11177087Y-15512259D02*
X11196134Y-15502735D01*
X11348515Y-15683687D02*
X11358039Y-15693211D01*
X11358039Y-15693211D02*
X11348515Y-15702735D01*
X11348515Y-15702735D02*
X11338991Y-15693211D01*
X11338991Y-15693211D02*
X11348515Y-15683687D01*
X11348515Y-15683687D02*
X11348515Y-15702735D01*
X11481848Y-15502735D02*
X11500896Y-15502735D01*
X11500896Y-15502735D02*
X11519944Y-15512259D01*
X11519944Y-15512259D02*
X11529467Y-15521782D01*
X11529467Y-15521782D02*
X11538991Y-15540830D01*
X11538991Y-15540830D02*
X11548515Y-15578925D01*
X11548515Y-15578925D02*
X11548515Y-15626544D01*
X11548515Y-15626544D02*
X11538991Y-15664639D01*
X11538991Y-15664639D02*
X11529467Y-15683687D01*
X11529467Y-15683687D02*
X11519944Y-15693211D01*
X11519944Y-15693211D02*
X11500896Y-15702735D01*
X11500896Y-15702735D02*
X11481848Y-15702735D01*
X11481848Y-15702735D02*
X11462801Y-15693211D01*
X11462801Y-15693211D02*
X11453277Y-15683687D01*
X11453277Y-15683687D02*
X11443753Y-15664639D01*
X11443753Y-15664639D02*
X11434229Y-15626544D01*
X11434229Y-15626544D02*
X11434229Y-15578925D01*
X11434229Y-15578925D02*
X11443753Y-15540830D01*
X11443753Y-15540830D02*
X11453277Y-15521782D01*
X11453277Y-15521782D02*
X11462801Y-15512259D01*
X11462801Y-15512259D02*
X11481848Y-15502735D01*
X11615182Y-15502735D02*
X11738991Y-15502735D01*
X11738991Y-15502735D02*
X11672325Y-15578925D01*
X11672325Y-15578925D02*
X11700896Y-15578925D01*
X11700896Y-15578925D02*
X11719944Y-15588449D01*
X11719944Y-15588449D02*
X11729467Y-15597973D01*
X11729467Y-15597973D02*
X11738991Y-15617020D01*
X11738991Y-15617020D02*
X11738991Y-15664639D01*
X11738991Y-15664639D02*
X11729467Y-15683687D01*
X11729467Y-15683687D02*
X11719944Y-15693211D01*
X11719944Y-15693211D02*
X11700896Y-15702735D01*
X11700896Y-15702735D02*
X11643753Y-15702735D01*
X11643753Y-15702735D02*
X11624706Y-15693211D01*
X11624706Y-15693211D02*
X11615182Y-15683687D01*
X11834229Y-15702735D02*
X11872325Y-15702735D01*
X11872325Y-15702735D02*
X11891372Y-15693211D01*
X11891372Y-15693211D02*
X11900896Y-15683687D01*
X11900896Y-15683687D02*
X11919944Y-15655116D01*
X11919944Y-15655116D02*
X11929467Y-15617020D01*
X11929467Y-15617020D02*
X11929467Y-15540830D01*
X11929467Y-15540830D02*
X11919944Y-15521782D01*
X11919944Y-15521782D02*
X11910420Y-15512259D01*
X11910420Y-15512259D02*
X11891372Y-15502735D01*
X11891372Y-15502735D02*
X11853277Y-15502735D01*
X11853277Y-15502735D02*
X11834229Y-15512259D01*
X11834229Y-15512259D02*
X11824706Y-15521782D01*
X11824706Y-15521782D02*
X11815182Y-15540830D01*
X11815182Y-15540830D02*
X11815182Y-15588449D01*
X11815182Y-15588449D02*
X11824706Y-15607497D01*
X11824706Y-15607497D02*
X11834229Y-15617020D01*
X11834229Y-15617020D02*
X11853277Y-15626544D01*
X11853277Y-15626544D02*
X11891372Y-15626544D01*
X11891372Y-15626544D02*
X11910420Y-15617020D01*
X11910420Y-15617020D02*
X11919944Y-15607497D01*
X11919944Y-15607497D02*
X11929467Y-15588449D01*
X12100896Y-15569401D02*
X12100896Y-15702735D01*
X12053277Y-15493211D02*
X12005658Y-15636068D01*
X12005658Y-15636068D02*
X12129467Y-15636068D01*
X12196134Y-15502735D02*
X12196134Y-15540830D01*
X12272325Y-15502735D02*
X12272325Y-15540830D01*
X12567563Y-15778925D02*
X12558039Y-15769401D01*
X12558039Y-15769401D02*
X12538991Y-15740830D01*
X12538991Y-15740830D02*
X12529468Y-15721782D01*
X12529468Y-15721782D02*
X12519944Y-15693211D01*
X12519944Y-15693211D02*
X12510420Y-15645592D01*
X12510420Y-15645592D02*
X12510420Y-15607497D01*
X12510420Y-15607497D02*
X12519944Y-15559878D01*
X12519944Y-15559878D02*
X12529468Y-15531306D01*
X12529468Y-15531306D02*
X12538991Y-15512259D01*
X12538991Y-15512259D02*
X12558039Y-15483687D01*
X12558039Y-15483687D02*
X12567563Y-15474163D01*
X12634229Y-15521782D02*
X12643753Y-15512259D01*
X12643753Y-15512259D02*
X12662801Y-15502735D01*
X12662801Y-15502735D02*
X12710420Y-15502735D01*
X12710420Y-15502735D02*
X12729468Y-15512259D01*
X12729468Y-15512259D02*
X12738991Y-15521782D01*
X12738991Y-15521782D02*
X12748515Y-15540830D01*
X12748515Y-15540830D02*
X12748515Y-15559878D01*
X12748515Y-15559878D02*
X12738991Y-15588449D01*
X12738991Y-15588449D02*
X12624706Y-15702735D01*
X12624706Y-15702735D02*
X12748515Y-15702735D01*
X12862801Y-15588449D02*
X12843753Y-15578925D01*
X12843753Y-15578925D02*
X12834229Y-15569401D01*
X12834229Y-15569401D02*
X12824706Y-15550354D01*
X12824706Y-15550354D02*
X12824706Y-15540830D01*
X12824706Y-15540830D02*
X12834229Y-15521782D01*
X12834229Y-15521782D02*
X12843753Y-15512259D01*
X12843753Y-15512259D02*
X12862801Y-15502735D01*
X12862801Y-15502735D02*
X12900896Y-15502735D01*
X12900896Y-15502735D02*
X12919944Y-15512259D01*
X12919944Y-15512259D02*
X12929468Y-15521782D01*
X12929468Y-15521782D02*
X12938991Y-15540830D01*
X12938991Y-15540830D02*
X12938991Y-15550354D01*
X12938991Y-15550354D02*
X12929468Y-15569401D01*
X12929468Y-15569401D02*
X12919944Y-15578925D01*
X12919944Y-15578925D02*
X12900896Y-15588449D01*
X12900896Y-15588449D02*
X12862801Y-15588449D01*
X12862801Y-15588449D02*
X12843753Y-15597973D01*
X12843753Y-15597973D02*
X12834229Y-15607497D01*
X12834229Y-15607497D02*
X12824706Y-15626544D01*
X12824706Y-15626544D02*
X12824706Y-15664639D01*
X12824706Y-15664639D02*
X12834229Y-15683687D01*
X12834229Y-15683687D02*
X12843753Y-15693211D01*
X12843753Y-15693211D02*
X12862801Y-15702735D01*
X12862801Y-15702735D02*
X12900896Y-15702735D01*
X12900896Y-15702735D02*
X12919944Y-15693211D01*
X12919944Y-15693211D02*
X12929468Y-15683687D01*
X12929468Y-15683687D02*
X12938991Y-15664639D01*
X12938991Y-15664639D02*
X12938991Y-15626544D01*
X12938991Y-15626544D02*
X12929468Y-15607497D01*
X12929468Y-15607497D02*
X12919944Y-15597973D01*
X12919944Y-15597973D02*
X12900896Y-15588449D01*
X13177087Y-15702735D02*
X13177087Y-15502735D01*
X13262801Y-15702735D02*
X13262801Y-15597973D01*
X13262801Y-15597973D02*
X13253277Y-15578925D01*
X13253277Y-15578925D02*
X13234230Y-15569401D01*
X13234230Y-15569401D02*
X13205658Y-15569401D01*
X13205658Y-15569401D02*
X13186610Y-15578925D01*
X13186610Y-15578925D02*
X13177087Y-15588449D01*
X13386610Y-15702735D02*
X13367563Y-15693211D01*
X13367563Y-15693211D02*
X13358039Y-15683687D01*
X13358039Y-15683687D02*
X13348515Y-15664639D01*
X13348515Y-15664639D02*
X13348515Y-15607497D01*
X13348515Y-15607497D02*
X13358039Y-15588449D01*
X13358039Y-15588449D02*
X13367563Y-15578925D01*
X13367563Y-15578925D02*
X13386610Y-15569401D01*
X13386610Y-15569401D02*
X13415182Y-15569401D01*
X13415182Y-15569401D02*
X13434230Y-15578925D01*
X13434230Y-15578925D02*
X13443753Y-15588449D01*
X13443753Y-15588449D02*
X13453277Y-15607497D01*
X13453277Y-15607497D02*
X13453277Y-15664639D01*
X13453277Y-15664639D02*
X13443753Y-15683687D01*
X13443753Y-15683687D02*
X13434230Y-15693211D01*
X13434230Y-15693211D02*
X13415182Y-15702735D01*
X13415182Y-15702735D02*
X13386610Y-15702735D01*
X13567563Y-15702735D02*
X13548515Y-15693211D01*
X13548515Y-15693211D02*
X13538991Y-15674163D01*
X13538991Y-15674163D02*
X13538991Y-15502735D01*
X13719944Y-15693211D02*
X13700896Y-15702735D01*
X13700896Y-15702735D02*
X13662801Y-15702735D01*
X13662801Y-15702735D02*
X13643753Y-15693211D01*
X13643753Y-15693211D02*
X13634230Y-15674163D01*
X13634230Y-15674163D02*
X13634230Y-15597973D01*
X13634230Y-15597973D02*
X13643753Y-15578925D01*
X13643753Y-15578925D02*
X13662801Y-15569401D01*
X13662801Y-15569401D02*
X13700896Y-15569401D01*
X13700896Y-15569401D02*
X13719944Y-15578925D01*
X13719944Y-15578925D02*
X13729468Y-15597973D01*
X13729468Y-15597973D02*
X13729468Y-15617020D01*
X13729468Y-15617020D02*
X13634230Y-15636068D01*
X13805658Y-15693211D02*
X13824706Y-15702735D01*
X13824706Y-15702735D02*
X13862801Y-15702735D01*
X13862801Y-15702735D02*
X13881849Y-15693211D01*
X13881849Y-15693211D02*
X13891372Y-15674163D01*
X13891372Y-15674163D02*
X13891372Y-15664639D01*
X13891372Y-15664639D02*
X13881849Y-15645592D01*
X13881849Y-15645592D02*
X13862801Y-15636068D01*
X13862801Y-15636068D02*
X13834230Y-15636068D01*
X13834230Y-15636068D02*
X13815182Y-15626544D01*
X13815182Y-15626544D02*
X13805658Y-15607497D01*
X13805658Y-15607497D02*
X13805658Y-15597973D01*
X13805658Y-15597973D02*
X13815182Y-15578925D01*
X13815182Y-15578925D02*
X13834230Y-15569401D01*
X13834230Y-15569401D02*
X13862801Y-15569401D01*
X13862801Y-15569401D02*
X13881849Y-15578925D01*
X13958039Y-15778925D02*
X13967563Y-15769401D01*
X13967563Y-15769401D02*
X13986611Y-15740830D01*
X13986611Y-15740830D02*
X13996134Y-15721782D01*
X13996134Y-15721782D02*
X14005658Y-15693211D01*
X14005658Y-15693211D02*
X14015182Y-15645592D01*
X14015182Y-15645592D02*
X14015182Y-15607497D01*
X14015182Y-15607497D02*
X14005658Y-15559878D01*
X14005658Y-15559878D02*
X13996134Y-15531306D01*
X13996134Y-15531306D02*
X13986611Y-15512259D01*
X13986611Y-15512259D02*
X13967563Y-15483687D01*
X13967563Y-15483687D02*
X13958039Y-15474163D01*
D13*
X8927500Y-15940251D02*
X8992500Y-15875251D01*
X8927500Y-15810251D01*
X8862500Y-15875251D01*
X8927500Y-15940251D01*
D11*
X9358039Y-15966735D02*
X9243753Y-15966735D01*
X9300896Y-15966735D02*
X9300896Y-15766735D01*
X9300896Y-15766735D02*
X9281848Y-15795306D01*
X9281848Y-15795306D02*
X9262801Y-15814354D01*
X9262801Y-15814354D02*
X9243753Y-15823878D01*
X9443753Y-15947687D02*
X9453277Y-15957211D01*
X9453277Y-15957211D02*
X9443753Y-15966735D01*
X9443753Y-15966735D02*
X9434229Y-15957211D01*
X9434229Y-15957211D02*
X9443753Y-15947687D01*
X9443753Y-15947687D02*
X9443753Y-15966735D01*
X9519944Y-15766735D02*
X9643753Y-15766735D01*
X9643753Y-15766735D02*
X9577086Y-15842925D01*
X9577086Y-15842925D02*
X9605658Y-15842925D01*
X9605658Y-15842925D02*
X9624705Y-15852449D01*
X9624705Y-15852449D02*
X9634229Y-15861973D01*
X9634229Y-15861973D02*
X9643753Y-15881020D01*
X9643753Y-15881020D02*
X9643753Y-15928639D01*
X9643753Y-15928639D02*
X9634229Y-15947687D01*
X9634229Y-15947687D02*
X9624705Y-15957211D01*
X9624705Y-15957211D02*
X9605658Y-15966735D01*
X9605658Y-15966735D02*
X9548515Y-15966735D01*
X9548515Y-15966735D02*
X9529467Y-15957211D01*
X9529467Y-15957211D02*
X9519944Y-15947687D01*
X9767563Y-15766735D02*
X9786610Y-15766735D01*
X9786610Y-15766735D02*
X9805658Y-15776259D01*
X9805658Y-15776259D02*
X9815182Y-15785782D01*
X9815182Y-15785782D02*
X9824705Y-15804830D01*
X9824705Y-15804830D02*
X9834229Y-15842925D01*
X9834229Y-15842925D02*
X9834229Y-15890544D01*
X9834229Y-15890544D02*
X9824705Y-15928639D01*
X9824705Y-15928639D02*
X9815182Y-15947687D01*
X9815182Y-15947687D02*
X9805658Y-15957211D01*
X9805658Y-15957211D02*
X9786610Y-15966735D01*
X9786610Y-15966735D02*
X9767563Y-15966735D01*
X9767563Y-15966735D02*
X9748515Y-15957211D01*
X9748515Y-15957211D02*
X9738991Y-15947687D01*
X9738991Y-15947687D02*
X9729467Y-15928639D01*
X9729467Y-15928639D02*
X9719944Y-15890544D01*
X9719944Y-15890544D02*
X9719944Y-15842925D01*
X9719944Y-15842925D02*
X9729467Y-15804830D01*
X9729467Y-15804830D02*
X9738991Y-15785782D01*
X9738991Y-15785782D02*
X9748515Y-15776259D01*
X9748515Y-15776259D02*
X9767563Y-15766735D01*
X9958039Y-15766735D02*
X9977086Y-15766735D01*
X9977086Y-15766735D02*
X9996134Y-15776259D01*
X9996134Y-15776259D02*
X10005658Y-15785782D01*
X10005658Y-15785782D02*
X10015182Y-15804830D01*
X10015182Y-15804830D02*
X10024705Y-15842925D01*
X10024705Y-15842925D02*
X10024705Y-15890544D01*
X10024705Y-15890544D02*
X10015182Y-15928639D01*
X10015182Y-15928639D02*
X10005658Y-15947687D01*
X10005658Y-15947687D02*
X9996134Y-15957211D01*
X9996134Y-15957211D02*
X9977086Y-15966735D01*
X9977086Y-15966735D02*
X9958039Y-15966735D01*
X9958039Y-15966735D02*
X9938991Y-15957211D01*
X9938991Y-15957211D02*
X9929467Y-15947687D01*
X9929467Y-15947687D02*
X9919944Y-15928639D01*
X9919944Y-15928639D02*
X9910420Y-15890544D01*
X9910420Y-15890544D02*
X9910420Y-15842925D01*
X9910420Y-15842925D02*
X9919944Y-15804830D01*
X9919944Y-15804830D02*
X9929467Y-15785782D01*
X9929467Y-15785782D02*
X9938991Y-15776259D01*
X9938991Y-15776259D02*
X9958039Y-15766735D01*
X10110420Y-15966735D02*
X10110420Y-15833401D01*
X10110420Y-15852449D02*
X10119944Y-15842925D01*
X10119944Y-15842925D02*
X10138991Y-15833401D01*
X10138991Y-15833401D02*
X10167563Y-15833401D01*
X10167563Y-15833401D02*
X10186610Y-15842925D01*
X10186610Y-15842925D02*
X10196134Y-15861973D01*
X10196134Y-15861973D02*
X10196134Y-15966735D01*
X10196134Y-15861973D02*
X10205658Y-15842925D01*
X10205658Y-15842925D02*
X10224705Y-15833401D01*
X10224705Y-15833401D02*
X10253277Y-15833401D01*
X10253277Y-15833401D02*
X10272325Y-15842925D01*
X10272325Y-15842925D02*
X10281848Y-15861973D01*
X10281848Y-15861973D02*
X10281848Y-15966735D01*
X10377086Y-15966735D02*
X10377086Y-15833401D01*
X10377086Y-15852449D02*
X10386610Y-15842925D01*
X10386610Y-15842925D02*
X10405658Y-15833401D01*
X10405658Y-15833401D02*
X10434229Y-15833401D01*
X10434229Y-15833401D02*
X10453277Y-15842925D01*
X10453277Y-15842925D02*
X10462801Y-15861973D01*
X10462801Y-15861973D02*
X10462801Y-15966735D01*
X10462801Y-15861973D02*
X10472325Y-15842925D01*
X10472325Y-15842925D02*
X10491372Y-15833401D01*
X10491372Y-15833401D02*
X10519944Y-15833401D01*
X10519944Y-15833401D02*
X10538991Y-15842925D01*
X10538991Y-15842925D02*
X10548515Y-15861973D01*
X10548515Y-15861973D02*
X10548515Y-15966735D01*
X10938991Y-15757211D02*
X10767563Y-16014354D01*
X11196134Y-15766735D02*
X11215182Y-15766735D01*
X11215182Y-15766735D02*
X11234229Y-15776259D01*
X11234229Y-15776259D02*
X11243753Y-15785782D01*
X11243753Y-15785782D02*
X11253277Y-15804830D01*
X11253277Y-15804830D02*
X11262801Y-15842925D01*
X11262801Y-15842925D02*
X11262801Y-15890544D01*
X11262801Y-15890544D02*
X11253277Y-15928639D01*
X11253277Y-15928639D02*
X11243753Y-15947687D01*
X11243753Y-15947687D02*
X11234229Y-15957211D01*
X11234229Y-15957211D02*
X11215182Y-15966735D01*
X11215182Y-15966735D02*
X11196134Y-15966735D01*
X11196134Y-15966735D02*
X11177087Y-15957211D01*
X11177087Y-15957211D02*
X11167563Y-15947687D01*
X11167563Y-15947687D02*
X11158039Y-15928639D01*
X11158039Y-15928639D02*
X11148515Y-15890544D01*
X11148515Y-15890544D02*
X11148515Y-15842925D01*
X11148515Y-15842925D02*
X11158039Y-15804830D01*
X11158039Y-15804830D02*
X11167563Y-15785782D01*
X11167563Y-15785782D02*
X11177087Y-15776259D01*
X11177087Y-15776259D02*
X11196134Y-15766735D01*
X11348515Y-15947687D02*
X11358039Y-15957211D01*
X11358039Y-15957211D02*
X11348515Y-15966735D01*
X11348515Y-15966735D02*
X11338991Y-15957211D01*
X11338991Y-15957211D02*
X11348515Y-15947687D01*
X11348515Y-15947687D02*
X11348515Y-15966735D01*
X11481848Y-15766735D02*
X11500896Y-15766735D01*
X11500896Y-15766735D02*
X11519944Y-15776259D01*
X11519944Y-15776259D02*
X11529467Y-15785782D01*
X11529467Y-15785782D02*
X11538991Y-15804830D01*
X11538991Y-15804830D02*
X11548515Y-15842925D01*
X11548515Y-15842925D02*
X11548515Y-15890544D01*
X11548515Y-15890544D02*
X11538991Y-15928639D01*
X11538991Y-15928639D02*
X11529467Y-15947687D01*
X11529467Y-15947687D02*
X11519944Y-15957211D01*
X11519944Y-15957211D02*
X11500896Y-15966735D01*
X11500896Y-15966735D02*
X11481848Y-15966735D01*
X11481848Y-15966735D02*
X11462801Y-15957211D01*
X11462801Y-15957211D02*
X11453277Y-15947687D01*
X11453277Y-15947687D02*
X11443753Y-15928639D01*
X11443753Y-15928639D02*
X11434229Y-15890544D01*
X11434229Y-15890544D02*
X11434229Y-15842925D01*
X11434229Y-15842925D02*
X11443753Y-15804830D01*
X11443753Y-15804830D02*
X11453277Y-15785782D01*
X11453277Y-15785782D02*
X11462801Y-15776259D01*
X11462801Y-15776259D02*
X11481848Y-15766735D01*
X11729467Y-15766735D02*
X11634229Y-15766735D01*
X11634229Y-15766735D02*
X11624706Y-15861973D01*
X11624706Y-15861973D02*
X11634229Y-15852449D01*
X11634229Y-15852449D02*
X11653277Y-15842925D01*
X11653277Y-15842925D02*
X11700896Y-15842925D01*
X11700896Y-15842925D02*
X11719944Y-15852449D01*
X11719944Y-15852449D02*
X11729467Y-15861973D01*
X11729467Y-15861973D02*
X11738991Y-15881020D01*
X11738991Y-15881020D02*
X11738991Y-15928639D01*
X11738991Y-15928639D02*
X11729467Y-15947687D01*
X11729467Y-15947687D02*
X11719944Y-15957211D01*
X11719944Y-15957211D02*
X11700896Y-15966735D01*
X11700896Y-15966735D02*
X11653277Y-15966735D01*
X11653277Y-15966735D02*
X11634229Y-15957211D01*
X11634229Y-15957211D02*
X11624706Y-15947687D01*
X11929467Y-15966735D02*
X11815182Y-15966735D01*
X11872325Y-15966735D02*
X11872325Y-15766735D01*
X11872325Y-15766735D02*
X11853277Y-15795306D01*
X11853277Y-15795306D02*
X11834229Y-15814354D01*
X11834229Y-15814354D02*
X11815182Y-15823878D01*
X12005658Y-15785782D02*
X12015182Y-15776259D01*
X12015182Y-15776259D02*
X12034229Y-15766735D01*
X12034229Y-15766735D02*
X12081848Y-15766735D01*
X12081848Y-15766735D02*
X12100896Y-15776259D01*
X12100896Y-15776259D02*
X12110420Y-15785782D01*
X12110420Y-15785782D02*
X12119944Y-15804830D01*
X12119944Y-15804830D02*
X12119944Y-15823878D01*
X12119944Y-15823878D02*
X12110420Y-15852449D01*
X12110420Y-15852449D02*
X11996134Y-15966735D01*
X11996134Y-15966735D02*
X12119944Y-15966735D01*
X12196134Y-15766735D02*
X12196134Y-15804830D01*
X12272325Y-15766735D02*
X12272325Y-15804830D01*
X12567563Y-16042925D02*
X12558039Y-16033401D01*
X12558039Y-16033401D02*
X12538991Y-16004830D01*
X12538991Y-16004830D02*
X12529468Y-15985782D01*
X12529468Y-15985782D02*
X12519944Y-15957211D01*
X12519944Y-15957211D02*
X12510420Y-15909592D01*
X12510420Y-15909592D02*
X12510420Y-15871497D01*
X12510420Y-15871497D02*
X12519944Y-15823878D01*
X12519944Y-15823878D02*
X12529468Y-15795306D01*
X12529468Y-15795306D02*
X12538991Y-15776259D01*
X12538991Y-15776259D02*
X12558039Y-15747687D01*
X12558039Y-15747687D02*
X12567563Y-15738163D01*
X12634229Y-15785782D02*
X12643753Y-15776259D01*
X12643753Y-15776259D02*
X12662801Y-15766735D01*
X12662801Y-15766735D02*
X12710420Y-15766735D01*
X12710420Y-15766735D02*
X12729468Y-15776259D01*
X12729468Y-15776259D02*
X12738991Y-15785782D01*
X12738991Y-15785782D02*
X12748515Y-15804830D01*
X12748515Y-15804830D02*
X12748515Y-15823878D01*
X12748515Y-15823878D02*
X12738991Y-15852449D01*
X12738991Y-15852449D02*
X12624706Y-15966735D01*
X12624706Y-15966735D02*
X12748515Y-15966735D01*
X12986610Y-15966735D02*
X12986610Y-15766735D01*
X13072325Y-15966735D02*
X13072325Y-15861973D01*
X13072325Y-15861973D02*
X13062801Y-15842925D01*
X13062801Y-15842925D02*
X13043753Y-15833401D01*
X13043753Y-15833401D02*
X13015182Y-15833401D01*
X13015182Y-15833401D02*
X12996134Y-15842925D01*
X12996134Y-15842925D02*
X12986610Y-15852449D01*
X13196134Y-15966735D02*
X13177087Y-15957211D01*
X13177087Y-15957211D02*
X13167563Y-15947687D01*
X13167563Y-15947687D02*
X13158039Y-15928639D01*
X13158039Y-15928639D02*
X13158039Y-15871497D01*
X13158039Y-15871497D02*
X13167563Y-15852449D01*
X13167563Y-15852449D02*
X13177087Y-15842925D01*
X13177087Y-15842925D02*
X13196134Y-15833401D01*
X13196134Y-15833401D02*
X13224706Y-15833401D01*
X13224706Y-15833401D02*
X13243753Y-15842925D01*
X13243753Y-15842925D02*
X13253277Y-15852449D01*
X13253277Y-15852449D02*
X13262801Y-15871497D01*
X13262801Y-15871497D02*
X13262801Y-15928639D01*
X13262801Y-15928639D02*
X13253277Y-15947687D01*
X13253277Y-15947687D02*
X13243753Y-15957211D01*
X13243753Y-15957211D02*
X13224706Y-15966735D01*
X13224706Y-15966735D02*
X13196134Y-15966735D01*
X13377087Y-15966735D02*
X13358039Y-15957211D01*
X13358039Y-15957211D02*
X13348515Y-15938163D01*
X13348515Y-15938163D02*
X13348515Y-15766735D01*
X13529468Y-15957211D02*
X13510420Y-15966735D01*
X13510420Y-15966735D02*
X13472325Y-15966735D01*
X13472325Y-15966735D02*
X13453277Y-15957211D01*
X13453277Y-15957211D02*
X13443753Y-15938163D01*
X13443753Y-15938163D02*
X13443753Y-15861973D01*
X13443753Y-15861973D02*
X13453277Y-15842925D01*
X13453277Y-15842925D02*
X13472325Y-15833401D01*
X13472325Y-15833401D02*
X13510420Y-15833401D01*
X13510420Y-15833401D02*
X13529468Y-15842925D01*
X13529468Y-15842925D02*
X13538991Y-15861973D01*
X13538991Y-15861973D02*
X13538991Y-15881020D01*
X13538991Y-15881020D02*
X13443753Y-15900068D01*
X13615182Y-15957211D02*
X13634230Y-15966735D01*
X13634230Y-15966735D02*
X13672325Y-15966735D01*
X13672325Y-15966735D02*
X13691372Y-15957211D01*
X13691372Y-15957211D02*
X13700896Y-15938163D01*
X13700896Y-15938163D02*
X13700896Y-15928639D01*
X13700896Y-15928639D02*
X13691372Y-15909592D01*
X13691372Y-15909592D02*
X13672325Y-15900068D01*
X13672325Y-15900068D02*
X13643753Y-15900068D01*
X13643753Y-15900068D02*
X13624706Y-15890544D01*
X13624706Y-15890544D02*
X13615182Y-15871497D01*
X13615182Y-15871497D02*
X13615182Y-15861973D01*
X13615182Y-15861973D02*
X13624706Y-15842925D01*
X13624706Y-15842925D02*
X13643753Y-15833401D01*
X13643753Y-15833401D02*
X13672325Y-15833401D01*
X13672325Y-15833401D02*
X13691372Y-15842925D01*
X13767563Y-16042925D02*
X13777087Y-16033401D01*
X13777087Y-16033401D02*
X13796134Y-16004830D01*
X13796134Y-16004830D02*
X13805658Y-15985782D01*
X13805658Y-15985782D02*
X13815182Y-15957211D01*
X13815182Y-15957211D02*
X13824706Y-15909592D01*
X13824706Y-15909592D02*
X13824706Y-15871497D01*
X13824706Y-15871497D02*
X13815182Y-15823878D01*
X13815182Y-15823878D02*
X13805658Y-15795306D01*
X13805658Y-15795306D02*
X13796134Y-15776259D01*
X13796134Y-15776259D02*
X13777087Y-15747687D01*
X13777087Y-15747687D02*
X13767563Y-15738163D01*
M02*
