G04 #@! TF.GenerationSoftware,KiCad,Pcbnew,8.0.6+1*
G04 #@! TF.CreationDate,2024-12-31T16:22:39+00:00*
G04 #@! TF.ProjectId,corney_island_wireless_autorouted,636f726e-6579-45f6-9973-6c616e645f77,0.2*
G04 #@! TF.SameCoordinates,Original*
G04 #@! TF.FileFunction,Copper,L1,Top*
G04 #@! TF.FilePolarity,Positive*
%FSLAX46Y46*%
G04 Gerber Fmt 4.6, Leading zero omitted, Abs format (unit mm)*
G04 Created by KiCad (PCBNEW 8.0.6+1) date 2024-12-31 16:22:39*
%MOMM*%
%LPD*%
G01*
G04 APERTURE LIST*
G04 #@! TA.AperFunction,ComponentPad*
%ADD10C,2.000000*%
G04 #@! TD*
G04 #@! TA.AperFunction,SMDPad,CuDef*
%ADD11R,0.900000X1.200000*%
G04 #@! TD*
G04 #@! TA.AperFunction,SMDPad,CuDef*
%ADD12R,2.600000X2.600000*%
G04 #@! TD*
G04 #@! TA.AperFunction,ComponentPad*
%ADD13C,1.700000*%
G04 #@! TD*
G04 #@! TA.AperFunction,SMDPad,CuDef*
%ADD14R,0.600000X1.200000*%
G04 #@! TD*
G04 #@! TA.AperFunction,ComponentPad*
%ADD15C,0.800000*%
G04 #@! TD*
G04 #@! TA.AperFunction,ComponentPad*
%ADD16O,1.700000X1.700000*%
G04 #@! TD*
G04 #@! TA.AperFunction,SMDPad,CuDef*
%ADD17R,1.200000X0.600000*%
G04 #@! TD*
G04 #@! TA.AperFunction,SMDPad,CuDef*
%ADD18R,0.800000X1.000000*%
G04 #@! TD*
G04 #@! TA.AperFunction,SMDPad,CuDef*
%ADD19R,1.500000X0.700000*%
G04 #@! TD*
G04 #@! TA.AperFunction,ComponentPad*
%ADD20O,1.750000X1.200000*%
G04 #@! TD*
G04 #@! TA.AperFunction,ViaPad*
%ADD21C,0.600000*%
G04 #@! TD*
G04 #@! TA.AperFunction,Conductor*
%ADD22C,0.200000*%
G04 #@! TD*
G04 #@! TA.AperFunction,Conductor*
%ADD23C,0.250000*%
G04 #@! TD*
G04 APERTURE END LIST*
D10*
X201900000Y-93250000D03*
X201900000Y-99750000D03*
G04 #@! TA.AperFunction,SMDPad,CuDef*
G36*
X173404512Y-114788613D02*
G01*
X174077441Y-112277206D01*
X176588848Y-112950135D01*
X175915919Y-115461542D01*
X173404512Y-114788613D01*
G37*
G04 #@! TD.AperFunction*
G04 #@! TA.AperFunction,SMDPad,CuDef*
G36*
X161678667Y-113924290D02*
G01*
X162351596Y-111412883D01*
X164863003Y-112085812D01*
X164190074Y-114597219D01*
X161678667Y-113924290D01*
G37*
G04 #@! TD.AperFunction*
D11*
X173650000Y-100750000D03*
X170350000Y-100750000D03*
D12*
X121275000Y-83425000D03*
X109725000Y-85625000D03*
X139275000Y-47300000D03*
X127725000Y-49500000D03*
D11*
X155650000Y-64625000D03*
X152350000Y-64625000D03*
G04 #@! TA.AperFunction,SMDPad,CuDef*
G36*
X171182936Y-123562563D02*
G01*
X170872353Y-124721674D01*
X170003020Y-124488737D01*
X170313603Y-123329626D01*
X171182936Y-123562563D01*
G37*
G04 #@! TD.AperFunction*
G04 #@! TA.AperFunction,SMDPad,CuDef*
G36*
X167995380Y-122708463D02*
G01*
X167684797Y-123867574D01*
X166815464Y-123634637D01*
X167126047Y-122475526D01*
X167995380Y-122708463D01*
G37*
G04 #@! TD.AperFunction*
X173650000Y-66750000D03*
X170350000Y-66750000D03*
X155650000Y-98625000D03*
X152350000Y-98625000D03*
X101650000Y-88000000D03*
X98350000Y-88000000D03*
D13*
X200620000Y-61045000D03*
X200620000Y-63585000D03*
X200620000Y-66125000D03*
X200620000Y-68665000D03*
X200620000Y-71205000D03*
X200620000Y-73745000D03*
X200620000Y-76285000D03*
X200620000Y-78825000D03*
X200620000Y-81365000D03*
X200620000Y-83905000D03*
X200620000Y-86445000D03*
X200620000Y-88985000D03*
X185380000Y-88985000D03*
D14*
X187520000Y-88985000D03*
X198480000Y-88985000D03*
D13*
X185380000Y-86445000D03*
D14*
X187520000Y-86445000D03*
X198480000Y-86445000D03*
D13*
X185380000Y-83905000D03*
D14*
X187520000Y-83905000D03*
X198480000Y-83905000D03*
D13*
X185380000Y-81365000D03*
D14*
X187520000Y-81365000D03*
X198480000Y-81365000D03*
D13*
X185380000Y-78825000D03*
D14*
X187520000Y-78825000D03*
X198480000Y-78825000D03*
D13*
X185380000Y-76285000D03*
D14*
X187520000Y-76285000D03*
X198480000Y-76285000D03*
D13*
X185380000Y-73745000D03*
D14*
X187520000Y-73745000D03*
X198480000Y-73745000D03*
D13*
X185380000Y-71205000D03*
D14*
X187520000Y-71205000D03*
X198480000Y-71205000D03*
D13*
X185380000Y-68665000D03*
D14*
X187520000Y-68665000D03*
X198480000Y-68665000D03*
D13*
X185380000Y-66125000D03*
D14*
X187520000Y-66125000D03*
X198480000Y-66125000D03*
D13*
X185380000Y-63585000D03*
D14*
X187520000Y-63585000D03*
X198480000Y-63585000D03*
D13*
X185380000Y-61045000D03*
D14*
X187520000Y-61045000D03*
X198480000Y-61045000D03*
D15*
X196400000Y-61045000D03*
D14*
X197580000Y-61045000D03*
D15*
X196400000Y-63585000D03*
D14*
X197580000Y-63585000D03*
D15*
X196400000Y-66125000D03*
D14*
X197580000Y-66125000D03*
D15*
X196400000Y-68665000D03*
D14*
X197580000Y-68665000D03*
D15*
X196400000Y-71205000D03*
D14*
X197580000Y-71205000D03*
D15*
X196400000Y-73745000D03*
D14*
X197580000Y-73745000D03*
D15*
X196400000Y-76285000D03*
D14*
X197580000Y-76285000D03*
D15*
X196400000Y-78825000D03*
D14*
X197580000Y-78825000D03*
D15*
X196400000Y-81365000D03*
D14*
X197580000Y-81365000D03*
D15*
X196400000Y-83905000D03*
D14*
X197580000Y-83905000D03*
D15*
X196400000Y-86445000D03*
D14*
X197580000Y-86445000D03*
D15*
X196400000Y-88985000D03*
D14*
X197580000Y-88985000D03*
X188420000Y-88985000D03*
D15*
X189600000Y-88985000D03*
D14*
X188420000Y-86445000D03*
D15*
X189600000Y-86445000D03*
D14*
X188420000Y-83905000D03*
D15*
X189600000Y-83905000D03*
D14*
X188420000Y-81365000D03*
D15*
X189600000Y-81365000D03*
D14*
X188420000Y-78825000D03*
D15*
X189600000Y-78825000D03*
D14*
X188420000Y-76285000D03*
D15*
X189600000Y-76285000D03*
D14*
X188420000Y-73745000D03*
D15*
X189600000Y-73745000D03*
D14*
X188420000Y-71205000D03*
D15*
X189600000Y-71205000D03*
D14*
X188420000Y-68665000D03*
D15*
X189600000Y-68665000D03*
D14*
X188420000Y-66125000D03*
D15*
X189600000Y-66125000D03*
D14*
X188420000Y-63585000D03*
D15*
X189600000Y-63585000D03*
D14*
X188420000Y-61045000D03*
D15*
X189600000Y-61045000D03*
D11*
X137650000Y-58250000D03*
X134350000Y-58250000D03*
X119650000Y-77375000D03*
X116350000Y-77375000D03*
X152050000Y-121150000D03*
X148750000Y-121150000D03*
X101650000Y-71000000D03*
X98350000Y-71000000D03*
D12*
X157275000Y-70675000D03*
X145725000Y-72875000D03*
X175275000Y-89800000D03*
X163725000Y-92000000D03*
X175275000Y-72800000D03*
X163725000Y-75000000D03*
X139275000Y-81300000D03*
X127725000Y-83500000D03*
G04 #@! TA.AperFunction,SMDPad,CuDef*
G36*
X192866300Y-123407982D02*
G01*
X194166300Y-121156316D01*
X196417966Y-122456316D01*
X195117966Y-124707982D01*
X192866300Y-123407982D01*
G37*
G04 #@! TD.AperFunction*
G04 #@! TA.AperFunction,SMDPad,CuDef*
G36*
X181763707Y-119538238D02*
G01*
X183063707Y-117286572D01*
X185315373Y-118586572D01*
X184015373Y-120838238D01*
X181763707Y-119538238D01*
G37*
G04 #@! TD.AperFunction*
X103275000Y-77050000D03*
X91725000Y-79250000D03*
D16*
X187920000Y-94075000D03*
X190460000Y-94075000D03*
X193000000Y-94075000D03*
X195540000Y-94075000D03*
D13*
X198080000Y-94075000D03*
D17*
X187920000Y-96725000D03*
X190460000Y-96725000D03*
X195540000Y-96725000D03*
X198080000Y-96725000D03*
X187920000Y-95825000D03*
X190460000Y-95825000D03*
X195540000Y-95825000D03*
X198080000Y-95825000D03*
D12*
X139275000Y-64300000D03*
X127725000Y-66500000D03*
X121275000Y-49425000D03*
X109725000Y-51625000D03*
D11*
X173650000Y-83750000D03*
X170350000Y-83750000D03*
D12*
X103275000Y-60050000D03*
X91725000Y-62250000D03*
D18*
X201115000Y-103850000D03*
X201115000Y-111150000D03*
X203325000Y-103850000D03*
X203325000Y-111150000D03*
D19*
X200465000Y-109750000D03*
X200465000Y-106750000D03*
X200465000Y-105250000D03*
D12*
X103275000Y-94050000D03*
X91725000Y-96250000D03*
D11*
X101650000Y-105000000D03*
X98350000Y-105000000D03*
X119650000Y-94375000D03*
X116350000Y-94375000D03*
X137650000Y-75250000D03*
X134350000Y-75250000D03*
G04 #@! TA.AperFunction,SMDPad,CuDef*
G36*
X195184000Y-102025000D02*
G01*
X194584000Y-102625000D01*
X195184000Y-103225000D01*
X193934000Y-103225000D01*
X193934000Y-102025000D01*
X195184000Y-102025000D01*
G37*
G04 #@! TD.AperFunction*
G04 #@! TA.AperFunction,SMDPad,CuDef*
G36*
X195184000Y-104025000D02*
G01*
X194584000Y-104625000D01*
X195184000Y-105225000D01*
X193934000Y-105225000D01*
X193934000Y-104025000D01*
X195184000Y-104025000D01*
G37*
G04 #@! TD.AperFunction*
D20*
X197000000Y-102625000D03*
X197000000Y-104625000D03*
G04 #@! TA.AperFunction,SMDPad,CuDef*
G36*
X195400000Y-102025000D02*
G01*
X195600000Y-102025000D01*
X195600000Y-103225000D01*
X195400000Y-103225000D01*
X194800000Y-102625000D01*
X195400000Y-102025000D01*
G37*
G04 #@! TD.AperFunction*
G04 #@! TA.AperFunction,SMDPad,CuDef*
G36*
X195400000Y-104025000D02*
G01*
X195600000Y-104025000D01*
X195600000Y-105225000D01*
X195400000Y-105225000D01*
X194800000Y-104625000D01*
X195400000Y-104025000D01*
G37*
G04 #@! TD.AperFunction*
D12*
X157275000Y-87675000D03*
X145725000Y-89875000D03*
D11*
X119650000Y-60375000D03*
X116350000Y-60375000D03*
D12*
X175275000Y-55800000D03*
X163725000Y-58000000D03*
X157275000Y-53675000D03*
X145725000Y-55875000D03*
G04 #@! TA.AperFunction,SMDPad,CuDef*
G36*
X188449553Y-131308085D02*
G01*
X187849553Y-132347315D01*
X187070131Y-131897315D01*
X187670131Y-130858085D01*
X188449553Y-131308085D01*
G37*
G04 #@! TD.AperFunction*
G04 #@! TA.AperFunction,SMDPad,CuDef*
G36*
X185591669Y-129658085D02*
G01*
X184991669Y-130697315D01*
X184212247Y-130247315D01*
X184812247Y-129208085D01*
X185591669Y-129658085D01*
G37*
G04 #@! TD.AperFunction*
D11*
X155650000Y-81625000D03*
X152350000Y-81625000D03*
D12*
X121275000Y-66425000D03*
X109725000Y-68625000D03*
D11*
X137650000Y-92250000D03*
X134350000Y-92250000D03*
D12*
X153675000Y-110200000D03*
X142125000Y-112400000D03*
D21*
X103275000Y-92222100D03*
X111802500Y-60649800D03*
X102910600Y-74693100D03*
X102731000Y-62307700D03*
X119525700Y-85491000D03*
X120947500Y-62811600D03*
X138745100Y-49397600D03*
X138892200Y-62267500D03*
X147001900Y-108371300D03*
X182631100Y-81436600D03*
X138892200Y-78217800D03*
X157275000Y-51255000D03*
X156043700Y-90358500D03*
X174996700Y-110447300D03*
X156892200Y-68452000D03*
X176876700Y-87439100D03*
X181407800Y-105164300D03*
X174726100Y-75423800D03*
X175275000Y-53571900D03*
X195657600Y-117350500D03*
X179447300Y-60210800D03*
X175331200Y-67689500D03*
X156601900Y-98429500D03*
X138602600Y-92239800D03*
X172660200Y-100988100D03*
X120555100Y-93469900D03*
X102616000Y-105124600D03*
X137772500Y-74143100D03*
X100732400Y-87131200D03*
X118675600Y-77025700D03*
X172681400Y-84132300D03*
X156603400Y-81828900D03*
X100673700Y-71463000D03*
X155350100Y-63503600D03*
X155650000Y-67062000D03*
X172688100Y-66857800D03*
X115502400Y-70749400D03*
X119650000Y-59241400D03*
X137879300Y-57135400D03*
X192645300Y-87312200D03*
X153006900Y-121117100D03*
X171450300Y-123092500D03*
X188620000Y-132326600D03*
X198981100Y-108250000D03*
X202730000Y-67513300D03*
X186733500Y-92427300D03*
X196810000Y-95982100D03*
X197178300Y-98463500D03*
X194230200Y-97593600D03*
X199189300Y-105250000D03*
X194772100Y-101124800D03*
D22*
X102923800Y-77401200D02*
X103275000Y-77050000D01*
X102923800Y-91870900D02*
X102923800Y-77401200D01*
X103275000Y-92222100D02*
X102923800Y-91870900D01*
D23*
X188420000Y-73745000D02*
X189600000Y-73745000D01*
D22*
X102910600Y-62307700D02*
X102910600Y-60414400D01*
X102731000Y-62307700D02*
X102910600Y-62307700D01*
X103275000Y-76249100D02*
X103275000Y-75448300D01*
X102910600Y-62307700D02*
X102910600Y-74693100D01*
X102910600Y-60414400D02*
X103275000Y-60050000D01*
X102910600Y-74693100D02*
X102910600Y-75083900D01*
X103275000Y-76249100D02*
X103275000Y-76674400D01*
X111202700Y-60050000D02*
X111802500Y-60649800D01*
X102910600Y-75083900D02*
X103275000Y-75448300D01*
X103275000Y-60050000D02*
X111202700Y-60050000D01*
X103275000Y-94050000D02*
X103275000Y-92222100D01*
X103275000Y-77050000D02*
X103275000Y-76674400D01*
X193289900Y-97185100D02*
X191821800Y-97185100D01*
X194184000Y-104625000D02*
X193632300Y-104625000D01*
X201900000Y-101321800D02*
X197695100Y-105526700D01*
X193632300Y-104625000D02*
X193289900Y-104282600D01*
D23*
X197580000Y-66125000D02*
X196990000Y-66125000D01*
X196990000Y-66125000D02*
X196695000Y-66125000D01*
D22*
X193289900Y-104282600D02*
X193289900Y-97185100D01*
X194184000Y-104625000D02*
X194184000Y-105526700D01*
D23*
X188420000Y-63585000D02*
X189600000Y-63585000D01*
D22*
X190460000Y-96725000D02*
X191361700Y-96725000D01*
D23*
X196990000Y-68665000D02*
X196400000Y-68665000D01*
D22*
X197695100Y-105526700D02*
X194184000Y-105526700D01*
X201900000Y-99750000D02*
X201900000Y-101321800D01*
X196695000Y-66125000D02*
X194155000Y-63585000D01*
X194155000Y-63585000D02*
X189600000Y-63585000D01*
X196990000Y-68665000D02*
X196990000Y-66125000D01*
X191821800Y-97185100D02*
X191361700Y-96725000D01*
X194207500Y-96267500D02*
X194207500Y-70857500D01*
X193289900Y-97185100D02*
X194207500Y-96267500D01*
D23*
X196695000Y-66125000D02*
X196400000Y-66125000D01*
D22*
X194207500Y-70857500D02*
X196400000Y-68665000D01*
D23*
X197580000Y-68665000D02*
X196990000Y-68665000D01*
D22*
X121275000Y-49425000D02*
X120947500Y-49752500D01*
X120910000Y-66790000D02*
X120910000Y-81458300D01*
X121275000Y-83425000D02*
X121275000Y-81823300D01*
X121275000Y-65624100D02*
X121275000Y-64823300D01*
X120947500Y-62811600D02*
X120947500Y-64495800D01*
X120910000Y-81458300D02*
X121275000Y-81823300D01*
X121275000Y-65624100D02*
X121275000Y-66425000D01*
X121275000Y-66425000D02*
X120910000Y-66790000D01*
X121275000Y-83425000D02*
X119525700Y-85174300D01*
D23*
X188420000Y-76285000D02*
X189600000Y-76285000D01*
D22*
X119525700Y-85174300D02*
X119525700Y-85491000D01*
X120947500Y-64495800D02*
X121275000Y-64823300D01*
X120947500Y-49752500D02*
X120947500Y-62811600D01*
X138892200Y-79315500D02*
X138892200Y-78217800D01*
X147001900Y-108371300D02*
X147001900Y-95069600D01*
X139275000Y-79698300D02*
X138892200Y-79315500D01*
X138892200Y-49397600D02*
X138745100Y-49397600D01*
X138892200Y-78217800D02*
X138892200Y-64682800D01*
X189010000Y-78825000D02*
X187838800Y-77653800D01*
X139275000Y-64300000D02*
X139275000Y-63272800D01*
X147001900Y-95069600D02*
X138893600Y-86961300D01*
X139275000Y-63272800D02*
X138892200Y-62890000D01*
X139275000Y-81300000D02*
X139275000Y-79698300D01*
X138892200Y-64682800D02*
X139275000Y-64300000D01*
X149545500Y-112251700D02*
X147001900Y-109708100D01*
X182631100Y-79932400D02*
X182631100Y-81436600D01*
X151623300Y-112251700D02*
X149545500Y-112251700D01*
X138892200Y-62267500D02*
X138892200Y-49397600D01*
D23*
X189010000Y-78825000D02*
X189600000Y-78825000D01*
D22*
X147001900Y-109708100D02*
X147001900Y-108371300D01*
X138892200Y-62890000D02*
X138892200Y-62267500D01*
X138892200Y-49397600D02*
X138892200Y-47682800D01*
X187838800Y-77653800D02*
X184909700Y-77653800D01*
X138892200Y-47682800D02*
X139275000Y-47300000D01*
X153675000Y-110200000D02*
X151623300Y-112251700D01*
X184909700Y-77653800D02*
X182631100Y-79932400D01*
X138893600Y-81681400D02*
X139275000Y-81300000D01*
D23*
X188420000Y-78825000D02*
X189010000Y-78825000D01*
D22*
X138893600Y-86961300D02*
X138893600Y-81681400D01*
X157275000Y-53675000D02*
X156892200Y-54057800D01*
X157275000Y-87675000D02*
X157275000Y-74150300D01*
X174996700Y-111382100D02*
X174996700Y-110447300D01*
X174996700Y-113869400D02*
X175522300Y-111907700D01*
X156892200Y-73767500D02*
X156892200Y-71057800D01*
X161798500Y-89707900D02*
X159765600Y-87675000D01*
D23*
X188420000Y-81365000D02*
X189010000Y-81365000D01*
D22*
X174996700Y-110447300D02*
X161798500Y-97249100D01*
X157275000Y-74150300D02*
X156892200Y-73767500D01*
X159765600Y-87675000D02*
X157275000Y-87675000D01*
D23*
X189010000Y-81365000D02*
X189600000Y-81365000D01*
D22*
X175522400Y-111907700D02*
X175522300Y-111907700D01*
X156892200Y-68690500D02*
X156892200Y-68452000D01*
X156892200Y-54057800D02*
X156892200Y-68452000D01*
X161798500Y-97249100D02*
X161798500Y-89707900D01*
X157275000Y-70675000D02*
X157275000Y-69073300D01*
X156892200Y-71057800D02*
X157275000Y-70675000D01*
X184997700Y-82635000D02*
X182725400Y-84907300D01*
X175522300Y-111907700D02*
X174996700Y-111382100D01*
X157275000Y-69073300D02*
X156892200Y-68690500D01*
X187740000Y-82635000D02*
X184997700Y-82635000D01*
X157275000Y-52073300D02*
X157275000Y-51255000D01*
X156043700Y-88906300D02*
X157275000Y-87675000D01*
X182725400Y-84907300D02*
X182725400Y-104704700D01*
X156043700Y-90358500D02*
X156043700Y-88906300D01*
X189010000Y-81365000D02*
X187740000Y-82635000D01*
X157275000Y-53675000D02*
X157275000Y-52073300D01*
X182725400Y-104704700D02*
X175522400Y-111907700D01*
D23*
X188420000Y-83905000D02*
X189600000Y-83905000D01*
D22*
X174729500Y-56345500D02*
X174729500Y-70652800D01*
X174892200Y-87815500D02*
X174892200Y-75423800D01*
X175275000Y-72800000D02*
X175275000Y-71198300D01*
X175275000Y-89800000D02*
X176876700Y-89800000D01*
X175275000Y-88198300D02*
X174892200Y-87815500D01*
X174892200Y-73182800D02*
X175275000Y-72800000D01*
X175275000Y-55800000D02*
X174729500Y-56345500D01*
X176876700Y-89800000D02*
X176876700Y-87439100D01*
X194642100Y-122932100D02*
X195657600Y-121173200D01*
X181407800Y-93433800D02*
X181407800Y-105164300D01*
X174729500Y-70652800D02*
X175275000Y-71198300D01*
X175275000Y-54198300D02*
X175275000Y-53571900D01*
X174726100Y-75423800D02*
X174892200Y-75423800D01*
X176876700Y-89800000D02*
X177774000Y-89800000D01*
X177774000Y-89800000D02*
X181407800Y-93433800D01*
X175275000Y-55800000D02*
X175275000Y-54198300D01*
X195657600Y-121173200D02*
X195657600Y-117350500D01*
X174892200Y-75423800D02*
X174892200Y-73182800D01*
X175275000Y-89800000D02*
X175275000Y-88198300D01*
X179447300Y-63573400D02*
X175331200Y-67689500D01*
X179447300Y-60210800D02*
X179447300Y-63573400D01*
X172660200Y-100988100D02*
X172898300Y-100750000D01*
X119650000Y-94375000D02*
X120401700Y-94375000D01*
D23*
X197580000Y-83905000D02*
X196400000Y-83905000D01*
D22*
X137650000Y-92250000D02*
X138592400Y-92250000D01*
X102491400Y-105000000D02*
X102616000Y-105124600D01*
X156406400Y-98625000D02*
X156601900Y-98429500D01*
X120401700Y-93623300D02*
X120555100Y-93469900D01*
X101650000Y-105000000D02*
X102491400Y-105000000D01*
X138592400Y-92250000D02*
X138602600Y-92239800D01*
X120401700Y-94375000D02*
X120401700Y-93623300D01*
X155650000Y-98625000D02*
X156406400Y-98625000D01*
X173650000Y-100750000D02*
X172898300Y-100750000D01*
X118898300Y-77375000D02*
X118898300Y-77248400D01*
X119650000Y-77375000D02*
X118898300Y-77375000D01*
X118898300Y-77248400D02*
X118675600Y-77025700D01*
X137650000Y-75250000D02*
X137650000Y-74348300D01*
X173650000Y-83750000D02*
X172898300Y-83750000D01*
X172898300Y-83915400D02*
X172681400Y-84132300D01*
X172898300Y-83750000D02*
X172898300Y-83915400D01*
X100898300Y-87297100D02*
X100732400Y-87131200D01*
X137650000Y-74348300D02*
X137772500Y-74225800D01*
X156401700Y-81627200D02*
X156603400Y-81828900D01*
X155650000Y-81625000D02*
X156401700Y-81625000D01*
X101650000Y-88000000D02*
X100898300Y-88000000D01*
D23*
X197580000Y-81365000D02*
X196400000Y-81365000D01*
D22*
X100898300Y-88000000D02*
X100898300Y-87297100D01*
X137772500Y-74225800D02*
X137772500Y-74143100D01*
X156401700Y-81625000D02*
X156401700Y-81627200D01*
X119650000Y-59924100D02*
X119650000Y-59473300D01*
X115502400Y-64071700D02*
X115502400Y-70749400D01*
D23*
X197580000Y-78825000D02*
X196400000Y-78825000D01*
D22*
X172795900Y-66750000D02*
X172688100Y-66857800D01*
X173650000Y-66750000D02*
X172795900Y-66750000D01*
X119650000Y-59473300D02*
X119650000Y-59241400D01*
X100898300Y-71238400D02*
X100898300Y-71000000D01*
X155650000Y-64625000D02*
X155650000Y-63723300D01*
X155650000Y-63723300D02*
X155569800Y-63723300D01*
X119650000Y-60375000D02*
X119650000Y-59924100D01*
X100673700Y-71463000D02*
X100898300Y-71238400D01*
X137666400Y-57348300D02*
X137879300Y-57135400D01*
X155650000Y-64625000D02*
X155650000Y-67062000D01*
X137650000Y-58250000D02*
X137650000Y-57348300D01*
X119650000Y-59924100D02*
X115502400Y-64071700D01*
X137650000Y-57348300D02*
X137666400Y-57348300D01*
X101650000Y-71000000D02*
X100898300Y-71000000D01*
X155569800Y-63723300D02*
X155350100Y-63503600D01*
X186899600Y-131106000D02*
X186899600Y-130742500D01*
X152974000Y-121150000D02*
X153006900Y-121117100D01*
X152050000Y-121150000D02*
X152974000Y-121150000D01*
D23*
X197580000Y-86445000D02*
X196400000Y-86445000D01*
D22*
X171163200Y-122960100D02*
X171295600Y-123092500D01*
X188620100Y-132099400D02*
X188620000Y-132099500D01*
X189269000Y-90866600D02*
X192645300Y-87490300D01*
X186569700Y-125366600D02*
X188890800Y-123045500D01*
X171295600Y-123092500D02*
X171450300Y-123092500D01*
X189269000Y-115486100D02*
X189269000Y-90866600D01*
X170878500Y-122960100D02*
X171163200Y-122960100D01*
X188890800Y-115864300D02*
X189269000Y-115486100D01*
X187759800Y-131602700D02*
X188620100Y-132099400D01*
X170593000Y-124025700D02*
X170878500Y-122960100D01*
X186569700Y-130412600D02*
X186569700Y-125366600D01*
X192645300Y-87490300D02*
X192645300Y-87312200D01*
X188620000Y-132099500D02*
X188620000Y-132326600D01*
X188890800Y-123045500D02*
X188890800Y-115864300D01*
X187759800Y-131602700D02*
X186899600Y-131106000D01*
X186899600Y-130742500D02*
X186569700Y-130412600D01*
X98350000Y-105000000D02*
X97358100Y-105000000D01*
X91725000Y-99366900D02*
X91725000Y-96250000D01*
X97358100Y-105000000D02*
X91725000Y-99366900D01*
X97367600Y-88000000D02*
X91725000Y-82357400D01*
X91725000Y-82357400D02*
X91725000Y-79250000D01*
X98350000Y-88000000D02*
X97367600Y-88000000D01*
X98350000Y-71000000D02*
X97367600Y-71000000D01*
X91725000Y-65357400D02*
X91725000Y-62250000D01*
X97367600Y-71000000D02*
X91725000Y-65357400D01*
X116350000Y-94375000D02*
X116350000Y-91055800D01*
X111794900Y-87694900D02*
X109725000Y-85625000D01*
X116350000Y-91055800D02*
X112989100Y-87694900D01*
X112989100Y-87694900D02*
X111794900Y-87694900D01*
X116350000Y-74055800D02*
X112989100Y-70694900D01*
X111794900Y-70694900D02*
X109725000Y-68625000D01*
X116350000Y-77375000D02*
X116350000Y-74055800D01*
X112989100Y-70694900D02*
X111794900Y-70694900D01*
X109725000Y-54732400D02*
X109725000Y-51625000D01*
X116350000Y-60375000D02*
X115367600Y-60375000D01*
X115367600Y-60375000D02*
X109725000Y-54732400D01*
X134350000Y-92250000D02*
X133338400Y-92250000D01*
X127725000Y-86636600D02*
X127725000Y-83500000D01*
X133338400Y-92250000D02*
X127725000Y-86636600D01*
X127725000Y-69607400D02*
X127725000Y-66500000D01*
X134350000Y-75250000D02*
X133367600Y-75250000D01*
X133367600Y-75250000D02*
X127725000Y-69607400D01*
X133367600Y-58250000D02*
X127725000Y-52607400D01*
X127725000Y-52607400D02*
X127725000Y-49500000D01*
X134350000Y-58250000D02*
X133367600Y-58250000D01*
X152350000Y-98625000D02*
X151308500Y-98625000D01*
X145725000Y-93041500D02*
X145725000Y-89875000D01*
X151308500Y-98625000D02*
X145725000Y-93041500D01*
X152350000Y-81625000D02*
X152350000Y-78305800D01*
X152350000Y-78305800D02*
X148989100Y-74944900D01*
X147794900Y-74944900D02*
X145725000Y-72875000D01*
X148989100Y-74944900D02*
X147794900Y-74944900D01*
X152350000Y-64625000D02*
X152350000Y-61305800D01*
X147794900Y-57944900D02*
X145725000Y-55875000D01*
X148989100Y-57944900D02*
X147794900Y-57944900D01*
X152350000Y-61305800D02*
X148989100Y-57944900D01*
X170350000Y-100750000D02*
X169339300Y-100750000D01*
X169339300Y-100750000D02*
X163725000Y-95135700D01*
X163725000Y-95135700D02*
X163725000Y-92000000D01*
X169367600Y-83750000D02*
X163725000Y-78107400D01*
X163725000Y-78107400D02*
X163725000Y-75000000D01*
X170350000Y-83750000D02*
X169367600Y-83750000D01*
X163725000Y-61142900D02*
X163725000Y-58000000D01*
X169332100Y-66750000D02*
X163725000Y-61142900D01*
X170350000Y-66750000D02*
X169332100Y-66750000D01*
X148750000Y-121150000D02*
X147754100Y-121150000D01*
X147754100Y-121150000D02*
X142125000Y-115520900D01*
X142125000Y-115520900D02*
X142125000Y-112400000D01*
X167405400Y-123171500D02*
X166446000Y-122914400D01*
X162745300Y-114966700D02*
X162745200Y-114966700D01*
X163270800Y-113005100D02*
X162745200Y-114966700D01*
X163270800Y-119036900D02*
X163270800Y-115492200D01*
X166446000Y-122914400D02*
X166446000Y-122212100D01*
X163270800Y-115492200D02*
X162745300Y-114966700D01*
X166446000Y-122212100D02*
X163270800Y-119036900D01*
X188430200Y-122212200D02*
X187774100Y-122868300D01*
X187137100Y-124071200D02*
X187137100Y-124073300D01*
X185453600Y-126322900D02*
X185453600Y-128997300D01*
X187236700Y-118597400D02*
X188430200Y-119790900D01*
X187774100Y-122868300D02*
X187774100Y-123434200D01*
X183539500Y-119062400D02*
X184004500Y-118597400D01*
X188430200Y-119790900D02*
X188430200Y-122212200D01*
X184004500Y-118597400D02*
X187236700Y-118597400D01*
X184902000Y-129952700D02*
X185453600Y-128997300D01*
X185875200Y-125901300D02*
X185453600Y-126322900D01*
X185875200Y-125335200D02*
X185875200Y-125901300D01*
X187774100Y-123434200D02*
X187137100Y-124071200D01*
X187137100Y-124073300D02*
X185875200Y-125335200D01*
X201791800Y-107025100D02*
X202622600Y-107025100D01*
X200465000Y-106750000D02*
X199413300Y-106750000D01*
D23*
X188420000Y-61045000D02*
X189600000Y-61045000D01*
D22*
X192856600Y-61045000D02*
X189600000Y-61045000D01*
X196619900Y-64808300D02*
X192856600Y-61045000D01*
X202623300Y-104475000D02*
X202623300Y-101773800D01*
X203349500Y-101047600D02*
X203349500Y-67212300D01*
X202622600Y-107025100D02*
X203250700Y-106397000D01*
X202623300Y-101773800D02*
X203349500Y-101047600D01*
X203250700Y-106397000D02*
X203250700Y-105102400D01*
X203349500Y-67212300D02*
X200945500Y-64808300D01*
X200945500Y-64808300D02*
X196619900Y-64808300D01*
X201516700Y-106750000D02*
X201791800Y-107025100D01*
X200465000Y-106750000D02*
X201516700Y-106750000D01*
X198981100Y-107182200D02*
X199413300Y-106750000D01*
X203250700Y-105102400D02*
X202623300Y-104475000D01*
X198981100Y-108250000D02*
X198981100Y-107182200D01*
X202730000Y-92420000D02*
X202730000Y-67513300D01*
D23*
X188420000Y-66125000D02*
X189600000Y-66125000D01*
D22*
X201900000Y-93250000D02*
X202730000Y-92420000D01*
X193247000Y-72607000D02*
X189305000Y-68665000D01*
D23*
X189305000Y-68665000D02*
X189600000Y-68665000D01*
D22*
X193000000Y-92923300D02*
X193247000Y-92676300D01*
X193000000Y-94075000D02*
X193000000Y-92923300D01*
X193247000Y-92676300D02*
X193247000Y-72607000D01*
D23*
X188420000Y-68665000D02*
X189305000Y-68665000D01*
X188420000Y-71205000D02*
X189600000Y-71205000D01*
X188420000Y-86445000D02*
X189600000Y-86445000D01*
X188420000Y-88985000D02*
X189600000Y-88985000D01*
X197580000Y-61045000D02*
X196400000Y-61045000D01*
X197580000Y-63585000D02*
X196400000Y-63585000D01*
X197580000Y-71205000D02*
X196400000Y-71205000D01*
X197580000Y-73745000D02*
X196400000Y-73745000D01*
D22*
X196990000Y-76285000D02*
X195649300Y-77625700D01*
X187920000Y-96725000D02*
X187018300Y-96725000D01*
D23*
X197580000Y-76285000D02*
X196990000Y-76285000D01*
D22*
X195649300Y-77625700D02*
X195649300Y-91175000D01*
X195649300Y-91175000D02*
X196810000Y-92335700D01*
X187018300Y-96725000D02*
X186733500Y-96440200D01*
D23*
X196990000Y-76285000D02*
X196400000Y-76285000D01*
D22*
X186733500Y-96440200D02*
X186733500Y-92427300D01*
X196810000Y-92335700D02*
X196810000Y-95982100D01*
D23*
X197580000Y-88985000D02*
X196400000Y-88985000D01*
D22*
X187500000Y-61045000D02*
X187520000Y-61045000D01*
D23*
X185380000Y-61045000D02*
X187500000Y-61045000D01*
X198500000Y-61045000D02*
X200620000Y-61045000D01*
D22*
X198500000Y-61045000D02*
X198480000Y-61045000D01*
D23*
X185380000Y-63585000D02*
X187500000Y-63585000D01*
D22*
X187500000Y-63585000D02*
X187520000Y-63585000D01*
X198500000Y-63585000D02*
X198480000Y-63585000D01*
D23*
X198500000Y-63585000D02*
X200620000Y-63585000D01*
X185380000Y-66125000D02*
X187500000Y-66125000D01*
D22*
X187500000Y-66125000D02*
X187520000Y-66125000D01*
X198500000Y-66125000D02*
X198480000Y-66125000D01*
D23*
X198500000Y-66125000D02*
X200620000Y-66125000D01*
D22*
X187500000Y-68665000D02*
X187520000Y-68665000D01*
D23*
X185380000Y-68665000D02*
X187500000Y-68665000D01*
D22*
X198500000Y-68665000D02*
X198480000Y-68665000D01*
D23*
X198500000Y-68665000D02*
X200620000Y-68665000D01*
D22*
X187500000Y-71205000D02*
X187520000Y-71205000D01*
D23*
X185380000Y-71205000D02*
X187500000Y-71205000D01*
D22*
X198500000Y-71205000D02*
X198480000Y-71205000D01*
D23*
X198500000Y-71205000D02*
X200620000Y-71205000D01*
D22*
X187500000Y-73745000D02*
X187520000Y-73745000D01*
D23*
X185380000Y-73745000D02*
X187500000Y-73745000D01*
X198500000Y-73745000D02*
X200620000Y-73745000D01*
D22*
X198500000Y-73745000D02*
X198480000Y-73745000D01*
D23*
X185380000Y-76285000D02*
X187500000Y-76285000D01*
D22*
X187500000Y-76285000D02*
X187520000Y-76285000D01*
D23*
X198500000Y-76285000D02*
X200620000Y-76285000D01*
D22*
X198500000Y-76285000D02*
X198480000Y-76285000D01*
D23*
X185380000Y-78825000D02*
X187500000Y-78825000D01*
D22*
X187500000Y-78825000D02*
X187520000Y-78825000D01*
X198500000Y-78825000D02*
X198480000Y-78825000D01*
D23*
X198500000Y-78825000D02*
X200620000Y-78825000D01*
X185380000Y-81365000D02*
X187500000Y-81365000D01*
D22*
X187500000Y-81365000D02*
X187520000Y-81365000D01*
D23*
X198500000Y-81365000D02*
X200620000Y-81365000D01*
D22*
X198500000Y-81365000D02*
X198480000Y-81365000D01*
D23*
X185380000Y-83905000D02*
X187500000Y-83905000D01*
D22*
X187500000Y-83905000D02*
X187520000Y-83905000D01*
X198500000Y-83905000D02*
X198480000Y-83905000D01*
D23*
X198500000Y-83905000D02*
X200620000Y-83905000D01*
D22*
X187500000Y-86445000D02*
X187520000Y-86445000D01*
D23*
X185380000Y-86445000D02*
X187500000Y-86445000D01*
X198500000Y-86445000D02*
X200620000Y-86445000D01*
D22*
X198500000Y-86445000D02*
X198480000Y-86445000D01*
X187500000Y-88985000D02*
X187520000Y-88985000D01*
D23*
X185380000Y-88985000D02*
X187500000Y-88985000D01*
D22*
X198500000Y-88985000D02*
X198480000Y-88985000D01*
D23*
X198500000Y-88985000D02*
X200620000Y-88985000D01*
D22*
X197178300Y-96725000D02*
X197178300Y-98463500D01*
X198080000Y-96725000D02*
X197178300Y-96725000D01*
X194230200Y-97593600D02*
X194230200Y-97133100D01*
X194230200Y-97133100D02*
X194638300Y-96725000D01*
X195540000Y-96725000D02*
X194638300Y-96725000D01*
D23*
X187920000Y-94075000D02*
X187920000Y-95825000D01*
X190460000Y-94075000D02*
X190460000Y-95825000D01*
X195540000Y-94075000D02*
X195540000Y-95825000D01*
X198080000Y-94075000D02*
X198080000Y-95825000D01*
D22*
X194772100Y-101124800D02*
X194184000Y-101712900D01*
X194184000Y-101712900D02*
X194184000Y-102625000D01*
X200465000Y-105250000D02*
X199579600Y-105250000D01*
X199579600Y-105250000D02*
X199189300Y-105250000D01*
D23*
X195200000Y-102625000D02*
X197000000Y-102625000D01*
X195200000Y-104625000D02*
X197000000Y-104625000D01*
M02*
