G04 #@! TF.GenerationSoftware,KiCad,Pcbnew,8.0.6+1*
G04 #@! TF.CreationDate,2024-12-31T16:22:39+00:00*
G04 #@! TF.ProjectId,corney_island_wireless_autorouted,636f726e-6579-45f6-9973-6c616e645f77,0.2*
G04 #@! TF.SameCoordinates,Original*
G04 #@! TF.FileFunction,Copper,L2,Bot*
G04 #@! TF.FilePolarity,Positive*
%FSLAX46Y46*%
G04 Gerber Fmt 4.6, Leading zero omitted, Abs format (unit mm)*
G04 Created by KiCad (PCBNEW 8.0.6+1) date 2024-12-31 16:22:39*
%MOMM*%
%LPD*%
G01*
G04 APERTURE LIST*
G04 #@! TA.AperFunction,ComponentPad*
%ADD10C,2.000000*%
G04 #@! TD*
G04 #@! TA.AperFunction,ComponentPad*
%ADD11C,1.700000*%
G04 #@! TD*
G04 #@! TA.AperFunction,SMDPad,CuDef*
%ADD12R,0.600000X1.200000*%
G04 #@! TD*
G04 #@! TA.AperFunction,ComponentPad*
%ADD13C,0.800000*%
G04 #@! TD*
G04 #@! TA.AperFunction,ComponentPad*
%ADD14O,1.700000X1.700000*%
G04 #@! TD*
G04 #@! TA.AperFunction,SMDPad,CuDef*
%ADD15R,1.200000X0.600000*%
G04 #@! TD*
G04 #@! TA.AperFunction,SMDPad,CuDef*
%ADD16R,0.800000X1.000000*%
G04 #@! TD*
G04 #@! TA.AperFunction,SMDPad,CuDef*
%ADD17R,1.500000X0.700000*%
G04 #@! TD*
G04 #@! TA.AperFunction,ComponentPad*
%ADD18O,1.750000X1.200000*%
G04 #@! TD*
G04 #@! TA.AperFunction,SMDPad,CuDef*
%ADD19R,0.900000X1.200000*%
G04 #@! TD*
G04 #@! TA.AperFunction,SMDPad,CuDef*
%ADD20R,2.600000X2.600000*%
G04 #@! TD*
G04 #@! TA.AperFunction,ViaPad*
%ADD21C,0.600000*%
G04 #@! TD*
G04 #@! TA.AperFunction,Conductor*
%ADD22C,0.200000*%
G04 #@! TD*
G04 #@! TA.AperFunction,Conductor*
%ADD23C,0.250000*%
G04 #@! TD*
G04 APERTURE END LIST*
D10*
X201900000Y-93250000D03*
X201900000Y-99750000D03*
D11*
X200620000Y-61045000D03*
X200620000Y-63585000D03*
X200620000Y-66125000D03*
X200620000Y-68665000D03*
X200620000Y-71205000D03*
X200620000Y-73745000D03*
X200620000Y-76285000D03*
X200620000Y-78825000D03*
X200620000Y-81365000D03*
X200620000Y-83905000D03*
X200620000Y-86445000D03*
X200620000Y-88985000D03*
X185380000Y-88985000D03*
D12*
X187520000Y-88985000D03*
X198480000Y-88985000D03*
D11*
X185380000Y-86445000D03*
D12*
X187520000Y-86445000D03*
X198480000Y-86445000D03*
D11*
X185380000Y-83905000D03*
D12*
X187520000Y-83905000D03*
X198480000Y-83905000D03*
D11*
X185380000Y-81365000D03*
D12*
X187520000Y-81365000D03*
X198480000Y-81365000D03*
D11*
X185380000Y-78825000D03*
D12*
X187520000Y-78825000D03*
X198480000Y-78825000D03*
D11*
X185380000Y-76285000D03*
D12*
X187520000Y-76285000D03*
X198480000Y-76285000D03*
D11*
X185380000Y-73745000D03*
D12*
X187520000Y-73745000D03*
X198480000Y-73745000D03*
D11*
X185380000Y-71205000D03*
D12*
X187520000Y-71205000D03*
X198480000Y-71205000D03*
D11*
X185380000Y-68665000D03*
D12*
X187520000Y-68665000D03*
X198480000Y-68665000D03*
D11*
X185380000Y-66125000D03*
D12*
X187520000Y-66125000D03*
X198480000Y-66125000D03*
D11*
X185380000Y-63585000D03*
D12*
X187520000Y-63585000D03*
X198480000Y-63585000D03*
D11*
X185380000Y-61045000D03*
D12*
X187520000Y-61045000D03*
X198480000Y-61045000D03*
X188420000Y-61045000D03*
D13*
X196400000Y-61045000D03*
D12*
X188420000Y-63585000D03*
D13*
X196400000Y-63585000D03*
D12*
X188420000Y-66125000D03*
D13*
X196400000Y-66125000D03*
D12*
X188420000Y-68665000D03*
D13*
X196400000Y-68665000D03*
D12*
X188420000Y-71205000D03*
D13*
X196400000Y-71205000D03*
D12*
X188420000Y-73745000D03*
D13*
X196400000Y-73745000D03*
D12*
X188420000Y-76285000D03*
D13*
X196400000Y-76285000D03*
D12*
X188420000Y-78825000D03*
D13*
X196400000Y-78825000D03*
D12*
X188420000Y-81365000D03*
D13*
X196400000Y-81365000D03*
D12*
X188420000Y-83905000D03*
D13*
X196400000Y-83905000D03*
D12*
X188420000Y-86445000D03*
D13*
X196400000Y-86445000D03*
D12*
X188420000Y-88985000D03*
D13*
X196400000Y-88985000D03*
X189600000Y-88985000D03*
D12*
X197580000Y-88985000D03*
D13*
X189600000Y-86445000D03*
D12*
X197580000Y-86445000D03*
D13*
X189600000Y-83905000D03*
D12*
X197580000Y-83905000D03*
D13*
X189600000Y-81365000D03*
D12*
X197580000Y-81365000D03*
D13*
X189600000Y-78825000D03*
D12*
X197580000Y-78825000D03*
D13*
X189600000Y-76285000D03*
D12*
X197580000Y-76285000D03*
D13*
X189600000Y-73745000D03*
D12*
X197580000Y-73745000D03*
D13*
X189600000Y-71205000D03*
D12*
X197580000Y-71205000D03*
D13*
X189600000Y-68665000D03*
D12*
X197580000Y-68665000D03*
D13*
X189600000Y-66125000D03*
D12*
X197580000Y-66125000D03*
D13*
X189600000Y-63585000D03*
D12*
X197580000Y-63585000D03*
D13*
X189600000Y-61045000D03*
D12*
X197580000Y-61045000D03*
D14*
X187920000Y-94075000D03*
X190460000Y-94075000D03*
X193000000Y-94075000D03*
X195540000Y-94075000D03*
D11*
X198080000Y-94075000D03*
D15*
X198080000Y-96725000D03*
X195540000Y-96725000D03*
X190460000Y-96725000D03*
X187920000Y-96725000D03*
X198080000Y-95825000D03*
X195540000Y-95825000D03*
X190460000Y-95825000D03*
X187920000Y-95825000D03*
D16*
X201115000Y-103850000D03*
X201115000Y-111150000D03*
X203325000Y-103850000D03*
X203325000Y-111150000D03*
D17*
X200465000Y-105250000D03*
X200465000Y-108250000D03*
X200465000Y-109750000D03*
G04 #@! TA.AperFunction,SMDPad,CuDef*
G36*
X195184000Y-104025000D02*
G01*
X194584000Y-104625000D01*
X195184000Y-105225000D01*
X193934000Y-105225000D01*
X193934000Y-104025000D01*
X195184000Y-104025000D01*
G37*
G04 #@! TD.AperFunction*
G04 #@! TA.AperFunction,SMDPad,CuDef*
G36*
X195184000Y-102025000D02*
G01*
X194584000Y-102625000D01*
X195184000Y-103225000D01*
X193934000Y-103225000D01*
X193934000Y-102025000D01*
X195184000Y-102025000D01*
G37*
G04 #@! TD.AperFunction*
D18*
X197000000Y-102625000D03*
X197000000Y-104625000D03*
G04 #@! TA.AperFunction,SMDPad,CuDef*
G36*
X195400000Y-102025000D02*
G01*
X195600000Y-102025000D01*
X195600000Y-103225000D01*
X195400000Y-103225000D01*
X194800000Y-102625000D01*
X195400000Y-102025000D01*
G37*
G04 #@! TD.AperFunction*
G04 #@! TA.AperFunction,SMDPad,CuDef*
G36*
X195400000Y-104025000D02*
G01*
X195600000Y-104025000D01*
X195600000Y-105225000D01*
X195400000Y-105225000D01*
X194800000Y-104625000D01*
X195400000Y-104025000D01*
G37*
G04 #@! TD.AperFunction*
D19*
X119650000Y-60375000D03*
X116350000Y-60375000D03*
D20*
X150725000Y-70675000D03*
X162275000Y-72875000D03*
X168725000Y-89800000D03*
X180275000Y-92000000D03*
G04 #@! TA.AperFunction,SMDPad,CuDef*
G36*
X187193834Y-120132982D02*
G01*
X188493834Y-117881316D01*
X190745500Y-119181316D01*
X189445500Y-121432982D01*
X187193834Y-120132982D01*
G37*
G04 #@! TD.AperFunction*
G04 #@! TA.AperFunction,SMDPad,CuDef*
G36*
X196096427Y-127813238D02*
G01*
X197396427Y-125561572D01*
X199648093Y-126861572D01*
X198348093Y-129113238D01*
X196096427Y-127813238D01*
G37*
G04 #@! TD.AperFunction*
X132725000Y-81300000D03*
X144275000Y-83500000D03*
G04 #@! TA.AperFunction,SMDPad,CuDef*
G36*
X167077698Y-113093348D02*
G01*
X167750627Y-110581941D01*
X170262034Y-111254870D01*
X169589105Y-113766277D01*
X167077698Y-113093348D01*
G37*
G04 #@! TD.AperFunction*
G04 #@! TA.AperFunction,SMDPad,CuDef*
G36*
X177664740Y-118207745D02*
G01*
X178337669Y-115696338D01*
X180849076Y-116369267D01*
X180176147Y-118880674D01*
X177664740Y-118207745D01*
G37*
G04 #@! TD.AperFunction*
D19*
X137650000Y-92250000D03*
X134350000Y-92250000D03*
D20*
X96725000Y-60050000D03*
X108275000Y-62250000D03*
G04 #@! TA.AperFunction,SMDPad,CuDef*
G36*
X188449553Y-131308085D02*
G01*
X187849553Y-132347315D01*
X187070131Y-131897315D01*
X187670131Y-130858085D01*
X188449553Y-131308085D01*
G37*
G04 #@! TD.AperFunction*
G04 #@! TA.AperFunction,SMDPad,CuDef*
G36*
X185591669Y-129658085D02*
G01*
X184991669Y-130697315D01*
X184212247Y-130247315D01*
X184812247Y-129208085D01*
X185591669Y-129658085D01*
G37*
G04 #@! TD.AperFunction*
X114725000Y-66425000D03*
X126275000Y-68625000D03*
D19*
X173650000Y-100750000D03*
X170350000Y-100750000D03*
G04 #@! TA.AperFunction,SMDPad,CuDef*
G36*
X171182936Y-123562563D02*
G01*
X170872353Y-124721674D01*
X170003020Y-124488737D01*
X170313603Y-123329626D01*
X171182936Y-123562563D01*
G37*
G04 #@! TD.AperFunction*
G04 #@! TA.AperFunction,SMDPad,CuDef*
G36*
X167995380Y-122708463D02*
G01*
X167684797Y-123867574D01*
X166815464Y-123634637D01*
X167126047Y-122475526D01*
X167995380Y-122708463D01*
G37*
G04 #@! TD.AperFunction*
D20*
X168725000Y-55800000D03*
X180275000Y-58000000D03*
X114725000Y-49425000D03*
X126275000Y-51625000D03*
X150725000Y-53675000D03*
X162275000Y-55875000D03*
D19*
X152050000Y-121150000D03*
X148750000Y-121150000D03*
X101650000Y-105000000D03*
X98350000Y-105000000D03*
X119650000Y-94375000D03*
X116350000Y-94375000D03*
D20*
X96725000Y-77050000D03*
X108275000Y-79250000D03*
X168725000Y-72800000D03*
X180275000Y-75000000D03*
D19*
X137650000Y-75250000D03*
X134350000Y-75250000D03*
D20*
X150725000Y-87675000D03*
X162275000Y-89875000D03*
X114725000Y-83425000D03*
X126275000Y-85625000D03*
D19*
X119650000Y-77375000D03*
X116350000Y-77375000D03*
X101650000Y-71000000D03*
X98350000Y-71000000D03*
D20*
X132725000Y-47300000D03*
X144275000Y-49500000D03*
D19*
X137650000Y-58250000D03*
X134350000Y-58250000D03*
X173650000Y-66750000D03*
X170350000Y-66750000D03*
D20*
X132725000Y-64300000D03*
X144275000Y-66500000D03*
D19*
X155650000Y-98625000D03*
X152350000Y-98625000D03*
X101650000Y-88000000D03*
X98350000Y-88000000D03*
X155650000Y-81625000D03*
X152350000Y-81625000D03*
D20*
X147125000Y-110200000D03*
X158675000Y-112400000D03*
X96725000Y-94050000D03*
X108275000Y-96250000D03*
D19*
X173650000Y-83750000D03*
X170350000Y-83750000D03*
X155650000Y-64625000D03*
X152350000Y-64625000D03*
D21*
X103275000Y-92222100D03*
X111802500Y-60649800D03*
X102910600Y-74693100D03*
X102731000Y-62307700D03*
X119525700Y-85491000D03*
X120947500Y-62811600D03*
X138745100Y-49397600D03*
X138892200Y-62267500D03*
X147001900Y-108371300D03*
X182631100Y-81436600D03*
X138892200Y-78217800D03*
X157275000Y-51255000D03*
X156043700Y-90358500D03*
X174996700Y-110447300D03*
X156892200Y-68452000D03*
X176876700Y-87439100D03*
X181407800Y-105164300D03*
X174726100Y-75423800D03*
X175275000Y-53571900D03*
X195657600Y-117350500D03*
X179447300Y-60210800D03*
X175331200Y-67689500D03*
X156601900Y-98429500D03*
X138602600Y-92239800D03*
X172660200Y-100988100D03*
X120555100Y-93469900D03*
X102616000Y-105124600D03*
X137772500Y-74143100D03*
X100732400Y-87131200D03*
X118675600Y-77025700D03*
X172681400Y-84132300D03*
X156603400Y-81828900D03*
X100673700Y-71463000D03*
X155350100Y-63503600D03*
X155650000Y-67062000D03*
X172688100Y-66857800D03*
X115502400Y-70749400D03*
X119650000Y-59241400D03*
X137879300Y-57135400D03*
X192645300Y-87312200D03*
X153006900Y-121117100D03*
X171450300Y-123092500D03*
X188620000Y-132326600D03*
X198981100Y-108250000D03*
X202730000Y-67513300D03*
X186733500Y-92427300D03*
X196810000Y-95982100D03*
X197178300Y-98463500D03*
X194230200Y-97593600D03*
X199189300Y-105250000D03*
X194772100Y-101124800D03*
D22*
X103275000Y-93729300D02*
X103275000Y-92222100D01*
X190171800Y-73525000D02*
X189121800Y-72475000D01*
X189121800Y-72475000D02*
X184229800Y-72475000D01*
X98805700Y-96130700D02*
X100873600Y-96130700D01*
X98982700Y-62307700D02*
X102731000Y-62307700D01*
X100871600Y-79149200D02*
X102910600Y-77110200D01*
X159822800Y-64768200D02*
X157844800Y-64768200D01*
X160022800Y-64968200D02*
X159822800Y-64768200D01*
X100873600Y-96130700D02*
X103275000Y-93729300D01*
X121076100Y-61292500D02*
X112445200Y-61292500D01*
X160824000Y-64968200D02*
X160022800Y-64968200D01*
X157844800Y-64768200D02*
X156679000Y-65934000D01*
X189820000Y-73525000D02*
X189600000Y-73745000D01*
X102910600Y-77110200D02*
X102910600Y-74693100D01*
X149697200Y-65934000D02*
X145004800Y-61241600D01*
D23*
X196100000Y-73020000D02*
X195595000Y-73525000D01*
X196700000Y-73020000D02*
X196100000Y-73020000D01*
D22*
X161224200Y-64568000D02*
X160824000Y-64968200D01*
X156679000Y-65934000D02*
X149697200Y-65934000D01*
X145004800Y-61241600D02*
X121127000Y-61241600D01*
D23*
X195595000Y-73525000D02*
X190171800Y-73525000D01*
D22*
X96725000Y-94050000D02*
X98805700Y-96130700D01*
X96725000Y-77050000D02*
X98824200Y-79149200D01*
D23*
X190171800Y-73525000D02*
X189820000Y-73525000D01*
D22*
X121127000Y-61241600D02*
X121076100Y-61292500D01*
X112445200Y-61292500D02*
X111802500Y-60649800D01*
X96725000Y-60050000D02*
X98982700Y-62307700D01*
X98824200Y-79149200D02*
X100871600Y-79149200D01*
D23*
X197775000Y-73745000D02*
X197580000Y-73745000D01*
X197580000Y-73745000D02*
X197425000Y-73745000D01*
D22*
X184229800Y-72475000D02*
X176322800Y-64568000D01*
D23*
X197425000Y-73745000D02*
X196700000Y-73020000D01*
D22*
X176322800Y-64568000D02*
X161224200Y-64568000D01*
X99101700Y-105000000D02*
X100979300Y-103122400D01*
X100979300Y-103122400D02*
X104598900Y-103122400D01*
X98350000Y-105000000D02*
X99101700Y-105000000D01*
X104598900Y-103122400D02*
X108275000Y-99446300D01*
X108275000Y-99446300D02*
X108275000Y-96250000D01*
D23*
X196700000Y-62860000D02*
X196100000Y-62860000D01*
D22*
X194523000Y-101726500D02*
X195021300Y-101726500D01*
D23*
X188575000Y-66125000D02*
X189300000Y-66850000D01*
D22*
X194184000Y-102625000D02*
X194184000Y-101723300D01*
D23*
X196100000Y-62860000D02*
X195595000Y-63365000D01*
D22*
X194521300Y-101724800D02*
X194523000Y-101726500D01*
X195024500Y-101723300D02*
X199926700Y-101723300D01*
D23*
X197580000Y-63585000D02*
X197425000Y-63585000D01*
D22*
X199466700Y-99750000D02*
X196441700Y-96725000D01*
X196170000Y-66355000D02*
X196400000Y-66125000D01*
X194184100Y-101723300D02*
X194185600Y-101724800D01*
X189820000Y-63365000D02*
X189600000Y-63585000D01*
X201900000Y-99750000D02*
X199466700Y-99750000D01*
D23*
X188225000Y-68665000D02*
X188420000Y-68665000D01*
X189300000Y-66850000D02*
X189900000Y-66850000D01*
X190395000Y-68895000D02*
X196170000Y-68895000D01*
X195595000Y-63365000D02*
X189820000Y-63365000D01*
D22*
X195540000Y-96725000D02*
X196441700Y-96725000D01*
D23*
X188420000Y-68665000D02*
X188575000Y-68665000D01*
D22*
X199926700Y-101723300D02*
X201900000Y-99750000D01*
D23*
X197775000Y-63585000D02*
X197580000Y-63585000D01*
X188225000Y-66125000D02*
X188420000Y-66125000D01*
D22*
X195021300Y-101726500D02*
X195024500Y-101723300D01*
D23*
X188420000Y-66125000D02*
X188575000Y-66125000D01*
X197425000Y-63585000D02*
X196700000Y-62860000D01*
X188575000Y-68665000D02*
X189300000Y-69390000D01*
D22*
X194185600Y-101724800D02*
X194521300Y-101724800D01*
D23*
X189900000Y-66850000D02*
X190395000Y-66355000D01*
X190395000Y-66355000D02*
X196170000Y-66355000D01*
D22*
X196170000Y-68895000D02*
X196400000Y-68665000D01*
D23*
X189300000Y-69390000D02*
X189900000Y-69390000D01*
X189900000Y-69390000D02*
X190395000Y-68895000D01*
D22*
X194184000Y-101723300D02*
X194184100Y-101723300D01*
X105030100Y-81319900D02*
X106205100Y-81319900D01*
X106205100Y-81319900D02*
X108275000Y-79250000D01*
X98350000Y-88000000D02*
X99101700Y-88000000D01*
X99101700Y-87248300D02*
X105030100Y-81319900D01*
X99101700Y-88000000D02*
X99101700Y-87248300D01*
X99101700Y-70248300D02*
X105030100Y-64319900D01*
X106205100Y-64319900D02*
X108275000Y-62250000D01*
X99101700Y-71000000D02*
X99101700Y-70248300D01*
X105030100Y-64319900D02*
X106205100Y-64319900D01*
X98350000Y-71000000D02*
X99101700Y-71000000D01*
X189121800Y-75015000D02*
X184422400Y-75015000D01*
X174377100Y-64969700D02*
X161390500Y-64969700D01*
X121645400Y-61725900D02*
X116736700Y-61725900D01*
D23*
X195595000Y-76065000D02*
X190171800Y-76065000D01*
D22*
X116736700Y-61725900D02*
X111970300Y-61725900D01*
X161390500Y-64969700D02*
X160990300Y-65369900D01*
X158509800Y-65984000D02*
X157197000Y-65984000D01*
X144850800Y-61655700D02*
X121715600Y-61655700D01*
X115074900Y-56436800D02*
X115074900Y-49774900D01*
X116791000Y-85491000D02*
X119525700Y-85491000D01*
X114725000Y-83425000D02*
X116791000Y-85491000D01*
X189820000Y-76065000D02*
X189600000Y-76285000D01*
X111970300Y-61725900D02*
X111165500Y-60921100D01*
D23*
X197425000Y-76285000D02*
X196700000Y-75560000D01*
D22*
X114725000Y-66425000D02*
X114725000Y-64823300D01*
X115074900Y-49774900D02*
X114725000Y-49425000D01*
X160990300Y-65369900D02*
X159856500Y-65369900D01*
D23*
X190171800Y-76065000D02*
X189820000Y-76065000D01*
D22*
X116736700Y-61725900D02*
X116736700Y-62811600D01*
X111165500Y-60346200D02*
X115074900Y-56436800D01*
D23*
X196100000Y-75560000D02*
X195595000Y-76065000D01*
D22*
X114725000Y-64823300D02*
X116736700Y-62811600D01*
D23*
X196700000Y-75560000D02*
X196100000Y-75560000D01*
D22*
X159323900Y-65169900D02*
X158509800Y-65984000D01*
X111165500Y-60921100D02*
X111165500Y-60346200D01*
X159656500Y-65169900D02*
X159323900Y-65169900D01*
X121715600Y-61655700D02*
X121645400Y-61725900D01*
X184422400Y-75015000D02*
X174377100Y-64969700D01*
D23*
X197580000Y-76285000D02*
X197425000Y-76285000D01*
D22*
X190171800Y-76065000D02*
X189121800Y-75015000D01*
X156795300Y-66385700D02*
X149580800Y-66385700D01*
X157197000Y-65984000D02*
X156795300Y-66385700D01*
X159856500Y-65369900D02*
X159656500Y-65169900D01*
X116736700Y-62811600D02*
X120947500Y-62811600D01*
D23*
X197775000Y-76285000D02*
X197580000Y-76285000D01*
D22*
X149580800Y-66385700D02*
X144850800Y-61655700D01*
X116350000Y-94375000D02*
X117101700Y-94375000D01*
X117101700Y-94375000D02*
X120600000Y-90876700D01*
X124173900Y-90876700D02*
X126275000Y-88775600D01*
X120600000Y-90876700D02*
X124173900Y-90876700D01*
X126275000Y-88775600D02*
X126275000Y-85625000D01*
X116350000Y-77375000D02*
X117101700Y-77375000D01*
X117101700Y-77375000D02*
X120600000Y-73876700D01*
X126275000Y-71736400D02*
X126275000Y-68625000D01*
X120600000Y-73876700D02*
X124134700Y-73876700D01*
X124134700Y-73876700D02*
X126275000Y-71736400D01*
X124134700Y-56876700D02*
X126275000Y-54736400D01*
X120600000Y-56876700D02*
X124134700Y-56876700D01*
X117101700Y-60375000D02*
X120600000Y-56876700D01*
X116350000Y-60375000D02*
X117101700Y-60375000D01*
X126275000Y-54736400D02*
X126275000Y-51625000D01*
D23*
X197580000Y-78825000D02*
X197425000Y-78825000D01*
X196700000Y-78100000D02*
X196100000Y-78100000D01*
D22*
X134839800Y-62185200D02*
X138809900Y-62185200D01*
X135807200Y-78217800D02*
X138892200Y-78217800D01*
X132725000Y-47300000D02*
X134822600Y-49397600D01*
X178645900Y-81436600D02*
X182631100Y-81436600D01*
X151175500Y-85104600D02*
X174977900Y-85104600D01*
X134822600Y-49397600D02*
X138745100Y-49397600D01*
X147125000Y-110200000D02*
X147125000Y-108494400D01*
X189820000Y-78605000D02*
X189600000Y-78825000D01*
X132725000Y-64300000D02*
X134839800Y-62185200D01*
D23*
X197775000Y-78825000D02*
X197580000Y-78825000D01*
X196100000Y-78100000D02*
X195595000Y-78605000D01*
D22*
X138892200Y-78217800D02*
X144288700Y-78217800D01*
X138809900Y-62185200D02*
X138892200Y-62267500D01*
D23*
X195595000Y-78605000D02*
X189820000Y-78605000D01*
D22*
X174977900Y-85104600D02*
X178645900Y-81436600D01*
X144288700Y-78217800D02*
X151175500Y-85104600D01*
X147125000Y-108494400D02*
X147001900Y-108371300D01*
X132725000Y-81300000D02*
X135807200Y-78217800D01*
D23*
X197425000Y-78825000D02*
X196700000Y-78100000D01*
D22*
X138577400Y-93174300D02*
X144275000Y-87476700D01*
X134350000Y-92250000D02*
X135101700Y-92250000D01*
X135101700Y-92250000D02*
X136026000Y-93174300D01*
X144275000Y-87476700D02*
X144275000Y-83500000D01*
X136026000Y-93174300D02*
X138577400Y-93174300D01*
X141030100Y-68569900D02*
X142205100Y-68569900D01*
X135101700Y-75250000D02*
X135101700Y-74498300D01*
X134350000Y-75250000D02*
X135101700Y-75250000D01*
X135101700Y-74498300D02*
X141030100Y-68569900D01*
X142205100Y-68569900D02*
X144275000Y-66500000D01*
X135101700Y-58250000D02*
X138545300Y-54806400D01*
X134350000Y-58250000D02*
X135101700Y-58250000D01*
X138545300Y-54806400D02*
X142157300Y-54806400D01*
X144275000Y-52688700D02*
X144275000Y-49500000D01*
X142157300Y-54806400D02*
X144275000Y-52688700D01*
X168669900Y-112174100D02*
X169195500Y-110212400D01*
X150725000Y-53675000D02*
X153145000Y-51255000D01*
D23*
X196100000Y-80640000D02*
X195595000Y-81145000D01*
X197580000Y-81365000D02*
X197425000Y-81365000D01*
D22*
X150725000Y-70675000D02*
X152948000Y-68452000D01*
X169195500Y-110212400D02*
X169802300Y-110212400D01*
X170037200Y-110447300D02*
X174996700Y-110447300D01*
X153408500Y-90358500D02*
X156043700Y-90358500D01*
D23*
X197425000Y-81365000D02*
X196700000Y-80640000D01*
X195595000Y-81145000D02*
X189820000Y-81145000D01*
D22*
X152948000Y-68452000D02*
X156892200Y-68452000D01*
D23*
X197775000Y-81365000D02*
X197580000Y-81365000D01*
X196700000Y-80640000D02*
X196100000Y-80640000D01*
D22*
X169802300Y-110212400D02*
X170037200Y-110447300D01*
X189820000Y-81145000D02*
X189600000Y-81365000D01*
X153145000Y-51255000D02*
X157275000Y-51255000D01*
X150725000Y-87675000D02*
X153408500Y-90358500D01*
X152350000Y-98625000D02*
X153101700Y-98625000D01*
X153101700Y-98625000D02*
X156502000Y-95224700D01*
X162275000Y-92996900D02*
X162275000Y-89875000D01*
X156502000Y-95224700D02*
X160047200Y-95224700D01*
X160047200Y-95224700D02*
X162275000Y-92996900D01*
X156502000Y-78224700D02*
X160047200Y-78224700D01*
X160047200Y-78224700D02*
X162275000Y-75996900D01*
X152350000Y-81625000D02*
X153101700Y-81625000D01*
X162275000Y-75996900D02*
X162275000Y-72875000D01*
X153101700Y-81625000D02*
X156502000Y-78224700D01*
X152350000Y-64625000D02*
X153101700Y-64625000D01*
X156264600Y-65526700D02*
X162275000Y-59516300D01*
X153101700Y-64625000D02*
X154003400Y-65526700D01*
X154003400Y-65526700D02*
X156264600Y-65526700D01*
X162275000Y-59516300D02*
X162275000Y-55875000D01*
X188969700Y-119657100D02*
X189985200Y-117898300D01*
X181615200Y-82700600D02*
X189187400Y-82700600D01*
D23*
X190171800Y-83685000D02*
X189820000Y-83685000D01*
D22*
X189985200Y-117898300D02*
X190533000Y-117350500D01*
D23*
X196700000Y-83180000D02*
X196100000Y-83180000D01*
D22*
X190533000Y-114289500D02*
X181407800Y-105164300D01*
D23*
X195595000Y-83685000D02*
X190171800Y-83685000D01*
D22*
X171085900Y-87439100D02*
X176876700Y-87439100D01*
D23*
X197425000Y-83905000D02*
X196700000Y-83180000D01*
D22*
X190533000Y-117350500D02*
X195657600Y-117350500D01*
X171348800Y-75423800D02*
X174726100Y-75423800D01*
X168725000Y-72800000D02*
X171348800Y-75423800D01*
X168725000Y-89800000D02*
X171085900Y-87439100D01*
X168725000Y-55800000D02*
X170953100Y-53571900D01*
D23*
X197580000Y-83905000D02*
X197425000Y-83905000D01*
D22*
X189820000Y-83685000D02*
X189600000Y-83905000D01*
D23*
X197775000Y-83905000D02*
X197580000Y-83905000D01*
X196100000Y-83180000D02*
X195595000Y-83685000D01*
D22*
X176876700Y-87439100D02*
X181615200Y-82700600D01*
X189187400Y-82700600D02*
X190171800Y-83685000D01*
X190533000Y-117350500D02*
X190533000Y-114289500D01*
X170953100Y-53571900D02*
X175275000Y-53571900D01*
X171101700Y-100750000D02*
X171101700Y-99998300D01*
X170350000Y-100750000D02*
X171101700Y-100750000D01*
X177030100Y-94069900D02*
X178205100Y-94069900D01*
X178205100Y-94069900D02*
X180275000Y-92000000D01*
X171101700Y-99998300D02*
X177030100Y-94069900D01*
X177030100Y-77069900D02*
X178205100Y-77069900D01*
X170350000Y-83750000D02*
X171101700Y-83750000D01*
X171101700Y-83750000D02*
X171101700Y-82998300D01*
X171101700Y-82998300D02*
X177030100Y-77069900D01*
X178205100Y-77069900D02*
X180275000Y-75000000D01*
X180056400Y-59601700D02*
X180275000Y-59601700D01*
X180275000Y-58000000D02*
X180275000Y-59601700D01*
X172041200Y-67689500D02*
X175331200Y-67689500D01*
X179447300Y-60210800D02*
X180056400Y-59601700D01*
X171101700Y-66750000D02*
X172041200Y-67689500D01*
X170350000Y-66750000D02*
X171101700Y-66750000D01*
X149501700Y-120398300D02*
X155430100Y-114469900D01*
X156605100Y-114469900D02*
X158675000Y-112400000D01*
X155430100Y-114469900D02*
X156605100Y-114469900D01*
X149501700Y-121150000D02*
X149501700Y-120398300D01*
X148750000Y-121150000D02*
X149501700Y-121150000D01*
X179256900Y-117288500D02*
X178731300Y-119250200D01*
X167405400Y-123171500D02*
X167690900Y-122106000D01*
X171481400Y-122106000D02*
X167690900Y-122106000D01*
X174900700Y-118686700D02*
X171481400Y-122106000D01*
X177560900Y-118686700D02*
X174900700Y-118686700D01*
X178731300Y-119250200D02*
X178124400Y-119250200D01*
X178124400Y-119250200D02*
X177560900Y-118686700D01*
X189055000Y-85175000D02*
X184948400Y-85175000D01*
X120370100Y-94375000D02*
X109620500Y-105124600D01*
X156406400Y-98625000D02*
X156601900Y-98429500D01*
X174661100Y-100750000D02*
X173650000Y-100750000D01*
D23*
X189300000Y-84630000D02*
X189600000Y-84630000D01*
D22*
X138602600Y-92239800D02*
X138411900Y-92239800D01*
X102616000Y-105124600D02*
X102526300Y-105124600D01*
X137650000Y-92250000D02*
X138025900Y-92250000D01*
X120555100Y-93469900D02*
X133562000Y-93469900D01*
X183025600Y-92385500D02*
X174661100Y-100750000D01*
X133562000Y-91480900D02*
X133562000Y-93469900D01*
X138025900Y-92250000D02*
X138401700Y-92250000D01*
X119650000Y-94375000D02*
X120370100Y-94375000D01*
X159824100Y-101651700D02*
X171996600Y-101651700D01*
X183025600Y-87097800D02*
X183025600Y-92385500D01*
D23*
X189600000Y-84630000D02*
X189900000Y-84630000D01*
D22*
X139627400Y-99535300D02*
X153988000Y-99535300D01*
X133562000Y-93469900D02*
X139627400Y-99535300D01*
X102526300Y-105124600D02*
X102401700Y-105000000D01*
X196170000Y-84135000D02*
X196400000Y-83905000D01*
X155650000Y-98625000D02*
X156025900Y-98625000D01*
X138025900Y-92250000D02*
X137124200Y-91348300D01*
D23*
X188225000Y-83905000D02*
X188420000Y-83905000D01*
X188575000Y-83905000D02*
X189300000Y-84630000D01*
X188420000Y-83905000D02*
X188575000Y-83905000D01*
D22*
X156025900Y-98625000D02*
X156406400Y-98625000D01*
X120370100Y-94375000D02*
X120401700Y-94375000D01*
X120401700Y-93623300D02*
X120555100Y-93469900D01*
D23*
X190395000Y-84135000D02*
X196170000Y-84135000D01*
D22*
X133694600Y-91348300D02*
X133562000Y-91480900D01*
X120401700Y-94375000D02*
X120401700Y-93623300D01*
X137124200Y-91348300D02*
X133694600Y-91348300D01*
X184948400Y-85175000D02*
X183025600Y-87097800D01*
X101650000Y-105000000D02*
X102401700Y-105000000D01*
X189600000Y-84630000D02*
X189055000Y-85175000D01*
X155650000Y-98625000D02*
X154898300Y-98625000D01*
X109620500Y-105124600D02*
X102616000Y-105124600D01*
X173650000Y-100750000D02*
X172898300Y-100750000D01*
X138411900Y-92239800D02*
X138401700Y-92250000D01*
X172660200Y-100988100D02*
X172898300Y-100750000D01*
X153988000Y-99535300D02*
X154898300Y-98625000D01*
X156601900Y-98429500D02*
X159824100Y-101651700D01*
D23*
X189900000Y-84630000D02*
X190395000Y-84135000D01*
D22*
X171996600Y-101651700D02*
X172660200Y-100988100D01*
D23*
X190395000Y-81595000D02*
X196170000Y-81595000D01*
D22*
X153961100Y-82562200D02*
X154898300Y-81625000D01*
D23*
X189300000Y-82090000D02*
X189900000Y-82090000D01*
X188575000Y-81365000D02*
X188592500Y-81382500D01*
D22*
X137650000Y-75250000D02*
X137650000Y-76151700D01*
D23*
X189900000Y-82090000D02*
X190395000Y-81595000D01*
D22*
X149342500Y-82562200D02*
X153961100Y-82562200D01*
X101650000Y-88000000D02*
X100898300Y-88000000D01*
X156401700Y-81627200D02*
X156401700Y-81625000D01*
X100898300Y-87297100D02*
X100898300Y-88000000D01*
X172681400Y-84132300D02*
X172162000Y-84651700D01*
X155650000Y-81625000D02*
X155817800Y-81625000D01*
X187690500Y-80172600D02*
X178445200Y-80172600D01*
X188592500Y-81074600D02*
X187690500Y-80172600D01*
X137772500Y-74143100D02*
X137650000Y-74265600D01*
X174867800Y-83750000D02*
X174401700Y-83750000D01*
X144155300Y-77375000D02*
X149342500Y-82562200D01*
X102739800Y-88510200D02*
X111550200Y-79699800D01*
X173650000Y-83750000D02*
X174401700Y-83750000D01*
X119650000Y-77375000D02*
X118898300Y-77375000D01*
X100898300Y-88000000D02*
X101601200Y-88000000D01*
X159426200Y-84651700D02*
X156603400Y-81828900D01*
X119650000Y-77375000D02*
X137650000Y-77375000D01*
X156025900Y-81625000D02*
X156401700Y-81625000D01*
X196170000Y-81595000D02*
X196400000Y-81365000D01*
X118898300Y-77248400D02*
X118898300Y-77375000D01*
X101601200Y-88000000D02*
X102111400Y-88510200D01*
X102111400Y-88510200D02*
X102739800Y-88510200D01*
D23*
X188225000Y-81365000D02*
X188420000Y-81365000D01*
D22*
X178445200Y-80172600D02*
X174867800Y-83750000D01*
D23*
X188592500Y-81382500D02*
X189300000Y-82090000D01*
D22*
X137650000Y-74265600D02*
X137650000Y-75250000D01*
X111550200Y-79699800D02*
X116573500Y-79699800D01*
X172898300Y-83750000D02*
X172898300Y-83915400D01*
X172898300Y-83915400D02*
X172681400Y-84132300D01*
X118675600Y-77025700D02*
X118898300Y-77248400D01*
X100732400Y-87131200D02*
X100898300Y-87297100D01*
X173650000Y-83750000D02*
X172898300Y-83750000D01*
X156603400Y-81828900D02*
X156401700Y-81627200D01*
X188592500Y-81382500D02*
X188592500Y-81074600D01*
X137650000Y-77375000D02*
X137650000Y-76151700D01*
X116573500Y-79699800D02*
X118898300Y-77375000D01*
X156025900Y-81625000D02*
X155817800Y-81625000D01*
X155650000Y-81625000D02*
X154898300Y-81625000D01*
D23*
X188420000Y-81365000D02*
X188575000Y-81365000D01*
D22*
X172162000Y-84651700D02*
X159426200Y-84651700D01*
X137650000Y-77375000D02*
X144155300Y-77375000D01*
X157999800Y-67062000D02*
X155650000Y-67062000D01*
X148034700Y-63503600D02*
X142781100Y-58250000D01*
X196170000Y-79055000D02*
X196400000Y-78825000D01*
X183052500Y-74463500D02*
X175339000Y-66750000D01*
X161356800Y-65771600D02*
X159690200Y-65771600D01*
X137650000Y-58250000D02*
X138025900Y-58250000D01*
X136467700Y-59808200D02*
X138025900Y-58250000D01*
X171619300Y-65421400D02*
X161707000Y-65421400D01*
X155569800Y-63723300D02*
X155350100Y-63503600D01*
X185020900Y-77555000D02*
X183052500Y-75586600D01*
X137666400Y-57348300D02*
X137879300Y-57135400D01*
X138025900Y-58250000D02*
X138401700Y-58250000D01*
X142781100Y-58250000D02*
X138401700Y-58250000D01*
D23*
X188420000Y-78825000D02*
X188497500Y-78825000D01*
X189300000Y-79550000D02*
X189900000Y-79550000D01*
D22*
X100898300Y-71000000D02*
X100898300Y-71238400D01*
X172947900Y-66750000D02*
X171619300Y-65421400D01*
D23*
X189900000Y-79550000D02*
X190395000Y-79055000D01*
D22*
X155350100Y-63503600D02*
X148034700Y-63503600D01*
D23*
X188575000Y-78825000D02*
X189300000Y-79550000D01*
D22*
X159448900Y-65612900D02*
X157999800Y-67062000D01*
X120216800Y-59808200D02*
X119650000Y-59241400D01*
X120216800Y-59808200D02*
X136467700Y-59808200D01*
D23*
X188497500Y-78825000D02*
X188575000Y-78825000D01*
D22*
X137650000Y-57348300D02*
X137666400Y-57348300D01*
X173650000Y-66750000D02*
X173274200Y-66750000D01*
X161707000Y-65421400D02*
X161356800Y-65771600D01*
X101650000Y-71000000D02*
X100898300Y-71000000D01*
X102401700Y-71000000D02*
X102652300Y-70749400D01*
X172947900Y-66750000D02*
X172898300Y-66750000D01*
X137650000Y-58250000D02*
X137650000Y-57348300D01*
X188497500Y-78825000D02*
X188497500Y-78455600D01*
X100898300Y-71238400D02*
X100673700Y-71463000D01*
X175339000Y-66750000D02*
X173650000Y-66750000D01*
X173119300Y-66750000D02*
X173008800Y-66750000D01*
X101650000Y-71000000D02*
X102401700Y-71000000D01*
X155650000Y-64625000D02*
X155650000Y-63723300D01*
X172898300Y-66750000D02*
X172790500Y-66857800D01*
X172790500Y-66857800D02*
X172688100Y-66857800D01*
X159690200Y-65771600D02*
X159531500Y-65612900D01*
D23*
X188225000Y-78825000D02*
X188420000Y-78825000D01*
X190395000Y-79055000D02*
X196170000Y-79055000D01*
D22*
X173008800Y-66750000D02*
X172947900Y-66750000D01*
X155650000Y-63723300D02*
X155569800Y-63723300D01*
X188497500Y-78455600D02*
X187596900Y-77555000D01*
X183052500Y-75586600D02*
X183052500Y-74463500D01*
X159531500Y-65612900D02*
X159448900Y-65612900D01*
X173274200Y-66750000D02*
X173119300Y-66750000D01*
X119650000Y-60375000D02*
X120216800Y-59808200D01*
X187596900Y-77555000D02*
X185020900Y-77555000D01*
X102652300Y-70749400D02*
X115502400Y-70749400D01*
X170878500Y-122960100D02*
X171163200Y-122960100D01*
X196170000Y-86675000D02*
X196400000Y-86445000D01*
D23*
X189900000Y-87170000D02*
X190395000Y-86675000D01*
X189300000Y-87170000D02*
X189900000Y-87170000D01*
D22*
X171163200Y-122960100D02*
X171295600Y-123092500D01*
X187759800Y-131602700D02*
X188620100Y-132099400D01*
D23*
X188420000Y-86445000D02*
X188575000Y-86445000D01*
D22*
X156061200Y-124171400D02*
X169230800Y-124171400D01*
X193282500Y-86675000D02*
X192645300Y-87312200D01*
X171295600Y-123092500D02*
X171450300Y-123092500D01*
X169230800Y-124171400D02*
X169633500Y-123768700D01*
D23*
X193282500Y-86675000D02*
X196170000Y-86675000D01*
D22*
X152801700Y-121150000D02*
X152834600Y-121117100D01*
X188620100Y-132099400D02*
X188620000Y-132099500D01*
X152834600Y-121117100D02*
X153006900Y-121117100D01*
X153006900Y-121117100D02*
X156061200Y-124171400D01*
X170593000Y-124025700D02*
X170878500Y-122960100D01*
D23*
X188575000Y-86445000D02*
X189300000Y-87170000D01*
D22*
X188620000Y-132099500D02*
X188620000Y-132326600D01*
X169633500Y-123768700D02*
X169633500Y-123768600D01*
X170593000Y-124025700D02*
X169633500Y-123768600D01*
X152050000Y-121150000D02*
X152801700Y-121150000D01*
D23*
X190395000Y-86675000D02*
X193282500Y-86675000D01*
X188225000Y-86445000D02*
X188420000Y-86445000D01*
X196100000Y-60320000D02*
X195595000Y-60825000D01*
X197775000Y-61045000D02*
X197580000Y-61045000D01*
X195595000Y-60825000D02*
X189820000Y-60825000D01*
X196700000Y-60320000D02*
X196100000Y-60320000D01*
X197425000Y-61045000D02*
X196700000Y-60320000D01*
D22*
X189820000Y-60825000D02*
X189600000Y-61045000D01*
X200465000Y-108250000D02*
X198981100Y-108250000D01*
D23*
X197580000Y-61045000D02*
X197425000Y-61045000D01*
D22*
X198518300Y-67513300D02*
X202730000Y-67513300D01*
D23*
X195595000Y-65905000D02*
X189820000Y-65905000D01*
X196700000Y-65400000D02*
X196100000Y-65400000D01*
X196100000Y-65400000D02*
X195595000Y-65905000D01*
X197677500Y-66125000D02*
X197580000Y-66125000D01*
X197425000Y-66125000D02*
X196700000Y-65400000D01*
X197580000Y-66125000D02*
X197425000Y-66125000D01*
D22*
X189820000Y-65905000D02*
X189600000Y-66125000D01*
X197677500Y-66125000D02*
X197677500Y-66672500D01*
D23*
X197775000Y-66125000D02*
X197677500Y-66125000D01*
D22*
X197677500Y-66672500D02*
X198518300Y-67513300D01*
D23*
X195595000Y-68445000D02*
X189820000Y-68445000D01*
X197425000Y-68665000D02*
X196700000Y-67940000D01*
X196700000Y-67940000D02*
X196100000Y-67940000D01*
X196100000Y-67940000D02*
X195595000Y-68445000D01*
X197775000Y-68665000D02*
X197580000Y-68665000D01*
D22*
X189820000Y-68445000D02*
X189600000Y-68665000D01*
D23*
X197580000Y-68665000D02*
X197425000Y-68665000D01*
X197425000Y-71205000D02*
X196700000Y-70480000D01*
X196100000Y-70480000D02*
X195595000Y-70985000D01*
X195595000Y-70985000D02*
X189820000Y-70985000D01*
X196700000Y-70480000D02*
X196100000Y-70480000D01*
D22*
X189820000Y-70985000D02*
X189600000Y-71205000D01*
D23*
X197580000Y-71205000D02*
X197425000Y-71205000D01*
X197775000Y-71205000D02*
X197580000Y-71205000D01*
X197580000Y-86445000D02*
X197425000Y-86445000D01*
X196700000Y-85720000D02*
X196100000Y-85720000D01*
X197425000Y-86445000D02*
X196700000Y-85720000D01*
X196100000Y-85720000D02*
X195595000Y-86225000D01*
X197775000Y-86445000D02*
X197580000Y-86445000D01*
D22*
X189820000Y-86225000D02*
X189600000Y-86445000D01*
D23*
X195595000Y-86225000D02*
X189820000Y-86225000D01*
X197775000Y-88985000D02*
X197580000Y-88985000D01*
X197425000Y-88985000D02*
X196700000Y-88260000D01*
X196100000Y-88260000D02*
X195595000Y-88765000D01*
D22*
X189820000Y-88765000D02*
X189600000Y-88985000D01*
D23*
X197580000Y-88985000D02*
X197425000Y-88985000D01*
X196700000Y-88260000D02*
X196100000Y-88260000D01*
X195595000Y-88765000D02*
X189820000Y-88765000D01*
X188575000Y-61045000D02*
X189300000Y-61770000D01*
X190395000Y-61275000D02*
X196170000Y-61275000D01*
X189900000Y-61770000D02*
X190395000Y-61275000D01*
D22*
X196170000Y-61275000D02*
X196400000Y-61045000D01*
D23*
X189300000Y-61770000D02*
X189900000Y-61770000D01*
X188225000Y-61045000D02*
X188420000Y-61045000D01*
X188420000Y-61045000D02*
X188575000Y-61045000D01*
D22*
X196170000Y-63815000D02*
X196400000Y-63585000D01*
D23*
X188575000Y-63585000D02*
X189300000Y-64310000D01*
X189300000Y-64310000D02*
X189900000Y-64310000D01*
X189900000Y-64310000D02*
X190395000Y-63815000D01*
X188225000Y-63585000D02*
X188420000Y-63585000D01*
X190395000Y-63815000D02*
X196170000Y-63815000D01*
X188420000Y-63585000D02*
X188575000Y-63585000D01*
X189900000Y-71930000D02*
X190395000Y-71435000D01*
X188420000Y-71205000D02*
X188575000Y-71205000D01*
X189300000Y-71930000D02*
X189900000Y-71930000D01*
D22*
X196170000Y-71435000D02*
X196400000Y-71205000D01*
D23*
X190395000Y-71435000D02*
X196170000Y-71435000D01*
X188225000Y-71205000D02*
X188420000Y-71205000D01*
X188575000Y-71205000D02*
X189300000Y-71930000D01*
X188575000Y-73745000D02*
X189300000Y-74470000D01*
D22*
X196170000Y-73975000D02*
X196400000Y-73745000D01*
D23*
X188420000Y-73745000D02*
X188575000Y-73745000D01*
X188225000Y-73745000D02*
X188420000Y-73745000D01*
X189900000Y-74470000D02*
X190395000Y-73975000D01*
X189300000Y-74470000D02*
X189900000Y-74470000D01*
X190395000Y-73975000D02*
X196170000Y-73975000D01*
D22*
X199252100Y-96454600D02*
X199252100Y-93562000D01*
X196170000Y-76515000D02*
X196400000Y-76285000D01*
X198981700Y-96725000D02*
X199252100Y-96454600D01*
X197629200Y-96725000D02*
X198080000Y-96725000D01*
X196810000Y-95982100D02*
X197178300Y-96350400D01*
X198117400Y-92427300D02*
X186733500Y-92427300D01*
D23*
X188225000Y-76285000D02*
X188420000Y-76285000D01*
X189900000Y-77010000D02*
X190395000Y-76515000D01*
D22*
X197178300Y-96350400D02*
X197178300Y-96725000D01*
D23*
X188420000Y-76285000D02*
X188575000Y-76285000D01*
X189300000Y-77010000D02*
X189900000Y-77010000D01*
X188575000Y-76285000D02*
X189300000Y-77010000D01*
D22*
X199252100Y-93562000D02*
X198117400Y-92427300D01*
X198080000Y-96725000D02*
X198981700Y-96725000D01*
D23*
X190395000Y-76515000D02*
X196170000Y-76515000D01*
D22*
X197629200Y-96725000D02*
X197178300Y-96725000D01*
D23*
X189900000Y-89710000D02*
X190395000Y-89215000D01*
X188225000Y-88985000D02*
X188420000Y-88985000D01*
X190395000Y-89215000D02*
X196170000Y-89215000D01*
D22*
X196170000Y-89215000D02*
X196400000Y-88985000D01*
D23*
X188575000Y-88985000D02*
X189300000Y-89710000D01*
X189300000Y-89710000D02*
X189900000Y-89710000D01*
X188420000Y-88985000D02*
X188575000Y-88985000D01*
D22*
X187500000Y-61045000D02*
X187520000Y-61045000D01*
D23*
X185380000Y-61045000D02*
X187500000Y-61045000D01*
D22*
X198500000Y-61045000D02*
X198480000Y-61045000D01*
D23*
X200620000Y-61045000D02*
X198500000Y-61045000D01*
D22*
X187500000Y-63585000D02*
X187520000Y-63585000D01*
D23*
X185380000Y-63585000D02*
X187500000Y-63585000D01*
D22*
X198500000Y-63585000D02*
X198480000Y-63585000D01*
D23*
X200620000Y-63585000D02*
X198500000Y-63585000D01*
D22*
X187500000Y-66125000D02*
X187520000Y-66125000D01*
D23*
X185380000Y-66125000D02*
X187500000Y-66125000D01*
D22*
X198500000Y-66125000D02*
X198480000Y-66125000D01*
D23*
X200620000Y-66125000D02*
X198500000Y-66125000D01*
X185380000Y-68665000D02*
X187500000Y-68665000D01*
D22*
X187500000Y-68665000D02*
X187520000Y-68665000D01*
D23*
X200620000Y-68665000D02*
X198500000Y-68665000D01*
D22*
X198500000Y-68665000D02*
X198480000Y-68665000D01*
D23*
X185380000Y-71205000D02*
X187500000Y-71205000D01*
D22*
X187500000Y-71205000D02*
X187520000Y-71205000D01*
X198500000Y-71205000D02*
X198480000Y-71205000D01*
D23*
X200620000Y-71205000D02*
X198500000Y-71205000D01*
X185380000Y-73745000D02*
X187500000Y-73745000D01*
D22*
X187500000Y-73745000D02*
X187520000Y-73745000D01*
X198500000Y-73745000D02*
X198480000Y-73745000D01*
D23*
X200620000Y-73745000D02*
X198500000Y-73745000D01*
D22*
X187500000Y-76285000D02*
X187520000Y-76285000D01*
D23*
X185380000Y-76285000D02*
X187500000Y-76285000D01*
D22*
X198500000Y-76285000D02*
X198480000Y-76285000D01*
D23*
X200620000Y-76285000D02*
X198500000Y-76285000D01*
D22*
X187500000Y-78825000D02*
X187520000Y-78825000D01*
D23*
X185380000Y-78825000D02*
X187500000Y-78825000D01*
D22*
X198500000Y-78825000D02*
X198480000Y-78825000D01*
D23*
X200620000Y-78825000D02*
X198500000Y-78825000D01*
D22*
X187500000Y-81365000D02*
X187520000Y-81365000D01*
D23*
X185380000Y-81365000D02*
X187500000Y-81365000D01*
X200620000Y-81365000D02*
X198500000Y-81365000D01*
D22*
X198500000Y-81365000D02*
X198480000Y-81365000D01*
X187500000Y-83905000D02*
X187520000Y-83905000D01*
D23*
X185380000Y-83905000D02*
X187500000Y-83905000D01*
D22*
X198500000Y-83905000D02*
X198480000Y-83905000D01*
D23*
X200620000Y-83905000D02*
X198500000Y-83905000D01*
X185380000Y-86445000D02*
X187500000Y-86445000D01*
D22*
X187500000Y-86445000D02*
X187520000Y-86445000D01*
D23*
X200620000Y-86445000D02*
X198500000Y-86445000D01*
D22*
X198500000Y-86445000D02*
X198480000Y-86445000D01*
D23*
X185380000Y-88985000D02*
X187500000Y-88985000D01*
D22*
X187500000Y-88985000D02*
X187520000Y-88985000D01*
D23*
X200620000Y-88985000D02*
X198500000Y-88985000D01*
D22*
X198500000Y-88985000D02*
X198480000Y-88985000D01*
X188821700Y-96725000D02*
X190560200Y-98463500D01*
X187920000Y-96725000D02*
X188821700Y-96725000D01*
X190560200Y-98463500D02*
X197178300Y-98463500D01*
X194230200Y-97593600D02*
X192230300Y-97593600D01*
X190460000Y-96725000D02*
X191361700Y-96725000D01*
X192230300Y-97593600D02*
X191361700Y-96725000D01*
D23*
X187920000Y-94075000D02*
X187920000Y-95825000D01*
X190460000Y-94075000D02*
X190460000Y-95825000D01*
X195540000Y-94075000D02*
X195540000Y-95825000D01*
X198080000Y-94075000D02*
X198080000Y-95825000D01*
D22*
X193632300Y-103622400D02*
X193632300Y-101653500D01*
X193632300Y-101653500D02*
X194161000Y-101124800D01*
X200465000Y-105250000D02*
X199939200Y-105250000D01*
X194184000Y-104174100D02*
X194184000Y-103723300D01*
X194184000Y-104625000D02*
X194184000Y-104174100D01*
X194184000Y-104174100D02*
X193632300Y-103622400D01*
X194184000Y-103723300D02*
X197662600Y-103723300D01*
X199939200Y-105250000D02*
X199189300Y-105250000D01*
X194161000Y-101124800D02*
X194772100Y-101124800D01*
X197662600Y-103723300D02*
X199189300Y-105250000D01*
D23*
X195200000Y-102625000D02*
X197000000Y-102625000D01*
X195200000Y-104625000D02*
X197000000Y-104625000D01*
M02*
