M48
; DRILL file {KiCad 8.0.6+1} date 2024-11-30T16:17:57+0000
; FORMAT={-:-/ absolute / metric / decimal}
; #@! TF.CreationDate,2024-11-30T16:17:57+00:00
; #@! TF.GenerationSoftware,Kicad,Pcbnew,8.0.6+1
; #@! TF.FileFunction,Plated,1,2,PTH
FMAT,2
METRIC
; #@! TA.AperFunction,Plated,PTH,ViaDrill
T1C0.300
; #@! TA.AperFunction,Plated,PTH,ComponentDrill
T2C0.400
; #@! TA.AperFunction,Plated,PTH,ComponentDrill
T3C0.750
; #@! TA.AperFunction,Plated,PTH,ComponentDrill
T4C1.000
; #@! TA.AperFunction,Plated,PTH,ComponentDrill
T5C1.300
%
G90
G05
T1
X97.992Y-92.114
X102.534Y-87.116
X102.552Y-71.902
X102.611Y-104.831
X107.08Y-64.319
X118.693Y-66.75
X120.572Y-101.672
X120.615Y-84.045
X120.723Y-58.003
X120.723Y-75.386
X121.275Y-87.028
X137.65Y-80.514
X138.217Y-63.498
X138.62Y-98.88
X138.924Y-84.075
X138.932Y-68.53
X139.275Y-51.395
X147.033Y-110.513
X152.861Y-53.742
X153.002Y-123.259
X155.584Y-65.63
X155.584Y-69.465
X156.606Y-100.855
X156.626Y-83.472
X156.884Y-77.534
X157.275Y-87.028
X171.299Y-125.085
X172.686Y-69.27
X172.693Y-102.837
X172.695Y-86.016
X174.893Y-87.247
X174.997Y-112.801
X176.169Y-72.304
X176.877Y-55.873
X176.929Y-71.557
X182.141Y-83.66
X187.227Y-92.903
X188.42Y-67.135
X188.62Y-134.452
X193.023Y-100.086
X193.152Y-101.066
X193.195Y-74.618
X193.796Y-76.614
X194.642Y-119.474
X195.816Y-108.297
X195.906Y-101.739
X196.963Y-92.888
X199.076Y-99.375
X199.18Y-96.375
T2
X189.6Y-63.17
X189.6Y-65.71
X189.6Y-68.25
X189.6Y-70.79
X189.6Y-73.33
X189.6Y-75.87
X189.6Y-78.41
X189.6Y-80.95
X189.6Y-83.49
X189.6Y-86.03
X189.6Y-88.57
X189.6Y-91.11
X196.4Y-63.17
X196.4Y-65.71
X196.4Y-68.25
X196.4Y-70.79
X196.4Y-73.33
X196.4Y-75.87
X196.4Y-78.41
X196.4Y-80.95
X196.4Y-83.49
X196.4Y-86.03
X196.4Y-88.57
X196.4Y-91.11
T3
X193.0Y-104.75
X193.0Y-106.75
T4
X185.38Y-63.17
X185.38Y-65.71
X185.38Y-68.25
X185.38Y-70.79
X185.38Y-73.33
X185.38Y-75.87
X185.38Y-78.41
X185.38Y-80.95
X185.38Y-83.49
X185.38Y-86.03
X185.38Y-88.57
X185.38Y-91.11
X189.19Y-98.2
X191.73Y-98.2
X194.27Y-98.2
X196.81Y-98.2
X200.62Y-63.17
X200.62Y-65.71
X200.62Y-68.25
X200.62Y-70.79
X200.62Y-73.33
X200.62Y-75.87
X200.62Y-78.41
X200.62Y-80.95
X200.62Y-83.49
X200.62Y-86.03
X200.62Y-88.57
X200.62Y-91.11
T5
X201.9Y-106.375
X201.9Y-112.875
M30
