G04 #@! TF.GenerationSoftware,KiCad,Pcbnew,8.0.6+1*
G04 #@! TF.CreationDate,2024-11-30T16:17:57+00:00*
G04 #@! TF.ProjectId,corney_island_wireless_autorouted,636f726e-6579-45f6-9973-6c616e645f77,0.2*
G04 #@! TF.SameCoordinates,Original*
G04 #@! TF.FileFunction,Legend,Top*
G04 #@! TF.FilePolarity,Positive*
%FSLAX46Y46*%
G04 Gerber Fmt 4.6, Leading zero omitted, Abs format (unit mm)*
G04 Created by KiCad (PCBNEW 8.0.6+1) date 2024-11-30 16:17:57*
%MOMM*%
%LPD*%
G01*
G04 APERTURE LIST*
%ADD10C,0.150000*%
%ADD11C,0.100000*%
%ADD12C,0.120000*%
%ADD13C,2.000000*%
%ADD14C,2.100000*%
%ADD15C,4.400000*%
%ADD16C,3.100000*%
%ADD17C,3.500000*%
%ADD18C,1.800000*%
%ADD19C,0.900000*%
%ADD20C,1.000000*%
%ADD21C,2.300000*%
%ADD22O,1.850000X1.300000*%
%ADD23O,1.800000X1.800000*%
G04 APERTURE END LIST*
D10*
X113380951Y-106254819D02*
X113380951Y-106969104D01*
X113380951Y-106969104D02*
X113333332Y-107111961D01*
X113333332Y-107111961D02*
X113238094Y-107207200D01*
X113238094Y-107207200D02*
X113095237Y-107254819D01*
X113095237Y-107254819D02*
X112999999Y-107254819D01*
X114333332Y-107254819D02*
X113857142Y-107254819D01*
X113857142Y-107254819D02*
X113857142Y-106254819D01*
X115238094Y-107159580D02*
X115190475Y-107207200D01*
X115190475Y-107207200D02*
X115047618Y-107254819D01*
X115047618Y-107254819D02*
X114952380Y-107254819D01*
X114952380Y-107254819D02*
X114809523Y-107207200D01*
X114809523Y-107207200D02*
X114714285Y-107111961D01*
X114714285Y-107111961D02*
X114666666Y-107016723D01*
X114666666Y-107016723D02*
X114619047Y-106826247D01*
X114619047Y-106826247D02*
X114619047Y-106683390D01*
X114619047Y-106683390D02*
X114666666Y-106492914D01*
X114666666Y-106492914D02*
X114714285Y-106397676D01*
X114714285Y-106397676D02*
X114809523Y-106302438D01*
X114809523Y-106302438D02*
X114952380Y-106254819D01*
X114952380Y-106254819D02*
X115047618Y-106254819D01*
X115047618Y-106254819D02*
X115190475Y-106302438D01*
X115190475Y-106302438D02*
X115238094Y-106350057D01*
X115952380Y-106254819D02*
X115952380Y-106969104D01*
X115952380Y-106969104D02*
X115904761Y-107111961D01*
X115904761Y-107111961D02*
X115809523Y-107207200D01*
X115809523Y-107207200D02*
X115666666Y-107254819D01*
X115666666Y-107254819D02*
X115571428Y-107254819D01*
X116904761Y-107254819D02*
X116428571Y-107254819D01*
X116428571Y-107254819D02*
X116428571Y-106254819D01*
X117809523Y-107159580D02*
X117761904Y-107207200D01*
X117761904Y-107207200D02*
X117619047Y-107254819D01*
X117619047Y-107254819D02*
X117523809Y-107254819D01*
X117523809Y-107254819D02*
X117380952Y-107207200D01*
X117380952Y-107207200D02*
X117285714Y-107111961D01*
X117285714Y-107111961D02*
X117238095Y-107016723D01*
X117238095Y-107016723D02*
X117190476Y-106826247D01*
X117190476Y-106826247D02*
X117190476Y-106683390D01*
X117190476Y-106683390D02*
X117238095Y-106492914D01*
X117238095Y-106492914D02*
X117285714Y-106397676D01*
X117285714Y-106397676D02*
X117380952Y-106302438D01*
X117380952Y-106302438D02*
X117523809Y-106254819D01*
X117523809Y-106254819D02*
X117619047Y-106254819D01*
X117619047Y-106254819D02*
X117761904Y-106302438D01*
X117761904Y-106302438D02*
X117809523Y-106350057D01*
X118523809Y-106254819D02*
X118523809Y-106969104D01*
X118523809Y-106969104D02*
X118476190Y-107111961D01*
X118476190Y-107111961D02*
X118380952Y-107207200D01*
X118380952Y-107207200D02*
X118238095Y-107254819D01*
X118238095Y-107254819D02*
X118142857Y-107254819D01*
X119476190Y-107254819D02*
X119000000Y-107254819D01*
X119000000Y-107254819D02*
X119000000Y-106254819D01*
X120380952Y-107159580D02*
X120333333Y-107207200D01*
X120333333Y-107207200D02*
X120190476Y-107254819D01*
X120190476Y-107254819D02*
X120095238Y-107254819D01*
X120095238Y-107254819D02*
X119952381Y-107207200D01*
X119952381Y-107207200D02*
X119857143Y-107111961D01*
X119857143Y-107111961D02*
X119809524Y-107016723D01*
X119809524Y-107016723D02*
X119761905Y-106826247D01*
X119761905Y-106826247D02*
X119761905Y-106683390D01*
X119761905Y-106683390D02*
X119809524Y-106492914D01*
X119809524Y-106492914D02*
X119857143Y-106397676D01*
X119857143Y-106397676D02*
X119952381Y-106302438D01*
X119952381Y-106302438D02*
X120095238Y-106254819D01*
X120095238Y-106254819D02*
X120190476Y-106254819D01*
X120190476Y-106254819D02*
X120333333Y-106302438D01*
X120333333Y-106302438D02*
X120380952Y-106350057D01*
X121095238Y-106254819D02*
X121095238Y-106969104D01*
X121095238Y-106969104D02*
X121047619Y-107111961D01*
X121047619Y-107111961D02*
X120952381Y-107207200D01*
X120952381Y-107207200D02*
X120809524Y-107254819D01*
X120809524Y-107254819D02*
X120714286Y-107254819D01*
X122047619Y-107254819D02*
X121571429Y-107254819D01*
X121571429Y-107254819D02*
X121571429Y-106254819D01*
X122952381Y-107159580D02*
X122904762Y-107207200D01*
X122904762Y-107207200D02*
X122761905Y-107254819D01*
X122761905Y-107254819D02*
X122666667Y-107254819D01*
X122666667Y-107254819D02*
X122523810Y-107207200D01*
X122523810Y-107207200D02*
X122428572Y-107111961D01*
X122428572Y-107111961D02*
X122380953Y-107016723D01*
X122380953Y-107016723D02*
X122333334Y-106826247D01*
X122333334Y-106826247D02*
X122333334Y-106683390D01*
X122333334Y-106683390D02*
X122380953Y-106492914D01*
X122380953Y-106492914D02*
X122428572Y-106397676D01*
X122428572Y-106397676D02*
X122523810Y-106302438D01*
X122523810Y-106302438D02*
X122666667Y-106254819D01*
X122666667Y-106254819D02*
X122761905Y-106254819D01*
X122761905Y-106254819D02*
X122904762Y-106302438D01*
X122904762Y-106302438D02*
X122952381Y-106350057D01*
X202354819Y-111077381D02*
X201878628Y-111410714D01*
X202354819Y-111648809D02*
X201354819Y-111648809D01*
X201354819Y-111648809D02*
X201354819Y-111267857D01*
X201354819Y-111267857D02*
X201402438Y-111172619D01*
X201402438Y-111172619D02*
X201450057Y-111125000D01*
X201450057Y-111125000D02*
X201545295Y-111077381D01*
X201545295Y-111077381D02*
X201688152Y-111077381D01*
X201688152Y-111077381D02*
X201783390Y-111125000D01*
X201783390Y-111125000D02*
X201831009Y-111172619D01*
X201831009Y-111172619D02*
X201878628Y-111267857D01*
X201878628Y-111267857D02*
X201878628Y-111648809D01*
X201831009Y-110648809D02*
X201831009Y-110315476D01*
X202354819Y-110172619D02*
X202354819Y-110648809D01*
X202354819Y-110648809D02*
X201354819Y-110648809D01*
X201354819Y-110648809D02*
X201354819Y-110172619D01*
X202307200Y-109791666D02*
X202354819Y-109648809D01*
X202354819Y-109648809D02*
X202354819Y-109410714D01*
X202354819Y-109410714D02*
X202307200Y-109315476D01*
X202307200Y-109315476D02*
X202259580Y-109267857D01*
X202259580Y-109267857D02*
X202164342Y-109220238D01*
X202164342Y-109220238D02*
X202069104Y-109220238D01*
X202069104Y-109220238D02*
X201973866Y-109267857D01*
X201973866Y-109267857D02*
X201926247Y-109315476D01*
X201926247Y-109315476D02*
X201878628Y-109410714D01*
X201878628Y-109410714D02*
X201831009Y-109601190D01*
X201831009Y-109601190D02*
X201783390Y-109696428D01*
X201783390Y-109696428D02*
X201735771Y-109744047D01*
X201735771Y-109744047D02*
X201640533Y-109791666D01*
X201640533Y-109791666D02*
X201545295Y-109791666D01*
X201545295Y-109791666D02*
X201450057Y-109744047D01*
X201450057Y-109744047D02*
X201402438Y-109696428D01*
X201402438Y-109696428D02*
X201354819Y-109601190D01*
X201354819Y-109601190D02*
X201354819Y-109363095D01*
X201354819Y-109363095D02*
X201402438Y-109220238D01*
X201831009Y-108791666D02*
X201831009Y-108458333D01*
X202354819Y-108315476D02*
X202354819Y-108791666D01*
X202354819Y-108791666D02*
X201354819Y-108791666D01*
X201354819Y-108791666D02*
X201354819Y-108315476D01*
X201354819Y-108029761D02*
X201354819Y-107458333D01*
X202354819Y-107744047D02*
X201354819Y-107744047D01*
X194873333Y-83944819D02*
X194540000Y-83468628D01*
X194301905Y-83944819D02*
X194301905Y-82944819D01*
X194301905Y-82944819D02*
X194682857Y-82944819D01*
X194682857Y-82944819D02*
X194778095Y-82992438D01*
X194778095Y-82992438D02*
X194825714Y-83040057D01*
X194825714Y-83040057D02*
X194873333Y-83135295D01*
X194873333Y-83135295D02*
X194873333Y-83278152D01*
X194873333Y-83278152D02*
X194825714Y-83373390D01*
X194825714Y-83373390D02*
X194778095Y-83421009D01*
X194778095Y-83421009D02*
X194682857Y-83468628D01*
X194682857Y-83468628D02*
X194301905Y-83468628D01*
X195825714Y-83944819D02*
X195254286Y-83944819D01*
X195540000Y-83944819D02*
X195540000Y-82944819D01*
X195540000Y-82944819D02*
X195444762Y-83087676D01*
X195444762Y-83087676D02*
X195349524Y-83182914D01*
X195349524Y-83182914D02*
X195254286Y-83230533D01*
X190216667Y-70244819D02*
X190550000Y-71244819D01*
X190550000Y-71244819D02*
X190883333Y-70244819D01*
X191788095Y-71149580D02*
X191740476Y-71197200D01*
X191740476Y-71197200D02*
X191597619Y-71244819D01*
X191597619Y-71244819D02*
X191502381Y-71244819D01*
X191502381Y-71244819D02*
X191359524Y-71197200D01*
X191359524Y-71197200D02*
X191264286Y-71101961D01*
X191264286Y-71101961D02*
X191216667Y-71006723D01*
X191216667Y-71006723D02*
X191169048Y-70816247D01*
X191169048Y-70816247D02*
X191169048Y-70673390D01*
X191169048Y-70673390D02*
X191216667Y-70482914D01*
X191216667Y-70482914D02*
X191264286Y-70387676D01*
X191264286Y-70387676D02*
X191359524Y-70292438D01*
X191359524Y-70292438D02*
X191502381Y-70244819D01*
X191502381Y-70244819D02*
X191597619Y-70244819D01*
X191597619Y-70244819D02*
X191740476Y-70292438D01*
X191740476Y-70292438D02*
X191788095Y-70340057D01*
X192788095Y-71149580D02*
X192740476Y-71197200D01*
X192740476Y-71197200D02*
X192597619Y-71244819D01*
X192597619Y-71244819D02*
X192502381Y-71244819D01*
X192502381Y-71244819D02*
X192359524Y-71197200D01*
X192359524Y-71197200D02*
X192264286Y-71101961D01*
X192264286Y-71101961D02*
X192216667Y-71006723D01*
X192216667Y-71006723D02*
X192169048Y-70816247D01*
X192169048Y-70816247D02*
X192169048Y-70673390D01*
X192169048Y-70673390D02*
X192216667Y-70482914D01*
X192216667Y-70482914D02*
X192264286Y-70387676D01*
X192264286Y-70387676D02*
X192359524Y-70292438D01*
X192359524Y-70292438D02*
X192502381Y-70244819D01*
X192502381Y-70244819D02*
X192597619Y-70244819D01*
X192597619Y-70244819D02*
X192740476Y-70292438D01*
X192740476Y-70292438D02*
X192788095Y-70340057D01*
X193688095Y-67752438D02*
X193592857Y-67704819D01*
X193592857Y-67704819D02*
X193450000Y-67704819D01*
X193450000Y-67704819D02*
X193307143Y-67752438D01*
X193307143Y-67752438D02*
X193211905Y-67847676D01*
X193211905Y-67847676D02*
X193164286Y-67942914D01*
X193164286Y-67942914D02*
X193116667Y-68133390D01*
X193116667Y-68133390D02*
X193116667Y-68276247D01*
X193116667Y-68276247D02*
X193164286Y-68466723D01*
X193164286Y-68466723D02*
X193211905Y-68561961D01*
X193211905Y-68561961D02*
X193307143Y-68657200D01*
X193307143Y-68657200D02*
X193450000Y-68704819D01*
X193450000Y-68704819D02*
X193545238Y-68704819D01*
X193545238Y-68704819D02*
X193688095Y-68657200D01*
X193688095Y-68657200D02*
X193735714Y-68609580D01*
X193735714Y-68609580D02*
X193735714Y-68276247D01*
X193735714Y-68276247D02*
X193545238Y-68276247D01*
X194164286Y-68704819D02*
X194164286Y-67704819D01*
X194164286Y-67704819D02*
X194735714Y-68704819D01*
X194735714Y-68704819D02*
X194735714Y-67704819D01*
X195211905Y-68704819D02*
X195211905Y-67704819D01*
X195211905Y-67704819D02*
X195450000Y-67704819D01*
X195450000Y-67704819D02*
X195592857Y-67752438D01*
X195592857Y-67752438D02*
X195688095Y-67847676D01*
X195688095Y-67847676D02*
X195735714Y-67942914D01*
X195735714Y-67942914D02*
X195783333Y-68133390D01*
X195783333Y-68133390D02*
X195783333Y-68276247D01*
X195783333Y-68276247D02*
X195735714Y-68466723D01*
X195735714Y-68466723D02*
X195688095Y-68561961D01*
X195688095Y-68561961D02*
X195592857Y-68657200D01*
X195592857Y-68657200D02*
X195450000Y-68704819D01*
X195450000Y-68704819D02*
X195211905Y-68704819D01*
X190793333Y-78769580D02*
X190745714Y-78817200D01*
X190745714Y-78817200D02*
X190602857Y-78864819D01*
X190602857Y-78864819D02*
X190507619Y-78864819D01*
X190507619Y-78864819D02*
X190364762Y-78817200D01*
X190364762Y-78817200D02*
X190269524Y-78721961D01*
X190269524Y-78721961D02*
X190221905Y-78626723D01*
X190221905Y-78626723D02*
X190174286Y-78436247D01*
X190174286Y-78436247D02*
X190174286Y-78293390D01*
X190174286Y-78293390D02*
X190221905Y-78102914D01*
X190221905Y-78102914D02*
X190269524Y-78007676D01*
X190269524Y-78007676D02*
X190364762Y-77912438D01*
X190364762Y-77912438D02*
X190507619Y-77864819D01*
X190507619Y-77864819D02*
X190602857Y-77864819D01*
X190602857Y-77864819D02*
X190745714Y-77912438D01*
X190745714Y-77912438D02*
X190793333Y-77960057D01*
X191174286Y-77960057D02*
X191221905Y-77912438D01*
X191221905Y-77912438D02*
X191317143Y-77864819D01*
X191317143Y-77864819D02*
X191555238Y-77864819D01*
X191555238Y-77864819D02*
X191650476Y-77912438D01*
X191650476Y-77912438D02*
X191698095Y-77960057D01*
X191698095Y-77960057D02*
X191745714Y-78055295D01*
X191745714Y-78055295D02*
X191745714Y-78150533D01*
X191745714Y-78150533D02*
X191698095Y-78293390D01*
X191698095Y-78293390D02*
X191126667Y-78864819D01*
X191126667Y-78864819D02*
X191745714Y-78864819D01*
X190335714Y-91564819D02*
X190335714Y-90564819D01*
X190335714Y-90564819D02*
X190716666Y-90564819D01*
X190716666Y-90564819D02*
X190811904Y-90612438D01*
X190811904Y-90612438D02*
X190859523Y-90660057D01*
X190859523Y-90660057D02*
X190907142Y-90755295D01*
X190907142Y-90755295D02*
X190907142Y-90898152D01*
X190907142Y-90898152D02*
X190859523Y-90993390D01*
X190859523Y-90993390D02*
X190811904Y-91041009D01*
X190811904Y-91041009D02*
X190716666Y-91088628D01*
X190716666Y-91088628D02*
X190335714Y-91088628D01*
X191859523Y-91564819D02*
X191288095Y-91564819D01*
X191573809Y-91564819D02*
X191573809Y-90564819D01*
X191573809Y-90564819D02*
X191478571Y-90707676D01*
X191478571Y-90707676D02*
X191383333Y-90802914D01*
X191383333Y-90802914D02*
X191288095Y-90850533D01*
X192478571Y-90564819D02*
X192573809Y-90564819D01*
X192573809Y-90564819D02*
X192669047Y-90612438D01*
X192669047Y-90612438D02*
X192716666Y-90660057D01*
X192716666Y-90660057D02*
X192764285Y-90755295D01*
X192764285Y-90755295D02*
X192811904Y-90945771D01*
X192811904Y-90945771D02*
X192811904Y-91183866D01*
X192811904Y-91183866D02*
X192764285Y-91374342D01*
X192764285Y-91374342D02*
X192716666Y-91469580D01*
X192716666Y-91469580D02*
X192669047Y-91517200D01*
X192669047Y-91517200D02*
X192573809Y-91564819D01*
X192573809Y-91564819D02*
X192478571Y-91564819D01*
X192478571Y-91564819D02*
X192383333Y-91517200D01*
X192383333Y-91517200D02*
X192335714Y-91469580D01*
X192335714Y-91469580D02*
X192288095Y-91374342D01*
X192288095Y-91374342D02*
X192240476Y-91183866D01*
X192240476Y-91183866D02*
X192240476Y-90945771D01*
X192240476Y-90945771D02*
X192288095Y-90755295D01*
X192288095Y-90755295D02*
X192335714Y-90660057D01*
X192335714Y-90660057D02*
X192383333Y-90612438D01*
X192383333Y-90612438D02*
X192478571Y-90564819D01*
X194873333Y-81404819D02*
X194540000Y-80928628D01*
X194301905Y-81404819D02*
X194301905Y-80404819D01*
X194301905Y-80404819D02*
X194682857Y-80404819D01*
X194682857Y-80404819D02*
X194778095Y-80452438D01*
X194778095Y-80452438D02*
X194825714Y-80500057D01*
X194825714Y-80500057D02*
X194873333Y-80595295D01*
X194873333Y-80595295D02*
X194873333Y-80738152D01*
X194873333Y-80738152D02*
X194825714Y-80833390D01*
X194825714Y-80833390D02*
X194778095Y-80881009D01*
X194778095Y-80881009D02*
X194682857Y-80928628D01*
X194682857Y-80928628D02*
X194301905Y-80928628D01*
X195492381Y-80404819D02*
X195587619Y-80404819D01*
X195587619Y-80404819D02*
X195682857Y-80452438D01*
X195682857Y-80452438D02*
X195730476Y-80500057D01*
X195730476Y-80500057D02*
X195778095Y-80595295D01*
X195778095Y-80595295D02*
X195825714Y-80785771D01*
X195825714Y-80785771D02*
X195825714Y-81023866D01*
X195825714Y-81023866D02*
X195778095Y-81214342D01*
X195778095Y-81214342D02*
X195730476Y-81309580D01*
X195730476Y-81309580D02*
X195682857Y-81357200D01*
X195682857Y-81357200D02*
X195587619Y-81404819D01*
X195587619Y-81404819D02*
X195492381Y-81404819D01*
X195492381Y-81404819D02*
X195397143Y-81357200D01*
X195397143Y-81357200D02*
X195349524Y-81309580D01*
X195349524Y-81309580D02*
X195301905Y-81214342D01*
X195301905Y-81214342D02*
X195254286Y-81023866D01*
X195254286Y-81023866D02*
X195254286Y-80785771D01*
X195254286Y-80785771D02*
X195301905Y-80595295D01*
X195301905Y-80595295D02*
X195349524Y-80500057D01*
X195349524Y-80500057D02*
X195397143Y-80452438D01*
X195397143Y-80452438D02*
X195492381Y-80404819D01*
X190335714Y-89024819D02*
X190335714Y-88024819D01*
X190335714Y-88024819D02*
X190716666Y-88024819D01*
X190716666Y-88024819D02*
X190811904Y-88072438D01*
X190811904Y-88072438D02*
X190859523Y-88120057D01*
X190859523Y-88120057D02*
X190907142Y-88215295D01*
X190907142Y-88215295D02*
X190907142Y-88358152D01*
X190907142Y-88358152D02*
X190859523Y-88453390D01*
X190859523Y-88453390D02*
X190811904Y-88501009D01*
X190811904Y-88501009D02*
X190716666Y-88548628D01*
X190716666Y-88548628D02*
X190335714Y-88548628D01*
X191859523Y-89024819D02*
X191288095Y-89024819D01*
X191573809Y-89024819D02*
X191573809Y-88024819D01*
X191573809Y-88024819D02*
X191478571Y-88167676D01*
X191478571Y-88167676D02*
X191383333Y-88262914D01*
X191383333Y-88262914D02*
X191288095Y-88310533D01*
X192716666Y-88024819D02*
X192526190Y-88024819D01*
X192526190Y-88024819D02*
X192430952Y-88072438D01*
X192430952Y-88072438D02*
X192383333Y-88120057D01*
X192383333Y-88120057D02*
X192288095Y-88262914D01*
X192288095Y-88262914D02*
X192240476Y-88453390D01*
X192240476Y-88453390D02*
X192240476Y-88834342D01*
X192240476Y-88834342D02*
X192288095Y-88929580D01*
X192288095Y-88929580D02*
X192335714Y-88977200D01*
X192335714Y-88977200D02*
X192430952Y-89024819D01*
X192430952Y-89024819D02*
X192621428Y-89024819D01*
X192621428Y-89024819D02*
X192716666Y-88977200D01*
X192716666Y-88977200D02*
X192764285Y-88929580D01*
X192764285Y-88929580D02*
X192811904Y-88834342D01*
X192811904Y-88834342D02*
X192811904Y-88596247D01*
X192811904Y-88596247D02*
X192764285Y-88501009D01*
X192764285Y-88501009D02*
X192716666Y-88453390D01*
X192716666Y-88453390D02*
X192621428Y-88405771D01*
X192621428Y-88405771D02*
X192430952Y-88405771D01*
X192430952Y-88405771D02*
X192335714Y-88453390D01*
X192335714Y-88453390D02*
X192288095Y-88501009D01*
X192288095Y-88501009D02*
X192240476Y-88596247D01*
X194873333Y-89024819D02*
X194540000Y-88548628D01*
X194301905Y-89024819D02*
X194301905Y-88024819D01*
X194301905Y-88024819D02*
X194682857Y-88024819D01*
X194682857Y-88024819D02*
X194778095Y-88072438D01*
X194778095Y-88072438D02*
X194825714Y-88120057D01*
X194825714Y-88120057D02*
X194873333Y-88215295D01*
X194873333Y-88215295D02*
X194873333Y-88358152D01*
X194873333Y-88358152D02*
X194825714Y-88453390D01*
X194825714Y-88453390D02*
X194778095Y-88501009D01*
X194778095Y-88501009D02*
X194682857Y-88548628D01*
X194682857Y-88548628D02*
X194301905Y-88548628D01*
X195206667Y-88024819D02*
X195825714Y-88024819D01*
X195825714Y-88024819D02*
X195492381Y-88405771D01*
X195492381Y-88405771D02*
X195635238Y-88405771D01*
X195635238Y-88405771D02*
X195730476Y-88453390D01*
X195730476Y-88453390D02*
X195778095Y-88501009D01*
X195778095Y-88501009D02*
X195825714Y-88596247D01*
X195825714Y-88596247D02*
X195825714Y-88834342D01*
X195825714Y-88834342D02*
X195778095Y-88929580D01*
X195778095Y-88929580D02*
X195730476Y-88977200D01*
X195730476Y-88977200D02*
X195635238Y-89024819D01*
X195635238Y-89024819D02*
X195349524Y-89024819D01*
X195349524Y-89024819D02*
X195254286Y-88977200D01*
X195254286Y-88977200D02*
X195206667Y-88929580D01*
X191002380Y-68704819D02*
X190669047Y-68228628D01*
X190430952Y-68704819D02*
X190430952Y-67704819D01*
X190430952Y-67704819D02*
X190811904Y-67704819D01*
X190811904Y-67704819D02*
X190907142Y-67752438D01*
X190907142Y-67752438D02*
X190954761Y-67800057D01*
X190954761Y-67800057D02*
X191002380Y-67895295D01*
X191002380Y-67895295D02*
X191002380Y-68038152D01*
X191002380Y-68038152D02*
X190954761Y-68133390D01*
X190954761Y-68133390D02*
X190907142Y-68181009D01*
X190907142Y-68181009D02*
X190811904Y-68228628D01*
X190811904Y-68228628D02*
X190430952Y-68228628D01*
X191383333Y-68657200D02*
X191526190Y-68704819D01*
X191526190Y-68704819D02*
X191764285Y-68704819D01*
X191764285Y-68704819D02*
X191859523Y-68657200D01*
X191859523Y-68657200D02*
X191907142Y-68609580D01*
X191907142Y-68609580D02*
X191954761Y-68514342D01*
X191954761Y-68514342D02*
X191954761Y-68419104D01*
X191954761Y-68419104D02*
X191907142Y-68323866D01*
X191907142Y-68323866D02*
X191859523Y-68276247D01*
X191859523Y-68276247D02*
X191764285Y-68228628D01*
X191764285Y-68228628D02*
X191573809Y-68181009D01*
X191573809Y-68181009D02*
X191478571Y-68133390D01*
X191478571Y-68133390D02*
X191430952Y-68085771D01*
X191430952Y-68085771D02*
X191383333Y-67990533D01*
X191383333Y-67990533D02*
X191383333Y-67895295D01*
X191383333Y-67895295D02*
X191430952Y-67800057D01*
X191430952Y-67800057D02*
X191478571Y-67752438D01*
X191478571Y-67752438D02*
X191573809Y-67704819D01*
X191573809Y-67704819D02*
X191811904Y-67704819D01*
X191811904Y-67704819D02*
X191954761Y-67752438D01*
X192240476Y-67704819D02*
X192811904Y-67704819D01*
X192526190Y-68704819D02*
X192526190Y-67704819D01*
X193235714Y-73737200D02*
X193378571Y-73784819D01*
X193378571Y-73784819D02*
X193616666Y-73784819D01*
X193616666Y-73784819D02*
X193711904Y-73737200D01*
X193711904Y-73737200D02*
X193759523Y-73689580D01*
X193759523Y-73689580D02*
X193807142Y-73594342D01*
X193807142Y-73594342D02*
X193807142Y-73499104D01*
X193807142Y-73499104D02*
X193759523Y-73403866D01*
X193759523Y-73403866D02*
X193711904Y-73356247D01*
X193711904Y-73356247D02*
X193616666Y-73308628D01*
X193616666Y-73308628D02*
X193426190Y-73261009D01*
X193426190Y-73261009D02*
X193330952Y-73213390D01*
X193330952Y-73213390D02*
X193283333Y-73165771D01*
X193283333Y-73165771D02*
X193235714Y-73070533D01*
X193235714Y-73070533D02*
X193235714Y-72975295D01*
X193235714Y-72975295D02*
X193283333Y-72880057D01*
X193283333Y-72880057D02*
X193330952Y-72832438D01*
X193330952Y-72832438D02*
X193426190Y-72784819D01*
X193426190Y-72784819D02*
X193664285Y-72784819D01*
X193664285Y-72784819D02*
X193807142Y-72832438D01*
X194235714Y-73784819D02*
X194235714Y-72784819D01*
X194235714Y-72784819D02*
X194473809Y-72784819D01*
X194473809Y-72784819D02*
X194616666Y-72832438D01*
X194616666Y-72832438D02*
X194711904Y-72927676D01*
X194711904Y-72927676D02*
X194759523Y-73022914D01*
X194759523Y-73022914D02*
X194807142Y-73213390D01*
X194807142Y-73213390D02*
X194807142Y-73356247D01*
X194807142Y-73356247D02*
X194759523Y-73546723D01*
X194759523Y-73546723D02*
X194711904Y-73641961D01*
X194711904Y-73641961D02*
X194616666Y-73737200D01*
X194616666Y-73737200D02*
X194473809Y-73784819D01*
X194473809Y-73784819D02*
X194235714Y-73784819D01*
X195188095Y-73499104D02*
X195664285Y-73499104D01*
X195092857Y-73784819D02*
X195426190Y-72784819D01*
X195426190Y-72784819D02*
X195759523Y-73784819D01*
X190793333Y-81309580D02*
X190745714Y-81357200D01*
X190745714Y-81357200D02*
X190602857Y-81404819D01*
X190602857Y-81404819D02*
X190507619Y-81404819D01*
X190507619Y-81404819D02*
X190364762Y-81357200D01*
X190364762Y-81357200D02*
X190269524Y-81261961D01*
X190269524Y-81261961D02*
X190221905Y-81166723D01*
X190221905Y-81166723D02*
X190174286Y-80976247D01*
X190174286Y-80976247D02*
X190174286Y-80833390D01*
X190174286Y-80833390D02*
X190221905Y-80642914D01*
X190221905Y-80642914D02*
X190269524Y-80547676D01*
X190269524Y-80547676D02*
X190364762Y-80452438D01*
X190364762Y-80452438D02*
X190507619Y-80404819D01*
X190507619Y-80404819D02*
X190602857Y-80404819D01*
X190602857Y-80404819D02*
X190745714Y-80452438D01*
X190745714Y-80452438D02*
X190793333Y-80500057D01*
X191126667Y-80404819D02*
X191745714Y-80404819D01*
X191745714Y-80404819D02*
X191412381Y-80785771D01*
X191412381Y-80785771D02*
X191555238Y-80785771D01*
X191555238Y-80785771D02*
X191650476Y-80833390D01*
X191650476Y-80833390D02*
X191698095Y-80881009D01*
X191698095Y-80881009D02*
X191745714Y-80976247D01*
X191745714Y-80976247D02*
X191745714Y-81214342D01*
X191745714Y-81214342D02*
X191698095Y-81309580D01*
X191698095Y-81309580D02*
X191650476Y-81357200D01*
X191650476Y-81357200D02*
X191555238Y-81404819D01*
X191555238Y-81404819D02*
X191269524Y-81404819D01*
X191269524Y-81404819D02*
X191174286Y-81357200D01*
X191174286Y-81357200D02*
X191126667Y-81309580D01*
X190793333Y-86389580D02*
X190745714Y-86437200D01*
X190745714Y-86437200D02*
X190602857Y-86484819D01*
X190602857Y-86484819D02*
X190507619Y-86484819D01*
X190507619Y-86484819D02*
X190364762Y-86437200D01*
X190364762Y-86437200D02*
X190269524Y-86341961D01*
X190269524Y-86341961D02*
X190221905Y-86246723D01*
X190221905Y-86246723D02*
X190174286Y-86056247D01*
X190174286Y-86056247D02*
X190174286Y-85913390D01*
X190174286Y-85913390D02*
X190221905Y-85722914D01*
X190221905Y-85722914D02*
X190269524Y-85627676D01*
X190269524Y-85627676D02*
X190364762Y-85532438D01*
X190364762Y-85532438D02*
X190507619Y-85484819D01*
X190507619Y-85484819D02*
X190602857Y-85484819D01*
X190602857Y-85484819D02*
X190745714Y-85532438D01*
X190745714Y-85532438D02*
X190793333Y-85580057D01*
X191698095Y-85484819D02*
X191221905Y-85484819D01*
X191221905Y-85484819D02*
X191174286Y-85961009D01*
X191174286Y-85961009D02*
X191221905Y-85913390D01*
X191221905Y-85913390D02*
X191317143Y-85865771D01*
X191317143Y-85865771D02*
X191555238Y-85865771D01*
X191555238Y-85865771D02*
X191650476Y-85913390D01*
X191650476Y-85913390D02*
X191698095Y-85961009D01*
X191698095Y-85961009D02*
X191745714Y-86056247D01*
X191745714Y-86056247D02*
X191745714Y-86294342D01*
X191745714Y-86294342D02*
X191698095Y-86389580D01*
X191698095Y-86389580D02*
X191650476Y-86437200D01*
X191650476Y-86437200D02*
X191555238Y-86484819D01*
X191555238Y-86484819D02*
X191317143Y-86484819D01*
X191317143Y-86484819D02*
X191221905Y-86437200D01*
X191221905Y-86437200D02*
X191174286Y-86389580D01*
X190793333Y-73689580D02*
X190745714Y-73737200D01*
X190745714Y-73737200D02*
X190602857Y-73784819D01*
X190602857Y-73784819D02*
X190507619Y-73784819D01*
X190507619Y-73784819D02*
X190364762Y-73737200D01*
X190364762Y-73737200D02*
X190269524Y-73641961D01*
X190269524Y-73641961D02*
X190221905Y-73546723D01*
X190221905Y-73546723D02*
X190174286Y-73356247D01*
X190174286Y-73356247D02*
X190174286Y-73213390D01*
X190174286Y-73213390D02*
X190221905Y-73022914D01*
X190221905Y-73022914D02*
X190269524Y-72927676D01*
X190269524Y-72927676D02*
X190364762Y-72832438D01*
X190364762Y-72832438D02*
X190507619Y-72784819D01*
X190507619Y-72784819D02*
X190602857Y-72784819D01*
X190602857Y-72784819D02*
X190745714Y-72832438D01*
X190745714Y-72832438D02*
X190793333Y-72880057D01*
X191412381Y-72784819D02*
X191507619Y-72784819D01*
X191507619Y-72784819D02*
X191602857Y-72832438D01*
X191602857Y-72832438D02*
X191650476Y-72880057D01*
X191650476Y-72880057D02*
X191698095Y-72975295D01*
X191698095Y-72975295D02*
X191745714Y-73165771D01*
X191745714Y-73165771D02*
X191745714Y-73403866D01*
X191745714Y-73403866D02*
X191698095Y-73594342D01*
X191698095Y-73594342D02*
X191650476Y-73689580D01*
X191650476Y-73689580D02*
X191602857Y-73737200D01*
X191602857Y-73737200D02*
X191507619Y-73784819D01*
X191507619Y-73784819D02*
X191412381Y-73784819D01*
X191412381Y-73784819D02*
X191317143Y-73737200D01*
X191317143Y-73737200D02*
X191269524Y-73689580D01*
X191269524Y-73689580D02*
X191221905Y-73594342D01*
X191221905Y-73594342D02*
X191174286Y-73403866D01*
X191174286Y-73403866D02*
X191174286Y-73165771D01*
X191174286Y-73165771D02*
X191221905Y-72975295D01*
X191221905Y-72975295D02*
X191269524Y-72880057D01*
X191269524Y-72880057D02*
X191317143Y-72832438D01*
X191317143Y-72832438D02*
X191412381Y-72784819D01*
X190859523Y-63624819D02*
X190526190Y-63148628D01*
X190288095Y-63624819D02*
X190288095Y-62624819D01*
X190288095Y-62624819D02*
X190669047Y-62624819D01*
X190669047Y-62624819D02*
X190764285Y-62672438D01*
X190764285Y-62672438D02*
X190811904Y-62720057D01*
X190811904Y-62720057D02*
X190859523Y-62815295D01*
X190859523Y-62815295D02*
X190859523Y-62958152D01*
X190859523Y-62958152D02*
X190811904Y-63053390D01*
X190811904Y-63053390D02*
X190764285Y-63101009D01*
X190764285Y-63101009D02*
X190669047Y-63148628D01*
X190669047Y-63148628D02*
X190288095Y-63148628D01*
X191240476Y-63339104D02*
X191716666Y-63339104D01*
X191145238Y-63624819D02*
X191478571Y-62624819D01*
X191478571Y-62624819D02*
X191811904Y-63624819D01*
X192050000Y-62624819D02*
X192288095Y-63624819D01*
X192288095Y-63624819D02*
X192478571Y-62910533D01*
X192478571Y-62910533D02*
X192669047Y-63624819D01*
X192669047Y-63624819D02*
X192907143Y-62624819D01*
X193378571Y-66164819D02*
X193378571Y-65164819D01*
X193378571Y-65164819D02*
X193616666Y-65164819D01*
X193616666Y-65164819D02*
X193759523Y-65212438D01*
X193759523Y-65212438D02*
X193854761Y-65307676D01*
X193854761Y-65307676D02*
X193902380Y-65402914D01*
X193902380Y-65402914D02*
X193949999Y-65593390D01*
X193949999Y-65593390D02*
X193949999Y-65736247D01*
X193949999Y-65736247D02*
X193902380Y-65926723D01*
X193902380Y-65926723D02*
X193854761Y-66021961D01*
X193854761Y-66021961D02*
X193759523Y-66117200D01*
X193759523Y-66117200D02*
X193616666Y-66164819D01*
X193616666Y-66164819D02*
X193378571Y-66164819D01*
X194330952Y-65879104D02*
X194807142Y-65879104D01*
X194235714Y-66164819D02*
X194569047Y-65164819D01*
X194569047Y-65164819D02*
X194902380Y-66164819D01*
X195092857Y-65164819D02*
X195664285Y-65164819D01*
X195378571Y-66164819D02*
X195378571Y-65164819D01*
X190788095Y-65212438D02*
X190692857Y-65164819D01*
X190692857Y-65164819D02*
X190550000Y-65164819D01*
X190550000Y-65164819D02*
X190407143Y-65212438D01*
X190407143Y-65212438D02*
X190311905Y-65307676D01*
X190311905Y-65307676D02*
X190264286Y-65402914D01*
X190264286Y-65402914D02*
X190216667Y-65593390D01*
X190216667Y-65593390D02*
X190216667Y-65736247D01*
X190216667Y-65736247D02*
X190264286Y-65926723D01*
X190264286Y-65926723D02*
X190311905Y-66021961D01*
X190311905Y-66021961D02*
X190407143Y-66117200D01*
X190407143Y-66117200D02*
X190550000Y-66164819D01*
X190550000Y-66164819D02*
X190645238Y-66164819D01*
X190645238Y-66164819D02*
X190788095Y-66117200D01*
X190788095Y-66117200D02*
X190835714Y-66069580D01*
X190835714Y-66069580D02*
X190835714Y-65736247D01*
X190835714Y-65736247D02*
X190645238Y-65736247D01*
X191264286Y-66164819D02*
X191264286Y-65164819D01*
X191264286Y-65164819D02*
X191835714Y-66164819D01*
X191835714Y-66164819D02*
X191835714Y-65164819D01*
X192311905Y-66164819D02*
X192311905Y-65164819D01*
X192311905Y-65164819D02*
X192550000Y-65164819D01*
X192550000Y-65164819D02*
X192692857Y-65212438D01*
X192692857Y-65212438D02*
X192788095Y-65307676D01*
X192788095Y-65307676D02*
X192835714Y-65402914D01*
X192835714Y-65402914D02*
X192883333Y-65593390D01*
X192883333Y-65593390D02*
X192883333Y-65736247D01*
X192883333Y-65736247D02*
X192835714Y-65926723D01*
X192835714Y-65926723D02*
X192788095Y-66021961D01*
X192788095Y-66021961D02*
X192692857Y-66117200D01*
X192692857Y-66117200D02*
X192550000Y-66164819D01*
X192550000Y-66164819D02*
X192311905Y-66164819D01*
X193807142Y-63624819D02*
X193330952Y-63624819D01*
X193330952Y-63624819D02*
X193330952Y-62624819D01*
X194140476Y-63101009D02*
X194473809Y-63101009D01*
X194616666Y-63624819D02*
X194140476Y-63624819D01*
X194140476Y-63624819D02*
X194140476Y-62624819D01*
X194140476Y-62624819D02*
X194616666Y-62624819D01*
X195045238Y-63624819D02*
X195045238Y-62624819D01*
X195045238Y-62624819D02*
X195283333Y-62624819D01*
X195283333Y-62624819D02*
X195426190Y-62672438D01*
X195426190Y-62672438D02*
X195521428Y-62767676D01*
X195521428Y-62767676D02*
X195569047Y-62862914D01*
X195569047Y-62862914D02*
X195616666Y-63053390D01*
X195616666Y-63053390D02*
X195616666Y-63196247D01*
X195616666Y-63196247D02*
X195569047Y-63386723D01*
X195569047Y-63386723D02*
X195521428Y-63481961D01*
X195521428Y-63481961D02*
X195426190Y-63577200D01*
X195426190Y-63577200D02*
X195283333Y-63624819D01*
X195283333Y-63624819D02*
X195045238Y-63624819D01*
X190793333Y-83849580D02*
X190745714Y-83897200D01*
X190745714Y-83897200D02*
X190602857Y-83944819D01*
X190602857Y-83944819D02*
X190507619Y-83944819D01*
X190507619Y-83944819D02*
X190364762Y-83897200D01*
X190364762Y-83897200D02*
X190269524Y-83801961D01*
X190269524Y-83801961D02*
X190221905Y-83706723D01*
X190221905Y-83706723D02*
X190174286Y-83516247D01*
X190174286Y-83516247D02*
X190174286Y-83373390D01*
X190174286Y-83373390D02*
X190221905Y-83182914D01*
X190221905Y-83182914D02*
X190269524Y-83087676D01*
X190269524Y-83087676D02*
X190364762Y-82992438D01*
X190364762Y-82992438D02*
X190507619Y-82944819D01*
X190507619Y-82944819D02*
X190602857Y-82944819D01*
X190602857Y-82944819D02*
X190745714Y-82992438D01*
X190745714Y-82992438D02*
X190793333Y-83040057D01*
X191650476Y-83278152D02*
X191650476Y-83944819D01*
X191412381Y-82897200D02*
X191174286Y-83611485D01*
X191174286Y-83611485D02*
X191793333Y-83611485D01*
X193259524Y-76277200D02*
X193402381Y-76324819D01*
X193402381Y-76324819D02*
X193640476Y-76324819D01*
X193640476Y-76324819D02*
X193735714Y-76277200D01*
X193735714Y-76277200D02*
X193783333Y-76229580D01*
X193783333Y-76229580D02*
X193830952Y-76134342D01*
X193830952Y-76134342D02*
X193830952Y-76039104D01*
X193830952Y-76039104D02*
X193783333Y-75943866D01*
X193783333Y-75943866D02*
X193735714Y-75896247D01*
X193735714Y-75896247D02*
X193640476Y-75848628D01*
X193640476Y-75848628D02*
X193450000Y-75801009D01*
X193450000Y-75801009D02*
X193354762Y-75753390D01*
X193354762Y-75753390D02*
X193307143Y-75705771D01*
X193307143Y-75705771D02*
X193259524Y-75610533D01*
X193259524Y-75610533D02*
X193259524Y-75515295D01*
X193259524Y-75515295D02*
X193307143Y-75420057D01*
X193307143Y-75420057D02*
X193354762Y-75372438D01*
X193354762Y-75372438D02*
X193450000Y-75324819D01*
X193450000Y-75324819D02*
X193688095Y-75324819D01*
X193688095Y-75324819D02*
X193830952Y-75372438D01*
X194830952Y-76229580D02*
X194783333Y-76277200D01*
X194783333Y-76277200D02*
X194640476Y-76324819D01*
X194640476Y-76324819D02*
X194545238Y-76324819D01*
X194545238Y-76324819D02*
X194402381Y-76277200D01*
X194402381Y-76277200D02*
X194307143Y-76181961D01*
X194307143Y-76181961D02*
X194259524Y-76086723D01*
X194259524Y-76086723D02*
X194211905Y-75896247D01*
X194211905Y-75896247D02*
X194211905Y-75753390D01*
X194211905Y-75753390D02*
X194259524Y-75562914D01*
X194259524Y-75562914D02*
X194307143Y-75467676D01*
X194307143Y-75467676D02*
X194402381Y-75372438D01*
X194402381Y-75372438D02*
X194545238Y-75324819D01*
X194545238Y-75324819D02*
X194640476Y-75324819D01*
X194640476Y-75324819D02*
X194783333Y-75372438D01*
X194783333Y-75372438D02*
X194830952Y-75420057D01*
X195735714Y-76324819D02*
X195259524Y-76324819D01*
X195259524Y-76324819D02*
X195259524Y-75324819D01*
X194873333Y-78769580D02*
X194825714Y-78817200D01*
X194825714Y-78817200D02*
X194682857Y-78864819D01*
X194682857Y-78864819D02*
X194587619Y-78864819D01*
X194587619Y-78864819D02*
X194444762Y-78817200D01*
X194444762Y-78817200D02*
X194349524Y-78721961D01*
X194349524Y-78721961D02*
X194301905Y-78626723D01*
X194301905Y-78626723D02*
X194254286Y-78436247D01*
X194254286Y-78436247D02*
X194254286Y-78293390D01*
X194254286Y-78293390D02*
X194301905Y-78102914D01*
X194301905Y-78102914D02*
X194349524Y-78007676D01*
X194349524Y-78007676D02*
X194444762Y-77912438D01*
X194444762Y-77912438D02*
X194587619Y-77864819D01*
X194587619Y-77864819D02*
X194682857Y-77864819D01*
X194682857Y-77864819D02*
X194825714Y-77912438D01*
X194825714Y-77912438D02*
X194873333Y-77960057D01*
X195254286Y-78817200D02*
X195397143Y-78864819D01*
X195397143Y-78864819D02*
X195635238Y-78864819D01*
X195635238Y-78864819D02*
X195730476Y-78817200D01*
X195730476Y-78817200D02*
X195778095Y-78769580D01*
X195778095Y-78769580D02*
X195825714Y-78674342D01*
X195825714Y-78674342D02*
X195825714Y-78579104D01*
X195825714Y-78579104D02*
X195778095Y-78483866D01*
X195778095Y-78483866D02*
X195730476Y-78436247D01*
X195730476Y-78436247D02*
X195635238Y-78388628D01*
X195635238Y-78388628D02*
X195444762Y-78341009D01*
X195444762Y-78341009D02*
X195349524Y-78293390D01*
X195349524Y-78293390D02*
X195301905Y-78245771D01*
X195301905Y-78245771D02*
X195254286Y-78150533D01*
X195254286Y-78150533D02*
X195254286Y-78055295D01*
X195254286Y-78055295D02*
X195301905Y-77960057D01*
X195301905Y-77960057D02*
X195349524Y-77912438D01*
X195349524Y-77912438D02*
X195444762Y-77864819D01*
X195444762Y-77864819D02*
X195682857Y-77864819D01*
X195682857Y-77864819D02*
X195825714Y-77912438D01*
X194873333Y-86484819D02*
X194540000Y-86008628D01*
X194301905Y-86484819D02*
X194301905Y-85484819D01*
X194301905Y-85484819D02*
X194682857Y-85484819D01*
X194682857Y-85484819D02*
X194778095Y-85532438D01*
X194778095Y-85532438D02*
X194825714Y-85580057D01*
X194825714Y-85580057D02*
X194873333Y-85675295D01*
X194873333Y-85675295D02*
X194873333Y-85818152D01*
X194873333Y-85818152D02*
X194825714Y-85913390D01*
X194825714Y-85913390D02*
X194778095Y-85961009D01*
X194778095Y-85961009D02*
X194682857Y-86008628D01*
X194682857Y-86008628D02*
X194301905Y-86008628D01*
X195254286Y-85580057D02*
X195301905Y-85532438D01*
X195301905Y-85532438D02*
X195397143Y-85484819D01*
X195397143Y-85484819D02*
X195635238Y-85484819D01*
X195635238Y-85484819D02*
X195730476Y-85532438D01*
X195730476Y-85532438D02*
X195778095Y-85580057D01*
X195778095Y-85580057D02*
X195825714Y-85675295D01*
X195825714Y-85675295D02*
X195825714Y-85770533D01*
X195825714Y-85770533D02*
X195778095Y-85913390D01*
X195778095Y-85913390D02*
X195206667Y-86484819D01*
X195206667Y-86484819D02*
X195825714Y-86484819D01*
X193688095Y-70292438D02*
X193592857Y-70244819D01*
X193592857Y-70244819D02*
X193450000Y-70244819D01*
X193450000Y-70244819D02*
X193307143Y-70292438D01*
X193307143Y-70292438D02*
X193211905Y-70387676D01*
X193211905Y-70387676D02*
X193164286Y-70482914D01*
X193164286Y-70482914D02*
X193116667Y-70673390D01*
X193116667Y-70673390D02*
X193116667Y-70816247D01*
X193116667Y-70816247D02*
X193164286Y-71006723D01*
X193164286Y-71006723D02*
X193211905Y-71101961D01*
X193211905Y-71101961D02*
X193307143Y-71197200D01*
X193307143Y-71197200D02*
X193450000Y-71244819D01*
X193450000Y-71244819D02*
X193545238Y-71244819D01*
X193545238Y-71244819D02*
X193688095Y-71197200D01*
X193688095Y-71197200D02*
X193735714Y-71149580D01*
X193735714Y-71149580D02*
X193735714Y-70816247D01*
X193735714Y-70816247D02*
X193545238Y-70816247D01*
X194164286Y-71244819D02*
X194164286Y-70244819D01*
X194164286Y-70244819D02*
X194735714Y-71244819D01*
X194735714Y-71244819D02*
X194735714Y-70244819D01*
X195211905Y-71244819D02*
X195211905Y-70244819D01*
X195211905Y-70244819D02*
X195450000Y-70244819D01*
X195450000Y-70244819D02*
X195592857Y-70292438D01*
X195592857Y-70292438D02*
X195688095Y-70387676D01*
X195688095Y-70387676D02*
X195735714Y-70482914D01*
X195735714Y-70482914D02*
X195783333Y-70673390D01*
X195783333Y-70673390D02*
X195783333Y-70816247D01*
X195783333Y-70816247D02*
X195735714Y-71006723D01*
X195735714Y-71006723D02*
X195688095Y-71101961D01*
X195688095Y-71101961D02*
X195592857Y-71197200D01*
X195592857Y-71197200D02*
X195450000Y-71244819D01*
X195450000Y-71244819D02*
X195211905Y-71244819D01*
X190793333Y-76229580D02*
X190745714Y-76277200D01*
X190745714Y-76277200D02*
X190602857Y-76324819D01*
X190602857Y-76324819D02*
X190507619Y-76324819D01*
X190507619Y-76324819D02*
X190364762Y-76277200D01*
X190364762Y-76277200D02*
X190269524Y-76181961D01*
X190269524Y-76181961D02*
X190221905Y-76086723D01*
X190221905Y-76086723D02*
X190174286Y-75896247D01*
X190174286Y-75896247D02*
X190174286Y-75753390D01*
X190174286Y-75753390D02*
X190221905Y-75562914D01*
X190221905Y-75562914D02*
X190269524Y-75467676D01*
X190269524Y-75467676D02*
X190364762Y-75372438D01*
X190364762Y-75372438D02*
X190507619Y-75324819D01*
X190507619Y-75324819D02*
X190602857Y-75324819D01*
X190602857Y-75324819D02*
X190745714Y-75372438D01*
X190745714Y-75372438D02*
X190793333Y-75420057D01*
X191745714Y-76324819D02*
X191174286Y-76324819D01*
X191460000Y-76324819D02*
X191460000Y-75324819D01*
X191460000Y-75324819D02*
X191364762Y-75467676D01*
X191364762Y-75467676D02*
X191269524Y-75562914D01*
X191269524Y-75562914D02*
X191174286Y-75610533D01*
X194301905Y-91564819D02*
X194301905Y-90564819D01*
X194301905Y-90564819D02*
X194682857Y-90564819D01*
X194682857Y-90564819D02*
X194778095Y-90612438D01*
X194778095Y-90612438D02*
X194825714Y-90660057D01*
X194825714Y-90660057D02*
X194873333Y-90755295D01*
X194873333Y-90755295D02*
X194873333Y-90898152D01*
X194873333Y-90898152D02*
X194825714Y-90993390D01*
X194825714Y-90993390D02*
X194778095Y-91041009D01*
X194778095Y-91041009D02*
X194682857Y-91088628D01*
X194682857Y-91088628D02*
X194301905Y-91088628D01*
X195349524Y-91564819D02*
X195540000Y-91564819D01*
X195540000Y-91564819D02*
X195635238Y-91517200D01*
X195635238Y-91517200D02*
X195682857Y-91469580D01*
X195682857Y-91469580D02*
X195778095Y-91326723D01*
X195778095Y-91326723D02*
X195825714Y-91136247D01*
X195825714Y-91136247D02*
X195825714Y-90755295D01*
X195825714Y-90755295D02*
X195778095Y-90660057D01*
X195778095Y-90660057D02*
X195730476Y-90612438D01*
X195730476Y-90612438D02*
X195635238Y-90564819D01*
X195635238Y-90564819D02*
X195444762Y-90564819D01*
X195444762Y-90564819D02*
X195349524Y-90612438D01*
X195349524Y-90612438D02*
X195301905Y-90660057D01*
X195301905Y-90660057D02*
X195254286Y-90755295D01*
X195254286Y-90755295D02*
X195254286Y-90993390D01*
X195254286Y-90993390D02*
X195301905Y-91088628D01*
X195301905Y-91088628D02*
X195349524Y-91136247D01*
X195349524Y-91136247D02*
X195444762Y-91183866D01*
X195444762Y-91183866D02*
X195635238Y-91183866D01*
X195635238Y-91183866D02*
X195730476Y-91136247D01*
X195730476Y-91136247D02*
X195778095Y-91088628D01*
X195778095Y-91088628D02*
X195825714Y-90993390D01*
X201247619Y-103079819D02*
X201438095Y-103079819D01*
X201438095Y-103079819D02*
X201533333Y-103127438D01*
X201533333Y-103127438D02*
X201628571Y-103222676D01*
X201628571Y-103222676D02*
X201676190Y-103413152D01*
X201676190Y-103413152D02*
X201676190Y-103746485D01*
X201676190Y-103746485D02*
X201628571Y-103936961D01*
X201628571Y-103936961D02*
X201533333Y-104032200D01*
X201533333Y-104032200D02*
X201438095Y-104079819D01*
X201438095Y-104079819D02*
X201247619Y-104079819D01*
X201247619Y-104079819D02*
X201152381Y-104032200D01*
X201152381Y-104032200D02*
X201057143Y-103936961D01*
X201057143Y-103936961D02*
X201009524Y-103746485D01*
X201009524Y-103746485D02*
X201009524Y-103413152D01*
X201009524Y-103413152D02*
X201057143Y-103222676D01*
X201057143Y-103222676D02*
X201152381Y-103127438D01*
X201152381Y-103127438D02*
X201247619Y-103079819D01*
X202438095Y-103556009D02*
X202104762Y-103556009D01*
X202104762Y-104079819D02*
X202104762Y-103079819D01*
X202104762Y-103079819D02*
X202580952Y-103079819D01*
X203295238Y-103556009D02*
X202961905Y-103556009D01*
X202961905Y-104079819D02*
X202961905Y-103079819D01*
X202961905Y-103079819D02*
X203438095Y-103079819D01*
X201580952Y-93079819D02*
X201771428Y-93079819D01*
X201771428Y-93079819D02*
X201866666Y-93127438D01*
X201866666Y-93127438D02*
X201961904Y-93222676D01*
X201961904Y-93222676D02*
X202009523Y-93413152D01*
X202009523Y-93413152D02*
X202009523Y-93746485D01*
X202009523Y-93746485D02*
X201961904Y-93936961D01*
X201961904Y-93936961D02*
X201866666Y-94032200D01*
X201866666Y-94032200D02*
X201771428Y-94079819D01*
X201771428Y-94079819D02*
X201580952Y-94079819D01*
X201580952Y-94079819D02*
X201485714Y-94032200D01*
X201485714Y-94032200D02*
X201390476Y-93936961D01*
X201390476Y-93936961D02*
X201342857Y-93746485D01*
X201342857Y-93746485D02*
X201342857Y-93413152D01*
X201342857Y-93413152D02*
X201390476Y-93222676D01*
X201390476Y-93222676D02*
X201485714Y-93127438D01*
X201485714Y-93127438D02*
X201580952Y-93079819D01*
X202438095Y-94079819D02*
X202438095Y-93079819D01*
X202438095Y-93079819D02*
X203009523Y-94079819D01*
X203009523Y-94079819D02*
X203009523Y-93079819D01*
X200150000Y-106625000D02*
X200400000Y-106625000D01*
X200150000Y-112625000D02*
X200150000Y-106625000D01*
X200150000Y-112625000D02*
X200400000Y-112625000D01*
X203650000Y-106625000D02*
X203400000Y-106625000D01*
X203650000Y-112625000D02*
X203400000Y-112625000D01*
X203650000Y-112625000D02*
X203650000Y-106625000D01*
D11*
X135750000Y-64225000D02*
X136350000Y-64625000D01*
X135750000Y-64625000D02*
X135250000Y-64625000D01*
X135750000Y-65025000D02*
X135750000Y-64225000D01*
X136350000Y-64625000D02*
X135750000Y-65025000D01*
X136350000Y-64625000D02*
X136350000Y-64075000D01*
X136350000Y-64625000D02*
X136350000Y-65175000D01*
X136750000Y-64625000D02*
X136350000Y-64625000D01*
D10*
X147000000Y-72550000D02*
X151480000Y-72550000D01*
X147000000Y-73150000D02*
X147000000Y-72550000D01*
X147000000Y-77250000D02*
X147000000Y-76750000D01*
X151500000Y-76550000D02*
X151500000Y-77250000D01*
X151500000Y-77250000D02*
X147000000Y-77250000D01*
X152000000Y-71970000D02*
X152000000Y-71050000D01*
X152500000Y-70550000D02*
X152000000Y-71050000D01*
X155500000Y-70550000D02*
X152500000Y-70550000D01*
X155500000Y-75050000D02*
X153200000Y-75050000D01*
X156000000Y-71050000D02*
X155500000Y-70550000D01*
X156000000Y-74550000D02*
X155500000Y-75050000D01*
X151500000Y-76530000D02*
G75*
G02*
X153200000Y-75050000I1589999J-109999D01*
G01*
X152000000Y-71970000D02*
G75*
G02*
X151480000Y-72550000I-549999J-30001D01*
G01*
X129000000Y-87425000D02*
X133480000Y-87425000D01*
X129000000Y-88025000D02*
X129000000Y-87425000D01*
X129000000Y-92125000D02*
X129000000Y-91625000D01*
X133500000Y-91425000D02*
X133500000Y-92125000D01*
X133500000Y-92125000D02*
X129000000Y-92125000D01*
X134000000Y-86845000D02*
X134000000Y-85925000D01*
X134500000Y-85425000D02*
X134000000Y-85925000D01*
X137500000Y-85425000D02*
X134500000Y-85425000D01*
X137500000Y-89925000D02*
X135200000Y-89925000D01*
X138000000Y-85925000D02*
X137500000Y-85425000D01*
X138000000Y-89425000D02*
X137500000Y-89925000D01*
X133500000Y-91405000D02*
G75*
G02*
X135200000Y-89925000I1589999J-109999D01*
G01*
X134000000Y-86845000D02*
G75*
G02*
X133480000Y-87425000I-549999J-30001D01*
G01*
D12*
X184050000Y-61840000D02*
X184050000Y-92440000D01*
X184050000Y-61840000D02*
X186710000Y-61840000D01*
X184050000Y-92440000D02*
X186710000Y-92440000D01*
X186710000Y-61840000D02*
X186710000Y-92440000D01*
X186710000Y-64440000D02*
X184050000Y-64440000D01*
X199290000Y-61840000D02*
X199290000Y-92440000D01*
X199290000Y-61840000D02*
X201950000Y-61840000D01*
X199290000Y-92440000D02*
X201950000Y-92440000D01*
X201950000Y-61840000D02*
X201950000Y-92440000D01*
D11*
X171750000Y-85475000D02*
X172350000Y-85875000D01*
X171750000Y-85875000D02*
X171250000Y-85875000D01*
X171750000Y-86275000D02*
X171750000Y-85475000D01*
X172350000Y-85875000D02*
X171750000Y-86275000D01*
X172350000Y-85875000D02*
X172350000Y-85325000D01*
X172350000Y-85875000D02*
X172350000Y-86425000D01*
X172750000Y-85875000D02*
X172350000Y-85875000D01*
X153750000Y-66350000D02*
X154350000Y-66750000D01*
X153750000Y-66750000D02*
X153250000Y-66750000D01*
X153750000Y-67150000D02*
X153750000Y-66350000D01*
X154350000Y-66750000D02*
X153750000Y-67150000D01*
X154350000Y-66750000D02*
X154350000Y-66200000D01*
X154350000Y-66750000D02*
X154350000Y-67300000D01*
X154750000Y-66750000D02*
X154350000Y-66750000D01*
D10*
X93000000Y-59800000D02*
X97480000Y-59800000D01*
X93000000Y-60400000D02*
X93000000Y-59800000D01*
X93000000Y-64500000D02*
X93000000Y-64000000D01*
X97500000Y-63800000D02*
X97500000Y-64500000D01*
X97500000Y-64500000D02*
X93000000Y-64500000D01*
X98000000Y-59220000D02*
X98000000Y-58300000D01*
X98500000Y-57800000D02*
X98000000Y-58300000D01*
X101500000Y-57800000D02*
X98500000Y-57800000D01*
X101500000Y-62300000D02*
X99200000Y-62300000D01*
X102000000Y-58300000D02*
X101500000Y-57800000D01*
X102000000Y-61800000D02*
X101500000Y-62300000D01*
X97500000Y-63780000D02*
G75*
G02*
X99200000Y-62300000I1589999J-109999D01*
G01*
X98000000Y-59220000D02*
G75*
G02*
X97480000Y-59800000I-549999J-30001D01*
G01*
D11*
X99750000Y-104600000D02*
X100350000Y-105000000D01*
X99750000Y-105000000D02*
X99250000Y-105000000D01*
X99750000Y-105400000D02*
X99750000Y-104600000D01*
X100350000Y-105000000D02*
X99750000Y-105400000D01*
X100350000Y-105000000D02*
X100350000Y-104450000D01*
X100350000Y-105000000D02*
X100350000Y-105550000D01*
X100750000Y-105000000D02*
X100350000Y-105000000D01*
X135750000Y-81225000D02*
X136350000Y-81625000D01*
X135750000Y-81625000D02*
X135250000Y-81625000D01*
X135750000Y-82025000D02*
X135750000Y-81225000D01*
X136350000Y-81625000D02*
X135750000Y-82025000D01*
X136350000Y-81625000D02*
X136350000Y-81075000D01*
X136350000Y-81625000D02*
X136350000Y-82175000D01*
X136750000Y-81625000D02*
X136350000Y-81625000D01*
D10*
X183518722Y-123773462D02*
X183768722Y-123340449D01*
X185568722Y-120222758D02*
X185868722Y-119703142D01*
X185868722Y-119703142D02*
X189748516Y-121943142D01*
X187415836Y-126023462D02*
X183518722Y-123773462D01*
X187765836Y-125417244D02*
X187415836Y-126023462D01*
X190488849Y-121700848D02*
X190948849Y-120904104D01*
X191631862Y-120721092D02*
X190948849Y-120904104D01*
X191979938Y-126118206D02*
X189988080Y-124968206D01*
X192662951Y-125935193D02*
X191979938Y-126118206D01*
X194229938Y-122221092D02*
X191631862Y-120721092D01*
X194412951Y-122904104D02*
X194229938Y-122221092D01*
X187775836Y-125399924D02*
G75*
G02*
X189988081Y-124968205I1321981J-890259D01*
G01*
X190488849Y-121700848D02*
G75*
G02*
X189748516Y-121943142I-491314J249021D01*
G01*
X111000000Y-89550000D02*
X115480000Y-89550000D01*
X111000000Y-90150000D02*
X111000000Y-89550000D01*
X111000000Y-94250000D02*
X111000000Y-93750000D01*
X115500000Y-93550000D02*
X115500000Y-94250000D01*
X115500000Y-94250000D02*
X111000000Y-94250000D01*
X116000000Y-88970000D02*
X116000000Y-88050000D01*
X116500000Y-87550000D02*
X116000000Y-88050000D01*
X119500000Y-87550000D02*
X116500000Y-87550000D01*
X119500000Y-92050000D02*
X117200000Y-92050000D01*
X120000000Y-88050000D02*
X119500000Y-87550000D01*
X120000000Y-91550000D02*
X119500000Y-92050000D01*
X115500000Y-93530000D02*
G75*
G02*
X117200000Y-92050000I1589999J-109999D01*
G01*
X116000000Y-88970000D02*
G75*
G02*
X115480000Y-89550000I-549999J-30001D01*
G01*
X165000000Y-91675000D02*
X169480000Y-91675000D01*
X165000000Y-92275000D02*
X165000000Y-91675000D01*
X165000000Y-96375000D02*
X165000000Y-95875000D01*
X169500000Y-95675000D02*
X169500000Y-96375000D01*
X169500000Y-96375000D02*
X165000000Y-96375000D01*
X170000000Y-91095000D02*
X170000000Y-90175000D01*
X170500000Y-89675000D02*
X170000000Y-90175000D01*
X173500000Y-89675000D02*
X170500000Y-89675000D01*
X173500000Y-94175000D02*
X171200000Y-94175000D01*
X174000000Y-90175000D02*
X173500000Y-89675000D01*
X174000000Y-93675000D02*
X173500000Y-94175000D01*
X169500000Y-95655000D02*
G75*
G02*
X171200000Y-94175000I1589999J-109999D01*
G01*
X170000000Y-91095000D02*
G75*
G02*
X169480000Y-91675000I-549999J-30001D01*
G01*
D11*
X171750000Y-68475000D02*
X172350000Y-68875000D01*
X171750000Y-68875000D02*
X171250000Y-68875000D01*
X171750000Y-69275000D02*
X171750000Y-68475000D01*
X172350000Y-68875000D02*
X171750000Y-69275000D01*
X172350000Y-68875000D02*
X172350000Y-68325000D01*
X172350000Y-68875000D02*
X172350000Y-69425000D01*
X172750000Y-68875000D02*
X172350000Y-68875000D01*
D12*
X200775000Y-97225000D02*
X200775000Y-97025000D01*
X200775000Y-100225000D02*
X200775000Y-98525000D01*
X201825000Y-102075000D02*
X202615000Y-102075000D01*
X202615000Y-95175000D02*
X201825000Y-95175000D01*
X203625000Y-101475000D02*
X203625000Y-95775000D01*
D10*
X129000000Y-70425000D02*
X133480000Y-70425000D01*
X129000000Y-71025000D02*
X129000000Y-70425000D01*
X129000000Y-75125000D02*
X129000000Y-74625000D01*
X133500000Y-74425000D02*
X133500000Y-75125000D01*
X133500000Y-75125000D02*
X129000000Y-75125000D01*
X134000000Y-69845000D02*
X134000000Y-68925000D01*
X134500000Y-68425000D02*
X134000000Y-68925000D01*
X137500000Y-68425000D02*
X134500000Y-68425000D01*
X137500000Y-72925000D02*
X135200000Y-72925000D01*
X138000000Y-68925000D02*
X137500000Y-68425000D01*
X138000000Y-72425000D02*
X137500000Y-72925000D01*
X133500000Y-74405000D02*
G75*
G02*
X135200000Y-72925000I1589999J-109999D01*
G01*
X134000000Y-69845000D02*
G75*
G02*
X133480000Y-70425000I-549999J-30001D01*
G01*
D11*
X99750000Y-87600000D02*
X100350000Y-88000000D01*
X99750000Y-88000000D02*
X99250000Y-88000000D01*
X99750000Y-88400000D02*
X99750000Y-87600000D01*
X100350000Y-88000000D02*
X99750000Y-88400000D01*
X100350000Y-88000000D02*
X100350000Y-87450000D01*
X100350000Y-88000000D02*
X100350000Y-88550000D01*
X100750000Y-88000000D02*
X100350000Y-88000000D01*
D10*
X165000000Y-74675000D02*
X169480000Y-74675000D01*
X165000000Y-75275000D02*
X165000000Y-74675000D01*
X165000000Y-79375000D02*
X165000000Y-78875000D01*
X169500000Y-78675000D02*
X169500000Y-79375000D01*
X169500000Y-79375000D02*
X165000000Y-79375000D01*
X170000000Y-74095000D02*
X170000000Y-73175000D01*
X170500000Y-72675000D02*
X170000000Y-73175000D01*
X173500000Y-72675000D02*
X170500000Y-72675000D01*
X173500000Y-77175000D02*
X171200000Y-77175000D01*
X174000000Y-73175000D02*
X173500000Y-72675000D01*
X174000000Y-76675000D02*
X173500000Y-77175000D01*
X169500000Y-78655000D02*
G75*
G02*
X171200000Y-77175000I1589999J-109999D01*
G01*
X170000000Y-74095000D02*
G75*
G02*
X169480000Y-74675000I-549999J-30001D01*
G01*
D11*
X99750000Y-70600000D02*
X100350000Y-71000000D01*
X99750000Y-71000000D02*
X99250000Y-71000000D01*
X99750000Y-71400000D02*
X99750000Y-70600000D01*
X100350000Y-71000000D02*
X99750000Y-71400000D01*
X100350000Y-71000000D02*
X100350000Y-70450000D01*
X100350000Y-71000000D02*
X100350000Y-71550000D01*
X100750000Y-71000000D02*
X100350000Y-71000000D01*
X171750000Y-102475000D02*
X172350000Y-102875000D01*
X171750000Y-102875000D02*
X171250000Y-102875000D01*
X171750000Y-103275000D02*
X171750000Y-102475000D01*
X172350000Y-102875000D02*
X171750000Y-103275000D01*
X172350000Y-102875000D02*
X172350000Y-102325000D01*
X172350000Y-102875000D02*
X172350000Y-103425000D01*
X172750000Y-102875000D02*
X172350000Y-102875000D01*
X185914394Y-133124110D02*
X186314394Y-132431290D01*
X186114394Y-132777700D02*
X185681381Y-132527700D01*
X186314394Y-132431290D02*
X186634009Y-133077700D01*
X186634009Y-133077700D02*
X185914394Y-133124110D01*
X186634009Y-133077700D02*
X186359009Y-133554014D01*
X186634009Y-133077700D02*
X186909009Y-132601386D01*
X186980419Y-133277700D02*
X186634009Y-133077700D01*
X153750000Y-100350000D02*
X154350000Y-100750000D01*
X153750000Y-100750000D02*
X153250000Y-100750000D01*
X153750000Y-101150000D02*
X153750000Y-100350000D01*
X154350000Y-100750000D02*
X153750000Y-101150000D01*
X154350000Y-100750000D02*
X154350000Y-100200000D01*
X154350000Y-100750000D02*
X154350000Y-101300000D01*
X154750000Y-100750000D02*
X154350000Y-100750000D01*
X153750000Y-83350000D02*
X154350000Y-83750000D01*
X153750000Y-83750000D02*
X153250000Y-83750000D01*
X153750000Y-84150000D02*
X153750000Y-83350000D01*
X154350000Y-83750000D02*
X153750000Y-84150000D01*
X154350000Y-83750000D02*
X154350000Y-83200000D01*
X154350000Y-83750000D02*
X154350000Y-84300000D01*
X154750000Y-83750000D02*
X154350000Y-83750000D01*
X168654191Y-126045266D02*
X168861246Y-125272525D01*
X168757719Y-125658895D02*
X168274756Y-125529486D01*
X168861246Y-125272525D02*
X169337274Y-125814187D01*
X169337274Y-125814187D02*
X168654191Y-126045266D01*
X169337274Y-125814187D02*
X169194924Y-126345446D01*
X169337274Y-125814187D02*
X169479625Y-125282926D01*
X169723644Y-125917714D02*
X169337274Y-125814187D01*
X117750000Y-83350000D02*
X118350000Y-83750000D01*
X117750000Y-83750000D02*
X117250000Y-83750000D01*
X117750000Y-84150000D02*
X117750000Y-83350000D01*
X118350000Y-83750000D02*
X117750000Y-84150000D01*
X118350000Y-83750000D02*
X118350000Y-83200000D01*
X118350000Y-83750000D02*
X118350000Y-84300000D01*
X118750000Y-83750000D02*
X118350000Y-83750000D01*
D10*
X129000000Y-53425000D02*
X133480000Y-53425000D01*
X129000000Y-54025000D02*
X129000000Y-53425000D01*
X129000000Y-58125000D02*
X129000000Y-57625000D01*
X133500000Y-57425000D02*
X133500000Y-58125000D01*
X133500000Y-58125000D02*
X129000000Y-58125000D01*
X134000000Y-52845000D02*
X134000000Y-51925000D01*
X134500000Y-51425000D02*
X134000000Y-51925000D01*
X137500000Y-51425000D02*
X134500000Y-51425000D01*
X137500000Y-55925000D02*
X135200000Y-55925000D01*
X138000000Y-51925000D02*
X137500000Y-51425000D01*
X138000000Y-55425000D02*
X137500000Y-55925000D01*
X133500000Y-57405000D02*
G75*
G02*
X135200000Y-55925000I1589999J-109999D01*
G01*
X134000000Y-52845000D02*
G75*
G02*
X133480000Y-53425000I-549999J-30001D01*
G01*
D11*
X117750000Y-100350000D02*
X118350000Y-100750000D01*
X117750000Y-100750000D02*
X117250000Y-100750000D01*
X117750000Y-101150000D02*
X117750000Y-100350000D01*
X118350000Y-100750000D02*
X117750000Y-101150000D01*
X118350000Y-100750000D02*
X118350000Y-100200000D01*
X118350000Y-100750000D02*
X118350000Y-101300000D01*
X118750000Y-100750000D02*
X118350000Y-100750000D01*
D10*
X165000000Y-57675000D02*
X169480000Y-57675000D01*
X165000000Y-58275000D02*
X165000000Y-57675000D01*
X165000000Y-62375000D02*
X165000000Y-61875000D01*
X169500000Y-61675000D02*
X169500000Y-62375000D01*
X169500000Y-62375000D02*
X165000000Y-62375000D01*
X170000000Y-57095000D02*
X170000000Y-56175000D01*
X170500000Y-55675000D02*
X170000000Y-56175000D01*
X173500000Y-55675000D02*
X170500000Y-55675000D01*
X173500000Y-60175000D02*
X171200000Y-60175000D01*
X174000000Y-56175000D02*
X173500000Y-55675000D01*
X174000000Y-59675000D02*
X173500000Y-60175000D01*
X169500000Y-61655000D02*
G75*
G02*
X171200000Y-60175000I1589999J-109999D01*
G01*
X170000000Y-57095000D02*
G75*
G02*
X169480000Y-57675000I-549999J-30001D01*
G01*
X163920048Y-117633378D02*
X164049457Y-117150415D01*
X164981206Y-113673082D02*
X165136497Y-113093528D01*
X165136497Y-113093528D02*
X169463845Y-114253036D01*
X168266714Y-118798064D02*
X163920048Y-117633378D01*
X168447887Y-118121917D02*
X168266714Y-118798064D01*
X170116241Y-113827385D02*
X170354355Y-112938733D01*
X170966727Y-112585180D02*
X170354355Y-112938733D01*
X172699819Y-117708303D02*
X170478190Y-117113019D01*
X173312192Y-117354750D02*
X172699819Y-117708303D01*
X173864505Y-113361637D02*
X170966727Y-112585180D01*
X174218058Y-113974009D02*
X173864505Y-113361637D01*
X168453064Y-118102597D02*
G75*
G02*
X170478190Y-117113020I1507354J-517780D01*
G01*
X170116241Y-113827385D02*
G75*
G02*
X169463845Y-114253036I-539026J113376D01*
G01*
X111000000Y-72550000D02*
X115480000Y-72550000D01*
X111000000Y-73150000D02*
X111000000Y-72550000D01*
X111000000Y-77250000D02*
X111000000Y-76750000D01*
X115500000Y-76550000D02*
X115500000Y-77250000D01*
X115500000Y-77250000D02*
X111000000Y-77250000D01*
X116000000Y-71970000D02*
X116000000Y-71050000D01*
X116500000Y-70550000D02*
X116000000Y-71050000D01*
X119500000Y-70550000D02*
X116500000Y-70550000D01*
X119500000Y-75050000D02*
X117200000Y-75050000D01*
X120000000Y-71050000D02*
X119500000Y-70550000D01*
X120000000Y-74550000D02*
X119500000Y-75050000D01*
X115500000Y-76530000D02*
G75*
G02*
X117200000Y-75050000I1589999J-109999D01*
G01*
X116000000Y-71970000D02*
G75*
G02*
X115480000Y-72550000I-549999J-30001D01*
G01*
X111000000Y-55550000D02*
X115480000Y-55550000D01*
X111000000Y-56150000D02*
X111000000Y-55550000D01*
X111000000Y-60250000D02*
X111000000Y-59750000D01*
X115500000Y-59550000D02*
X115500000Y-60250000D01*
X115500000Y-60250000D02*
X111000000Y-60250000D01*
X116000000Y-54970000D02*
X116000000Y-54050000D01*
X116500000Y-53550000D02*
X116000000Y-54050000D01*
X119500000Y-53550000D02*
X116500000Y-53550000D01*
X119500000Y-58050000D02*
X117200000Y-58050000D01*
X120000000Y-54050000D02*
X119500000Y-53550000D01*
X120000000Y-57550000D02*
X119500000Y-58050000D01*
X115500000Y-59530000D02*
G75*
G02*
X117200000Y-58050000I1589999J-109999D01*
G01*
X116000000Y-54970000D02*
G75*
G02*
X115480000Y-55550000I-549999J-30001D01*
G01*
X143400000Y-112075000D02*
X147880000Y-112075000D01*
X143400000Y-112675000D02*
X143400000Y-112075000D01*
X143400000Y-116775000D02*
X143400000Y-116275000D01*
X147900000Y-116075000D02*
X147900000Y-116775000D01*
X147900000Y-116775000D02*
X143400000Y-116775000D01*
X148400000Y-111495000D02*
X148400000Y-110575000D01*
X148900000Y-110075000D02*
X148400000Y-110575000D01*
X151900000Y-110075000D02*
X148900000Y-110075000D01*
X151900000Y-114575000D02*
X149600000Y-114575000D01*
X152400000Y-110575000D02*
X151900000Y-110075000D01*
X152400000Y-114075000D02*
X151900000Y-114575000D01*
X147900000Y-116055000D02*
G75*
G02*
X149600000Y-114575000I1589999J-109999D01*
G01*
X148400000Y-111495000D02*
G75*
G02*
X147880000Y-112075000I-549999J-30001D01*
G01*
X147000000Y-55550000D02*
X151480000Y-55550000D01*
X147000000Y-56150000D02*
X147000000Y-55550000D01*
X147000000Y-60250000D02*
X147000000Y-59750000D01*
X151500000Y-59550000D02*
X151500000Y-60250000D01*
X151500000Y-60250000D02*
X147000000Y-60250000D01*
X152000000Y-54970000D02*
X152000000Y-54050000D01*
X152500000Y-53550000D02*
X152000000Y-54050000D01*
X155500000Y-53550000D02*
X152500000Y-53550000D01*
X155500000Y-58050000D02*
X153200000Y-58050000D01*
X156000000Y-54050000D02*
X155500000Y-53550000D01*
X156000000Y-57550000D02*
X155500000Y-58050000D01*
X151500000Y-59530000D02*
G75*
G02*
X153200000Y-58050000I1589999J-109999D01*
G01*
X152000000Y-54970000D02*
G75*
G02*
X151480000Y-55550000I-549999J-30001D01*
G01*
X147000000Y-89550000D02*
X151480000Y-89550000D01*
X147000000Y-90150000D02*
X147000000Y-89550000D01*
X147000000Y-94250000D02*
X147000000Y-93750000D01*
X151500000Y-93550000D02*
X151500000Y-94250000D01*
X151500000Y-94250000D02*
X147000000Y-94250000D01*
X152000000Y-88970000D02*
X152000000Y-88050000D01*
X152500000Y-87550000D02*
X152000000Y-88050000D01*
X155500000Y-87550000D02*
X152500000Y-87550000D01*
X155500000Y-92050000D02*
X153200000Y-92050000D01*
X156000000Y-88050000D02*
X155500000Y-87550000D01*
X156000000Y-91550000D02*
X155500000Y-92050000D01*
X151500000Y-93530000D02*
G75*
G02*
X153200000Y-92050000I1589999J-109999D01*
G01*
X152000000Y-88970000D02*
G75*
G02*
X151480000Y-89550000I-549999J-30001D01*
G01*
D11*
X117750000Y-66350000D02*
X118350000Y-66750000D01*
X117750000Y-66750000D02*
X117250000Y-66750000D01*
X117750000Y-67150000D02*
X117750000Y-66350000D01*
X118350000Y-66750000D02*
X117750000Y-67150000D01*
X118350000Y-66750000D02*
X118350000Y-66200000D01*
X118350000Y-66750000D02*
X118350000Y-67300000D01*
X118750000Y-66750000D02*
X118350000Y-66750000D01*
D12*
X191540000Y-102690000D02*
X192540000Y-102690000D01*
X191540000Y-103610000D02*
X191540000Y-102690000D01*
X191540000Y-107810000D02*
X191540000Y-108810000D01*
X191540000Y-108810000D02*
X192540000Y-108810000D01*
X199360000Y-102690000D02*
X198360000Y-102690000D01*
X199360000Y-103610000D02*
X199360000Y-102690000D01*
X199360000Y-107890000D02*
X199360000Y-108810000D01*
X199360000Y-108810000D02*
X198360000Y-108810000D01*
D11*
X199900000Y-104750000D02*
X200900000Y-104750000D01*
X200400000Y-104250000D02*
X200400000Y-105250000D01*
X200400000Y-107250000D02*
X200400000Y-106250000D01*
D10*
X93000000Y-76800000D02*
X97480000Y-76800000D01*
X93000000Y-77400000D02*
X93000000Y-76800000D01*
X93000000Y-81500000D02*
X93000000Y-81000000D01*
X97500000Y-80800000D02*
X97500000Y-81500000D01*
X97500000Y-81500000D02*
X93000000Y-81500000D01*
X98000000Y-76220000D02*
X98000000Y-75300000D01*
X98500000Y-74800000D02*
X98000000Y-75300000D01*
X101500000Y-74800000D02*
X98500000Y-74800000D01*
X101500000Y-79300000D02*
X99200000Y-79300000D01*
X102000000Y-75300000D02*
X101500000Y-74800000D01*
X102000000Y-78800000D02*
X101500000Y-79300000D01*
X97500000Y-80780000D02*
G75*
G02*
X99200000Y-79300000I1589999J-109999D01*
G01*
X98000000Y-76220000D02*
G75*
G02*
X97480000Y-76800000I-549999J-30001D01*
G01*
X93000000Y-93800000D02*
X97480000Y-93800000D01*
X93000000Y-94400000D02*
X93000000Y-93800000D01*
X93000000Y-98500000D02*
X93000000Y-98000000D01*
X97500000Y-97800000D02*
X97500000Y-98500000D01*
X97500000Y-98500000D02*
X93000000Y-98500000D01*
X98000000Y-93220000D02*
X98000000Y-92300000D01*
X98500000Y-91800000D02*
X98000000Y-92300000D01*
X101500000Y-91800000D02*
X98500000Y-91800000D01*
X101500000Y-96300000D02*
X99200000Y-96300000D01*
X102000000Y-92300000D02*
X101500000Y-91800000D01*
X102000000Y-95800000D02*
X101500000Y-96300000D01*
X97500000Y-97780000D02*
G75*
G02*
X99200000Y-96300000I1589999J-109999D01*
G01*
X98000000Y-93220000D02*
G75*
G02*
X97480000Y-93800000I-549999J-30001D01*
G01*
D11*
X150150000Y-122875000D02*
X150750000Y-123275000D01*
X150150000Y-123275000D02*
X149650000Y-123275000D01*
X150150000Y-123675000D02*
X150150000Y-122875000D01*
X150750000Y-123275000D02*
X150150000Y-123675000D01*
X150750000Y-123275000D02*
X150750000Y-122725000D01*
X150750000Y-123275000D02*
X150750000Y-123825000D01*
X151150000Y-123275000D02*
X150750000Y-123275000D01*
D12*
X187860000Y-96870000D02*
X187860000Y-99530000D01*
X198140000Y-96870000D02*
X187860000Y-96870000D01*
X198140000Y-96870000D02*
X198140000Y-99530000D01*
X198140000Y-99530000D02*
X187860000Y-99530000D01*
D11*
X135750000Y-98225000D02*
X136350000Y-98625000D01*
X135750000Y-98625000D02*
X135250000Y-98625000D01*
X135750000Y-99025000D02*
X135750000Y-98225000D01*
X136350000Y-98625000D02*
X135750000Y-99025000D01*
X136350000Y-98625000D02*
X136350000Y-98075000D01*
X136350000Y-98625000D02*
X136350000Y-99175000D01*
X136750000Y-98625000D02*
X136350000Y-98625000D01*
D13*
X201900000Y-106375000D03*
X201900000Y-112875000D03*
%LPC*%
D14*
X201900000Y-106375000D03*
X201900000Y-112875000D03*
G36*
G01*
X138150000Y-64025000D02*
X138150000Y-65225000D01*
G75*
G02*
X138100000Y-65275000I-50000J0D01*
G01*
X137200000Y-65275000D01*
G75*
G02*
X137150000Y-65225000I0J50000D01*
G01*
X137150000Y-64025000D01*
G75*
G02*
X137200000Y-63975000I50000J0D01*
G01*
X138100000Y-63975000D01*
G75*
G02*
X138150000Y-64025000I0J-50000D01*
G01*
G37*
G36*
G01*
X134850000Y-64025000D02*
X134850000Y-65225000D01*
G75*
G02*
X134800000Y-65275000I-50000J0D01*
G01*
X133900000Y-65275000D01*
G75*
G02*
X133850000Y-65225000I0J50000D01*
G01*
X133850000Y-64025000D01*
G75*
G02*
X133900000Y-63975000I50000J0D01*
G01*
X134800000Y-63975000D01*
G75*
G02*
X134850000Y-64025000I0J-50000D01*
G01*
G37*
D15*
X109000000Y-87250000D03*
D13*
X148500000Y-78750000D03*
D16*
X149000000Y-75000000D03*
X154000000Y-72800000D03*
D17*
X154000000Y-78750000D03*
D13*
X159500000Y-78750000D03*
G36*
G01*
X155925000Y-74100000D02*
X155925000Y-71500000D01*
G75*
G02*
X155975000Y-71450000I50000J0D01*
G01*
X158575000Y-71450000D01*
G75*
G02*
X158625000Y-71500000I0J-50000D01*
G01*
X158625000Y-74100000D01*
G75*
G02*
X158575000Y-74150000I-50000J0D01*
G01*
X155975000Y-74150000D01*
G75*
G02*
X155925000Y-74100000I0J50000D01*
G01*
G37*
G36*
G01*
X144375000Y-76300000D02*
X144375000Y-73700000D01*
G75*
G02*
X144425000Y-73650000I50000J0D01*
G01*
X147025000Y-73650000D01*
G75*
G02*
X147075000Y-73700000I0J-50000D01*
G01*
X147075000Y-76300000D01*
G75*
G02*
X147025000Y-76350000I-50000J0D01*
G01*
X144425000Y-76350000D01*
G75*
G02*
X144375000Y-76300000I0J50000D01*
G01*
G37*
X130500000Y-93625000D03*
D16*
X131000000Y-89875000D03*
X136000000Y-87675000D03*
D17*
X136000000Y-93625000D03*
D13*
X141500000Y-93625000D03*
G36*
G01*
X137925000Y-88975000D02*
X137925000Y-86375000D01*
G75*
G02*
X137975000Y-86325000I50000J0D01*
G01*
X140575000Y-86325000D01*
G75*
G02*
X140625000Y-86375000I0J-50000D01*
G01*
X140625000Y-88975000D01*
G75*
G02*
X140575000Y-89025000I-50000J0D01*
G01*
X137975000Y-89025000D01*
G75*
G02*
X137925000Y-88975000I0J50000D01*
G01*
G37*
G36*
G01*
X126375000Y-91175000D02*
X126375000Y-88575000D01*
G75*
G02*
X126425000Y-88525000I50000J0D01*
G01*
X129025000Y-88525000D01*
G75*
G02*
X129075000Y-88575000I0J-50000D01*
G01*
X129075000Y-91175000D01*
G75*
G02*
X129025000Y-91225000I-50000J0D01*
G01*
X126425000Y-91225000D01*
G75*
G02*
X126375000Y-91175000I0J50000D01*
G01*
G37*
D18*
X200620000Y-63170000D03*
X200620000Y-65710000D03*
X200620000Y-68250000D03*
X200620000Y-70790000D03*
X200620000Y-73330000D03*
X200620000Y-75870000D03*
X200620000Y-78410000D03*
X200620000Y-80950000D03*
X200620000Y-83490000D03*
X200620000Y-86030000D03*
X200620000Y-88570000D03*
X200620000Y-91110000D03*
X185380000Y-91110000D03*
G36*
G01*
X187170000Y-91710000D02*
X187170000Y-90510000D01*
G75*
G02*
X187220000Y-90460000I50000J0D01*
G01*
X187820000Y-90460000D01*
G75*
G02*
X187870000Y-90510000I0J-50000D01*
G01*
X187870000Y-91710000D01*
G75*
G02*
X187820000Y-91760000I-50000J0D01*
G01*
X187220000Y-91760000D01*
G75*
G02*
X187170000Y-91710000I0J50000D01*
G01*
G37*
G36*
G01*
X198130000Y-91710000D02*
X198130000Y-90510000D01*
G75*
G02*
X198180000Y-90460000I50000J0D01*
G01*
X198780000Y-90460000D01*
G75*
G02*
X198830000Y-90510000I0J-50000D01*
G01*
X198830000Y-91710000D01*
G75*
G02*
X198780000Y-91760000I-50000J0D01*
G01*
X198180000Y-91760000D01*
G75*
G02*
X198130000Y-91710000I0J50000D01*
G01*
G37*
X185380000Y-88570000D03*
G36*
G01*
X187170000Y-89170000D02*
X187170000Y-87970000D01*
G75*
G02*
X187220000Y-87920000I50000J0D01*
G01*
X187820000Y-87920000D01*
G75*
G02*
X187870000Y-87970000I0J-50000D01*
G01*
X187870000Y-89170000D01*
G75*
G02*
X187820000Y-89220000I-50000J0D01*
G01*
X187220000Y-89220000D01*
G75*
G02*
X187170000Y-89170000I0J50000D01*
G01*
G37*
G36*
G01*
X198130000Y-89170000D02*
X198130000Y-87970000D01*
G75*
G02*
X198180000Y-87920000I50000J0D01*
G01*
X198780000Y-87920000D01*
G75*
G02*
X198830000Y-87970000I0J-50000D01*
G01*
X198830000Y-89170000D01*
G75*
G02*
X198780000Y-89220000I-50000J0D01*
G01*
X198180000Y-89220000D01*
G75*
G02*
X198130000Y-89170000I0J50000D01*
G01*
G37*
X185380000Y-86030000D03*
G36*
G01*
X187170000Y-86630000D02*
X187170000Y-85430000D01*
G75*
G02*
X187220000Y-85380000I50000J0D01*
G01*
X187820000Y-85380000D01*
G75*
G02*
X187870000Y-85430000I0J-50000D01*
G01*
X187870000Y-86630000D01*
G75*
G02*
X187820000Y-86680000I-50000J0D01*
G01*
X187220000Y-86680000D01*
G75*
G02*
X187170000Y-86630000I0J50000D01*
G01*
G37*
G36*
G01*
X198130000Y-86630000D02*
X198130000Y-85430000D01*
G75*
G02*
X198180000Y-85380000I50000J0D01*
G01*
X198780000Y-85380000D01*
G75*
G02*
X198830000Y-85430000I0J-50000D01*
G01*
X198830000Y-86630000D01*
G75*
G02*
X198780000Y-86680000I-50000J0D01*
G01*
X198180000Y-86680000D01*
G75*
G02*
X198130000Y-86630000I0J50000D01*
G01*
G37*
X185380000Y-83490000D03*
G36*
G01*
X187170000Y-84090000D02*
X187170000Y-82890000D01*
G75*
G02*
X187220000Y-82840000I50000J0D01*
G01*
X187820000Y-82840000D01*
G75*
G02*
X187870000Y-82890000I0J-50000D01*
G01*
X187870000Y-84090000D01*
G75*
G02*
X187820000Y-84140000I-50000J0D01*
G01*
X187220000Y-84140000D01*
G75*
G02*
X187170000Y-84090000I0J50000D01*
G01*
G37*
G36*
G01*
X198130000Y-84090000D02*
X198130000Y-82890000D01*
G75*
G02*
X198180000Y-82840000I50000J0D01*
G01*
X198780000Y-82840000D01*
G75*
G02*
X198830000Y-82890000I0J-50000D01*
G01*
X198830000Y-84090000D01*
G75*
G02*
X198780000Y-84140000I-50000J0D01*
G01*
X198180000Y-84140000D01*
G75*
G02*
X198130000Y-84090000I0J50000D01*
G01*
G37*
X185380000Y-80950000D03*
G36*
G01*
X187170000Y-81550000D02*
X187170000Y-80350000D01*
G75*
G02*
X187220000Y-80300000I50000J0D01*
G01*
X187820000Y-80300000D01*
G75*
G02*
X187870000Y-80350000I0J-50000D01*
G01*
X187870000Y-81550000D01*
G75*
G02*
X187820000Y-81600000I-50000J0D01*
G01*
X187220000Y-81600000D01*
G75*
G02*
X187170000Y-81550000I0J50000D01*
G01*
G37*
G36*
G01*
X198130000Y-81550000D02*
X198130000Y-80350000D01*
G75*
G02*
X198180000Y-80300000I50000J0D01*
G01*
X198780000Y-80300000D01*
G75*
G02*
X198830000Y-80350000I0J-50000D01*
G01*
X198830000Y-81550000D01*
G75*
G02*
X198780000Y-81600000I-50000J0D01*
G01*
X198180000Y-81600000D01*
G75*
G02*
X198130000Y-81550000I0J50000D01*
G01*
G37*
X185380000Y-78410000D03*
G36*
G01*
X187170000Y-79010000D02*
X187170000Y-77810000D01*
G75*
G02*
X187220000Y-77760000I50000J0D01*
G01*
X187820000Y-77760000D01*
G75*
G02*
X187870000Y-77810000I0J-50000D01*
G01*
X187870000Y-79010000D01*
G75*
G02*
X187820000Y-79060000I-50000J0D01*
G01*
X187220000Y-79060000D01*
G75*
G02*
X187170000Y-79010000I0J50000D01*
G01*
G37*
G36*
G01*
X198130000Y-79010000D02*
X198130000Y-77810000D01*
G75*
G02*
X198180000Y-77760000I50000J0D01*
G01*
X198780000Y-77760000D01*
G75*
G02*
X198830000Y-77810000I0J-50000D01*
G01*
X198830000Y-79010000D01*
G75*
G02*
X198780000Y-79060000I-50000J0D01*
G01*
X198180000Y-79060000D01*
G75*
G02*
X198130000Y-79010000I0J50000D01*
G01*
G37*
X185380000Y-75870000D03*
G36*
G01*
X187170000Y-76470000D02*
X187170000Y-75270000D01*
G75*
G02*
X187220000Y-75220000I50000J0D01*
G01*
X187820000Y-75220000D01*
G75*
G02*
X187870000Y-75270000I0J-50000D01*
G01*
X187870000Y-76470000D01*
G75*
G02*
X187820000Y-76520000I-50000J0D01*
G01*
X187220000Y-76520000D01*
G75*
G02*
X187170000Y-76470000I0J50000D01*
G01*
G37*
G36*
G01*
X198130000Y-76470000D02*
X198130000Y-75270000D01*
G75*
G02*
X198180000Y-75220000I50000J0D01*
G01*
X198780000Y-75220000D01*
G75*
G02*
X198830000Y-75270000I0J-50000D01*
G01*
X198830000Y-76470000D01*
G75*
G02*
X198780000Y-76520000I-50000J0D01*
G01*
X198180000Y-76520000D01*
G75*
G02*
X198130000Y-76470000I0J50000D01*
G01*
G37*
X185380000Y-73330000D03*
G36*
G01*
X187170000Y-73930000D02*
X187170000Y-72730000D01*
G75*
G02*
X187220000Y-72680000I50000J0D01*
G01*
X187820000Y-72680000D01*
G75*
G02*
X187870000Y-72730000I0J-50000D01*
G01*
X187870000Y-73930000D01*
G75*
G02*
X187820000Y-73980000I-50000J0D01*
G01*
X187220000Y-73980000D01*
G75*
G02*
X187170000Y-73930000I0J50000D01*
G01*
G37*
G36*
G01*
X198130000Y-73930000D02*
X198130000Y-72730000D01*
G75*
G02*
X198180000Y-72680000I50000J0D01*
G01*
X198780000Y-72680000D01*
G75*
G02*
X198830000Y-72730000I0J-50000D01*
G01*
X198830000Y-73930000D01*
G75*
G02*
X198780000Y-73980000I-50000J0D01*
G01*
X198180000Y-73980000D01*
G75*
G02*
X198130000Y-73930000I0J50000D01*
G01*
G37*
X185380000Y-70790000D03*
G36*
G01*
X187170000Y-71390000D02*
X187170000Y-70190000D01*
G75*
G02*
X187220000Y-70140000I50000J0D01*
G01*
X187820000Y-70140000D01*
G75*
G02*
X187870000Y-70190000I0J-50000D01*
G01*
X187870000Y-71390000D01*
G75*
G02*
X187820000Y-71440000I-50000J0D01*
G01*
X187220000Y-71440000D01*
G75*
G02*
X187170000Y-71390000I0J50000D01*
G01*
G37*
G36*
G01*
X198130000Y-71390000D02*
X198130000Y-70190000D01*
G75*
G02*
X198180000Y-70140000I50000J0D01*
G01*
X198780000Y-70140000D01*
G75*
G02*
X198830000Y-70190000I0J-50000D01*
G01*
X198830000Y-71390000D01*
G75*
G02*
X198780000Y-71440000I-50000J0D01*
G01*
X198180000Y-71440000D01*
G75*
G02*
X198130000Y-71390000I0J50000D01*
G01*
G37*
X185380000Y-68250000D03*
G36*
G01*
X187170000Y-68850000D02*
X187170000Y-67650000D01*
G75*
G02*
X187220000Y-67600000I50000J0D01*
G01*
X187820000Y-67600000D01*
G75*
G02*
X187870000Y-67650000I0J-50000D01*
G01*
X187870000Y-68850000D01*
G75*
G02*
X187820000Y-68900000I-50000J0D01*
G01*
X187220000Y-68900000D01*
G75*
G02*
X187170000Y-68850000I0J50000D01*
G01*
G37*
G36*
G01*
X198130000Y-68850000D02*
X198130000Y-67650000D01*
G75*
G02*
X198180000Y-67600000I50000J0D01*
G01*
X198780000Y-67600000D01*
G75*
G02*
X198830000Y-67650000I0J-50000D01*
G01*
X198830000Y-68850000D01*
G75*
G02*
X198780000Y-68900000I-50000J0D01*
G01*
X198180000Y-68900000D01*
G75*
G02*
X198130000Y-68850000I0J50000D01*
G01*
G37*
X185380000Y-65710000D03*
G36*
G01*
X187170000Y-66310000D02*
X187170000Y-65110000D01*
G75*
G02*
X187220000Y-65060000I50000J0D01*
G01*
X187820000Y-65060000D01*
G75*
G02*
X187870000Y-65110000I0J-50000D01*
G01*
X187870000Y-66310000D01*
G75*
G02*
X187820000Y-66360000I-50000J0D01*
G01*
X187220000Y-66360000D01*
G75*
G02*
X187170000Y-66310000I0J50000D01*
G01*
G37*
G36*
G01*
X198130000Y-66310000D02*
X198130000Y-65110000D01*
G75*
G02*
X198180000Y-65060000I50000J0D01*
G01*
X198780000Y-65060000D01*
G75*
G02*
X198830000Y-65110000I0J-50000D01*
G01*
X198830000Y-66310000D01*
G75*
G02*
X198780000Y-66360000I-50000J0D01*
G01*
X198180000Y-66360000D01*
G75*
G02*
X198130000Y-66310000I0J50000D01*
G01*
G37*
X185380000Y-63170000D03*
G36*
G01*
X187170000Y-63770000D02*
X187170000Y-62570000D01*
G75*
G02*
X187220000Y-62520000I50000J0D01*
G01*
X187820000Y-62520000D01*
G75*
G02*
X187870000Y-62570000I0J-50000D01*
G01*
X187870000Y-63770000D01*
G75*
G02*
X187820000Y-63820000I-50000J0D01*
G01*
X187220000Y-63820000D01*
G75*
G02*
X187170000Y-63770000I0J50000D01*
G01*
G37*
G36*
G01*
X198130000Y-63770000D02*
X198130000Y-62570000D01*
G75*
G02*
X198180000Y-62520000I50000J0D01*
G01*
X198780000Y-62520000D01*
G75*
G02*
X198830000Y-62570000I0J-50000D01*
G01*
X198830000Y-63770000D01*
G75*
G02*
X198780000Y-63820000I-50000J0D01*
G01*
X198180000Y-63820000D01*
G75*
G02*
X198130000Y-63770000I0J50000D01*
G01*
G37*
D19*
X196400000Y-63170000D03*
G36*
G01*
X197230000Y-63770000D02*
X197230000Y-62570000D01*
G75*
G02*
X197280000Y-62520000I50000J0D01*
G01*
X197880000Y-62520000D01*
G75*
G02*
X197930000Y-62570000I0J-50000D01*
G01*
X197930000Y-63770000D01*
G75*
G02*
X197880000Y-63820000I-50000J0D01*
G01*
X197280000Y-63820000D01*
G75*
G02*
X197230000Y-63770000I0J50000D01*
G01*
G37*
X196400000Y-65710000D03*
G36*
G01*
X197230000Y-66310000D02*
X197230000Y-65110000D01*
G75*
G02*
X197280000Y-65060000I50000J0D01*
G01*
X197880000Y-65060000D01*
G75*
G02*
X197930000Y-65110000I0J-50000D01*
G01*
X197930000Y-66310000D01*
G75*
G02*
X197880000Y-66360000I-50000J0D01*
G01*
X197280000Y-66360000D01*
G75*
G02*
X197230000Y-66310000I0J50000D01*
G01*
G37*
X196400000Y-68250000D03*
G36*
G01*
X197230000Y-68850000D02*
X197230000Y-67650000D01*
G75*
G02*
X197280000Y-67600000I50000J0D01*
G01*
X197880000Y-67600000D01*
G75*
G02*
X197930000Y-67650000I0J-50000D01*
G01*
X197930000Y-68850000D01*
G75*
G02*
X197880000Y-68900000I-50000J0D01*
G01*
X197280000Y-68900000D01*
G75*
G02*
X197230000Y-68850000I0J50000D01*
G01*
G37*
X196400000Y-70790000D03*
G36*
G01*
X197230000Y-71390000D02*
X197230000Y-70190000D01*
G75*
G02*
X197280000Y-70140000I50000J0D01*
G01*
X197880000Y-70140000D01*
G75*
G02*
X197930000Y-70190000I0J-50000D01*
G01*
X197930000Y-71390000D01*
G75*
G02*
X197880000Y-71440000I-50000J0D01*
G01*
X197280000Y-71440000D01*
G75*
G02*
X197230000Y-71390000I0J50000D01*
G01*
G37*
X196400000Y-73330000D03*
G36*
G01*
X197230000Y-73930000D02*
X197230000Y-72730000D01*
G75*
G02*
X197280000Y-72680000I50000J0D01*
G01*
X197880000Y-72680000D01*
G75*
G02*
X197930000Y-72730000I0J-50000D01*
G01*
X197930000Y-73930000D01*
G75*
G02*
X197880000Y-73980000I-50000J0D01*
G01*
X197280000Y-73980000D01*
G75*
G02*
X197230000Y-73930000I0J50000D01*
G01*
G37*
X196400000Y-75870000D03*
G36*
G01*
X197230000Y-76470000D02*
X197230000Y-75270000D01*
G75*
G02*
X197280000Y-75220000I50000J0D01*
G01*
X197880000Y-75220000D01*
G75*
G02*
X197930000Y-75270000I0J-50000D01*
G01*
X197930000Y-76470000D01*
G75*
G02*
X197880000Y-76520000I-50000J0D01*
G01*
X197280000Y-76520000D01*
G75*
G02*
X197230000Y-76470000I0J50000D01*
G01*
G37*
X196400000Y-78410000D03*
G36*
G01*
X197230000Y-79010000D02*
X197230000Y-77810000D01*
G75*
G02*
X197280000Y-77760000I50000J0D01*
G01*
X197880000Y-77760000D01*
G75*
G02*
X197930000Y-77810000I0J-50000D01*
G01*
X197930000Y-79010000D01*
G75*
G02*
X197880000Y-79060000I-50000J0D01*
G01*
X197280000Y-79060000D01*
G75*
G02*
X197230000Y-79010000I0J50000D01*
G01*
G37*
X196400000Y-80950000D03*
G36*
G01*
X197230000Y-81550000D02*
X197230000Y-80350000D01*
G75*
G02*
X197280000Y-80300000I50000J0D01*
G01*
X197880000Y-80300000D01*
G75*
G02*
X197930000Y-80350000I0J-50000D01*
G01*
X197930000Y-81550000D01*
G75*
G02*
X197880000Y-81600000I-50000J0D01*
G01*
X197280000Y-81600000D01*
G75*
G02*
X197230000Y-81550000I0J50000D01*
G01*
G37*
X196400000Y-83490000D03*
G36*
G01*
X197230000Y-84090000D02*
X197230000Y-82890000D01*
G75*
G02*
X197280000Y-82840000I50000J0D01*
G01*
X197880000Y-82840000D01*
G75*
G02*
X197930000Y-82890000I0J-50000D01*
G01*
X197930000Y-84090000D01*
G75*
G02*
X197880000Y-84140000I-50000J0D01*
G01*
X197280000Y-84140000D01*
G75*
G02*
X197230000Y-84090000I0J50000D01*
G01*
G37*
X196400000Y-86030000D03*
G36*
G01*
X197230000Y-86630000D02*
X197230000Y-85430000D01*
G75*
G02*
X197280000Y-85380000I50000J0D01*
G01*
X197880000Y-85380000D01*
G75*
G02*
X197930000Y-85430000I0J-50000D01*
G01*
X197930000Y-86630000D01*
G75*
G02*
X197880000Y-86680000I-50000J0D01*
G01*
X197280000Y-86680000D01*
G75*
G02*
X197230000Y-86630000I0J50000D01*
G01*
G37*
X196400000Y-88570000D03*
G36*
G01*
X197230000Y-89170000D02*
X197230000Y-87970000D01*
G75*
G02*
X197280000Y-87920000I50000J0D01*
G01*
X197880000Y-87920000D01*
G75*
G02*
X197930000Y-87970000I0J-50000D01*
G01*
X197930000Y-89170000D01*
G75*
G02*
X197880000Y-89220000I-50000J0D01*
G01*
X197280000Y-89220000D01*
G75*
G02*
X197230000Y-89170000I0J50000D01*
G01*
G37*
X196400000Y-91110000D03*
G36*
G01*
X197230000Y-91710000D02*
X197230000Y-90510000D01*
G75*
G02*
X197280000Y-90460000I50000J0D01*
G01*
X197880000Y-90460000D01*
G75*
G02*
X197930000Y-90510000I0J-50000D01*
G01*
X197930000Y-91710000D01*
G75*
G02*
X197880000Y-91760000I-50000J0D01*
G01*
X197280000Y-91760000D01*
G75*
G02*
X197230000Y-91710000I0J50000D01*
G01*
G37*
G36*
G01*
X188070000Y-91710000D02*
X188070000Y-90510000D01*
G75*
G02*
X188120000Y-90460000I50000J0D01*
G01*
X188720000Y-90460000D01*
G75*
G02*
X188770000Y-90510000I0J-50000D01*
G01*
X188770000Y-91710000D01*
G75*
G02*
X188720000Y-91760000I-50000J0D01*
G01*
X188120000Y-91760000D01*
G75*
G02*
X188070000Y-91710000I0J50000D01*
G01*
G37*
X189600000Y-91110000D03*
G36*
G01*
X188070000Y-89170000D02*
X188070000Y-87970000D01*
G75*
G02*
X188120000Y-87920000I50000J0D01*
G01*
X188720000Y-87920000D01*
G75*
G02*
X188770000Y-87970000I0J-50000D01*
G01*
X188770000Y-89170000D01*
G75*
G02*
X188720000Y-89220000I-50000J0D01*
G01*
X188120000Y-89220000D01*
G75*
G02*
X188070000Y-89170000I0J50000D01*
G01*
G37*
X189600000Y-88570000D03*
G36*
G01*
X188070000Y-86630000D02*
X188070000Y-85430000D01*
G75*
G02*
X188120000Y-85380000I50000J0D01*
G01*
X188720000Y-85380000D01*
G75*
G02*
X188770000Y-85430000I0J-50000D01*
G01*
X188770000Y-86630000D01*
G75*
G02*
X188720000Y-86680000I-50000J0D01*
G01*
X188120000Y-86680000D01*
G75*
G02*
X188070000Y-86630000I0J50000D01*
G01*
G37*
X189600000Y-86030000D03*
G36*
G01*
X188070000Y-84090000D02*
X188070000Y-82890000D01*
G75*
G02*
X188120000Y-82840000I50000J0D01*
G01*
X188720000Y-82840000D01*
G75*
G02*
X188770000Y-82890000I0J-50000D01*
G01*
X188770000Y-84090000D01*
G75*
G02*
X188720000Y-84140000I-50000J0D01*
G01*
X188120000Y-84140000D01*
G75*
G02*
X188070000Y-84090000I0J50000D01*
G01*
G37*
X189600000Y-83490000D03*
G36*
G01*
X188070000Y-81550000D02*
X188070000Y-80350000D01*
G75*
G02*
X188120000Y-80300000I50000J0D01*
G01*
X188720000Y-80300000D01*
G75*
G02*
X188770000Y-80350000I0J-50000D01*
G01*
X188770000Y-81550000D01*
G75*
G02*
X188720000Y-81600000I-50000J0D01*
G01*
X188120000Y-81600000D01*
G75*
G02*
X188070000Y-81550000I0J50000D01*
G01*
G37*
X189600000Y-80950000D03*
G36*
G01*
X188070000Y-79010000D02*
X188070000Y-77810000D01*
G75*
G02*
X188120000Y-77760000I50000J0D01*
G01*
X188720000Y-77760000D01*
G75*
G02*
X188770000Y-77810000I0J-50000D01*
G01*
X188770000Y-79010000D01*
G75*
G02*
X188720000Y-79060000I-50000J0D01*
G01*
X188120000Y-79060000D01*
G75*
G02*
X188070000Y-79010000I0J50000D01*
G01*
G37*
X189600000Y-78410000D03*
G36*
G01*
X188070000Y-76470000D02*
X188070000Y-75270000D01*
G75*
G02*
X188120000Y-75220000I50000J0D01*
G01*
X188720000Y-75220000D01*
G75*
G02*
X188770000Y-75270000I0J-50000D01*
G01*
X188770000Y-76470000D01*
G75*
G02*
X188720000Y-76520000I-50000J0D01*
G01*
X188120000Y-76520000D01*
G75*
G02*
X188070000Y-76470000I0J50000D01*
G01*
G37*
X189600000Y-75870000D03*
G36*
G01*
X188070000Y-73930000D02*
X188070000Y-72730000D01*
G75*
G02*
X188120000Y-72680000I50000J0D01*
G01*
X188720000Y-72680000D01*
G75*
G02*
X188770000Y-72730000I0J-50000D01*
G01*
X188770000Y-73930000D01*
G75*
G02*
X188720000Y-73980000I-50000J0D01*
G01*
X188120000Y-73980000D01*
G75*
G02*
X188070000Y-73930000I0J50000D01*
G01*
G37*
X189600000Y-73330000D03*
G36*
G01*
X188070000Y-71390000D02*
X188070000Y-70190000D01*
G75*
G02*
X188120000Y-70140000I50000J0D01*
G01*
X188720000Y-70140000D01*
G75*
G02*
X188770000Y-70190000I0J-50000D01*
G01*
X188770000Y-71390000D01*
G75*
G02*
X188720000Y-71440000I-50000J0D01*
G01*
X188120000Y-71440000D01*
G75*
G02*
X188070000Y-71390000I0J50000D01*
G01*
G37*
X189600000Y-70790000D03*
G36*
G01*
X188070000Y-68850000D02*
X188070000Y-67650000D01*
G75*
G02*
X188120000Y-67600000I50000J0D01*
G01*
X188720000Y-67600000D01*
G75*
G02*
X188770000Y-67650000I0J-50000D01*
G01*
X188770000Y-68850000D01*
G75*
G02*
X188720000Y-68900000I-50000J0D01*
G01*
X188120000Y-68900000D01*
G75*
G02*
X188070000Y-68850000I0J50000D01*
G01*
G37*
X189600000Y-68250000D03*
G36*
G01*
X188070000Y-66310000D02*
X188070000Y-65110000D01*
G75*
G02*
X188120000Y-65060000I50000J0D01*
G01*
X188720000Y-65060000D01*
G75*
G02*
X188770000Y-65110000I0J-50000D01*
G01*
X188770000Y-66310000D01*
G75*
G02*
X188720000Y-66360000I-50000J0D01*
G01*
X188120000Y-66360000D01*
G75*
G02*
X188070000Y-66310000I0J50000D01*
G01*
G37*
X189600000Y-65710000D03*
G36*
G01*
X188070000Y-63770000D02*
X188070000Y-62570000D01*
G75*
G02*
X188120000Y-62520000I50000J0D01*
G01*
X188720000Y-62520000D01*
G75*
G02*
X188770000Y-62570000I0J-50000D01*
G01*
X188770000Y-63770000D01*
G75*
G02*
X188720000Y-63820000I-50000J0D01*
G01*
X188120000Y-63820000D01*
G75*
G02*
X188070000Y-63770000I0J50000D01*
G01*
G37*
X189600000Y-63170000D03*
G36*
G01*
X174150000Y-85275000D02*
X174150000Y-86475000D01*
G75*
G02*
X174100000Y-86525000I-50000J0D01*
G01*
X173200000Y-86525000D01*
G75*
G02*
X173150000Y-86475000I0J50000D01*
G01*
X173150000Y-85275000D01*
G75*
G02*
X173200000Y-85225000I50000J0D01*
G01*
X174100000Y-85225000D01*
G75*
G02*
X174150000Y-85275000I0J-50000D01*
G01*
G37*
G36*
G01*
X170850000Y-85275000D02*
X170850000Y-86475000D01*
G75*
G02*
X170800000Y-86525000I-50000J0D01*
G01*
X169900000Y-86525000D01*
G75*
G02*
X169850000Y-86475000I0J50000D01*
G01*
X169850000Y-85275000D01*
G75*
G02*
X169900000Y-85225000I50000J0D01*
G01*
X170800000Y-85225000D01*
G75*
G02*
X170850000Y-85275000I0J-50000D01*
G01*
G37*
G36*
G01*
X156150000Y-66150000D02*
X156150000Y-67350000D01*
G75*
G02*
X156100000Y-67400000I-50000J0D01*
G01*
X155200000Y-67400000D01*
G75*
G02*
X155150000Y-67350000I0J50000D01*
G01*
X155150000Y-66150000D01*
G75*
G02*
X155200000Y-66100000I50000J0D01*
G01*
X156100000Y-66100000D01*
G75*
G02*
X156150000Y-66150000I0J-50000D01*
G01*
G37*
G36*
G01*
X152850000Y-66150000D02*
X152850000Y-67350000D01*
G75*
G02*
X152800000Y-67400000I-50000J0D01*
G01*
X151900000Y-67400000D01*
G75*
G02*
X151850000Y-67350000I0J50000D01*
G01*
X151850000Y-66150000D01*
G75*
G02*
X151900000Y-66100000I50000J0D01*
G01*
X152800000Y-66100000D01*
G75*
G02*
X152850000Y-66150000I0J-50000D01*
G01*
G37*
D13*
X94500000Y-66000000D03*
D16*
X95000000Y-62250000D03*
X100000000Y-60050000D03*
D17*
X100000000Y-66000000D03*
D13*
X105500000Y-66000000D03*
G36*
G01*
X101925000Y-61350000D02*
X101925000Y-58750000D01*
G75*
G02*
X101975000Y-58700000I50000J0D01*
G01*
X104575000Y-58700000D01*
G75*
G02*
X104625000Y-58750000I0J-50000D01*
G01*
X104625000Y-61350000D01*
G75*
G02*
X104575000Y-61400000I-50000J0D01*
G01*
X101975000Y-61400000D01*
G75*
G02*
X101925000Y-61350000I0J50000D01*
G01*
G37*
G36*
G01*
X90375000Y-63550000D02*
X90375000Y-60950000D01*
G75*
G02*
X90425000Y-60900000I50000J0D01*
G01*
X93025000Y-60900000D01*
G75*
G02*
X93075000Y-60950000I0J-50000D01*
G01*
X93075000Y-63550000D01*
G75*
G02*
X93025000Y-63600000I-50000J0D01*
G01*
X90425000Y-63600000D01*
G75*
G02*
X90375000Y-63550000I0J50000D01*
G01*
G37*
G36*
G01*
X102150000Y-104400000D02*
X102150000Y-105600000D01*
G75*
G02*
X102100000Y-105650000I-50000J0D01*
G01*
X101200000Y-105650000D01*
G75*
G02*
X101150000Y-105600000I0J50000D01*
G01*
X101150000Y-104400000D01*
G75*
G02*
X101200000Y-104350000I50000J0D01*
G01*
X102100000Y-104350000D01*
G75*
G02*
X102150000Y-104400000I0J-50000D01*
G01*
G37*
G36*
G01*
X98850000Y-104400000D02*
X98850000Y-105600000D01*
G75*
G02*
X98800000Y-105650000I-50000J0D01*
G01*
X97900000Y-105650000D01*
G75*
G02*
X97850000Y-105600000I0J50000D01*
G01*
X97850000Y-104400000D01*
G75*
G02*
X97900000Y-104350000I50000J0D01*
G01*
X98800000Y-104350000D01*
G75*
G02*
X98850000Y-104400000I0J-50000D01*
G01*
G37*
G36*
G01*
X138150000Y-81025000D02*
X138150000Y-82225000D01*
G75*
G02*
X138100000Y-82275000I-50000J0D01*
G01*
X137200000Y-82275000D01*
G75*
G02*
X137150000Y-82225000I0J50000D01*
G01*
X137150000Y-81025000D01*
G75*
G02*
X137200000Y-80975000I50000J0D01*
G01*
X138100000Y-80975000D01*
G75*
G02*
X138150000Y-81025000I0J-50000D01*
G01*
G37*
G36*
G01*
X134850000Y-81025000D02*
X134850000Y-82225000D01*
G75*
G02*
X134800000Y-82275000I-50000J0D01*
G01*
X133900000Y-82275000D01*
G75*
G02*
X133850000Y-82225000I0J50000D01*
G01*
X133850000Y-81025000D01*
G75*
G02*
X133900000Y-80975000I50000J0D01*
G01*
X134800000Y-80975000D01*
G75*
G02*
X134850000Y-81025000I0J-50000D01*
G01*
G37*
X184067760Y-125822500D03*
D16*
X186375773Y-122824905D03*
X191805900Y-123419649D03*
D17*
X188830900Y-128572500D03*
D13*
X193594040Y-131322500D03*
G36*
G01*
X192822999Y-125507982D02*
X194122999Y-123256316D01*
G75*
G02*
X194191300Y-123238015I43301J-25000D01*
G01*
X196442966Y-124538015D01*
G75*
G02*
X196461267Y-124606316I-25000J-43301D01*
G01*
X195161267Y-126857982D01*
G75*
G02*
X195092966Y-126876283I-43301J25000D01*
G01*
X192841300Y-125576283D01*
G75*
G02*
X192822999Y-125507982I25000J43301D01*
G01*
G37*
G36*
G01*
X181720406Y-121638238D02*
X183020406Y-119386572D01*
G75*
G02*
X183088707Y-119368271I43301J-25000D01*
G01*
X185340373Y-120668271D01*
G75*
G02*
X185358674Y-120736572I-25000J-43301D01*
G01*
X184058674Y-122988238D01*
G75*
G02*
X183990373Y-123006539I-43301J25000D01*
G01*
X181738707Y-121706539D01*
G75*
G02*
X181720406Y-121638238I25000J43301D01*
G01*
G37*
X112500000Y-95750000D03*
D16*
X113000000Y-92000000D03*
X118000000Y-89800000D03*
D17*
X118000000Y-95750000D03*
D13*
X123500000Y-95750000D03*
G36*
G01*
X119925000Y-91100000D02*
X119925000Y-88500000D01*
G75*
G02*
X119975000Y-88450000I50000J0D01*
G01*
X122575000Y-88450000D01*
G75*
G02*
X122625000Y-88500000I0J-50000D01*
G01*
X122625000Y-91100000D01*
G75*
G02*
X122575000Y-91150000I-50000J0D01*
G01*
X119975000Y-91150000D01*
G75*
G02*
X119925000Y-91100000I0J50000D01*
G01*
G37*
G36*
G01*
X108375000Y-93300000D02*
X108375000Y-90700000D01*
G75*
G02*
X108425000Y-90650000I50000J0D01*
G01*
X111025000Y-90650000D01*
G75*
G02*
X111075000Y-90700000I0J-50000D01*
G01*
X111075000Y-93300000D01*
G75*
G02*
X111025000Y-93350000I-50000J0D01*
G01*
X108425000Y-93350000D01*
G75*
G02*
X108375000Y-93300000I0J50000D01*
G01*
G37*
D15*
X163000000Y-70250000D03*
X141400000Y-109775000D03*
D13*
X166500000Y-97875000D03*
D16*
X167000000Y-94125000D03*
X172000000Y-91925000D03*
D17*
X172000000Y-97875000D03*
D13*
X177500000Y-97875000D03*
G36*
G01*
X173925000Y-93225000D02*
X173925000Y-90625000D01*
G75*
G02*
X173975000Y-90575000I50000J0D01*
G01*
X176575000Y-90575000D01*
G75*
G02*
X176625000Y-90625000I0J-50000D01*
G01*
X176625000Y-93225000D01*
G75*
G02*
X176575000Y-93275000I-50000J0D01*
G01*
X173975000Y-93275000D01*
G75*
G02*
X173925000Y-93225000I0J50000D01*
G01*
G37*
G36*
G01*
X162375000Y-95425000D02*
X162375000Y-92825000D01*
G75*
G02*
X162425000Y-92775000I50000J0D01*
G01*
X165025000Y-92775000D01*
G75*
G02*
X165075000Y-92825000I0J-50000D01*
G01*
X165075000Y-95425000D01*
G75*
G02*
X165025000Y-95475000I-50000J0D01*
G01*
X162425000Y-95475000D01*
G75*
G02*
X162375000Y-95425000I0J50000D01*
G01*
G37*
G36*
G01*
X174150000Y-68275000D02*
X174150000Y-69475000D01*
G75*
G02*
X174100000Y-69525000I-50000J0D01*
G01*
X173200000Y-69525000D01*
G75*
G02*
X173150000Y-69475000I0J50000D01*
G01*
X173150000Y-68275000D01*
G75*
G02*
X173200000Y-68225000I50000J0D01*
G01*
X174100000Y-68225000D01*
G75*
G02*
X174150000Y-68275000I0J-50000D01*
G01*
G37*
G36*
G01*
X170850000Y-68275000D02*
X170850000Y-69475000D01*
G75*
G02*
X170800000Y-69525000I-50000J0D01*
G01*
X169900000Y-69525000D01*
G75*
G02*
X169850000Y-69475000I0J50000D01*
G01*
X169850000Y-68275000D01*
G75*
G02*
X169900000Y-68225000I50000J0D01*
G01*
X170800000Y-68225000D01*
G75*
G02*
X170850000Y-68275000I0J-50000D01*
G01*
G37*
G36*
G01*
X201515000Y-95525000D02*
X200715000Y-95525000D01*
G75*
G02*
X200665000Y-95475000I0J50000D01*
G01*
X200665000Y-94475000D01*
G75*
G02*
X200715000Y-94425000I50000J0D01*
G01*
X201515000Y-94425000D01*
G75*
G02*
X201565000Y-94475000I0J-50000D01*
G01*
X201565000Y-95475000D01*
G75*
G02*
X201515000Y-95525000I-50000J0D01*
G01*
G37*
G36*
G01*
X201515000Y-102825000D02*
X200715000Y-102825000D01*
G75*
G02*
X200665000Y-102775000I0J50000D01*
G01*
X200665000Y-101775000D01*
G75*
G02*
X200715000Y-101725000I50000J0D01*
G01*
X201515000Y-101725000D01*
G75*
G02*
X201565000Y-101775000I0J-50000D01*
G01*
X201565000Y-102775000D01*
G75*
G02*
X201515000Y-102825000I-50000J0D01*
G01*
G37*
D20*
X202225000Y-97125000D03*
X202225000Y-100125000D03*
G36*
G01*
X203725000Y-95525000D02*
X202925000Y-95525000D01*
G75*
G02*
X202875000Y-95475000I0J50000D01*
G01*
X202875000Y-94475000D01*
G75*
G02*
X202925000Y-94425000I50000J0D01*
G01*
X203725000Y-94425000D01*
G75*
G02*
X203775000Y-94475000I0J-50000D01*
G01*
X203775000Y-95475000D01*
G75*
G02*
X203725000Y-95525000I-50000J0D01*
G01*
G37*
G36*
G01*
X203725000Y-102825000D02*
X202925000Y-102825000D01*
G75*
G02*
X202875000Y-102775000I0J50000D01*
G01*
X202875000Y-101775000D01*
G75*
G02*
X202925000Y-101725000I50000J0D01*
G01*
X203725000Y-101725000D01*
G75*
G02*
X203775000Y-101775000I0J-50000D01*
G01*
X203775000Y-102775000D01*
G75*
G02*
X203725000Y-102825000I-50000J0D01*
G01*
G37*
G36*
G01*
X201215000Y-101275000D02*
X199715000Y-101275000D01*
G75*
G02*
X199665000Y-101225000I0J50000D01*
G01*
X199665000Y-100525000D01*
G75*
G02*
X199715000Y-100475000I50000J0D01*
G01*
X201215000Y-100475000D01*
G75*
G02*
X201265000Y-100525000I0J-50000D01*
G01*
X201265000Y-101225000D01*
G75*
G02*
X201215000Y-101275000I-50000J0D01*
G01*
G37*
G36*
G01*
X201215000Y-98275000D02*
X199715000Y-98275000D01*
G75*
G02*
X199665000Y-98225000I0J50000D01*
G01*
X199665000Y-97525000D01*
G75*
G02*
X199715000Y-97475000I50000J0D01*
G01*
X201215000Y-97475000D01*
G75*
G02*
X201265000Y-97525000I0J-50000D01*
G01*
X201265000Y-98225000D01*
G75*
G02*
X201215000Y-98275000I-50000J0D01*
G01*
G37*
G36*
G01*
X201215000Y-96775000D02*
X199715000Y-96775000D01*
G75*
G02*
X199665000Y-96725000I0J50000D01*
G01*
X199665000Y-96025000D01*
G75*
G02*
X199715000Y-95975000I50000J0D01*
G01*
X201215000Y-95975000D01*
G75*
G02*
X201265000Y-96025000I0J-50000D01*
G01*
X201265000Y-96725000D01*
G75*
G02*
X201215000Y-96775000I-50000J0D01*
G01*
G37*
D13*
X130500000Y-76625000D03*
D16*
X131000000Y-72875000D03*
X136000000Y-70675000D03*
D17*
X136000000Y-76625000D03*
D13*
X141500000Y-76625000D03*
G36*
G01*
X137925000Y-71975000D02*
X137925000Y-69375000D01*
G75*
G02*
X137975000Y-69325000I50000J0D01*
G01*
X140575000Y-69325000D01*
G75*
G02*
X140625000Y-69375000I0J-50000D01*
G01*
X140625000Y-71975000D01*
G75*
G02*
X140575000Y-72025000I-50000J0D01*
G01*
X137975000Y-72025000D01*
G75*
G02*
X137925000Y-71975000I0J50000D01*
G01*
G37*
G36*
G01*
X126375000Y-74175000D02*
X126375000Y-71575000D01*
G75*
G02*
X126425000Y-71525000I50000J0D01*
G01*
X129025000Y-71525000D01*
G75*
G02*
X129075000Y-71575000I0J-50000D01*
G01*
X129075000Y-74175000D01*
G75*
G02*
X129025000Y-74225000I-50000J0D01*
G01*
X126425000Y-74225000D01*
G75*
G02*
X126375000Y-74175000I0J50000D01*
G01*
G37*
G36*
G01*
X102150000Y-87400000D02*
X102150000Y-88600000D01*
G75*
G02*
X102100000Y-88650000I-50000J0D01*
G01*
X101200000Y-88650000D01*
G75*
G02*
X101150000Y-88600000I0J50000D01*
G01*
X101150000Y-87400000D01*
G75*
G02*
X101200000Y-87350000I50000J0D01*
G01*
X102100000Y-87350000D01*
G75*
G02*
X102150000Y-87400000I0J-50000D01*
G01*
G37*
G36*
G01*
X98850000Y-87400000D02*
X98850000Y-88600000D01*
G75*
G02*
X98800000Y-88650000I-50000J0D01*
G01*
X97900000Y-88650000D01*
G75*
G02*
X97850000Y-88600000I0J50000D01*
G01*
X97850000Y-87400000D01*
G75*
G02*
X97900000Y-87350000I50000J0D01*
G01*
X98800000Y-87350000D01*
G75*
G02*
X98850000Y-87400000I0J-50000D01*
G01*
G37*
X166500000Y-80875000D03*
D16*
X167000000Y-77125000D03*
X172000000Y-74925000D03*
D17*
X172000000Y-80875000D03*
D13*
X177500000Y-80875000D03*
G36*
G01*
X173925000Y-76225000D02*
X173925000Y-73625000D01*
G75*
G02*
X173975000Y-73575000I50000J0D01*
G01*
X176575000Y-73575000D01*
G75*
G02*
X176625000Y-73625000I0J-50000D01*
G01*
X176625000Y-76225000D01*
G75*
G02*
X176575000Y-76275000I-50000J0D01*
G01*
X173975000Y-76275000D01*
G75*
G02*
X173925000Y-76225000I0J50000D01*
G01*
G37*
G36*
G01*
X162375000Y-78425000D02*
X162375000Y-75825000D01*
G75*
G02*
X162425000Y-75775000I50000J0D01*
G01*
X165025000Y-75775000D01*
G75*
G02*
X165075000Y-75825000I0J-50000D01*
G01*
X165075000Y-78425000D01*
G75*
G02*
X165025000Y-78475000I-50000J0D01*
G01*
X162425000Y-78475000D01*
G75*
G02*
X162375000Y-78425000I0J50000D01*
G01*
G37*
G36*
G01*
X102150000Y-70400000D02*
X102150000Y-71600000D01*
G75*
G02*
X102100000Y-71650000I-50000J0D01*
G01*
X101200000Y-71650000D01*
G75*
G02*
X101150000Y-71600000I0J50000D01*
G01*
X101150000Y-70400000D01*
G75*
G02*
X101200000Y-70350000I50000J0D01*
G01*
X102100000Y-70350000D01*
G75*
G02*
X102150000Y-70400000I0J-50000D01*
G01*
G37*
G36*
G01*
X98850000Y-70400000D02*
X98850000Y-71600000D01*
G75*
G02*
X98800000Y-71650000I-50000J0D01*
G01*
X97900000Y-71650000D01*
G75*
G02*
X97850000Y-71600000I0J50000D01*
G01*
X97850000Y-70400000D01*
G75*
G02*
X97900000Y-70350000I50000J0D01*
G01*
X98800000Y-70350000D01*
G75*
G02*
X98850000Y-70400000I0J-50000D01*
G01*
G37*
G36*
G01*
X174150000Y-102275000D02*
X174150000Y-103475000D01*
G75*
G02*
X174100000Y-103525000I-50000J0D01*
G01*
X173200000Y-103525000D01*
G75*
G02*
X173150000Y-103475000I0J50000D01*
G01*
X173150000Y-102275000D01*
G75*
G02*
X173200000Y-102225000I50000J0D01*
G01*
X174100000Y-102225000D01*
G75*
G02*
X174150000Y-102275000I0J-50000D01*
G01*
G37*
G36*
G01*
X170850000Y-102275000D02*
X170850000Y-103475000D01*
G75*
G02*
X170800000Y-103525000I-50000J0D01*
G01*
X169900000Y-103525000D01*
G75*
G02*
X169850000Y-103475000I0J50000D01*
G01*
X169850000Y-102275000D01*
G75*
G02*
X169900000Y-102225000I50000J0D01*
G01*
X170800000Y-102225000D01*
G75*
G02*
X170850000Y-102275000I0J-50000D01*
G01*
G37*
G36*
G01*
X188492854Y-133458085D02*
X187892854Y-134497315D01*
G75*
G02*
X187824553Y-134515616I-43301J25000D01*
G01*
X187045131Y-134065616D01*
G75*
G02*
X187026830Y-133997315I25000J43301D01*
G01*
X187626830Y-132958085D01*
G75*
G02*
X187695131Y-132939784I43301J-25000D01*
G01*
X188474553Y-133389784D01*
G75*
G02*
X188492854Y-133458085I-25000J-43301D01*
G01*
G37*
G36*
G01*
X185634970Y-131808085D02*
X185034970Y-132847315D01*
G75*
G02*
X184966669Y-132865616I-43301J25000D01*
G01*
X184187247Y-132415616D01*
G75*
G02*
X184168946Y-132347315I25000J43301D01*
G01*
X184768946Y-131308085D01*
G75*
G02*
X184837247Y-131289784I43301J-25000D01*
G01*
X185616669Y-131739784D01*
G75*
G02*
X185634970Y-131808085I-25000J-43301D01*
G01*
G37*
G36*
G01*
X156150000Y-100150000D02*
X156150000Y-101350000D01*
G75*
G02*
X156100000Y-101400000I-50000J0D01*
G01*
X155200000Y-101400000D01*
G75*
G02*
X155150000Y-101350000I0J50000D01*
G01*
X155150000Y-100150000D01*
G75*
G02*
X155200000Y-100100000I50000J0D01*
G01*
X156100000Y-100100000D01*
G75*
G02*
X156150000Y-100150000I0J-50000D01*
G01*
G37*
G36*
G01*
X152850000Y-100150000D02*
X152850000Y-101350000D01*
G75*
G02*
X152800000Y-101400000I-50000J0D01*
G01*
X151900000Y-101400000D01*
G75*
G02*
X151850000Y-101350000I0J50000D01*
G01*
X151850000Y-100150000D01*
G75*
G02*
X151900000Y-100100000I50000J0D01*
G01*
X152800000Y-100100000D01*
G75*
G02*
X152850000Y-100150000I0J-50000D01*
G01*
G37*
G36*
G01*
X156150000Y-83150000D02*
X156150000Y-84350000D01*
G75*
G02*
X156100000Y-84400000I-50000J0D01*
G01*
X155200000Y-84400000D01*
G75*
G02*
X155150000Y-84350000I0J50000D01*
G01*
X155150000Y-83150000D01*
G75*
G02*
X155200000Y-83100000I50000J0D01*
G01*
X156100000Y-83100000D01*
G75*
G02*
X156150000Y-83150000I0J-50000D01*
G01*
G37*
G36*
G01*
X152850000Y-83150000D02*
X152850000Y-84350000D01*
G75*
G02*
X152800000Y-84400000I-50000J0D01*
G01*
X151900000Y-84400000D01*
G75*
G02*
X151850000Y-84350000I0J50000D01*
G01*
X151850000Y-83150000D01*
G75*
G02*
X151900000Y-83100000I50000J0D01*
G01*
X152800000Y-83100000D01*
G75*
G02*
X152850000Y-83150000I0J-50000D01*
G01*
G37*
G36*
G01*
X171231232Y-125700504D02*
X170920649Y-126859615D01*
G75*
G02*
X170859412Y-126894970I-48296J12941D01*
G01*
X169990079Y-126662033D01*
G75*
G02*
X169954724Y-126600796I12941J48296D01*
G01*
X170265307Y-125441685D01*
G75*
G02*
X170326544Y-125406330I48296J-12941D01*
G01*
X171195877Y-125639267D01*
G75*
G02*
X171231232Y-125700504I-12941J-48296D01*
G01*
G37*
G36*
G01*
X168043676Y-124846404D02*
X167733093Y-126005515D01*
G75*
G02*
X167671856Y-126040870I-48296J12941D01*
G01*
X166802523Y-125807933D01*
G75*
G02*
X166767168Y-125746696I12941J48296D01*
G01*
X167077751Y-124587585D01*
G75*
G02*
X167138988Y-124552230I48296J-12941D01*
G01*
X168008321Y-124785167D01*
G75*
G02*
X168043676Y-124846404I-12941J-48296D01*
G01*
G37*
G36*
G01*
X120150000Y-83150000D02*
X120150000Y-84350000D01*
G75*
G02*
X120100000Y-84400000I-50000J0D01*
G01*
X119200000Y-84400000D01*
G75*
G02*
X119150000Y-84350000I0J50000D01*
G01*
X119150000Y-83150000D01*
G75*
G02*
X119200000Y-83100000I50000J0D01*
G01*
X120100000Y-83100000D01*
G75*
G02*
X120150000Y-83150000I0J-50000D01*
G01*
G37*
G36*
G01*
X116850000Y-83150000D02*
X116850000Y-84350000D01*
G75*
G02*
X116800000Y-84400000I-50000J0D01*
G01*
X115900000Y-84400000D01*
G75*
G02*
X115850000Y-84350000I0J50000D01*
G01*
X115850000Y-83150000D01*
G75*
G02*
X115900000Y-83100000I50000J0D01*
G01*
X116800000Y-83100000D01*
G75*
G02*
X116850000Y-83150000I0J-50000D01*
G01*
G37*
X130500000Y-59625000D03*
D16*
X131000000Y-55875000D03*
X136000000Y-53675000D03*
D17*
X136000000Y-59625000D03*
D13*
X141500000Y-59625000D03*
G36*
G01*
X137925000Y-54975000D02*
X137925000Y-52375000D01*
G75*
G02*
X137975000Y-52325000I50000J0D01*
G01*
X140575000Y-52325000D01*
G75*
G02*
X140625000Y-52375000I0J-50000D01*
G01*
X140625000Y-54975000D01*
G75*
G02*
X140575000Y-55025000I-50000J0D01*
G01*
X137975000Y-55025000D01*
G75*
G02*
X137925000Y-54975000I0J50000D01*
G01*
G37*
G36*
G01*
X126375000Y-57175000D02*
X126375000Y-54575000D01*
G75*
G02*
X126425000Y-54525000I50000J0D01*
G01*
X129025000Y-54525000D01*
G75*
G02*
X129075000Y-54575000I0J-50000D01*
G01*
X129075000Y-57175000D01*
G75*
G02*
X129025000Y-57225000I-50000J0D01*
G01*
X126425000Y-57225000D01*
G75*
G02*
X126375000Y-57175000I0J50000D01*
G01*
G37*
G36*
G01*
X120150000Y-100150000D02*
X120150000Y-101350000D01*
G75*
G02*
X120100000Y-101400000I-50000J0D01*
G01*
X119200000Y-101400000D01*
G75*
G02*
X119150000Y-101350000I0J50000D01*
G01*
X119150000Y-100150000D01*
G75*
G02*
X119200000Y-100100000I50000J0D01*
G01*
X120100000Y-100100000D01*
G75*
G02*
X120150000Y-100150000I0J-50000D01*
G01*
G37*
G36*
G01*
X116850000Y-100150000D02*
X116850000Y-101350000D01*
G75*
G02*
X116800000Y-101400000I-50000J0D01*
G01*
X115900000Y-101400000D01*
G75*
G02*
X115850000Y-101350000I0J50000D01*
G01*
X115850000Y-100150000D01*
G75*
G02*
X115900000Y-100100000I50000J0D01*
G01*
X116800000Y-100100000D01*
G75*
G02*
X116850000Y-100150000I0J-50000D01*
G01*
G37*
X166500000Y-63875000D03*
D16*
X167000000Y-60125000D03*
X172000000Y-57925000D03*
D17*
X172000000Y-63875000D03*
D13*
X177500000Y-63875000D03*
G36*
G01*
X173925000Y-59225000D02*
X173925000Y-56625000D01*
G75*
G02*
X173975000Y-56575000I50000J0D01*
G01*
X176575000Y-56575000D01*
G75*
G02*
X176625000Y-56625000I0J-50000D01*
G01*
X176625000Y-59225000D01*
G75*
G02*
X176575000Y-59275000I-50000J0D01*
G01*
X173975000Y-59275000D01*
G75*
G02*
X173925000Y-59225000I0J50000D01*
G01*
G37*
G36*
G01*
X162375000Y-61425000D02*
X162375000Y-58825000D01*
G75*
G02*
X162425000Y-58775000I50000J0D01*
G01*
X165025000Y-58775000D01*
G75*
G02*
X165075000Y-58825000I0J-50000D01*
G01*
X165075000Y-61425000D01*
G75*
G02*
X165025000Y-61475000I-50000J0D01*
G01*
X162425000Y-61475000D01*
G75*
G02*
X162375000Y-61425000I0J50000D01*
G01*
G37*
X164980708Y-119470495D03*
D16*
X166434242Y-115977683D03*
X171833273Y-115146741D03*
D17*
X170293300Y-120894000D03*
D13*
X175605892Y-122317505D03*
G36*
G01*
X173356216Y-116900672D02*
X174029145Y-114389265D01*
G75*
G02*
X174090382Y-114353910I48296J-12941D01*
G01*
X176601789Y-115026839D01*
G75*
G02*
X176637144Y-115088076I-12941J-48296D01*
G01*
X175964215Y-117599483D01*
G75*
G02*
X175902978Y-117634838I-48296J12941D01*
G01*
X173391571Y-116961909D01*
G75*
G02*
X173356216Y-116900672I12941J48296D01*
G01*
G37*
G36*
G01*
X161630371Y-116036349D02*
X162303300Y-113524942D01*
G75*
G02*
X162364537Y-113489587I48296J-12941D01*
G01*
X164875944Y-114162516D01*
G75*
G02*
X164911299Y-114223753I-12941J-48296D01*
G01*
X164238370Y-116735160D01*
G75*
G02*
X164177133Y-116770515I-48296J12941D01*
G01*
X161665726Y-116097586D01*
G75*
G02*
X161630371Y-116036349I12941J48296D01*
G01*
G37*
X112500000Y-78750000D03*
D16*
X113000000Y-75000000D03*
X118000000Y-72800000D03*
D17*
X118000000Y-78750000D03*
D13*
X123500000Y-78750000D03*
G36*
G01*
X119925000Y-74100000D02*
X119925000Y-71500000D01*
G75*
G02*
X119975000Y-71450000I50000J0D01*
G01*
X122575000Y-71450000D01*
G75*
G02*
X122625000Y-71500000I0J-50000D01*
G01*
X122625000Y-74100000D01*
G75*
G02*
X122575000Y-74150000I-50000J0D01*
G01*
X119975000Y-74150000D01*
G75*
G02*
X119925000Y-74100000I0J50000D01*
G01*
G37*
G36*
G01*
X108375000Y-76300000D02*
X108375000Y-73700000D01*
G75*
G02*
X108425000Y-73650000I50000J0D01*
G01*
X111025000Y-73650000D01*
G75*
G02*
X111075000Y-73700000I0J-50000D01*
G01*
X111075000Y-76300000D01*
G75*
G02*
X111025000Y-76350000I-50000J0D01*
G01*
X108425000Y-76350000D01*
G75*
G02*
X108375000Y-76300000I0J50000D01*
G01*
G37*
X112500000Y-61750000D03*
D16*
X113000000Y-58000000D03*
X118000000Y-55800000D03*
D17*
X118000000Y-61750000D03*
D13*
X123500000Y-61750000D03*
G36*
G01*
X119925000Y-57100000D02*
X119925000Y-54500000D01*
G75*
G02*
X119975000Y-54450000I50000J0D01*
G01*
X122575000Y-54450000D01*
G75*
G02*
X122625000Y-54500000I0J-50000D01*
G01*
X122625000Y-57100000D01*
G75*
G02*
X122575000Y-57150000I-50000J0D01*
G01*
X119975000Y-57150000D01*
G75*
G02*
X119925000Y-57100000I0J50000D01*
G01*
G37*
G36*
G01*
X108375000Y-59300000D02*
X108375000Y-56700000D01*
G75*
G02*
X108425000Y-56650000I50000J0D01*
G01*
X111025000Y-56650000D01*
G75*
G02*
X111075000Y-56700000I0J-50000D01*
G01*
X111075000Y-59300000D01*
G75*
G02*
X111025000Y-59350000I-50000J0D01*
G01*
X108425000Y-59350000D01*
G75*
G02*
X108375000Y-59300000I0J50000D01*
G01*
G37*
X144900000Y-118275000D03*
D16*
X145400000Y-114525000D03*
X150400000Y-112325000D03*
D17*
X150400000Y-118275000D03*
D13*
X155900000Y-118275000D03*
G36*
G01*
X152325000Y-113625000D02*
X152325000Y-111025000D01*
G75*
G02*
X152375000Y-110975000I50000J0D01*
G01*
X154975000Y-110975000D01*
G75*
G02*
X155025000Y-111025000I0J-50000D01*
G01*
X155025000Y-113625000D01*
G75*
G02*
X154975000Y-113675000I-50000J0D01*
G01*
X152375000Y-113675000D01*
G75*
G02*
X152325000Y-113625000I0J50000D01*
G01*
G37*
G36*
G01*
X140775000Y-115825000D02*
X140775000Y-113225000D01*
G75*
G02*
X140825000Y-113175000I50000J0D01*
G01*
X143425000Y-113175000D01*
G75*
G02*
X143475000Y-113225000I0J-50000D01*
G01*
X143475000Y-115825000D01*
G75*
G02*
X143425000Y-115875000I-50000J0D01*
G01*
X140825000Y-115875000D01*
G75*
G02*
X140775000Y-115825000I0J50000D01*
G01*
G37*
X148500000Y-61750000D03*
D16*
X149000000Y-58000000D03*
X154000000Y-55800000D03*
D17*
X154000000Y-61750000D03*
D13*
X159500000Y-61750000D03*
G36*
G01*
X155925000Y-57100000D02*
X155925000Y-54500000D01*
G75*
G02*
X155975000Y-54450000I50000J0D01*
G01*
X158575000Y-54450000D01*
G75*
G02*
X158625000Y-54500000I0J-50000D01*
G01*
X158625000Y-57100000D01*
G75*
G02*
X158575000Y-57150000I-50000J0D01*
G01*
X155975000Y-57150000D01*
G75*
G02*
X155925000Y-57100000I0J50000D01*
G01*
G37*
G36*
G01*
X144375000Y-59300000D02*
X144375000Y-56700000D01*
G75*
G02*
X144425000Y-56650000I50000J0D01*
G01*
X147025000Y-56650000D01*
G75*
G02*
X147075000Y-56700000I0J-50000D01*
G01*
X147075000Y-59300000D01*
G75*
G02*
X147025000Y-59350000I-50000J0D01*
G01*
X144425000Y-59350000D01*
G75*
G02*
X144375000Y-59300000I0J50000D01*
G01*
G37*
D21*
X185000000Y-107700000D03*
D13*
X148500000Y-95750000D03*
D16*
X149000000Y-92000000D03*
X154000000Y-89800000D03*
D17*
X154000000Y-95750000D03*
D13*
X159500000Y-95750000D03*
G36*
G01*
X155925000Y-91100000D02*
X155925000Y-88500000D01*
G75*
G02*
X155975000Y-88450000I50000J0D01*
G01*
X158575000Y-88450000D01*
G75*
G02*
X158625000Y-88500000I0J-50000D01*
G01*
X158625000Y-91100000D01*
G75*
G02*
X158575000Y-91150000I-50000J0D01*
G01*
X155975000Y-91150000D01*
G75*
G02*
X155925000Y-91100000I0J50000D01*
G01*
G37*
G36*
G01*
X144375000Y-93300000D02*
X144375000Y-90700000D01*
G75*
G02*
X144425000Y-90650000I50000J0D01*
G01*
X147025000Y-90650000D01*
G75*
G02*
X147075000Y-90700000I0J-50000D01*
G01*
X147075000Y-93300000D01*
G75*
G02*
X147025000Y-93350000I-50000J0D01*
G01*
X144425000Y-93350000D01*
G75*
G02*
X144375000Y-93300000I0J50000D01*
G01*
G37*
G36*
G01*
X120150000Y-66150000D02*
X120150000Y-67350000D01*
G75*
G02*
X120100000Y-67400000I-50000J0D01*
G01*
X119200000Y-67400000D01*
G75*
G02*
X119150000Y-67350000I0J50000D01*
G01*
X119150000Y-66150000D01*
G75*
G02*
X119200000Y-66100000I50000J0D01*
G01*
X120100000Y-66100000D01*
G75*
G02*
X120150000Y-66150000I0J-50000D01*
G01*
G37*
G36*
G01*
X116850000Y-66150000D02*
X116850000Y-67350000D01*
G75*
G02*
X116800000Y-67400000I-50000J0D01*
G01*
X115900000Y-67400000D01*
G75*
G02*
X115850000Y-67350000I0J50000D01*
G01*
X115850000Y-66150000D01*
G75*
G02*
X115900000Y-66100000I50000J0D01*
G01*
X116800000Y-66100000D01*
G75*
G02*
X116850000Y-66150000I0J-50000D01*
G01*
G37*
G36*
X196101355Y-107385355D02*
G01*
X196066000Y-107400000D01*
X194816000Y-107400000D01*
X194780645Y-107385355D01*
X194766000Y-107350000D01*
X194780645Y-107314645D01*
X195345290Y-106750000D01*
X194780645Y-106185355D01*
X194766000Y-106150000D01*
X194780645Y-106114645D01*
X194816000Y-106100000D01*
X196066000Y-106100000D01*
X196101355Y-106114645D01*
X196116000Y-106150000D01*
X196116000Y-107350000D01*
X196101355Y-107385355D01*
G37*
G36*
X196101355Y-105385355D02*
G01*
X196066000Y-105400000D01*
X194816000Y-105400000D01*
X194780645Y-105385355D01*
X194766000Y-105350000D01*
X194780645Y-105314645D01*
X195345290Y-104750000D01*
X194780645Y-104185355D01*
X194766000Y-104150000D01*
X194780645Y-104114645D01*
X194816000Y-104100000D01*
X196066000Y-104100000D01*
X196101355Y-104114645D01*
X196116000Y-104150000D01*
X196116000Y-105350000D01*
X196101355Y-105385355D01*
G37*
D22*
X193000000Y-106750000D03*
X193000000Y-104750000D03*
G36*
X195235355Y-106785355D02*
G01*
X194635355Y-107385355D01*
X194600000Y-107400000D01*
X194400000Y-107400000D01*
X194364645Y-107385355D01*
X194350000Y-107350000D01*
X194350000Y-106150000D01*
X194364645Y-106114645D01*
X194400000Y-106100000D01*
X194600000Y-106100000D01*
X194635355Y-106114645D01*
X195235355Y-106714645D01*
X195250000Y-106750000D01*
X195235355Y-106785355D01*
G37*
G36*
X195235355Y-104785355D02*
G01*
X194635355Y-105385355D01*
X194600000Y-105400000D01*
X194400000Y-105400000D01*
X194364645Y-105385355D01*
X194350000Y-105350000D01*
X194350000Y-104150000D01*
X194364645Y-104114645D01*
X194400000Y-104100000D01*
X194600000Y-104100000D01*
X194635355Y-104114645D01*
X195235355Y-104714645D01*
X195250000Y-104750000D01*
X195235355Y-104785355D01*
G37*
D13*
X94500000Y-83000000D03*
D16*
X95000000Y-79250000D03*
X100000000Y-77050000D03*
D17*
X100000000Y-83000000D03*
D13*
X105500000Y-83000000D03*
G36*
G01*
X101925000Y-78350000D02*
X101925000Y-75750000D01*
G75*
G02*
X101975000Y-75700000I50000J0D01*
G01*
X104575000Y-75700000D01*
G75*
G02*
X104625000Y-75750000I0J-50000D01*
G01*
X104625000Y-78350000D01*
G75*
G02*
X104575000Y-78400000I-50000J0D01*
G01*
X101975000Y-78400000D01*
G75*
G02*
X101925000Y-78350000I0J50000D01*
G01*
G37*
G36*
G01*
X90375000Y-80550000D02*
X90375000Y-77950000D01*
G75*
G02*
X90425000Y-77900000I50000J0D01*
G01*
X93025000Y-77900000D01*
G75*
G02*
X93075000Y-77950000I0J-50000D01*
G01*
X93075000Y-80550000D01*
G75*
G02*
X93025000Y-80600000I-50000J0D01*
G01*
X90425000Y-80600000D01*
G75*
G02*
X90375000Y-80550000I0J50000D01*
G01*
G37*
D21*
X201000000Y-116600000D03*
D13*
X94500000Y-100000000D03*
D16*
X95000000Y-96250000D03*
X100000000Y-94050000D03*
D17*
X100000000Y-100000000D03*
D13*
X105500000Y-100000000D03*
G36*
G01*
X101925000Y-95350000D02*
X101925000Y-92750000D01*
G75*
G02*
X101975000Y-92700000I50000J0D01*
G01*
X104575000Y-92700000D01*
G75*
G02*
X104625000Y-92750000I0J-50000D01*
G01*
X104625000Y-95350000D01*
G75*
G02*
X104575000Y-95400000I-50000J0D01*
G01*
X101975000Y-95400000D01*
G75*
G02*
X101925000Y-95350000I0J50000D01*
G01*
G37*
G36*
G01*
X90375000Y-97550000D02*
X90375000Y-94950000D01*
G75*
G02*
X90425000Y-94900000I50000J0D01*
G01*
X93025000Y-94900000D01*
G75*
G02*
X93075000Y-94950000I0J-50000D01*
G01*
X93075000Y-97550000D01*
G75*
G02*
X93025000Y-97600000I-50000J0D01*
G01*
X90425000Y-97600000D01*
G75*
G02*
X90375000Y-97550000I0J50000D01*
G01*
G37*
G36*
G01*
X152550000Y-122675000D02*
X152550000Y-123875000D01*
G75*
G02*
X152500000Y-123925000I-50000J0D01*
G01*
X151600000Y-123925000D01*
G75*
G02*
X151550000Y-123875000I0J50000D01*
G01*
X151550000Y-122675000D01*
G75*
G02*
X151600000Y-122625000I50000J0D01*
G01*
X152500000Y-122625000D01*
G75*
G02*
X152550000Y-122675000I0J-50000D01*
G01*
G37*
G36*
G01*
X149250000Y-122675000D02*
X149250000Y-123875000D01*
G75*
G02*
X149200000Y-123925000I-50000J0D01*
G01*
X148300000Y-123925000D01*
G75*
G02*
X148250000Y-123875000I0J50000D01*
G01*
X148250000Y-122675000D01*
G75*
G02*
X148300000Y-122625000I50000J0D01*
G01*
X149200000Y-122625000D01*
G75*
G02*
X149250000Y-122675000I0J-50000D01*
G01*
G37*
D23*
X189190000Y-98200000D03*
X191730000Y-98200000D03*
X194270000Y-98200000D03*
X196810000Y-98200000D03*
G36*
G01*
X189790000Y-101200000D02*
X188590000Y-101200000D01*
G75*
G02*
X188540000Y-101150000I0J50000D01*
G01*
X188540000Y-100550000D01*
G75*
G02*
X188590000Y-100500000I50000J0D01*
G01*
X189790000Y-100500000D01*
G75*
G02*
X189840000Y-100550000I0J-50000D01*
G01*
X189840000Y-101150000D01*
G75*
G02*
X189790000Y-101200000I-50000J0D01*
G01*
G37*
G36*
G01*
X192330000Y-101200000D02*
X191130000Y-101200000D01*
G75*
G02*
X191080000Y-101150000I0J50000D01*
G01*
X191080000Y-100550000D01*
G75*
G02*
X191130000Y-100500000I50000J0D01*
G01*
X192330000Y-100500000D01*
G75*
G02*
X192380000Y-100550000I0J-50000D01*
G01*
X192380000Y-101150000D01*
G75*
G02*
X192330000Y-101200000I-50000J0D01*
G01*
G37*
G36*
G01*
X194870000Y-101200000D02*
X193670000Y-101200000D01*
G75*
G02*
X193620000Y-101150000I0J50000D01*
G01*
X193620000Y-100550000D01*
G75*
G02*
X193670000Y-100500000I50000J0D01*
G01*
X194870000Y-100500000D01*
G75*
G02*
X194920000Y-100550000I0J-50000D01*
G01*
X194920000Y-101150000D01*
G75*
G02*
X194870000Y-101200000I-50000J0D01*
G01*
G37*
G36*
G01*
X197410000Y-101200000D02*
X196210000Y-101200000D01*
G75*
G02*
X196160000Y-101150000I0J50000D01*
G01*
X196160000Y-100550000D01*
G75*
G02*
X196210000Y-100500000I50000J0D01*
G01*
X197410000Y-100500000D01*
G75*
G02*
X197460000Y-100550000I0J-50000D01*
G01*
X197460000Y-101150000D01*
G75*
G02*
X197410000Y-101200000I-50000J0D01*
G01*
G37*
G36*
G01*
X189790000Y-100300000D02*
X188590000Y-100300000D01*
G75*
G02*
X188540000Y-100250000I0J50000D01*
G01*
X188540000Y-99650000D01*
G75*
G02*
X188590000Y-99600000I50000J0D01*
G01*
X189790000Y-99600000D01*
G75*
G02*
X189840000Y-99650000I0J-50000D01*
G01*
X189840000Y-100250000D01*
G75*
G02*
X189790000Y-100300000I-50000J0D01*
G01*
G37*
G36*
G01*
X192330000Y-100300000D02*
X191130000Y-100300000D01*
G75*
G02*
X191080000Y-100250000I0J50000D01*
G01*
X191080000Y-99650000D01*
G75*
G02*
X191130000Y-99600000I50000J0D01*
G01*
X192330000Y-99600000D01*
G75*
G02*
X192380000Y-99650000I0J-50000D01*
G01*
X192380000Y-100250000D01*
G75*
G02*
X192330000Y-100300000I-50000J0D01*
G01*
G37*
G36*
G01*
X194870000Y-100300000D02*
X193670000Y-100300000D01*
G75*
G02*
X193620000Y-100250000I0J50000D01*
G01*
X193620000Y-99650000D01*
G75*
G02*
X193670000Y-99600000I50000J0D01*
G01*
X194870000Y-99600000D01*
G75*
G02*
X194920000Y-99650000I0J-50000D01*
G01*
X194920000Y-100250000D01*
G75*
G02*
X194870000Y-100300000I-50000J0D01*
G01*
G37*
G36*
G01*
X197410000Y-100300000D02*
X196210000Y-100300000D01*
G75*
G02*
X196160000Y-100250000I0J50000D01*
G01*
X196160000Y-99650000D01*
G75*
G02*
X196210000Y-99600000I50000J0D01*
G01*
X197410000Y-99600000D01*
G75*
G02*
X197460000Y-99650000I0J-50000D01*
G01*
X197460000Y-100250000D01*
G75*
G02*
X197410000Y-100300000I-50000J0D01*
G01*
G37*
D15*
X109000000Y-70250000D03*
X181186600Y-115013000D03*
G36*
G01*
X138150000Y-98025000D02*
X138150000Y-99225000D01*
G75*
G02*
X138100000Y-99275000I-50000J0D01*
G01*
X137200000Y-99275000D01*
G75*
G02*
X137150000Y-99225000I0J50000D01*
G01*
X137150000Y-98025000D01*
G75*
G02*
X137200000Y-97975000I50000J0D01*
G01*
X138100000Y-97975000D01*
G75*
G02*
X138150000Y-98025000I0J-50000D01*
G01*
G37*
G36*
G01*
X134850000Y-98025000D02*
X134850000Y-99225000D01*
G75*
G02*
X134800000Y-99275000I-50000J0D01*
G01*
X133900000Y-99275000D01*
G75*
G02*
X133850000Y-99225000I0J50000D01*
G01*
X133850000Y-98025000D01*
G75*
G02*
X133900000Y-97975000I50000J0D01*
G01*
X134800000Y-97975000D01*
G75*
G02*
X134850000Y-98025000I0J-50000D01*
G01*
G37*
D13*
X94500000Y-83000000D03*
D16*
X100000000Y-77050000D03*
D17*
X100000000Y-83000000D03*
D16*
X105000000Y-79250000D03*
D13*
X105500000Y-83000000D03*
X166500000Y-97875000D03*
D16*
X172000000Y-91925000D03*
D17*
X172000000Y-97875000D03*
D16*
X177000000Y-94125000D03*
D13*
X177500000Y-97875000D03*
X166500000Y-80875000D03*
D16*
X172000000Y-74925000D03*
D17*
X172000000Y-80875000D03*
D16*
X177000000Y-77125000D03*
D13*
X177500000Y-80875000D03*
X148500000Y-78750000D03*
D16*
X154000000Y-72800000D03*
D17*
X154000000Y-78750000D03*
D16*
X159000000Y-75000000D03*
D13*
X159500000Y-78750000D03*
X112500000Y-61750000D03*
D16*
X118000000Y-55800000D03*
D17*
X118000000Y-61750000D03*
D16*
X123000000Y-58000000D03*
D13*
X123500000Y-61750000D03*
X144900000Y-118275000D03*
D16*
X150400000Y-112325000D03*
D17*
X150400000Y-118275000D03*
D16*
X155400000Y-114525000D03*
D13*
X155900000Y-118275000D03*
X184067760Y-125822500D03*
D16*
X191805900Y-123419649D03*
D17*
X188830900Y-128572500D03*
D16*
X195036027Y-127824905D03*
D13*
X193594040Y-131322500D03*
X148500000Y-95750000D03*
D16*
X154000000Y-89800000D03*
D17*
X154000000Y-95750000D03*
D16*
X159000000Y-92000000D03*
D13*
X159500000Y-95750000D03*
X130500000Y-59625000D03*
D16*
X136000000Y-53675000D03*
D17*
X136000000Y-59625000D03*
D16*
X141000000Y-55875000D03*
D13*
X141500000Y-59625000D03*
X130500000Y-76625000D03*
D16*
X136000000Y-70675000D03*
D17*
X136000000Y-76625000D03*
D16*
X141000000Y-72875000D03*
D13*
X141500000Y-76625000D03*
X166500000Y-63875000D03*
D16*
X172000000Y-57925000D03*
D17*
X172000000Y-63875000D03*
D16*
X177000000Y-60125000D03*
D13*
X177500000Y-63875000D03*
X94500000Y-66000000D03*
D16*
X100000000Y-60050000D03*
D17*
X100000000Y-66000000D03*
D16*
X105000000Y-62250000D03*
D13*
X105500000Y-66000000D03*
X148500000Y-61750000D03*
D16*
X154000000Y-55800000D03*
D17*
X154000000Y-61750000D03*
D16*
X159000000Y-58000000D03*
D13*
X159500000Y-61750000D03*
X112500000Y-95750000D03*
D16*
X118000000Y-89800000D03*
D17*
X118000000Y-95750000D03*
D16*
X123000000Y-92000000D03*
D13*
X123500000Y-95750000D03*
X112500000Y-78750000D03*
D16*
X118000000Y-72800000D03*
D17*
X118000000Y-78750000D03*
D16*
X123000000Y-75000000D03*
D13*
X123500000Y-78750000D03*
X94500000Y-100000000D03*
D16*
X100000000Y-94050000D03*
D17*
X100000000Y-100000000D03*
D16*
X105000000Y-96250000D03*
D13*
X105500000Y-100000000D03*
X130500000Y-93625000D03*
D16*
X136000000Y-87675000D03*
D17*
X136000000Y-93625000D03*
D16*
X141000000Y-89875000D03*
D13*
X141500000Y-93625000D03*
X164980708Y-119470495D03*
D16*
X171833273Y-115146741D03*
D17*
X170293300Y-120894000D03*
D16*
X176093501Y-118565873D03*
D13*
X175605892Y-122317505D03*
%LPD*%
M02*
