%TF.GenerationSoftware,KiCad,Pcbnew,8.0.6+1*%
%TF.CreationDate,2024-11-30T16:17:57+00:00*%
%TF.ProjectId,corney_island_wireless_autorouted,636f726e-6579-45f6-9973-6c616e645f77,0.2*%
%TF.SameCoordinates,Original*%
%TF.FileFunction,Drillmap*%
%TF.FilePolarity,Positive*%
%FSLAX45Y45*%
G04 Gerber Fmt 4.5, Leading zero omitted, Abs format (unit mm)*
G04 Created by KiCad (PCBNEW 8.0.6+1) date 2024-11-30 16:17:57*
%MOMM*%
%LPD*%
G01*
G04 APERTURE LIST*
%ADD10C,0.150000*%
%ADD11C,0.200000*%
%ADD12C,0.100000*%
%ADD13C,0.190000*%
%ADD14C,0.220000*%
%ADD15C,0.300000*%
%ADD16C,0.340000*%
%ADD17C,0.430000*%
G04 APERTURE END LIST*
D10*
X12600000Y-5112500D02*
X12600000Y-5175000D01*
X14600000Y-5175000D02*
X14600000Y-5112500D01*
X18100000Y-5437500D02*
X16450000Y-5437500D01*
X9000000Y-10850000D02*
X9000000Y-5750000D01*
X20400000Y-12216489D02*
G75*
G02*
X20393301Y-12241488I-49990J-1D01*
G01*
X9100000Y-10950000D02*
X12612845Y-10950000D01*
X12600000Y-5112500D02*
G75*
G02*
X12700000Y-5012500I100000J0D01*
G01*
X16450000Y-5437500D02*
G75*
G02*
X16400000Y-5387500I0J50000D01*
G01*
X14029668Y-12764037D02*
X12652510Y-10969559D01*
X16400000Y-5387500D02*
X16400000Y-5325000D01*
X14500000Y-5012500D02*
X12700000Y-5012500D01*
X9100000Y-10950000D02*
G75*
G02*
X9000000Y-10850000I0J100000D01*
G01*
X10800000Y-5600000D02*
G75*
G02*
X10750000Y-5650000I-50000J0D01*
G01*
X14056392Y-12781892D02*
G75*
G02*
X14029668Y-12764037I12938J48292D01*
G01*
X19293298Y-14146751D02*
X20393301Y-12241489D01*
X18250000Y-5912500D02*
X20350000Y-5912500D01*
X12612845Y-10950000D02*
G75*
G02*
X12652513Y-10969557I-5J-50020D01*
G01*
X14650000Y-5225000D02*
G75*
G02*
X14600000Y-5175000I0J50000D01*
G01*
X18200000Y-5862500D02*
X18200000Y-5537500D01*
X16300000Y-5225000D02*
G75*
G02*
X16400000Y-5325000I0J-100000D01*
G01*
X10800000Y-5325000D02*
X10800000Y-5600000D01*
X14500000Y-5012500D02*
G75*
G02*
X14600000Y-5112500I0J-100000D01*
G01*
X18100000Y-5437500D02*
G75*
G02*
X18200000Y-5537500I0J-100000D01*
G01*
X10750000Y-5650000D02*
X9100000Y-5650000D01*
X12600000Y-5175000D02*
G75*
G02*
X12550000Y-5225000I-50000J0D01*
G01*
X10800000Y-5325000D02*
G75*
G02*
X10900000Y-5225000I100000J0D01*
G01*
X16300000Y-5225000D02*
X14650000Y-5225000D01*
X18250000Y-5912500D02*
G75*
G02*
X18200000Y-5862500I0J50000D01*
G01*
X19293298Y-14146751D02*
G75*
G02*
X19237055Y-14170049I-43308J25011D01*
G01*
X20400000Y-5962500D02*
X20400000Y-12216489D01*
X20350000Y-5912500D02*
G75*
G02*
X20400000Y-5962500I0J-50000D01*
G01*
X12550000Y-5225000D02*
X10900000Y-5225000D01*
X19237056Y-14170047D02*
X14056392Y-12781892D01*
X9000000Y-5750000D02*
G75*
G02*
X9100000Y-5650000I100000J0D01*
G01*
D11*
D12*
X20177500Y-9667500D02*
X20267500Y-9757500D01*
X20267500Y-9667500D02*
X20177500Y-9757500D01*
X20177500Y-9967500D02*
X20267500Y-10057500D01*
X20267500Y-9967500D02*
X20177500Y-10057500D01*
D13*
X9545000Y-6600000D02*
G75*
G02*
X9355000Y-6600000I-95000J0D01*
G01*
X9355000Y-6600000D02*
G75*
G02*
X9545000Y-6600000I95000J0D01*
G01*
X9545000Y-6600000D02*
G75*
G02*
X9355000Y-6600000I-95000J0D01*
G01*
X9355000Y-6600000D02*
G75*
G02*
X9545000Y-6600000I95000J0D01*
G01*
X9545000Y-8300000D02*
G75*
G02*
X9355000Y-8300000I-95000J0D01*
G01*
X9355000Y-8300000D02*
G75*
G02*
X9545000Y-8300000I95000J0D01*
G01*
X9545000Y-8300000D02*
G75*
G02*
X9355000Y-8300000I-95000J0D01*
G01*
X9355000Y-8300000D02*
G75*
G02*
X9545000Y-8300000I95000J0D01*
G01*
X9545000Y-10000000D02*
G75*
G02*
X9355000Y-10000000I-95000J0D01*
G01*
X9355000Y-10000000D02*
G75*
G02*
X9545000Y-10000000I95000J0D01*
G01*
X9545000Y-10000000D02*
G75*
G02*
X9355000Y-10000000I-95000J0D01*
G01*
X9355000Y-10000000D02*
G75*
G02*
X9545000Y-10000000I95000J0D01*
G01*
X10645000Y-6600000D02*
G75*
G02*
X10455000Y-6600000I-95000J0D01*
G01*
X10455000Y-6600000D02*
G75*
G02*
X10645000Y-6600000I95000J0D01*
G01*
X10645000Y-6600000D02*
G75*
G02*
X10455000Y-6600000I-95000J0D01*
G01*
X10455000Y-6600000D02*
G75*
G02*
X10645000Y-6600000I95000J0D01*
G01*
X10645000Y-8300000D02*
G75*
G02*
X10455000Y-8300000I-95000J0D01*
G01*
X10455000Y-8300000D02*
G75*
G02*
X10645000Y-8300000I95000J0D01*
G01*
X10645000Y-8300000D02*
G75*
G02*
X10455000Y-8300000I-95000J0D01*
G01*
X10455000Y-8300000D02*
G75*
G02*
X10645000Y-8300000I95000J0D01*
G01*
X10645000Y-10000000D02*
G75*
G02*
X10455000Y-10000000I-95000J0D01*
G01*
X10455000Y-10000000D02*
G75*
G02*
X10645000Y-10000000I95000J0D01*
G01*
X10645000Y-10000000D02*
G75*
G02*
X10455000Y-10000000I-95000J0D01*
G01*
X10455000Y-10000000D02*
G75*
G02*
X10645000Y-10000000I95000J0D01*
G01*
X11345000Y-6175000D02*
G75*
G02*
X11155000Y-6175000I-95000J0D01*
G01*
X11155000Y-6175000D02*
G75*
G02*
X11345000Y-6175000I95000J0D01*
G01*
X11345000Y-6175000D02*
G75*
G02*
X11155000Y-6175000I-95000J0D01*
G01*
X11155000Y-6175000D02*
G75*
G02*
X11345000Y-6175000I95000J0D01*
G01*
X11345000Y-7875000D02*
G75*
G02*
X11155000Y-7875000I-95000J0D01*
G01*
X11155000Y-7875000D02*
G75*
G02*
X11345000Y-7875000I95000J0D01*
G01*
X11345000Y-7875000D02*
G75*
G02*
X11155000Y-7875000I-95000J0D01*
G01*
X11155000Y-7875000D02*
G75*
G02*
X11345000Y-7875000I95000J0D01*
G01*
X11345000Y-9575000D02*
G75*
G02*
X11155000Y-9575000I-95000J0D01*
G01*
X11155000Y-9575000D02*
G75*
G02*
X11345000Y-9575000I95000J0D01*
G01*
X11345000Y-9575000D02*
G75*
G02*
X11155000Y-9575000I-95000J0D01*
G01*
X11155000Y-9575000D02*
G75*
G02*
X11345000Y-9575000I95000J0D01*
G01*
X12445000Y-6175000D02*
G75*
G02*
X12255000Y-6175000I-95000J0D01*
G01*
X12255000Y-6175000D02*
G75*
G02*
X12445000Y-6175000I95000J0D01*
G01*
X12445000Y-6175000D02*
G75*
G02*
X12255000Y-6175000I-95000J0D01*
G01*
X12255000Y-6175000D02*
G75*
G02*
X12445000Y-6175000I95000J0D01*
G01*
X12445000Y-7875000D02*
G75*
G02*
X12255000Y-7875000I-95000J0D01*
G01*
X12255000Y-7875000D02*
G75*
G02*
X12445000Y-7875000I95000J0D01*
G01*
X12445000Y-7875000D02*
G75*
G02*
X12255000Y-7875000I-95000J0D01*
G01*
X12255000Y-7875000D02*
G75*
G02*
X12445000Y-7875000I95000J0D01*
G01*
X12445000Y-9575000D02*
G75*
G02*
X12255000Y-9575000I-95000J0D01*
G01*
X12255000Y-9575000D02*
G75*
G02*
X12445000Y-9575000I95000J0D01*
G01*
X12445000Y-9575000D02*
G75*
G02*
X12255000Y-9575000I-95000J0D01*
G01*
X12255000Y-9575000D02*
G75*
G02*
X12445000Y-9575000I95000J0D01*
G01*
X13145000Y-5962500D02*
G75*
G02*
X12955000Y-5962500I-95000J0D01*
G01*
X12955000Y-5962500D02*
G75*
G02*
X13145000Y-5962500I95000J0D01*
G01*
X13145000Y-5962500D02*
G75*
G02*
X12955000Y-5962500I-95000J0D01*
G01*
X12955000Y-5962500D02*
G75*
G02*
X13145000Y-5962500I95000J0D01*
G01*
X13145000Y-7662500D02*
G75*
G02*
X12955000Y-7662500I-95000J0D01*
G01*
X12955000Y-7662500D02*
G75*
G02*
X13145000Y-7662500I95000J0D01*
G01*
X13145000Y-7662500D02*
G75*
G02*
X12955000Y-7662500I-95000J0D01*
G01*
X12955000Y-7662500D02*
G75*
G02*
X13145000Y-7662500I95000J0D01*
G01*
X13145000Y-9362500D02*
G75*
G02*
X12955000Y-9362500I-95000J0D01*
G01*
X12955000Y-9362500D02*
G75*
G02*
X13145000Y-9362500I95000J0D01*
G01*
X13145000Y-9362500D02*
G75*
G02*
X12955000Y-9362500I-95000J0D01*
G01*
X12955000Y-9362500D02*
G75*
G02*
X13145000Y-9362500I95000J0D01*
G01*
X14245000Y-5962500D02*
G75*
G02*
X14055000Y-5962500I-95000J0D01*
G01*
X14055000Y-5962500D02*
G75*
G02*
X14245000Y-5962500I95000J0D01*
G01*
X14245000Y-5962500D02*
G75*
G02*
X14055000Y-5962500I-95000J0D01*
G01*
X14055000Y-5962500D02*
G75*
G02*
X14245000Y-5962500I95000J0D01*
G01*
X14245000Y-7662500D02*
G75*
G02*
X14055000Y-7662500I-95000J0D01*
G01*
X14055000Y-7662500D02*
G75*
G02*
X14245000Y-7662500I95000J0D01*
G01*
X14245000Y-7662500D02*
G75*
G02*
X14055000Y-7662500I-95000J0D01*
G01*
X14055000Y-7662500D02*
G75*
G02*
X14245000Y-7662500I95000J0D01*
G01*
X14245000Y-9362500D02*
G75*
G02*
X14055000Y-9362500I-95000J0D01*
G01*
X14055000Y-9362500D02*
G75*
G02*
X14245000Y-9362500I95000J0D01*
G01*
X14245000Y-9362500D02*
G75*
G02*
X14055000Y-9362500I-95000J0D01*
G01*
X14055000Y-9362500D02*
G75*
G02*
X14245000Y-9362500I95000J0D01*
G01*
X14585000Y-11827500D02*
G75*
G02*
X14395000Y-11827500I-95000J0D01*
G01*
X14395000Y-11827500D02*
G75*
G02*
X14585000Y-11827500I95000J0D01*
G01*
X14585000Y-11827500D02*
G75*
G02*
X14395000Y-11827500I-95000J0D01*
G01*
X14395000Y-11827500D02*
G75*
G02*
X14585000Y-11827500I95000J0D01*
G01*
X14945000Y-6175000D02*
G75*
G02*
X14755000Y-6175000I-95000J0D01*
G01*
X14755000Y-6175000D02*
G75*
G02*
X14945000Y-6175000I95000J0D01*
G01*
X14945000Y-6175000D02*
G75*
G02*
X14755000Y-6175000I-95000J0D01*
G01*
X14755000Y-6175000D02*
G75*
G02*
X14945000Y-6175000I95000J0D01*
G01*
X14945000Y-7875000D02*
G75*
G02*
X14755000Y-7875000I-95000J0D01*
G01*
X14755000Y-7875000D02*
G75*
G02*
X14945000Y-7875000I95000J0D01*
G01*
X14945000Y-7875000D02*
G75*
G02*
X14755000Y-7875000I-95000J0D01*
G01*
X14755000Y-7875000D02*
G75*
G02*
X14945000Y-7875000I95000J0D01*
G01*
X14945000Y-9575000D02*
G75*
G02*
X14755000Y-9575000I-95000J0D01*
G01*
X14755000Y-9575000D02*
G75*
G02*
X14945000Y-9575000I95000J0D01*
G01*
X14945000Y-9575000D02*
G75*
G02*
X14755000Y-9575000I-95000J0D01*
G01*
X14755000Y-9575000D02*
G75*
G02*
X14945000Y-9575000I95000J0D01*
G01*
X15685000Y-11827500D02*
G75*
G02*
X15495000Y-11827500I-95000J0D01*
G01*
X15495000Y-11827500D02*
G75*
G02*
X15685000Y-11827500I95000J0D01*
G01*
X15685000Y-11827500D02*
G75*
G02*
X15495000Y-11827500I-95000J0D01*
G01*
X15495000Y-11827500D02*
G75*
G02*
X15685000Y-11827500I95000J0D01*
G01*
X16045000Y-6175000D02*
G75*
G02*
X15855000Y-6175000I-95000J0D01*
G01*
X15855000Y-6175000D02*
G75*
G02*
X16045000Y-6175000I95000J0D01*
G01*
X16045000Y-6175000D02*
G75*
G02*
X15855000Y-6175000I-95000J0D01*
G01*
X15855000Y-6175000D02*
G75*
G02*
X16045000Y-6175000I95000J0D01*
G01*
X16045000Y-7875000D02*
G75*
G02*
X15855000Y-7875000I-95000J0D01*
G01*
X15855000Y-7875000D02*
G75*
G02*
X16045000Y-7875000I95000J0D01*
G01*
X16045000Y-7875000D02*
G75*
G02*
X15855000Y-7875000I-95000J0D01*
G01*
X15855000Y-7875000D02*
G75*
G02*
X16045000Y-7875000I95000J0D01*
G01*
X16045000Y-9575000D02*
G75*
G02*
X15855000Y-9575000I-95000J0D01*
G01*
X15855000Y-9575000D02*
G75*
G02*
X16045000Y-9575000I95000J0D01*
G01*
X16045000Y-9575000D02*
G75*
G02*
X15855000Y-9575000I-95000J0D01*
G01*
X15855000Y-9575000D02*
G75*
G02*
X16045000Y-9575000I95000J0D01*
G01*
X16593071Y-11947049D02*
G75*
G02*
X16403071Y-11947049I-95000J0D01*
G01*
X16403071Y-11947049D02*
G75*
G02*
X16593071Y-11947049I95000J0D01*
G01*
X16593071Y-11947049D02*
G75*
G02*
X16403071Y-11947049I-95000J0D01*
G01*
X16403071Y-11947049D02*
G75*
G02*
X16593071Y-11947049I95000J0D01*
G01*
X16745000Y-6387500D02*
G75*
G02*
X16555000Y-6387500I-95000J0D01*
G01*
X16555000Y-6387500D02*
G75*
G02*
X16745000Y-6387500I95000J0D01*
G01*
X16745000Y-6387500D02*
G75*
G02*
X16555000Y-6387500I-95000J0D01*
G01*
X16555000Y-6387500D02*
G75*
G02*
X16745000Y-6387500I95000J0D01*
G01*
X16745000Y-8087500D02*
G75*
G02*
X16555000Y-8087500I-95000J0D01*
G01*
X16555000Y-8087500D02*
G75*
G02*
X16745000Y-8087500I95000J0D01*
G01*
X16745000Y-8087500D02*
G75*
G02*
X16555000Y-8087500I-95000J0D01*
G01*
X16555000Y-8087500D02*
G75*
G02*
X16745000Y-8087500I95000J0D01*
G01*
X16745000Y-9787500D02*
G75*
G02*
X16555000Y-9787500I-95000J0D01*
G01*
X16555000Y-9787500D02*
G75*
G02*
X16745000Y-9787500I95000J0D01*
G01*
X16745000Y-9787500D02*
G75*
G02*
X16555000Y-9787500I-95000J0D01*
G01*
X16555000Y-9787500D02*
G75*
G02*
X16745000Y-9787500I95000J0D01*
G01*
X17655589Y-12231750D02*
G75*
G02*
X17465589Y-12231750I-95000J0D01*
G01*
X17465589Y-12231750D02*
G75*
G02*
X17655589Y-12231750I95000J0D01*
G01*
X17655589Y-12231750D02*
G75*
G02*
X17465589Y-12231750I-95000J0D01*
G01*
X17465589Y-12231750D02*
G75*
G02*
X17655589Y-12231750I95000J0D01*
G01*
X17845000Y-6387500D02*
G75*
G02*
X17655000Y-6387500I-95000J0D01*
G01*
X17655000Y-6387500D02*
G75*
G02*
X17845000Y-6387500I95000J0D01*
G01*
X17845000Y-6387500D02*
G75*
G02*
X17655000Y-6387500I-95000J0D01*
G01*
X17655000Y-6387500D02*
G75*
G02*
X17845000Y-6387500I95000J0D01*
G01*
X17845000Y-8087500D02*
G75*
G02*
X17655000Y-8087500I-95000J0D01*
G01*
X17655000Y-8087500D02*
G75*
G02*
X17845000Y-8087500I95000J0D01*
G01*
X17845000Y-8087500D02*
G75*
G02*
X17655000Y-8087500I-95000J0D01*
G01*
X17655000Y-8087500D02*
G75*
G02*
X17845000Y-8087500I95000J0D01*
G01*
X17845000Y-9787500D02*
G75*
G02*
X17655000Y-9787500I-95000J0D01*
G01*
X17655000Y-9787500D02*
G75*
G02*
X17845000Y-9787500I95000J0D01*
G01*
X17845000Y-9787500D02*
G75*
G02*
X17655000Y-9787500I-95000J0D01*
G01*
X17655000Y-9787500D02*
G75*
G02*
X17845000Y-9787500I95000J0D01*
G01*
X18501776Y-12582250D02*
G75*
G02*
X18311776Y-12582250I-95000J0D01*
G01*
X18311776Y-12582250D02*
G75*
G02*
X18501776Y-12582250I95000J0D01*
G01*
X18501776Y-12582250D02*
G75*
G02*
X18311776Y-12582250I-95000J0D01*
G01*
X18311776Y-12582250D02*
G75*
G02*
X18501776Y-12582250I95000J0D01*
G01*
X19454404Y-13132250D02*
G75*
G02*
X19264404Y-13132250I-95000J0D01*
G01*
X19264404Y-13132250D02*
G75*
G02*
X19454404Y-13132250I95000J0D01*
G01*
X19454404Y-13132250D02*
G75*
G02*
X19264404Y-13132250I-95000J0D01*
G01*
X19264404Y-13132250D02*
G75*
G02*
X19454404Y-13132250I95000J0D01*
G01*
D14*
X18500000Y-10660000D02*
X18500000Y-10880000D01*
X18390000Y-10770000D02*
X18610000Y-10770000D01*
X20100000Y-11550000D02*
X20100000Y-11770000D01*
X19990000Y-11660000D02*
X20210000Y-11660000D01*
D15*
X9606067Y-6331067D02*
X9606067Y-6118933D01*
X9393933Y-6118933D01*
X9393933Y-6331067D01*
X9606067Y-6331067D01*
X9606067Y-8031067D02*
X9606067Y-7818933D01*
X9393933Y-7818933D01*
X9393933Y-8031067D01*
X9606067Y-8031067D01*
X9606067Y-9731067D02*
X9606067Y-9518933D01*
X9393933Y-9518933D01*
X9393933Y-9731067D01*
X9606067Y-9731067D01*
X10106067Y-6111067D02*
X10106067Y-5898933D01*
X9893933Y-5898933D01*
X9893933Y-6111067D01*
X10106067Y-6111067D01*
X10106067Y-6111067D02*
X10106067Y-5898933D01*
X9893933Y-5898933D01*
X9893933Y-6111067D01*
X10106067Y-6111067D01*
X10106067Y-7811067D02*
X10106067Y-7598933D01*
X9893933Y-7598933D01*
X9893933Y-7811067D01*
X10106067Y-7811067D01*
X10106067Y-7811067D02*
X10106067Y-7598933D01*
X9893933Y-7598933D01*
X9893933Y-7811067D01*
X10106067Y-7811067D01*
X10106067Y-9511067D02*
X10106067Y-9298933D01*
X9893933Y-9298933D01*
X9893933Y-9511067D01*
X10106067Y-9511067D01*
X10106067Y-9511067D02*
X10106067Y-9298933D01*
X9893933Y-9298933D01*
X9893933Y-9511067D01*
X10106067Y-9511067D01*
X10606067Y-6331067D02*
X10606067Y-6118933D01*
X10393933Y-6118933D01*
X10393933Y-6331067D01*
X10606067Y-6331067D01*
X10606067Y-8031067D02*
X10606067Y-7818933D01*
X10393933Y-7818933D01*
X10393933Y-8031067D01*
X10606067Y-8031067D01*
X10606067Y-9731067D02*
X10606067Y-9518933D01*
X10393933Y-9518933D01*
X10393933Y-9731067D01*
X10606067Y-9731067D01*
X11406067Y-5906067D02*
X11406067Y-5693933D01*
X11193933Y-5693933D01*
X11193933Y-5906067D01*
X11406067Y-5906067D01*
X11406067Y-7606067D02*
X11406067Y-7393933D01*
X11193933Y-7393933D01*
X11193933Y-7606067D01*
X11406067Y-7606067D01*
X11406067Y-9306067D02*
X11406067Y-9093933D01*
X11193933Y-9093933D01*
X11193933Y-9306067D01*
X11406067Y-9306067D01*
X11906067Y-5686067D02*
X11906067Y-5473933D01*
X11693933Y-5473933D01*
X11693933Y-5686067D01*
X11906067Y-5686067D01*
X11906067Y-5686067D02*
X11906067Y-5473933D01*
X11693933Y-5473933D01*
X11693933Y-5686067D01*
X11906067Y-5686067D01*
X11906067Y-7386067D02*
X11906067Y-7173933D01*
X11693933Y-7173933D01*
X11693933Y-7386067D01*
X11906067Y-7386067D01*
X11906067Y-7386067D02*
X11906067Y-7173933D01*
X11693933Y-7173933D01*
X11693933Y-7386067D01*
X11906067Y-7386067D01*
X11906067Y-9086067D02*
X11906067Y-8873933D01*
X11693933Y-8873933D01*
X11693933Y-9086067D01*
X11906067Y-9086067D01*
X11906067Y-9086067D02*
X11906067Y-8873933D01*
X11693933Y-8873933D01*
X11693933Y-9086067D01*
X11906067Y-9086067D01*
X12406067Y-5906067D02*
X12406067Y-5693933D01*
X12193933Y-5693933D01*
X12193933Y-5906067D01*
X12406067Y-5906067D01*
X12406067Y-7606067D02*
X12406067Y-7393933D01*
X12193933Y-7393933D01*
X12193933Y-7606067D01*
X12406067Y-7606067D01*
X12406067Y-9306067D02*
X12406067Y-9093933D01*
X12193933Y-9093933D01*
X12193933Y-9306067D01*
X12406067Y-9306067D01*
X13206067Y-5693567D02*
X13206067Y-5481433D01*
X12993933Y-5481433D01*
X12993933Y-5693567D01*
X13206067Y-5693567D01*
X13206067Y-7393567D02*
X13206067Y-7181433D01*
X12993933Y-7181433D01*
X12993933Y-7393567D01*
X13206067Y-7393567D01*
X13206067Y-9093567D02*
X13206067Y-8881433D01*
X12993933Y-8881433D01*
X12993933Y-9093567D01*
X13206067Y-9093567D01*
X13706067Y-5473567D02*
X13706067Y-5261433D01*
X13493933Y-5261433D01*
X13493933Y-5473567D01*
X13706067Y-5473567D01*
X13706067Y-5473567D02*
X13706067Y-5261433D01*
X13493933Y-5261433D01*
X13493933Y-5473567D01*
X13706067Y-5473567D01*
X13706067Y-7173567D02*
X13706067Y-6961433D01*
X13493933Y-6961433D01*
X13493933Y-7173567D01*
X13706067Y-7173567D01*
X13706067Y-7173567D02*
X13706067Y-6961433D01*
X13493933Y-6961433D01*
X13493933Y-7173567D01*
X13706067Y-7173567D01*
X13706067Y-8873567D02*
X13706067Y-8661433D01*
X13493933Y-8661433D01*
X13493933Y-8873567D01*
X13706067Y-8873567D01*
X13706067Y-8873567D02*
X13706067Y-8661433D01*
X13493933Y-8661433D01*
X13493933Y-8873567D01*
X13706067Y-8873567D01*
X14206067Y-5693567D02*
X14206067Y-5481433D01*
X13993933Y-5481433D01*
X13993933Y-5693567D01*
X14206067Y-5693567D01*
X14206067Y-7393567D02*
X14206067Y-7181433D01*
X13993933Y-7181433D01*
X13993933Y-7393567D01*
X14206067Y-7393567D01*
X14206067Y-9093567D02*
X14206067Y-8881433D01*
X13993933Y-8881433D01*
X13993933Y-9093567D01*
X14206067Y-9093567D01*
X14646067Y-11558567D02*
X14646067Y-11346433D01*
X14433933Y-11346433D01*
X14433933Y-11558567D01*
X14646067Y-11558567D01*
X15006067Y-5906067D02*
X15006067Y-5693933D01*
X14793933Y-5693933D01*
X14793933Y-5906067D01*
X15006067Y-5906067D01*
X15006067Y-7606067D02*
X15006067Y-7393933D01*
X14793933Y-7393933D01*
X14793933Y-7606067D01*
X15006067Y-7606067D01*
X15006067Y-9306067D02*
X15006067Y-9093933D01*
X14793933Y-9093933D01*
X14793933Y-9306067D01*
X15006067Y-9306067D01*
X15146067Y-11338567D02*
X15146067Y-11126433D01*
X14933933Y-11126433D01*
X14933933Y-11338567D01*
X15146067Y-11338567D01*
X15146067Y-11338567D02*
X15146067Y-11126433D01*
X14933933Y-11126433D01*
X14933933Y-11338567D01*
X15146067Y-11338567D01*
X15506067Y-5686067D02*
X15506067Y-5473933D01*
X15293933Y-5473933D01*
X15293933Y-5686067D01*
X15506067Y-5686067D01*
X15506067Y-5686067D02*
X15506067Y-5473933D01*
X15293933Y-5473933D01*
X15293933Y-5686067D01*
X15506067Y-5686067D01*
X15506067Y-7386067D02*
X15506067Y-7173933D01*
X15293933Y-7173933D01*
X15293933Y-7386067D01*
X15506067Y-7386067D01*
X15506067Y-7386067D02*
X15506067Y-7173933D01*
X15293933Y-7173933D01*
X15293933Y-7386067D01*
X15506067Y-7386067D01*
X15506067Y-9086067D02*
X15506067Y-8873933D01*
X15293933Y-8873933D01*
X15293933Y-9086067D01*
X15506067Y-9086067D01*
X15506067Y-9086067D02*
X15506067Y-8873933D01*
X15293933Y-8873933D01*
X15293933Y-9086067D01*
X15506067Y-9086067D01*
X15646067Y-11558567D02*
X15646067Y-11346433D01*
X15433933Y-11346433D01*
X15433933Y-11558567D01*
X15646067Y-11558567D01*
X16006067Y-5906067D02*
X16006067Y-5693933D01*
X15793933Y-5693933D01*
X15793933Y-5906067D01*
X16006067Y-5906067D01*
X16006067Y-7606067D02*
X16006067Y-7393933D01*
X15793933Y-7393933D01*
X15793933Y-7606067D01*
X16006067Y-7606067D01*
X16006067Y-9306067D02*
X16006067Y-9093933D01*
X15793933Y-9093933D01*
X15793933Y-9306067D01*
X16006067Y-9306067D01*
X16749491Y-11703835D02*
X16749491Y-11491701D01*
X16537357Y-11491701D01*
X16537357Y-11703835D01*
X16749491Y-11703835D01*
X16806067Y-6118567D02*
X16806067Y-5906433D01*
X16593933Y-5906433D01*
X16593933Y-6118567D01*
X16806067Y-6118567D01*
X16806067Y-7818567D02*
X16806067Y-7606433D01*
X16593933Y-7606433D01*
X16593933Y-7818567D01*
X16806067Y-7818567D01*
X16806067Y-9518567D02*
X16806067Y-9306433D01*
X16593933Y-9306433D01*
X16593933Y-9518567D01*
X16806067Y-9518567D01*
X17289394Y-11620741D02*
X17289394Y-11408607D01*
X17077260Y-11408607D01*
X17077260Y-11620741D01*
X17289394Y-11620741D01*
X17289394Y-11620741D02*
X17289394Y-11408607D01*
X17077260Y-11408607D01*
X17077260Y-11620741D01*
X17289394Y-11620741D01*
X17306067Y-5898567D02*
X17306067Y-5686433D01*
X17093933Y-5686433D01*
X17093933Y-5898567D01*
X17306067Y-5898567D01*
X17306067Y-5898567D02*
X17306067Y-5686433D01*
X17093933Y-5686433D01*
X17093933Y-5898567D01*
X17306067Y-5898567D01*
X17306067Y-7598567D02*
X17306067Y-7386433D01*
X17093933Y-7386433D01*
X17093933Y-7598567D01*
X17306067Y-7598567D01*
X17306067Y-7598567D02*
X17306067Y-7386433D01*
X17093933Y-7386433D01*
X17093933Y-7598567D01*
X17306067Y-7598567D01*
X17306067Y-9298567D02*
X17306067Y-9086433D01*
X17093933Y-9086433D01*
X17093933Y-9298567D01*
X17306067Y-9298567D01*
X17306067Y-9298567D02*
X17306067Y-9086433D01*
X17093933Y-9086433D01*
X17093933Y-9298567D01*
X17306067Y-9298567D01*
X17715417Y-11962654D02*
X17715417Y-11750520D01*
X17503283Y-11750520D01*
X17503283Y-11962654D01*
X17715417Y-11962654D01*
X17806067Y-6118567D02*
X17806067Y-5906433D01*
X17593933Y-5906433D01*
X17593933Y-6118567D01*
X17806067Y-6118567D01*
X17806067Y-7818567D02*
X17806067Y-7606433D01*
X17593933Y-7606433D01*
X17593933Y-7818567D01*
X17806067Y-7818567D01*
X17806067Y-9518567D02*
X17806067Y-9306433D01*
X17593933Y-9306433D01*
X17593933Y-9518567D01*
X17806067Y-9518567D01*
X18743644Y-12388557D02*
X18743644Y-12176423D01*
X18531510Y-12176423D01*
X18531510Y-12388557D01*
X18743644Y-12388557D01*
X19286657Y-12448032D02*
X19286657Y-12235898D01*
X19074523Y-12235898D01*
X19074523Y-12448032D01*
X19286657Y-12448032D01*
X19286657Y-12448032D02*
X19286657Y-12235898D01*
X19074523Y-12235898D01*
X19074523Y-12448032D01*
X19286657Y-12448032D01*
X19609670Y-12888557D02*
X19609670Y-12676423D01*
X19397536Y-12676423D01*
X19397536Y-12888557D01*
X19609670Y-12888557D01*
D16*
X10000000Y-6770000D02*
X10170000Y-6600000D01*
X10000000Y-6430000D01*
X9830000Y-6600000D01*
X10000000Y-6770000D01*
X10000000Y-6770000D02*
X10170000Y-6600000D01*
X10000000Y-6430000D01*
X9830000Y-6600000D01*
X10000000Y-6770000D01*
X10000000Y-8470000D02*
X10170000Y-8300000D01*
X10000000Y-8130000D01*
X9830000Y-8300000D01*
X10000000Y-8470000D01*
X10000000Y-8470000D02*
X10170000Y-8300000D01*
X10000000Y-8130000D01*
X9830000Y-8300000D01*
X10000000Y-8470000D01*
X10000000Y-10170000D02*
X10170000Y-10000000D01*
X10000000Y-9830000D01*
X9830000Y-10000000D01*
X10000000Y-10170000D01*
X10000000Y-10170000D02*
X10170000Y-10000000D01*
X10000000Y-9830000D01*
X9830000Y-10000000D01*
X10000000Y-10170000D01*
X11800000Y-6345000D02*
X11970000Y-6175000D01*
X11800000Y-6005000D01*
X11630000Y-6175000D01*
X11800000Y-6345000D01*
X11800000Y-6345000D02*
X11970000Y-6175000D01*
X11800000Y-6005000D01*
X11630000Y-6175000D01*
X11800000Y-6345000D01*
X11800000Y-8045000D02*
X11970000Y-7875000D01*
X11800000Y-7705000D01*
X11630000Y-7875000D01*
X11800000Y-8045000D01*
X11800000Y-8045000D02*
X11970000Y-7875000D01*
X11800000Y-7705000D01*
X11630000Y-7875000D01*
X11800000Y-8045000D01*
X11800000Y-9745000D02*
X11970000Y-9575000D01*
X11800000Y-9405000D01*
X11630000Y-9575000D01*
X11800000Y-9745000D01*
X11800000Y-9745000D02*
X11970000Y-9575000D01*
X11800000Y-9405000D01*
X11630000Y-9575000D01*
X11800000Y-9745000D01*
X13600000Y-6132500D02*
X13770000Y-5962500D01*
X13600000Y-5792500D01*
X13430000Y-5962500D01*
X13600000Y-6132500D01*
X13600000Y-6132500D02*
X13770000Y-5962500D01*
X13600000Y-5792500D01*
X13430000Y-5962500D01*
X13600000Y-6132500D01*
X13600000Y-7832500D02*
X13770000Y-7662500D01*
X13600000Y-7492500D01*
X13430000Y-7662500D01*
X13600000Y-7832500D01*
X13600000Y-7832500D02*
X13770000Y-7662500D01*
X13600000Y-7492500D01*
X13430000Y-7662500D01*
X13600000Y-7832500D01*
X13600000Y-9532500D02*
X13770000Y-9362500D01*
X13600000Y-9192500D01*
X13430000Y-9362500D01*
X13600000Y-9532500D01*
X13600000Y-9532500D02*
X13770000Y-9362500D01*
X13600000Y-9192500D01*
X13430000Y-9362500D01*
X13600000Y-9532500D01*
X15040000Y-11997500D02*
X15210000Y-11827500D01*
X15040000Y-11657500D01*
X14870000Y-11827500D01*
X15040000Y-11997500D01*
X15040000Y-11997500D02*
X15210000Y-11827500D01*
X15040000Y-11657500D01*
X14870000Y-11827500D01*
X15040000Y-11997500D01*
X15400000Y-6345000D02*
X15570000Y-6175000D01*
X15400000Y-6005000D01*
X15230000Y-6175000D01*
X15400000Y-6345000D01*
X15400000Y-6345000D02*
X15570000Y-6175000D01*
X15400000Y-6005000D01*
X15230000Y-6175000D01*
X15400000Y-6345000D01*
X15400000Y-8045000D02*
X15570000Y-7875000D01*
X15400000Y-7705000D01*
X15230000Y-7875000D01*
X15400000Y-8045000D01*
X15400000Y-8045000D02*
X15570000Y-7875000D01*
X15400000Y-7705000D01*
X15230000Y-7875000D01*
X15400000Y-8045000D01*
X15400000Y-9745000D02*
X15570000Y-9575000D01*
X15400000Y-9405000D01*
X15230000Y-9575000D01*
X15400000Y-9745000D01*
X15400000Y-9745000D02*
X15570000Y-9575000D01*
X15400000Y-9405000D01*
X15230000Y-9575000D01*
X15400000Y-9745000D01*
X17029330Y-12259400D02*
X17199330Y-12089400D01*
X17029330Y-11919400D01*
X16859330Y-12089400D01*
X17029330Y-12259400D01*
X17029330Y-12259400D02*
X17199330Y-12089400D01*
X17029330Y-11919400D01*
X16859330Y-12089400D01*
X17029330Y-12259400D01*
X17200000Y-6557500D02*
X17370000Y-6387500D01*
X17200000Y-6217500D01*
X17030000Y-6387500D01*
X17200000Y-6557500D01*
X17200000Y-6557500D02*
X17370000Y-6387500D01*
X17200000Y-6217500D01*
X17030000Y-6387500D01*
X17200000Y-6557500D01*
X17200000Y-8257500D02*
X17370000Y-8087500D01*
X17200000Y-7917500D01*
X17030000Y-8087500D01*
X17200000Y-8257500D01*
X17200000Y-8257500D02*
X17370000Y-8087500D01*
X17200000Y-7917500D01*
X17030000Y-8087500D01*
X17200000Y-8257500D01*
X17200000Y-9957500D02*
X17370000Y-9787500D01*
X17200000Y-9617500D01*
X17030000Y-9787500D01*
X17200000Y-9957500D01*
X17200000Y-9957500D02*
X17370000Y-9787500D01*
X17200000Y-9617500D01*
X17030000Y-9787500D01*
X17200000Y-9957500D01*
X18883090Y-13027250D02*
X19053090Y-12857250D01*
X18883090Y-12687250D01*
X18713090Y-12857250D01*
X18883090Y-13027250D01*
X18883090Y-13027250D02*
X19053090Y-12857250D01*
X18883090Y-12687250D01*
X18713090Y-12857250D01*
X18883090Y-13027250D01*
D17*
X10685000Y-6810000D02*
X11115000Y-7240000D01*
X11115000Y-6810000D02*
X10685000Y-7240000D01*
X11115000Y-7025000D02*
G75*
G02*
X10685000Y-7025000I-215000J0D01*
G01*
X10685000Y-7025000D02*
G75*
G02*
X11115000Y-7025000I215000J0D01*
G01*
X10685000Y-8510000D02*
X11115000Y-8940000D01*
X11115000Y-8510000D02*
X10685000Y-8940000D01*
X11115000Y-8725000D02*
G75*
G02*
X10685000Y-8725000I-215000J0D01*
G01*
X10685000Y-8725000D02*
G75*
G02*
X11115000Y-8725000I215000J0D01*
G01*
X13925000Y-10762500D02*
X14355000Y-11192500D01*
X14355000Y-10762500D02*
X13925000Y-11192500D01*
X14355000Y-10977500D02*
G75*
G02*
X13925000Y-10977500I-215000J0D01*
G01*
X13925000Y-10977500D02*
G75*
G02*
X14355000Y-10977500I215000J0D01*
G01*
X16085000Y-6810000D02*
X16515000Y-7240000D01*
X16515000Y-6810000D02*
X16085000Y-7240000D01*
X16515000Y-7025000D02*
G75*
G02*
X16085000Y-7025000I-215000J0D01*
G01*
X16085000Y-7025000D02*
G75*
G02*
X16515000Y-7025000I215000J0D01*
G01*
X17903660Y-11286300D02*
X18333660Y-11716300D01*
X18333660Y-11286300D02*
X17903660Y-11716300D01*
X18333660Y-11501300D02*
G75*
G02*
X17903660Y-11501300I-215000J0D01*
G01*
X17903660Y-11501300D02*
G75*
G02*
X18333660Y-11501300I215000J0D01*
G01*
D11*
X9253277Y-14490735D02*
X9253277Y-14290735D01*
X9253277Y-14290735D02*
X9300896Y-14290735D01*
X9300896Y-14290735D02*
X9329467Y-14300259D01*
X9329467Y-14300259D02*
X9348515Y-14319306D01*
X9348515Y-14319306D02*
X9358039Y-14338354D01*
X9358039Y-14338354D02*
X9367563Y-14376449D01*
X9367563Y-14376449D02*
X9367563Y-14405020D01*
X9367563Y-14405020D02*
X9358039Y-14443116D01*
X9358039Y-14443116D02*
X9348515Y-14462163D01*
X9348515Y-14462163D02*
X9329467Y-14481211D01*
X9329467Y-14481211D02*
X9300896Y-14490735D01*
X9300896Y-14490735D02*
X9253277Y-14490735D01*
X9453277Y-14490735D02*
X9453277Y-14357401D01*
X9453277Y-14395497D02*
X9462801Y-14376449D01*
X9462801Y-14376449D02*
X9472324Y-14366925D01*
X9472324Y-14366925D02*
X9491372Y-14357401D01*
X9491372Y-14357401D02*
X9510420Y-14357401D01*
X9577086Y-14490735D02*
X9577086Y-14357401D01*
X9577086Y-14290735D02*
X9567563Y-14300259D01*
X9567563Y-14300259D02*
X9577086Y-14309782D01*
X9577086Y-14309782D02*
X9586610Y-14300259D01*
X9586610Y-14300259D02*
X9577086Y-14290735D01*
X9577086Y-14290735D02*
X9577086Y-14309782D01*
X9700896Y-14490735D02*
X9681848Y-14481211D01*
X9681848Y-14481211D02*
X9672324Y-14462163D01*
X9672324Y-14462163D02*
X9672324Y-14290735D01*
X9805658Y-14490735D02*
X9786610Y-14481211D01*
X9786610Y-14481211D02*
X9777086Y-14462163D01*
X9777086Y-14462163D02*
X9777086Y-14290735D01*
X10034229Y-14490735D02*
X10034229Y-14290735D01*
X10034229Y-14290735D02*
X10100896Y-14433592D01*
X10100896Y-14433592D02*
X10167563Y-14290735D01*
X10167563Y-14290735D02*
X10167563Y-14490735D01*
X10348515Y-14490735D02*
X10348515Y-14385973D01*
X10348515Y-14385973D02*
X10338991Y-14366925D01*
X10338991Y-14366925D02*
X10319944Y-14357401D01*
X10319944Y-14357401D02*
X10281848Y-14357401D01*
X10281848Y-14357401D02*
X10262801Y-14366925D01*
X10348515Y-14481211D02*
X10329467Y-14490735D01*
X10329467Y-14490735D02*
X10281848Y-14490735D01*
X10281848Y-14490735D02*
X10262801Y-14481211D01*
X10262801Y-14481211D02*
X10253277Y-14462163D01*
X10253277Y-14462163D02*
X10253277Y-14443116D01*
X10253277Y-14443116D02*
X10262801Y-14424068D01*
X10262801Y-14424068D02*
X10281848Y-14414544D01*
X10281848Y-14414544D02*
X10329467Y-14414544D01*
X10329467Y-14414544D02*
X10348515Y-14405020D01*
X10443753Y-14357401D02*
X10443753Y-14557401D01*
X10443753Y-14366925D02*
X10462801Y-14357401D01*
X10462801Y-14357401D02*
X10500896Y-14357401D01*
X10500896Y-14357401D02*
X10519944Y-14366925D01*
X10519944Y-14366925D02*
X10529467Y-14376449D01*
X10529467Y-14376449D02*
X10538991Y-14395497D01*
X10538991Y-14395497D02*
X10538991Y-14452639D01*
X10538991Y-14452639D02*
X10529467Y-14471687D01*
X10529467Y-14471687D02*
X10519944Y-14481211D01*
X10519944Y-14481211D02*
X10500896Y-14490735D01*
X10500896Y-14490735D02*
X10462801Y-14490735D01*
X10462801Y-14490735D02*
X10443753Y-14481211D01*
X10624705Y-14471687D02*
X10634229Y-14481211D01*
X10634229Y-14481211D02*
X10624705Y-14490735D01*
X10624705Y-14490735D02*
X10615182Y-14481211D01*
X10615182Y-14481211D02*
X10624705Y-14471687D01*
X10624705Y-14471687D02*
X10624705Y-14490735D01*
X10624705Y-14366925D02*
X10634229Y-14376449D01*
X10634229Y-14376449D02*
X10624705Y-14385973D01*
X10624705Y-14385973D02*
X10615182Y-14376449D01*
X10615182Y-14376449D02*
X10624705Y-14366925D01*
X10624705Y-14366925D02*
X10624705Y-14385973D01*
D12*
X8902500Y-14774251D02*
X8992500Y-14864251D01*
X8992500Y-14774251D02*
X8902500Y-14864251D01*
D11*
X9291372Y-14710735D02*
X9310420Y-14710735D01*
X9310420Y-14710735D02*
X9329467Y-14720259D01*
X9329467Y-14720259D02*
X9338991Y-14729782D01*
X9338991Y-14729782D02*
X9348515Y-14748830D01*
X9348515Y-14748830D02*
X9358039Y-14786925D01*
X9358039Y-14786925D02*
X9358039Y-14834544D01*
X9358039Y-14834544D02*
X9348515Y-14872639D01*
X9348515Y-14872639D02*
X9338991Y-14891687D01*
X9338991Y-14891687D02*
X9329467Y-14901211D01*
X9329467Y-14901211D02*
X9310420Y-14910735D01*
X9310420Y-14910735D02*
X9291372Y-14910735D01*
X9291372Y-14910735D02*
X9272324Y-14901211D01*
X9272324Y-14901211D02*
X9262801Y-14891687D01*
X9262801Y-14891687D02*
X9253277Y-14872639D01*
X9253277Y-14872639D02*
X9243753Y-14834544D01*
X9243753Y-14834544D02*
X9243753Y-14786925D01*
X9243753Y-14786925D02*
X9253277Y-14748830D01*
X9253277Y-14748830D02*
X9262801Y-14729782D01*
X9262801Y-14729782D02*
X9272324Y-14720259D01*
X9272324Y-14720259D02*
X9291372Y-14710735D01*
X9443753Y-14891687D02*
X9453277Y-14901211D01*
X9453277Y-14901211D02*
X9443753Y-14910735D01*
X9443753Y-14910735D02*
X9434229Y-14901211D01*
X9434229Y-14901211D02*
X9443753Y-14891687D01*
X9443753Y-14891687D02*
X9443753Y-14910735D01*
X9548515Y-14910735D02*
X9586610Y-14910735D01*
X9586610Y-14910735D02*
X9605658Y-14901211D01*
X9605658Y-14901211D02*
X9615182Y-14891687D01*
X9615182Y-14891687D02*
X9634229Y-14863116D01*
X9634229Y-14863116D02*
X9643753Y-14825020D01*
X9643753Y-14825020D02*
X9643753Y-14748830D01*
X9643753Y-14748830D02*
X9634229Y-14729782D01*
X9634229Y-14729782D02*
X9624705Y-14720259D01*
X9624705Y-14720259D02*
X9605658Y-14710735D01*
X9605658Y-14710735D02*
X9567563Y-14710735D01*
X9567563Y-14710735D02*
X9548515Y-14720259D01*
X9548515Y-14720259D02*
X9538991Y-14729782D01*
X9538991Y-14729782D02*
X9529467Y-14748830D01*
X9529467Y-14748830D02*
X9529467Y-14796449D01*
X9529467Y-14796449D02*
X9538991Y-14815497D01*
X9538991Y-14815497D02*
X9548515Y-14825020D01*
X9548515Y-14825020D02*
X9567563Y-14834544D01*
X9567563Y-14834544D02*
X9605658Y-14834544D01*
X9605658Y-14834544D02*
X9624705Y-14825020D01*
X9624705Y-14825020D02*
X9634229Y-14815497D01*
X9634229Y-14815497D02*
X9643753Y-14796449D01*
X9767563Y-14710735D02*
X9786610Y-14710735D01*
X9786610Y-14710735D02*
X9805658Y-14720259D01*
X9805658Y-14720259D02*
X9815182Y-14729782D01*
X9815182Y-14729782D02*
X9824705Y-14748830D01*
X9824705Y-14748830D02*
X9834229Y-14786925D01*
X9834229Y-14786925D02*
X9834229Y-14834544D01*
X9834229Y-14834544D02*
X9824705Y-14872639D01*
X9824705Y-14872639D02*
X9815182Y-14891687D01*
X9815182Y-14891687D02*
X9805658Y-14901211D01*
X9805658Y-14901211D02*
X9786610Y-14910735D01*
X9786610Y-14910735D02*
X9767563Y-14910735D01*
X9767563Y-14910735D02*
X9748515Y-14901211D01*
X9748515Y-14901211D02*
X9738991Y-14891687D01*
X9738991Y-14891687D02*
X9729467Y-14872639D01*
X9729467Y-14872639D02*
X9719944Y-14834544D01*
X9719944Y-14834544D02*
X9719944Y-14786925D01*
X9719944Y-14786925D02*
X9729467Y-14748830D01*
X9729467Y-14748830D02*
X9738991Y-14729782D01*
X9738991Y-14729782D02*
X9748515Y-14720259D01*
X9748515Y-14720259D02*
X9767563Y-14710735D01*
X9958039Y-14710735D02*
X9977086Y-14710735D01*
X9977086Y-14710735D02*
X9996134Y-14720259D01*
X9996134Y-14720259D02*
X10005658Y-14729782D01*
X10005658Y-14729782D02*
X10015182Y-14748830D01*
X10015182Y-14748830D02*
X10024705Y-14786925D01*
X10024705Y-14786925D02*
X10024705Y-14834544D01*
X10024705Y-14834544D02*
X10015182Y-14872639D01*
X10015182Y-14872639D02*
X10005658Y-14891687D01*
X10005658Y-14891687D02*
X9996134Y-14901211D01*
X9996134Y-14901211D02*
X9977086Y-14910735D01*
X9977086Y-14910735D02*
X9958039Y-14910735D01*
X9958039Y-14910735D02*
X9938991Y-14901211D01*
X9938991Y-14901211D02*
X9929467Y-14891687D01*
X9929467Y-14891687D02*
X9919944Y-14872639D01*
X9919944Y-14872639D02*
X9910420Y-14834544D01*
X9910420Y-14834544D02*
X9910420Y-14786925D01*
X9910420Y-14786925D02*
X9919944Y-14748830D01*
X9919944Y-14748830D02*
X9929467Y-14729782D01*
X9929467Y-14729782D02*
X9938991Y-14720259D01*
X9938991Y-14720259D02*
X9958039Y-14710735D01*
X10110420Y-14910735D02*
X10110420Y-14777401D01*
X10110420Y-14796449D02*
X10119944Y-14786925D01*
X10119944Y-14786925D02*
X10138991Y-14777401D01*
X10138991Y-14777401D02*
X10167563Y-14777401D01*
X10167563Y-14777401D02*
X10186610Y-14786925D01*
X10186610Y-14786925D02*
X10196134Y-14805973D01*
X10196134Y-14805973D02*
X10196134Y-14910735D01*
X10196134Y-14805973D02*
X10205658Y-14786925D01*
X10205658Y-14786925D02*
X10224705Y-14777401D01*
X10224705Y-14777401D02*
X10253277Y-14777401D01*
X10253277Y-14777401D02*
X10272325Y-14786925D01*
X10272325Y-14786925D02*
X10281848Y-14805973D01*
X10281848Y-14805973D02*
X10281848Y-14910735D01*
X10377086Y-14910735D02*
X10377086Y-14777401D01*
X10377086Y-14796449D02*
X10386610Y-14786925D01*
X10386610Y-14786925D02*
X10405658Y-14777401D01*
X10405658Y-14777401D02*
X10434229Y-14777401D01*
X10434229Y-14777401D02*
X10453277Y-14786925D01*
X10453277Y-14786925D02*
X10462801Y-14805973D01*
X10462801Y-14805973D02*
X10462801Y-14910735D01*
X10462801Y-14805973D02*
X10472325Y-14786925D01*
X10472325Y-14786925D02*
X10491372Y-14777401D01*
X10491372Y-14777401D02*
X10519944Y-14777401D01*
X10519944Y-14777401D02*
X10538991Y-14786925D01*
X10538991Y-14786925D02*
X10548515Y-14805973D01*
X10548515Y-14805973D02*
X10548515Y-14910735D01*
X10938991Y-14701211D02*
X10767563Y-14958354D01*
X11196134Y-14710735D02*
X11215182Y-14710735D01*
X11215182Y-14710735D02*
X11234229Y-14720259D01*
X11234229Y-14720259D02*
X11243753Y-14729782D01*
X11243753Y-14729782D02*
X11253277Y-14748830D01*
X11253277Y-14748830D02*
X11262801Y-14786925D01*
X11262801Y-14786925D02*
X11262801Y-14834544D01*
X11262801Y-14834544D02*
X11253277Y-14872639D01*
X11253277Y-14872639D02*
X11243753Y-14891687D01*
X11243753Y-14891687D02*
X11234229Y-14901211D01*
X11234229Y-14901211D02*
X11215182Y-14910735D01*
X11215182Y-14910735D02*
X11196134Y-14910735D01*
X11196134Y-14910735D02*
X11177087Y-14901211D01*
X11177087Y-14901211D02*
X11167563Y-14891687D01*
X11167563Y-14891687D02*
X11158039Y-14872639D01*
X11158039Y-14872639D02*
X11148515Y-14834544D01*
X11148515Y-14834544D02*
X11148515Y-14786925D01*
X11148515Y-14786925D02*
X11158039Y-14748830D01*
X11158039Y-14748830D02*
X11167563Y-14729782D01*
X11167563Y-14729782D02*
X11177087Y-14720259D01*
X11177087Y-14720259D02*
X11196134Y-14710735D01*
X11348515Y-14891687D02*
X11358039Y-14901211D01*
X11358039Y-14901211D02*
X11348515Y-14910735D01*
X11348515Y-14910735D02*
X11338991Y-14901211D01*
X11338991Y-14901211D02*
X11348515Y-14891687D01*
X11348515Y-14891687D02*
X11348515Y-14910735D01*
X11481848Y-14710735D02*
X11500896Y-14710735D01*
X11500896Y-14710735D02*
X11519944Y-14720259D01*
X11519944Y-14720259D02*
X11529467Y-14729782D01*
X11529467Y-14729782D02*
X11538991Y-14748830D01*
X11538991Y-14748830D02*
X11548515Y-14786925D01*
X11548515Y-14786925D02*
X11548515Y-14834544D01*
X11548515Y-14834544D02*
X11538991Y-14872639D01*
X11538991Y-14872639D02*
X11529467Y-14891687D01*
X11529467Y-14891687D02*
X11519944Y-14901211D01*
X11519944Y-14901211D02*
X11500896Y-14910735D01*
X11500896Y-14910735D02*
X11481848Y-14910735D01*
X11481848Y-14910735D02*
X11462801Y-14901211D01*
X11462801Y-14901211D02*
X11453277Y-14891687D01*
X11453277Y-14891687D02*
X11443753Y-14872639D01*
X11443753Y-14872639D02*
X11434229Y-14834544D01*
X11434229Y-14834544D02*
X11434229Y-14786925D01*
X11434229Y-14786925D02*
X11443753Y-14748830D01*
X11443753Y-14748830D02*
X11453277Y-14729782D01*
X11453277Y-14729782D02*
X11462801Y-14720259D01*
X11462801Y-14720259D02*
X11481848Y-14710735D01*
X11615182Y-14710735D02*
X11738991Y-14710735D01*
X11738991Y-14710735D02*
X11672325Y-14786925D01*
X11672325Y-14786925D02*
X11700896Y-14786925D01*
X11700896Y-14786925D02*
X11719944Y-14796449D01*
X11719944Y-14796449D02*
X11729467Y-14805973D01*
X11729467Y-14805973D02*
X11738991Y-14825020D01*
X11738991Y-14825020D02*
X11738991Y-14872639D01*
X11738991Y-14872639D02*
X11729467Y-14891687D01*
X11729467Y-14891687D02*
X11719944Y-14901211D01*
X11719944Y-14901211D02*
X11700896Y-14910735D01*
X11700896Y-14910735D02*
X11643753Y-14910735D01*
X11643753Y-14910735D02*
X11624706Y-14901211D01*
X11624706Y-14901211D02*
X11615182Y-14891687D01*
X11919944Y-14710735D02*
X11824706Y-14710735D01*
X11824706Y-14710735D02*
X11815182Y-14805973D01*
X11815182Y-14805973D02*
X11824706Y-14796449D01*
X11824706Y-14796449D02*
X11843753Y-14786925D01*
X11843753Y-14786925D02*
X11891372Y-14786925D01*
X11891372Y-14786925D02*
X11910420Y-14796449D01*
X11910420Y-14796449D02*
X11919944Y-14805973D01*
X11919944Y-14805973D02*
X11929467Y-14825020D01*
X11929467Y-14825020D02*
X11929467Y-14872639D01*
X11929467Y-14872639D02*
X11919944Y-14891687D01*
X11919944Y-14891687D02*
X11910420Y-14901211D01*
X11910420Y-14901211D02*
X11891372Y-14910735D01*
X11891372Y-14910735D02*
X11843753Y-14910735D01*
X11843753Y-14910735D02*
X11824706Y-14901211D01*
X11824706Y-14901211D02*
X11815182Y-14891687D01*
X12100896Y-14777401D02*
X12100896Y-14910735D01*
X12053277Y-14701211D02*
X12005658Y-14844068D01*
X12005658Y-14844068D02*
X12129467Y-14844068D01*
X12196134Y-14710735D02*
X12196134Y-14748830D01*
X12272325Y-14710735D02*
X12272325Y-14748830D01*
X12567563Y-14986925D02*
X12558039Y-14977401D01*
X12558039Y-14977401D02*
X12538991Y-14948830D01*
X12538991Y-14948830D02*
X12529468Y-14929782D01*
X12529468Y-14929782D02*
X12519944Y-14901211D01*
X12519944Y-14901211D02*
X12510420Y-14853592D01*
X12510420Y-14853592D02*
X12510420Y-14815497D01*
X12510420Y-14815497D02*
X12519944Y-14767878D01*
X12519944Y-14767878D02*
X12529468Y-14739306D01*
X12529468Y-14739306D02*
X12538991Y-14720259D01*
X12538991Y-14720259D02*
X12558039Y-14691687D01*
X12558039Y-14691687D02*
X12567563Y-14682163D01*
X12634229Y-14729782D02*
X12643753Y-14720259D01*
X12643753Y-14720259D02*
X12662801Y-14710735D01*
X12662801Y-14710735D02*
X12710420Y-14710735D01*
X12710420Y-14710735D02*
X12729468Y-14720259D01*
X12729468Y-14720259D02*
X12738991Y-14729782D01*
X12738991Y-14729782D02*
X12748515Y-14748830D01*
X12748515Y-14748830D02*
X12748515Y-14767878D01*
X12748515Y-14767878D02*
X12738991Y-14796449D01*
X12738991Y-14796449D02*
X12624706Y-14910735D01*
X12624706Y-14910735D02*
X12748515Y-14910735D01*
X12986610Y-14910735D02*
X12986610Y-14710735D01*
X13072325Y-14910735D02*
X13072325Y-14805973D01*
X13072325Y-14805973D02*
X13062801Y-14786925D01*
X13062801Y-14786925D02*
X13043753Y-14777401D01*
X13043753Y-14777401D02*
X13015182Y-14777401D01*
X13015182Y-14777401D02*
X12996134Y-14786925D01*
X12996134Y-14786925D02*
X12986610Y-14796449D01*
X13196134Y-14910735D02*
X13177087Y-14901211D01*
X13177087Y-14901211D02*
X13167563Y-14891687D01*
X13167563Y-14891687D02*
X13158039Y-14872639D01*
X13158039Y-14872639D02*
X13158039Y-14815497D01*
X13158039Y-14815497D02*
X13167563Y-14796449D01*
X13167563Y-14796449D02*
X13177087Y-14786925D01*
X13177087Y-14786925D02*
X13196134Y-14777401D01*
X13196134Y-14777401D02*
X13224706Y-14777401D01*
X13224706Y-14777401D02*
X13243753Y-14786925D01*
X13243753Y-14786925D02*
X13253277Y-14796449D01*
X13253277Y-14796449D02*
X13262801Y-14815497D01*
X13262801Y-14815497D02*
X13262801Y-14872639D01*
X13262801Y-14872639D02*
X13253277Y-14891687D01*
X13253277Y-14891687D02*
X13243753Y-14901211D01*
X13243753Y-14901211D02*
X13224706Y-14910735D01*
X13224706Y-14910735D02*
X13196134Y-14910735D01*
X13377087Y-14910735D02*
X13358039Y-14901211D01*
X13358039Y-14901211D02*
X13348515Y-14882163D01*
X13348515Y-14882163D02*
X13348515Y-14710735D01*
X13529468Y-14901211D02*
X13510420Y-14910735D01*
X13510420Y-14910735D02*
X13472325Y-14910735D01*
X13472325Y-14910735D02*
X13453277Y-14901211D01*
X13453277Y-14901211D02*
X13443753Y-14882163D01*
X13443753Y-14882163D02*
X13443753Y-14805973D01*
X13443753Y-14805973D02*
X13453277Y-14786925D01*
X13453277Y-14786925D02*
X13472325Y-14777401D01*
X13472325Y-14777401D02*
X13510420Y-14777401D01*
X13510420Y-14777401D02*
X13529468Y-14786925D01*
X13529468Y-14786925D02*
X13538991Y-14805973D01*
X13538991Y-14805973D02*
X13538991Y-14825020D01*
X13538991Y-14825020D02*
X13443753Y-14844068D01*
X13615182Y-14901211D02*
X13634230Y-14910735D01*
X13634230Y-14910735D02*
X13672325Y-14910735D01*
X13672325Y-14910735D02*
X13691372Y-14901211D01*
X13691372Y-14901211D02*
X13700896Y-14882163D01*
X13700896Y-14882163D02*
X13700896Y-14872639D01*
X13700896Y-14872639D02*
X13691372Y-14853592D01*
X13691372Y-14853592D02*
X13672325Y-14844068D01*
X13672325Y-14844068D02*
X13643753Y-14844068D01*
X13643753Y-14844068D02*
X13624706Y-14834544D01*
X13624706Y-14834544D02*
X13615182Y-14815497D01*
X13615182Y-14815497D02*
X13615182Y-14805973D01*
X13615182Y-14805973D02*
X13624706Y-14786925D01*
X13624706Y-14786925D02*
X13643753Y-14777401D01*
X13643753Y-14777401D02*
X13672325Y-14777401D01*
X13672325Y-14777401D02*
X13691372Y-14786925D01*
X13767563Y-14986925D02*
X13777087Y-14977401D01*
X13777087Y-14977401D02*
X13796134Y-14948830D01*
X13796134Y-14948830D02*
X13805658Y-14929782D01*
X13805658Y-14929782D02*
X13815182Y-14901211D01*
X13815182Y-14901211D02*
X13824706Y-14853592D01*
X13824706Y-14853592D02*
X13824706Y-14815497D01*
X13824706Y-14815497D02*
X13815182Y-14767878D01*
X13815182Y-14767878D02*
X13805658Y-14739306D01*
X13805658Y-14739306D02*
X13796134Y-14720259D01*
X13796134Y-14720259D02*
X13777087Y-14691687D01*
X13777087Y-14691687D02*
X13767563Y-14682163D01*
X14129468Y-14986925D02*
X14119944Y-14977401D01*
X14119944Y-14977401D02*
X14100896Y-14948830D01*
X14100896Y-14948830D02*
X14091372Y-14929782D01*
X14091372Y-14929782D02*
X14081849Y-14901211D01*
X14081849Y-14901211D02*
X14072325Y-14853592D01*
X14072325Y-14853592D02*
X14072325Y-14815497D01*
X14072325Y-14815497D02*
X14081849Y-14767878D01*
X14081849Y-14767878D02*
X14091372Y-14739306D01*
X14091372Y-14739306D02*
X14100896Y-14720259D01*
X14100896Y-14720259D02*
X14119944Y-14691687D01*
X14119944Y-14691687D02*
X14129468Y-14682163D01*
X14205658Y-14777401D02*
X14205658Y-14910735D01*
X14205658Y-14796449D02*
X14215182Y-14786925D01*
X14215182Y-14786925D02*
X14234230Y-14777401D01*
X14234230Y-14777401D02*
X14262801Y-14777401D01*
X14262801Y-14777401D02*
X14281849Y-14786925D01*
X14281849Y-14786925D02*
X14291372Y-14805973D01*
X14291372Y-14805973D02*
X14291372Y-14910735D01*
X14415182Y-14910735D02*
X14396134Y-14901211D01*
X14396134Y-14901211D02*
X14386611Y-14891687D01*
X14386611Y-14891687D02*
X14377087Y-14872639D01*
X14377087Y-14872639D02*
X14377087Y-14815497D01*
X14377087Y-14815497D02*
X14386611Y-14796449D01*
X14386611Y-14796449D02*
X14396134Y-14786925D01*
X14396134Y-14786925D02*
X14415182Y-14777401D01*
X14415182Y-14777401D02*
X14443753Y-14777401D01*
X14443753Y-14777401D02*
X14462801Y-14786925D01*
X14462801Y-14786925D02*
X14472325Y-14796449D01*
X14472325Y-14796449D02*
X14481849Y-14815497D01*
X14481849Y-14815497D02*
X14481849Y-14872639D01*
X14481849Y-14872639D02*
X14472325Y-14891687D01*
X14472325Y-14891687D02*
X14462801Y-14901211D01*
X14462801Y-14901211D02*
X14443753Y-14910735D01*
X14443753Y-14910735D02*
X14415182Y-14910735D01*
X14538992Y-14777401D02*
X14615182Y-14777401D01*
X14567563Y-14710735D02*
X14567563Y-14882163D01*
X14567563Y-14882163D02*
X14577087Y-14901211D01*
X14577087Y-14901211D02*
X14596134Y-14910735D01*
X14596134Y-14910735D02*
X14615182Y-14910735D01*
X14834230Y-14777401D02*
X14834230Y-14977401D01*
X14834230Y-14786925D02*
X14853277Y-14777401D01*
X14853277Y-14777401D02*
X14891373Y-14777401D01*
X14891373Y-14777401D02*
X14910420Y-14786925D01*
X14910420Y-14786925D02*
X14919944Y-14796449D01*
X14919944Y-14796449D02*
X14929468Y-14815497D01*
X14929468Y-14815497D02*
X14929468Y-14872639D01*
X14929468Y-14872639D02*
X14919944Y-14891687D01*
X14919944Y-14891687D02*
X14910420Y-14901211D01*
X14910420Y-14901211D02*
X14891373Y-14910735D01*
X14891373Y-14910735D02*
X14853277Y-14910735D01*
X14853277Y-14910735D02*
X14834230Y-14901211D01*
X15043753Y-14910735D02*
X15024706Y-14901211D01*
X15024706Y-14901211D02*
X15015182Y-14882163D01*
X15015182Y-14882163D02*
X15015182Y-14710735D01*
X15205658Y-14910735D02*
X15205658Y-14805973D01*
X15205658Y-14805973D02*
X15196134Y-14786925D01*
X15196134Y-14786925D02*
X15177087Y-14777401D01*
X15177087Y-14777401D02*
X15138992Y-14777401D01*
X15138992Y-14777401D02*
X15119944Y-14786925D01*
X15205658Y-14901211D02*
X15186611Y-14910735D01*
X15186611Y-14910735D02*
X15138992Y-14910735D01*
X15138992Y-14910735D02*
X15119944Y-14901211D01*
X15119944Y-14901211D02*
X15110420Y-14882163D01*
X15110420Y-14882163D02*
X15110420Y-14863116D01*
X15110420Y-14863116D02*
X15119944Y-14844068D01*
X15119944Y-14844068D02*
X15138992Y-14834544D01*
X15138992Y-14834544D02*
X15186611Y-14834544D01*
X15186611Y-14834544D02*
X15205658Y-14825020D01*
X15272325Y-14777401D02*
X15348515Y-14777401D01*
X15300896Y-14710735D02*
X15300896Y-14882163D01*
X15300896Y-14882163D02*
X15310420Y-14901211D01*
X15310420Y-14901211D02*
X15329468Y-14910735D01*
X15329468Y-14910735D02*
X15348515Y-14910735D01*
X15491373Y-14901211D02*
X15472325Y-14910735D01*
X15472325Y-14910735D02*
X15434230Y-14910735D01*
X15434230Y-14910735D02*
X15415182Y-14901211D01*
X15415182Y-14901211D02*
X15405658Y-14882163D01*
X15405658Y-14882163D02*
X15405658Y-14805973D01*
X15405658Y-14805973D02*
X15415182Y-14786925D01*
X15415182Y-14786925D02*
X15434230Y-14777401D01*
X15434230Y-14777401D02*
X15472325Y-14777401D01*
X15472325Y-14777401D02*
X15491373Y-14786925D01*
X15491373Y-14786925D02*
X15500896Y-14805973D01*
X15500896Y-14805973D02*
X15500896Y-14825020D01*
X15500896Y-14825020D02*
X15405658Y-14844068D01*
X15672325Y-14910735D02*
X15672325Y-14710735D01*
X15672325Y-14901211D02*
X15653277Y-14910735D01*
X15653277Y-14910735D02*
X15615182Y-14910735D01*
X15615182Y-14910735D02*
X15596134Y-14901211D01*
X15596134Y-14901211D02*
X15586611Y-14891687D01*
X15586611Y-14891687D02*
X15577087Y-14872639D01*
X15577087Y-14872639D02*
X15577087Y-14815497D01*
X15577087Y-14815497D02*
X15586611Y-14796449D01*
X15586611Y-14796449D02*
X15596134Y-14786925D01*
X15596134Y-14786925D02*
X15615182Y-14777401D01*
X15615182Y-14777401D02*
X15653277Y-14777401D01*
X15653277Y-14777401D02*
X15672325Y-14786925D01*
X15748515Y-14986925D02*
X15758039Y-14977401D01*
X15758039Y-14977401D02*
X15777087Y-14948830D01*
X15777087Y-14948830D02*
X15786611Y-14929782D01*
X15786611Y-14929782D02*
X15796134Y-14901211D01*
X15796134Y-14901211D02*
X15805658Y-14853592D01*
X15805658Y-14853592D02*
X15805658Y-14815497D01*
X15805658Y-14815497D02*
X15796134Y-14767878D01*
X15796134Y-14767878D02*
X15786611Y-14739306D01*
X15786611Y-14739306D02*
X15777087Y-14720259D01*
X15777087Y-14720259D02*
X15758039Y-14691687D01*
X15758039Y-14691687D02*
X15748515Y-14682163D01*
D13*
X8992500Y-15083251D02*
G75*
G02*
X8802500Y-15083251I-95000J0D01*
G01*
X8802500Y-15083251D02*
G75*
G02*
X8992500Y-15083251I95000J0D01*
G01*
D11*
X9358039Y-15174735D02*
X9243753Y-15174735D01*
X9300896Y-15174735D02*
X9300896Y-14974735D01*
X9300896Y-14974735D02*
X9281848Y-15003306D01*
X9281848Y-15003306D02*
X9262801Y-15022354D01*
X9262801Y-15022354D02*
X9243753Y-15031878D01*
X9443753Y-15155687D02*
X9453277Y-15165211D01*
X9453277Y-15165211D02*
X9443753Y-15174735D01*
X9443753Y-15174735D02*
X9434229Y-15165211D01*
X9434229Y-15165211D02*
X9443753Y-15155687D01*
X9443753Y-15155687D02*
X9443753Y-15174735D01*
X9548515Y-15174735D02*
X9586610Y-15174735D01*
X9586610Y-15174735D02*
X9605658Y-15165211D01*
X9605658Y-15165211D02*
X9615182Y-15155687D01*
X9615182Y-15155687D02*
X9634229Y-15127116D01*
X9634229Y-15127116D02*
X9643753Y-15089020D01*
X9643753Y-15089020D02*
X9643753Y-15012830D01*
X9643753Y-15012830D02*
X9634229Y-14993782D01*
X9634229Y-14993782D02*
X9624705Y-14984259D01*
X9624705Y-14984259D02*
X9605658Y-14974735D01*
X9605658Y-14974735D02*
X9567563Y-14974735D01*
X9567563Y-14974735D02*
X9548515Y-14984259D01*
X9548515Y-14984259D02*
X9538991Y-14993782D01*
X9538991Y-14993782D02*
X9529467Y-15012830D01*
X9529467Y-15012830D02*
X9529467Y-15060449D01*
X9529467Y-15060449D02*
X9538991Y-15079497D01*
X9538991Y-15079497D02*
X9548515Y-15089020D01*
X9548515Y-15089020D02*
X9567563Y-15098544D01*
X9567563Y-15098544D02*
X9605658Y-15098544D01*
X9605658Y-15098544D02*
X9624705Y-15089020D01*
X9624705Y-15089020D02*
X9634229Y-15079497D01*
X9634229Y-15079497D02*
X9643753Y-15060449D01*
X9767563Y-14974735D02*
X9786610Y-14974735D01*
X9786610Y-14974735D02*
X9805658Y-14984259D01*
X9805658Y-14984259D02*
X9815182Y-14993782D01*
X9815182Y-14993782D02*
X9824705Y-15012830D01*
X9824705Y-15012830D02*
X9834229Y-15050925D01*
X9834229Y-15050925D02*
X9834229Y-15098544D01*
X9834229Y-15098544D02*
X9824705Y-15136639D01*
X9824705Y-15136639D02*
X9815182Y-15155687D01*
X9815182Y-15155687D02*
X9805658Y-15165211D01*
X9805658Y-15165211D02*
X9786610Y-15174735D01*
X9786610Y-15174735D02*
X9767563Y-15174735D01*
X9767563Y-15174735D02*
X9748515Y-15165211D01*
X9748515Y-15165211D02*
X9738991Y-15155687D01*
X9738991Y-15155687D02*
X9729467Y-15136639D01*
X9729467Y-15136639D02*
X9719944Y-15098544D01*
X9719944Y-15098544D02*
X9719944Y-15050925D01*
X9719944Y-15050925D02*
X9729467Y-15012830D01*
X9729467Y-15012830D02*
X9738991Y-14993782D01*
X9738991Y-14993782D02*
X9748515Y-14984259D01*
X9748515Y-14984259D02*
X9767563Y-14974735D01*
X9958039Y-14974735D02*
X9977086Y-14974735D01*
X9977086Y-14974735D02*
X9996134Y-14984259D01*
X9996134Y-14984259D02*
X10005658Y-14993782D01*
X10005658Y-14993782D02*
X10015182Y-15012830D01*
X10015182Y-15012830D02*
X10024705Y-15050925D01*
X10024705Y-15050925D02*
X10024705Y-15098544D01*
X10024705Y-15098544D02*
X10015182Y-15136639D01*
X10015182Y-15136639D02*
X10005658Y-15155687D01*
X10005658Y-15155687D02*
X9996134Y-15165211D01*
X9996134Y-15165211D02*
X9977086Y-15174735D01*
X9977086Y-15174735D02*
X9958039Y-15174735D01*
X9958039Y-15174735D02*
X9938991Y-15165211D01*
X9938991Y-15165211D02*
X9929467Y-15155687D01*
X9929467Y-15155687D02*
X9919944Y-15136639D01*
X9919944Y-15136639D02*
X9910420Y-15098544D01*
X9910420Y-15098544D02*
X9910420Y-15050925D01*
X9910420Y-15050925D02*
X9919944Y-15012830D01*
X9919944Y-15012830D02*
X9929467Y-14993782D01*
X9929467Y-14993782D02*
X9938991Y-14984259D01*
X9938991Y-14984259D02*
X9958039Y-14974735D01*
X10110420Y-15174735D02*
X10110420Y-15041401D01*
X10110420Y-15060449D02*
X10119944Y-15050925D01*
X10119944Y-15050925D02*
X10138991Y-15041401D01*
X10138991Y-15041401D02*
X10167563Y-15041401D01*
X10167563Y-15041401D02*
X10186610Y-15050925D01*
X10186610Y-15050925D02*
X10196134Y-15069973D01*
X10196134Y-15069973D02*
X10196134Y-15174735D01*
X10196134Y-15069973D02*
X10205658Y-15050925D01*
X10205658Y-15050925D02*
X10224705Y-15041401D01*
X10224705Y-15041401D02*
X10253277Y-15041401D01*
X10253277Y-15041401D02*
X10272325Y-15050925D01*
X10272325Y-15050925D02*
X10281848Y-15069973D01*
X10281848Y-15069973D02*
X10281848Y-15174735D01*
X10377086Y-15174735D02*
X10377086Y-15041401D01*
X10377086Y-15060449D02*
X10386610Y-15050925D01*
X10386610Y-15050925D02*
X10405658Y-15041401D01*
X10405658Y-15041401D02*
X10434229Y-15041401D01*
X10434229Y-15041401D02*
X10453277Y-15050925D01*
X10453277Y-15050925D02*
X10462801Y-15069973D01*
X10462801Y-15069973D02*
X10462801Y-15174735D01*
X10462801Y-15069973D02*
X10472325Y-15050925D01*
X10472325Y-15050925D02*
X10491372Y-15041401D01*
X10491372Y-15041401D02*
X10519944Y-15041401D01*
X10519944Y-15041401D02*
X10538991Y-15050925D01*
X10538991Y-15050925D02*
X10548515Y-15069973D01*
X10548515Y-15069973D02*
X10548515Y-15174735D01*
X10938991Y-14965211D02*
X10767563Y-15222354D01*
X11196134Y-14974735D02*
X11215182Y-14974735D01*
X11215182Y-14974735D02*
X11234229Y-14984259D01*
X11234229Y-14984259D02*
X11243753Y-14993782D01*
X11243753Y-14993782D02*
X11253277Y-15012830D01*
X11253277Y-15012830D02*
X11262801Y-15050925D01*
X11262801Y-15050925D02*
X11262801Y-15098544D01*
X11262801Y-15098544D02*
X11253277Y-15136639D01*
X11253277Y-15136639D02*
X11243753Y-15155687D01*
X11243753Y-15155687D02*
X11234229Y-15165211D01*
X11234229Y-15165211D02*
X11215182Y-15174735D01*
X11215182Y-15174735D02*
X11196134Y-15174735D01*
X11196134Y-15174735D02*
X11177087Y-15165211D01*
X11177087Y-15165211D02*
X11167563Y-15155687D01*
X11167563Y-15155687D02*
X11158039Y-15136639D01*
X11158039Y-15136639D02*
X11148515Y-15098544D01*
X11148515Y-15098544D02*
X11148515Y-15050925D01*
X11148515Y-15050925D02*
X11158039Y-15012830D01*
X11158039Y-15012830D02*
X11167563Y-14993782D01*
X11167563Y-14993782D02*
X11177087Y-14984259D01*
X11177087Y-14984259D02*
X11196134Y-14974735D01*
X11348515Y-15155687D02*
X11358039Y-15165211D01*
X11358039Y-15165211D02*
X11348515Y-15174735D01*
X11348515Y-15174735D02*
X11338991Y-15165211D01*
X11338991Y-15165211D02*
X11348515Y-15155687D01*
X11348515Y-15155687D02*
X11348515Y-15174735D01*
X11481848Y-14974735D02*
X11500896Y-14974735D01*
X11500896Y-14974735D02*
X11519944Y-14984259D01*
X11519944Y-14984259D02*
X11529467Y-14993782D01*
X11529467Y-14993782D02*
X11538991Y-15012830D01*
X11538991Y-15012830D02*
X11548515Y-15050925D01*
X11548515Y-15050925D02*
X11548515Y-15098544D01*
X11548515Y-15098544D02*
X11538991Y-15136639D01*
X11538991Y-15136639D02*
X11529467Y-15155687D01*
X11529467Y-15155687D02*
X11519944Y-15165211D01*
X11519944Y-15165211D02*
X11500896Y-15174735D01*
X11500896Y-15174735D02*
X11481848Y-15174735D01*
X11481848Y-15174735D02*
X11462801Y-15165211D01*
X11462801Y-15165211D02*
X11453277Y-15155687D01*
X11453277Y-15155687D02*
X11443753Y-15136639D01*
X11443753Y-15136639D02*
X11434229Y-15098544D01*
X11434229Y-15098544D02*
X11434229Y-15050925D01*
X11434229Y-15050925D02*
X11443753Y-15012830D01*
X11443753Y-15012830D02*
X11453277Y-14993782D01*
X11453277Y-14993782D02*
X11462801Y-14984259D01*
X11462801Y-14984259D02*
X11481848Y-14974735D01*
X11615182Y-14974735D02*
X11748515Y-14974735D01*
X11748515Y-14974735D02*
X11662801Y-15174735D01*
X11910420Y-15041401D02*
X11910420Y-15174735D01*
X11862801Y-14965211D02*
X11815182Y-15108068D01*
X11815182Y-15108068D02*
X11938991Y-15108068D01*
X12043753Y-15060449D02*
X12024706Y-15050925D01*
X12024706Y-15050925D02*
X12015182Y-15041401D01*
X12015182Y-15041401D02*
X12005658Y-15022354D01*
X12005658Y-15022354D02*
X12005658Y-15012830D01*
X12005658Y-15012830D02*
X12015182Y-14993782D01*
X12015182Y-14993782D02*
X12024706Y-14984259D01*
X12024706Y-14984259D02*
X12043753Y-14974735D01*
X12043753Y-14974735D02*
X12081848Y-14974735D01*
X12081848Y-14974735D02*
X12100896Y-14984259D01*
X12100896Y-14984259D02*
X12110420Y-14993782D01*
X12110420Y-14993782D02*
X12119944Y-15012830D01*
X12119944Y-15012830D02*
X12119944Y-15022354D01*
X12119944Y-15022354D02*
X12110420Y-15041401D01*
X12110420Y-15041401D02*
X12100896Y-15050925D01*
X12100896Y-15050925D02*
X12081848Y-15060449D01*
X12081848Y-15060449D02*
X12043753Y-15060449D01*
X12043753Y-15060449D02*
X12024706Y-15069973D01*
X12024706Y-15069973D02*
X12015182Y-15079497D01*
X12015182Y-15079497D02*
X12005658Y-15098544D01*
X12005658Y-15098544D02*
X12005658Y-15136639D01*
X12005658Y-15136639D02*
X12015182Y-15155687D01*
X12015182Y-15155687D02*
X12024706Y-15165211D01*
X12024706Y-15165211D02*
X12043753Y-15174735D01*
X12043753Y-15174735D02*
X12081848Y-15174735D01*
X12081848Y-15174735D02*
X12100896Y-15165211D01*
X12100896Y-15165211D02*
X12110420Y-15155687D01*
X12110420Y-15155687D02*
X12119944Y-15136639D01*
X12119944Y-15136639D02*
X12119944Y-15098544D01*
X12119944Y-15098544D02*
X12110420Y-15079497D01*
X12110420Y-15079497D02*
X12100896Y-15069973D01*
X12100896Y-15069973D02*
X12081848Y-15060449D01*
X12196134Y-14974735D02*
X12196134Y-15012830D01*
X12272325Y-14974735D02*
X12272325Y-15012830D01*
X12567563Y-15250925D02*
X12558039Y-15241401D01*
X12558039Y-15241401D02*
X12538991Y-15212830D01*
X12538991Y-15212830D02*
X12529468Y-15193782D01*
X12529468Y-15193782D02*
X12519944Y-15165211D01*
X12519944Y-15165211D02*
X12510420Y-15117592D01*
X12510420Y-15117592D02*
X12510420Y-15079497D01*
X12510420Y-15079497D02*
X12519944Y-15031878D01*
X12519944Y-15031878D02*
X12529468Y-15003306D01*
X12529468Y-15003306D02*
X12538991Y-14984259D01*
X12538991Y-14984259D02*
X12558039Y-14955687D01*
X12558039Y-14955687D02*
X12567563Y-14946163D01*
X12624706Y-14974735D02*
X12758039Y-14974735D01*
X12758039Y-14974735D02*
X12672325Y-15174735D01*
X12824706Y-14993782D02*
X12834229Y-14984259D01*
X12834229Y-14984259D02*
X12853277Y-14974735D01*
X12853277Y-14974735D02*
X12900896Y-14974735D01*
X12900896Y-14974735D02*
X12919944Y-14984259D01*
X12919944Y-14984259D02*
X12929468Y-14993782D01*
X12929468Y-14993782D02*
X12938991Y-15012830D01*
X12938991Y-15012830D02*
X12938991Y-15031878D01*
X12938991Y-15031878D02*
X12929468Y-15060449D01*
X12929468Y-15060449D02*
X12815182Y-15174735D01*
X12815182Y-15174735D02*
X12938991Y-15174735D01*
X13177087Y-15174735D02*
X13177087Y-14974735D01*
X13262801Y-15174735D02*
X13262801Y-15069973D01*
X13262801Y-15069973D02*
X13253277Y-15050925D01*
X13253277Y-15050925D02*
X13234230Y-15041401D01*
X13234230Y-15041401D02*
X13205658Y-15041401D01*
X13205658Y-15041401D02*
X13186610Y-15050925D01*
X13186610Y-15050925D02*
X13177087Y-15060449D01*
X13386610Y-15174735D02*
X13367563Y-15165211D01*
X13367563Y-15165211D02*
X13358039Y-15155687D01*
X13358039Y-15155687D02*
X13348515Y-15136639D01*
X13348515Y-15136639D02*
X13348515Y-15079497D01*
X13348515Y-15079497D02*
X13358039Y-15060449D01*
X13358039Y-15060449D02*
X13367563Y-15050925D01*
X13367563Y-15050925D02*
X13386610Y-15041401D01*
X13386610Y-15041401D02*
X13415182Y-15041401D01*
X13415182Y-15041401D02*
X13434230Y-15050925D01*
X13434230Y-15050925D02*
X13443753Y-15060449D01*
X13443753Y-15060449D02*
X13453277Y-15079497D01*
X13453277Y-15079497D02*
X13453277Y-15136639D01*
X13453277Y-15136639D02*
X13443753Y-15155687D01*
X13443753Y-15155687D02*
X13434230Y-15165211D01*
X13434230Y-15165211D02*
X13415182Y-15174735D01*
X13415182Y-15174735D02*
X13386610Y-15174735D01*
X13567563Y-15174735D02*
X13548515Y-15165211D01*
X13548515Y-15165211D02*
X13538991Y-15146163D01*
X13538991Y-15146163D02*
X13538991Y-14974735D01*
X13719944Y-15165211D02*
X13700896Y-15174735D01*
X13700896Y-15174735D02*
X13662801Y-15174735D01*
X13662801Y-15174735D02*
X13643753Y-15165211D01*
X13643753Y-15165211D02*
X13634230Y-15146163D01*
X13634230Y-15146163D02*
X13634230Y-15069973D01*
X13634230Y-15069973D02*
X13643753Y-15050925D01*
X13643753Y-15050925D02*
X13662801Y-15041401D01*
X13662801Y-15041401D02*
X13700896Y-15041401D01*
X13700896Y-15041401D02*
X13719944Y-15050925D01*
X13719944Y-15050925D02*
X13729468Y-15069973D01*
X13729468Y-15069973D02*
X13729468Y-15089020D01*
X13729468Y-15089020D02*
X13634230Y-15108068D01*
X13805658Y-15165211D02*
X13824706Y-15174735D01*
X13824706Y-15174735D02*
X13862801Y-15174735D01*
X13862801Y-15174735D02*
X13881849Y-15165211D01*
X13881849Y-15165211D02*
X13891372Y-15146163D01*
X13891372Y-15146163D02*
X13891372Y-15136639D01*
X13891372Y-15136639D02*
X13881849Y-15117592D01*
X13881849Y-15117592D02*
X13862801Y-15108068D01*
X13862801Y-15108068D02*
X13834230Y-15108068D01*
X13834230Y-15108068D02*
X13815182Y-15098544D01*
X13815182Y-15098544D02*
X13805658Y-15079497D01*
X13805658Y-15079497D02*
X13805658Y-15069973D01*
X13805658Y-15069973D02*
X13815182Y-15050925D01*
X13815182Y-15050925D02*
X13834230Y-15041401D01*
X13834230Y-15041401D02*
X13862801Y-15041401D01*
X13862801Y-15041401D02*
X13881849Y-15050925D01*
X13958039Y-15250925D02*
X13967563Y-15241401D01*
X13967563Y-15241401D02*
X13986611Y-15212830D01*
X13986611Y-15212830D02*
X13996134Y-15193782D01*
X13996134Y-15193782D02*
X14005658Y-15165211D01*
X14005658Y-15165211D02*
X14015182Y-15117592D01*
X14015182Y-15117592D02*
X14015182Y-15079497D01*
X14015182Y-15079497D02*
X14005658Y-15031878D01*
X14005658Y-15031878D02*
X13996134Y-15003306D01*
X13996134Y-15003306D02*
X13986611Y-14984259D01*
X13986611Y-14984259D02*
X13967563Y-14955687D01*
X13967563Y-14955687D02*
X13958039Y-14946163D01*
X14319944Y-15250925D02*
X14310420Y-15241401D01*
X14310420Y-15241401D02*
X14291372Y-15212830D01*
X14291372Y-15212830D02*
X14281849Y-15193782D01*
X14281849Y-15193782D02*
X14272325Y-15165211D01*
X14272325Y-15165211D02*
X14262801Y-15117592D01*
X14262801Y-15117592D02*
X14262801Y-15079497D01*
X14262801Y-15079497D02*
X14272325Y-15031878D01*
X14272325Y-15031878D02*
X14281849Y-15003306D01*
X14281849Y-15003306D02*
X14291372Y-14984259D01*
X14291372Y-14984259D02*
X14310420Y-14955687D01*
X14310420Y-14955687D02*
X14319944Y-14946163D01*
X14396134Y-15041401D02*
X14396134Y-15174735D01*
X14396134Y-15060449D02*
X14405658Y-15050925D01*
X14405658Y-15050925D02*
X14424706Y-15041401D01*
X14424706Y-15041401D02*
X14453277Y-15041401D01*
X14453277Y-15041401D02*
X14472325Y-15050925D01*
X14472325Y-15050925D02*
X14481849Y-15069973D01*
X14481849Y-15069973D02*
X14481849Y-15174735D01*
X14605658Y-15174735D02*
X14586611Y-15165211D01*
X14586611Y-15165211D02*
X14577087Y-15155687D01*
X14577087Y-15155687D02*
X14567563Y-15136639D01*
X14567563Y-15136639D02*
X14567563Y-15079497D01*
X14567563Y-15079497D02*
X14577087Y-15060449D01*
X14577087Y-15060449D02*
X14586611Y-15050925D01*
X14586611Y-15050925D02*
X14605658Y-15041401D01*
X14605658Y-15041401D02*
X14634230Y-15041401D01*
X14634230Y-15041401D02*
X14653277Y-15050925D01*
X14653277Y-15050925D02*
X14662801Y-15060449D01*
X14662801Y-15060449D02*
X14672325Y-15079497D01*
X14672325Y-15079497D02*
X14672325Y-15136639D01*
X14672325Y-15136639D02*
X14662801Y-15155687D01*
X14662801Y-15155687D02*
X14653277Y-15165211D01*
X14653277Y-15165211D02*
X14634230Y-15174735D01*
X14634230Y-15174735D02*
X14605658Y-15174735D01*
X14729468Y-15041401D02*
X14805658Y-15041401D01*
X14758039Y-14974735D02*
X14758039Y-15146163D01*
X14758039Y-15146163D02*
X14767563Y-15165211D01*
X14767563Y-15165211D02*
X14786611Y-15174735D01*
X14786611Y-15174735D02*
X14805658Y-15174735D01*
X15024706Y-15041401D02*
X15024706Y-15241401D01*
X15024706Y-15050925D02*
X15043753Y-15041401D01*
X15043753Y-15041401D02*
X15081849Y-15041401D01*
X15081849Y-15041401D02*
X15100896Y-15050925D01*
X15100896Y-15050925D02*
X15110420Y-15060449D01*
X15110420Y-15060449D02*
X15119944Y-15079497D01*
X15119944Y-15079497D02*
X15119944Y-15136639D01*
X15119944Y-15136639D02*
X15110420Y-15155687D01*
X15110420Y-15155687D02*
X15100896Y-15165211D01*
X15100896Y-15165211D02*
X15081849Y-15174735D01*
X15081849Y-15174735D02*
X15043753Y-15174735D01*
X15043753Y-15174735D02*
X15024706Y-15165211D01*
X15234230Y-15174735D02*
X15215182Y-15165211D01*
X15215182Y-15165211D02*
X15205658Y-15146163D01*
X15205658Y-15146163D02*
X15205658Y-14974735D01*
X15396134Y-15174735D02*
X15396134Y-15069973D01*
X15396134Y-15069973D02*
X15386611Y-15050925D01*
X15386611Y-15050925D02*
X15367563Y-15041401D01*
X15367563Y-15041401D02*
X15329468Y-15041401D01*
X15329468Y-15041401D02*
X15310420Y-15050925D01*
X15396134Y-15165211D02*
X15377087Y-15174735D01*
X15377087Y-15174735D02*
X15329468Y-15174735D01*
X15329468Y-15174735D02*
X15310420Y-15165211D01*
X15310420Y-15165211D02*
X15300896Y-15146163D01*
X15300896Y-15146163D02*
X15300896Y-15127116D01*
X15300896Y-15127116D02*
X15310420Y-15108068D01*
X15310420Y-15108068D02*
X15329468Y-15098544D01*
X15329468Y-15098544D02*
X15377087Y-15098544D01*
X15377087Y-15098544D02*
X15396134Y-15089020D01*
X15462801Y-15041401D02*
X15538992Y-15041401D01*
X15491373Y-14974735D02*
X15491373Y-15146163D01*
X15491373Y-15146163D02*
X15500896Y-15165211D01*
X15500896Y-15165211D02*
X15519944Y-15174735D01*
X15519944Y-15174735D02*
X15538992Y-15174735D01*
X15681849Y-15165211D02*
X15662801Y-15174735D01*
X15662801Y-15174735D02*
X15624706Y-15174735D01*
X15624706Y-15174735D02*
X15605658Y-15165211D01*
X15605658Y-15165211D02*
X15596134Y-15146163D01*
X15596134Y-15146163D02*
X15596134Y-15069973D01*
X15596134Y-15069973D02*
X15605658Y-15050925D01*
X15605658Y-15050925D02*
X15624706Y-15041401D01*
X15624706Y-15041401D02*
X15662801Y-15041401D01*
X15662801Y-15041401D02*
X15681849Y-15050925D01*
X15681849Y-15050925D02*
X15691373Y-15069973D01*
X15691373Y-15069973D02*
X15691373Y-15089020D01*
X15691373Y-15089020D02*
X15596134Y-15108068D01*
X15862801Y-15174735D02*
X15862801Y-14974735D01*
X15862801Y-15165211D02*
X15843754Y-15174735D01*
X15843754Y-15174735D02*
X15805658Y-15174735D01*
X15805658Y-15174735D02*
X15786611Y-15165211D01*
X15786611Y-15165211D02*
X15777087Y-15155687D01*
X15777087Y-15155687D02*
X15767563Y-15136639D01*
X15767563Y-15136639D02*
X15767563Y-15079497D01*
X15767563Y-15079497D02*
X15777087Y-15060449D01*
X15777087Y-15060449D02*
X15786611Y-15050925D01*
X15786611Y-15050925D02*
X15805658Y-15041401D01*
X15805658Y-15041401D02*
X15843754Y-15041401D01*
X15843754Y-15041401D02*
X15862801Y-15050925D01*
X15938992Y-15250925D02*
X15948515Y-15241401D01*
X15948515Y-15241401D02*
X15967563Y-15212830D01*
X15967563Y-15212830D02*
X15977087Y-15193782D01*
X15977087Y-15193782D02*
X15986611Y-15165211D01*
X15986611Y-15165211D02*
X15996134Y-15117592D01*
X15996134Y-15117592D02*
X15996134Y-15079497D01*
X15996134Y-15079497D02*
X15986611Y-15031878D01*
X15986611Y-15031878D02*
X15977087Y-15003306D01*
X15977087Y-15003306D02*
X15967563Y-14984259D01*
X15967563Y-14984259D02*
X15948515Y-14955687D01*
X15948515Y-14955687D02*
X15938992Y-14946163D01*
X8892500Y-15293251D02*
X8892500Y-15493251D01*
X8792500Y-15393251D02*
X8992500Y-15393251D01*
X9243753Y-15303782D02*
X9253277Y-15294259D01*
X9253277Y-15294259D02*
X9272324Y-15284735D01*
X9272324Y-15284735D02*
X9319944Y-15284735D01*
X9319944Y-15284735D02*
X9338991Y-15294259D01*
X9338991Y-15294259D02*
X9348515Y-15303782D01*
X9348515Y-15303782D02*
X9358039Y-15322830D01*
X9358039Y-15322830D02*
X9358039Y-15341878D01*
X9358039Y-15341878D02*
X9348515Y-15370449D01*
X9348515Y-15370449D02*
X9234229Y-15484735D01*
X9234229Y-15484735D02*
X9358039Y-15484735D01*
X9443753Y-15465687D02*
X9453277Y-15475211D01*
X9453277Y-15475211D02*
X9443753Y-15484735D01*
X9443753Y-15484735D02*
X9434229Y-15475211D01*
X9434229Y-15475211D02*
X9443753Y-15465687D01*
X9443753Y-15465687D02*
X9443753Y-15484735D01*
X9529467Y-15303782D02*
X9538991Y-15294259D01*
X9538991Y-15294259D02*
X9558039Y-15284735D01*
X9558039Y-15284735D02*
X9605658Y-15284735D01*
X9605658Y-15284735D02*
X9624705Y-15294259D01*
X9624705Y-15294259D02*
X9634229Y-15303782D01*
X9634229Y-15303782D02*
X9643753Y-15322830D01*
X9643753Y-15322830D02*
X9643753Y-15341878D01*
X9643753Y-15341878D02*
X9634229Y-15370449D01*
X9634229Y-15370449D02*
X9519944Y-15484735D01*
X9519944Y-15484735D02*
X9643753Y-15484735D01*
X9767563Y-15284735D02*
X9786610Y-15284735D01*
X9786610Y-15284735D02*
X9805658Y-15294259D01*
X9805658Y-15294259D02*
X9815182Y-15303782D01*
X9815182Y-15303782D02*
X9824705Y-15322830D01*
X9824705Y-15322830D02*
X9834229Y-15360925D01*
X9834229Y-15360925D02*
X9834229Y-15408544D01*
X9834229Y-15408544D02*
X9824705Y-15446639D01*
X9824705Y-15446639D02*
X9815182Y-15465687D01*
X9815182Y-15465687D02*
X9805658Y-15475211D01*
X9805658Y-15475211D02*
X9786610Y-15484735D01*
X9786610Y-15484735D02*
X9767563Y-15484735D01*
X9767563Y-15484735D02*
X9748515Y-15475211D01*
X9748515Y-15475211D02*
X9738991Y-15465687D01*
X9738991Y-15465687D02*
X9729467Y-15446639D01*
X9729467Y-15446639D02*
X9719944Y-15408544D01*
X9719944Y-15408544D02*
X9719944Y-15360925D01*
X9719944Y-15360925D02*
X9729467Y-15322830D01*
X9729467Y-15322830D02*
X9738991Y-15303782D01*
X9738991Y-15303782D02*
X9748515Y-15294259D01*
X9748515Y-15294259D02*
X9767563Y-15284735D01*
X9958039Y-15284735D02*
X9977086Y-15284735D01*
X9977086Y-15284735D02*
X9996134Y-15294259D01*
X9996134Y-15294259D02*
X10005658Y-15303782D01*
X10005658Y-15303782D02*
X10015182Y-15322830D01*
X10015182Y-15322830D02*
X10024705Y-15360925D01*
X10024705Y-15360925D02*
X10024705Y-15408544D01*
X10024705Y-15408544D02*
X10015182Y-15446639D01*
X10015182Y-15446639D02*
X10005658Y-15465687D01*
X10005658Y-15465687D02*
X9996134Y-15475211D01*
X9996134Y-15475211D02*
X9977086Y-15484735D01*
X9977086Y-15484735D02*
X9958039Y-15484735D01*
X9958039Y-15484735D02*
X9938991Y-15475211D01*
X9938991Y-15475211D02*
X9929467Y-15465687D01*
X9929467Y-15465687D02*
X9919944Y-15446639D01*
X9919944Y-15446639D02*
X9910420Y-15408544D01*
X9910420Y-15408544D02*
X9910420Y-15360925D01*
X9910420Y-15360925D02*
X9919944Y-15322830D01*
X9919944Y-15322830D02*
X9929467Y-15303782D01*
X9929467Y-15303782D02*
X9938991Y-15294259D01*
X9938991Y-15294259D02*
X9958039Y-15284735D01*
X10110420Y-15484735D02*
X10110420Y-15351401D01*
X10110420Y-15370449D02*
X10119944Y-15360925D01*
X10119944Y-15360925D02*
X10138991Y-15351401D01*
X10138991Y-15351401D02*
X10167563Y-15351401D01*
X10167563Y-15351401D02*
X10186610Y-15360925D01*
X10186610Y-15360925D02*
X10196134Y-15379973D01*
X10196134Y-15379973D02*
X10196134Y-15484735D01*
X10196134Y-15379973D02*
X10205658Y-15360925D01*
X10205658Y-15360925D02*
X10224705Y-15351401D01*
X10224705Y-15351401D02*
X10253277Y-15351401D01*
X10253277Y-15351401D02*
X10272325Y-15360925D01*
X10272325Y-15360925D02*
X10281848Y-15379973D01*
X10281848Y-15379973D02*
X10281848Y-15484735D01*
X10377086Y-15484735D02*
X10377086Y-15351401D01*
X10377086Y-15370449D02*
X10386610Y-15360925D01*
X10386610Y-15360925D02*
X10405658Y-15351401D01*
X10405658Y-15351401D02*
X10434229Y-15351401D01*
X10434229Y-15351401D02*
X10453277Y-15360925D01*
X10453277Y-15360925D02*
X10462801Y-15379973D01*
X10462801Y-15379973D02*
X10462801Y-15484735D01*
X10462801Y-15379973D02*
X10472325Y-15360925D01*
X10472325Y-15360925D02*
X10491372Y-15351401D01*
X10491372Y-15351401D02*
X10519944Y-15351401D01*
X10519944Y-15351401D02*
X10538991Y-15360925D01*
X10538991Y-15360925D02*
X10548515Y-15379973D01*
X10548515Y-15379973D02*
X10548515Y-15484735D01*
X10938991Y-15275211D02*
X10767563Y-15532354D01*
X11196134Y-15284735D02*
X11215182Y-15284735D01*
X11215182Y-15284735D02*
X11234229Y-15294259D01*
X11234229Y-15294259D02*
X11243753Y-15303782D01*
X11243753Y-15303782D02*
X11253277Y-15322830D01*
X11253277Y-15322830D02*
X11262801Y-15360925D01*
X11262801Y-15360925D02*
X11262801Y-15408544D01*
X11262801Y-15408544D02*
X11253277Y-15446639D01*
X11253277Y-15446639D02*
X11243753Y-15465687D01*
X11243753Y-15465687D02*
X11234229Y-15475211D01*
X11234229Y-15475211D02*
X11215182Y-15484735D01*
X11215182Y-15484735D02*
X11196134Y-15484735D01*
X11196134Y-15484735D02*
X11177087Y-15475211D01*
X11177087Y-15475211D02*
X11167563Y-15465687D01*
X11167563Y-15465687D02*
X11158039Y-15446639D01*
X11158039Y-15446639D02*
X11148515Y-15408544D01*
X11148515Y-15408544D02*
X11148515Y-15360925D01*
X11148515Y-15360925D02*
X11158039Y-15322830D01*
X11158039Y-15322830D02*
X11167563Y-15303782D01*
X11167563Y-15303782D02*
X11177087Y-15294259D01*
X11177087Y-15294259D02*
X11196134Y-15284735D01*
X11348515Y-15465687D02*
X11358039Y-15475211D01*
X11358039Y-15475211D02*
X11348515Y-15484735D01*
X11348515Y-15484735D02*
X11338991Y-15475211D01*
X11338991Y-15475211D02*
X11348515Y-15465687D01*
X11348515Y-15465687D02*
X11348515Y-15484735D01*
X11481848Y-15284735D02*
X11500896Y-15284735D01*
X11500896Y-15284735D02*
X11519944Y-15294259D01*
X11519944Y-15294259D02*
X11529467Y-15303782D01*
X11529467Y-15303782D02*
X11538991Y-15322830D01*
X11538991Y-15322830D02*
X11548515Y-15360925D01*
X11548515Y-15360925D02*
X11548515Y-15408544D01*
X11548515Y-15408544D02*
X11538991Y-15446639D01*
X11538991Y-15446639D02*
X11529467Y-15465687D01*
X11529467Y-15465687D02*
X11519944Y-15475211D01*
X11519944Y-15475211D02*
X11500896Y-15484735D01*
X11500896Y-15484735D02*
X11481848Y-15484735D01*
X11481848Y-15484735D02*
X11462801Y-15475211D01*
X11462801Y-15475211D02*
X11453277Y-15465687D01*
X11453277Y-15465687D02*
X11443753Y-15446639D01*
X11443753Y-15446639D02*
X11434229Y-15408544D01*
X11434229Y-15408544D02*
X11434229Y-15360925D01*
X11434229Y-15360925D02*
X11443753Y-15322830D01*
X11443753Y-15322830D02*
X11453277Y-15303782D01*
X11453277Y-15303782D02*
X11462801Y-15294259D01*
X11462801Y-15294259D02*
X11481848Y-15284735D01*
X11662801Y-15370449D02*
X11643753Y-15360925D01*
X11643753Y-15360925D02*
X11634229Y-15351401D01*
X11634229Y-15351401D02*
X11624706Y-15332354D01*
X11624706Y-15332354D02*
X11624706Y-15322830D01*
X11624706Y-15322830D02*
X11634229Y-15303782D01*
X11634229Y-15303782D02*
X11643753Y-15294259D01*
X11643753Y-15294259D02*
X11662801Y-15284735D01*
X11662801Y-15284735D02*
X11700896Y-15284735D01*
X11700896Y-15284735D02*
X11719944Y-15294259D01*
X11719944Y-15294259D02*
X11729467Y-15303782D01*
X11729467Y-15303782D02*
X11738991Y-15322830D01*
X11738991Y-15322830D02*
X11738991Y-15332354D01*
X11738991Y-15332354D02*
X11729467Y-15351401D01*
X11729467Y-15351401D02*
X11719944Y-15360925D01*
X11719944Y-15360925D02*
X11700896Y-15370449D01*
X11700896Y-15370449D02*
X11662801Y-15370449D01*
X11662801Y-15370449D02*
X11643753Y-15379973D01*
X11643753Y-15379973D02*
X11634229Y-15389497D01*
X11634229Y-15389497D02*
X11624706Y-15408544D01*
X11624706Y-15408544D02*
X11624706Y-15446639D01*
X11624706Y-15446639D02*
X11634229Y-15465687D01*
X11634229Y-15465687D02*
X11643753Y-15475211D01*
X11643753Y-15475211D02*
X11662801Y-15484735D01*
X11662801Y-15484735D02*
X11700896Y-15484735D01*
X11700896Y-15484735D02*
X11719944Y-15475211D01*
X11719944Y-15475211D02*
X11729467Y-15465687D01*
X11729467Y-15465687D02*
X11738991Y-15446639D01*
X11738991Y-15446639D02*
X11738991Y-15408544D01*
X11738991Y-15408544D02*
X11729467Y-15389497D01*
X11729467Y-15389497D02*
X11719944Y-15379973D01*
X11719944Y-15379973D02*
X11700896Y-15370449D01*
X11910420Y-15284735D02*
X11872325Y-15284735D01*
X11872325Y-15284735D02*
X11853277Y-15294259D01*
X11853277Y-15294259D02*
X11843753Y-15303782D01*
X11843753Y-15303782D02*
X11824706Y-15332354D01*
X11824706Y-15332354D02*
X11815182Y-15370449D01*
X11815182Y-15370449D02*
X11815182Y-15446639D01*
X11815182Y-15446639D02*
X11824706Y-15465687D01*
X11824706Y-15465687D02*
X11834229Y-15475211D01*
X11834229Y-15475211D02*
X11853277Y-15484735D01*
X11853277Y-15484735D02*
X11891372Y-15484735D01*
X11891372Y-15484735D02*
X11910420Y-15475211D01*
X11910420Y-15475211D02*
X11919944Y-15465687D01*
X11919944Y-15465687D02*
X11929467Y-15446639D01*
X11929467Y-15446639D02*
X11929467Y-15399020D01*
X11929467Y-15399020D02*
X11919944Y-15379973D01*
X11919944Y-15379973D02*
X11910420Y-15370449D01*
X11910420Y-15370449D02*
X11891372Y-15360925D01*
X11891372Y-15360925D02*
X11853277Y-15360925D01*
X11853277Y-15360925D02*
X11834229Y-15370449D01*
X11834229Y-15370449D02*
X11824706Y-15379973D01*
X11824706Y-15379973D02*
X11815182Y-15399020D01*
X12100896Y-15284735D02*
X12062801Y-15284735D01*
X12062801Y-15284735D02*
X12043753Y-15294259D01*
X12043753Y-15294259D02*
X12034229Y-15303782D01*
X12034229Y-15303782D02*
X12015182Y-15332354D01*
X12015182Y-15332354D02*
X12005658Y-15370449D01*
X12005658Y-15370449D02*
X12005658Y-15446639D01*
X12005658Y-15446639D02*
X12015182Y-15465687D01*
X12015182Y-15465687D02*
X12024706Y-15475211D01*
X12024706Y-15475211D02*
X12043753Y-15484735D01*
X12043753Y-15484735D02*
X12081848Y-15484735D01*
X12081848Y-15484735D02*
X12100896Y-15475211D01*
X12100896Y-15475211D02*
X12110420Y-15465687D01*
X12110420Y-15465687D02*
X12119944Y-15446639D01*
X12119944Y-15446639D02*
X12119944Y-15399020D01*
X12119944Y-15399020D02*
X12110420Y-15379973D01*
X12110420Y-15379973D02*
X12100896Y-15370449D01*
X12100896Y-15370449D02*
X12081848Y-15360925D01*
X12081848Y-15360925D02*
X12043753Y-15360925D01*
X12043753Y-15360925D02*
X12024706Y-15370449D01*
X12024706Y-15370449D02*
X12015182Y-15379973D01*
X12015182Y-15379973D02*
X12005658Y-15399020D01*
X12196134Y-15284735D02*
X12196134Y-15322830D01*
X12272325Y-15284735D02*
X12272325Y-15322830D01*
X12567563Y-15560925D02*
X12558039Y-15551401D01*
X12558039Y-15551401D02*
X12538991Y-15522830D01*
X12538991Y-15522830D02*
X12529468Y-15503782D01*
X12529468Y-15503782D02*
X12519944Y-15475211D01*
X12519944Y-15475211D02*
X12510420Y-15427592D01*
X12510420Y-15427592D02*
X12510420Y-15389497D01*
X12510420Y-15389497D02*
X12519944Y-15341878D01*
X12519944Y-15341878D02*
X12529468Y-15313306D01*
X12529468Y-15313306D02*
X12538991Y-15294259D01*
X12538991Y-15294259D02*
X12558039Y-15265687D01*
X12558039Y-15265687D02*
X12567563Y-15256163D01*
X12634229Y-15303782D02*
X12643753Y-15294259D01*
X12643753Y-15294259D02*
X12662801Y-15284735D01*
X12662801Y-15284735D02*
X12710420Y-15284735D01*
X12710420Y-15284735D02*
X12729468Y-15294259D01*
X12729468Y-15294259D02*
X12738991Y-15303782D01*
X12738991Y-15303782D02*
X12748515Y-15322830D01*
X12748515Y-15322830D02*
X12748515Y-15341878D01*
X12748515Y-15341878D02*
X12738991Y-15370449D01*
X12738991Y-15370449D02*
X12624706Y-15484735D01*
X12624706Y-15484735D02*
X12748515Y-15484735D01*
X12986610Y-15484735D02*
X12986610Y-15284735D01*
X13072325Y-15484735D02*
X13072325Y-15379973D01*
X13072325Y-15379973D02*
X13062801Y-15360925D01*
X13062801Y-15360925D02*
X13043753Y-15351401D01*
X13043753Y-15351401D02*
X13015182Y-15351401D01*
X13015182Y-15351401D02*
X12996134Y-15360925D01*
X12996134Y-15360925D02*
X12986610Y-15370449D01*
X13196134Y-15484735D02*
X13177087Y-15475211D01*
X13177087Y-15475211D02*
X13167563Y-15465687D01*
X13167563Y-15465687D02*
X13158039Y-15446639D01*
X13158039Y-15446639D02*
X13158039Y-15389497D01*
X13158039Y-15389497D02*
X13167563Y-15370449D01*
X13167563Y-15370449D02*
X13177087Y-15360925D01*
X13177087Y-15360925D02*
X13196134Y-15351401D01*
X13196134Y-15351401D02*
X13224706Y-15351401D01*
X13224706Y-15351401D02*
X13243753Y-15360925D01*
X13243753Y-15360925D02*
X13253277Y-15370449D01*
X13253277Y-15370449D02*
X13262801Y-15389497D01*
X13262801Y-15389497D02*
X13262801Y-15446639D01*
X13262801Y-15446639D02*
X13253277Y-15465687D01*
X13253277Y-15465687D02*
X13243753Y-15475211D01*
X13243753Y-15475211D02*
X13224706Y-15484735D01*
X13224706Y-15484735D02*
X13196134Y-15484735D01*
X13377087Y-15484735D02*
X13358039Y-15475211D01*
X13358039Y-15475211D02*
X13348515Y-15456163D01*
X13348515Y-15456163D02*
X13348515Y-15284735D01*
X13529468Y-15475211D02*
X13510420Y-15484735D01*
X13510420Y-15484735D02*
X13472325Y-15484735D01*
X13472325Y-15484735D02*
X13453277Y-15475211D01*
X13453277Y-15475211D02*
X13443753Y-15456163D01*
X13443753Y-15456163D02*
X13443753Y-15379973D01*
X13443753Y-15379973D02*
X13453277Y-15360925D01*
X13453277Y-15360925D02*
X13472325Y-15351401D01*
X13472325Y-15351401D02*
X13510420Y-15351401D01*
X13510420Y-15351401D02*
X13529468Y-15360925D01*
X13529468Y-15360925D02*
X13538991Y-15379973D01*
X13538991Y-15379973D02*
X13538991Y-15399020D01*
X13538991Y-15399020D02*
X13443753Y-15418068D01*
X13615182Y-15475211D02*
X13634230Y-15484735D01*
X13634230Y-15484735D02*
X13672325Y-15484735D01*
X13672325Y-15484735D02*
X13691372Y-15475211D01*
X13691372Y-15475211D02*
X13700896Y-15456163D01*
X13700896Y-15456163D02*
X13700896Y-15446639D01*
X13700896Y-15446639D02*
X13691372Y-15427592D01*
X13691372Y-15427592D02*
X13672325Y-15418068D01*
X13672325Y-15418068D02*
X13643753Y-15418068D01*
X13643753Y-15418068D02*
X13624706Y-15408544D01*
X13624706Y-15408544D02*
X13615182Y-15389497D01*
X13615182Y-15389497D02*
X13615182Y-15379973D01*
X13615182Y-15379973D02*
X13624706Y-15360925D01*
X13624706Y-15360925D02*
X13643753Y-15351401D01*
X13643753Y-15351401D02*
X13672325Y-15351401D01*
X13672325Y-15351401D02*
X13691372Y-15360925D01*
X13767563Y-15560925D02*
X13777087Y-15551401D01*
X13777087Y-15551401D02*
X13796134Y-15522830D01*
X13796134Y-15522830D02*
X13805658Y-15503782D01*
X13805658Y-15503782D02*
X13815182Y-15475211D01*
X13815182Y-15475211D02*
X13824706Y-15427592D01*
X13824706Y-15427592D02*
X13824706Y-15389497D01*
X13824706Y-15389497D02*
X13815182Y-15341878D01*
X13815182Y-15341878D02*
X13805658Y-15313306D01*
X13805658Y-15313306D02*
X13796134Y-15294259D01*
X13796134Y-15294259D02*
X13777087Y-15265687D01*
X13777087Y-15265687D02*
X13767563Y-15256163D01*
X14129468Y-15560925D02*
X14119944Y-15551401D01*
X14119944Y-15551401D02*
X14100896Y-15522830D01*
X14100896Y-15522830D02*
X14091372Y-15503782D01*
X14091372Y-15503782D02*
X14081849Y-15475211D01*
X14081849Y-15475211D02*
X14072325Y-15427592D01*
X14072325Y-15427592D02*
X14072325Y-15389497D01*
X14072325Y-15389497D02*
X14081849Y-15341878D01*
X14081849Y-15341878D02*
X14091372Y-15313306D01*
X14091372Y-15313306D02*
X14100896Y-15294259D01*
X14100896Y-15294259D02*
X14119944Y-15265687D01*
X14119944Y-15265687D02*
X14129468Y-15256163D01*
X14205658Y-15351401D02*
X14205658Y-15484735D01*
X14205658Y-15370449D02*
X14215182Y-15360925D01*
X14215182Y-15360925D02*
X14234230Y-15351401D01*
X14234230Y-15351401D02*
X14262801Y-15351401D01*
X14262801Y-15351401D02*
X14281849Y-15360925D01*
X14281849Y-15360925D02*
X14291372Y-15379973D01*
X14291372Y-15379973D02*
X14291372Y-15484735D01*
X14415182Y-15484735D02*
X14396134Y-15475211D01*
X14396134Y-15475211D02*
X14386611Y-15465687D01*
X14386611Y-15465687D02*
X14377087Y-15446639D01*
X14377087Y-15446639D02*
X14377087Y-15389497D01*
X14377087Y-15389497D02*
X14386611Y-15370449D01*
X14386611Y-15370449D02*
X14396134Y-15360925D01*
X14396134Y-15360925D02*
X14415182Y-15351401D01*
X14415182Y-15351401D02*
X14443753Y-15351401D01*
X14443753Y-15351401D02*
X14462801Y-15360925D01*
X14462801Y-15360925D02*
X14472325Y-15370449D01*
X14472325Y-15370449D02*
X14481849Y-15389497D01*
X14481849Y-15389497D02*
X14481849Y-15446639D01*
X14481849Y-15446639D02*
X14472325Y-15465687D01*
X14472325Y-15465687D02*
X14462801Y-15475211D01*
X14462801Y-15475211D02*
X14443753Y-15484735D01*
X14443753Y-15484735D02*
X14415182Y-15484735D01*
X14538992Y-15351401D02*
X14615182Y-15351401D01*
X14567563Y-15284735D02*
X14567563Y-15456163D01*
X14567563Y-15456163D02*
X14577087Y-15475211D01*
X14577087Y-15475211D02*
X14596134Y-15484735D01*
X14596134Y-15484735D02*
X14615182Y-15484735D01*
X14834230Y-15351401D02*
X14834230Y-15551401D01*
X14834230Y-15360925D02*
X14853277Y-15351401D01*
X14853277Y-15351401D02*
X14891373Y-15351401D01*
X14891373Y-15351401D02*
X14910420Y-15360925D01*
X14910420Y-15360925D02*
X14919944Y-15370449D01*
X14919944Y-15370449D02*
X14929468Y-15389497D01*
X14929468Y-15389497D02*
X14929468Y-15446639D01*
X14929468Y-15446639D02*
X14919944Y-15465687D01*
X14919944Y-15465687D02*
X14910420Y-15475211D01*
X14910420Y-15475211D02*
X14891373Y-15484735D01*
X14891373Y-15484735D02*
X14853277Y-15484735D01*
X14853277Y-15484735D02*
X14834230Y-15475211D01*
X15043753Y-15484735D02*
X15024706Y-15475211D01*
X15024706Y-15475211D02*
X15015182Y-15456163D01*
X15015182Y-15456163D02*
X15015182Y-15284735D01*
X15205658Y-15484735D02*
X15205658Y-15379973D01*
X15205658Y-15379973D02*
X15196134Y-15360925D01*
X15196134Y-15360925D02*
X15177087Y-15351401D01*
X15177087Y-15351401D02*
X15138992Y-15351401D01*
X15138992Y-15351401D02*
X15119944Y-15360925D01*
X15205658Y-15475211D02*
X15186611Y-15484735D01*
X15186611Y-15484735D02*
X15138992Y-15484735D01*
X15138992Y-15484735D02*
X15119944Y-15475211D01*
X15119944Y-15475211D02*
X15110420Y-15456163D01*
X15110420Y-15456163D02*
X15110420Y-15437116D01*
X15110420Y-15437116D02*
X15119944Y-15418068D01*
X15119944Y-15418068D02*
X15138992Y-15408544D01*
X15138992Y-15408544D02*
X15186611Y-15408544D01*
X15186611Y-15408544D02*
X15205658Y-15399020D01*
X15272325Y-15351401D02*
X15348515Y-15351401D01*
X15300896Y-15284735D02*
X15300896Y-15456163D01*
X15300896Y-15456163D02*
X15310420Y-15475211D01*
X15310420Y-15475211D02*
X15329468Y-15484735D01*
X15329468Y-15484735D02*
X15348515Y-15484735D01*
X15491373Y-15475211D02*
X15472325Y-15484735D01*
X15472325Y-15484735D02*
X15434230Y-15484735D01*
X15434230Y-15484735D02*
X15415182Y-15475211D01*
X15415182Y-15475211D02*
X15405658Y-15456163D01*
X15405658Y-15456163D02*
X15405658Y-15379973D01*
X15405658Y-15379973D02*
X15415182Y-15360925D01*
X15415182Y-15360925D02*
X15434230Y-15351401D01*
X15434230Y-15351401D02*
X15472325Y-15351401D01*
X15472325Y-15351401D02*
X15491373Y-15360925D01*
X15491373Y-15360925D02*
X15500896Y-15379973D01*
X15500896Y-15379973D02*
X15500896Y-15399020D01*
X15500896Y-15399020D02*
X15405658Y-15418068D01*
X15672325Y-15484735D02*
X15672325Y-15284735D01*
X15672325Y-15475211D02*
X15653277Y-15484735D01*
X15653277Y-15484735D02*
X15615182Y-15484735D01*
X15615182Y-15484735D02*
X15596134Y-15475211D01*
X15596134Y-15475211D02*
X15586611Y-15465687D01*
X15586611Y-15465687D02*
X15577087Y-15446639D01*
X15577087Y-15446639D02*
X15577087Y-15389497D01*
X15577087Y-15389497D02*
X15586611Y-15370449D01*
X15586611Y-15370449D02*
X15596134Y-15360925D01*
X15596134Y-15360925D02*
X15615182Y-15351401D01*
X15615182Y-15351401D02*
X15653277Y-15351401D01*
X15653277Y-15351401D02*
X15672325Y-15360925D01*
X15748515Y-15560925D02*
X15758039Y-15551401D01*
X15758039Y-15551401D02*
X15777087Y-15522830D01*
X15777087Y-15522830D02*
X15786611Y-15503782D01*
X15786611Y-15503782D02*
X15796134Y-15475211D01*
X15796134Y-15475211D02*
X15805658Y-15427592D01*
X15805658Y-15427592D02*
X15805658Y-15389497D01*
X15805658Y-15389497D02*
X15796134Y-15341878D01*
X15796134Y-15341878D02*
X15786611Y-15313306D01*
X15786611Y-15313306D02*
X15777087Y-15294259D01*
X15777087Y-15294259D02*
X15758039Y-15265687D01*
X15758039Y-15265687D02*
X15748515Y-15256163D01*
X8963211Y-15783962D02*
X8963211Y-15642540D01*
X8821789Y-15642540D01*
X8821789Y-15783962D01*
X8963211Y-15783962D01*
X9234229Y-15604735D02*
X9358039Y-15604735D01*
X9358039Y-15604735D02*
X9291372Y-15680925D01*
X9291372Y-15680925D02*
X9319944Y-15680925D01*
X9319944Y-15680925D02*
X9338991Y-15690449D01*
X9338991Y-15690449D02*
X9348515Y-15699973D01*
X9348515Y-15699973D02*
X9358039Y-15719020D01*
X9358039Y-15719020D02*
X9358039Y-15766639D01*
X9358039Y-15766639D02*
X9348515Y-15785687D01*
X9348515Y-15785687D02*
X9338991Y-15795211D01*
X9338991Y-15795211D02*
X9319944Y-15804735D01*
X9319944Y-15804735D02*
X9262801Y-15804735D01*
X9262801Y-15804735D02*
X9243753Y-15795211D01*
X9243753Y-15795211D02*
X9234229Y-15785687D01*
X9443753Y-15785687D02*
X9453277Y-15795211D01*
X9453277Y-15795211D02*
X9443753Y-15804735D01*
X9443753Y-15804735D02*
X9434229Y-15795211D01*
X9434229Y-15795211D02*
X9443753Y-15785687D01*
X9443753Y-15785687D02*
X9443753Y-15804735D01*
X9577086Y-15604735D02*
X9596134Y-15604735D01*
X9596134Y-15604735D02*
X9615182Y-15614259D01*
X9615182Y-15614259D02*
X9624705Y-15623782D01*
X9624705Y-15623782D02*
X9634229Y-15642830D01*
X9634229Y-15642830D02*
X9643753Y-15680925D01*
X9643753Y-15680925D02*
X9643753Y-15728544D01*
X9643753Y-15728544D02*
X9634229Y-15766639D01*
X9634229Y-15766639D02*
X9624705Y-15785687D01*
X9624705Y-15785687D02*
X9615182Y-15795211D01*
X9615182Y-15795211D02*
X9596134Y-15804735D01*
X9596134Y-15804735D02*
X9577086Y-15804735D01*
X9577086Y-15804735D02*
X9558039Y-15795211D01*
X9558039Y-15795211D02*
X9548515Y-15785687D01*
X9548515Y-15785687D02*
X9538991Y-15766639D01*
X9538991Y-15766639D02*
X9529467Y-15728544D01*
X9529467Y-15728544D02*
X9529467Y-15680925D01*
X9529467Y-15680925D02*
X9538991Y-15642830D01*
X9538991Y-15642830D02*
X9548515Y-15623782D01*
X9548515Y-15623782D02*
X9558039Y-15614259D01*
X9558039Y-15614259D02*
X9577086Y-15604735D01*
X9767563Y-15604735D02*
X9786610Y-15604735D01*
X9786610Y-15604735D02*
X9805658Y-15614259D01*
X9805658Y-15614259D02*
X9815182Y-15623782D01*
X9815182Y-15623782D02*
X9824705Y-15642830D01*
X9824705Y-15642830D02*
X9834229Y-15680925D01*
X9834229Y-15680925D02*
X9834229Y-15728544D01*
X9834229Y-15728544D02*
X9824705Y-15766639D01*
X9824705Y-15766639D02*
X9815182Y-15785687D01*
X9815182Y-15785687D02*
X9805658Y-15795211D01*
X9805658Y-15795211D02*
X9786610Y-15804735D01*
X9786610Y-15804735D02*
X9767563Y-15804735D01*
X9767563Y-15804735D02*
X9748515Y-15795211D01*
X9748515Y-15795211D02*
X9738991Y-15785687D01*
X9738991Y-15785687D02*
X9729467Y-15766639D01*
X9729467Y-15766639D02*
X9719944Y-15728544D01*
X9719944Y-15728544D02*
X9719944Y-15680925D01*
X9719944Y-15680925D02*
X9729467Y-15642830D01*
X9729467Y-15642830D02*
X9738991Y-15623782D01*
X9738991Y-15623782D02*
X9748515Y-15614259D01*
X9748515Y-15614259D02*
X9767563Y-15604735D01*
X9958039Y-15604735D02*
X9977086Y-15604735D01*
X9977086Y-15604735D02*
X9996134Y-15614259D01*
X9996134Y-15614259D02*
X10005658Y-15623782D01*
X10005658Y-15623782D02*
X10015182Y-15642830D01*
X10015182Y-15642830D02*
X10024705Y-15680925D01*
X10024705Y-15680925D02*
X10024705Y-15728544D01*
X10024705Y-15728544D02*
X10015182Y-15766639D01*
X10015182Y-15766639D02*
X10005658Y-15785687D01*
X10005658Y-15785687D02*
X9996134Y-15795211D01*
X9996134Y-15795211D02*
X9977086Y-15804735D01*
X9977086Y-15804735D02*
X9958039Y-15804735D01*
X9958039Y-15804735D02*
X9938991Y-15795211D01*
X9938991Y-15795211D02*
X9929467Y-15785687D01*
X9929467Y-15785687D02*
X9919944Y-15766639D01*
X9919944Y-15766639D02*
X9910420Y-15728544D01*
X9910420Y-15728544D02*
X9910420Y-15680925D01*
X9910420Y-15680925D02*
X9919944Y-15642830D01*
X9919944Y-15642830D02*
X9929467Y-15623782D01*
X9929467Y-15623782D02*
X9938991Y-15614259D01*
X9938991Y-15614259D02*
X9958039Y-15604735D01*
X10110420Y-15804735D02*
X10110420Y-15671401D01*
X10110420Y-15690449D02*
X10119944Y-15680925D01*
X10119944Y-15680925D02*
X10138991Y-15671401D01*
X10138991Y-15671401D02*
X10167563Y-15671401D01*
X10167563Y-15671401D02*
X10186610Y-15680925D01*
X10186610Y-15680925D02*
X10196134Y-15699973D01*
X10196134Y-15699973D02*
X10196134Y-15804735D01*
X10196134Y-15699973D02*
X10205658Y-15680925D01*
X10205658Y-15680925D02*
X10224705Y-15671401D01*
X10224705Y-15671401D02*
X10253277Y-15671401D01*
X10253277Y-15671401D02*
X10272325Y-15680925D01*
X10272325Y-15680925D02*
X10281848Y-15699973D01*
X10281848Y-15699973D02*
X10281848Y-15804735D01*
X10377086Y-15804735D02*
X10377086Y-15671401D01*
X10377086Y-15690449D02*
X10386610Y-15680925D01*
X10386610Y-15680925D02*
X10405658Y-15671401D01*
X10405658Y-15671401D02*
X10434229Y-15671401D01*
X10434229Y-15671401D02*
X10453277Y-15680925D01*
X10453277Y-15680925D02*
X10462801Y-15699973D01*
X10462801Y-15699973D02*
X10462801Y-15804735D01*
X10462801Y-15699973D02*
X10472325Y-15680925D01*
X10472325Y-15680925D02*
X10491372Y-15671401D01*
X10491372Y-15671401D02*
X10519944Y-15671401D01*
X10519944Y-15671401D02*
X10538991Y-15680925D01*
X10538991Y-15680925D02*
X10548515Y-15699973D01*
X10548515Y-15699973D02*
X10548515Y-15804735D01*
X10938991Y-15595211D02*
X10767563Y-15852354D01*
X11196134Y-15604735D02*
X11215182Y-15604735D01*
X11215182Y-15604735D02*
X11234229Y-15614259D01*
X11234229Y-15614259D02*
X11243753Y-15623782D01*
X11243753Y-15623782D02*
X11253277Y-15642830D01*
X11253277Y-15642830D02*
X11262801Y-15680925D01*
X11262801Y-15680925D02*
X11262801Y-15728544D01*
X11262801Y-15728544D02*
X11253277Y-15766639D01*
X11253277Y-15766639D02*
X11243753Y-15785687D01*
X11243753Y-15785687D02*
X11234229Y-15795211D01*
X11234229Y-15795211D02*
X11215182Y-15804735D01*
X11215182Y-15804735D02*
X11196134Y-15804735D01*
X11196134Y-15804735D02*
X11177087Y-15795211D01*
X11177087Y-15795211D02*
X11167563Y-15785687D01*
X11167563Y-15785687D02*
X11158039Y-15766639D01*
X11158039Y-15766639D02*
X11148515Y-15728544D01*
X11148515Y-15728544D02*
X11148515Y-15680925D01*
X11148515Y-15680925D02*
X11158039Y-15642830D01*
X11158039Y-15642830D02*
X11167563Y-15623782D01*
X11167563Y-15623782D02*
X11177087Y-15614259D01*
X11177087Y-15614259D02*
X11196134Y-15604735D01*
X11348515Y-15785687D02*
X11358039Y-15795211D01*
X11358039Y-15795211D02*
X11348515Y-15804735D01*
X11348515Y-15804735D02*
X11338991Y-15795211D01*
X11338991Y-15795211D02*
X11348515Y-15785687D01*
X11348515Y-15785687D02*
X11348515Y-15804735D01*
X11548515Y-15804735D02*
X11434229Y-15804735D01*
X11491372Y-15804735D02*
X11491372Y-15604735D01*
X11491372Y-15604735D02*
X11472325Y-15633306D01*
X11472325Y-15633306D02*
X11453277Y-15652354D01*
X11453277Y-15652354D02*
X11434229Y-15661878D01*
X11738991Y-15804735D02*
X11624706Y-15804735D01*
X11681848Y-15804735D02*
X11681848Y-15604735D01*
X11681848Y-15604735D02*
X11662801Y-15633306D01*
X11662801Y-15633306D02*
X11643753Y-15652354D01*
X11643753Y-15652354D02*
X11624706Y-15661878D01*
X11853277Y-15690449D02*
X11834229Y-15680925D01*
X11834229Y-15680925D02*
X11824706Y-15671401D01*
X11824706Y-15671401D02*
X11815182Y-15652354D01*
X11815182Y-15652354D02*
X11815182Y-15642830D01*
X11815182Y-15642830D02*
X11824706Y-15623782D01*
X11824706Y-15623782D02*
X11834229Y-15614259D01*
X11834229Y-15614259D02*
X11853277Y-15604735D01*
X11853277Y-15604735D02*
X11891372Y-15604735D01*
X11891372Y-15604735D02*
X11910420Y-15614259D01*
X11910420Y-15614259D02*
X11919944Y-15623782D01*
X11919944Y-15623782D02*
X11929467Y-15642830D01*
X11929467Y-15642830D02*
X11929467Y-15652354D01*
X11929467Y-15652354D02*
X11919944Y-15671401D01*
X11919944Y-15671401D02*
X11910420Y-15680925D01*
X11910420Y-15680925D02*
X11891372Y-15690449D01*
X11891372Y-15690449D02*
X11853277Y-15690449D01*
X11853277Y-15690449D02*
X11834229Y-15699973D01*
X11834229Y-15699973D02*
X11824706Y-15709497D01*
X11824706Y-15709497D02*
X11815182Y-15728544D01*
X11815182Y-15728544D02*
X11815182Y-15766639D01*
X11815182Y-15766639D02*
X11824706Y-15785687D01*
X11824706Y-15785687D02*
X11834229Y-15795211D01*
X11834229Y-15795211D02*
X11853277Y-15804735D01*
X11853277Y-15804735D02*
X11891372Y-15804735D01*
X11891372Y-15804735D02*
X11910420Y-15795211D01*
X11910420Y-15795211D02*
X11919944Y-15785687D01*
X11919944Y-15785687D02*
X11929467Y-15766639D01*
X11929467Y-15766639D02*
X11929467Y-15728544D01*
X11929467Y-15728544D02*
X11919944Y-15709497D01*
X11919944Y-15709497D02*
X11910420Y-15699973D01*
X11910420Y-15699973D02*
X11891372Y-15690449D01*
X12119944Y-15804735D02*
X12005658Y-15804735D01*
X12062801Y-15804735D02*
X12062801Y-15604735D01*
X12062801Y-15604735D02*
X12043753Y-15633306D01*
X12043753Y-15633306D02*
X12024706Y-15652354D01*
X12024706Y-15652354D02*
X12005658Y-15661878D01*
X12196134Y-15604735D02*
X12196134Y-15642830D01*
X12272325Y-15604735D02*
X12272325Y-15642830D01*
X12567563Y-15880925D02*
X12558039Y-15871401D01*
X12558039Y-15871401D02*
X12538991Y-15842830D01*
X12538991Y-15842830D02*
X12529468Y-15823782D01*
X12529468Y-15823782D02*
X12519944Y-15795211D01*
X12519944Y-15795211D02*
X12510420Y-15747592D01*
X12510420Y-15747592D02*
X12510420Y-15709497D01*
X12510420Y-15709497D02*
X12519944Y-15661878D01*
X12519944Y-15661878D02*
X12529468Y-15633306D01*
X12529468Y-15633306D02*
X12538991Y-15614259D01*
X12538991Y-15614259D02*
X12558039Y-15585687D01*
X12558039Y-15585687D02*
X12567563Y-15576163D01*
X12624706Y-15604735D02*
X12758039Y-15604735D01*
X12758039Y-15604735D02*
X12672325Y-15804735D01*
X12824706Y-15623782D02*
X12834229Y-15614259D01*
X12834229Y-15614259D02*
X12853277Y-15604735D01*
X12853277Y-15604735D02*
X12900896Y-15604735D01*
X12900896Y-15604735D02*
X12919944Y-15614259D01*
X12919944Y-15614259D02*
X12929468Y-15623782D01*
X12929468Y-15623782D02*
X12938991Y-15642830D01*
X12938991Y-15642830D02*
X12938991Y-15661878D01*
X12938991Y-15661878D02*
X12929468Y-15690449D01*
X12929468Y-15690449D02*
X12815182Y-15804735D01*
X12815182Y-15804735D02*
X12938991Y-15804735D01*
X13177087Y-15804735D02*
X13177087Y-15604735D01*
X13262801Y-15804735D02*
X13262801Y-15699973D01*
X13262801Y-15699973D02*
X13253277Y-15680925D01*
X13253277Y-15680925D02*
X13234230Y-15671401D01*
X13234230Y-15671401D02*
X13205658Y-15671401D01*
X13205658Y-15671401D02*
X13186610Y-15680925D01*
X13186610Y-15680925D02*
X13177087Y-15690449D01*
X13386610Y-15804735D02*
X13367563Y-15795211D01*
X13367563Y-15795211D02*
X13358039Y-15785687D01*
X13358039Y-15785687D02*
X13348515Y-15766639D01*
X13348515Y-15766639D02*
X13348515Y-15709497D01*
X13348515Y-15709497D02*
X13358039Y-15690449D01*
X13358039Y-15690449D02*
X13367563Y-15680925D01*
X13367563Y-15680925D02*
X13386610Y-15671401D01*
X13386610Y-15671401D02*
X13415182Y-15671401D01*
X13415182Y-15671401D02*
X13434230Y-15680925D01*
X13434230Y-15680925D02*
X13443753Y-15690449D01*
X13443753Y-15690449D02*
X13453277Y-15709497D01*
X13453277Y-15709497D02*
X13453277Y-15766639D01*
X13453277Y-15766639D02*
X13443753Y-15785687D01*
X13443753Y-15785687D02*
X13434230Y-15795211D01*
X13434230Y-15795211D02*
X13415182Y-15804735D01*
X13415182Y-15804735D02*
X13386610Y-15804735D01*
X13567563Y-15804735D02*
X13548515Y-15795211D01*
X13548515Y-15795211D02*
X13538991Y-15776163D01*
X13538991Y-15776163D02*
X13538991Y-15604735D01*
X13719944Y-15795211D02*
X13700896Y-15804735D01*
X13700896Y-15804735D02*
X13662801Y-15804735D01*
X13662801Y-15804735D02*
X13643753Y-15795211D01*
X13643753Y-15795211D02*
X13634230Y-15776163D01*
X13634230Y-15776163D02*
X13634230Y-15699973D01*
X13634230Y-15699973D02*
X13643753Y-15680925D01*
X13643753Y-15680925D02*
X13662801Y-15671401D01*
X13662801Y-15671401D02*
X13700896Y-15671401D01*
X13700896Y-15671401D02*
X13719944Y-15680925D01*
X13719944Y-15680925D02*
X13729468Y-15699973D01*
X13729468Y-15699973D02*
X13729468Y-15719020D01*
X13729468Y-15719020D02*
X13634230Y-15738068D01*
X13805658Y-15795211D02*
X13824706Y-15804735D01*
X13824706Y-15804735D02*
X13862801Y-15804735D01*
X13862801Y-15804735D02*
X13881849Y-15795211D01*
X13881849Y-15795211D02*
X13891372Y-15776163D01*
X13891372Y-15776163D02*
X13891372Y-15766639D01*
X13891372Y-15766639D02*
X13881849Y-15747592D01*
X13881849Y-15747592D02*
X13862801Y-15738068D01*
X13862801Y-15738068D02*
X13834230Y-15738068D01*
X13834230Y-15738068D02*
X13815182Y-15728544D01*
X13815182Y-15728544D02*
X13805658Y-15709497D01*
X13805658Y-15709497D02*
X13805658Y-15699973D01*
X13805658Y-15699973D02*
X13815182Y-15680925D01*
X13815182Y-15680925D02*
X13834230Y-15671401D01*
X13834230Y-15671401D02*
X13862801Y-15671401D01*
X13862801Y-15671401D02*
X13881849Y-15680925D01*
X13958039Y-15880925D02*
X13967563Y-15871401D01*
X13967563Y-15871401D02*
X13986611Y-15842830D01*
X13986611Y-15842830D02*
X13996134Y-15823782D01*
X13996134Y-15823782D02*
X14005658Y-15795211D01*
X14005658Y-15795211D02*
X14015182Y-15747592D01*
X14015182Y-15747592D02*
X14015182Y-15709497D01*
X14015182Y-15709497D02*
X14005658Y-15661878D01*
X14005658Y-15661878D02*
X13996134Y-15633306D01*
X13996134Y-15633306D02*
X13986611Y-15614259D01*
X13986611Y-15614259D02*
X13967563Y-15585687D01*
X13967563Y-15585687D02*
X13958039Y-15576163D01*
X14319944Y-15880925D02*
X14310420Y-15871401D01*
X14310420Y-15871401D02*
X14291372Y-15842830D01*
X14291372Y-15842830D02*
X14281849Y-15823782D01*
X14281849Y-15823782D02*
X14272325Y-15795211D01*
X14272325Y-15795211D02*
X14262801Y-15747592D01*
X14262801Y-15747592D02*
X14262801Y-15709497D01*
X14262801Y-15709497D02*
X14272325Y-15661878D01*
X14272325Y-15661878D02*
X14281849Y-15633306D01*
X14281849Y-15633306D02*
X14291372Y-15614259D01*
X14291372Y-15614259D02*
X14310420Y-15585687D01*
X14310420Y-15585687D02*
X14319944Y-15576163D01*
X14396134Y-15671401D02*
X14396134Y-15804735D01*
X14396134Y-15690449D02*
X14405658Y-15680925D01*
X14405658Y-15680925D02*
X14424706Y-15671401D01*
X14424706Y-15671401D02*
X14453277Y-15671401D01*
X14453277Y-15671401D02*
X14472325Y-15680925D01*
X14472325Y-15680925D02*
X14481849Y-15699973D01*
X14481849Y-15699973D02*
X14481849Y-15804735D01*
X14605658Y-15804735D02*
X14586611Y-15795211D01*
X14586611Y-15795211D02*
X14577087Y-15785687D01*
X14577087Y-15785687D02*
X14567563Y-15766639D01*
X14567563Y-15766639D02*
X14567563Y-15709497D01*
X14567563Y-15709497D02*
X14577087Y-15690449D01*
X14577087Y-15690449D02*
X14586611Y-15680925D01*
X14586611Y-15680925D02*
X14605658Y-15671401D01*
X14605658Y-15671401D02*
X14634230Y-15671401D01*
X14634230Y-15671401D02*
X14653277Y-15680925D01*
X14653277Y-15680925D02*
X14662801Y-15690449D01*
X14662801Y-15690449D02*
X14672325Y-15709497D01*
X14672325Y-15709497D02*
X14672325Y-15766639D01*
X14672325Y-15766639D02*
X14662801Y-15785687D01*
X14662801Y-15785687D02*
X14653277Y-15795211D01*
X14653277Y-15795211D02*
X14634230Y-15804735D01*
X14634230Y-15804735D02*
X14605658Y-15804735D01*
X14729468Y-15671401D02*
X14805658Y-15671401D01*
X14758039Y-15604735D02*
X14758039Y-15776163D01*
X14758039Y-15776163D02*
X14767563Y-15795211D01*
X14767563Y-15795211D02*
X14786611Y-15804735D01*
X14786611Y-15804735D02*
X14805658Y-15804735D01*
X15024706Y-15671401D02*
X15024706Y-15871401D01*
X15024706Y-15680925D02*
X15043753Y-15671401D01*
X15043753Y-15671401D02*
X15081849Y-15671401D01*
X15081849Y-15671401D02*
X15100896Y-15680925D01*
X15100896Y-15680925D02*
X15110420Y-15690449D01*
X15110420Y-15690449D02*
X15119944Y-15709497D01*
X15119944Y-15709497D02*
X15119944Y-15766639D01*
X15119944Y-15766639D02*
X15110420Y-15785687D01*
X15110420Y-15785687D02*
X15100896Y-15795211D01*
X15100896Y-15795211D02*
X15081849Y-15804735D01*
X15081849Y-15804735D02*
X15043753Y-15804735D01*
X15043753Y-15804735D02*
X15024706Y-15795211D01*
X15234230Y-15804735D02*
X15215182Y-15795211D01*
X15215182Y-15795211D02*
X15205658Y-15776163D01*
X15205658Y-15776163D02*
X15205658Y-15604735D01*
X15396134Y-15804735D02*
X15396134Y-15699973D01*
X15396134Y-15699973D02*
X15386611Y-15680925D01*
X15386611Y-15680925D02*
X15367563Y-15671401D01*
X15367563Y-15671401D02*
X15329468Y-15671401D01*
X15329468Y-15671401D02*
X15310420Y-15680925D01*
X15396134Y-15795211D02*
X15377087Y-15804735D01*
X15377087Y-15804735D02*
X15329468Y-15804735D01*
X15329468Y-15804735D02*
X15310420Y-15795211D01*
X15310420Y-15795211D02*
X15300896Y-15776163D01*
X15300896Y-15776163D02*
X15300896Y-15757116D01*
X15300896Y-15757116D02*
X15310420Y-15738068D01*
X15310420Y-15738068D02*
X15329468Y-15728544D01*
X15329468Y-15728544D02*
X15377087Y-15728544D01*
X15377087Y-15728544D02*
X15396134Y-15719020D01*
X15462801Y-15671401D02*
X15538992Y-15671401D01*
X15491373Y-15604735D02*
X15491373Y-15776163D01*
X15491373Y-15776163D02*
X15500896Y-15795211D01*
X15500896Y-15795211D02*
X15519944Y-15804735D01*
X15519944Y-15804735D02*
X15538992Y-15804735D01*
X15681849Y-15795211D02*
X15662801Y-15804735D01*
X15662801Y-15804735D02*
X15624706Y-15804735D01*
X15624706Y-15804735D02*
X15605658Y-15795211D01*
X15605658Y-15795211D02*
X15596134Y-15776163D01*
X15596134Y-15776163D02*
X15596134Y-15699973D01*
X15596134Y-15699973D02*
X15605658Y-15680925D01*
X15605658Y-15680925D02*
X15624706Y-15671401D01*
X15624706Y-15671401D02*
X15662801Y-15671401D01*
X15662801Y-15671401D02*
X15681849Y-15680925D01*
X15681849Y-15680925D02*
X15691373Y-15699973D01*
X15691373Y-15699973D02*
X15691373Y-15719020D01*
X15691373Y-15719020D02*
X15596134Y-15738068D01*
X15862801Y-15804735D02*
X15862801Y-15604735D01*
X15862801Y-15795211D02*
X15843754Y-15804735D01*
X15843754Y-15804735D02*
X15805658Y-15804735D01*
X15805658Y-15804735D02*
X15786611Y-15795211D01*
X15786611Y-15795211D02*
X15777087Y-15785687D01*
X15777087Y-15785687D02*
X15767563Y-15766639D01*
X15767563Y-15766639D02*
X15767563Y-15709497D01*
X15767563Y-15709497D02*
X15777087Y-15690449D01*
X15777087Y-15690449D02*
X15786611Y-15680925D01*
X15786611Y-15680925D02*
X15805658Y-15671401D01*
X15805658Y-15671401D02*
X15843754Y-15671401D01*
X15843754Y-15671401D02*
X15862801Y-15680925D01*
X15938992Y-15880925D02*
X15948515Y-15871401D01*
X15948515Y-15871401D02*
X15967563Y-15842830D01*
X15967563Y-15842830D02*
X15977087Y-15823782D01*
X15977087Y-15823782D02*
X15986611Y-15795211D01*
X15986611Y-15795211D02*
X15996134Y-15747592D01*
X15996134Y-15747592D02*
X15996134Y-15709497D01*
X15996134Y-15709497D02*
X15986611Y-15661878D01*
X15986611Y-15661878D02*
X15977087Y-15633306D01*
X15977087Y-15633306D02*
X15967563Y-15614259D01*
X15967563Y-15614259D02*
X15948515Y-15585687D01*
X15948515Y-15585687D02*
X15938992Y-15576163D01*
X8892500Y-16133251D02*
X8992500Y-16033251D01*
X8892500Y-15933251D01*
X8792500Y-16033251D01*
X8892500Y-16133251D01*
X9234229Y-15924735D02*
X9358039Y-15924735D01*
X9358039Y-15924735D02*
X9291372Y-16000925D01*
X9291372Y-16000925D02*
X9319944Y-16000925D01*
X9319944Y-16000925D02*
X9338991Y-16010449D01*
X9338991Y-16010449D02*
X9348515Y-16019973D01*
X9348515Y-16019973D02*
X9358039Y-16039020D01*
X9358039Y-16039020D02*
X9358039Y-16086639D01*
X9358039Y-16086639D02*
X9348515Y-16105687D01*
X9348515Y-16105687D02*
X9338991Y-16115211D01*
X9338991Y-16115211D02*
X9319944Y-16124735D01*
X9319944Y-16124735D02*
X9262801Y-16124735D01*
X9262801Y-16124735D02*
X9243753Y-16115211D01*
X9243753Y-16115211D02*
X9234229Y-16105687D01*
X9443753Y-16105687D02*
X9453277Y-16115211D01*
X9453277Y-16115211D02*
X9443753Y-16124735D01*
X9443753Y-16124735D02*
X9434229Y-16115211D01*
X9434229Y-16115211D02*
X9443753Y-16105687D01*
X9443753Y-16105687D02*
X9443753Y-16124735D01*
X9624705Y-15991401D02*
X9624705Y-16124735D01*
X9577086Y-15915211D02*
X9529467Y-16058068D01*
X9529467Y-16058068D02*
X9653277Y-16058068D01*
X9767563Y-15924735D02*
X9786610Y-15924735D01*
X9786610Y-15924735D02*
X9805658Y-15934259D01*
X9805658Y-15934259D02*
X9815182Y-15943782D01*
X9815182Y-15943782D02*
X9824705Y-15962830D01*
X9824705Y-15962830D02*
X9834229Y-16000925D01*
X9834229Y-16000925D02*
X9834229Y-16048544D01*
X9834229Y-16048544D02*
X9824705Y-16086639D01*
X9824705Y-16086639D02*
X9815182Y-16105687D01*
X9815182Y-16105687D02*
X9805658Y-16115211D01*
X9805658Y-16115211D02*
X9786610Y-16124735D01*
X9786610Y-16124735D02*
X9767563Y-16124735D01*
X9767563Y-16124735D02*
X9748515Y-16115211D01*
X9748515Y-16115211D02*
X9738991Y-16105687D01*
X9738991Y-16105687D02*
X9729467Y-16086639D01*
X9729467Y-16086639D02*
X9719944Y-16048544D01*
X9719944Y-16048544D02*
X9719944Y-16000925D01*
X9719944Y-16000925D02*
X9729467Y-15962830D01*
X9729467Y-15962830D02*
X9738991Y-15943782D01*
X9738991Y-15943782D02*
X9748515Y-15934259D01*
X9748515Y-15934259D02*
X9767563Y-15924735D01*
X9958039Y-15924735D02*
X9977086Y-15924735D01*
X9977086Y-15924735D02*
X9996134Y-15934259D01*
X9996134Y-15934259D02*
X10005658Y-15943782D01*
X10005658Y-15943782D02*
X10015182Y-15962830D01*
X10015182Y-15962830D02*
X10024705Y-16000925D01*
X10024705Y-16000925D02*
X10024705Y-16048544D01*
X10024705Y-16048544D02*
X10015182Y-16086639D01*
X10015182Y-16086639D02*
X10005658Y-16105687D01*
X10005658Y-16105687D02*
X9996134Y-16115211D01*
X9996134Y-16115211D02*
X9977086Y-16124735D01*
X9977086Y-16124735D02*
X9958039Y-16124735D01*
X9958039Y-16124735D02*
X9938991Y-16115211D01*
X9938991Y-16115211D02*
X9929467Y-16105687D01*
X9929467Y-16105687D02*
X9919944Y-16086639D01*
X9919944Y-16086639D02*
X9910420Y-16048544D01*
X9910420Y-16048544D02*
X9910420Y-16000925D01*
X9910420Y-16000925D02*
X9919944Y-15962830D01*
X9919944Y-15962830D02*
X9929467Y-15943782D01*
X9929467Y-15943782D02*
X9938991Y-15934259D01*
X9938991Y-15934259D02*
X9958039Y-15924735D01*
X10110420Y-16124735D02*
X10110420Y-15991401D01*
X10110420Y-16010449D02*
X10119944Y-16000925D01*
X10119944Y-16000925D02*
X10138991Y-15991401D01*
X10138991Y-15991401D02*
X10167563Y-15991401D01*
X10167563Y-15991401D02*
X10186610Y-16000925D01*
X10186610Y-16000925D02*
X10196134Y-16019973D01*
X10196134Y-16019973D02*
X10196134Y-16124735D01*
X10196134Y-16019973D02*
X10205658Y-16000925D01*
X10205658Y-16000925D02*
X10224705Y-15991401D01*
X10224705Y-15991401D02*
X10253277Y-15991401D01*
X10253277Y-15991401D02*
X10272325Y-16000925D01*
X10272325Y-16000925D02*
X10281848Y-16019973D01*
X10281848Y-16019973D02*
X10281848Y-16124735D01*
X10377086Y-16124735D02*
X10377086Y-15991401D01*
X10377086Y-16010449D02*
X10386610Y-16000925D01*
X10386610Y-16000925D02*
X10405658Y-15991401D01*
X10405658Y-15991401D02*
X10434229Y-15991401D01*
X10434229Y-15991401D02*
X10453277Y-16000925D01*
X10453277Y-16000925D02*
X10462801Y-16019973D01*
X10462801Y-16019973D02*
X10462801Y-16124735D01*
X10462801Y-16019973D02*
X10472325Y-16000925D01*
X10472325Y-16000925D02*
X10491372Y-15991401D01*
X10491372Y-15991401D02*
X10519944Y-15991401D01*
X10519944Y-15991401D02*
X10538991Y-16000925D01*
X10538991Y-16000925D02*
X10548515Y-16019973D01*
X10548515Y-16019973D02*
X10548515Y-16124735D01*
X10938991Y-15915211D02*
X10767563Y-16172354D01*
X11196134Y-15924735D02*
X11215182Y-15924735D01*
X11215182Y-15924735D02*
X11234229Y-15934259D01*
X11234229Y-15934259D02*
X11243753Y-15943782D01*
X11243753Y-15943782D02*
X11253277Y-15962830D01*
X11253277Y-15962830D02*
X11262801Y-16000925D01*
X11262801Y-16000925D02*
X11262801Y-16048544D01*
X11262801Y-16048544D02*
X11253277Y-16086639D01*
X11253277Y-16086639D02*
X11243753Y-16105687D01*
X11243753Y-16105687D02*
X11234229Y-16115211D01*
X11234229Y-16115211D02*
X11215182Y-16124735D01*
X11215182Y-16124735D02*
X11196134Y-16124735D01*
X11196134Y-16124735D02*
X11177087Y-16115211D01*
X11177087Y-16115211D02*
X11167563Y-16105687D01*
X11167563Y-16105687D02*
X11158039Y-16086639D01*
X11158039Y-16086639D02*
X11148515Y-16048544D01*
X11148515Y-16048544D02*
X11148515Y-16000925D01*
X11148515Y-16000925D02*
X11158039Y-15962830D01*
X11158039Y-15962830D02*
X11167563Y-15943782D01*
X11167563Y-15943782D02*
X11177087Y-15934259D01*
X11177087Y-15934259D02*
X11196134Y-15924735D01*
X11348515Y-16105687D02*
X11358039Y-16115211D01*
X11358039Y-16115211D02*
X11348515Y-16124735D01*
X11348515Y-16124735D02*
X11338991Y-16115211D01*
X11338991Y-16115211D02*
X11348515Y-16105687D01*
X11348515Y-16105687D02*
X11348515Y-16124735D01*
X11548515Y-16124735D02*
X11434229Y-16124735D01*
X11491372Y-16124735D02*
X11491372Y-15924735D01*
X11491372Y-15924735D02*
X11472325Y-15953306D01*
X11472325Y-15953306D02*
X11453277Y-15972354D01*
X11453277Y-15972354D02*
X11434229Y-15981878D01*
X11615182Y-15924735D02*
X11738991Y-15924735D01*
X11738991Y-15924735D02*
X11672325Y-16000925D01*
X11672325Y-16000925D02*
X11700896Y-16000925D01*
X11700896Y-16000925D02*
X11719944Y-16010449D01*
X11719944Y-16010449D02*
X11729467Y-16019973D01*
X11729467Y-16019973D02*
X11738991Y-16039020D01*
X11738991Y-16039020D02*
X11738991Y-16086639D01*
X11738991Y-16086639D02*
X11729467Y-16105687D01*
X11729467Y-16105687D02*
X11719944Y-16115211D01*
X11719944Y-16115211D02*
X11700896Y-16124735D01*
X11700896Y-16124735D02*
X11643753Y-16124735D01*
X11643753Y-16124735D02*
X11624706Y-16115211D01*
X11624706Y-16115211D02*
X11615182Y-16105687D01*
X11805658Y-15924735D02*
X11929467Y-15924735D01*
X11929467Y-15924735D02*
X11862801Y-16000925D01*
X11862801Y-16000925D02*
X11891372Y-16000925D01*
X11891372Y-16000925D02*
X11910420Y-16010449D01*
X11910420Y-16010449D02*
X11919944Y-16019973D01*
X11919944Y-16019973D02*
X11929467Y-16039020D01*
X11929467Y-16039020D02*
X11929467Y-16086639D01*
X11929467Y-16086639D02*
X11919944Y-16105687D01*
X11919944Y-16105687D02*
X11910420Y-16115211D01*
X11910420Y-16115211D02*
X11891372Y-16124735D01*
X11891372Y-16124735D02*
X11834229Y-16124735D01*
X11834229Y-16124735D02*
X11815182Y-16115211D01*
X11815182Y-16115211D02*
X11805658Y-16105687D01*
X12024706Y-16124735D02*
X12062801Y-16124735D01*
X12062801Y-16124735D02*
X12081848Y-16115211D01*
X12081848Y-16115211D02*
X12091372Y-16105687D01*
X12091372Y-16105687D02*
X12110420Y-16077116D01*
X12110420Y-16077116D02*
X12119944Y-16039020D01*
X12119944Y-16039020D02*
X12119944Y-15962830D01*
X12119944Y-15962830D02*
X12110420Y-15943782D01*
X12110420Y-15943782D02*
X12100896Y-15934259D01*
X12100896Y-15934259D02*
X12081848Y-15924735D01*
X12081848Y-15924735D02*
X12043753Y-15924735D01*
X12043753Y-15924735D02*
X12024706Y-15934259D01*
X12024706Y-15934259D02*
X12015182Y-15943782D01*
X12015182Y-15943782D02*
X12005658Y-15962830D01*
X12005658Y-15962830D02*
X12005658Y-16010449D01*
X12005658Y-16010449D02*
X12015182Y-16029497D01*
X12015182Y-16029497D02*
X12024706Y-16039020D01*
X12024706Y-16039020D02*
X12043753Y-16048544D01*
X12043753Y-16048544D02*
X12081848Y-16048544D01*
X12081848Y-16048544D02*
X12100896Y-16039020D01*
X12100896Y-16039020D02*
X12110420Y-16029497D01*
X12110420Y-16029497D02*
X12119944Y-16010449D01*
X12196134Y-15924735D02*
X12196134Y-15962830D01*
X12272325Y-15924735D02*
X12272325Y-15962830D01*
X12567563Y-16200925D02*
X12558039Y-16191401D01*
X12558039Y-16191401D02*
X12538991Y-16162830D01*
X12538991Y-16162830D02*
X12529468Y-16143782D01*
X12529468Y-16143782D02*
X12519944Y-16115211D01*
X12519944Y-16115211D02*
X12510420Y-16067592D01*
X12510420Y-16067592D02*
X12510420Y-16029497D01*
X12510420Y-16029497D02*
X12519944Y-15981878D01*
X12519944Y-15981878D02*
X12529468Y-15953306D01*
X12529468Y-15953306D02*
X12538991Y-15934259D01*
X12538991Y-15934259D02*
X12558039Y-15905687D01*
X12558039Y-15905687D02*
X12567563Y-15896163D01*
X12624706Y-15924735D02*
X12748515Y-15924735D01*
X12748515Y-15924735D02*
X12681848Y-16000925D01*
X12681848Y-16000925D02*
X12710420Y-16000925D01*
X12710420Y-16000925D02*
X12729468Y-16010449D01*
X12729468Y-16010449D02*
X12738991Y-16019973D01*
X12738991Y-16019973D02*
X12748515Y-16039020D01*
X12748515Y-16039020D02*
X12748515Y-16086639D01*
X12748515Y-16086639D02*
X12738991Y-16105687D01*
X12738991Y-16105687D02*
X12729468Y-16115211D01*
X12729468Y-16115211D02*
X12710420Y-16124735D01*
X12710420Y-16124735D02*
X12653277Y-16124735D01*
X12653277Y-16124735D02*
X12634229Y-16115211D01*
X12634229Y-16115211D02*
X12624706Y-16105687D01*
X12919944Y-15924735D02*
X12881848Y-15924735D01*
X12881848Y-15924735D02*
X12862801Y-15934259D01*
X12862801Y-15934259D02*
X12853277Y-15943782D01*
X12853277Y-15943782D02*
X12834229Y-15972354D01*
X12834229Y-15972354D02*
X12824706Y-16010449D01*
X12824706Y-16010449D02*
X12824706Y-16086639D01*
X12824706Y-16086639D02*
X12834229Y-16105687D01*
X12834229Y-16105687D02*
X12843753Y-16115211D01*
X12843753Y-16115211D02*
X12862801Y-16124735D01*
X12862801Y-16124735D02*
X12900896Y-16124735D01*
X12900896Y-16124735D02*
X12919944Y-16115211D01*
X12919944Y-16115211D02*
X12929468Y-16105687D01*
X12929468Y-16105687D02*
X12938991Y-16086639D01*
X12938991Y-16086639D02*
X12938991Y-16039020D01*
X12938991Y-16039020D02*
X12929468Y-16019973D01*
X12929468Y-16019973D02*
X12919944Y-16010449D01*
X12919944Y-16010449D02*
X12900896Y-16000925D01*
X12900896Y-16000925D02*
X12862801Y-16000925D01*
X12862801Y-16000925D02*
X12843753Y-16010449D01*
X12843753Y-16010449D02*
X12834229Y-16019973D01*
X12834229Y-16019973D02*
X12824706Y-16039020D01*
X13177087Y-16124735D02*
X13177087Y-15924735D01*
X13262801Y-16124735D02*
X13262801Y-16019973D01*
X13262801Y-16019973D02*
X13253277Y-16000925D01*
X13253277Y-16000925D02*
X13234230Y-15991401D01*
X13234230Y-15991401D02*
X13205658Y-15991401D01*
X13205658Y-15991401D02*
X13186610Y-16000925D01*
X13186610Y-16000925D02*
X13177087Y-16010449D01*
X13386610Y-16124735D02*
X13367563Y-16115211D01*
X13367563Y-16115211D02*
X13358039Y-16105687D01*
X13358039Y-16105687D02*
X13348515Y-16086639D01*
X13348515Y-16086639D02*
X13348515Y-16029497D01*
X13348515Y-16029497D02*
X13358039Y-16010449D01*
X13358039Y-16010449D02*
X13367563Y-16000925D01*
X13367563Y-16000925D02*
X13386610Y-15991401D01*
X13386610Y-15991401D02*
X13415182Y-15991401D01*
X13415182Y-15991401D02*
X13434230Y-16000925D01*
X13434230Y-16000925D02*
X13443753Y-16010449D01*
X13443753Y-16010449D02*
X13453277Y-16029497D01*
X13453277Y-16029497D02*
X13453277Y-16086639D01*
X13453277Y-16086639D02*
X13443753Y-16105687D01*
X13443753Y-16105687D02*
X13434230Y-16115211D01*
X13434230Y-16115211D02*
X13415182Y-16124735D01*
X13415182Y-16124735D02*
X13386610Y-16124735D01*
X13567563Y-16124735D02*
X13548515Y-16115211D01*
X13548515Y-16115211D02*
X13538991Y-16096163D01*
X13538991Y-16096163D02*
X13538991Y-15924735D01*
X13719944Y-16115211D02*
X13700896Y-16124735D01*
X13700896Y-16124735D02*
X13662801Y-16124735D01*
X13662801Y-16124735D02*
X13643753Y-16115211D01*
X13643753Y-16115211D02*
X13634230Y-16096163D01*
X13634230Y-16096163D02*
X13634230Y-16019973D01*
X13634230Y-16019973D02*
X13643753Y-16000925D01*
X13643753Y-16000925D02*
X13662801Y-15991401D01*
X13662801Y-15991401D02*
X13700896Y-15991401D01*
X13700896Y-15991401D02*
X13719944Y-16000925D01*
X13719944Y-16000925D02*
X13729468Y-16019973D01*
X13729468Y-16019973D02*
X13729468Y-16039020D01*
X13729468Y-16039020D02*
X13634230Y-16058068D01*
X13805658Y-16115211D02*
X13824706Y-16124735D01*
X13824706Y-16124735D02*
X13862801Y-16124735D01*
X13862801Y-16124735D02*
X13881849Y-16115211D01*
X13881849Y-16115211D02*
X13891372Y-16096163D01*
X13891372Y-16096163D02*
X13891372Y-16086639D01*
X13891372Y-16086639D02*
X13881849Y-16067592D01*
X13881849Y-16067592D02*
X13862801Y-16058068D01*
X13862801Y-16058068D02*
X13834230Y-16058068D01*
X13834230Y-16058068D02*
X13815182Y-16048544D01*
X13815182Y-16048544D02*
X13805658Y-16029497D01*
X13805658Y-16029497D02*
X13805658Y-16019973D01*
X13805658Y-16019973D02*
X13815182Y-16000925D01*
X13815182Y-16000925D02*
X13834230Y-15991401D01*
X13834230Y-15991401D02*
X13862801Y-15991401D01*
X13862801Y-15991401D02*
X13881849Y-16000925D01*
X13958039Y-16200925D02*
X13967563Y-16191401D01*
X13967563Y-16191401D02*
X13986611Y-16162830D01*
X13986611Y-16162830D02*
X13996134Y-16143782D01*
X13996134Y-16143782D02*
X14005658Y-16115211D01*
X14005658Y-16115211D02*
X14015182Y-16067592D01*
X14015182Y-16067592D02*
X14015182Y-16029497D01*
X14015182Y-16029497D02*
X14005658Y-15981878D01*
X14005658Y-15981878D02*
X13996134Y-15953306D01*
X13996134Y-15953306D02*
X13986611Y-15934259D01*
X13986611Y-15934259D02*
X13967563Y-15905687D01*
X13967563Y-15905687D02*
X13958039Y-15896163D01*
X14319944Y-16200925D02*
X14310420Y-16191401D01*
X14310420Y-16191401D02*
X14291372Y-16162830D01*
X14291372Y-16162830D02*
X14281849Y-16143782D01*
X14281849Y-16143782D02*
X14272325Y-16115211D01*
X14272325Y-16115211D02*
X14262801Y-16067592D01*
X14262801Y-16067592D02*
X14262801Y-16029497D01*
X14262801Y-16029497D02*
X14272325Y-15981878D01*
X14272325Y-15981878D02*
X14281849Y-15953306D01*
X14281849Y-15953306D02*
X14291372Y-15934259D01*
X14291372Y-15934259D02*
X14310420Y-15905687D01*
X14310420Y-15905687D02*
X14319944Y-15896163D01*
X14396134Y-15991401D02*
X14396134Y-16124735D01*
X14396134Y-16010449D02*
X14405658Y-16000925D01*
X14405658Y-16000925D02*
X14424706Y-15991401D01*
X14424706Y-15991401D02*
X14453277Y-15991401D01*
X14453277Y-15991401D02*
X14472325Y-16000925D01*
X14472325Y-16000925D02*
X14481849Y-16019973D01*
X14481849Y-16019973D02*
X14481849Y-16124735D01*
X14605658Y-16124735D02*
X14586611Y-16115211D01*
X14586611Y-16115211D02*
X14577087Y-16105687D01*
X14577087Y-16105687D02*
X14567563Y-16086639D01*
X14567563Y-16086639D02*
X14567563Y-16029497D01*
X14567563Y-16029497D02*
X14577087Y-16010449D01*
X14577087Y-16010449D02*
X14586611Y-16000925D01*
X14586611Y-16000925D02*
X14605658Y-15991401D01*
X14605658Y-15991401D02*
X14634230Y-15991401D01*
X14634230Y-15991401D02*
X14653277Y-16000925D01*
X14653277Y-16000925D02*
X14662801Y-16010449D01*
X14662801Y-16010449D02*
X14672325Y-16029497D01*
X14672325Y-16029497D02*
X14672325Y-16086639D01*
X14672325Y-16086639D02*
X14662801Y-16105687D01*
X14662801Y-16105687D02*
X14653277Y-16115211D01*
X14653277Y-16115211D02*
X14634230Y-16124735D01*
X14634230Y-16124735D02*
X14605658Y-16124735D01*
X14729468Y-15991401D02*
X14805658Y-15991401D01*
X14758039Y-15924735D02*
X14758039Y-16096163D01*
X14758039Y-16096163D02*
X14767563Y-16115211D01*
X14767563Y-16115211D02*
X14786611Y-16124735D01*
X14786611Y-16124735D02*
X14805658Y-16124735D01*
X15024706Y-15991401D02*
X15024706Y-16191401D01*
X15024706Y-16000925D02*
X15043753Y-15991401D01*
X15043753Y-15991401D02*
X15081849Y-15991401D01*
X15081849Y-15991401D02*
X15100896Y-16000925D01*
X15100896Y-16000925D02*
X15110420Y-16010449D01*
X15110420Y-16010449D02*
X15119944Y-16029497D01*
X15119944Y-16029497D02*
X15119944Y-16086639D01*
X15119944Y-16086639D02*
X15110420Y-16105687D01*
X15110420Y-16105687D02*
X15100896Y-16115211D01*
X15100896Y-16115211D02*
X15081849Y-16124735D01*
X15081849Y-16124735D02*
X15043753Y-16124735D01*
X15043753Y-16124735D02*
X15024706Y-16115211D01*
X15234230Y-16124735D02*
X15215182Y-16115211D01*
X15215182Y-16115211D02*
X15205658Y-16096163D01*
X15205658Y-16096163D02*
X15205658Y-15924735D01*
X15396134Y-16124735D02*
X15396134Y-16019973D01*
X15396134Y-16019973D02*
X15386611Y-16000925D01*
X15386611Y-16000925D02*
X15367563Y-15991401D01*
X15367563Y-15991401D02*
X15329468Y-15991401D01*
X15329468Y-15991401D02*
X15310420Y-16000925D01*
X15396134Y-16115211D02*
X15377087Y-16124735D01*
X15377087Y-16124735D02*
X15329468Y-16124735D01*
X15329468Y-16124735D02*
X15310420Y-16115211D01*
X15310420Y-16115211D02*
X15300896Y-16096163D01*
X15300896Y-16096163D02*
X15300896Y-16077116D01*
X15300896Y-16077116D02*
X15310420Y-16058068D01*
X15310420Y-16058068D02*
X15329468Y-16048544D01*
X15329468Y-16048544D02*
X15377087Y-16048544D01*
X15377087Y-16048544D02*
X15396134Y-16039020D01*
X15462801Y-15991401D02*
X15538992Y-15991401D01*
X15491373Y-15924735D02*
X15491373Y-16096163D01*
X15491373Y-16096163D02*
X15500896Y-16115211D01*
X15500896Y-16115211D02*
X15519944Y-16124735D01*
X15519944Y-16124735D02*
X15538992Y-16124735D01*
X15681849Y-16115211D02*
X15662801Y-16124735D01*
X15662801Y-16124735D02*
X15624706Y-16124735D01*
X15624706Y-16124735D02*
X15605658Y-16115211D01*
X15605658Y-16115211D02*
X15596134Y-16096163D01*
X15596134Y-16096163D02*
X15596134Y-16019973D01*
X15596134Y-16019973D02*
X15605658Y-16000925D01*
X15605658Y-16000925D02*
X15624706Y-15991401D01*
X15624706Y-15991401D02*
X15662801Y-15991401D01*
X15662801Y-15991401D02*
X15681849Y-16000925D01*
X15681849Y-16000925D02*
X15691373Y-16019973D01*
X15691373Y-16019973D02*
X15691373Y-16039020D01*
X15691373Y-16039020D02*
X15596134Y-16058068D01*
X15862801Y-16124735D02*
X15862801Y-15924735D01*
X15862801Y-16115211D02*
X15843754Y-16124735D01*
X15843754Y-16124735D02*
X15805658Y-16124735D01*
X15805658Y-16124735D02*
X15786611Y-16115211D01*
X15786611Y-16115211D02*
X15777087Y-16105687D01*
X15777087Y-16105687D02*
X15767563Y-16086639D01*
X15767563Y-16086639D02*
X15767563Y-16029497D01*
X15767563Y-16029497D02*
X15777087Y-16010449D01*
X15777087Y-16010449D02*
X15786611Y-16000925D01*
X15786611Y-16000925D02*
X15805658Y-15991401D01*
X15805658Y-15991401D02*
X15843754Y-15991401D01*
X15843754Y-15991401D02*
X15862801Y-16000925D01*
X15938992Y-16200925D02*
X15948515Y-16191401D01*
X15948515Y-16191401D02*
X15967563Y-16162830D01*
X15967563Y-16162830D02*
X15977087Y-16143782D01*
X15977087Y-16143782D02*
X15986611Y-16115211D01*
X15986611Y-16115211D02*
X15996134Y-16067592D01*
X15996134Y-16067592D02*
X15996134Y-16029497D01*
X15996134Y-16029497D02*
X15986611Y-15981878D01*
X15986611Y-15981878D02*
X15977087Y-15953306D01*
X15977087Y-15953306D02*
X15967563Y-15934259D01*
X15967563Y-15934259D02*
X15948515Y-15905687D01*
X15948515Y-15905687D02*
X15938992Y-15896163D01*
X8792500Y-16253251D02*
X8992500Y-16453251D01*
X8992500Y-16253251D02*
X8792500Y-16453251D01*
X8992500Y-16353251D02*
G75*
G02*
X8792500Y-16353251I-100000J0D01*
G01*
X8792500Y-16353251D02*
G75*
G02*
X8992500Y-16353251I100000J0D01*
G01*
X9338991Y-16311401D02*
X9338991Y-16444735D01*
X9291372Y-16235211D02*
X9243753Y-16378068D01*
X9243753Y-16378068D02*
X9367563Y-16378068D01*
X9443753Y-16425687D02*
X9453277Y-16435211D01*
X9453277Y-16435211D02*
X9443753Y-16444735D01*
X9443753Y-16444735D02*
X9434229Y-16435211D01*
X9434229Y-16435211D02*
X9443753Y-16425687D01*
X9443753Y-16425687D02*
X9443753Y-16444735D01*
X9519944Y-16244735D02*
X9643753Y-16244735D01*
X9643753Y-16244735D02*
X9577086Y-16320925D01*
X9577086Y-16320925D02*
X9605658Y-16320925D01*
X9605658Y-16320925D02*
X9624705Y-16330449D01*
X9624705Y-16330449D02*
X9634229Y-16339973D01*
X9634229Y-16339973D02*
X9643753Y-16359020D01*
X9643753Y-16359020D02*
X9643753Y-16406639D01*
X9643753Y-16406639D02*
X9634229Y-16425687D01*
X9634229Y-16425687D02*
X9624705Y-16435211D01*
X9624705Y-16435211D02*
X9605658Y-16444735D01*
X9605658Y-16444735D02*
X9548515Y-16444735D01*
X9548515Y-16444735D02*
X9529467Y-16435211D01*
X9529467Y-16435211D02*
X9519944Y-16425687D01*
X9767563Y-16244735D02*
X9786610Y-16244735D01*
X9786610Y-16244735D02*
X9805658Y-16254259D01*
X9805658Y-16254259D02*
X9815182Y-16263782D01*
X9815182Y-16263782D02*
X9824705Y-16282830D01*
X9824705Y-16282830D02*
X9834229Y-16320925D01*
X9834229Y-16320925D02*
X9834229Y-16368544D01*
X9834229Y-16368544D02*
X9824705Y-16406639D01*
X9824705Y-16406639D02*
X9815182Y-16425687D01*
X9815182Y-16425687D02*
X9805658Y-16435211D01*
X9805658Y-16435211D02*
X9786610Y-16444735D01*
X9786610Y-16444735D02*
X9767563Y-16444735D01*
X9767563Y-16444735D02*
X9748515Y-16435211D01*
X9748515Y-16435211D02*
X9738991Y-16425687D01*
X9738991Y-16425687D02*
X9729467Y-16406639D01*
X9729467Y-16406639D02*
X9719944Y-16368544D01*
X9719944Y-16368544D02*
X9719944Y-16320925D01*
X9719944Y-16320925D02*
X9729467Y-16282830D01*
X9729467Y-16282830D02*
X9738991Y-16263782D01*
X9738991Y-16263782D02*
X9748515Y-16254259D01*
X9748515Y-16254259D02*
X9767563Y-16244735D01*
X9958039Y-16244735D02*
X9977086Y-16244735D01*
X9977086Y-16244735D02*
X9996134Y-16254259D01*
X9996134Y-16254259D02*
X10005658Y-16263782D01*
X10005658Y-16263782D02*
X10015182Y-16282830D01*
X10015182Y-16282830D02*
X10024705Y-16320925D01*
X10024705Y-16320925D02*
X10024705Y-16368544D01*
X10024705Y-16368544D02*
X10015182Y-16406639D01*
X10015182Y-16406639D02*
X10005658Y-16425687D01*
X10005658Y-16425687D02*
X9996134Y-16435211D01*
X9996134Y-16435211D02*
X9977086Y-16444735D01*
X9977086Y-16444735D02*
X9958039Y-16444735D01*
X9958039Y-16444735D02*
X9938991Y-16435211D01*
X9938991Y-16435211D02*
X9929467Y-16425687D01*
X9929467Y-16425687D02*
X9919944Y-16406639D01*
X9919944Y-16406639D02*
X9910420Y-16368544D01*
X9910420Y-16368544D02*
X9910420Y-16320925D01*
X9910420Y-16320925D02*
X9919944Y-16282830D01*
X9919944Y-16282830D02*
X9929467Y-16263782D01*
X9929467Y-16263782D02*
X9938991Y-16254259D01*
X9938991Y-16254259D02*
X9958039Y-16244735D01*
X10110420Y-16444735D02*
X10110420Y-16311401D01*
X10110420Y-16330449D02*
X10119944Y-16320925D01*
X10119944Y-16320925D02*
X10138991Y-16311401D01*
X10138991Y-16311401D02*
X10167563Y-16311401D01*
X10167563Y-16311401D02*
X10186610Y-16320925D01*
X10186610Y-16320925D02*
X10196134Y-16339973D01*
X10196134Y-16339973D02*
X10196134Y-16444735D01*
X10196134Y-16339973D02*
X10205658Y-16320925D01*
X10205658Y-16320925D02*
X10224705Y-16311401D01*
X10224705Y-16311401D02*
X10253277Y-16311401D01*
X10253277Y-16311401D02*
X10272325Y-16320925D01*
X10272325Y-16320925D02*
X10281848Y-16339973D01*
X10281848Y-16339973D02*
X10281848Y-16444735D01*
X10377086Y-16444735D02*
X10377086Y-16311401D01*
X10377086Y-16330449D02*
X10386610Y-16320925D01*
X10386610Y-16320925D02*
X10405658Y-16311401D01*
X10405658Y-16311401D02*
X10434229Y-16311401D01*
X10434229Y-16311401D02*
X10453277Y-16320925D01*
X10453277Y-16320925D02*
X10462801Y-16339973D01*
X10462801Y-16339973D02*
X10462801Y-16444735D01*
X10462801Y-16339973D02*
X10472325Y-16320925D01*
X10472325Y-16320925D02*
X10491372Y-16311401D01*
X10491372Y-16311401D02*
X10519944Y-16311401D01*
X10519944Y-16311401D02*
X10538991Y-16320925D01*
X10538991Y-16320925D02*
X10548515Y-16339973D01*
X10548515Y-16339973D02*
X10548515Y-16444735D01*
X10938991Y-16235211D02*
X10767563Y-16492354D01*
X11196134Y-16244735D02*
X11215182Y-16244735D01*
X11215182Y-16244735D02*
X11234229Y-16254259D01*
X11234229Y-16254259D02*
X11243753Y-16263782D01*
X11243753Y-16263782D02*
X11253277Y-16282830D01*
X11253277Y-16282830D02*
X11262801Y-16320925D01*
X11262801Y-16320925D02*
X11262801Y-16368544D01*
X11262801Y-16368544D02*
X11253277Y-16406639D01*
X11253277Y-16406639D02*
X11243753Y-16425687D01*
X11243753Y-16425687D02*
X11234229Y-16435211D01*
X11234229Y-16435211D02*
X11215182Y-16444735D01*
X11215182Y-16444735D02*
X11196134Y-16444735D01*
X11196134Y-16444735D02*
X11177087Y-16435211D01*
X11177087Y-16435211D02*
X11167563Y-16425687D01*
X11167563Y-16425687D02*
X11158039Y-16406639D01*
X11158039Y-16406639D02*
X11148515Y-16368544D01*
X11148515Y-16368544D02*
X11148515Y-16320925D01*
X11148515Y-16320925D02*
X11158039Y-16282830D01*
X11158039Y-16282830D02*
X11167563Y-16263782D01*
X11167563Y-16263782D02*
X11177087Y-16254259D01*
X11177087Y-16254259D02*
X11196134Y-16244735D01*
X11348515Y-16425687D02*
X11358039Y-16435211D01*
X11358039Y-16435211D02*
X11348515Y-16444735D01*
X11348515Y-16444735D02*
X11338991Y-16435211D01*
X11338991Y-16435211D02*
X11348515Y-16425687D01*
X11348515Y-16425687D02*
X11348515Y-16444735D01*
X11548515Y-16444735D02*
X11434229Y-16444735D01*
X11491372Y-16444735D02*
X11491372Y-16244735D01*
X11491372Y-16244735D02*
X11472325Y-16273306D01*
X11472325Y-16273306D02*
X11453277Y-16292354D01*
X11453277Y-16292354D02*
X11434229Y-16301878D01*
X11719944Y-16244735D02*
X11681848Y-16244735D01*
X11681848Y-16244735D02*
X11662801Y-16254259D01*
X11662801Y-16254259D02*
X11653277Y-16263782D01*
X11653277Y-16263782D02*
X11634229Y-16292354D01*
X11634229Y-16292354D02*
X11624706Y-16330449D01*
X11624706Y-16330449D02*
X11624706Y-16406639D01*
X11624706Y-16406639D02*
X11634229Y-16425687D01*
X11634229Y-16425687D02*
X11643753Y-16435211D01*
X11643753Y-16435211D02*
X11662801Y-16444735D01*
X11662801Y-16444735D02*
X11700896Y-16444735D01*
X11700896Y-16444735D02*
X11719944Y-16435211D01*
X11719944Y-16435211D02*
X11729467Y-16425687D01*
X11729467Y-16425687D02*
X11738991Y-16406639D01*
X11738991Y-16406639D02*
X11738991Y-16359020D01*
X11738991Y-16359020D02*
X11729467Y-16339973D01*
X11729467Y-16339973D02*
X11719944Y-16330449D01*
X11719944Y-16330449D02*
X11700896Y-16320925D01*
X11700896Y-16320925D02*
X11662801Y-16320925D01*
X11662801Y-16320925D02*
X11643753Y-16330449D01*
X11643753Y-16330449D02*
X11634229Y-16339973D01*
X11634229Y-16339973D02*
X11624706Y-16359020D01*
X11834229Y-16444735D02*
X11872325Y-16444735D01*
X11872325Y-16444735D02*
X11891372Y-16435211D01*
X11891372Y-16435211D02*
X11900896Y-16425687D01*
X11900896Y-16425687D02*
X11919944Y-16397116D01*
X11919944Y-16397116D02*
X11929467Y-16359020D01*
X11929467Y-16359020D02*
X11929467Y-16282830D01*
X11929467Y-16282830D02*
X11919944Y-16263782D01*
X11919944Y-16263782D02*
X11910420Y-16254259D01*
X11910420Y-16254259D02*
X11891372Y-16244735D01*
X11891372Y-16244735D02*
X11853277Y-16244735D01*
X11853277Y-16244735D02*
X11834229Y-16254259D01*
X11834229Y-16254259D02*
X11824706Y-16263782D01*
X11824706Y-16263782D02*
X11815182Y-16282830D01*
X11815182Y-16282830D02*
X11815182Y-16330449D01*
X11815182Y-16330449D02*
X11824706Y-16349497D01*
X11824706Y-16349497D02*
X11834229Y-16359020D01*
X11834229Y-16359020D02*
X11853277Y-16368544D01*
X11853277Y-16368544D02*
X11891372Y-16368544D01*
X11891372Y-16368544D02*
X11910420Y-16359020D01*
X11910420Y-16359020D02*
X11919944Y-16349497D01*
X11919944Y-16349497D02*
X11929467Y-16330449D01*
X11996134Y-16244735D02*
X12119944Y-16244735D01*
X12119944Y-16244735D02*
X12053277Y-16320925D01*
X12053277Y-16320925D02*
X12081848Y-16320925D01*
X12081848Y-16320925D02*
X12100896Y-16330449D01*
X12100896Y-16330449D02*
X12110420Y-16339973D01*
X12110420Y-16339973D02*
X12119944Y-16359020D01*
X12119944Y-16359020D02*
X12119944Y-16406639D01*
X12119944Y-16406639D02*
X12110420Y-16425687D01*
X12110420Y-16425687D02*
X12100896Y-16435211D01*
X12100896Y-16435211D02*
X12081848Y-16444735D01*
X12081848Y-16444735D02*
X12024706Y-16444735D01*
X12024706Y-16444735D02*
X12005658Y-16435211D01*
X12005658Y-16435211D02*
X11996134Y-16425687D01*
X12196134Y-16244735D02*
X12196134Y-16282830D01*
X12272325Y-16244735D02*
X12272325Y-16282830D01*
X12567563Y-16520925D02*
X12558039Y-16511401D01*
X12558039Y-16511401D02*
X12538991Y-16482830D01*
X12538991Y-16482830D02*
X12529468Y-16463782D01*
X12529468Y-16463782D02*
X12519944Y-16435211D01*
X12519944Y-16435211D02*
X12510420Y-16387592D01*
X12510420Y-16387592D02*
X12510420Y-16349497D01*
X12510420Y-16349497D02*
X12519944Y-16301878D01*
X12519944Y-16301878D02*
X12529468Y-16273306D01*
X12529468Y-16273306D02*
X12538991Y-16254259D01*
X12538991Y-16254259D02*
X12558039Y-16225687D01*
X12558039Y-16225687D02*
X12567563Y-16216163D01*
X12738991Y-16244735D02*
X12643753Y-16244735D01*
X12643753Y-16244735D02*
X12634229Y-16339973D01*
X12634229Y-16339973D02*
X12643753Y-16330449D01*
X12643753Y-16330449D02*
X12662801Y-16320925D01*
X12662801Y-16320925D02*
X12710420Y-16320925D01*
X12710420Y-16320925D02*
X12729468Y-16330449D01*
X12729468Y-16330449D02*
X12738991Y-16339973D01*
X12738991Y-16339973D02*
X12748515Y-16359020D01*
X12748515Y-16359020D02*
X12748515Y-16406639D01*
X12748515Y-16406639D02*
X12738991Y-16425687D01*
X12738991Y-16425687D02*
X12729468Y-16435211D01*
X12729468Y-16435211D02*
X12710420Y-16444735D01*
X12710420Y-16444735D02*
X12662801Y-16444735D01*
X12662801Y-16444735D02*
X12643753Y-16435211D01*
X12643753Y-16435211D02*
X12634229Y-16425687D01*
X12986610Y-16444735D02*
X12986610Y-16244735D01*
X13072325Y-16444735D02*
X13072325Y-16339973D01*
X13072325Y-16339973D02*
X13062801Y-16320925D01*
X13062801Y-16320925D02*
X13043753Y-16311401D01*
X13043753Y-16311401D02*
X13015182Y-16311401D01*
X13015182Y-16311401D02*
X12996134Y-16320925D01*
X12996134Y-16320925D02*
X12986610Y-16330449D01*
X13196134Y-16444735D02*
X13177087Y-16435211D01*
X13177087Y-16435211D02*
X13167563Y-16425687D01*
X13167563Y-16425687D02*
X13158039Y-16406639D01*
X13158039Y-16406639D02*
X13158039Y-16349497D01*
X13158039Y-16349497D02*
X13167563Y-16330449D01*
X13167563Y-16330449D02*
X13177087Y-16320925D01*
X13177087Y-16320925D02*
X13196134Y-16311401D01*
X13196134Y-16311401D02*
X13224706Y-16311401D01*
X13224706Y-16311401D02*
X13243753Y-16320925D01*
X13243753Y-16320925D02*
X13253277Y-16330449D01*
X13253277Y-16330449D02*
X13262801Y-16349497D01*
X13262801Y-16349497D02*
X13262801Y-16406639D01*
X13262801Y-16406639D02*
X13253277Y-16425687D01*
X13253277Y-16425687D02*
X13243753Y-16435211D01*
X13243753Y-16435211D02*
X13224706Y-16444735D01*
X13224706Y-16444735D02*
X13196134Y-16444735D01*
X13377087Y-16444735D02*
X13358039Y-16435211D01*
X13358039Y-16435211D02*
X13348515Y-16416163D01*
X13348515Y-16416163D02*
X13348515Y-16244735D01*
X13529468Y-16435211D02*
X13510420Y-16444735D01*
X13510420Y-16444735D02*
X13472325Y-16444735D01*
X13472325Y-16444735D02*
X13453277Y-16435211D01*
X13453277Y-16435211D02*
X13443753Y-16416163D01*
X13443753Y-16416163D02*
X13443753Y-16339973D01*
X13443753Y-16339973D02*
X13453277Y-16320925D01*
X13453277Y-16320925D02*
X13472325Y-16311401D01*
X13472325Y-16311401D02*
X13510420Y-16311401D01*
X13510420Y-16311401D02*
X13529468Y-16320925D01*
X13529468Y-16320925D02*
X13538991Y-16339973D01*
X13538991Y-16339973D02*
X13538991Y-16359020D01*
X13538991Y-16359020D02*
X13443753Y-16378068D01*
X13615182Y-16435211D02*
X13634230Y-16444735D01*
X13634230Y-16444735D02*
X13672325Y-16444735D01*
X13672325Y-16444735D02*
X13691372Y-16435211D01*
X13691372Y-16435211D02*
X13700896Y-16416163D01*
X13700896Y-16416163D02*
X13700896Y-16406639D01*
X13700896Y-16406639D02*
X13691372Y-16387592D01*
X13691372Y-16387592D02*
X13672325Y-16378068D01*
X13672325Y-16378068D02*
X13643753Y-16378068D01*
X13643753Y-16378068D02*
X13624706Y-16368544D01*
X13624706Y-16368544D02*
X13615182Y-16349497D01*
X13615182Y-16349497D02*
X13615182Y-16339973D01*
X13615182Y-16339973D02*
X13624706Y-16320925D01*
X13624706Y-16320925D02*
X13643753Y-16311401D01*
X13643753Y-16311401D02*
X13672325Y-16311401D01*
X13672325Y-16311401D02*
X13691372Y-16320925D01*
X13767563Y-16520925D02*
X13777087Y-16511401D01*
X13777087Y-16511401D02*
X13796134Y-16482830D01*
X13796134Y-16482830D02*
X13805658Y-16463782D01*
X13805658Y-16463782D02*
X13815182Y-16435211D01*
X13815182Y-16435211D02*
X13824706Y-16387592D01*
X13824706Y-16387592D02*
X13824706Y-16349497D01*
X13824706Y-16349497D02*
X13815182Y-16301878D01*
X13815182Y-16301878D02*
X13805658Y-16273306D01*
X13805658Y-16273306D02*
X13796134Y-16254259D01*
X13796134Y-16254259D02*
X13777087Y-16225687D01*
X13777087Y-16225687D02*
X13767563Y-16216163D01*
X14129468Y-16520925D02*
X14119944Y-16511401D01*
X14119944Y-16511401D02*
X14100896Y-16482830D01*
X14100896Y-16482830D02*
X14091372Y-16463782D01*
X14091372Y-16463782D02*
X14081849Y-16435211D01*
X14081849Y-16435211D02*
X14072325Y-16387592D01*
X14072325Y-16387592D02*
X14072325Y-16349497D01*
X14072325Y-16349497D02*
X14081849Y-16301878D01*
X14081849Y-16301878D02*
X14091372Y-16273306D01*
X14091372Y-16273306D02*
X14100896Y-16254259D01*
X14100896Y-16254259D02*
X14119944Y-16225687D01*
X14119944Y-16225687D02*
X14129468Y-16216163D01*
X14205658Y-16311401D02*
X14205658Y-16444735D01*
X14205658Y-16330449D02*
X14215182Y-16320925D01*
X14215182Y-16320925D02*
X14234230Y-16311401D01*
X14234230Y-16311401D02*
X14262801Y-16311401D01*
X14262801Y-16311401D02*
X14281849Y-16320925D01*
X14281849Y-16320925D02*
X14291372Y-16339973D01*
X14291372Y-16339973D02*
X14291372Y-16444735D01*
X14415182Y-16444735D02*
X14396134Y-16435211D01*
X14396134Y-16435211D02*
X14386611Y-16425687D01*
X14386611Y-16425687D02*
X14377087Y-16406639D01*
X14377087Y-16406639D02*
X14377087Y-16349497D01*
X14377087Y-16349497D02*
X14386611Y-16330449D01*
X14386611Y-16330449D02*
X14396134Y-16320925D01*
X14396134Y-16320925D02*
X14415182Y-16311401D01*
X14415182Y-16311401D02*
X14443753Y-16311401D01*
X14443753Y-16311401D02*
X14462801Y-16320925D01*
X14462801Y-16320925D02*
X14472325Y-16330449D01*
X14472325Y-16330449D02*
X14481849Y-16349497D01*
X14481849Y-16349497D02*
X14481849Y-16406639D01*
X14481849Y-16406639D02*
X14472325Y-16425687D01*
X14472325Y-16425687D02*
X14462801Y-16435211D01*
X14462801Y-16435211D02*
X14443753Y-16444735D01*
X14443753Y-16444735D02*
X14415182Y-16444735D01*
X14538992Y-16311401D02*
X14615182Y-16311401D01*
X14567563Y-16244735D02*
X14567563Y-16416163D01*
X14567563Y-16416163D02*
X14577087Y-16435211D01*
X14577087Y-16435211D02*
X14596134Y-16444735D01*
X14596134Y-16444735D02*
X14615182Y-16444735D01*
X14834230Y-16311401D02*
X14834230Y-16511401D01*
X14834230Y-16320925D02*
X14853277Y-16311401D01*
X14853277Y-16311401D02*
X14891373Y-16311401D01*
X14891373Y-16311401D02*
X14910420Y-16320925D01*
X14910420Y-16320925D02*
X14919944Y-16330449D01*
X14919944Y-16330449D02*
X14929468Y-16349497D01*
X14929468Y-16349497D02*
X14929468Y-16406639D01*
X14929468Y-16406639D02*
X14919944Y-16425687D01*
X14919944Y-16425687D02*
X14910420Y-16435211D01*
X14910420Y-16435211D02*
X14891373Y-16444735D01*
X14891373Y-16444735D02*
X14853277Y-16444735D01*
X14853277Y-16444735D02*
X14834230Y-16435211D01*
X15043753Y-16444735D02*
X15024706Y-16435211D01*
X15024706Y-16435211D02*
X15015182Y-16416163D01*
X15015182Y-16416163D02*
X15015182Y-16244735D01*
X15205658Y-16444735D02*
X15205658Y-16339973D01*
X15205658Y-16339973D02*
X15196134Y-16320925D01*
X15196134Y-16320925D02*
X15177087Y-16311401D01*
X15177087Y-16311401D02*
X15138992Y-16311401D01*
X15138992Y-16311401D02*
X15119944Y-16320925D01*
X15205658Y-16435211D02*
X15186611Y-16444735D01*
X15186611Y-16444735D02*
X15138992Y-16444735D01*
X15138992Y-16444735D02*
X15119944Y-16435211D01*
X15119944Y-16435211D02*
X15110420Y-16416163D01*
X15110420Y-16416163D02*
X15110420Y-16397116D01*
X15110420Y-16397116D02*
X15119944Y-16378068D01*
X15119944Y-16378068D02*
X15138992Y-16368544D01*
X15138992Y-16368544D02*
X15186611Y-16368544D01*
X15186611Y-16368544D02*
X15205658Y-16359020D01*
X15272325Y-16311401D02*
X15348515Y-16311401D01*
X15300896Y-16244735D02*
X15300896Y-16416163D01*
X15300896Y-16416163D02*
X15310420Y-16435211D01*
X15310420Y-16435211D02*
X15329468Y-16444735D01*
X15329468Y-16444735D02*
X15348515Y-16444735D01*
X15491373Y-16435211D02*
X15472325Y-16444735D01*
X15472325Y-16444735D02*
X15434230Y-16444735D01*
X15434230Y-16444735D02*
X15415182Y-16435211D01*
X15415182Y-16435211D02*
X15405658Y-16416163D01*
X15405658Y-16416163D02*
X15405658Y-16339973D01*
X15405658Y-16339973D02*
X15415182Y-16320925D01*
X15415182Y-16320925D02*
X15434230Y-16311401D01*
X15434230Y-16311401D02*
X15472325Y-16311401D01*
X15472325Y-16311401D02*
X15491373Y-16320925D01*
X15491373Y-16320925D02*
X15500896Y-16339973D01*
X15500896Y-16339973D02*
X15500896Y-16359020D01*
X15500896Y-16359020D02*
X15405658Y-16378068D01*
X15672325Y-16444735D02*
X15672325Y-16244735D01*
X15672325Y-16435211D02*
X15653277Y-16444735D01*
X15653277Y-16444735D02*
X15615182Y-16444735D01*
X15615182Y-16444735D02*
X15596134Y-16435211D01*
X15596134Y-16435211D02*
X15586611Y-16425687D01*
X15586611Y-16425687D02*
X15577087Y-16406639D01*
X15577087Y-16406639D02*
X15577087Y-16349497D01*
X15577087Y-16349497D02*
X15586611Y-16330449D01*
X15586611Y-16330449D02*
X15596134Y-16320925D01*
X15596134Y-16320925D02*
X15615182Y-16311401D01*
X15615182Y-16311401D02*
X15653277Y-16311401D01*
X15653277Y-16311401D02*
X15672325Y-16320925D01*
X15748515Y-16520925D02*
X15758039Y-16511401D01*
X15758039Y-16511401D02*
X15777087Y-16482830D01*
X15777087Y-16482830D02*
X15786611Y-16463782D01*
X15786611Y-16463782D02*
X15796134Y-16435211D01*
X15796134Y-16435211D02*
X15805658Y-16387592D01*
X15805658Y-16387592D02*
X15805658Y-16349497D01*
X15805658Y-16349497D02*
X15796134Y-16301878D01*
X15796134Y-16301878D02*
X15786611Y-16273306D01*
X15786611Y-16273306D02*
X15777087Y-16254259D01*
X15777087Y-16254259D02*
X15758039Y-16225687D01*
X15758039Y-16225687D02*
X15748515Y-16216163D01*
M02*
