%TF.GenerationSoftware,KiCad,Pcbnew,8.0.6+1*%
%TF.CreationDate,2024-12-31T16:22:39+00:00*%
%TF.ProjectId,corney_island_wireless_autorouted,636f726e-6579-45f6-9973-6c616e645f77,0.2*%
%TF.SameCoordinates,Original*%
%TF.FileFunction,Drillmap*%
%TF.FilePolarity,Positive*%
%FSLAX45Y45*%
G04 Gerber Fmt 4.5, Leading zero omitted, Abs format (unit mm)*
G04 Created by KiCad (PCBNEW 8.0.6+1) date 2024-12-31 16:22:39*
%MOMM*%
%LPD*%
G01*
G04 APERTURE LIST*
%ADD10C,0.150000*%
%ADD11C,0.200000*%
%ADD12C,0.100000*%
%ADD13C,0.130000*%
G04 APERTURE END LIST*
D10*
X18200000Y-5600000D02*
X18200000Y-5325000D01*
X14069557Y-12572920D02*
G75*
G02*
X14019938Y-12541894I25893J96600D01*
G01*
X10700000Y-5650000D02*
X9100000Y-5650000D01*
X20400000Y-11990591D02*
X20400000Y-5800000D01*
X12500000Y-4587500D02*
X10900000Y-4587500D01*
X14500000Y-4375000D02*
X12700000Y-4375000D01*
X19199997Y-13947617D02*
X14069557Y-12572920D01*
X9100000Y-10950000D02*
G75*
G02*
X9000000Y-10850000I0J100000D01*
G01*
X12600000Y-4475000D02*
G75*
G02*
X12700000Y-4375000I100000J0D01*
G01*
X9100000Y-10950000D02*
X12591898Y-10950000D01*
X18300000Y-5700000D02*
G75*
G02*
X18200000Y-5600000I0J100000D01*
G01*
X19312481Y-13901024D02*
X20386603Y-12040591D01*
X10800000Y-5550000D02*
G75*
G02*
X10700000Y-5650000I-100000J0D01*
G01*
X9000000Y-10850000D02*
X9000000Y-5750000D01*
X9000000Y-5750000D02*
G75*
G02*
X9100000Y-5650000I100000J0D01*
G01*
X19312481Y-13901024D02*
G75*
G02*
X19199996Y-13947620I-86611J50014D01*
G01*
X18300000Y-5700000D02*
X20300000Y-5700000D01*
X10800000Y-4687500D02*
G75*
G02*
X10900000Y-4587500I100000J0D01*
G01*
X12600000Y-4475000D02*
X12600000Y-4487500D01*
X14600000Y-4912500D02*
X14600000Y-4475000D01*
X14700000Y-5012500D02*
G75*
G02*
X14600000Y-4912500I0J100000D01*
G01*
X12600000Y-4487500D02*
G75*
G02*
X12500000Y-4587500I-100000J0D01*
G01*
X20400000Y-11990591D02*
G75*
G02*
X20386603Y-12040592I-100010J2D01*
G01*
X18100000Y-5225000D02*
X16500000Y-5225000D01*
X12591898Y-10950000D02*
G75*
G02*
X12667400Y-10984432I2J-99990D01*
G01*
X16400000Y-5125000D02*
X16400000Y-5112500D01*
X14019936Y-12541896D02*
X12667401Y-10984431D01*
X16300000Y-5012500D02*
X14700000Y-5012500D01*
X20300000Y-5700000D02*
G75*
G02*
X20400000Y-5800000I0J-100000D01*
G01*
X14500000Y-4375000D02*
G75*
G02*
X14600000Y-4475000I0J-100000D01*
G01*
X10800000Y-4687500D02*
X10800000Y-5550000D01*
X16300000Y-5012500D02*
G75*
G02*
X16400000Y-5112500I0J-100000D01*
G01*
X18100000Y-5225000D02*
G75*
G02*
X18200000Y-5325000I0J-100000D01*
G01*
X16500000Y-5225000D02*
G75*
G02*
X16400000Y-5125000I0J100000D01*
G01*
D11*
D12*
X10052370Y-7131300D02*
X10082370Y-7161300D01*
X10082370Y-7131300D02*
X10052370Y-7161300D01*
X10058240Y-8698120D02*
X10088240Y-8728120D01*
X10088240Y-8698120D02*
X10058240Y-8728120D01*
X10246600Y-10497460D02*
X10276600Y-10527460D01*
X10276600Y-10497460D02*
X10246600Y-10527460D01*
X10258100Y-6215770D02*
X10288100Y-6245770D01*
X10288100Y-6215770D02*
X10258100Y-6245770D01*
X10276060Y-7454310D02*
X10306060Y-7484310D01*
X10306060Y-7454310D02*
X10276060Y-7484310D01*
X10312500Y-9207210D02*
X10342500Y-9237210D01*
X10342500Y-9207210D02*
X10312500Y-9237210D01*
X11165250Y-6049980D02*
X11195250Y-6079980D01*
X11195250Y-6049980D02*
X11165250Y-6079980D01*
X11535240Y-7059940D02*
X11565240Y-7089940D01*
X11565240Y-7059940D02*
X11535240Y-7089940D01*
X11852560Y-7687570D02*
X11882560Y-7717570D01*
X11882560Y-7687570D02*
X11852560Y-7717570D01*
X11937570Y-8534100D02*
X11967570Y-8564100D01*
X11967570Y-8534100D02*
X11937570Y-8564100D01*
X11950000Y-5909140D02*
X11980000Y-5939140D01*
X11980000Y-5909140D02*
X11950000Y-5939140D01*
X12040510Y-9331990D02*
X12070510Y-9361990D01*
X12070510Y-9331990D02*
X12040510Y-9361990D01*
X12079750Y-6266160D02*
X12109750Y-6296160D01*
X12109750Y-6266160D02*
X12079750Y-6296160D01*
X13762250Y-7399310D02*
X13792250Y-7429310D01*
X13792250Y-7399310D02*
X13762250Y-7429310D01*
X13772930Y-5698540D02*
X13802930Y-5728540D01*
X13802930Y-5698540D02*
X13772930Y-5728540D01*
X13845260Y-9208980D02*
X13875260Y-9238980D01*
X13875260Y-9208980D02*
X13845260Y-9238980D01*
X13859510Y-4924760D02*
X13889510Y-4954760D01*
X13889510Y-4924760D02*
X13859510Y-4954760D01*
X13874220Y-6211750D02*
X13904220Y-6241750D01*
X13904220Y-6211750D02*
X13874220Y-6241750D01*
X13874220Y-7806780D02*
X13904220Y-7836780D01*
X13904220Y-7806780D02*
X13874220Y-7836780D01*
X14685190Y-10822130D02*
X14715190Y-10852130D01*
X14715190Y-10822130D02*
X14685190Y-10852130D01*
X15285690Y-12096710D02*
X15315690Y-12126710D01*
X15315690Y-12096710D02*
X15285690Y-12126710D01*
X15520010Y-6335360D02*
X15550010Y-6365360D01*
X15550010Y-6335360D02*
X15520010Y-6365360D01*
X15550000Y-6691200D02*
X15580000Y-6721200D01*
X15580000Y-6691200D02*
X15550000Y-6721200D01*
X15589370Y-9020850D02*
X15619370Y-9050850D01*
X15619370Y-9020850D02*
X15589370Y-9050850D01*
X15645190Y-9827950D02*
X15675190Y-9857950D01*
X15675190Y-9827950D02*
X15645190Y-9857950D01*
X15645340Y-8167890D02*
X15675340Y-8197890D01*
X15675340Y-8167890D02*
X15645340Y-8197890D01*
X15674220Y-6830200D02*
X15704220Y-6860200D01*
X15704220Y-6830200D02*
X15674220Y-6860200D01*
X15712500Y-5110500D02*
X15742500Y-5140500D01*
X15742500Y-5110500D02*
X15712500Y-5140500D01*
X17130030Y-12294250D02*
X17160030Y-12324250D01*
X17160030Y-12294250D02*
X17130030Y-12324250D01*
X17251020Y-10083810D02*
X17281020Y-10113810D01*
X17281020Y-10083810D02*
X17251020Y-10113810D01*
X17253140Y-8398230D02*
X17283140Y-8428230D01*
X17283140Y-8398230D02*
X17253140Y-8428230D01*
X17253810Y-6670780D02*
X17283810Y-6700780D01*
X17283810Y-6670780D02*
X17253810Y-6700780D01*
X17457610Y-7527380D02*
X17487610Y-7557380D01*
X17487610Y-7527380D02*
X17457610Y-7557380D01*
X17484670Y-11029730D02*
X17514670Y-11059730D01*
X17514670Y-11029730D02*
X17484670Y-11059730D01*
X17512500Y-5342190D02*
X17542500Y-5372190D01*
X17542500Y-5342190D02*
X17512500Y-5372190D01*
X17518120Y-6753950D02*
X17548120Y-6783950D01*
X17548120Y-6753950D02*
X17518120Y-6783950D01*
X17672670Y-8728910D02*
X17702670Y-8758910D01*
X17702670Y-8728910D02*
X17672670Y-8758910D01*
X17929730Y-6006080D02*
X17959730Y-6036080D01*
X17959730Y-6006080D02*
X17929730Y-6036080D01*
X18125780Y-10501430D02*
X18155780Y-10531430D01*
X18155780Y-10501430D02*
X18125780Y-10531430D01*
X18248110Y-8128660D02*
X18278110Y-8158660D01*
X18278110Y-8128660D02*
X18248110Y-8158660D01*
X18658350Y-9227730D02*
X18688350Y-9257730D01*
X18688350Y-9227730D02*
X18658350Y-9257730D01*
X18847000Y-13217660D02*
X18877000Y-13247660D01*
X18877000Y-13217660D02*
X18847000Y-13247660D01*
X19249530Y-8716220D02*
X19279530Y-8746220D01*
X19279530Y-8716220D02*
X19249530Y-8746220D01*
X19408020Y-9744360D02*
X19438020Y-9774360D01*
X19438020Y-9744360D02*
X19408020Y-9774360D01*
X19462210Y-10097480D02*
X19492210Y-10127480D01*
X19492210Y-10097480D02*
X19462210Y-10127480D01*
X19550760Y-11720050D02*
X19580760Y-11750050D01*
X19580760Y-11720050D02*
X19550760Y-11750050D01*
X19666000Y-9583210D02*
X19696000Y-9613210D01*
X19696000Y-9583210D02*
X19666000Y-9613210D01*
X19702830Y-9831350D02*
X19732830Y-9861350D01*
X19732830Y-9831350D02*
X19702830Y-9861350D01*
X19883110Y-10810000D02*
X19913110Y-10840000D01*
X19913110Y-10810000D02*
X19883110Y-10840000D01*
X19903930Y-10510000D02*
X19933930Y-10540000D01*
X19933930Y-10510000D02*
X19903930Y-10540000D01*
X20258000Y-6736330D02*
X20288000Y-6766330D01*
X20288000Y-6736330D02*
X20258000Y-6766330D01*
X18980000Y-6104500D02*
G75*
G02*
X18940000Y-6104500I-20000J0D01*
G01*
X18940000Y-6104500D02*
G75*
G02*
X18980000Y-6104500I20000J0D01*
G01*
X18980000Y-6358500D02*
G75*
G02*
X18940000Y-6358500I-20000J0D01*
G01*
X18940000Y-6358500D02*
G75*
G02*
X18980000Y-6358500I20000J0D01*
G01*
X18980000Y-6612500D02*
G75*
G02*
X18940000Y-6612500I-20000J0D01*
G01*
X18940000Y-6612500D02*
G75*
G02*
X18980000Y-6612500I20000J0D01*
G01*
X18980000Y-6866500D02*
G75*
G02*
X18940000Y-6866500I-20000J0D01*
G01*
X18940000Y-6866500D02*
G75*
G02*
X18980000Y-6866500I20000J0D01*
G01*
X18980000Y-7120500D02*
G75*
G02*
X18940000Y-7120500I-20000J0D01*
G01*
X18940000Y-7120500D02*
G75*
G02*
X18980000Y-7120500I20000J0D01*
G01*
X18980000Y-7374500D02*
G75*
G02*
X18940000Y-7374500I-20000J0D01*
G01*
X18940000Y-7374500D02*
G75*
G02*
X18980000Y-7374500I20000J0D01*
G01*
X18980000Y-7628500D02*
G75*
G02*
X18940000Y-7628500I-20000J0D01*
G01*
X18940000Y-7628500D02*
G75*
G02*
X18980000Y-7628500I20000J0D01*
G01*
X18980000Y-7882500D02*
G75*
G02*
X18940000Y-7882500I-20000J0D01*
G01*
X18940000Y-7882500D02*
G75*
G02*
X18980000Y-7882500I20000J0D01*
G01*
X18980000Y-8136500D02*
G75*
G02*
X18940000Y-8136500I-20000J0D01*
G01*
X18940000Y-8136500D02*
G75*
G02*
X18980000Y-8136500I20000J0D01*
G01*
X18980000Y-8390500D02*
G75*
G02*
X18940000Y-8390500I-20000J0D01*
G01*
X18940000Y-8390500D02*
G75*
G02*
X18980000Y-8390500I20000J0D01*
G01*
X18980000Y-8644500D02*
G75*
G02*
X18940000Y-8644500I-20000J0D01*
G01*
X18940000Y-8644500D02*
G75*
G02*
X18980000Y-8644500I20000J0D01*
G01*
X18980000Y-8898500D02*
G75*
G02*
X18940000Y-8898500I-20000J0D01*
G01*
X18940000Y-8898500D02*
G75*
G02*
X18980000Y-8898500I20000J0D01*
G01*
X19660000Y-6104500D02*
G75*
G02*
X19620000Y-6104500I-20000J0D01*
G01*
X19620000Y-6104500D02*
G75*
G02*
X19660000Y-6104500I20000J0D01*
G01*
X19660000Y-6358500D02*
G75*
G02*
X19620000Y-6358500I-20000J0D01*
G01*
X19620000Y-6358500D02*
G75*
G02*
X19660000Y-6358500I20000J0D01*
G01*
X19660000Y-6612500D02*
G75*
G02*
X19620000Y-6612500I-20000J0D01*
G01*
X19620000Y-6612500D02*
G75*
G02*
X19660000Y-6612500I20000J0D01*
G01*
X19660000Y-6866500D02*
G75*
G02*
X19620000Y-6866500I-20000J0D01*
G01*
X19620000Y-6866500D02*
G75*
G02*
X19660000Y-6866500I20000J0D01*
G01*
X19660000Y-7120500D02*
G75*
G02*
X19620000Y-7120500I-20000J0D01*
G01*
X19620000Y-7120500D02*
G75*
G02*
X19660000Y-7120500I20000J0D01*
G01*
X19660000Y-7374500D02*
G75*
G02*
X19620000Y-7374500I-20000J0D01*
G01*
X19620000Y-7374500D02*
G75*
G02*
X19660000Y-7374500I20000J0D01*
G01*
X19660000Y-7628500D02*
G75*
G02*
X19620000Y-7628500I-20000J0D01*
G01*
X19620000Y-7628500D02*
G75*
G02*
X19660000Y-7628500I20000J0D01*
G01*
X19660000Y-7882500D02*
G75*
G02*
X19620000Y-7882500I-20000J0D01*
G01*
X19620000Y-7882500D02*
G75*
G02*
X19660000Y-7882500I20000J0D01*
G01*
X19660000Y-8136500D02*
G75*
G02*
X19620000Y-8136500I-20000J0D01*
G01*
X19620000Y-8136500D02*
G75*
G02*
X19660000Y-8136500I20000J0D01*
G01*
X19660000Y-8390500D02*
G75*
G02*
X19620000Y-8390500I-20000J0D01*
G01*
X19620000Y-8390500D02*
G75*
G02*
X19660000Y-8390500I20000J0D01*
G01*
X19660000Y-8644500D02*
G75*
G02*
X19620000Y-8644500I-20000J0D01*
G01*
X19620000Y-8644500D02*
G75*
G02*
X19660000Y-8644500I20000J0D01*
G01*
X19660000Y-8898500D02*
G75*
G02*
X19620000Y-8898500I-20000J0D01*
G01*
X19620000Y-8898500D02*
G75*
G02*
X19660000Y-8898500I20000J0D01*
G01*
X19700000Y-10225000D02*
X19700000Y-10300000D01*
X19662500Y-10262500D02*
X19737500Y-10262500D01*
X19700000Y-10425000D02*
X19700000Y-10500000D01*
X19662500Y-10462500D02*
X19737500Y-10462500D01*
X18573356Y-6139856D02*
X18573356Y-6069144D01*
X18502644Y-6069144D01*
X18502644Y-6139856D01*
X18573356Y-6139856D01*
X18573356Y-6393856D02*
X18573356Y-6323144D01*
X18502644Y-6323144D01*
X18502644Y-6393856D01*
X18573356Y-6393856D01*
X18573356Y-6647856D02*
X18573356Y-6577144D01*
X18502644Y-6577144D01*
X18502644Y-6647856D01*
X18573356Y-6647856D01*
X18573356Y-6901856D02*
X18573356Y-6831144D01*
X18502644Y-6831144D01*
X18502644Y-6901856D01*
X18573356Y-6901856D01*
X18573356Y-7155856D02*
X18573356Y-7085144D01*
X18502644Y-7085144D01*
X18502644Y-7155856D01*
X18573356Y-7155856D01*
X18573356Y-7409856D02*
X18573356Y-7339144D01*
X18502644Y-7339144D01*
X18502644Y-7409856D01*
X18573356Y-7409856D01*
X18573356Y-7663856D02*
X18573356Y-7593144D01*
X18502644Y-7593144D01*
X18502644Y-7663856D01*
X18573356Y-7663856D01*
X18573356Y-7917856D02*
X18573356Y-7847144D01*
X18502644Y-7847144D01*
X18502644Y-7917856D01*
X18573356Y-7917856D01*
X18573356Y-8171856D02*
X18573356Y-8101144D01*
X18502644Y-8101144D01*
X18502644Y-8171856D01*
X18573356Y-8171856D01*
X18573356Y-8425856D02*
X18573356Y-8355144D01*
X18502644Y-8355144D01*
X18502644Y-8425856D01*
X18573356Y-8425856D01*
X18573356Y-8679856D02*
X18573356Y-8609144D01*
X18502644Y-8609144D01*
X18502644Y-8679856D01*
X18573356Y-8679856D01*
X18573356Y-8933856D02*
X18573356Y-8863144D01*
X18502644Y-8863144D01*
X18502644Y-8933856D01*
X18573356Y-8933856D01*
X18827356Y-9442856D02*
X18827356Y-9372144D01*
X18756644Y-9372144D01*
X18756644Y-9442856D01*
X18827356Y-9442856D01*
X19081356Y-9442856D02*
X19081356Y-9372144D01*
X19010644Y-9372144D01*
X19010644Y-9442856D01*
X19081356Y-9442856D01*
X19335356Y-9442856D02*
X19335356Y-9372144D01*
X19264644Y-9372144D01*
X19264644Y-9442856D01*
X19335356Y-9442856D01*
X19589356Y-9442856D02*
X19589356Y-9372144D01*
X19518644Y-9372144D01*
X19518644Y-9442856D01*
X19589356Y-9442856D01*
X19843356Y-9442856D02*
X19843356Y-9372144D01*
X19772644Y-9372144D01*
X19772644Y-9442856D01*
X19843356Y-9442856D01*
X20097356Y-6139856D02*
X20097356Y-6069144D01*
X20026644Y-6069144D01*
X20026644Y-6139856D01*
X20097356Y-6139856D01*
X20097356Y-6393856D02*
X20097356Y-6323144D01*
X20026644Y-6323144D01*
X20026644Y-6393856D01*
X20097356Y-6393856D01*
X20097356Y-6647856D02*
X20097356Y-6577144D01*
X20026644Y-6577144D01*
X20026644Y-6647856D01*
X20097356Y-6647856D01*
X20097356Y-6901856D02*
X20097356Y-6831144D01*
X20026644Y-6831144D01*
X20026644Y-6901856D01*
X20097356Y-6901856D01*
X20097356Y-7155856D02*
X20097356Y-7085144D01*
X20026644Y-7085144D01*
X20026644Y-7155856D01*
X20097356Y-7155856D01*
X20097356Y-7409856D02*
X20097356Y-7339144D01*
X20026644Y-7339144D01*
X20026644Y-7409856D01*
X20097356Y-7409856D01*
X20097356Y-7663856D02*
X20097356Y-7593144D01*
X20026644Y-7593144D01*
X20026644Y-7663856D01*
X20097356Y-7663856D01*
X20097356Y-7917856D02*
X20097356Y-7847144D01*
X20026644Y-7847144D01*
X20026644Y-7917856D01*
X20097356Y-7917856D01*
X20097356Y-8171856D02*
X20097356Y-8101144D01*
X20026644Y-8101144D01*
X20026644Y-8171856D01*
X20097356Y-8171856D01*
X20097356Y-8425856D02*
X20097356Y-8355144D01*
X20026644Y-8355144D01*
X20026644Y-8425856D01*
X20097356Y-8425856D01*
X20097356Y-8679856D02*
X20097356Y-8609144D01*
X20026644Y-8609144D01*
X20026644Y-8679856D01*
X20097356Y-8679856D01*
X20097356Y-8933856D02*
X20097356Y-8863144D01*
X20026644Y-8863144D01*
X20026644Y-8933856D01*
X20097356Y-8933856D01*
D13*
X20190000Y-9390000D02*
X20255000Y-9325000D01*
X20190000Y-9260000D01*
X20125000Y-9325000D01*
X20190000Y-9390000D01*
X20190000Y-10040000D02*
X20255000Y-9975000D01*
X20190000Y-9910000D01*
X20125000Y-9975000D01*
X20190000Y-10040000D01*
D11*
X9253277Y-14270008D02*
X9253277Y-14070008D01*
X9253277Y-14070008D02*
X9300896Y-14070008D01*
X9300896Y-14070008D02*
X9329467Y-14079532D01*
X9329467Y-14079532D02*
X9348515Y-14098580D01*
X9348515Y-14098580D02*
X9358039Y-14117627D01*
X9358039Y-14117627D02*
X9367563Y-14155723D01*
X9367563Y-14155723D02*
X9367563Y-14184294D01*
X9367563Y-14184294D02*
X9358039Y-14222389D01*
X9358039Y-14222389D02*
X9348515Y-14241437D01*
X9348515Y-14241437D02*
X9329467Y-14260485D01*
X9329467Y-14260485D02*
X9300896Y-14270008D01*
X9300896Y-14270008D02*
X9253277Y-14270008D01*
X9453277Y-14270008D02*
X9453277Y-14136675D01*
X9453277Y-14174770D02*
X9462801Y-14155723D01*
X9462801Y-14155723D02*
X9472324Y-14146199D01*
X9472324Y-14146199D02*
X9491372Y-14136675D01*
X9491372Y-14136675D02*
X9510420Y-14136675D01*
X9577086Y-14270008D02*
X9577086Y-14136675D01*
X9577086Y-14070008D02*
X9567563Y-14079532D01*
X9567563Y-14079532D02*
X9577086Y-14089056D01*
X9577086Y-14089056D02*
X9586610Y-14079532D01*
X9586610Y-14079532D02*
X9577086Y-14070008D01*
X9577086Y-14070008D02*
X9577086Y-14089056D01*
X9700896Y-14270008D02*
X9681848Y-14260485D01*
X9681848Y-14260485D02*
X9672324Y-14241437D01*
X9672324Y-14241437D02*
X9672324Y-14070008D01*
X9805658Y-14270008D02*
X9786610Y-14260485D01*
X9786610Y-14260485D02*
X9777086Y-14241437D01*
X9777086Y-14241437D02*
X9777086Y-14070008D01*
X10034229Y-14270008D02*
X10034229Y-14070008D01*
X10034229Y-14070008D02*
X10100896Y-14212865D01*
X10100896Y-14212865D02*
X10167563Y-14070008D01*
X10167563Y-14070008D02*
X10167563Y-14270008D01*
X10348515Y-14270008D02*
X10348515Y-14165246D01*
X10348515Y-14165246D02*
X10338991Y-14146199D01*
X10338991Y-14146199D02*
X10319944Y-14136675D01*
X10319944Y-14136675D02*
X10281848Y-14136675D01*
X10281848Y-14136675D02*
X10262801Y-14146199D01*
X10348515Y-14260485D02*
X10329467Y-14270008D01*
X10329467Y-14270008D02*
X10281848Y-14270008D01*
X10281848Y-14270008D02*
X10262801Y-14260485D01*
X10262801Y-14260485D02*
X10253277Y-14241437D01*
X10253277Y-14241437D02*
X10253277Y-14222389D01*
X10253277Y-14222389D02*
X10262801Y-14203342D01*
X10262801Y-14203342D02*
X10281848Y-14193818D01*
X10281848Y-14193818D02*
X10329467Y-14193818D01*
X10329467Y-14193818D02*
X10348515Y-14184294D01*
X10443753Y-14136675D02*
X10443753Y-14336675D01*
X10443753Y-14146199D02*
X10462801Y-14136675D01*
X10462801Y-14136675D02*
X10500896Y-14136675D01*
X10500896Y-14136675D02*
X10519944Y-14146199D01*
X10519944Y-14146199D02*
X10529467Y-14155723D01*
X10529467Y-14155723D02*
X10538991Y-14174770D01*
X10538991Y-14174770D02*
X10538991Y-14231913D01*
X10538991Y-14231913D02*
X10529467Y-14250961D01*
X10529467Y-14250961D02*
X10519944Y-14260485D01*
X10519944Y-14260485D02*
X10500896Y-14270008D01*
X10500896Y-14270008D02*
X10462801Y-14270008D01*
X10462801Y-14270008D02*
X10443753Y-14260485D01*
X10624705Y-14250961D02*
X10634229Y-14260485D01*
X10634229Y-14260485D02*
X10624705Y-14270008D01*
X10624705Y-14270008D02*
X10615182Y-14260485D01*
X10615182Y-14260485D02*
X10624705Y-14250961D01*
X10624705Y-14250961D02*
X10624705Y-14270008D01*
X10624705Y-14146199D02*
X10634229Y-14155723D01*
X10634229Y-14155723D02*
X10624705Y-14165246D01*
X10624705Y-14165246D02*
X10615182Y-14155723D01*
X10615182Y-14155723D02*
X10624705Y-14146199D01*
X10624705Y-14146199D02*
X10624705Y-14165246D01*
D12*
X8962500Y-14583525D02*
X8992500Y-14613525D01*
X8992500Y-14583525D02*
X8962500Y-14613525D01*
D11*
X9291372Y-14490008D02*
X9310420Y-14490008D01*
X9310420Y-14490008D02*
X9329467Y-14499532D01*
X9329467Y-14499532D02*
X9338991Y-14509056D01*
X9338991Y-14509056D02*
X9348515Y-14528104D01*
X9348515Y-14528104D02*
X9358039Y-14566199D01*
X9358039Y-14566199D02*
X9358039Y-14613818D01*
X9358039Y-14613818D02*
X9348515Y-14651913D01*
X9348515Y-14651913D02*
X9338991Y-14670961D01*
X9338991Y-14670961D02*
X9329467Y-14680485D01*
X9329467Y-14680485D02*
X9310420Y-14690008D01*
X9310420Y-14690008D02*
X9291372Y-14690008D01*
X9291372Y-14690008D02*
X9272324Y-14680485D01*
X9272324Y-14680485D02*
X9262801Y-14670961D01*
X9262801Y-14670961D02*
X9253277Y-14651913D01*
X9253277Y-14651913D02*
X9243753Y-14613818D01*
X9243753Y-14613818D02*
X9243753Y-14566199D01*
X9243753Y-14566199D02*
X9253277Y-14528104D01*
X9253277Y-14528104D02*
X9262801Y-14509056D01*
X9262801Y-14509056D02*
X9272324Y-14499532D01*
X9272324Y-14499532D02*
X9291372Y-14490008D01*
X9443753Y-14670961D02*
X9453277Y-14680485D01*
X9453277Y-14680485D02*
X9443753Y-14690008D01*
X9443753Y-14690008D02*
X9434229Y-14680485D01*
X9434229Y-14680485D02*
X9443753Y-14670961D01*
X9443753Y-14670961D02*
X9443753Y-14690008D01*
X9519944Y-14490008D02*
X9643753Y-14490008D01*
X9643753Y-14490008D02*
X9577086Y-14566199D01*
X9577086Y-14566199D02*
X9605658Y-14566199D01*
X9605658Y-14566199D02*
X9624705Y-14575723D01*
X9624705Y-14575723D02*
X9634229Y-14585246D01*
X9634229Y-14585246D02*
X9643753Y-14604294D01*
X9643753Y-14604294D02*
X9643753Y-14651913D01*
X9643753Y-14651913D02*
X9634229Y-14670961D01*
X9634229Y-14670961D02*
X9624705Y-14680485D01*
X9624705Y-14680485D02*
X9605658Y-14690008D01*
X9605658Y-14690008D02*
X9548515Y-14690008D01*
X9548515Y-14690008D02*
X9529467Y-14680485D01*
X9529467Y-14680485D02*
X9519944Y-14670961D01*
X9767563Y-14490008D02*
X9786610Y-14490008D01*
X9786610Y-14490008D02*
X9805658Y-14499532D01*
X9805658Y-14499532D02*
X9815182Y-14509056D01*
X9815182Y-14509056D02*
X9824705Y-14528104D01*
X9824705Y-14528104D02*
X9834229Y-14566199D01*
X9834229Y-14566199D02*
X9834229Y-14613818D01*
X9834229Y-14613818D02*
X9824705Y-14651913D01*
X9824705Y-14651913D02*
X9815182Y-14670961D01*
X9815182Y-14670961D02*
X9805658Y-14680485D01*
X9805658Y-14680485D02*
X9786610Y-14690008D01*
X9786610Y-14690008D02*
X9767563Y-14690008D01*
X9767563Y-14690008D02*
X9748515Y-14680485D01*
X9748515Y-14680485D02*
X9738991Y-14670961D01*
X9738991Y-14670961D02*
X9729467Y-14651913D01*
X9729467Y-14651913D02*
X9719944Y-14613818D01*
X9719944Y-14613818D02*
X9719944Y-14566199D01*
X9719944Y-14566199D02*
X9729467Y-14528104D01*
X9729467Y-14528104D02*
X9738991Y-14509056D01*
X9738991Y-14509056D02*
X9748515Y-14499532D01*
X9748515Y-14499532D02*
X9767563Y-14490008D01*
X9958039Y-14490008D02*
X9977086Y-14490008D01*
X9977086Y-14490008D02*
X9996134Y-14499532D01*
X9996134Y-14499532D02*
X10005658Y-14509056D01*
X10005658Y-14509056D02*
X10015182Y-14528104D01*
X10015182Y-14528104D02*
X10024705Y-14566199D01*
X10024705Y-14566199D02*
X10024705Y-14613818D01*
X10024705Y-14613818D02*
X10015182Y-14651913D01*
X10015182Y-14651913D02*
X10005658Y-14670961D01*
X10005658Y-14670961D02*
X9996134Y-14680485D01*
X9996134Y-14680485D02*
X9977086Y-14690008D01*
X9977086Y-14690008D02*
X9958039Y-14690008D01*
X9958039Y-14690008D02*
X9938991Y-14680485D01*
X9938991Y-14680485D02*
X9929467Y-14670961D01*
X9929467Y-14670961D02*
X9919944Y-14651913D01*
X9919944Y-14651913D02*
X9910420Y-14613818D01*
X9910420Y-14613818D02*
X9910420Y-14566199D01*
X9910420Y-14566199D02*
X9919944Y-14528104D01*
X9919944Y-14528104D02*
X9929467Y-14509056D01*
X9929467Y-14509056D02*
X9938991Y-14499532D01*
X9938991Y-14499532D02*
X9958039Y-14490008D01*
X10110420Y-14690008D02*
X10110420Y-14556675D01*
X10110420Y-14575723D02*
X10119944Y-14566199D01*
X10119944Y-14566199D02*
X10138991Y-14556675D01*
X10138991Y-14556675D02*
X10167563Y-14556675D01*
X10167563Y-14556675D02*
X10186610Y-14566199D01*
X10186610Y-14566199D02*
X10196134Y-14585246D01*
X10196134Y-14585246D02*
X10196134Y-14690008D01*
X10196134Y-14585246D02*
X10205658Y-14566199D01*
X10205658Y-14566199D02*
X10224705Y-14556675D01*
X10224705Y-14556675D02*
X10253277Y-14556675D01*
X10253277Y-14556675D02*
X10272325Y-14566199D01*
X10272325Y-14566199D02*
X10281848Y-14585246D01*
X10281848Y-14585246D02*
X10281848Y-14690008D01*
X10377086Y-14690008D02*
X10377086Y-14556675D01*
X10377086Y-14575723D02*
X10386610Y-14566199D01*
X10386610Y-14566199D02*
X10405658Y-14556675D01*
X10405658Y-14556675D02*
X10434229Y-14556675D01*
X10434229Y-14556675D02*
X10453277Y-14566199D01*
X10453277Y-14566199D02*
X10462801Y-14585246D01*
X10462801Y-14585246D02*
X10462801Y-14690008D01*
X10462801Y-14585246D02*
X10472325Y-14566199D01*
X10472325Y-14566199D02*
X10491372Y-14556675D01*
X10491372Y-14556675D02*
X10519944Y-14556675D01*
X10519944Y-14556675D02*
X10538991Y-14566199D01*
X10538991Y-14566199D02*
X10548515Y-14585246D01*
X10548515Y-14585246D02*
X10548515Y-14690008D01*
X10938991Y-14480485D02*
X10767563Y-14737627D01*
X11196134Y-14490008D02*
X11215182Y-14490008D01*
X11215182Y-14490008D02*
X11234229Y-14499532D01*
X11234229Y-14499532D02*
X11243753Y-14509056D01*
X11243753Y-14509056D02*
X11253277Y-14528104D01*
X11253277Y-14528104D02*
X11262801Y-14566199D01*
X11262801Y-14566199D02*
X11262801Y-14613818D01*
X11262801Y-14613818D02*
X11253277Y-14651913D01*
X11253277Y-14651913D02*
X11243753Y-14670961D01*
X11243753Y-14670961D02*
X11234229Y-14680485D01*
X11234229Y-14680485D02*
X11215182Y-14690008D01*
X11215182Y-14690008D02*
X11196134Y-14690008D01*
X11196134Y-14690008D02*
X11177087Y-14680485D01*
X11177087Y-14680485D02*
X11167563Y-14670961D01*
X11167563Y-14670961D02*
X11158039Y-14651913D01*
X11158039Y-14651913D02*
X11148515Y-14613818D01*
X11148515Y-14613818D02*
X11148515Y-14566199D01*
X11148515Y-14566199D02*
X11158039Y-14528104D01*
X11158039Y-14528104D02*
X11167563Y-14509056D01*
X11167563Y-14509056D02*
X11177087Y-14499532D01*
X11177087Y-14499532D02*
X11196134Y-14490008D01*
X11348515Y-14670961D02*
X11358039Y-14680485D01*
X11358039Y-14680485D02*
X11348515Y-14690008D01*
X11348515Y-14690008D02*
X11338991Y-14680485D01*
X11338991Y-14680485D02*
X11348515Y-14670961D01*
X11348515Y-14670961D02*
X11348515Y-14690008D01*
X11481848Y-14490008D02*
X11500896Y-14490008D01*
X11500896Y-14490008D02*
X11519944Y-14499532D01*
X11519944Y-14499532D02*
X11529467Y-14509056D01*
X11529467Y-14509056D02*
X11538991Y-14528104D01*
X11538991Y-14528104D02*
X11548515Y-14566199D01*
X11548515Y-14566199D02*
X11548515Y-14613818D01*
X11548515Y-14613818D02*
X11538991Y-14651913D01*
X11538991Y-14651913D02*
X11529467Y-14670961D01*
X11529467Y-14670961D02*
X11519944Y-14680485D01*
X11519944Y-14680485D02*
X11500896Y-14690008D01*
X11500896Y-14690008D02*
X11481848Y-14690008D01*
X11481848Y-14690008D02*
X11462801Y-14680485D01*
X11462801Y-14680485D02*
X11453277Y-14670961D01*
X11453277Y-14670961D02*
X11443753Y-14651913D01*
X11443753Y-14651913D02*
X11434229Y-14613818D01*
X11434229Y-14613818D02*
X11434229Y-14566199D01*
X11434229Y-14566199D02*
X11443753Y-14528104D01*
X11443753Y-14528104D02*
X11453277Y-14509056D01*
X11453277Y-14509056D02*
X11462801Y-14499532D01*
X11462801Y-14499532D02*
X11481848Y-14490008D01*
X11738991Y-14690008D02*
X11624706Y-14690008D01*
X11681848Y-14690008D02*
X11681848Y-14490008D01*
X11681848Y-14490008D02*
X11662801Y-14518580D01*
X11662801Y-14518580D02*
X11643753Y-14537627D01*
X11643753Y-14537627D02*
X11624706Y-14547151D01*
X11929467Y-14690008D02*
X11815182Y-14690008D01*
X11872325Y-14690008D02*
X11872325Y-14490008D01*
X11872325Y-14490008D02*
X11853277Y-14518580D01*
X11853277Y-14518580D02*
X11834229Y-14537627D01*
X11834229Y-14537627D02*
X11815182Y-14547151D01*
X12043753Y-14575723D02*
X12024706Y-14566199D01*
X12024706Y-14566199D02*
X12015182Y-14556675D01*
X12015182Y-14556675D02*
X12005658Y-14537627D01*
X12005658Y-14537627D02*
X12005658Y-14528104D01*
X12005658Y-14528104D02*
X12015182Y-14509056D01*
X12015182Y-14509056D02*
X12024706Y-14499532D01*
X12024706Y-14499532D02*
X12043753Y-14490008D01*
X12043753Y-14490008D02*
X12081848Y-14490008D01*
X12081848Y-14490008D02*
X12100896Y-14499532D01*
X12100896Y-14499532D02*
X12110420Y-14509056D01*
X12110420Y-14509056D02*
X12119944Y-14528104D01*
X12119944Y-14528104D02*
X12119944Y-14537627D01*
X12119944Y-14537627D02*
X12110420Y-14556675D01*
X12110420Y-14556675D02*
X12100896Y-14566199D01*
X12100896Y-14566199D02*
X12081848Y-14575723D01*
X12081848Y-14575723D02*
X12043753Y-14575723D01*
X12043753Y-14575723D02*
X12024706Y-14585246D01*
X12024706Y-14585246D02*
X12015182Y-14594770D01*
X12015182Y-14594770D02*
X12005658Y-14613818D01*
X12005658Y-14613818D02*
X12005658Y-14651913D01*
X12005658Y-14651913D02*
X12015182Y-14670961D01*
X12015182Y-14670961D02*
X12024706Y-14680485D01*
X12024706Y-14680485D02*
X12043753Y-14690008D01*
X12043753Y-14690008D02*
X12081848Y-14690008D01*
X12081848Y-14690008D02*
X12100896Y-14680485D01*
X12100896Y-14680485D02*
X12110420Y-14670961D01*
X12110420Y-14670961D02*
X12119944Y-14651913D01*
X12119944Y-14651913D02*
X12119944Y-14613818D01*
X12119944Y-14613818D02*
X12110420Y-14594770D01*
X12110420Y-14594770D02*
X12100896Y-14585246D01*
X12100896Y-14585246D02*
X12081848Y-14575723D01*
X12196134Y-14490008D02*
X12196134Y-14528104D01*
X12272325Y-14490008D02*
X12272325Y-14528104D01*
X12567563Y-14766199D02*
X12558039Y-14756675D01*
X12558039Y-14756675D02*
X12538991Y-14728104D01*
X12538991Y-14728104D02*
X12529468Y-14709056D01*
X12529468Y-14709056D02*
X12519944Y-14680485D01*
X12519944Y-14680485D02*
X12510420Y-14632865D01*
X12510420Y-14632865D02*
X12510420Y-14594770D01*
X12510420Y-14594770D02*
X12519944Y-14547151D01*
X12519944Y-14547151D02*
X12529468Y-14518580D01*
X12529468Y-14518580D02*
X12538991Y-14499532D01*
X12538991Y-14499532D02*
X12558039Y-14470961D01*
X12558039Y-14470961D02*
X12567563Y-14461437D01*
X12738991Y-14490008D02*
X12643753Y-14490008D01*
X12643753Y-14490008D02*
X12634229Y-14585246D01*
X12634229Y-14585246D02*
X12643753Y-14575723D01*
X12643753Y-14575723D02*
X12662801Y-14566199D01*
X12662801Y-14566199D02*
X12710420Y-14566199D01*
X12710420Y-14566199D02*
X12729468Y-14575723D01*
X12729468Y-14575723D02*
X12738991Y-14585246D01*
X12738991Y-14585246D02*
X12748515Y-14604294D01*
X12748515Y-14604294D02*
X12748515Y-14651913D01*
X12748515Y-14651913D02*
X12738991Y-14670961D01*
X12738991Y-14670961D02*
X12729468Y-14680485D01*
X12729468Y-14680485D02*
X12710420Y-14690008D01*
X12710420Y-14690008D02*
X12662801Y-14690008D01*
X12662801Y-14690008D02*
X12643753Y-14680485D01*
X12643753Y-14680485D02*
X12634229Y-14670961D01*
X12938991Y-14690008D02*
X12824706Y-14690008D01*
X12881848Y-14690008D02*
X12881848Y-14490008D01*
X12881848Y-14490008D02*
X12862801Y-14518580D01*
X12862801Y-14518580D02*
X12843753Y-14537627D01*
X12843753Y-14537627D02*
X12824706Y-14547151D01*
X13177087Y-14690008D02*
X13177087Y-14490008D01*
X13262801Y-14690008D02*
X13262801Y-14585246D01*
X13262801Y-14585246D02*
X13253277Y-14566199D01*
X13253277Y-14566199D02*
X13234230Y-14556675D01*
X13234230Y-14556675D02*
X13205658Y-14556675D01*
X13205658Y-14556675D02*
X13186610Y-14566199D01*
X13186610Y-14566199D02*
X13177087Y-14575723D01*
X13386610Y-14690008D02*
X13367563Y-14680485D01*
X13367563Y-14680485D02*
X13358039Y-14670961D01*
X13358039Y-14670961D02*
X13348515Y-14651913D01*
X13348515Y-14651913D02*
X13348515Y-14594770D01*
X13348515Y-14594770D02*
X13358039Y-14575723D01*
X13358039Y-14575723D02*
X13367563Y-14566199D01*
X13367563Y-14566199D02*
X13386610Y-14556675D01*
X13386610Y-14556675D02*
X13415182Y-14556675D01*
X13415182Y-14556675D02*
X13434230Y-14566199D01*
X13434230Y-14566199D02*
X13443753Y-14575723D01*
X13443753Y-14575723D02*
X13453277Y-14594770D01*
X13453277Y-14594770D02*
X13453277Y-14651913D01*
X13453277Y-14651913D02*
X13443753Y-14670961D01*
X13443753Y-14670961D02*
X13434230Y-14680485D01*
X13434230Y-14680485D02*
X13415182Y-14690008D01*
X13415182Y-14690008D02*
X13386610Y-14690008D01*
X13567563Y-14690008D02*
X13548515Y-14680485D01*
X13548515Y-14680485D02*
X13538991Y-14661437D01*
X13538991Y-14661437D02*
X13538991Y-14490008D01*
X13719944Y-14680485D02*
X13700896Y-14690008D01*
X13700896Y-14690008D02*
X13662801Y-14690008D01*
X13662801Y-14690008D02*
X13643753Y-14680485D01*
X13643753Y-14680485D02*
X13634230Y-14661437D01*
X13634230Y-14661437D02*
X13634230Y-14585246D01*
X13634230Y-14585246D02*
X13643753Y-14566199D01*
X13643753Y-14566199D02*
X13662801Y-14556675D01*
X13662801Y-14556675D02*
X13700896Y-14556675D01*
X13700896Y-14556675D02*
X13719944Y-14566199D01*
X13719944Y-14566199D02*
X13729468Y-14585246D01*
X13729468Y-14585246D02*
X13729468Y-14604294D01*
X13729468Y-14604294D02*
X13634230Y-14623342D01*
X13805658Y-14680485D02*
X13824706Y-14690008D01*
X13824706Y-14690008D02*
X13862801Y-14690008D01*
X13862801Y-14690008D02*
X13881849Y-14680485D01*
X13881849Y-14680485D02*
X13891372Y-14661437D01*
X13891372Y-14661437D02*
X13891372Y-14651913D01*
X13891372Y-14651913D02*
X13881849Y-14632865D01*
X13881849Y-14632865D02*
X13862801Y-14623342D01*
X13862801Y-14623342D02*
X13834230Y-14623342D01*
X13834230Y-14623342D02*
X13815182Y-14613818D01*
X13815182Y-14613818D02*
X13805658Y-14594770D01*
X13805658Y-14594770D02*
X13805658Y-14585246D01*
X13805658Y-14585246D02*
X13815182Y-14566199D01*
X13815182Y-14566199D02*
X13834230Y-14556675D01*
X13834230Y-14556675D02*
X13862801Y-14556675D01*
X13862801Y-14556675D02*
X13881849Y-14566199D01*
X13958039Y-14766199D02*
X13967563Y-14756675D01*
X13967563Y-14756675D02*
X13986611Y-14728104D01*
X13986611Y-14728104D02*
X13996134Y-14709056D01*
X13996134Y-14709056D02*
X14005658Y-14680485D01*
X14005658Y-14680485D02*
X14015182Y-14632865D01*
X14015182Y-14632865D02*
X14015182Y-14594770D01*
X14015182Y-14594770D02*
X14005658Y-14547151D01*
X14005658Y-14547151D02*
X13996134Y-14518580D01*
X13996134Y-14518580D02*
X13986611Y-14499532D01*
X13986611Y-14499532D02*
X13967563Y-14470961D01*
X13967563Y-14470961D02*
X13958039Y-14461437D01*
D12*
X8992500Y-14862525D02*
G75*
G02*
X8952500Y-14862525I-20000J0D01*
G01*
X8952500Y-14862525D02*
G75*
G02*
X8992500Y-14862525I20000J0D01*
G01*
D11*
X9291372Y-14754008D02*
X9310420Y-14754008D01*
X9310420Y-14754008D02*
X9329467Y-14763532D01*
X9329467Y-14763532D02*
X9338991Y-14773056D01*
X9338991Y-14773056D02*
X9348515Y-14792104D01*
X9348515Y-14792104D02*
X9358039Y-14830199D01*
X9358039Y-14830199D02*
X9358039Y-14877818D01*
X9358039Y-14877818D02*
X9348515Y-14915913D01*
X9348515Y-14915913D02*
X9338991Y-14934961D01*
X9338991Y-14934961D02*
X9329467Y-14944485D01*
X9329467Y-14944485D02*
X9310420Y-14954008D01*
X9310420Y-14954008D02*
X9291372Y-14954008D01*
X9291372Y-14954008D02*
X9272324Y-14944485D01*
X9272324Y-14944485D02*
X9262801Y-14934961D01*
X9262801Y-14934961D02*
X9253277Y-14915913D01*
X9253277Y-14915913D02*
X9243753Y-14877818D01*
X9243753Y-14877818D02*
X9243753Y-14830199D01*
X9243753Y-14830199D02*
X9253277Y-14792104D01*
X9253277Y-14792104D02*
X9262801Y-14773056D01*
X9262801Y-14773056D02*
X9272324Y-14763532D01*
X9272324Y-14763532D02*
X9291372Y-14754008D01*
X9443753Y-14934961D02*
X9453277Y-14944485D01*
X9453277Y-14944485D02*
X9443753Y-14954008D01*
X9443753Y-14954008D02*
X9434229Y-14944485D01*
X9434229Y-14944485D02*
X9443753Y-14934961D01*
X9443753Y-14934961D02*
X9443753Y-14954008D01*
X9624705Y-14820675D02*
X9624705Y-14954008D01*
X9577086Y-14744485D02*
X9529467Y-14887342D01*
X9529467Y-14887342D02*
X9653277Y-14887342D01*
X9767563Y-14754008D02*
X9786610Y-14754008D01*
X9786610Y-14754008D02*
X9805658Y-14763532D01*
X9805658Y-14763532D02*
X9815182Y-14773056D01*
X9815182Y-14773056D02*
X9824705Y-14792104D01*
X9824705Y-14792104D02*
X9834229Y-14830199D01*
X9834229Y-14830199D02*
X9834229Y-14877818D01*
X9834229Y-14877818D02*
X9824705Y-14915913D01*
X9824705Y-14915913D02*
X9815182Y-14934961D01*
X9815182Y-14934961D02*
X9805658Y-14944485D01*
X9805658Y-14944485D02*
X9786610Y-14954008D01*
X9786610Y-14954008D02*
X9767563Y-14954008D01*
X9767563Y-14954008D02*
X9748515Y-14944485D01*
X9748515Y-14944485D02*
X9738991Y-14934961D01*
X9738991Y-14934961D02*
X9729467Y-14915913D01*
X9729467Y-14915913D02*
X9719944Y-14877818D01*
X9719944Y-14877818D02*
X9719944Y-14830199D01*
X9719944Y-14830199D02*
X9729467Y-14792104D01*
X9729467Y-14792104D02*
X9738991Y-14773056D01*
X9738991Y-14773056D02*
X9748515Y-14763532D01*
X9748515Y-14763532D02*
X9767563Y-14754008D01*
X9958039Y-14754008D02*
X9977086Y-14754008D01*
X9977086Y-14754008D02*
X9996134Y-14763532D01*
X9996134Y-14763532D02*
X10005658Y-14773056D01*
X10005658Y-14773056D02*
X10015182Y-14792104D01*
X10015182Y-14792104D02*
X10024705Y-14830199D01*
X10024705Y-14830199D02*
X10024705Y-14877818D01*
X10024705Y-14877818D02*
X10015182Y-14915913D01*
X10015182Y-14915913D02*
X10005658Y-14934961D01*
X10005658Y-14934961D02*
X9996134Y-14944485D01*
X9996134Y-14944485D02*
X9977086Y-14954008D01*
X9977086Y-14954008D02*
X9958039Y-14954008D01*
X9958039Y-14954008D02*
X9938991Y-14944485D01*
X9938991Y-14944485D02*
X9929467Y-14934961D01*
X9929467Y-14934961D02*
X9919944Y-14915913D01*
X9919944Y-14915913D02*
X9910420Y-14877818D01*
X9910420Y-14877818D02*
X9910420Y-14830199D01*
X9910420Y-14830199D02*
X9919944Y-14792104D01*
X9919944Y-14792104D02*
X9929467Y-14773056D01*
X9929467Y-14773056D02*
X9938991Y-14763532D01*
X9938991Y-14763532D02*
X9958039Y-14754008D01*
X10110420Y-14954008D02*
X10110420Y-14820675D01*
X10110420Y-14839723D02*
X10119944Y-14830199D01*
X10119944Y-14830199D02*
X10138991Y-14820675D01*
X10138991Y-14820675D02*
X10167563Y-14820675D01*
X10167563Y-14820675D02*
X10186610Y-14830199D01*
X10186610Y-14830199D02*
X10196134Y-14849246D01*
X10196134Y-14849246D02*
X10196134Y-14954008D01*
X10196134Y-14849246D02*
X10205658Y-14830199D01*
X10205658Y-14830199D02*
X10224705Y-14820675D01*
X10224705Y-14820675D02*
X10253277Y-14820675D01*
X10253277Y-14820675D02*
X10272325Y-14830199D01*
X10272325Y-14830199D02*
X10281848Y-14849246D01*
X10281848Y-14849246D02*
X10281848Y-14954008D01*
X10377086Y-14954008D02*
X10377086Y-14820675D01*
X10377086Y-14839723D02*
X10386610Y-14830199D01*
X10386610Y-14830199D02*
X10405658Y-14820675D01*
X10405658Y-14820675D02*
X10434229Y-14820675D01*
X10434229Y-14820675D02*
X10453277Y-14830199D01*
X10453277Y-14830199D02*
X10462801Y-14849246D01*
X10462801Y-14849246D02*
X10462801Y-14954008D01*
X10462801Y-14849246D02*
X10472325Y-14830199D01*
X10472325Y-14830199D02*
X10491372Y-14820675D01*
X10491372Y-14820675D02*
X10519944Y-14820675D01*
X10519944Y-14820675D02*
X10538991Y-14830199D01*
X10538991Y-14830199D02*
X10548515Y-14849246D01*
X10548515Y-14849246D02*
X10548515Y-14954008D01*
X10938991Y-14744485D02*
X10767563Y-15001627D01*
X11196134Y-14754008D02*
X11215182Y-14754008D01*
X11215182Y-14754008D02*
X11234229Y-14763532D01*
X11234229Y-14763532D02*
X11243753Y-14773056D01*
X11243753Y-14773056D02*
X11253277Y-14792104D01*
X11253277Y-14792104D02*
X11262801Y-14830199D01*
X11262801Y-14830199D02*
X11262801Y-14877818D01*
X11262801Y-14877818D02*
X11253277Y-14915913D01*
X11253277Y-14915913D02*
X11243753Y-14934961D01*
X11243753Y-14934961D02*
X11234229Y-14944485D01*
X11234229Y-14944485D02*
X11215182Y-14954008D01*
X11215182Y-14954008D02*
X11196134Y-14954008D01*
X11196134Y-14954008D02*
X11177087Y-14944485D01*
X11177087Y-14944485D02*
X11167563Y-14934961D01*
X11167563Y-14934961D02*
X11158039Y-14915913D01*
X11158039Y-14915913D02*
X11148515Y-14877818D01*
X11148515Y-14877818D02*
X11148515Y-14830199D01*
X11148515Y-14830199D02*
X11158039Y-14792104D01*
X11158039Y-14792104D02*
X11167563Y-14773056D01*
X11167563Y-14773056D02*
X11177087Y-14763532D01*
X11177087Y-14763532D02*
X11196134Y-14754008D01*
X11348515Y-14934961D02*
X11358039Y-14944485D01*
X11358039Y-14944485D02*
X11348515Y-14954008D01*
X11348515Y-14954008D02*
X11338991Y-14944485D01*
X11338991Y-14944485D02*
X11348515Y-14934961D01*
X11348515Y-14934961D02*
X11348515Y-14954008D01*
X11481848Y-14754008D02*
X11500896Y-14754008D01*
X11500896Y-14754008D02*
X11519944Y-14763532D01*
X11519944Y-14763532D02*
X11529467Y-14773056D01*
X11529467Y-14773056D02*
X11538991Y-14792104D01*
X11538991Y-14792104D02*
X11548515Y-14830199D01*
X11548515Y-14830199D02*
X11548515Y-14877818D01*
X11548515Y-14877818D02*
X11538991Y-14915913D01*
X11538991Y-14915913D02*
X11529467Y-14934961D01*
X11529467Y-14934961D02*
X11519944Y-14944485D01*
X11519944Y-14944485D02*
X11500896Y-14954008D01*
X11500896Y-14954008D02*
X11481848Y-14954008D01*
X11481848Y-14954008D02*
X11462801Y-14944485D01*
X11462801Y-14944485D02*
X11453277Y-14934961D01*
X11453277Y-14934961D02*
X11443753Y-14915913D01*
X11443753Y-14915913D02*
X11434229Y-14877818D01*
X11434229Y-14877818D02*
X11434229Y-14830199D01*
X11434229Y-14830199D02*
X11443753Y-14792104D01*
X11443753Y-14792104D02*
X11453277Y-14773056D01*
X11453277Y-14773056D02*
X11462801Y-14763532D01*
X11462801Y-14763532D02*
X11481848Y-14754008D01*
X11738991Y-14954008D02*
X11624706Y-14954008D01*
X11681848Y-14954008D02*
X11681848Y-14754008D01*
X11681848Y-14754008D02*
X11662801Y-14782580D01*
X11662801Y-14782580D02*
X11643753Y-14801627D01*
X11643753Y-14801627D02*
X11624706Y-14811151D01*
X11919944Y-14754008D02*
X11824706Y-14754008D01*
X11824706Y-14754008D02*
X11815182Y-14849246D01*
X11815182Y-14849246D02*
X11824706Y-14839723D01*
X11824706Y-14839723D02*
X11843753Y-14830199D01*
X11843753Y-14830199D02*
X11891372Y-14830199D01*
X11891372Y-14830199D02*
X11910420Y-14839723D01*
X11910420Y-14839723D02*
X11919944Y-14849246D01*
X11919944Y-14849246D02*
X11929467Y-14868294D01*
X11929467Y-14868294D02*
X11929467Y-14915913D01*
X11929467Y-14915913D02*
X11919944Y-14934961D01*
X11919944Y-14934961D02*
X11910420Y-14944485D01*
X11910420Y-14944485D02*
X11891372Y-14954008D01*
X11891372Y-14954008D02*
X11843753Y-14954008D01*
X11843753Y-14954008D02*
X11824706Y-14944485D01*
X11824706Y-14944485D02*
X11815182Y-14934961D01*
X11996134Y-14754008D02*
X12129467Y-14754008D01*
X12129467Y-14754008D02*
X12043753Y-14954008D01*
X12196134Y-14754008D02*
X12196134Y-14792104D01*
X12272325Y-14754008D02*
X12272325Y-14792104D01*
X12567563Y-15030199D02*
X12558039Y-15020675D01*
X12558039Y-15020675D02*
X12538991Y-14992104D01*
X12538991Y-14992104D02*
X12529468Y-14973056D01*
X12529468Y-14973056D02*
X12519944Y-14944485D01*
X12519944Y-14944485D02*
X12510420Y-14896865D01*
X12510420Y-14896865D02*
X12510420Y-14858770D01*
X12510420Y-14858770D02*
X12519944Y-14811151D01*
X12519944Y-14811151D02*
X12529468Y-14782580D01*
X12529468Y-14782580D02*
X12538991Y-14763532D01*
X12538991Y-14763532D02*
X12558039Y-14734961D01*
X12558039Y-14734961D02*
X12567563Y-14725437D01*
X12634229Y-14773056D02*
X12643753Y-14763532D01*
X12643753Y-14763532D02*
X12662801Y-14754008D01*
X12662801Y-14754008D02*
X12710420Y-14754008D01*
X12710420Y-14754008D02*
X12729468Y-14763532D01*
X12729468Y-14763532D02*
X12738991Y-14773056D01*
X12738991Y-14773056D02*
X12748515Y-14792104D01*
X12748515Y-14792104D02*
X12748515Y-14811151D01*
X12748515Y-14811151D02*
X12738991Y-14839723D01*
X12738991Y-14839723D02*
X12624706Y-14954008D01*
X12624706Y-14954008D02*
X12748515Y-14954008D01*
X12919944Y-14820675D02*
X12919944Y-14954008D01*
X12872325Y-14744485D02*
X12824706Y-14887342D01*
X12824706Y-14887342D02*
X12948515Y-14887342D01*
X13177087Y-14954008D02*
X13177087Y-14754008D01*
X13262801Y-14954008D02*
X13262801Y-14849246D01*
X13262801Y-14849246D02*
X13253277Y-14830199D01*
X13253277Y-14830199D02*
X13234230Y-14820675D01*
X13234230Y-14820675D02*
X13205658Y-14820675D01*
X13205658Y-14820675D02*
X13186610Y-14830199D01*
X13186610Y-14830199D02*
X13177087Y-14839723D01*
X13386610Y-14954008D02*
X13367563Y-14944485D01*
X13367563Y-14944485D02*
X13358039Y-14934961D01*
X13358039Y-14934961D02*
X13348515Y-14915913D01*
X13348515Y-14915913D02*
X13348515Y-14858770D01*
X13348515Y-14858770D02*
X13358039Y-14839723D01*
X13358039Y-14839723D02*
X13367563Y-14830199D01*
X13367563Y-14830199D02*
X13386610Y-14820675D01*
X13386610Y-14820675D02*
X13415182Y-14820675D01*
X13415182Y-14820675D02*
X13434230Y-14830199D01*
X13434230Y-14830199D02*
X13443753Y-14839723D01*
X13443753Y-14839723D02*
X13453277Y-14858770D01*
X13453277Y-14858770D02*
X13453277Y-14915913D01*
X13453277Y-14915913D02*
X13443753Y-14934961D01*
X13443753Y-14934961D02*
X13434230Y-14944485D01*
X13434230Y-14944485D02*
X13415182Y-14954008D01*
X13415182Y-14954008D02*
X13386610Y-14954008D01*
X13567563Y-14954008D02*
X13548515Y-14944485D01*
X13548515Y-14944485D02*
X13538991Y-14925437D01*
X13538991Y-14925437D02*
X13538991Y-14754008D01*
X13719944Y-14944485D02*
X13700896Y-14954008D01*
X13700896Y-14954008D02*
X13662801Y-14954008D01*
X13662801Y-14954008D02*
X13643753Y-14944485D01*
X13643753Y-14944485D02*
X13634230Y-14925437D01*
X13634230Y-14925437D02*
X13634230Y-14849246D01*
X13634230Y-14849246D02*
X13643753Y-14830199D01*
X13643753Y-14830199D02*
X13662801Y-14820675D01*
X13662801Y-14820675D02*
X13700896Y-14820675D01*
X13700896Y-14820675D02*
X13719944Y-14830199D01*
X13719944Y-14830199D02*
X13729468Y-14849246D01*
X13729468Y-14849246D02*
X13729468Y-14868294D01*
X13729468Y-14868294D02*
X13634230Y-14887342D01*
X13805658Y-14944485D02*
X13824706Y-14954008D01*
X13824706Y-14954008D02*
X13862801Y-14954008D01*
X13862801Y-14954008D02*
X13881849Y-14944485D01*
X13881849Y-14944485D02*
X13891372Y-14925437D01*
X13891372Y-14925437D02*
X13891372Y-14915913D01*
X13891372Y-14915913D02*
X13881849Y-14896865D01*
X13881849Y-14896865D02*
X13862801Y-14887342D01*
X13862801Y-14887342D02*
X13834230Y-14887342D01*
X13834230Y-14887342D02*
X13815182Y-14877818D01*
X13815182Y-14877818D02*
X13805658Y-14858770D01*
X13805658Y-14858770D02*
X13805658Y-14849246D01*
X13805658Y-14849246D02*
X13815182Y-14830199D01*
X13815182Y-14830199D02*
X13834230Y-14820675D01*
X13834230Y-14820675D02*
X13862801Y-14820675D01*
X13862801Y-14820675D02*
X13881849Y-14830199D01*
X13958039Y-15030199D02*
X13967563Y-15020675D01*
X13967563Y-15020675D02*
X13986611Y-14992104D01*
X13986611Y-14992104D02*
X13996134Y-14973056D01*
X13996134Y-14973056D02*
X14005658Y-14944485D01*
X14005658Y-14944485D02*
X14015182Y-14896865D01*
X14015182Y-14896865D02*
X14015182Y-14858770D01*
X14015182Y-14858770D02*
X14005658Y-14811151D01*
X14005658Y-14811151D02*
X13996134Y-14782580D01*
X13996134Y-14782580D02*
X13986611Y-14763532D01*
X13986611Y-14763532D02*
X13967563Y-14734961D01*
X13967563Y-14734961D02*
X13958039Y-14725437D01*
D12*
X8955000Y-15089025D02*
X8955000Y-15164025D01*
X8917500Y-15126525D02*
X8992500Y-15126525D01*
D11*
X9291372Y-15018008D02*
X9310420Y-15018008D01*
X9310420Y-15018008D02*
X9329467Y-15027532D01*
X9329467Y-15027532D02*
X9338991Y-15037056D01*
X9338991Y-15037056D02*
X9348515Y-15056104D01*
X9348515Y-15056104D02*
X9358039Y-15094199D01*
X9358039Y-15094199D02*
X9358039Y-15141818D01*
X9358039Y-15141818D02*
X9348515Y-15179913D01*
X9348515Y-15179913D02*
X9338991Y-15198961D01*
X9338991Y-15198961D02*
X9329467Y-15208485D01*
X9329467Y-15208485D02*
X9310420Y-15218008D01*
X9310420Y-15218008D02*
X9291372Y-15218008D01*
X9291372Y-15218008D02*
X9272324Y-15208485D01*
X9272324Y-15208485D02*
X9262801Y-15198961D01*
X9262801Y-15198961D02*
X9253277Y-15179913D01*
X9253277Y-15179913D02*
X9243753Y-15141818D01*
X9243753Y-15141818D02*
X9243753Y-15094199D01*
X9243753Y-15094199D02*
X9253277Y-15056104D01*
X9253277Y-15056104D02*
X9262801Y-15037056D01*
X9262801Y-15037056D02*
X9272324Y-15027532D01*
X9272324Y-15027532D02*
X9291372Y-15018008D01*
X9443753Y-15198961D02*
X9453277Y-15208485D01*
X9453277Y-15208485D02*
X9443753Y-15218008D01*
X9443753Y-15218008D02*
X9434229Y-15208485D01*
X9434229Y-15208485D02*
X9443753Y-15198961D01*
X9443753Y-15198961D02*
X9443753Y-15218008D01*
X9519944Y-15018008D02*
X9653277Y-15018008D01*
X9653277Y-15018008D02*
X9567563Y-15218008D01*
X9824705Y-15018008D02*
X9729467Y-15018008D01*
X9729467Y-15018008D02*
X9719944Y-15113246D01*
X9719944Y-15113246D02*
X9729467Y-15103723D01*
X9729467Y-15103723D02*
X9748515Y-15094199D01*
X9748515Y-15094199D02*
X9796134Y-15094199D01*
X9796134Y-15094199D02*
X9815182Y-15103723D01*
X9815182Y-15103723D02*
X9824705Y-15113246D01*
X9824705Y-15113246D02*
X9834229Y-15132294D01*
X9834229Y-15132294D02*
X9834229Y-15179913D01*
X9834229Y-15179913D02*
X9824705Y-15198961D01*
X9824705Y-15198961D02*
X9815182Y-15208485D01*
X9815182Y-15208485D02*
X9796134Y-15218008D01*
X9796134Y-15218008D02*
X9748515Y-15218008D01*
X9748515Y-15218008D02*
X9729467Y-15208485D01*
X9729467Y-15208485D02*
X9719944Y-15198961D01*
X9958039Y-15018008D02*
X9977086Y-15018008D01*
X9977086Y-15018008D02*
X9996134Y-15027532D01*
X9996134Y-15027532D02*
X10005658Y-15037056D01*
X10005658Y-15037056D02*
X10015182Y-15056104D01*
X10015182Y-15056104D02*
X10024705Y-15094199D01*
X10024705Y-15094199D02*
X10024705Y-15141818D01*
X10024705Y-15141818D02*
X10015182Y-15179913D01*
X10015182Y-15179913D02*
X10005658Y-15198961D01*
X10005658Y-15198961D02*
X9996134Y-15208485D01*
X9996134Y-15208485D02*
X9977086Y-15218008D01*
X9977086Y-15218008D02*
X9958039Y-15218008D01*
X9958039Y-15218008D02*
X9938991Y-15208485D01*
X9938991Y-15208485D02*
X9929467Y-15198961D01*
X9929467Y-15198961D02*
X9919944Y-15179913D01*
X9919944Y-15179913D02*
X9910420Y-15141818D01*
X9910420Y-15141818D02*
X9910420Y-15094199D01*
X9910420Y-15094199D02*
X9919944Y-15056104D01*
X9919944Y-15056104D02*
X9929467Y-15037056D01*
X9929467Y-15037056D02*
X9938991Y-15027532D01*
X9938991Y-15027532D02*
X9958039Y-15018008D01*
X10110420Y-15218008D02*
X10110420Y-15084675D01*
X10110420Y-15103723D02*
X10119944Y-15094199D01*
X10119944Y-15094199D02*
X10138991Y-15084675D01*
X10138991Y-15084675D02*
X10167563Y-15084675D01*
X10167563Y-15084675D02*
X10186610Y-15094199D01*
X10186610Y-15094199D02*
X10196134Y-15113246D01*
X10196134Y-15113246D02*
X10196134Y-15218008D01*
X10196134Y-15113246D02*
X10205658Y-15094199D01*
X10205658Y-15094199D02*
X10224705Y-15084675D01*
X10224705Y-15084675D02*
X10253277Y-15084675D01*
X10253277Y-15084675D02*
X10272325Y-15094199D01*
X10272325Y-15094199D02*
X10281848Y-15113246D01*
X10281848Y-15113246D02*
X10281848Y-15218008D01*
X10377086Y-15218008D02*
X10377086Y-15084675D01*
X10377086Y-15103723D02*
X10386610Y-15094199D01*
X10386610Y-15094199D02*
X10405658Y-15084675D01*
X10405658Y-15084675D02*
X10434229Y-15084675D01*
X10434229Y-15084675D02*
X10453277Y-15094199D01*
X10453277Y-15094199D02*
X10462801Y-15113246D01*
X10462801Y-15113246D02*
X10462801Y-15218008D01*
X10462801Y-15113246D02*
X10472325Y-15094199D01*
X10472325Y-15094199D02*
X10491372Y-15084675D01*
X10491372Y-15084675D02*
X10519944Y-15084675D01*
X10519944Y-15084675D02*
X10538991Y-15094199D01*
X10538991Y-15094199D02*
X10548515Y-15113246D01*
X10548515Y-15113246D02*
X10548515Y-15218008D01*
X10938991Y-15008485D02*
X10767563Y-15265627D01*
X11196134Y-15018008D02*
X11215182Y-15018008D01*
X11215182Y-15018008D02*
X11234229Y-15027532D01*
X11234229Y-15027532D02*
X11243753Y-15037056D01*
X11243753Y-15037056D02*
X11253277Y-15056104D01*
X11253277Y-15056104D02*
X11262801Y-15094199D01*
X11262801Y-15094199D02*
X11262801Y-15141818D01*
X11262801Y-15141818D02*
X11253277Y-15179913D01*
X11253277Y-15179913D02*
X11243753Y-15198961D01*
X11243753Y-15198961D02*
X11234229Y-15208485D01*
X11234229Y-15208485D02*
X11215182Y-15218008D01*
X11215182Y-15218008D02*
X11196134Y-15218008D01*
X11196134Y-15218008D02*
X11177087Y-15208485D01*
X11177087Y-15208485D02*
X11167563Y-15198961D01*
X11167563Y-15198961D02*
X11158039Y-15179913D01*
X11158039Y-15179913D02*
X11148515Y-15141818D01*
X11148515Y-15141818D02*
X11148515Y-15094199D01*
X11148515Y-15094199D02*
X11158039Y-15056104D01*
X11158039Y-15056104D02*
X11167563Y-15037056D01*
X11167563Y-15037056D02*
X11177087Y-15027532D01*
X11177087Y-15027532D02*
X11196134Y-15018008D01*
X11348515Y-15198961D02*
X11358039Y-15208485D01*
X11358039Y-15208485D02*
X11348515Y-15218008D01*
X11348515Y-15218008D02*
X11338991Y-15208485D01*
X11338991Y-15208485D02*
X11348515Y-15198961D01*
X11348515Y-15198961D02*
X11348515Y-15218008D01*
X11481848Y-15018008D02*
X11500896Y-15018008D01*
X11500896Y-15018008D02*
X11519944Y-15027532D01*
X11519944Y-15027532D02*
X11529467Y-15037056D01*
X11529467Y-15037056D02*
X11538991Y-15056104D01*
X11538991Y-15056104D02*
X11548515Y-15094199D01*
X11548515Y-15094199D02*
X11548515Y-15141818D01*
X11548515Y-15141818D02*
X11538991Y-15179913D01*
X11538991Y-15179913D02*
X11529467Y-15198961D01*
X11529467Y-15198961D02*
X11519944Y-15208485D01*
X11519944Y-15208485D02*
X11500896Y-15218008D01*
X11500896Y-15218008D02*
X11481848Y-15218008D01*
X11481848Y-15218008D02*
X11462801Y-15208485D01*
X11462801Y-15208485D02*
X11453277Y-15198961D01*
X11453277Y-15198961D02*
X11443753Y-15179913D01*
X11443753Y-15179913D02*
X11434229Y-15141818D01*
X11434229Y-15141818D02*
X11434229Y-15094199D01*
X11434229Y-15094199D02*
X11443753Y-15056104D01*
X11443753Y-15056104D02*
X11453277Y-15037056D01*
X11453277Y-15037056D02*
X11462801Y-15027532D01*
X11462801Y-15027532D02*
X11481848Y-15018008D01*
X11624706Y-15037056D02*
X11634229Y-15027532D01*
X11634229Y-15027532D02*
X11653277Y-15018008D01*
X11653277Y-15018008D02*
X11700896Y-15018008D01*
X11700896Y-15018008D02*
X11719944Y-15027532D01*
X11719944Y-15027532D02*
X11729467Y-15037056D01*
X11729467Y-15037056D02*
X11738991Y-15056104D01*
X11738991Y-15056104D02*
X11738991Y-15075151D01*
X11738991Y-15075151D02*
X11729467Y-15103723D01*
X11729467Y-15103723D02*
X11615182Y-15218008D01*
X11615182Y-15218008D02*
X11738991Y-15218008D01*
X11834229Y-15218008D02*
X11872325Y-15218008D01*
X11872325Y-15218008D02*
X11891372Y-15208485D01*
X11891372Y-15208485D02*
X11900896Y-15198961D01*
X11900896Y-15198961D02*
X11919944Y-15170389D01*
X11919944Y-15170389D02*
X11929467Y-15132294D01*
X11929467Y-15132294D02*
X11929467Y-15056104D01*
X11929467Y-15056104D02*
X11919944Y-15037056D01*
X11919944Y-15037056D02*
X11910420Y-15027532D01*
X11910420Y-15027532D02*
X11891372Y-15018008D01*
X11891372Y-15018008D02*
X11853277Y-15018008D01*
X11853277Y-15018008D02*
X11834229Y-15027532D01*
X11834229Y-15027532D02*
X11824706Y-15037056D01*
X11824706Y-15037056D02*
X11815182Y-15056104D01*
X11815182Y-15056104D02*
X11815182Y-15103723D01*
X11815182Y-15103723D02*
X11824706Y-15122770D01*
X11824706Y-15122770D02*
X11834229Y-15132294D01*
X11834229Y-15132294D02*
X11853277Y-15141818D01*
X11853277Y-15141818D02*
X11891372Y-15141818D01*
X11891372Y-15141818D02*
X11910420Y-15132294D01*
X11910420Y-15132294D02*
X11919944Y-15122770D01*
X11919944Y-15122770D02*
X11929467Y-15103723D01*
X12110420Y-15018008D02*
X12015182Y-15018008D01*
X12015182Y-15018008D02*
X12005658Y-15113246D01*
X12005658Y-15113246D02*
X12015182Y-15103723D01*
X12015182Y-15103723D02*
X12034229Y-15094199D01*
X12034229Y-15094199D02*
X12081848Y-15094199D01*
X12081848Y-15094199D02*
X12100896Y-15103723D01*
X12100896Y-15103723D02*
X12110420Y-15113246D01*
X12110420Y-15113246D02*
X12119944Y-15132294D01*
X12119944Y-15132294D02*
X12119944Y-15179913D01*
X12119944Y-15179913D02*
X12110420Y-15198961D01*
X12110420Y-15198961D02*
X12100896Y-15208485D01*
X12100896Y-15208485D02*
X12081848Y-15218008D01*
X12081848Y-15218008D02*
X12034229Y-15218008D01*
X12034229Y-15218008D02*
X12015182Y-15208485D01*
X12015182Y-15208485D02*
X12005658Y-15198961D01*
X12196134Y-15018008D02*
X12196134Y-15056104D01*
X12272325Y-15018008D02*
X12272325Y-15056104D01*
X12567563Y-15294199D02*
X12558039Y-15284675D01*
X12558039Y-15284675D02*
X12538991Y-15256104D01*
X12538991Y-15256104D02*
X12529468Y-15237056D01*
X12529468Y-15237056D02*
X12519944Y-15208485D01*
X12519944Y-15208485D02*
X12510420Y-15160865D01*
X12510420Y-15160865D02*
X12510420Y-15122770D01*
X12510420Y-15122770D02*
X12519944Y-15075151D01*
X12519944Y-15075151D02*
X12529468Y-15046580D01*
X12529468Y-15046580D02*
X12538991Y-15027532D01*
X12538991Y-15027532D02*
X12558039Y-14998961D01*
X12558039Y-14998961D02*
X12567563Y-14989437D01*
X12634229Y-15037056D02*
X12643753Y-15027532D01*
X12643753Y-15027532D02*
X12662801Y-15018008D01*
X12662801Y-15018008D02*
X12710420Y-15018008D01*
X12710420Y-15018008D02*
X12729468Y-15027532D01*
X12729468Y-15027532D02*
X12738991Y-15037056D01*
X12738991Y-15037056D02*
X12748515Y-15056104D01*
X12748515Y-15056104D02*
X12748515Y-15075151D01*
X12748515Y-15075151D02*
X12738991Y-15103723D01*
X12738991Y-15103723D02*
X12624706Y-15218008D01*
X12624706Y-15218008D02*
X12748515Y-15218008D01*
X12986610Y-15218008D02*
X12986610Y-15018008D01*
X13072325Y-15218008D02*
X13072325Y-15113246D01*
X13072325Y-15113246D02*
X13062801Y-15094199D01*
X13062801Y-15094199D02*
X13043753Y-15084675D01*
X13043753Y-15084675D02*
X13015182Y-15084675D01*
X13015182Y-15084675D02*
X12996134Y-15094199D01*
X12996134Y-15094199D02*
X12986610Y-15103723D01*
X13196134Y-15218008D02*
X13177087Y-15208485D01*
X13177087Y-15208485D02*
X13167563Y-15198961D01*
X13167563Y-15198961D02*
X13158039Y-15179913D01*
X13158039Y-15179913D02*
X13158039Y-15122770D01*
X13158039Y-15122770D02*
X13167563Y-15103723D01*
X13167563Y-15103723D02*
X13177087Y-15094199D01*
X13177087Y-15094199D02*
X13196134Y-15084675D01*
X13196134Y-15084675D02*
X13224706Y-15084675D01*
X13224706Y-15084675D02*
X13243753Y-15094199D01*
X13243753Y-15094199D02*
X13253277Y-15103723D01*
X13253277Y-15103723D02*
X13262801Y-15122770D01*
X13262801Y-15122770D02*
X13262801Y-15179913D01*
X13262801Y-15179913D02*
X13253277Y-15198961D01*
X13253277Y-15198961D02*
X13243753Y-15208485D01*
X13243753Y-15208485D02*
X13224706Y-15218008D01*
X13224706Y-15218008D02*
X13196134Y-15218008D01*
X13377087Y-15218008D02*
X13358039Y-15208485D01*
X13358039Y-15208485D02*
X13348515Y-15189437D01*
X13348515Y-15189437D02*
X13348515Y-15018008D01*
X13529468Y-15208485D02*
X13510420Y-15218008D01*
X13510420Y-15218008D02*
X13472325Y-15218008D01*
X13472325Y-15218008D02*
X13453277Y-15208485D01*
X13453277Y-15208485D02*
X13443753Y-15189437D01*
X13443753Y-15189437D02*
X13443753Y-15113246D01*
X13443753Y-15113246D02*
X13453277Y-15094199D01*
X13453277Y-15094199D02*
X13472325Y-15084675D01*
X13472325Y-15084675D02*
X13510420Y-15084675D01*
X13510420Y-15084675D02*
X13529468Y-15094199D01*
X13529468Y-15094199D02*
X13538991Y-15113246D01*
X13538991Y-15113246D02*
X13538991Y-15132294D01*
X13538991Y-15132294D02*
X13443753Y-15151342D01*
X13615182Y-15208485D02*
X13634230Y-15218008D01*
X13634230Y-15218008D02*
X13672325Y-15218008D01*
X13672325Y-15218008D02*
X13691372Y-15208485D01*
X13691372Y-15208485D02*
X13700896Y-15189437D01*
X13700896Y-15189437D02*
X13700896Y-15179913D01*
X13700896Y-15179913D02*
X13691372Y-15160865D01*
X13691372Y-15160865D02*
X13672325Y-15151342D01*
X13672325Y-15151342D02*
X13643753Y-15151342D01*
X13643753Y-15151342D02*
X13624706Y-15141818D01*
X13624706Y-15141818D02*
X13615182Y-15122770D01*
X13615182Y-15122770D02*
X13615182Y-15113246D01*
X13615182Y-15113246D02*
X13624706Y-15094199D01*
X13624706Y-15094199D02*
X13643753Y-15084675D01*
X13643753Y-15084675D02*
X13672325Y-15084675D01*
X13672325Y-15084675D02*
X13691372Y-15094199D01*
X13767563Y-15294199D02*
X13777087Y-15284675D01*
X13777087Y-15284675D02*
X13796134Y-15256104D01*
X13796134Y-15256104D02*
X13805658Y-15237056D01*
X13805658Y-15237056D02*
X13815182Y-15208485D01*
X13815182Y-15208485D02*
X13824706Y-15160865D01*
X13824706Y-15160865D02*
X13824706Y-15122770D01*
X13824706Y-15122770D02*
X13815182Y-15075151D01*
X13815182Y-15075151D02*
X13805658Y-15046580D01*
X13805658Y-15046580D02*
X13796134Y-15027532D01*
X13796134Y-15027532D02*
X13777087Y-14998961D01*
X13777087Y-14998961D02*
X13767563Y-14989437D01*
D12*
X8977856Y-15425880D02*
X8977856Y-15355169D01*
X8907144Y-15355169D01*
X8907144Y-15425880D01*
X8977856Y-15425880D01*
D11*
X9358039Y-15482008D02*
X9243753Y-15482008D01*
X9300896Y-15482008D02*
X9300896Y-15282008D01*
X9300896Y-15282008D02*
X9281848Y-15310580D01*
X9281848Y-15310580D02*
X9262801Y-15329627D01*
X9262801Y-15329627D02*
X9243753Y-15339151D01*
X9443753Y-15462961D02*
X9453277Y-15472485D01*
X9453277Y-15472485D02*
X9443753Y-15482008D01*
X9443753Y-15482008D02*
X9434229Y-15472485D01*
X9434229Y-15472485D02*
X9443753Y-15462961D01*
X9443753Y-15462961D02*
X9443753Y-15482008D01*
X9577086Y-15282008D02*
X9596134Y-15282008D01*
X9596134Y-15282008D02*
X9615182Y-15291532D01*
X9615182Y-15291532D02*
X9624705Y-15301056D01*
X9624705Y-15301056D02*
X9634229Y-15320104D01*
X9634229Y-15320104D02*
X9643753Y-15358199D01*
X9643753Y-15358199D02*
X9643753Y-15405818D01*
X9643753Y-15405818D02*
X9634229Y-15443913D01*
X9634229Y-15443913D02*
X9624705Y-15462961D01*
X9624705Y-15462961D02*
X9615182Y-15472485D01*
X9615182Y-15472485D02*
X9596134Y-15482008D01*
X9596134Y-15482008D02*
X9577086Y-15482008D01*
X9577086Y-15482008D02*
X9558039Y-15472485D01*
X9558039Y-15472485D02*
X9548515Y-15462961D01*
X9548515Y-15462961D02*
X9538991Y-15443913D01*
X9538991Y-15443913D02*
X9529467Y-15405818D01*
X9529467Y-15405818D02*
X9529467Y-15358199D01*
X9529467Y-15358199D02*
X9538991Y-15320104D01*
X9538991Y-15320104D02*
X9548515Y-15301056D01*
X9548515Y-15301056D02*
X9558039Y-15291532D01*
X9558039Y-15291532D02*
X9577086Y-15282008D01*
X9767563Y-15282008D02*
X9786610Y-15282008D01*
X9786610Y-15282008D02*
X9805658Y-15291532D01*
X9805658Y-15291532D02*
X9815182Y-15301056D01*
X9815182Y-15301056D02*
X9824705Y-15320104D01*
X9824705Y-15320104D02*
X9834229Y-15358199D01*
X9834229Y-15358199D02*
X9834229Y-15405818D01*
X9834229Y-15405818D02*
X9824705Y-15443913D01*
X9824705Y-15443913D02*
X9815182Y-15462961D01*
X9815182Y-15462961D02*
X9805658Y-15472485D01*
X9805658Y-15472485D02*
X9786610Y-15482008D01*
X9786610Y-15482008D02*
X9767563Y-15482008D01*
X9767563Y-15482008D02*
X9748515Y-15472485D01*
X9748515Y-15472485D02*
X9738991Y-15462961D01*
X9738991Y-15462961D02*
X9729467Y-15443913D01*
X9729467Y-15443913D02*
X9719944Y-15405818D01*
X9719944Y-15405818D02*
X9719944Y-15358199D01*
X9719944Y-15358199D02*
X9729467Y-15320104D01*
X9729467Y-15320104D02*
X9738991Y-15301056D01*
X9738991Y-15301056D02*
X9748515Y-15291532D01*
X9748515Y-15291532D02*
X9767563Y-15282008D01*
X9958039Y-15282008D02*
X9977086Y-15282008D01*
X9977086Y-15282008D02*
X9996134Y-15291532D01*
X9996134Y-15291532D02*
X10005658Y-15301056D01*
X10005658Y-15301056D02*
X10015182Y-15320104D01*
X10015182Y-15320104D02*
X10024705Y-15358199D01*
X10024705Y-15358199D02*
X10024705Y-15405818D01*
X10024705Y-15405818D02*
X10015182Y-15443913D01*
X10015182Y-15443913D02*
X10005658Y-15462961D01*
X10005658Y-15462961D02*
X9996134Y-15472485D01*
X9996134Y-15472485D02*
X9977086Y-15482008D01*
X9977086Y-15482008D02*
X9958039Y-15482008D01*
X9958039Y-15482008D02*
X9938991Y-15472485D01*
X9938991Y-15472485D02*
X9929467Y-15462961D01*
X9929467Y-15462961D02*
X9919944Y-15443913D01*
X9919944Y-15443913D02*
X9910420Y-15405818D01*
X9910420Y-15405818D02*
X9910420Y-15358199D01*
X9910420Y-15358199D02*
X9919944Y-15320104D01*
X9919944Y-15320104D02*
X9929467Y-15301056D01*
X9929467Y-15301056D02*
X9938991Y-15291532D01*
X9938991Y-15291532D02*
X9958039Y-15282008D01*
X10110420Y-15482008D02*
X10110420Y-15348675D01*
X10110420Y-15367723D02*
X10119944Y-15358199D01*
X10119944Y-15358199D02*
X10138991Y-15348675D01*
X10138991Y-15348675D02*
X10167563Y-15348675D01*
X10167563Y-15348675D02*
X10186610Y-15358199D01*
X10186610Y-15358199D02*
X10196134Y-15377246D01*
X10196134Y-15377246D02*
X10196134Y-15482008D01*
X10196134Y-15377246D02*
X10205658Y-15358199D01*
X10205658Y-15358199D02*
X10224705Y-15348675D01*
X10224705Y-15348675D02*
X10253277Y-15348675D01*
X10253277Y-15348675D02*
X10272325Y-15358199D01*
X10272325Y-15358199D02*
X10281848Y-15377246D01*
X10281848Y-15377246D02*
X10281848Y-15482008D01*
X10377086Y-15482008D02*
X10377086Y-15348675D01*
X10377086Y-15367723D02*
X10386610Y-15358199D01*
X10386610Y-15358199D02*
X10405658Y-15348675D01*
X10405658Y-15348675D02*
X10434229Y-15348675D01*
X10434229Y-15348675D02*
X10453277Y-15358199D01*
X10453277Y-15358199D02*
X10462801Y-15377246D01*
X10462801Y-15377246D02*
X10462801Y-15482008D01*
X10462801Y-15377246D02*
X10472325Y-15358199D01*
X10472325Y-15358199D02*
X10491372Y-15348675D01*
X10491372Y-15348675D02*
X10519944Y-15348675D01*
X10519944Y-15348675D02*
X10538991Y-15358199D01*
X10538991Y-15358199D02*
X10548515Y-15377246D01*
X10548515Y-15377246D02*
X10548515Y-15482008D01*
X10938991Y-15272485D02*
X10767563Y-15529627D01*
X11196134Y-15282008D02*
X11215182Y-15282008D01*
X11215182Y-15282008D02*
X11234229Y-15291532D01*
X11234229Y-15291532D02*
X11243753Y-15301056D01*
X11243753Y-15301056D02*
X11253277Y-15320104D01*
X11253277Y-15320104D02*
X11262801Y-15358199D01*
X11262801Y-15358199D02*
X11262801Y-15405818D01*
X11262801Y-15405818D02*
X11253277Y-15443913D01*
X11253277Y-15443913D02*
X11243753Y-15462961D01*
X11243753Y-15462961D02*
X11234229Y-15472485D01*
X11234229Y-15472485D02*
X11215182Y-15482008D01*
X11215182Y-15482008D02*
X11196134Y-15482008D01*
X11196134Y-15482008D02*
X11177087Y-15472485D01*
X11177087Y-15472485D02*
X11167563Y-15462961D01*
X11167563Y-15462961D02*
X11158039Y-15443913D01*
X11158039Y-15443913D02*
X11148515Y-15405818D01*
X11148515Y-15405818D02*
X11148515Y-15358199D01*
X11148515Y-15358199D02*
X11158039Y-15320104D01*
X11158039Y-15320104D02*
X11167563Y-15301056D01*
X11167563Y-15301056D02*
X11177087Y-15291532D01*
X11177087Y-15291532D02*
X11196134Y-15282008D01*
X11348515Y-15462961D02*
X11358039Y-15472485D01*
X11358039Y-15472485D02*
X11348515Y-15482008D01*
X11348515Y-15482008D02*
X11338991Y-15472485D01*
X11338991Y-15472485D02*
X11348515Y-15462961D01*
X11348515Y-15462961D02*
X11348515Y-15482008D01*
X11481848Y-15282008D02*
X11500896Y-15282008D01*
X11500896Y-15282008D02*
X11519944Y-15291532D01*
X11519944Y-15291532D02*
X11529467Y-15301056D01*
X11529467Y-15301056D02*
X11538991Y-15320104D01*
X11538991Y-15320104D02*
X11548515Y-15358199D01*
X11548515Y-15358199D02*
X11548515Y-15405818D01*
X11548515Y-15405818D02*
X11538991Y-15443913D01*
X11538991Y-15443913D02*
X11529467Y-15462961D01*
X11529467Y-15462961D02*
X11519944Y-15472485D01*
X11519944Y-15472485D02*
X11500896Y-15482008D01*
X11500896Y-15482008D02*
X11481848Y-15482008D01*
X11481848Y-15482008D02*
X11462801Y-15472485D01*
X11462801Y-15472485D02*
X11453277Y-15462961D01*
X11453277Y-15462961D02*
X11443753Y-15443913D01*
X11443753Y-15443913D02*
X11434229Y-15405818D01*
X11434229Y-15405818D02*
X11434229Y-15358199D01*
X11434229Y-15358199D02*
X11443753Y-15320104D01*
X11443753Y-15320104D02*
X11453277Y-15301056D01*
X11453277Y-15301056D02*
X11462801Y-15291532D01*
X11462801Y-15291532D02*
X11481848Y-15282008D01*
X11615182Y-15282008D02*
X11738991Y-15282008D01*
X11738991Y-15282008D02*
X11672325Y-15358199D01*
X11672325Y-15358199D02*
X11700896Y-15358199D01*
X11700896Y-15358199D02*
X11719944Y-15367723D01*
X11719944Y-15367723D02*
X11729467Y-15377246D01*
X11729467Y-15377246D02*
X11738991Y-15396294D01*
X11738991Y-15396294D02*
X11738991Y-15443913D01*
X11738991Y-15443913D02*
X11729467Y-15462961D01*
X11729467Y-15462961D02*
X11719944Y-15472485D01*
X11719944Y-15472485D02*
X11700896Y-15482008D01*
X11700896Y-15482008D02*
X11643753Y-15482008D01*
X11643753Y-15482008D02*
X11624706Y-15472485D01*
X11624706Y-15472485D02*
X11615182Y-15462961D01*
X11834229Y-15482008D02*
X11872325Y-15482008D01*
X11872325Y-15482008D02*
X11891372Y-15472485D01*
X11891372Y-15472485D02*
X11900896Y-15462961D01*
X11900896Y-15462961D02*
X11919944Y-15434389D01*
X11919944Y-15434389D02*
X11929467Y-15396294D01*
X11929467Y-15396294D02*
X11929467Y-15320104D01*
X11929467Y-15320104D02*
X11919944Y-15301056D01*
X11919944Y-15301056D02*
X11910420Y-15291532D01*
X11910420Y-15291532D02*
X11891372Y-15282008D01*
X11891372Y-15282008D02*
X11853277Y-15282008D01*
X11853277Y-15282008D02*
X11834229Y-15291532D01*
X11834229Y-15291532D02*
X11824706Y-15301056D01*
X11824706Y-15301056D02*
X11815182Y-15320104D01*
X11815182Y-15320104D02*
X11815182Y-15367723D01*
X11815182Y-15367723D02*
X11824706Y-15386770D01*
X11824706Y-15386770D02*
X11834229Y-15396294D01*
X11834229Y-15396294D02*
X11853277Y-15405818D01*
X11853277Y-15405818D02*
X11891372Y-15405818D01*
X11891372Y-15405818D02*
X11910420Y-15396294D01*
X11910420Y-15396294D02*
X11919944Y-15386770D01*
X11919944Y-15386770D02*
X11929467Y-15367723D01*
X12100896Y-15348675D02*
X12100896Y-15482008D01*
X12053277Y-15272485D02*
X12005658Y-15415342D01*
X12005658Y-15415342D02*
X12129467Y-15415342D01*
X12196134Y-15282008D02*
X12196134Y-15320104D01*
X12272325Y-15282008D02*
X12272325Y-15320104D01*
X12567563Y-15558199D02*
X12558039Y-15548675D01*
X12558039Y-15548675D02*
X12538991Y-15520104D01*
X12538991Y-15520104D02*
X12529468Y-15501056D01*
X12529468Y-15501056D02*
X12519944Y-15472485D01*
X12519944Y-15472485D02*
X12510420Y-15424865D01*
X12510420Y-15424865D02*
X12510420Y-15386770D01*
X12510420Y-15386770D02*
X12519944Y-15339151D01*
X12519944Y-15339151D02*
X12529468Y-15310580D01*
X12529468Y-15310580D02*
X12538991Y-15291532D01*
X12538991Y-15291532D02*
X12558039Y-15262961D01*
X12558039Y-15262961D02*
X12567563Y-15253437D01*
X12634229Y-15301056D02*
X12643753Y-15291532D01*
X12643753Y-15291532D02*
X12662801Y-15282008D01*
X12662801Y-15282008D02*
X12710420Y-15282008D01*
X12710420Y-15282008D02*
X12729468Y-15291532D01*
X12729468Y-15291532D02*
X12738991Y-15301056D01*
X12738991Y-15301056D02*
X12748515Y-15320104D01*
X12748515Y-15320104D02*
X12748515Y-15339151D01*
X12748515Y-15339151D02*
X12738991Y-15367723D01*
X12738991Y-15367723D02*
X12624706Y-15482008D01*
X12624706Y-15482008D02*
X12748515Y-15482008D01*
X12843753Y-15482008D02*
X12881848Y-15482008D01*
X12881848Y-15482008D02*
X12900896Y-15472485D01*
X12900896Y-15472485D02*
X12910420Y-15462961D01*
X12910420Y-15462961D02*
X12929468Y-15434389D01*
X12929468Y-15434389D02*
X12938991Y-15396294D01*
X12938991Y-15396294D02*
X12938991Y-15320104D01*
X12938991Y-15320104D02*
X12929468Y-15301056D01*
X12929468Y-15301056D02*
X12919944Y-15291532D01*
X12919944Y-15291532D02*
X12900896Y-15282008D01*
X12900896Y-15282008D02*
X12862801Y-15282008D01*
X12862801Y-15282008D02*
X12843753Y-15291532D01*
X12843753Y-15291532D02*
X12834229Y-15301056D01*
X12834229Y-15301056D02*
X12824706Y-15320104D01*
X12824706Y-15320104D02*
X12824706Y-15367723D01*
X12824706Y-15367723D02*
X12834229Y-15386770D01*
X12834229Y-15386770D02*
X12843753Y-15396294D01*
X12843753Y-15396294D02*
X12862801Y-15405818D01*
X12862801Y-15405818D02*
X12900896Y-15405818D01*
X12900896Y-15405818D02*
X12919944Y-15396294D01*
X12919944Y-15396294D02*
X12929468Y-15386770D01*
X12929468Y-15386770D02*
X12938991Y-15367723D01*
X13177087Y-15482008D02*
X13177087Y-15282008D01*
X13262801Y-15482008D02*
X13262801Y-15377246D01*
X13262801Y-15377246D02*
X13253277Y-15358199D01*
X13253277Y-15358199D02*
X13234230Y-15348675D01*
X13234230Y-15348675D02*
X13205658Y-15348675D01*
X13205658Y-15348675D02*
X13186610Y-15358199D01*
X13186610Y-15358199D02*
X13177087Y-15367723D01*
X13386610Y-15482008D02*
X13367563Y-15472485D01*
X13367563Y-15472485D02*
X13358039Y-15462961D01*
X13358039Y-15462961D02*
X13348515Y-15443913D01*
X13348515Y-15443913D02*
X13348515Y-15386770D01*
X13348515Y-15386770D02*
X13358039Y-15367723D01*
X13358039Y-15367723D02*
X13367563Y-15358199D01*
X13367563Y-15358199D02*
X13386610Y-15348675D01*
X13386610Y-15348675D02*
X13415182Y-15348675D01*
X13415182Y-15348675D02*
X13434230Y-15358199D01*
X13434230Y-15358199D02*
X13443753Y-15367723D01*
X13443753Y-15367723D02*
X13453277Y-15386770D01*
X13453277Y-15386770D02*
X13453277Y-15443913D01*
X13453277Y-15443913D02*
X13443753Y-15462961D01*
X13443753Y-15462961D02*
X13434230Y-15472485D01*
X13434230Y-15472485D02*
X13415182Y-15482008D01*
X13415182Y-15482008D02*
X13386610Y-15482008D01*
X13567563Y-15482008D02*
X13548515Y-15472485D01*
X13548515Y-15472485D02*
X13538991Y-15453437D01*
X13538991Y-15453437D02*
X13538991Y-15282008D01*
X13719944Y-15472485D02*
X13700896Y-15482008D01*
X13700896Y-15482008D02*
X13662801Y-15482008D01*
X13662801Y-15482008D02*
X13643753Y-15472485D01*
X13643753Y-15472485D02*
X13634230Y-15453437D01*
X13634230Y-15453437D02*
X13634230Y-15377246D01*
X13634230Y-15377246D02*
X13643753Y-15358199D01*
X13643753Y-15358199D02*
X13662801Y-15348675D01*
X13662801Y-15348675D02*
X13700896Y-15348675D01*
X13700896Y-15348675D02*
X13719944Y-15358199D01*
X13719944Y-15358199D02*
X13729468Y-15377246D01*
X13729468Y-15377246D02*
X13729468Y-15396294D01*
X13729468Y-15396294D02*
X13634230Y-15415342D01*
X13805658Y-15472485D02*
X13824706Y-15482008D01*
X13824706Y-15482008D02*
X13862801Y-15482008D01*
X13862801Y-15482008D02*
X13881849Y-15472485D01*
X13881849Y-15472485D02*
X13891372Y-15453437D01*
X13891372Y-15453437D02*
X13891372Y-15443913D01*
X13891372Y-15443913D02*
X13881849Y-15424865D01*
X13881849Y-15424865D02*
X13862801Y-15415342D01*
X13862801Y-15415342D02*
X13834230Y-15415342D01*
X13834230Y-15415342D02*
X13815182Y-15405818D01*
X13815182Y-15405818D02*
X13805658Y-15386770D01*
X13805658Y-15386770D02*
X13805658Y-15377246D01*
X13805658Y-15377246D02*
X13815182Y-15358199D01*
X13815182Y-15358199D02*
X13834230Y-15348675D01*
X13834230Y-15348675D02*
X13862801Y-15348675D01*
X13862801Y-15348675D02*
X13881849Y-15358199D01*
X13958039Y-15558199D02*
X13967563Y-15548675D01*
X13967563Y-15548675D02*
X13986611Y-15520104D01*
X13986611Y-15520104D02*
X13996134Y-15501056D01*
X13996134Y-15501056D02*
X14005658Y-15472485D01*
X14005658Y-15472485D02*
X14015182Y-15424865D01*
X14015182Y-15424865D02*
X14015182Y-15386770D01*
X14015182Y-15386770D02*
X14005658Y-15339151D01*
X14005658Y-15339151D02*
X13996134Y-15310580D01*
X13996134Y-15310580D02*
X13986611Y-15291532D01*
X13986611Y-15291532D02*
X13967563Y-15262961D01*
X13967563Y-15262961D02*
X13958039Y-15253437D01*
D13*
X8927500Y-15719525D02*
X8992500Y-15654525D01*
X8927500Y-15589525D01*
X8862500Y-15654525D01*
X8927500Y-15719525D01*
D11*
X9358039Y-15746008D02*
X9243753Y-15746008D01*
X9300896Y-15746008D02*
X9300896Y-15546008D01*
X9300896Y-15546008D02*
X9281848Y-15574580D01*
X9281848Y-15574580D02*
X9262801Y-15593627D01*
X9262801Y-15593627D02*
X9243753Y-15603151D01*
X9443753Y-15726961D02*
X9453277Y-15736485D01*
X9453277Y-15736485D02*
X9443753Y-15746008D01*
X9443753Y-15746008D02*
X9434229Y-15736485D01*
X9434229Y-15736485D02*
X9443753Y-15726961D01*
X9443753Y-15726961D02*
X9443753Y-15746008D01*
X9519944Y-15546008D02*
X9643753Y-15546008D01*
X9643753Y-15546008D02*
X9577086Y-15622199D01*
X9577086Y-15622199D02*
X9605658Y-15622199D01*
X9605658Y-15622199D02*
X9624705Y-15631723D01*
X9624705Y-15631723D02*
X9634229Y-15641246D01*
X9634229Y-15641246D02*
X9643753Y-15660294D01*
X9643753Y-15660294D02*
X9643753Y-15707913D01*
X9643753Y-15707913D02*
X9634229Y-15726961D01*
X9634229Y-15726961D02*
X9624705Y-15736485D01*
X9624705Y-15736485D02*
X9605658Y-15746008D01*
X9605658Y-15746008D02*
X9548515Y-15746008D01*
X9548515Y-15746008D02*
X9529467Y-15736485D01*
X9529467Y-15736485D02*
X9519944Y-15726961D01*
X9767563Y-15546008D02*
X9786610Y-15546008D01*
X9786610Y-15546008D02*
X9805658Y-15555532D01*
X9805658Y-15555532D02*
X9815182Y-15565056D01*
X9815182Y-15565056D02*
X9824705Y-15584104D01*
X9824705Y-15584104D02*
X9834229Y-15622199D01*
X9834229Y-15622199D02*
X9834229Y-15669818D01*
X9834229Y-15669818D02*
X9824705Y-15707913D01*
X9824705Y-15707913D02*
X9815182Y-15726961D01*
X9815182Y-15726961D02*
X9805658Y-15736485D01*
X9805658Y-15736485D02*
X9786610Y-15746008D01*
X9786610Y-15746008D02*
X9767563Y-15746008D01*
X9767563Y-15746008D02*
X9748515Y-15736485D01*
X9748515Y-15736485D02*
X9738991Y-15726961D01*
X9738991Y-15726961D02*
X9729467Y-15707913D01*
X9729467Y-15707913D02*
X9719944Y-15669818D01*
X9719944Y-15669818D02*
X9719944Y-15622199D01*
X9719944Y-15622199D02*
X9729467Y-15584104D01*
X9729467Y-15584104D02*
X9738991Y-15565056D01*
X9738991Y-15565056D02*
X9748515Y-15555532D01*
X9748515Y-15555532D02*
X9767563Y-15546008D01*
X9958039Y-15546008D02*
X9977086Y-15546008D01*
X9977086Y-15546008D02*
X9996134Y-15555532D01*
X9996134Y-15555532D02*
X10005658Y-15565056D01*
X10005658Y-15565056D02*
X10015182Y-15584104D01*
X10015182Y-15584104D02*
X10024705Y-15622199D01*
X10024705Y-15622199D02*
X10024705Y-15669818D01*
X10024705Y-15669818D02*
X10015182Y-15707913D01*
X10015182Y-15707913D02*
X10005658Y-15726961D01*
X10005658Y-15726961D02*
X9996134Y-15736485D01*
X9996134Y-15736485D02*
X9977086Y-15746008D01*
X9977086Y-15746008D02*
X9958039Y-15746008D01*
X9958039Y-15746008D02*
X9938991Y-15736485D01*
X9938991Y-15736485D02*
X9929467Y-15726961D01*
X9929467Y-15726961D02*
X9919944Y-15707913D01*
X9919944Y-15707913D02*
X9910420Y-15669818D01*
X9910420Y-15669818D02*
X9910420Y-15622199D01*
X9910420Y-15622199D02*
X9919944Y-15584104D01*
X9919944Y-15584104D02*
X9929467Y-15565056D01*
X9929467Y-15565056D02*
X9938991Y-15555532D01*
X9938991Y-15555532D02*
X9958039Y-15546008D01*
X10110420Y-15746008D02*
X10110420Y-15612675D01*
X10110420Y-15631723D02*
X10119944Y-15622199D01*
X10119944Y-15622199D02*
X10138991Y-15612675D01*
X10138991Y-15612675D02*
X10167563Y-15612675D01*
X10167563Y-15612675D02*
X10186610Y-15622199D01*
X10186610Y-15622199D02*
X10196134Y-15641246D01*
X10196134Y-15641246D02*
X10196134Y-15746008D01*
X10196134Y-15641246D02*
X10205658Y-15622199D01*
X10205658Y-15622199D02*
X10224705Y-15612675D01*
X10224705Y-15612675D02*
X10253277Y-15612675D01*
X10253277Y-15612675D02*
X10272325Y-15622199D01*
X10272325Y-15622199D02*
X10281848Y-15641246D01*
X10281848Y-15641246D02*
X10281848Y-15746008D01*
X10377086Y-15746008D02*
X10377086Y-15612675D01*
X10377086Y-15631723D02*
X10386610Y-15622199D01*
X10386610Y-15622199D02*
X10405658Y-15612675D01*
X10405658Y-15612675D02*
X10434229Y-15612675D01*
X10434229Y-15612675D02*
X10453277Y-15622199D01*
X10453277Y-15622199D02*
X10462801Y-15641246D01*
X10462801Y-15641246D02*
X10462801Y-15746008D01*
X10462801Y-15641246D02*
X10472325Y-15622199D01*
X10472325Y-15622199D02*
X10491372Y-15612675D01*
X10491372Y-15612675D02*
X10519944Y-15612675D01*
X10519944Y-15612675D02*
X10538991Y-15622199D01*
X10538991Y-15622199D02*
X10548515Y-15641246D01*
X10548515Y-15641246D02*
X10548515Y-15746008D01*
X10938991Y-15536485D02*
X10767563Y-15793627D01*
X11196134Y-15546008D02*
X11215182Y-15546008D01*
X11215182Y-15546008D02*
X11234229Y-15555532D01*
X11234229Y-15555532D02*
X11243753Y-15565056D01*
X11243753Y-15565056D02*
X11253277Y-15584104D01*
X11253277Y-15584104D02*
X11262801Y-15622199D01*
X11262801Y-15622199D02*
X11262801Y-15669818D01*
X11262801Y-15669818D02*
X11253277Y-15707913D01*
X11253277Y-15707913D02*
X11243753Y-15726961D01*
X11243753Y-15726961D02*
X11234229Y-15736485D01*
X11234229Y-15736485D02*
X11215182Y-15746008D01*
X11215182Y-15746008D02*
X11196134Y-15746008D01*
X11196134Y-15746008D02*
X11177087Y-15736485D01*
X11177087Y-15736485D02*
X11167563Y-15726961D01*
X11167563Y-15726961D02*
X11158039Y-15707913D01*
X11158039Y-15707913D02*
X11148515Y-15669818D01*
X11148515Y-15669818D02*
X11148515Y-15622199D01*
X11148515Y-15622199D02*
X11158039Y-15584104D01*
X11158039Y-15584104D02*
X11167563Y-15565056D01*
X11167563Y-15565056D02*
X11177087Y-15555532D01*
X11177087Y-15555532D02*
X11196134Y-15546008D01*
X11348515Y-15726961D02*
X11358039Y-15736485D01*
X11358039Y-15736485D02*
X11348515Y-15746008D01*
X11348515Y-15746008D02*
X11338991Y-15736485D01*
X11338991Y-15736485D02*
X11348515Y-15726961D01*
X11348515Y-15726961D02*
X11348515Y-15746008D01*
X11481848Y-15546008D02*
X11500896Y-15546008D01*
X11500896Y-15546008D02*
X11519944Y-15555532D01*
X11519944Y-15555532D02*
X11529467Y-15565056D01*
X11529467Y-15565056D02*
X11538991Y-15584104D01*
X11538991Y-15584104D02*
X11548515Y-15622199D01*
X11548515Y-15622199D02*
X11548515Y-15669818D01*
X11548515Y-15669818D02*
X11538991Y-15707913D01*
X11538991Y-15707913D02*
X11529467Y-15726961D01*
X11529467Y-15726961D02*
X11519944Y-15736485D01*
X11519944Y-15736485D02*
X11500896Y-15746008D01*
X11500896Y-15746008D02*
X11481848Y-15746008D01*
X11481848Y-15746008D02*
X11462801Y-15736485D01*
X11462801Y-15736485D02*
X11453277Y-15726961D01*
X11453277Y-15726961D02*
X11443753Y-15707913D01*
X11443753Y-15707913D02*
X11434229Y-15669818D01*
X11434229Y-15669818D02*
X11434229Y-15622199D01*
X11434229Y-15622199D02*
X11443753Y-15584104D01*
X11443753Y-15584104D02*
X11453277Y-15565056D01*
X11453277Y-15565056D02*
X11462801Y-15555532D01*
X11462801Y-15555532D02*
X11481848Y-15546008D01*
X11729467Y-15546008D02*
X11634229Y-15546008D01*
X11634229Y-15546008D02*
X11624706Y-15641246D01*
X11624706Y-15641246D02*
X11634229Y-15631723D01*
X11634229Y-15631723D02*
X11653277Y-15622199D01*
X11653277Y-15622199D02*
X11700896Y-15622199D01*
X11700896Y-15622199D02*
X11719944Y-15631723D01*
X11719944Y-15631723D02*
X11729467Y-15641246D01*
X11729467Y-15641246D02*
X11738991Y-15660294D01*
X11738991Y-15660294D02*
X11738991Y-15707913D01*
X11738991Y-15707913D02*
X11729467Y-15726961D01*
X11729467Y-15726961D02*
X11719944Y-15736485D01*
X11719944Y-15736485D02*
X11700896Y-15746008D01*
X11700896Y-15746008D02*
X11653277Y-15746008D01*
X11653277Y-15746008D02*
X11634229Y-15736485D01*
X11634229Y-15736485D02*
X11624706Y-15726961D01*
X11929467Y-15746008D02*
X11815182Y-15746008D01*
X11872325Y-15746008D02*
X11872325Y-15546008D01*
X11872325Y-15546008D02*
X11853277Y-15574580D01*
X11853277Y-15574580D02*
X11834229Y-15593627D01*
X11834229Y-15593627D02*
X11815182Y-15603151D01*
X12005658Y-15565056D02*
X12015182Y-15555532D01*
X12015182Y-15555532D02*
X12034229Y-15546008D01*
X12034229Y-15546008D02*
X12081848Y-15546008D01*
X12081848Y-15546008D02*
X12100896Y-15555532D01*
X12100896Y-15555532D02*
X12110420Y-15565056D01*
X12110420Y-15565056D02*
X12119944Y-15584104D01*
X12119944Y-15584104D02*
X12119944Y-15603151D01*
X12119944Y-15603151D02*
X12110420Y-15631723D01*
X12110420Y-15631723D02*
X11996134Y-15746008D01*
X11996134Y-15746008D02*
X12119944Y-15746008D01*
X12196134Y-15546008D02*
X12196134Y-15584104D01*
X12272325Y-15546008D02*
X12272325Y-15584104D01*
X12567563Y-15822199D02*
X12558039Y-15812675D01*
X12558039Y-15812675D02*
X12538991Y-15784104D01*
X12538991Y-15784104D02*
X12529468Y-15765056D01*
X12529468Y-15765056D02*
X12519944Y-15736485D01*
X12519944Y-15736485D02*
X12510420Y-15688865D01*
X12510420Y-15688865D02*
X12510420Y-15650770D01*
X12510420Y-15650770D02*
X12519944Y-15603151D01*
X12519944Y-15603151D02*
X12529468Y-15574580D01*
X12529468Y-15574580D02*
X12538991Y-15555532D01*
X12538991Y-15555532D02*
X12558039Y-15526961D01*
X12558039Y-15526961D02*
X12567563Y-15517437D01*
X12634229Y-15565056D02*
X12643753Y-15555532D01*
X12643753Y-15555532D02*
X12662801Y-15546008D01*
X12662801Y-15546008D02*
X12710420Y-15546008D01*
X12710420Y-15546008D02*
X12729468Y-15555532D01*
X12729468Y-15555532D02*
X12738991Y-15565056D01*
X12738991Y-15565056D02*
X12748515Y-15584104D01*
X12748515Y-15584104D02*
X12748515Y-15603151D01*
X12748515Y-15603151D02*
X12738991Y-15631723D01*
X12738991Y-15631723D02*
X12624706Y-15746008D01*
X12624706Y-15746008D02*
X12748515Y-15746008D01*
X12986610Y-15746008D02*
X12986610Y-15546008D01*
X13072325Y-15746008D02*
X13072325Y-15641246D01*
X13072325Y-15641246D02*
X13062801Y-15622199D01*
X13062801Y-15622199D02*
X13043753Y-15612675D01*
X13043753Y-15612675D02*
X13015182Y-15612675D01*
X13015182Y-15612675D02*
X12996134Y-15622199D01*
X12996134Y-15622199D02*
X12986610Y-15631723D01*
X13196134Y-15746008D02*
X13177087Y-15736485D01*
X13177087Y-15736485D02*
X13167563Y-15726961D01*
X13167563Y-15726961D02*
X13158039Y-15707913D01*
X13158039Y-15707913D02*
X13158039Y-15650770D01*
X13158039Y-15650770D02*
X13167563Y-15631723D01*
X13167563Y-15631723D02*
X13177087Y-15622199D01*
X13177087Y-15622199D02*
X13196134Y-15612675D01*
X13196134Y-15612675D02*
X13224706Y-15612675D01*
X13224706Y-15612675D02*
X13243753Y-15622199D01*
X13243753Y-15622199D02*
X13253277Y-15631723D01*
X13253277Y-15631723D02*
X13262801Y-15650770D01*
X13262801Y-15650770D02*
X13262801Y-15707913D01*
X13262801Y-15707913D02*
X13253277Y-15726961D01*
X13253277Y-15726961D02*
X13243753Y-15736485D01*
X13243753Y-15736485D02*
X13224706Y-15746008D01*
X13224706Y-15746008D02*
X13196134Y-15746008D01*
X13377087Y-15746008D02*
X13358039Y-15736485D01*
X13358039Y-15736485D02*
X13348515Y-15717437D01*
X13348515Y-15717437D02*
X13348515Y-15546008D01*
X13529468Y-15736485D02*
X13510420Y-15746008D01*
X13510420Y-15746008D02*
X13472325Y-15746008D01*
X13472325Y-15746008D02*
X13453277Y-15736485D01*
X13453277Y-15736485D02*
X13443753Y-15717437D01*
X13443753Y-15717437D02*
X13443753Y-15641246D01*
X13443753Y-15641246D02*
X13453277Y-15622199D01*
X13453277Y-15622199D02*
X13472325Y-15612675D01*
X13472325Y-15612675D02*
X13510420Y-15612675D01*
X13510420Y-15612675D02*
X13529468Y-15622199D01*
X13529468Y-15622199D02*
X13538991Y-15641246D01*
X13538991Y-15641246D02*
X13538991Y-15660294D01*
X13538991Y-15660294D02*
X13443753Y-15679342D01*
X13615182Y-15736485D02*
X13634230Y-15746008D01*
X13634230Y-15746008D02*
X13672325Y-15746008D01*
X13672325Y-15746008D02*
X13691372Y-15736485D01*
X13691372Y-15736485D02*
X13700896Y-15717437D01*
X13700896Y-15717437D02*
X13700896Y-15707913D01*
X13700896Y-15707913D02*
X13691372Y-15688865D01*
X13691372Y-15688865D02*
X13672325Y-15679342D01*
X13672325Y-15679342D02*
X13643753Y-15679342D01*
X13643753Y-15679342D02*
X13624706Y-15669818D01*
X13624706Y-15669818D02*
X13615182Y-15650770D01*
X13615182Y-15650770D02*
X13615182Y-15641246D01*
X13615182Y-15641246D02*
X13624706Y-15622199D01*
X13624706Y-15622199D02*
X13643753Y-15612675D01*
X13643753Y-15612675D02*
X13672325Y-15612675D01*
X13672325Y-15612675D02*
X13691372Y-15622199D01*
X13767563Y-15822199D02*
X13777087Y-15812675D01*
X13777087Y-15812675D02*
X13796134Y-15784104D01*
X13796134Y-15784104D02*
X13805658Y-15765056D01*
X13805658Y-15765056D02*
X13815182Y-15736485D01*
X13815182Y-15736485D02*
X13824706Y-15688865D01*
X13824706Y-15688865D02*
X13824706Y-15650770D01*
X13824706Y-15650770D02*
X13815182Y-15603151D01*
X13815182Y-15603151D02*
X13805658Y-15574580D01*
X13805658Y-15574580D02*
X13796134Y-15555532D01*
X13796134Y-15555532D02*
X13777087Y-15526961D01*
X13777087Y-15526961D02*
X13767563Y-15517437D01*
M02*
