G04 #@! TF.GenerationSoftware,KiCad,Pcbnew,8.0.6+1*
G04 #@! TF.CreationDate,2024-11-30T16:17:57+00:00*
G04 #@! TF.ProjectId,corney_island_wireless_autorouted,636f726e-6579-45f6-9973-6c616e645f77,0.2*
G04 #@! TF.SameCoordinates,Original*
G04 #@! TF.FileFunction,Copper,L2,Bot*
G04 #@! TF.FilePolarity,Positive*
%FSLAX46Y46*%
G04 Gerber Fmt 4.6, Leading zero omitted, Abs format (unit mm)*
G04 Created by KiCad (PCBNEW 8.0.6+1) date 2024-11-30 16:17:57*
%MOMM*%
%LPD*%
G01*
G04 APERTURE LIST*
G04 #@! TA.AperFunction,ComponentPad*
%ADD10C,2.000000*%
G04 #@! TD*
G04 #@! TA.AperFunction,ComponentPad*
%ADD11C,1.700000*%
G04 #@! TD*
G04 #@! TA.AperFunction,SMDPad,CuDef*
%ADD12R,0.600000X1.200000*%
G04 #@! TD*
G04 #@! TA.AperFunction,ComponentPad*
%ADD13C,0.800000*%
G04 #@! TD*
G04 #@! TA.AperFunction,SMDPad,CuDef*
%ADD14R,0.800000X1.000000*%
G04 #@! TD*
G04 #@! TA.AperFunction,SMDPad,CuDef*
%ADD15R,1.500000X0.700000*%
G04 #@! TD*
G04 #@! TA.AperFunction,ComponentPad*
%ADD16O,1.750000X1.200000*%
G04 #@! TD*
G04 #@! TA.AperFunction,ComponentPad*
%ADD17O,1.700000X1.700000*%
G04 #@! TD*
G04 #@! TA.AperFunction,SMDPad,CuDef*
%ADD18R,1.200000X0.600000*%
G04 #@! TD*
G04 #@! TA.AperFunction,SMDPad,CuDef*
%ADD19R,2.600000X2.600000*%
G04 #@! TD*
G04 #@! TA.AperFunction,SMDPad,CuDef*
%ADD20R,0.900000X1.200000*%
G04 #@! TD*
G04 #@! TA.AperFunction,ViaPad*
%ADD21C,0.600000*%
G04 #@! TD*
G04 #@! TA.AperFunction,Conductor*
%ADD22C,0.200000*%
G04 #@! TD*
G04 #@! TA.AperFunction,Conductor*
%ADD23C,0.250000*%
G04 #@! TD*
G04 APERTURE END LIST*
D10*
X201900000Y-106375000D03*
X201900000Y-112875000D03*
D11*
X200620000Y-63170000D03*
X200620000Y-65710000D03*
X200620000Y-68250000D03*
X200620000Y-70790000D03*
X200620000Y-73330000D03*
X200620000Y-75870000D03*
X200620000Y-78410000D03*
X200620000Y-80950000D03*
X200620000Y-83490000D03*
X200620000Y-86030000D03*
X200620000Y-88570000D03*
X200620000Y-91110000D03*
X185380000Y-91110000D03*
D12*
X187520000Y-91110000D03*
X198480000Y-91110000D03*
D11*
X185380000Y-88570000D03*
D12*
X187520000Y-88570000D03*
X198480000Y-88570000D03*
D11*
X185380000Y-86030000D03*
D12*
X187520000Y-86030000D03*
X198480000Y-86030000D03*
D11*
X185380000Y-83490000D03*
D12*
X187520000Y-83490000D03*
X198480000Y-83490000D03*
D11*
X185380000Y-80950000D03*
D12*
X187520000Y-80950000D03*
X198480000Y-80950000D03*
D11*
X185380000Y-78410000D03*
D12*
X187520000Y-78410000D03*
X198480000Y-78410000D03*
D11*
X185380000Y-75870000D03*
D12*
X187520000Y-75870000D03*
X198480000Y-75870000D03*
D11*
X185380000Y-73330000D03*
D12*
X187520000Y-73330000D03*
X198480000Y-73330000D03*
D11*
X185380000Y-70790000D03*
D12*
X187520000Y-70790000D03*
X198480000Y-70790000D03*
D11*
X185380000Y-68250000D03*
D12*
X187520000Y-68250000D03*
X198480000Y-68250000D03*
D11*
X185380000Y-65710000D03*
D12*
X187520000Y-65710000D03*
X198480000Y-65710000D03*
D11*
X185380000Y-63170000D03*
D12*
X187520000Y-63170000D03*
X198480000Y-63170000D03*
X188420000Y-63170000D03*
D13*
X196400000Y-63170000D03*
D12*
X188420000Y-65710000D03*
D13*
X196400000Y-65710000D03*
D12*
X188420000Y-68250000D03*
D13*
X196400000Y-68250000D03*
D12*
X188420000Y-70790000D03*
D13*
X196400000Y-70790000D03*
D12*
X188420000Y-73330000D03*
D13*
X196400000Y-73330000D03*
D12*
X188420000Y-75870000D03*
D13*
X196400000Y-75870000D03*
D12*
X188420000Y-78410000D03*
D13*
X196400000Y-78410000D03*
D12*
X188420000Y-80950000D03*
D13*
X196400000Y-80950000D03*
D12*
X188420000Y-83490000D03*
D13*
X196400000Y-83490000D03*
D12*
X188420000Y-86030000D03*
D13*
X196400000Y-86030000D03*
D12*
X188420000Y-88570000D03*
D13*
X196400000Y-88570000D03*
D12*
X188420000Y-91110000D03*
D13*
X196400000Y-91110000D03*
X189600000Y-91110000D03*
D12*
X197580000Y-91110000D03*
D13*
X189600000Y-88570000D03*
D12*
X197580000Y-88570000D03*
D13*
X189600000Y-86030000D03*
D12*
X197580000Y-86030000D03*
D13*
X189600000Y-83490000D03*
D12*
X197580000Y-83490000D03*
D13*
X189600000Y-80950000D03*
D12*
X197580000Y-80950000D03*
D13*
X189600000Y-78410000D03*
D12*
X197580000Y-78410000D03*
D13*
X189600000Y-75870000D03*
D12*
X197580000Y-75870000D03*
D13*
X189600000Y-73330000D03*
D12*
X197580000Y-73330000D03*
D13*
X189600000Y-70790000D03*
D12*
X197580000Y-70790000D03*
D13*
X189600000Y-68250000D03*
D12*
X197580000Y-68250000D03*
D13*
X189600000Y-65710000D03*
D12*
X197580000Y-65710000D03*
D13*
X189600000Y-63170000D03*
D12*
X197580000Y-63170000D03*
D14*
X201115000Y-94975000D03*
X201115000Y-102275000D03*
X203325000Y-94975000D03*
X203325000Y-102275000D03*
D15*
X200465000Y-96375000D03*
X200465000Y-99375000D03*
X200465000Y-100875000D03*
G04 #@! TA.AperFunction,SMDPad,CuDef*
G36*
X194816000Y-105350000D02*
G01*
X195416000Y-104750000D01*
X194816000Y-104150000D01*
X196066000Y-104150000D01*
X196066000Y-105350000D01*
X194816000Y-105350000D01*
G37*
G04 #@! TD.AperFunction*
G04 #@! TA.AperFunction,SMDPad,CuDef*
G36*
X194816000Y-107350000D02*
G01*
X195416000Y-106750000D01*
X194816000Y-106150000D01*
X196066000Y-106150000D01*
X196066000Y-107350000D01*
X194816000Y-107350000D01*
G37*
G04 #@! TD.AperFunction*
D16*
X193000000Y-106750000D03*
X193000000Y-104750000D03*
G04 #@! TA.AperFunction,SMDPad,CuDef*
G36*
X194600000Y-107350000D02*
G01*
X194400000Y-107350000D01*
X194400000Y-106150000D01*
X194600000Y-106150000D01*
X195200000Y-106750000D01*
X194600000Y-107350000D01*
G37*
G04 #@! TD.AperFunction*
G04 #@! TA.AperFunction,SMDPad,CuDef*
G36*
X194600000Y-105350000D02*
G01*
X194400000Y-105350000D01*
X194400000Y-104150000D01*
X194600000Y-104150000D01*
X195200000Y-104750000D01*
X194600000Y-105350000D01*
G37*
G04 #@! TD.AperFunction*
D17*
X189190000Y-98200000D03*
X191730000Y-98200000D03*
X194270000Y-98200000D03*
X196810000Y-98200000D03*
D18*
X196810000Y-100850000D03*
X194270000Y-100850000D03*
X191730000Y-100850000D03*
X189190000Y-100850000D03*
X196810000Y-99950000D03*
X194270000Y-99950000D03*
X191730000Y-99950000D03*
X189190000Y-99950000D03*
G04 #@! TA.AperFunction,SMDPad,CuDef*
G36*
X188449553Y-133433085D02*
G01*
X187849553Y-134472315D01*
X187070131Y-134022315D01*
X187670131Y-132983085D01*
X188449553Y-133433085D01*
G37*
G04 #@! TD.AperFunction*
G04 #@! TA.AperFunction,SMDPad,CuDef*
G36*
X185591669Y-131783085D02*
G01*
X184991669Y-132822315D01*
X184212247Y-132372315D01*
X184812247Y-131333085D01*
X185591669Y-131783085D01*
G37*
G04 #@! TD.AperFunction*
D19*
X96725000Y-77050000D03*
X108275000Y-79250000D03*
X168725000Y-91925000D03*
X180275000Y-94125000D03*
X168725000Y-74925000D03*
X180275000Y-77125000D03*
X150725000Y-72800000D03*
X162275000Y-75000000D03*
D20*
X119650000Y-83750000D03*
X116350000Y-83750000D03*
X137650000Y-64625000D03*
X134350000Y-64625000D03*
D19*
X114725000Y-55800000D03*
X126275000Y-58000000D03*
D20*
X101650000Y-105000000D03*
X98350000Y-105000000D03*
D19*
X147125000Y-112325000D03*
X158675000Y-114525000D03*
D20*
X173650000Y-85875000D03*
X170350000Y-85875000D03*
X152050000Y-123275000D03*
X148750000Y-123275000D03*
X173650000Y-68875000D03*
X170350000Y-68875000D03*
X155650000Y-100750000D03*
X152350000Y-100750000D03*
X137650000Y-98625000D03*
X134350000Y-98625000D03*
X155650000Y-83750000D03*
X152350000Y-83750000D03*
X155650000Y-66750000D03*
X152350000Y-66750000D03*
X119650000Y-100750000D03*
X116350000Y-100750000D03*
G04 #@! TA.AperFunction,SMDPad,CuDef*
G36*
X187193834Y-122257982D02*
G01*
X188493834Y-120006316D01*
X190745500Y-121306316D01*
X189445500Y-123557982D01*
X187193834Y-122257982D01*
G37*
G04 #@! TD.AperFunction*
G04 #@! TA.AperFunction,SMDPad,CuDef*
G36*
X196096427Y-129938238D02*
G01*
X197396427Y-127686572D01*
X199648093Y-128986572D01*
X198348093Y-131238238D01*
X196096427Y-129938238D01*
G37*
G04 #@! TD.AperFunction*
D19*
X150725000Y-89800000D03*
X162275000Y-92000000D03*
D20*
X101650000Y-71000000D03*
X98350000Y-71000000D03*
D19*
X132725000Y-53675000D03*
X144275000Y-55875000D03*
X132725000Y-70675000D03*
X144275000Y-72875000D03*
D20*
X173650000Y-102875000D03*
X170350000Y-102875000D03*
D19*
X168725000Y-57925000D03*
X180275000Y-60125000D03*
G04 #@! TA.AperFunction,SMDPad,CuDef*
G36*
X171182936Y-125687563D02*
G01*
X170872353Y-126846674D01*
X170003020Y-126613737D01*
X170313603Y-125454626D01*
X171182936Y-125687563D01*
G37*
G04 #@! TD.AperFunction*
G04 #@! TA.AperFunction,SMDPad,CuDef*
G36*
X167995380Y-124833463D02*
G01*
X167684797Y-125992574D01*
X166815464Y-125759637D01*
X167126047Y-124600526D01*
X167995380Y-124833463D01*
G37*
G04 #@! TD.AperFunction*
X96725000Y-60050000D03*
X108275000Y-62250000D03*
D20*
X137650000Y-81625000D03*
X134350000Y-81625000D03*
D19*
X150725000Y-55800000D03*
X162275000Y-58000000D03*
X114725000Y-89800000D03*
X126275000Y-92000000D03*
D20*
X119650000Y-66750000D03*
X116350000Y-66750000D03*
D19*
X114725000Y-72800000D03*
X126275000Y-75000000D03*
X96725000Y-94050000D03*
X108275000Y-96250000D03*
X132725000Y-87675000D03*
X144275000Y-89875000D03*
G04 #@! TA.AperFunction,SMDPad,CuDef*
G36*
X167077698Y-115218348D02*
G01*
X167750627Y-112706941D01*
X170262034Y-113379870D01*
X169589105Y-115891277D01*
X167077698Y-115218348D01*
G37*
G04 #@! TD.AperFunction*
G04 #@! TA.AperFunction,SMDPad,CuDef*
G36*
X177664740Y-120332745D02*
G01*
X178337669Y-117821338D01*
X180849076Y-118494267D01*
X180176147Y-121005674D01*
X177664740Y-120332745D01*
G37*
G04 #@! TD.AperFunction*
D20*
X101650000Y-88000000D03*
X98350000Y-88000000D03*
D21*
X107080300Y-64319200D03*
X97992300Y-92114000D03*
X196963200Y-92888300D03*
X188420000Y-67135000D03*
X120723300Y-58003500D03*
X182141500Y-83660300D03*
X120723300Y-75386500D03*
X121275000Y-87028000D03*
X147032700Y-110513500D03*
X138923800Y-84075500D03*
X138931600Y-68529700D03*
X139275000Y-51394700D03*
X176929500Y-71556900D03*
X174996700Y-112800800D03*
X156883900Y-77533800D03*
X152860800Y-53742500D03*
X157275000Y-87028000D03*
X194642100Y-119474400D03*
X176169100Y-72303700D03*
X174893400Y-87247200D03*
X176876700Y-55873300D03*
X172692700Y-102836700D03*
X102611200Y-104831300D03*
X120571600Y-101671600D03*
X138619600Y-98880500D03*
X156605500Y-100855500D03*
X172695200Y-86015500D03*
X137650000Y-80513600D03*
X156626500Y-83472500D03*
X120614900Y-84045000D03*
X102534100Y-87115900D03*
X155583900Y-65629700D03*
X138217000Y-63497800D03*
X155583900Y-69465300D03*
X172686000Y-69270500D03*
X102551600Y-71901600D03*
X118693400Y-66750000D03*
X171298800Y-125085100D03*
X187227000Y-92903100D03*
X153002100Y-123258900D03*
X188620000Y-134451600D03*
X199075800Y-99375000D03*
X193022700Y-100086400D03*
X195905900Y-101739200D03*
X193194500Y-74618500D03*
X193796200Y-76613700D03*
X193151800Y-101066500D03*
X199179900Y-96375000D03*
X195816000Y-108297000D03*
D22*
X110934900Y-72965100D02*
X97589100Y-72965100D01*
D23*
X190171800Y-75650000D02*
X189820000Y-75650000D01*
D22*
X173061400Y-67938500D02*
X171223200Y-69776700D01*
X140781000Y-68079700D02*
X140606700Y-67905400D01*
X167483600Y-69776700D02*
X164785500Y-67078600D01*
X171223200Y-69776700D02*
X167483600Y-69776700D01*
X96725000Y-92448300D02*
X97658000Y-92448300D01*
X96725000Y-73829200D02*
X96725000Y-77050000D01*
X189820000Y-75650000D02*
X189600000Y-75870000D01*
D23*
X197580000Y-75870000D02*
X197425000Y-75870000D01*
D22*
X97589100Y-72965100D02*
X96725000Y-73829200D01*
X183052300Y-74600000D02*
X176390800Y-67938500D01*
X100036500Y-69154800D02*
X103280400Y-65910900D01*
X159919500Y-68079700D02*
X140781000Y-68079700D01*
X119995400Y-67905400D02*
X117729100Y-70171700D01*
X140606700Y-67905400D02*
X119995400Y-67905400D01*
X113728300Y-70171700D02*
X110934900Y-72965100D01*
X96725000Y-94050000D02*
X96725000Y-92448300D01*
X103280400Y-65910900D02*
X103280400Y-64319200D01*
D23*
X197425000Y-75870000D02*
X196700000Y-75145000D01*
X195595000Y-75650000D02*
X190171800Y-75650000D01*
X196700000Y-75145000D02*
X196100000Y-75145000D01*
D22*
X176390800Y-67938500D02*
X173061400Y-67938500D01*
X97658000Y-92448300D02*
X97992300Y-92114000D01*
X160920600Y-67078600D02*
X159919500Y-68079700D01*
X101261600Y-62300400D02*
X98975400Y-62300400D01*
X98700100Y-69154800D02*
X100036500Y-69154800D01*
X103280400Y-64319200D02*
X101261600Y-62300400D01*
D23*
X196100000Y-75145000D02*
X195595000Y-75650000D01*
D22*
X190171800Y-75650000D02*
X189121800Y-74600000D01*
X189121800Y-74600000D02*
X183052300Y-74600000D01*
X97589100Y-72965100D02*
X97589100Y-70265800D01*
X107080300Y-64319200D02*
X103280400Y-64319200D01*
X97589100Y-70265800D02*
X98700100Y-69154800D01*
X117729100Y-70171700D02*
X113728300Y-70171700D01*
X98975400Y-62300400D02*
X96725000Y-60050000D01*
D23*
X197775000Y-75870000D02*
X197580000Y-75870000D01*
D22*
X164785500Y-67078600D02*
X160920600Y-67078600D01*
X108275000Y-99364000D02*
X108275000Y-96250000D01*
X105054100Y-102584900D02*
X108275000Y-99364000D01*
X98350000Y-105000000D02*
X99101700Y-105000000D01*
X99101700Y-105000000D02*
X101516800Y-102584900D01*
X101516800Y-102584900D02*
X105054100Y-102584900D01*
D23*
X188575000Y-70790000D02*
X189300000Y-71515000D01*
D22*
X189820000Y-65490000D02*
X189600000Y-65710000D01*
X201900000Y-112875000D02*
X196367700Y-107342700D01*
D23*
X196700000Y-64985000D02*
X196100000Y-64985000D01*
D22*
X202623300Y-95600000D02*
X202623300Y-95108300D01*
X197825400Y-99715900D02*
X198818000Y-98723300D01*
X196507600Y-101490000D02*
X196155100Y-101137500D01*
D23*
X197425000Y-65710000D02*
X196700000Y-64985000D01*
D22*
X200403300Y-92888300D02*
X196963200Y-92888300D01*
X196507600Y-106610100D02*
X196507600Y-101490000D01*
D23*
X189900000Y-71515000D02*
X190395000Y-71020000D01*
X189900000Y-68975000D02*
X190395000Y-68480000D01*
D22*
X198818000Y-98723300D02*
X202063400Y-98723300D01*
D23*
X195595000Y-65490000D02*
X189820000Y-65490000D01*
D22*
X196507600Y-101490000D02*
X197578300Y-101490000D01*
X196367700Y-106750000D02*
X196507600Y-106610100D01*
X195908300Y-100945000D02*
X195908300Y-100850000D01*
D23*
X190395000Y-71020000D02*
X196170000Y-71020000D01*
X188225000Y-68250000D02*
X188420000Y-68250000D01*
D22*
X197578300Y-101490000D02*
X197825400Y-101242900D01*
D23*
X188575000Y-68250000D02*
X189300000Y-68975000D01*
D22*
X202623300Y-95108300D02*
X200403300Y-92888300D01*
X203226700Y-96203400D02*
X202623300Y-95600000D01*
X188497500Y-68250000D02*
X188497500Y-67212500D01*
X188497500Y-67212500D02*
X188420000Y-67135000D01*
X196810000Y-100850000D02*
X195908300Y-100850000D01*
X195816000Y-106750000D02*
X196367700Y-106750000D01*
D23*
X188420000Y-70790000D02*
X188575000Y-70790000D01*
D22*
X197825400Y-101242900D02*
X197825400Y-99715900D01*
X203226700Y-97560000D02*
X203226700Y-96203400D01*
D23*
X189300000Y-71515000D02*
X189900000Y-71515000D01*
X190395000Y-68480000D02*
X196170000Y-68480000D01*
D22*
X196170000Y-68480000D02*
X196400000Y-68250000D01*
D23*
X188497500Y-68250000D02*
X188575000Y-68250000D01*
X197580000Y-65710000D02*
X197425000Y-65710000D01*
D22*
X196170000Y-71020000D02*
X196400000Y-70790000D01*
D23*
X188420000Y-68250000D02*
X188497500Y-68250000D01*
D22*
X202063400Y-98723300D02*
X203226700Y-97560000D01*
X196367700Y-107342700D02*
X196367700Y-106750000D01*
D23*
X188225000Y-70790000D02*
X188420000Y-70790000D01*
X196100000Y-64985000D02*
X195595000Y-65490000D01*
D22*
X196100800Y-101137500D02*
X195908300Y-100945000D01*
D23*
X197775000Y-65710000D02*
X197580000Y-65710000D01*
D22*
X196155100Y-101137500D02*
X196100800Y-101137500D01*
D23*
X189300000Y-68975000D02*
X189900000Y-68975000D01*
D22*
X99101700Y-87248300D02*
X105030100Y-81319900D01*
X99101700Y-88000000D02*
X99101700Y-87248300D01*
X105030100Y-81319900D02*
X106205100Y-81319900D01*
X98350000Y-88000000D02*
X99101700Y-88000000D01*
X106205100Y-81319900D02*
X108275000Y-79250000D01*
X98350000Y-71000000D02*
X99101700Y-71000000D01*
X99101700Y-71000000D02*
X100546700Y-69555000D01*
X108275000Y-65366700D02*
X108275000Y-62250000D01*
X104086700Y-69555000D02*
X108275000Y-65366700D01*
X100546700Y-69555000D02*
X104086700Y-69555000D01*
X117311500Y-75386500D02*
X120723300Y-75386500D01*
X171966700Y-86810500D02*
X174479000Y-86810500D01*
X116928500Y-58003500D02*
X120723300Y-58003500D01*
D23*
X195595000Y-78190000D02*
X189820000Y-78190000D01*
X196700000Y-77685000D02*
X196100000Y-77685000D01*
D22*
X123657800Y-84645200D02*
X133948800Y-84645200D01*
X114725000Y-72800000D02*
X117311500Y-75386500D01*
X177629200Y-83660300D02*
X182141500Y-83660300D01*
X169633500Y-87212200D02*
X171565000Y-87212200D01*
X133948800Y-84645200D02*
X135164000Y-83430000D01*
D23*
X197580000Y-78410000D02*
X197425000Y-78410000D01*
X196100000Y-77685000D02*
X195595000Y-78190000D01*
D22*
X135164000Y-83430000D02*
X139380200Y-83430000D01*
X114725000Y-89800000D02*
X117497000Y-87028000D01*
X114725000Y-55800000D02*
X116928500Y-58003500D01*
D23*
X197425000Y-78410000D02*
X196700000Y-77685000D01*
D22*
X141734600Y-85784400D02*
X168205700Y-85784400D01*
X121275000Y-87028000D02*
X123657800Y-84645200D01*
X171565000Y-87212200D02*
X171966700Y-86810500D01*
X174479000Y-86810500D02*
X177629200Y-83660300D01*
D23*
X197775000Y-78410000D02*
X197580000Y-78410000D01*
D22*
X139380200Y-83430000D02*
X141734600Y-85784400D01*
X117497000Y-87028000D02*
X121275000Y-87028000D01*
X189820000Y-78190000D02*
X189600000Y-78410000D01*
X168205700Y-85784400D02*
X169633500Y-87212200D01*
X116350000Y-100750000D02*
X117101700Y-100750000D01*
X120600000Y-97251700D02*
X124134700Y-97251700D01*
X124134700Y-97251700D02*
X126275000Y-95111400D01*
X117101700Y-100750000D02*
X120600000Y-97251700D01*
X126275000Y-95111400D02*
X126275000Y-92000000D01*
X126275000Y-78104000D02*
X126275000Y-75000000D01*
X116350000Y-83750000D02*
X117101700Y-83750000D01*
X122453200Y-81925800D02*
X126275000Y-78104000D01*
X118925900Y-81925800D02*
X122453200Y-81925800D01*
X117101700Y-83750000D02*
X118925900Y-81925800D01*
X124134700Y-63251700D02*
X126275000Y-61111400D01*
X120600000Y-63251700D02*
X124134700Y-63251700D01*
X117101700Y-66750000D02*
X120600000Y-63251700D01*
X116350000Y-66750000D02*
X117101700Y-66750000D01*
X126275000Y-61111400D02*
X126275000Y-58000000D01*
X136324500Y-84075500D02*
X138923800Y-84075500D01*
D23*
X196100000Y-80225000D02*
X195595000Y-80730000D01*
X197775000Y-80950000D02*
X197580000Y-80950000D01*
X197425000Y-80950000D02*
X196700000Y-80225000D01*
D22*
X147125000Y-110605800D02*
X147032700Y-110513500D01*
X132725000Y-53675000D02*
X135005300Y-51394700D01*
X132725000Y-87675000D02*
X136324500Y-84075500D01*
D23*
X197580000Y-80950000D02*
X197425000Y-80950000D01*
X196700000Y-80225000D02*
X196100000Y-80225000D01*
D22*
X165514000Y-71556900D02*
X164084300Y-72986600D01*
X176929500Y-71556900D02*
X165514000Y-71556900D01*
X140526700Y-70124800D02*
X138931600Y-68529700D01*
X134870300Y-68529700D02*
X138931600Y-68529700D01*
X132725000Y-70675000D02*
X134870300Y-68529700D01*
X147125000Y-112325000D02*
X147125000Y-110605800D01*
X135005300Y-51394700D02*
X139275000Y-51394700D01*
X160336600Y-72986600D02*
X157474800Y-70124800D01*
X157474800Y-70124800D02*
X140526700Y-70124800D01*
X164084300Y-72986600D02*
X160336600Y-72986600D01*
D23*
X195595000Y-80730000D02*
X189820000Y-80730000D01*
D22*
X189820000Y-80730000D02*
X189600000Y-80950000D01*
X138429000Y-95297700D02*
X141970900Y-95297700D01*
X135101700Y-98625000D02*
X138429000Y-95297700D01*
X141970900Y-95297700D02*
X144275000Y-92993600D01*
X144275000Y-92993600D02*
X144275000Y-89875000D01*
X134350000Y-98625000D02*
X135101700Y-98625000D01*
X134350000Y-81625000D02*
X135101700Y-81625000D01*
X135101700Y-81625000D02*
X138600000Y-78126700D01*
X144275000Y-75986400D02*
X144275000Y-72875000D01*
X142134700Y-78126700D02*
X144275000Y-75986400D01*
X138600000Y-78126700D02*
X142134700Y-78126700D01*
X144275000Y-58986400D02*
X144275000Y-55875000D01*
X142134700Y-61126700D02*
X144275000Y-58986400D01*
X135101700Y-64625000D02*
X138600000Y-61126700D01*
X134350000Y-64625000D02*
X135101700Y-64625000D01*
X138600000Y-61126700D02*
X142134700Y-61126700D01*
X170265700Y-112800800D02*
X174996700Y-112800800D01*
D23*
X197425000Y-83490000D02*
X196700000Y-82765000D01*
X195595000Y-83270000D02*
X189820000Y-83270000D01*
D22*
X150725000Y-72800000D02*
X152975400Y-75050400D01*
X154400500Y-75050400D02*
X156883900Y-77533800D01*
X152975400Y-75050400D02*
X154400500Y-75050400D01*
X150725000Y-89800000D02*
X153497000Y-87028000D01*
D23*
X197580000Y-83490000D02*
X197425000Y-83490000D01*
X196100000Y-82765000D02*
X195595000Y-83270000D01*
D22*
X169802300Y-112337400D02*
X170265700Y-112800800D01*
X152782500Y-53742500D02*
X152860800Y-53742500D01*
X153497000Y-87028000D02*
X157275000Y-87028000D01*
X168669900Y-114299100D02*
X169195500Y-112337400D01*
X169195500Y-112337400D02*
X169802300Y-112337400D01*
X189820000Y-83270000D02*
X189600000Y-83490000D01*
D23*
X196700000Y-82765000D02*
X196100000Y-82765000D01*
D22*
X150725000Y-55800000D02*
X152782500Y-53742500D01*
D23*
X197775000Y-83490000D02*
X197580000Y-83490000D01*
D22*
X156275100Y-91749500D02*
X158116400Y-89908200D01*
X158116400Y-89908200D02*
X160183200Y-89908200D01*
X153101700Y-100750000D02*
X156275100Y-97576600D01*
X152350000Y-100750000D02*
X153101700Y-100750000D01*
X156275100Y-97576600D02*
X156275100Y-91749500D01*
X160183200Y-89908200D02*
X162275000Y-92000000D01*
X162275000Y-75000000D02*
X162275000Y-78699300D01*
X156319300Y-84655000D02*
X154006700Y-84655000D01*
X154006700Y-84655000D02*
X153101700Y-83750000D01*
X162275000Y-78699300D02*
X156319300Y-84655000D01*
X152350000Y-83750000D02*
X153101700Y-83750000D01*
X162275000Y-61641300D02*
X162275000Y-58000000D01*
X154003400Y-67651700D02*
X156264600Y-67651700D01*
X152350000Y-66750000D02*
X153101700Y-66750000D01*
X153101700Y-66750000D02*
X154003400Y-67651700D01*
X156264600Y-67651700D02*
X162275000Y-61641300D01*
D23*
X196100000Y-85305000D02*
X195595000Y-85810000D01*
X197775000Y-86030000D02*
X197580000Y-86030000D01*
D22*
X168725000Y-57925000D02*
X170776700Y-55873300D01*
X170776700Y-55873300D02*
X176876700Y-55873300D01*
X168725000Y-91925000D02*
X173402800Y-87247200D01*
X174893400Y-87247200D02*
X177315000Y-84825600D01*
D23*
X197580000Y-86030000D02*
X197425000Y-86030000D01*
D22*
X188969700Y-121782100D02*
X189985200Y-120023300D01*
X189985200Y-120023300D02*
X190728500Y-120023300D01*
D23*
X195595000Y-85810000D02*
X190171800Y-85810000D01*
D22*
X173402800Y-87247200D02*
X174893400Y-87247200D01*
X191277400Y-119474400D02*
X194642100Y-119474400D01*
X171346300Y-72303700D02*
X176169100Y-72303700D01*
D23*
X197425000Y-86030000D02*
X196700000Y-85305000D01*
D22*
X189820000Y-85810000D02*
X189600000Y-86030000D01*
X190728500Y-120023300D02*
X191277400Y-119474400D01*
X168725000Y-74925000D02*
X171346300Y-72303700D01*
D23*
X190171800Y-85810000D02*
X189820000Y-85810000D01*
D22*
X189187400Y-84825600D02*
X190171800Y-85810000D01*
D23*
X196700000Y-85305000D02*
X196100000Y-85305000D01*
D22*
X177315000Y-84825600D02*
X189187400Y-84825600D01*
X170350000Y-102875000D02*
X171101700Y-102875000D01*
X171101700Y-102875000D02*
X173928300Y-100048400D01*
X177456400Y-100048400D02*
X180275000Y-97229800D01*
X173928300Y-100048400D02*
X177456400Y-100048400D01*
X180275000Y-97229800D02*
X180275000Y-94125000D01*
X171101700Y-85875000D02*
X171101700Y-85123300D01*
X170350000Y-85875000D02*
X171101700Y-85875000D01*
X171101700Y-85123300D02*
X177030100Y-79194900D01*
X178205100Y-79194900D02*
X180275000Y-77125000D01*
X177030100Y-79194900D02*
X178205100Y-79194900D01*
X174600000Y-65376700D02*
X178126700Y-65376700D01*
X178126700Y-65376700D02*
X180275000Y-63228400D01*
X171101700Y-68875000D02*
X174600000Y-65376700D01*
X170350000Y-68875000D02*
X171101700Y-68875000D01*
X180275000Y-63228400D02*
X180275000Y-60125000D01*
X149501700Y-123275000D02*
X149501700Y-122523300D01*
X155430100Y-116594900D02*
X156605100Y-116594900D01*
X148750000Y-123275000D02*
X149501700Y-123275000D01*
X149501700Y-122523300D02*
X155430100Y-116594900D01*
X156605100Y-116594900D02*
X158675000Y-114525000D01*
X167405400Y-125296500D02*
X167690900Y-124231000D01*
X178731300Y-121375200D02*
X178124400Y-121375200D01*
X174900600Y-120811700D02*
X171481300Y-124231000D01*
X178124400Y-121375200D02*
X177560900Y-120811700D01*
X177560900Y-120811700D02*
X174900600Y-120811700D01*
X171481300Y-124231000D02*
X167690900Y-124231000D01*
X179256900Y-119413500D02*
X178731300Y-121375200D01*
X156605500Y-100855500D02*
X156507200Y-100855500D01*
D23*
X188420000Y-86030000D02*
X188575000Y-86030000D01*
D22*
X120401700Y-101501700D02*
X120401700Y-100750000D01*
X183311100Y-88937300D02*
X184948400Y-87300000D01*
X171700200Y-103829200D02*
X159579200Y-103829200D01*
D23*
X188575000Y-86030000D02*
X189300000Y-86755000D01*
X189300000Y-86755000D02*
X189600000Y-86755000D01*
D22*
X102570400Y-104831300D02*
X102611200Y-104831300D01*
X172692700Y-102836700D02*
X171700200Y-103829200D01*
X137650000Y-98625000D02*
X136898300Y-98625000D01*
X155650000Y-100750000D02*
X154898300Y-100750000D01*
X172860000Y-102836700D02*
X172692700Y-102836700D01*
X173650000Y-102875000D02*
X175298000Y-102875000D01*
X153989300Y-101659000D02*
X154898300Y-100750000D01*
X136898300Y-98625000D02*
X134773300Y-100750000D01*
X196170000Y-86260000D02*
X196400000Y-86030000D01*
X101650000Y-105000000D02*
X102401700Y-105000000D01*
X183311100Y-94861900D02*
X183311100Y-88937300D01*
D23*
X190395000Y-86260000D02*
X196170000Y-86260000D01*
D22*
X156507200Y-100855500D02*
X156401700Y-100750000D01*
X138619600Y-98880500D02*
X138401700Y-98662600D01*
X137650000Y-98625000D02*
X138401700Y-98625000D01*
X156025900Y-100750000D02*
X156401700Y-100750000D01*
X102401700Y-105000000D02*
X102570400Y-104831300D01*
X120571600Y-101671600D02*
X117411900Y-104831300D01*
X159579200Y-103829200D02*
X156605500Y-100855500D01*
X120571600Y-101671600D02*
X120401700Y-101501700D01*
X189055000Y-87300000D02*
X189600000Y-86755000D01*
X156025900Y-100750000D02*
X155817800Y-100750000D01*
X117411900Y-104831300D02*
X102611200Y-104831300D01*
X172898300Y-102875000D02*
X172860000Y-102836700D01*
X119650000Y-100750000D02*
X120401700Y-100750000D01*
X138401700Y-98662600D02*
X138401700Y-98625000D01*
X173650000Y-102875000D02*
X172898300Y-102875000D01*
D23*
X189900000Y-86755000D02*
X190395000Y-86260000D01*
X189600000Y-86755000D02*
X189900000Y-86755000D01*
D22*
X138619600Y-98880500D02*
X141398100Y-101659000D01*
X155650000Y-100750000D02*
X155817800Y-100750000D01*
X141398100Y-101659000D02*
X153989300Y-101659000D01*
X175298000Y-102875000D02*
X183311100Y-94861900D01*
D23*
X188225000Y-86030000D02*
X188420000Y-86030000D01*
D22*
X184948400Y-87300000D02*
X189055000Y-87300000D01*
X134773300Y-100750000D02*
X120401700Y-100750000D01*
X152465200Y-85382700D02*
X151598300Y-84515800D01*
X172757800Y-86015500D02*
X172695200Y-86015500D01*
D23*
X188225000Y-83490000D02*
X188420000Y-83490000D01*
D22*
X119650000Y-83750000D02*
X120401700Y-83750000D01*
X153946900Y-82798600D02*
X154898300Y-83750000D01*
X196170000Y-83720000D02*
X196400000Y-83490000D01*
X168381000Y-85382700D02*
X152465200Y-85382700D01*
X172898300Y-85875000D02*
X172757800Y-86015500D01*
X151598300Y-82955300D02*
X150268000Y-81625000D01*
X133910400Y-84045000D02*
X120614900Y-84045000D01*
X120401700Y-83831800D02*
X120401700Y-83750000D01*
X107577300Y-84474100D02*
X115597400Y-84474100D01*
X151598300Y-82955300D02*
X151755000Y-82798600D01*
X156401700Y-83697300D02*
X156401700Y-83750000D01*
X151598300Y-84515800D02*
X151598300Y-82955300D01*
X156025900Y-83750000D02*
X156401700Y-83750000D01*
X173650000Y-85875000D02*
X174401700Y-85875000D01*
X187691300Y-82297600D02*
X178308200Y-82297600D01*
D23*
X188420000Y-83490000D02*
X188497500Y-83490000D01*
D22*
X102534100Y-87115900D02*
X104935500Y-87115900D01*
X117996600Y-84651700D02*
X118898300Y-83750000D01*
X155650000Y-83750000D02*
X154898300Y-83750000D01*
X150268000Y-81625000D02*
X137650000Y-81625000D01*
X173650000Y-85875000D02*
X172898300Y-85875000D01*
X156626500Y-83472500D02*
X156401700Y-83697300D01*
X137650000Y-81249200D02*
X137650000Y-80513600D01*
D23*
X189300000Y-84215000D02*
X189900000Y-84215000D01*
D22*
X102401700Y-87248300D02*
X102534100Y-87115900D01*
D23*
X188575000Y-83490000D02*
X189300000Y-84215000D01*
D22*
X151755000Y-82798600D02*
X153946900Y-82798600D01*
X188497500Y-83490000D02*
X188497500Y-83103800D01*
X169808800Y-86810500D02*
X168381000Y-85382700D01*
X115775000Y-84651700D02*
X117996600Y-84651700D01*
X172695200Y-86015500D02*
X172093900Y-86015500D01*
X119650000Y-83750000D02*
X118898300Y-83750000D01*
X174730800Y-85875000D02*
X174401700Y-85875000D01*
D23*
X188497500Y-83490000D02*
X188575000Y-83490000D01*
D22*
X172093900Y-86015500D02*
X171298900Y-86810500D01*
D23*
X189900000Y-84215000D02*
X190395000Y-83720000D01*
D22*
X115597400Y-84474100D02*
X115775000Y-84651700D01*
X137274200Y-81625000D02*
X137650000Y-81249200D01*
X104935500Y-87115900D02*
X107577300Y-84474100D01*
D23*
X190395000Y-83720000D02*
X196170000Y-83720000D01*
D22*
X136330400Y-81625000D02*
X133910400Y-84045000D01*
X178308200Y-82297600D02*
X174730800Y-85875000D01*
X120614900Y-84045000D02*
X120401700Y-83831800D01*
X101650000Y-88000000D02*
X102401700Y-88000000D01*
X137650000Y-81625000D02*
X137274200Y-81625000D01*
X171298900Y-86810500D02*
X169808800Y-86810500D01*
X156025900Y-83750000D02*
X155650000Y-83750000D01*
X188497500Y-83103800D02*
X187691300Y-82297600D01*
X137274200Y-81625000D02*
X136898300Y-81625000D01*
X102401700Y-88000000D02*
X102401700Y-87248300D01*
X136898300Y-81625000D02*
X136330400Y-81625000D01*
X172686000Y-69270500D02*
X172686000Y-70196200D01*
X167212700Y-70196200D02*
X164525400Y-67508900D01*
X173650000Y-68875000D02*
X173274200Y-68875000D01*
X115669800Y-67546500D02*
X115775000Y-67651700D01*
X107168000Y-67546500D02*
X115669800Y-67546500D01*
X188592500Y-80659600D02*
X187612900Y-79680000D01*
X117791700Y-67651700D02*
X118693400Y-66750000D01*
X173212500Y-68875000D02*
X172898300Y-68875000D01*
X102401700Y-71751700D02*
X102401700Y-71000000D01*
X164525400Y-67508900D02*
X161302900Y-67508900D01*
D23*
X190395000Y-81180000D02*
X196170000Y-81180000D01*
D22*
X184959700Y-79680000D02*
X182114800Y-76835100D01*
X188592500Y-80967500D02*
X188592500Y-80659600D01*
X137650000Y-63724800D02*
X137650000Y-63723300D01*
X154898300Y-66750000D02*
X152773300Y-64625000D01*
D23*
X188420000Y-80950000D02*
X188575000Y-80950000D01*
D22*
X102401700Y-71000000D02*
X103714500Y-71000000D01*
X119274200Y-66750000D02*
X118693400Y-66750000D01*
X155650000Y-65695800D02*
X155583900Y-65629700D01*
X137650000Y-64625000D02*
X137650000Y-63824100D01*
X134773300Y-66750000D02*
X136898300Y-64625000D01*
X102551600Y-71901600D02*
X102401700Y-71751700D01*
D23*
X188575000Y-80950000D02*
X188592500Y-80967500D01*
D22*
X137650000Y-64625000D02*
X136898300Y-64625000D01*
X137650000Y-63723300D02*
X137991500Y-63723300D01*
X161302900Y-67508900D02*
X159346500Y-69465300D01*
X172686000Y-69270500D02*
X172898300Y-69058200D01*
X172898300Y-69058200D02*
X172898300Y-68875000D01*
X137650000Y-63824100D02*
X137650000Y-63724800D01*
X155650000Y-66750000D02*
X155650000Y-65695800D01*
X182114800Y-75884500D02*
X176426500Y-70196200D01*
D23*
X188592500Y-80967500D02*
X189300000Y-81675000D01*
D22*
X101650000Y-71000000D02*
X102401700Y-71000000D01*
X103714500Y-71000000D02*
X107168000Y-67546500D01*
X152773300Y-64625000D02*
X137650000Y-64625000D01*
X182114800Y-76835100D02*
X182114800Y-75884500D01*
X119650000Y-66750000D02*
X134773300Y-66750000D01*
X119650000Y-66750000D02*
X119274200Y-66750000D01*
X187612900Y-79680000D02*
X184959700Y-79680000D01*
X155650000Y-66750000D02*
X154898300Y-66750000D01*
X173274200Y-68875000D02*
X173212500Y-68875000D01*
X196170000Y-81180000D02*
X196400000Y-80950000D01*
D23*
X188225000Y-80950000D02*
X188420000Y-80950000D01*
D22*
X115775000Y-67651700D02*
X117791700Y-67651700D01*
X176426500Y-70196200D02*
X172686000Y-70196200D01*
X159346500Y-69465300D02*
X155583900Y-69465300D01*
X172686000Y-70196200D02*
X167212700Y-70196200D01*
D23*
X189900000Y-81675000D02*
X190395000Y-81180000D01*
X189300000Y-81675000D02*
X189900000Y-81675000D01*
D22*
X137991500Y-63723300D02*
X138217000Y-63497800D01*
X169633500Y-125893700D02*
X169633500Y-125893600D01*
X188620000Y-134224500D02*
X188620000Y-134451600D01*
X184210700Y-90649500D02*
X184210700Y-91635500D01*
X189055000Y-89840000D02*
X185020200Y-89840000D01*
X156061100Y-126317900D02*
X169209300Y-126317900D01*
X152050000Y-123275000D02*
X152801700Y-123275000D01*
D23*
X189900000Y-89295000D02*
X190395000Y-88800000D01*
D22*
X188620100Y-134224400D02*
X188620000Y-134224500D01*
X189600000Y-89295000D02*
X189055000Y-89840000D01*
X170878500Y-125085100D02*
X171298800Y-125085100D01*
X170593000Y-126150700D02*
X169633500Y-125893600D01*
X169209300Y-126317900D02*
X169633500Y-125893700D01*
X186899600Y-132608200D02*
X186899600Y-133231000D01*
X153002100Y-123258900D02*
X156061100Y-126317900D01*
X171552400Y-126407700D02*
X180699100Y-126407700D01*
X152817800Y-123258900D02*
X153002100Y-123258900D01*
D23*
X188225000Y-88570000D02*
X188420000Y-88570000D01*
D22*
X185020200Y-89840000D02*
X184210700Y-90649500D01*
X170593000Y-126150700D02*
X170878500Y-125085100D01*
X184210700Y-91635500D02*
X185478300Y-92903100D01*
X187759800Y-133727700D02*
X188620100Y-134224400D01*
X196170000Y-88800000D02*
X196400000Y-88570000D01*
D23*
X188575000Y-88570000D02*
X189300000Y-89295000D01*
X189600000Y-89295000D02*
X189900000Y-89295000D01*
D22*
X152801700Y-123275000D02*
X152817800Y-123258900D01*
D23*
X188420000Y-88570000D02*
X188575000Y-88570000D01*
D22*
X185478300Y-92903100D02*
X187227000Y-92903100D01*
D23*
X190395000Y-88800000D02*
X196170000Y-88800000D01*
D22*
X170593000Y-126150700D02*
X171552400Y-126407800D01*
X187759800Y-133727700D02*
X186899600Y-133231000D01*
D23*
X189300000Y-89295000D02*
X189600000Y-89295000D01*
D22*
X180699100Y-126407700D02*
X186899600Y-132608200D01*
X171552400Y-126407800D02*
X171552400Y-126407700D01*
D23*
X196700000Y-62445000D02*
X196100000Y-62445000D01*
X197580000Y-63170000D02*
X197425000Y-63170000D01*
D22*
X189820000Y-62950000D02*
X189600000Y-63170000D01*
D23*
X196100000Y-62445000D02*
X195595000Y-62950000D01*
X197425000Y-63170000D02*
X196700000Y-62445000D01*
X195595000Y-62950000D02*
X189820000Y-62950000D01*
D22*
X200465000Y-99375000D02*
X199075800Y-99375000D01*
D23*
X197775000Y-63170000D02*
X197580000Y-63170000D01*
X197425000Y-68250000D02*
X196700000Y-67525000D01*
X196700000Y-67525000D02*
X196100000Y-67525000D01*
X197580000Y-68250000D02*
X197425000Y-68250000D01*
D22*
X189820000Y-68030000D02*
X189600000Y-68250000D01*
D23*
X196100000Y-67525000D02*
X195595000Y-68030000D01*
X197775000Y-68250000D02*
X197580000Y-68250000D01*
X195595000Y-68030000D02*
X189820000Y-68030000D01*
X197580000Y-70790000D02*
X197425000Y-70790000D01*
X196700000Y-70065000D02*
X196100000Y-70065000D01*
X197425000Y-70790000D02*
X196700000Y-70065000D01*
D22*
X193786300Y-100850000D02*
X194270000Y-100850000D01*
X193022700Y-100086400D02*
X193786300Y-100850000D01*
D23*
X196100000Y-70065000D02*
X195595000Y-70570000D01*
X197775000Y-70790000D02*
X197580000Y-70790000D01*
X195595000Y-70570000D02*
X189820000Y-70570000D01*
D22*
X189820000Y-70570000D02*
X189600000Y-70790000D01*
D23*
X197425000Y-73330000D02*
X196700000Y-72605000D01*
D22*
X189820000Y-73110000D02*
X189600000Y-73330000D01*
D23*
X197580000Y-73330000D02*
X197425000Y-73330000D01*
X197775000Y-73330000D02*
X197580000Y-73330000D01*
X196700000Y-72605000D02*
X196100000Y-72605000D01*
X196100000Y-72605000D02*
X195595000Y-73110000D01*
X195595000Y-73110000D02*
X189820000Y-73110000D01*
X197775000Y-88570000D02*
X197580000Y-88570000D01*
X197425000Y-88570000D02*
X196700000Y-87845000D01*
X195595000Y-88350000D02*
X189820000Y-88350000D01*
D22*
X189820000Y-88350000D02*
X189600000Y-88570000D01*
D23*
X196700000Y-87845000D02*
X196100000Y-87845000D01*
X196100000Y-87845000D02*
X195595000Y-88350000D01*
X197580000Y-88570000D02*
X197425000Y-88570000D01*
X196100000Y-90385000D02*
X195595000Y-90890000D01*
X197580000Y-91110000D02*
X197425000Y-91110000D01*
X195595000Y-90890000D02*
X189820000Y-90890000D01*
X197775000Y-91110000D02*
X197580000Y-91110000D01*
X196700000Y-90385000D02*
X196100000Y-90385000D01*
D22*
X189820000Y-90890000D02*
X189600000Y-91110000D01*
D23*
X197425000Y-91110000D02*
X196700000Y-90385000D01*
X189300000Y-63895000D02*
X189900000Y-63895000D01*
D22*
X196170000Y-63400000D02*
X196400000Y-63170000D01*
D23*
X189900000Y-63895000D02*
X190395000Y-63400000D01*
X188575000Y-63170000D02*
X189300000Y-63895000D01*
X188420000Y-63170000D02*
X188575000Y-63170000D01*
X190395000Y-63400000D02*
X196170000Y-63400000D01*
X188225000Y-63170000D02*
X188420000Y-63170000D01*
X188575000Y-65710000D02*
X189300000Y-66435000D01*
X188225000Y-65710000D02*
X188420000Y-65710000D01*
X188420000Y-65710000D02*
X188575000Y-65710000D01*
X189300000Y-66435000D02*
X189900000Y-66435000D01*
X189900000Y-66435000D02*
X190395000Y-65940000D01*
D22*
X196170000Y-65940000D02*
X196400000Y-65710000D01*
D23*
X190395000Y-65940000D02*
X196170000Y-65940000D01*
X189300000Y-74055000D02*
X189900000Y-74055000D01*
D22*
X196170000Y-73560000D02*
X196400000Y-73330000D01*
D23*
X194352800Y-73560000D02*
X196170000Y-73560000D01*
X190395000Y-73560000D02*
X194352800Y-73560000D01*
D22*
X193294300Y-74618500D02*
X193194500Y-74618500D01*
X194352800Y-73560000D02*
X193294300Y-74618500D01*
D23*
X188225000Y-73330000D02*
X188420000Y-73330000D01*
D22*
X189190000Y-100850000D02*
X190091700Y-100850000D01*
D23*
X188420000Y-73330000D02*
X188575000Y-73330000D01*
D22*
X190091700Y-100850000D02*
X190980900Y-101739200D01*
X190980900Y-101739200D02*
X195905900Y-101739200D01*
D23*
X188575000Y-73330000D02*
X189300000Y-74055000D01*
X189900000Y-74055000D02*
X190395000Y-73560000D01*
X193282500Y-76100000D02*
X196170000Y-76100000D01*
D22*
X192631700Y-100850000D02*
X192848200Y-101066500D01*
X191730000Y-100850000D02*
X192631700Y-100850000D01*
D23*
X188575000Y-75870000D02*
X189300000Y-76595000D01*
D22*
X192848200Y-101066500D02*
X193151800Y-101066500D01*
D23*
X188225000Y-75870000D02*
X188420000Y-75870000D01*
D22*
X196170000Y-76100000D02*
X196400000Y-75870000D01*
X193282500Y-76100000D02*
X193796200Y-76613700D01*
D23*
X189900000Y-76595000D02*
X190395000Y-76100000D01*
X188420000Y-75870000D02*
X188575000Y-75870000D01*
X189300000Y-76595000D02*
X189900000Y-76595000D01*
X190395000Y-76100000D02*
X193282500Y-76100000D01*
X188225000Y-78410000D02*
X188420000Y-78410000D01*
X189900000Y-79135000D02*
X190395000Y-78640000D01*
X189300000Y-79135000D02*
X189900000Y-79135000D01*
X188420000Y-78410000D02*
X188575000Y-78410000D01*
X190395000Y-78640000D02*
X196170000Y-78640000D01*
X188575000Y-78410000D02*
X189300000Y-79135000D01*
D22*
X196170000Y-78640000D02*
X196400000Y-78410000D01*
D23*
X190395000Y-91340000D02*
X196170000Y-91340000D01*
X188420000Y-91110000D02*
X188575000Y-91110000D01*
X189900000Y-91835000D02*
X190395000Y-91340000D01*
X189300000Y-91835000D02*
X189900000Y-91835000D01*
X188225000Y-91110000D02*
X188420000Y-91110000D01*
X188575000Y-91110000D02*
X189300000Y-91835000D01*
D22*
X196170000Y-91340000D02*
X196400000Y-91110000D01*
X187500000Y-63170000D02*
X187520000Y-63170000D01*
D23*
X185380000Y-63170000D02*
X187500000Y-63170000D01*
X200620000Y-63170000D02*
X198500000Y-63170000D01*
D22*
X198500000Y-63170000D02*
X198480000Y-63170000D01*
X187500000Y-65710000D02*
X187520000Y-65710000D01*
D23*
X185380000Y-65710000D02*
X187500000Y-65710000D01*
D22*
X198500000Y-65710000D02*
X198480000Y-65710000D01*
D23*
X200620000Y-65710000D02*
X198500000Y-65710000D01*
X185380000Y-68250000D02*
X187500000Y-68250000D01*
D22*
X187500000Y-68250000D02*
X187520000Y-68250000D01*
X198500000Y-68250000D02*
X198480000Y-68250000D01*
D23*
X200620000Y-68250000D02*
X198500000Y-68250000D01*
D22*
X187500000Y-70790000D02*
X187520000Y-70790000D01*
D23*
X185380000Y-70790000D02*
X187500000Y-70790000D01*
D22*
X198500000Y-70790000D02*
X198480000Y-70790000D01*
D23*
X200620000Y-70790000D02*
X198500000Y-70790000D01*
D22*
X187500000Y-73330000D02*
X187520000Y-73330000D01*
D23*
X185380000Y-73330000D02*
X187500000Y-73330000D01*
X200620000Y-73330000D02*
X198500000Y-73330000D01*
D22*
X198500000Y-73330000D02*
X198480000Y-73330000D01*
X187500000Y-75870000D02*
X187520000Y-75870000D01*
D23*
X185380000Y-75870000D02*
X187500000Y-75870000D01*
D22*
X198500000Y-75870000D02*
X198480000Y-75870000D01*
D23*
X200620000Y-75870000D02*
X198500000Y-75870000D01*
X185380000Y-78410000D02*
X187500000Y-78410000D01*
D22*
X187500000Y-78410000D02*
X187520000Y-78410000D01*
X198500000Y-78410000D02*
X198480000Y-78410000D01*
D23*
X200620000Y-78410000D02*
X198500000Y-78410000D01*
D22*
X187500000Y-80950000D02*
X187520000Y-80950000D01*
D23*
X185380000Y-80950000D02*
X187500000Y-80950000D01*
X200620000Y-80950000D02*
X198500000Y-80950000D01*
D22*
X198500000Y-80950000D02*
X198480000Y-80950000D01*
D23*
X185380000Y-83490000D02*
X187500000Y-83490000D01*
D22*
X187500000Y-83490000D02*
X187520000Y-83490000D01*
D23*
X200620000Y-83490000D02*
X198500000Y-83490000D01*
D22*
X198500000Y-83490000D02*
X198480000Y-83490000D01*
X187500000Y-86030000D02*
X187520000Y-86030000D01*
D23*
X185380000Y-86030000D02*
X187500000Y-86030000D01*
D22*
X198500000Y-86030000D02*
X198480000Y-86030000D01*
D23*
X200620000Y-86030000D02*
X198500000Y-86030000D01*
D22*
X187500000Y-88570000D02*
X187520000Y-88570000D01*
D23*
X185380000Y-88570000D02*
X187500000Y-88570000D01*
D22*
X198500000Y-88570000D02*
X198480000Y-88570000D01*
D23*
X200620000Y-88570000D02*
X198500000Y-88570000D01*
D22*
X187500000Y-91110000D02*
X187520000Y-91110000D01*
D23*
X185380000Y-91110000D02*
X187500000Y-91110000D01*
X200620000Y-91110000D02*
X198500000Y-91110000D01*
D22*
X198500000Y-91110000D02*
X198480000Y-91110000D01*
D23*
X189190000Y-98200000D02*
X189190000Y-99950000D01*
X191730000Y-98200000D02*
X191730000Y-99950000D01*
X194270000Y-98200000D02*
X194270000Y-99950000D01*
X196810000Y-98200000D02*
X196810000Y-99950000D01*
D22*
X192390500Y-105759300D02*
X188036700Y-101405500D01*
X195816000Y-104750000D02*
X195816000Y-105651700D01*
X189356100Y-96375100D02*
X199179900Y-96375100D01*
X191823300Y-107152900D02*
X192967400Y-108297000D01*
X191823300Y-106326500D02*
X191823300Y-107152900D01*
X199179900Y-96375100D02*
X199179900Y-96375000D01*
X199179900Y-96375000D02*
X200465000Y-96375000D01*
X195816000Y-105651700D02*
X192498100Y-105651700D01*
X188036700Y-101405500D02*
X188036700Y-97694500D01*
X192967400Y-108297000D02*
X195816000Y-108297000D01*
X188036700Y-97694500D02*
X189356100Y-96375100D01*
X192498100Y-105651700D02*
X192390500Y-105759300D01*
X192390500Y-105759300D02*
X191823300Y-106326500D01*
D23*
X194800000Y-106750000D02*
X193000000Y-106750000D01*
X194800000Y-104750000D02*
X193000000Y-104750000D01*
M02*
