M48
; DRILL file {KiCad 8.0.6+1} date 2024-11-30T16:17:57+0000
; FORMAT={-:-/ absolute / metric / decimal}
; #@! TF.CreationDate,2024-11-30T16:17:57+00:00
; #@! TF.GenerationSoftware,Kicad,Pcbnew,8.0.6+1
; #@! TF.FileFunction,NonPlated,1,2,NPTH
FMAT,2
METRIC
; #@! TA.AperFunction,NonPlated,NPTH,ComponentDrill
T1C0.900
; #@! TA.AperFunction,NonPlated,NPTH,ComponentDrill
T2C1.900
; #@! TA.AperFunction,NonPlated,NPTH,ComponentDrill
T3C2.200
; #@! TA.AperFunction,NonPlated,NPTH,ComponentDrill
T4C3.000
; #@! TA.AperFunction,NonPlated,NPTH,ComponentDrill
T5C3.400
; #@! TA.AperFunction,NonPlated,NPTH,ComponentDrill
T6C4.300
%
G90
G05
T1
X202.225Y-97.125
X202.225Y-100.125
T2
X94.5Y-66.0
X94.5Y-66.0
X94.5Y-83.0
X94.5Y-83.0
X94.5Y-100.0
X94.5Y-100.0
X105.5Y-66.0
X105.5Y-66.0
X105.5Y-83.0
X105.5Y-83.0
X105.5Y-100.0
X105.5Y-100.0
X112.5Y-61.75
X112.5Y-61.75
X112.5Y-78.75
X112.5Y-78.75
X112.5Y-95.75
X112.5Y-95.75
X123.5Y-61.75
X123.5Y-61.75
X123.5Y-78.75
X123.5Y-78.75
X123.5Y-95.75
X123.5Y-95.75
X130.5Y-59.625
X130.5Y-59.625
X130.5Y-76.625
X130.5Y-76.625
X130.5Y-93.625
X130.5Y-93.625
X141.5Y-59.625
X141.5Y-59.625
X141.5Y-76.625
X141.5Y-76.625
X141.5Y-93.625
X141.5Y-93.625
X144.9Y-118.275
X144.9Y-118.275
X148.5Y-61.75
X148.5Y-61.75
X148.5Y-78.75
X148.5Y-78.75
X148.5Y-95.75
X148.5Y-95.75
X155.9Y-118.275
X155.9Y-118.275
X159.5Y-61.75
X159.5Y-61.75
X159.5Y-78.75
X159.5Y-78.75
X159.5Y-95.75
X159.5Y-95.75
X164.981Y-119.47
X164.981Y-119.47
X166.5Y-63.875
X166.5Y-63.875
X166.5Y-80.875
X166.5Y-80.875
X166.5Y-97.875
X166.5Y-97.875
X175.606Y-122.318
X175.606Y-122.318
X177.5Y-63.875
X177.5Y-63.875
X177.5Y-80.875
X177.5Y-80.875
X177.5Y-97.875
X177.5Y-97.875
X184.068Y-125.822
X184.068Y-125.822
X193.594Y-131.322
X193.594Y-131.322
T3
X185.0Y-107.7
X201.0Y-116.6
T4
X95.0Y-62.25
X95.0Y-79.25
X95.0Y-96.25
X100.0Y-60.05
X100.0Y-60.05
X100.0Y-77.05
X100.0Y-77.05
X100.0Y-94.05
X100.0Y-94.05
X105.0Y-62.25
X105.0Y-79.25
X105.0Y-96.25
X113.0Y-58.0
X113.0Y-75.0
X113.0Y-92.0
X118.0Y-55.8
X118.0Y-55.8
X118.0Y-72.8
X118.0Y-72.8
X118.0Y-89.8
X118.0Y-89.8
X123.0Y-58.0
X123.0Y-75.0
X123.0Y-92.0
X131.0Y-55.875
X131.0Y-72.875
X131.0Y-89.875
X136.0Y-53.675
X136.0Y-53.675
X136.0Y-70.675
X136.0Y-70.675
X136.0Y-87.675
X136.0Y-87.675
X141.0Y-55.875
X141.0Y-72.875
X141.0Y-89.875
X145.4Y-114.525
X149.0Y-58.0
X149.0Y-75.0
X149.0Y-92.0
X150.4Y-112.325
X150.4Y-112.325
X154.0Y-55.8
X154.0Y-55.8
X154.0Y-72.8
X154.0Y-72.8
X154.0Y-89.8
X154.0Y-89.8
X155.4Y-114.525
X159.0Y-58.0
X159.0Y-75.0
X159.0Y-92.0
X166.434Y-115.978
X167.0Y-60.125
X167.0Y-77.125
X167.0Y-94.125
X171.833Y-115.147
X171.833Y-115.147
X172.0Y-57.925
X172.0Y-57.925
X172.0Y-74.925
X172.0Y-74.925
X172.0Y-91.925
X172.0Y-91.925
X176.094Y-118.566
X177.0Y-60.125
X177.0Y-77.125
X177.0Y-94.125
X186.376Y-122.825
X191.806Y-123.42
X191.806Y-123.42
X195.036Y-127.825
T5
X100.0Y-66.0
X100.0Y-66.0
X100.0Y-83.0
X100.0Y-83.0
X100.0Y-100.0
X100.0Y-100.0
X118.0Y-61.75
X118.0Y-61.75
X118.0Y-78.75
X118.0Y-78.75
X118.0Y-95.75
X118.0Y-95.75
X136.0Y-59.625
X136.0Y-59.625
X136.0Y-76.625
X136.0Y-76.625
X136.0Y-93.625
X136.0Y-93.625
X150.4Y-118.275
X150.4Y-118.275
X154.0Y-61.75
X154.0Y-61.75
X154.0Y-78.75
X154.0Y-78.75
X154.0Y-95.75
X154.0Y-95.75
X170.293Y-120.894
X170.293Y-120.894
X172.0Y-63.875
X172.0Y-63.875
X172.0Y-80.875
X172.0Y-80.875
X172.0Y-97.875
X172.0Y-97.875
X188.831Y-128.572
X188.831Y-128.572
T6
X109.0Y-70.25
X109.0Y-87.25
X141.4Y-109.775
X163.0Y-70.25
X181.187Y-115.013
M30
