M48
; DRILL file {KiCad 8.0.6+1} date 2024-12-31T16:22:39+0000
; FORMAT={-:-/ absolute / metric / decimal}
; #@! TF.CreationDate,2024-12-31T16:22:39+00:00
; #@! TF.GenerationSoftware,Kicad,Pcbnew,8.0.6+1
; #@! TF.FileFunction,Plated,1,2,PTH
FMAT,2
METRIC
; #@! TA.AperFunction,Plated,PTH,ViaDrill
T1C0.300
; #@! TA.AperFunction,Plated,PTH,ComponentDrill
T2C0.400
; #@! TA.AperFunction,Plated,PTH,ComponentDrill
T3C0.750
; #@! TA.AperFunction,Plated,PTH,ComponentDrill
T4C1.000
; #@! TA.AperFunction,Plated,PTH,ComponentDrill
T5C1.300
%
G90
G05
T1
X100.674Y-71.463
X100.732Y-87.131
X102.616Y-105.125
X102.731Y-62.308
X102.911Y-74.693
X103.275Y-92.222
X111.802Y-60.65
X115.502Y-70.749
X118.676Y-77.026
X119.526Y-85.491
X119.65Y-59.241
X120.555Y-93.47
X120.947Y-62.812
X137.773Y-74.143
X137.879Y-57.135
X138.603Y-92.24
X138.745Y-49.398
X138.892Y-62.267
X138.892Y-78.218
X147.002Y-108.371
X153.007Y-121.117
X155.35Y-63.504
X155.65Y-67.062
X156.044Y-90.358
X156.602Y-98.429
X156.603Y-81.829
X156.892Y-68.452
X157.275Y-51.255
X171.45Y-123.093
X172.66Y-100.988
X172.681Y-84.132
X172.688Y-66.858
X174.726Y-75.424
X174.997Y-110.447
X175.275Y-53.572
X175.331Y-67.689
X176.877Y-87.439
X179.447Y-60.211
X181.408Y-105.164
X182.631Y-81.437
X186.733Y-92.427
X188.62Y-132.327
X192.645Y-87.312
X194.23Y-97.594
X194.772Y-101.125
X195.658Y-117.35
X196.81Y-95.982
X197.178Y-98.463
X198.981Y-108.25
X199.189Y-105.25
X202.73Y-67.513
T2
X189.6Y-61.045
X189.6Y-63.585
X189.6Y-66.125
X189.6Y-68.665
X189.6Y-71.205
X189.6Y-73.745
X189.6Y-76.285
X189.6Y-78.825
X189.6Y-81.365
X189.6Y-83.905
X189.6Y-86.445
X189.6Y-88.985
X196.4Y-61.045
X196.4Y-63.585
X196.4Y-66.125
X196.4Y-68.665
X196.4Y-71.205
X196.4Y-73.745
X196.4Y-76.285
X196.4Y-78.825
X196.4Y-81.365
X196.4Y-83.905
X196.4Y-86.445
X196.4Y-88.985
T3
X197.0Y-102.625
X197.0Y-104.625
T4
X185.38Y-61.045
X185.38Y-63.585
X185.38Y-66.125
X185.38Y-68.665
X185.38Y-71.205
X185.38Y-73.745
X185.38Y-76.285
X185.38Y-78.825
X185.38Y-81.365
X185.38Y-83.905
X185.38Y-86.445
X185.38Y-88.985
X187.92Y-94.075
X190.46Y-94.075
X193.0Y-94.075
X195.54Y-94.075
X198.08Y-94.075
X200.62Y-61.045
X200.62Y-63.585
X200.62Y-66.125
X200.62Y-68.665
X200.62Y-71.205
X200.62Y-73.745
X200.62Y-76.285
X200.62Y-78.825
X200.62Y-81.365
X200.62Y-83.905
X200.62Y-86.445
X200.62Y-88.985
T5
X201.9Y-93.25
X201.9Y-99.75
M30
