M48
; DRILL file {KiCad 8.0.1} date 2024-12-01T01:33:27+0900
; FORMAT={-:-/ absolute / inch / decimal}
; #@! TF.CreationDate,2024-12-01T01:33:27+09:00
; #@! TF.GenerationSoftware,Kicad,Pcbnew,8.0.1
; #@! TF.FileFunction,Plated,1,2,PTH
FMAT,2
INCH
; #@! TA.AperFunction,Plated,PTH,ViaDrill
T1C0.0118
; #@! TA.AperFunction,Plated,PTH,ComponentDrill
T2C0.0157
; #@! TA.AperFunction,Plated,PTH,ComponentDrill
T3C0.0295
; #@! TA.AperFunction,Plated,PTH,ComponentDrill
T4C0.0394
; #@! TA.AperFunction,Plated,PTH,ComponentDrill
T5C0.0512
%
G90
G05
T1
X3.8307Y-3.6102
X4.0368Y-3.4298
X4.0398Y-4.1272
X4.0512Y-2.7953
X4.0659Y-2.874
X4.673Y-2.628
X4.7469Y-4.0028
X4.7486Y-3.3089
X4.7529Y-2.2836
X4.7529Y-2.968
X4.7746Y-3.4263
X5.4193Y-3.1698
X5.4575Y-3.8929
X5.4606Y-2.0234
X5.4646Y-2.5443
X5.4694Y-3.3101
X5.4697Y-2.698
X5.7887Y-4.3509
X6.0181Y-2.1158
X6.0237Y-4.8527
X6.124Y-2.5728
X6.1656Y-3.9707
X6.1664Y-3.2863
X6.1693Y-2.7205
X6.1765Y-3.0525
X6.1919Y-3.4263
X6.7548Y-5.0051
X6.7987Y-2.7272
X6.7989Y-4.0487
X6.799Y-3.3864
X6.878Y-2.1969
X6.8856Y-3.4349
X6.8896Y-4.441
X6.9358Y-2.8466
X6.9657Y-2.8172
X7.1614Y-3.2756
X7.3711Y-3.6576
X7.3711Y-4.5866
X7.4016Y-5.1732
X7.4181Y-2.6431
X7.6024Y-3.9724
X7.6061Y-2.9377
X7.6236Y-4.004
X7.6298Y-3.0163
X7.6631Y-4.7037
X7.6811Y-4.3031
X7.7128Y-4.0055
X7.7545Y-3.657
X7.8088Y-3.7765
X7.8376Y-3.9124
X7.8465Y-3.7835
T2
X7.4646Y-2.487
X7.4646Y-2.587
X7.4646Y-2.687
X7.4646Y-2.787
X7.4646Y-2.887
X7.4646Y-2.987
X7.4646Y-3.087
X7.4646Y-3.187
X7.4646Y-3.287
X7.4646Y-3.387
X7.4646Y-3.487
X7.4646Y-3.587
X7.7323Y-2.487
X7.7323Y-2.587
X7.7323Y-2.687
X7.7323Y-2.787
X7.7323Y-2.887
X7.7323Y-2.987
X7.7323Y-3.087
X7.7323Y-3.187
X7.7323Y-3.287
X7.7323Y-3.387
X7.7323Y-3.487
X7.7323Y-3.587
T3
X7.5984Y-4.124
X7.5984Y-4.2028
T4
X7.2984Y-2.487
X7.2984Y-2.587
X7.2984Y-2.687
X7.2984Y-2.787
X7.2984Y-2.887
X7.2984Y-2.987
X7.2984Y-3.087
X7.2984Y-3.187
X7.2984Y-3.287
X7.2984Y-3.387
X7.2984Y-3.487
X7.2984Y-3.587
X7.4484Y-3.8661
X7.5484Y-3.8661
X7.6484Y-3.8661
X7.7484Y-3.8661
X7.8984Y-2.487
X7.8984Y-2.587
X7.8984Y-2.687
X7.8984Y-2.787
X7.8984Y-2.887
X7.8984Y-2.987
X7.8984Y-3.087
X7.8984Y-3.187
X7.8984Y-3.287
X7.8984Y-3.387
X7.8984Y-3.487
X7.8984Y-3.587
T5
X7.9488Y-4.188
X7.9488Y-4.4439
M30
