M48
; DRILL file {KiCad 8.0.1} date 2024-12-01T01:33:27+0900
; FORMAT={-:-/ absolute / inch / decimal}
; #@! TF.CreationDate,2024-12-01T01:33:27+09:00
; #@! TF.GenerationSoftware,Kicad,Pcbnew,8.0.1
; #@! TF.FileFunction,NonPlated,1,2,NPTH
FMAT,2
INCH
; #@! TA.AperFunction,NonPlated,NPTH,ComponentDrill
T1C0.0354
; #@! TA.AperFunction,NonPlated,NPTH,ComponentDrill
T2C0.0748
; #@! TA.AperFunction,NonPlated,NPTH,ComponentDrill
T3C0.0866
; #@! TA.AperFunction,NonPlated,NPTH,ComponentDrill
T4C0.1181
; #@! TA.AperFunction,NonPlated,NPTH,ComponentDrill
T5C0.1339
; #@! TA.AperFunction,NonPlated,NPTH,ComponentDrill
T6C0.1693
%
G90
G05
T1
X7.9616Y-3.8238
X7.9616Y-3.9419
T2
X3.7205Y-2.5984
X3.7205Y-2.5984
X3.7205Y-3.2677
X3.7205Y-3.2677
X3.7205Y-3.937
X3.7205Y-3.937
X4.1535Y-2.5984
X4.1535Y-2.5984
X4.1535Y-3.2677
X4.1535Y-3.2677
X4.1535Y-3.937
X4.1535Y-3.937
X4.4291Y-2.4311
X4.4291Y-2.4311
X4.4291Y-3.1004
X4.4291Y-3.1004
X4.4291Y-3.7697
X4.4291Y-3.7697
X4.8622Y-2.4311
X4.8622Y-2.4311
X4.8622Y-3.1004
X4.8622Y-3.1004
X4.8622Y-3.7697
X4.8622Y-3.7697
X5.1378Y-2.3474
X5.1378Y-2.3474
X5.1378Y-3.0167
X5.1378Y-3.0167
X5.1378Y-3.686
X5.1378Y-3.686
X5.5709Y-2.3474
X5.5709Y-2.3474
X5.5709Y-3.0167
X5.5709Y-3.0167
X5.5709Y-3.686
X5.5709Y-3.686
X5.7047Y-4.6565
X5.7047Y-4.6565
X5.8465Y-2.4311
X5.8465Y-2.4311
X5.8465Y-3.1004
X5.8465Y-3.1004
X5.8465Y-3.7697
X5.8465Y-3.7697
X6.1378Y-4.6565
X6.1378Y-4.6565
X6.2795Y-2.4311
X6.2795Y-2.4311
X6.2795Y-3.1004
X6.2795Y-3.1004
X6.2795Y-3.7697
X6.2795Y-3.7697
X6.4953Y-4.7036
X6.4953Y-4.7036
X6.5551Y-2.5148
X6.5551Y-2.5148
X6.5551Y-3.1841
X6.5551Y-3.1841
X6.5551Y-3.8533
X6.5551Y-3.8533
X6.9136Y-4.8156
X6.9136Y-4.8156
X6.9882Y-2.5148
X6.9882Y-2.5148
X6.9882Y-3.1841
X6.9882Y-3.1841
X6.9882Y-3.8533
X6.9882Y-3.8533
X7.2468Y-4.9536
X7.2468Y-4.9536
X7.6218Y-5.1702
X7.6218Y-5.1702
T3
X7.2835Y-4.2402
X7.9134Y-4.5906
T4
X3.7402Y-2.4508
X3.7402Y-3.1201
X3.7402Y-3.7894
X3.937Y-2.3642
X3.937Y-2.3642
X3.937Y-3.0335
X3.937Y-3.0335
X3.937Y-3.7028
X3.937Y-3.7028
X4.1339Y-2.4508
X4.1339Y-3.1201
X4.1339Y-3.7894
X4.4488Y-2.2835
X4.4488Y-2.9528
X4.4488Y-3.622
X4.6457Y-2.1969
X4.6457Y-2.1969
X4.6457Y-2.8661
X4.6457Y-2.8661
X4.6457Y-3.5354
X4.6457Y-3.5354
X4.8425Y-2.2835
X4.8425Y-2.9528
X4.8425Y-3.622
X5.1575Y-2.1998
X5.1575Y-2.8691
X5.1575Y-3.5384
X5.3543Y-2.1132
X5.3543Y-2.1132
X5.3543Y-2.7825
X5.3543Y-2.7825
X5.3543Y-3.4518
X5.3543Y-3.4518
X5.5512Y-2.1998
X5.5512Y-2.8691
X5.5512Y-3.5384
X5.7244Y-4.5089
X5.8661Y-2.2835
X5.8661Y-2.9528
X5.8661Y-3.622
X5.9213Y-4.4222
X5.9213Y-4.4222
X6.063Y-2.1969
X6.063Y-2.1969
X6.063Y-2.8661
X6.063Y-2.8661
X6.063Y-3.5354
X6.063Y-3.5354
X6.1181Y-4.5089
X6.2598Y-2.2835
X6.2598Y-2.9528
X6.2598Y-3.622
X6.5525Y-4.5661
X6.5748Y-2.3671
X6.5748Y-3.0364
X6.5748Y-3.7057
X6.7651Y-4.5333
X6.7651Y-4.5333
X6.7717Y-2.2805
X6.7717Y-2.2805
X6.7717Y-2.9498
X6.7717Y-2.9498
X6.7717Y-3.6191
X6.7717Y-3.6191
X6.9328Y-4.6679
X6.9685Y-2.3671
X6.9685Y-3.0364
X6.9685Y-3.7057
X7.3376Y-4.8356
X7.5514Y-4.859
X7.5514Y-4.859
X7.6786Y-5.0325
T5
X3.937Y-2.5984
X3.937Y-2.5984
X3.937Y-3.2677
X3.937Y-3.2677
X3.937Y-3.937
X3.937Y-3.937
X4.6457Y-2.4311
X4.6457Y-2.4311
X4.6457Y-3.1004
X4.6457Y-3.1004
X4.6457Y-3.7697
X4.6457Y-3.7697
X5.3543Y-2.3474
X5.3543Y-2.3474
X5.3543Y-3.0167
X5.3543Y-3.0167
X5.3543Y-3.686
X5.3543Y-3.686
X5.9213Y-4.6565
X5.9213Y-4.6565
X6.063Y-2.4311
X6.063Y-2.4311
X6.063Y-3.1004
X6.063Y-3.1004
X6.063Y-3.7697
X6.063Y-3.7697
X6.7045Y-4.7596
X6.7045Y-4.7596
X6.7717Y-2.5148
X6.7717Y-2.5148
X6.7717Y-3.1841
X6.7717Y-3.1841
X6.7717Y-3.8533
X6.7717Y-3.8533
X7.4343Y-5.0619
X7.4343Y-5.0619
T6
X4.2913Y-2.7657
X4.2913Y-3.435
X5.5669Y-4.3219
X6.4173Y-2.7657
X7.1333Y-4.5281
M30
