%TF.GenerationSoftware,KiCad,Pcbnew,8.0.1*%
%TF.CreationDate,2024-12-01T01:33:27+09:00*%
%TF.ProjectId,corney_island_wireless_autorouted,636f726e-6579-45f6-9973-6c616e645f77,0.2*%
%TF.SameCoordinates,Original*%
%TF.FileFunction,Copper,L1,Top*%
%TF.FilePolarity,Positive*%
%FSLAX46Y46*%
G04 Gerber Fmt 4.6, Leading zero omitted, Abs format (unit mm)*
G04 Created by KiCad (PCBNEW 8.0.1) date 2024-12-01 01:33:27*
%MOMM*%
%LPD*%
G01*
G04 APERTURE LIST*
G04 Aperture macros list*
%AMRotRect*
0 Rectangle, with rotation*
0 The origin of the aperture is its center*
0 $1 length*
0 $2 width*
0 $3 Rotation angle, in degrees counterclockwise*
0 Add horizontal line*
21,1,$1,$2,0,0,$3*%
%AMFreePoly0*
4,1,6,0.600000,-1.000000,0.000000,-0.400000,-0.600000,-1.000000,-0.600000,0.250000,0.600000,0.250000,0.600000,-1.000000,0.600000,-1.000000,$1*%
%AMFreePoly1*
4,1,6,0.600000,-0.200000,0.600000,-0.400000,-0.600000,-0.400000,-0.600000,-0.200000,0.000000,0.400000,0.600000,-0.200000,0.600000,-0.200000,$1*%
G04 Aperture macros list end*
%TA.AperFunction,ComponentPad*%
%ADD10C,2.000000*%
%TD*%
%TA.AperFunction,SMDPad,CuDef*%
%ADD11R,0.900000X1.200000*%
%TD*%
%TA.AperFunction,SMDPad,CuDef*%
%ADD12R,2.600000X2.600000*%
%TD*%
%TA.AperFunction,ComponentPad*%
%ADD13C,1.700000*%
%TD*%
%TA.AperFunction,SMDPad,CuDef*%
%ADD14R,0.600000X1.200000*%
%TD*%
%TA.AperFunction,ComponentPad*%
%ADD15C,0.800000*%
%TD*%
%TA.AperFunction,SMDPad,CuDef*%
%ADD16RotRect,2.600000X2.600000X330.000000*%
%TD*%
%TA.AperFunction,SMDPad,CuDef*%
%ADD17R,0.800000X1.000000*%
%TD*%
%TA.AperFunction,SMDPad,CuDef*%
%ADD18R,1.500000X0.700000*%
%TD*%
%TA.AperFunction,SMDPad,CuDef*%
%ADD19RotRect,0.900000X1.200000X150.000000*%
%TD*%
%TA.AperFunction,SMDPad,CuDef*%
%ADD20RotRect,0.900000X1.200000X165.000000*%
%TD*%
%TA.AperFunction,SMDPad,CuDef*%
%ADD21RotRect,2.600000X2.600000X345.000000*%
%TD*%
%TA.AperFunction,SMDPad,CuDef*%
%ADD22FreePoly0,270.000000*%
%TD*%
%TA.AperFunction,ComponentPad*%
%ADD23O,1.750000X1.200000*%
%TD*%
%TA.AperFunction,SMDPad,CuDef*%
%ADD24FreePoly1,270.000000*%
%TD*%
%TA.AperFunction,ComponentPad*%
%ADD25O,1.700000X1.700000*%
%TD*%
%TA.AperFunction,SMDPad,CuDef*%
%ADD26R,1.200000X0.600000*%
%TD*%
%TA.AperFunction,ViaPad*%
%ADD27C,0.600000*%
%TD*%
%TA.AperFunction,Conductor*%
%ADD28C,0.200000*%
%TD*%
%TA.AperFunction,Conductor*%
%ADD29C,0.250000*%
%TD*%
G04 APERTURE END LIST*
D10*
%TO.P,B1,1*%
%TO.N,RST*%
X201900000Y-106375000D03*
%TO.P,B1,2*%
%TO.N,GND*%
X201900000Y-112875000D03*
%TD*%
D11*
%TO.P,D27,1*%
%TO.N,R0*%
X137650000Y-64625000D03*
%TO.P,D27,2*%
%TO.N,middle_top_F*%
X134350000Y-64625000D03*
%TD*%
D12*
%TO.P,S29,1*%
%TO.N,C4*%
X157275000Y-72800000D03*
%TO.P,S29,2*%
%TO.N,index_home_F*%
X145725000Y-75000000D03*
%TD*%
%TO.P,S25,1*%
%TO.N,C3*%
X139275000Y-87675000D03*
%TO.P,S25,2*%
%TO.N,middle_bottom_F*%
X127725000Y-89875000D03*
%TD*%
D13*
%TO.P,MCU1,1*%
%TO.N,MCU1_1*%
X200620000Y-63170000D03*
%TO.P,MCU1,2*%
%TO.N,MCU1_2*%
X200620000Y-65710000D03*
%TO.P,MCU1,3*%
%TO.N,MCU1_3*%
X200620000Y-68250000D03*
%TO.P,MCU1,4*%
%TO.N,MCU1_4*%
X200620000Y-70790000D03*
%TO.P,MCU1,5*%
%TO.N,MCU1_5*%
X200620000Y-73330000D03*
%TO.P,MCU1,6*%
%TO.N,MCU1_6*%
X200620000Y-75870000D03*
%TO.P,MCU1,7*%
%TO.N,MCU1_7*%
X200620000Y-78410000D03*
%TO.P,MCU1,8*%
%TO.N,MCU1_8*%
X200620000Y-80950000D03*
%TO.P,MCU1,9*%
%TO.N,MCU1_9*%
X200620000Y-83490000D03*
%TO.P,MCU1,10*%
%TO.N,MCU1_10*%
X200620000Y-86030000D03*
%TO.P,MCU1,11*%
%TO.N,MCU1_11*%
X200620000Y-88570000D03*
%TO.P,MCU1,12*%
%TO.N,MCU1_12*%
X200620000Y-91110000D03*
%TO.P,MCU1,13*%
%TO.N,MCU1_13*%
X185380000Y-91110000D03*
D14*
X187520000Y-91110000D03*
%TO.N,MCU1_12*%
X198480000Y-91110000D03*
D13*
%TO.P,MCU1,14*%
%TO.N,MCU1_14*%
X185380000Y-88570000D03*
D14*
X187520000Y-88570000D03*
%TO.N,MCU1_11*%
X198480000Y-88570000D03*
D13*
%TO.P,MCU1,15*%
%TO.N,MCU1_15*%
X185380000Y-86030000D03*
D14*
X187520000Y-86030000D03*
%TO.N,MCU1_10*%
X198480000Y-86030000D03*
D13*
%TO.P,MCU1,16*%
%TO.N,MCU1_16*%
X185380000Y-83490000D03*
D14*
X187520000Y-83490000D03*
%TO.N,MCU1_9*%
X198480000Y-83490000D03*
D13*
%TO.P,MCU1,17*%
%TO.N,MCU1_17*%
X185380000Y-80950000D03*
D14*
X187520000Y-80950000D03*
%TO.N,MCU1_8*%
X198480000Y-80950000D03*
D13*
%TO.P,MCU1,18*%
%TO.N,MCU1_18*%
X185380000Y-78410000D03*
D14*
X187520000Y-78410000D03*
%TO.N,MCU1_7*%
X198480000Y-78410000D03*
D13*
%TO.P,MCU1,19*%
%TO.N,MCU1_19*%
X185380000Y-75870000D03*
D14*
X187520000Y-75870000D03*
%TO.N,MCU1_6*%
X198480000Y-75870000D03*
D13*
%TO.P,MCU1,20*%
%TO.N,MCU1_20*%
X185380000Y-73330000D03*
D14*
X187520000Y-73330000D03*
%TO.N,MCU1_5*%
X198480000Y-73330000D03*
D13*
%TO.P,MCU1,21*%
%TO.N,MCU1_21*%
X185380000Y-70790000D03*
D14*
X187520000Y-70790000D03*
%TO.N,MCU1_4*%
X198480000Y-70790000D03*
D13*
%TO.P,MCU1,22*%
%TO.N,MCU1_22*%
X185380000Y-68250000D03*
D14*
X187520000Y-68250000D03*
%TO.N,MCU1_3*%
X198480000Y-68250000D03*
D13*
%TO.P,MCU1,23*%
%TO.N,MCU1_23*%
X185380000Y-65710000D03*
D14*
X187520000Y-65710000D03*
%TO.N,MCU1_2*%
X198480000Y-65710000D03*
D13*
%TO.P,MCU1,24*%
%TO.N,MCU1_24*%
X185380000Y-63170000D03*
D14*
X187520000Y-63170000D03*
%TO.N,MCU1_1*%
X198480000Y-63170000D03*
D15*
%TO.P,MCU1,101*%
%TO.N,LED*%
X196400000Y-63170000D03*
D14*
X197580000Y-63170000D03*
D15*
%TO.P,MCU1,102*%
%TO.N,DAT*%
X196400000Y-65710000D03*
D14*
X197580000Y-65710000D03*
D15*
%TO.P,MCU1,103*%
%TO.N,GND*%
X196400000Y-68250000D03*
D14*
X197580000Y-68250000D03*
D15*
%TO.P,MCU1,104*%
X196400000Y-70790000D03*
D14*
X197580000Y-70790000D03*
D15*
%TO.P,MCU1,105*%
%TO.N,SDA*%
X196400000Y-73330000D03*
D14*
X197580000Y-73330000D03*
D15*
%TO.P,MCU1,106*%
%TO.N,SCL*%
X196400000Y-75870000D03*
D14*
X197580000Y-75870000D03*
D15*
%TO.P,MCU1,107*%
%TO.N,CS*%
X196400000Y-78410000D03*
D14*
X197580000Y-78410000D03*
D15*
%TO.P,MCU1,108*%
%TO.N,R0*%
X196400000Y-80950000D03*
D14*
X197580000Y-80950000D03*
D15*
%TO.P,MCU1,109*%
%TO.N,R1*%
X196400000Y-83490000D03*
D14*
X197580000Y-83490000D03*
D15*
%TO.P,MCU1,110*%
%TO.N,R2*%
X196400000Y-86030000D03*
D14*
X197580000Y-86030000D03*
D15*
%TO.P,MCU1,111*%
%TO.N,R3*%
X196400000Y-88570000D03*
D14*
X197580000Y-88570000D03*
D15*
%TO.P,MCU1,112*%
%TO.N,P9*%
X196400000Y-91110000D03*
D14*
X197580000Y-91110000D03*
%TO.P,MCU1,113*%
%TO.N,P10*%
X188420000Y-91110000D03*
D15*
X189600000Y-91110000D03*
D14*
%TO.P,MCU1,114*%
%TO.N,P16*%
X188420000Y-88570000D03*
D15*
X189600000Y-88570000D03*
D14*
%TO.P,MCU1,115*%
%TO.N,C5*%
X188420000Y-86030000D03*
D15*
X189600000Y-86030000D03*
D14*
%TO.P,MCU1,116*%
%TO.N,C4*%
X188420000Y-83490000D03*
D15*
X189600000Y-83490000D03*
D14*
%TO.P,MCU1,117*%
%TO.N,C3*%
X188420000Y-80950000D03*
D15*
X189600000Y-80950000D03*
D14*
%TO.P,MCU1,118*%
%TO.N,C2*%
X188420000Y-78410000D03*
D15*
X189600000Y-78410000D03*
D14*
%TO.P,MCU1,119*%
%TO.N,C1*%
X188420000Y-75870000D03*
D15*
X189600000Y-75870000D03*
D14*
%TO.P,MCU1,120*%
%TO.N,C0*%
X188420000Y-73330000D03*
D15*
X189600000Y-73330000D03*
D14*
%TO.P,MCU1,121*%
%TO.N,VCC*%
X188420000Y-70790000D03*
D15*
X189600000Y-70790000D03*
D14*
%TO.P,MCU1,122*%
%TO.N,RST*%
X188420000Y-68250000D03*
D15*
X189600000Y-68250000D03*
D14*
%TO.P,MCU1,123*%
%TO.N,GND*%
X188420000Y-65710000D03*
D15*
X189600000Y-65710000D03*
D14*
%TO.P,MCU1,124*%
%TO.N,RAW*%
X188420000Y-63170000D03*
D15*
X189600000Y-63170000D03*
%TD*%
D11*
%TO.P,D32,1*%
%TO.N,R1*%
X173650000Y-85875000D03*
%TO.P,D32,2*%
%TO.N,inner_home_F*%
X170350000Y-85875000D03*
%TD*%
%TO.P,D30,1*%
%TO.N,R0*%
X155650000Y-66750000D03*
%TO.P,D30,2*%
%TO.N,index_top_F*%
X152350000Y-66750000D03*
%TD*%
D12*
%TO.P,S21,1*%
%TO.N,C1*%
X103275000Y-60050000D03*
%TO.P,S21,2*%
%TO.N,pinky_top_F*%
X91725000Y-62250000D03*
%TD*%
D11*
%TO.P,D19,1*%
%TO.N,R2*%
X101650000Y-105000000D03*
%TO.P,D19,2*%
%TO.N,pinky_bottom_F*%
X98350000Y-105000000D03*
%TD*%
%TO.P,D26,1*%
%TO.N,R1*%
X137650000Y-81625000D03*
%TO.P,D26,2*%
%TO.N,middle_home_F*%
X134350000Y-81625000D03*
%TD*%
D16*
%TO.P,S36,1*%
%TO.N,C5*%
X194642133Y-125057149D03*
%TO.P,S36,2*%
%TO.N,far_home_F*%
X183539540Y-121187405D03*
%TD*%
D12*
%TO.P,S22,1*%
%TO.N,C2*%
X121275000Y-89800000D03*
%TO.P,S22,2*%
%TO.N,ring_bottom_F*%
X109725000Y-92000000D03*
%TD*%
%TO.P,S31,1*%
%TO.N,C5*%
X175275000Y-91925000D03*
%TO.P,S31,2*%
%TO.N,inner_bottom_F*%
X163725000Y-94125000D03*
%TD*%
D11*
%TO.P,D33,1*%
%TO.N,R0*%
X173650000Y-68875000D03*
%TO.P,D33,2*%
%TO.N,inner_top_F*%
X170350000Y-68875000D03*
%TD*%
D17*
%TO.P,PWR1,*%
%TO.N,*%
X201115000Y-94975000D03*
X201115000Y-102275000D03*
X203325000Y-94975000D03*
X203325000Y-102275000D03*
D18*
%TO.P,PWR1,1*%
%TO.N,N/C*%
X200465000Y-100875000D03*
%TO.P,PWR1,2*%
%TO.N,RAW*%
X200465000Y-97875000D03*
%TO.P,PWR1,3*%
%TO.N,BAT_P*%
X200465000Y-96375000D03*
%TD*%
D12*
%TO.P,S26,1*%
%TO.N,C3*%
X139275000Y-70675000D03*
%TO.P,S26,2*%
%TO.N,middle_home_F*%
X127725000Y-72875000D03*
%TD*%
D11*
%TO.P,D20,1*%
%TO.N,R1*%
X101650000Y-88000000D03*
%TO.P,D20,2*%
%TO.N,pinky_home_F*%
X98350000Y-88000000D03*
%TD*%
D12*
%TO.P,S32,1*%
%TO.N,C5*%
X175275000Y-74925000D03*
%TO.P,S32,2*%
%TO.N,inner_home_F*%
X163725000Y-77125000D03*
%TD*%
D11*
%TO.P,D21,1*%
%TO.N,R0*%
X101650000Y-71000000D03*
%TO.P,D21,2*%
%TO.N,pinky_top_F*%
X98350000Y-71000000D03*
%TD*%
%TO.P,D31,1*%
%TO.N,R2*%
X173650000Y-102875000D03*
%TO.P,D31,2*%
%TO.N,inner_bottom_F*%
X170350000Y-102875000D03*
%TD*%
D19*
%TO.P,D36,1*%
%TO.N,R3*%
X187759842Y-133727700D03*
%TO.P,D36,2*%
%TO.N,far_home_F*%
X184901958Y-132077700D03*
%TD*%
D11*
%TO.P,D28,1*%
%TO.N,R2*%
X155650000Y-100750000D03*
%TO.P,D28,2*%
%TO.N,index_bottom_F*%
X152350000Y-100750000D03*
%TD*%
%TO.P,D29,1*%
%TO.N,R1*%
X155650000Y-83750000D03*
%TO.P,D29,2*%
%TO.N,index_home_F*%
X152350000Y-83750000D03*
%TD*%
D20*
%TO.P,D35,1*%
%TO.N,R3*%
X170592978Y-126150650D03*
%TO.P,D35,2*%
%TO.N,mid_home_F*%
X167405422Y-125296550D03*
%TD*%
D11*
%TO.P,D23,1*%
%TO.N,R1*%
X119650000Y-83750000D03*
%TO.P,D23,2*%
%TO.N,ring_home_F*%
X116350000Y-83750000D03*
%TD*%
D12*
%TO.P,S27,1*%
%TO.N,C3*%
X139275000Y-53675000D03*
%TO.P,S27,2*%
%TO.N,middle_top_F*%
X127725000Y-55875000D03*
%TD*%
D11*
%TO.P,D22,1*%
%TO.N,R2*%
X119650000Y-100750000D03*
%TO.P,D22,2*%
%TO.N,ring_bottom_F*%
X116350000Y-100750000D03*
%TD*%
D12*
%TO.P,S33,1*%
%TO.N,C5*%
X175275000Y-57925000D03*
%TO.P,S33,2*%
%TO.N,inner_top_F*%
X163725000Y-60125000D03*
%TD*%
D21*
%TO.P,S35,1*%
%TO.N,C4*%
X174996680Y-115994374D03*
%TO.P,S35,2*%
%TO.N,mid_home_F*%
X163270835Y-115130051D03*
%TD*%
D12*
%TO.P,S23,1*%
%TO.N,C2*%
X121275000Y-72800000D03*
%TO.P,S23,2*%
%TO.N,ring_home_F*%
X109725000Y-75000000D03*
%TD*%
%TO.P,S24,1*%
%TO.N,C2*%
X121275000Y-55800000D03*
%TO.P,S24,2*%
%TO.N,ring_top_F*%
X109725000Y-58000000D03*
%TD*%
%TO.P,S34,1*%
%TO.N,C3*%
X153675000Y-112325000D03*
%TO.P,S34,2*%
%TO.N,near_home_F*%
X142125000Y-114525000D03*
%TD*%
%TO.P,S30,1*%
%TO.N,C4*%
X157275000Y-55800000D03*
%TO.P,S30,2*%
%TO.N,index_top_F*%
X145725000Y-58000000D03*
%TD*%
%TO.P,S28,1*%
%TO.N,C4*%
X157275000Y-89800000D03*
%TO.P,S28,2*%
%TO.N,index_bottom_F*%
X145725000Y-92000000D03*
%TD*%
D11*
%TO.P,D24,1*%
%TO.N,R0*%
X119650000Y-66750000D03*
%TO.P,D24,2*%
%TO.N,ring_top_F*%
X116350000Y-66750000D03*
%TD*%
D22*
%TO.P,JST1,1*%
%TO.N,BAT_P*%
X195816000Y-106750000D03*
%TO.P,JST1,2*%
%TO.N,GND*%
X195816000Y-104750000D03*
D23*
%TO.P,JST1,11*%
%TO.N,JST1_1*%
X193000000Y-106750000D03*
%TO.P,JST1,12*%
%TO.N,JST1_2*%
X193000000Y-104750000D03*
D24*
%TO.P,JST1,21*%
%TO.N,JST1_1*%
X194800000Y-106750000D03*
%TO.P,JST1,22*%
%TO.N,JST1_2*%
X194800000Y-104750000D03*
%TD*%
D12*
%TO.P,S20,1*%
%TO.N,C1*%
X103275000Y-77050000D03*
%TO.P,S20,2*%
%TO.N,pinky_home_F*%
X91725000Y-79250000D03*
%TD*%
%TO.P,S19,1*%
%TO.N,C1*%
X103275000Y-94050000D03*
%TO.P,S19,2*%
%TO.N,pinky_bottom_F*%
X91725000Y-96250000D03*
%TD*%
D11*
%TO.P,D34,1*%
%TO.N,R3*%
X152050000Y-123275000D03*
%TO.P,D34,2*%
%TO.N,near_home_F*%
X148750000Y-123275000D03*
%TD*%
D25*
%TO.P,DISP1,1*%
%TO.N,DISP1_1*%
X189190000Y-98200000D03*
%TO.P,DISP1,2*%
%TO.N,DISP1_2*%
X191730000Y-98200000D03*
%TO.P,DISP1,3*%
%TO.N,DISP1_3*%
X194270000Y-98200000D03*
%TO.P,DISP1,4*%
%TO.N,DISP1_4*%
X196810000Y-98200000D03*
D26*
%TO.P,DISP1,10*%
%TO.N,GND*%
X189190000Y-100850000D03*
%TO.P,DISP1,11*%
%TO.N,VCC*%
X191730000Y-100850000D03*
%TO.P,DISP1,12*%
%TO.N,SCL*%
X194270000Y-100850000D03*
%TO.P,DISP1,13*%
%TO.N,SDA*%
X196810000Y-100850000D03*
%TO.P,DISP1,14*%
%TO.N,DISP1_1*%
X189190000Y-99950000D03*
%TO.P,DISP1,15*%
%TO.N,DISP1_2*%
X191730000Y-99950000D03*
%TO.P,DISP1,16*%
%TO.N,DISP1_3*%
X194270000Y-99950000D03*
%TO.P,DISP1,17*%
%TO.N,DISP1_4*%
X196810000Y-99950000D03*
%TD*%
D11*
%TO.P,D25,1*%
%TO.N,R2*%
X137650000Y-98625000D03*
%TO.P,D25,2*%
%TO.N,middle_bottom_F*%
X134350000Y-98625000D03*
%TD*%
D27*
%TO.N,R3*%
X187227000Y-116500000D03*
%TO.N,R0*%
X155550000Y-65350000D03*
X138800000Y-64625000D03*
X102900000Y-71000000D03*
%TO.N,C1*%
X103275000Y-73000000D03*
%TO.N,VCC*%
X193639167Y-101700910D03*
%TO.N,GND*%
X198342914Y-95922835D03*
%TO.N,R3*%
X188000000Y-131400000D03*
X171571164Y-127128836D03*
%TO.N,C1*%
X97300000Y-91700000D03*
%TO.N,GND*%
X196963200Y-92888300D03*
X188420000Y-67135000D03*
%TO.N,C2*%
X120723300Y-58003500D03*
X181900000Y-83200000D03*
X120723300Y-75386500D03*
X121275000Y-87028000D03*
%TO.N,C3*%
X147032700Y-110513500D03*
X138923800Y-84075500D03*
X138931600Y-68529700D03*
X138700000Y-51394700D03*
X176929500Y-71556900D03*
%TO.N,C4*%
X174996700Y-112800800D03*
X156883900Y-77533800D03*
X152860800Y-53742500D03*
X157275000Y-87028000D03*
%TO.N,C5*%
X194642100Y-119474400D03*
X176169100Y-72303700D03*
X174893400Y-87247200D03*
X174700000Y-55800000D03*
%TO.N,R2*%
X172692700Y-102836700D03*
X102611200Y-104831300D03*
X120571600Y-101671600D03*
X138619600Y-98880500D03*
X156605500Y-100855500D03*
%TO.N,R1*%
X172695200Y-86015500D03*
X137650000Y-80513600D03*
X156626500Y-83472500D03*
X120614900Y-84045000D03*
X102534100Y-87115900D03*
%TO.N,R0*%
X156700000Y-69100000D03*
X172686000Y-69270500D03*
X118693400Y-66750000D03*
%TO.N,R3*%
X187227000Y-92903100D03*
X153002100Y-123258900D03*
%TO.N,RAW*%
X199075800Y-99375000D03*
%TO.N,SDA*%
X195905900Y-101739200D03*
X193194500Y-74618500D03*
%TO.N,SCL*%
X193796200Y-76613700D03*
X193100000Y-100900000D03*
%TO.N,BAT_P*%
X199300000Y-96100000D03*
X195100000Y-109300000D03*
%TD*%
D28*
%TO.N,R3*%
X187227000Y-116500000D02*
X187227000Y-92903100D01*
%TO.N,far_home_F*%
X181500000Y-123226945D02*
X181500000Y-128675742D01*
X183539540Y-121187405D02*
X181500000Y-123226945D01*
X181500000Y-128675742D02*
X184901958Y-132077700D01*
%TO.N,C5*%
X196000000Y-120832300D02*
X194642100Y-119474400D01*
X196000000Y-123699200D02*
X196000000Y-120832300D01*
X194642100Y-125057100D02*
X196000000Y-123699200D01*
%TO.N,C3*%
X147032700Y-101475400D02*
X147032700Y-110513500D01*
X143700000Y-98142700D02*
X147032700Y-101475400D01*
X143700000Y-87100000D02*
X143700000Y-98142700D01*
X143100000Y-86500000D02*
X143700000Y-87100000D01*
X139275000Y-87675000D02*
X140450000Y-86500000D01*
X140450000Y-86500000D02*
X143100000Y-86500000D01*
%TO.N,C1*%
X97875000Y-91125000D02*
X103184600Y-91125000D01*
X97300000Y-91700000D02*
X97875000Y-91125000D01*
%TO.N,C2*%
X181900000Y-82761600D02*
X185099900Y-79561700D01*
X181900000Y-83200000D02*
X181900000Y-82761600D01*
X187858300Y-79561700D02*
X189010000Y-78410000D01*
X185099900Y-79561700D02*
X187858300Y-79561700D01*
%TO.N,C5*%
X176169100Y-71468771D02*
X176169100Y-72303700D01*
X180200000Y-67437871D02*
X176169100Y-71468771D01*
X179100000Y-55900000D02*
X180200000Y-57000000D01*
X180200000Y-57000000D02*
X180200000Y-67437871D01*
X176800000Y-55900000D02*
X179100000Y-55900000D01*
X175275000Y-57425000D02*
X176800000Y-55900000D01*
X175275000Y-57925000D02*
X175275000Y-57425000D01*
X175275000Y-56375000D02*
X175275000Y-57925000D01*
X174700000Y-55800000D02*
X175275000Y-56375000D01*
%TO.N,R0*%
X155650000Y-65450000D02*
X155550000Y-65350000D01*
X155650000Y-66750000D02*
X155650000Y-65450000D01*
X155650000Y-66299100D02*
X155650000Y-66750000D01*
X155583900Y-66365200D02*
X155650000Y-66299100D01*
X156700000Y-69100000D02*
X155583900Y-67983900D01*
X155583900Y-67983900D02*
X155583900Y-66365200D01*
%TO.N,C4*%
X157275000Y-71198300D02*
X157275000Y-72800000D01*
X162000000Y-65500000D02*
X160800000Y-66700000D01*
X160800000Y-66700000D02*
X160800000Y-67673300D01*
X162000000Y-55500000D02*
X162000000Y-65500000D01*
X161100000Y-54600000D02*
X162000000Y-55500000D01*
X158475000Y-54600000D02*
X161100000Y-54600000D01*
X160800000Y-67673300D02*
X157275000Y-71198300D01*
X157275000Y-55800000D02*
X158475000Y-54600000D01*
%TO.N,middle_top_F*%
X127725000Y-62525000D02*
X127725000Y-55875000D01*
X134350000Y-64625000D02*
X129825000Y-64625000D01*
X129825000Y-64625000D02*
X127725000Y-62525000D01*
%TO.N,C3*%
X142300000Y-52100000D02*
X143900000Y-53700000D01*
X143900000Y-53700000D02*
X143900000Y-63561300D01*
X143900000Y-63561300D02*
X138931600Y-68529700D01*
X140800000Y-52100000D02*
X142300000Y-52100000D01*
X139275000Y-53625000D02*
X140800000Y-52100000D01*
X139275000Y-53675000D02*
X139275000Y-53625000D01*
X139275000Y-51969700D02*
X139275000Y-53675000D01*
X138700000Y-51394700D02*
X139275000Y-51969700D01*
%TO.N,R0*%
X137650000Y-64625000D02*
X138800000Y-64625000D01*
%TO.N,C3*%
X139275000Y-53675000D02*
X139150000Y-53800000D01*
%TO.N,R0*%
X101650000Y-71000000D02*
X102900000Y-71000000D01*
%TO.N,C1*%
X103275000Y-73000000D02*
X103275000Y-77050000D01*
X105739600Y-60050000D02*
X103275000Y-60050000D01*
X107080300Y-68221700D02*
X107080300Y-61390700D01*
X107080300Y-61390700D02*
X105739600Y-60050000D01*
X103275000Y-72027000D02*
X107080300Y-68221700D01*
X103275000Y-73000000D02*
X103275000Y-72027000D01*
%TO.N,SCL*%
X193150000Y-100850000D02*
X194270000Y-100850000D01*
X193100000Y-100900000D02*
X193150000Y-100850000D01*
%TO.N,VCC*%
X192580910Y-101700910D02*
X191730000Y-100850000D01*
X193639167Y-101700910D02*
X192580910Y-101700910D01*
%TO.N,GND*%
X198342914Y-95742914D02*
X198342914Y-95922835D01*
X198100000Y-95500000D02*
X198342914Y-95742914D01*
X196963200Y-94363200D02*
X198100000Y-95500000D01*
X196963200Y-92888300D02*
X196963200Y-94363200D01*
%TO.N,BAT_P*%
X199575000Y-96375000D02*
X200465000Y-96375000D01*
X199300000Y-96100000D02*
X199575000Y-96375000D01*
X195816000Y-108584000D02*
X195100000Y-109300000D01*
X195816000Y-106750000D02*
X195816000Y-108584000D01*
%TO.N,R3*%
X186887542Y-134600000D02*
X187759842Y-133727700D01*
X179042328Y-134600000D02*
X186887542Y-134600000D01*
X171571164Y-127128836D02*
X179042328Y-134600000D01*
X188000000Y-133487542D02*
X188000000Y-131400000D01*
X170592978Y-126150650D02*
X171571164Y-127128836D01*
X187759842Y-133727700D02*
X188000000Y-133487542D01*
D29*
%TO.N,C1*%
X188420000Y-75870000D02*
X189600000Y-75870000D01*
D28*
X102913600Y-77411400D02*
X102913600Y-86078400D01*
X103184600Y-86349400D02*
X103184600Y-91125000D01*
X102913600Y-86078400D02*
X103184600Y-86349400D01*
X103275000Y-94050000D02*
X103275000Y-91215400D01*
X103275000Y-77050000D02*
X102913600Y-77411400D01*
X103275000Y-91215400D02*
X103184600Y-91125000D01*
%TO.N,GND*%
X196890000Y-70790000D02*
X197580000Y-70100000D01*
X195816000Y-104750000D02*
X196367700Y-104750000D01*
D29*
X188420000Y-65710000D02*
X189600000Y-65710000D01*
D28*
X188420000Y-65710000D02*
X188420000Y-67135000D01*
X195816000Y-103848300D02*
X193090000Y-103848300D01*
X195696400Y-71493600D02*
X196400000Y-70790000D01*
D29*
X196890000Y-70790000D02*
X196400000Y-70790000D01*
D28*
X201900000Y-112875000D02*
X201900000Y-110282300D01*
X196963200Y-92888300D02*
X195696400Y-91621500D01*
X195816000Y-104750000D02*
X195816000Y-103848300D01*
X189190000Y-100850000D02*
X190091700Y-100850000D01*
X201900000Y-110282300D02*
X196367700Y-104750000D01*
X195696400Y-91621500D02*
X195696400Y-71493600D01*
D29*
X197580000Y-68250000D02*
X196400000Y-68250000D01*
X197580000Y-70790000D02*
X196890000Y-70790000D01*
D28*
X193090000Y-103848300D02*
X190091700Y-100850000D01*
X197580000Y-70100000D02*
X197580000Y-68250000D01*
%TO.N,C2*%
X120892200Y-75892500D02*
X120892200Y-75386500D01*
X121275000Y-76275300D02*
X120892200Y-75892500D01*
X120892200Y-73182800D02*
X121275000Y-72800000D01*
X121275000Y-72800000D02*
X121275000Y-71198300D01*
X120892200Y-70815500D02*
X120892200Y-58003500D01*
X120723300Y-58003500D02*
X120892200Y-58003500D01*
D29*
X189010000Y-78410000D02*
X189600000Y-78410000D01*
X188420000Y-78410000D02*
X189010000Y-78410000D01*
D28*
X120892200Y-58003500D02*
X120892200Y-56182800D01*
X120892200Y-75386500D02*
X120892200Y-73182800D01*
X121275000Y-89800000D02*
X121275000Y-87028000D01*
X120892200Y-56182800D02*
X121275000Y-55800000D01*
X120723300Y-75386500D02*
X120892200Y-75386500D01*
X121275000Y-71198300D02*
X120892200Y-70815500D01*
X121275000Y-87028000D02*
X121275000Y-76275300D01*
%TO.N,C3*%
X153675000Y-112325000D02*
X151623300Y-114376700D01*
X138923800Y-85722100D02*
X138923800Y-84075500D01*
X138931600Y-68729900D02*
X139275000Y-69073300D01*
X138893600Y-88056400D02*
X139275000Y-87675000D01*
X139275000Y-86073300D02*
X138923800Y-85722100D01*
D29*
X189010000Y-80950000D02*
X189600000Y-80950000D01*
D28*
X151623300Y-114376700D02*
X149548600Y-114376700D01*
X187740000Y-82220000D02*
X184583000Y-82220000D01*
X184583000Y-82220000D02*
X182514900Y-84288100D01*
D29*
X188420000Y-80950000D02*
X189010000Y-80950000D01*
D28*
X138923800Y-71026200D02*
X139275000Y-70675000D01*
X180287800Y-82716100D02*
X180287800Y-74915200D01*
X149548600Y-114376700D02*
X147032700Y-111860800D01*
X181859800Y-84288100D02*
X180287800Y-82716100D01*
X189010000Y-80950000D02*
X187740000Y-82220000D01*
X138931600Y-68529700D02*
X138931600Y-68729900D01*
X139275000Y-70675000D02*
X139275000Y-70299400D01*
X139275000Y-69874100D02*
X139275000Y-70299400D01*
X180287800Y-74915200D02*
X176929500Y-71556900D01*
X139275000Y-87675000D02*
X139275000Y-86073300D01*
X182514900Y-84288100D02*
X181859800Y-84288100D01*
X147032700Y-111860800D02*
X147032700Y-110513500D01*
X139275000Y-69874100D02*
X139275000Y-69073300D01*
X138923800Y-84075500D02*
X138923800Y-71026200D01*
%TO.N,C4*%
X156883900Y-77533800D02*
X157275000Y-77924900D01*
D29*
X188420000Y-83490000D02*
X189010000Y-83490000D01*
X189010000Y-83490000D02*
X189600000Y-83490000D01*
D28*
X161737200Y-99541300D02*
X161737200Y-91835200D01*
X174996700Y-115994400D02*
X175522300Y-114032700D01*
X157275000Y-87028000D02*
X157275000Y-89800000D01*
X184997700Y-84760000D02*
X182725400Y-87032300D01*
X161737200Y-91835200D02*
X159702000Y-89800000D01*
X156945100Y-55821600D02*
X154866000Y-53742500D01*
X175522400Y-114032700D02*
X175522300Y-114032700D01*
X187740000Y-84760000D02*
X184997700Y-84760000D01*
X157275000Y-55800000D02*
X156945100Y-56129900D01*
X157275000Y-77924900D02*
X157275000Y-87028000D01*
X154866000Y-53742500D02*
X152860800Y-53742500D01*
X157275000Y-72800000D02*
X156883900Y-73191100D01*
X174996700Y-112800800D02*
X161737200Y-99541300D01*
X156945100Y-56784300D02*
X156945100Y-55821600D01*
X159702000Y-89800000D02*
X157275000Y-89800000D01*
X156883900Y-73191100D02*
X156883900Y-77533800D01*
X182725400Y-87032300D02*
X182725400Y-106829700D01*
X156945100Y-56129900D02*
X156945100Y-56784300D01*
X174996700Y-113507100D02*
X174996700Y-112800800D01*
X182725400Y-106829700D02*
X175522400Y-114032700D01*
X189010000Y-83490000D02*
X187740000Y-84760000D01*
X175522300Y-114032700D02*
X174996700Y-113507100D01*
%TO.N,C5*%
X190317500Y-92100900D02*
X190317500Y-86747500D01*
X188020000Y-94398400D02*
X190317500Y-92100900D01*
X175275000Y-90323300D02*
X174893400Y-89941700D01*
X188020000Y-112852300D02*
X188020000Y-94398400D01*
X190317500Y-86747500D02*
X189600000Y-86030000D01*
X174893700Y-58306300D02*
X175275000Y-57925000D01*
D29*
X188420000Y-86030000D02*
X189600000Y-86030000D01*
D28*
X175275000Y-73323300D02*
X176169100Y-72429200D01*
X174893400Y-75306600D02*
X175275000Y-74925000D01*
X175275000Y-74925000D02*
X175275000Y-73323300D01*
X174893400Y-89941700D02*
X174893400Y-87247200D01*
X175275000Y-91925000D02*
X175275000Y-90323300D01*
X176169100Y-72429200D02*
X176169100Y-72303700D01*
X174893400Y-87247200D02*
X174893400Y-75306600D01*
X194642100Y-119474400D02*
X188020000Y-112852300D01*
D29*
%TO.N,R2*%
X197580000Y-86030000D02*
X196400000Y-86030000D01*
D28*
X138401700Y-98625000D02*
X138401700Y-98662600D01*
X173650000Y-102875000D02*
X172731000Y-102875000D01*
X138401700Y-98662600D02*
X138619600Y-98880500D01*
X156500000Y-100750000D02*
X156605500Y-100855500D01*
X120401700Y-100750000D02*
X120401700Y-101501700D01*
X102442500Y-105000000D02*
X102611200Y-104831300D01*
X120401700Y-101501700D02*
X120571600Y-101671600D01*
X119650000Y-100750000D02*
X120401700Y-100750000D01*
X137650000Y-98625000D02*
X138401700Y-98625000D01*
X155650000Y-100750000D02*
X156500000Y-100750000D01*
X172731000Y-102875000D02*
X172692700Y-102836700D01*
X101650000Y-105000000D02*
X102442500Y-105000000D01*
%TO.N,R1*%
X137650000Y-81625000D02*
X137650000Y-80513600D01*
X156401700Y-83697300D02*
X156626500Y-83472500D01*
X119650000Y-83750000D02*
X120401700Y-83750000D01*
D29*
X197580000Y-83490000D02*
X196400000Y-83490000D01*
D28*
X101650000Y-88000000D02*
X102401700Y-88000000D01*
X102401700Y-88000000D02*
X102401700Y-87248300D01*
X173650000Y-85875000D02*
X172835700Y-85875000D01*
X156401700Y-83750000D02*
X156401700Y-83697300D01*
X120401700Y-83831800D02*
X120614900Y-84045000D01*
X155650000Y-83750000D02*
X156401700Y-83750000D01*
X120401700Y-83750000D02*
X120401700Y-83831800D01*
X102401700Y-87248300D02*
X102534100Y-87115900D01*
X172835700Y-85875000D02*
X172695200Y-86015500D01*
%TO.N,R0*%
X119650000Y-66750000D02*
X118898300Y-66750000D01*
X172898300Y-69058200D02*
X172686000Y-69270500D01*
X118898300Y-66750000D02*
X118693400Y-66750000D01*
X173650000Y-68875000D02*
X172898300Y-68875000D01*
D29*
X197580000Y-80950000D02*
X196400000Y-80950000D01*
D28*
X172898300Y-68875000D02*
X172898300Y-69058200D01*
%TO.N,R3*%
X152986000Y-123275000D02*
X153002100Y-123258900D01*
D29*
X197580000Y-88570000D02*
X196400000Y-88570000D01*
D28*
X152050000Y-123275000D02*
X152801700Y-123275000D01*
X152801700Y-123275000D02*
X152986000Y-123275000D01*
%TO.N,pinky_bottom_F*%
X98350000Y-105000000D02*
X97358100Y-105000000D01*
X97358100Y-105000000D02*
X91725000Y-99366900D01*
X91725000Y-99366900D02*
X91725000Y-96250000D01*
%TO.N,pinky_home_F*%
X97367600Y-88000000D02*
X91725000Y-82357400D01*
X98350000Y-88000000D02*
X97367600Y-88000000D01*
X91725000Y-82357400D02*
X91725000Y-79250000D01*
%TO.N,pinky_top_F*%
X91725000Y-65357400D02*
X91725000Y-62250000D01*
X97367600Y-71000000D02*
X91725000Y-65357400D01*
X98350000Y-71000000D02*
X97367600Y-71000000D01*
%TO.N,ring_bottom_F*%
X109725000Y-95140200D02*
X109725000Y-92000000D01*
X116350000Y-100750000D02*
X115334800Y-100750000D01*
X115334800Y-100750000D02*
X109725000Y-95140200D01*
%TO.N,ring_home_F*%
X111794900Y-77069900D02*
X109725000Y-75000000D01*
X112989100Y-77069900D02*
X111794900Y-77069900D01*
X116350000Y-80430800D02*
X112989100Y-77069900D01*
X116350000Y-83750000D02*
X116350000Y-80430800D01*
%TO.N,ring_top_F*%
X115339300Y-66750000D02*
X109725000Y-61135700D01*
X116350000Y-66750000D02*
X115339300Y-66750000D01*
X109725000Y-61135700D02*
X109725000Y-58000000D01*
%TO.N,middle_bottom_F*%
X134350000Y-98625000D02*
X133309800Y-98625000D01*
X127725000Y-93040200D02*
X127725000Y-89875000D01*
X133309800Y-98625000D02*
X127725000Y-93040200D01*
%TO.N,middle_home_F*%
X133367600Y-81625000D02*
X127725000Y-75982400D01*
X134350000Y-81625000D02*
X133367600Y-81625000D01*
X127725000Y-75982400D02*
X127725000Y-72875000D01*
%TO.N,index_bottom_F*%
X152350000Y-100750000D02*
X151308500Y-100750000D01*
X145725000Y-95166500D02*
X145725000Y-92000000D01*
X151308500Y-100750000D02*
X145725000Y-95166500D01*
%TO.N,index_home_F*%
X151367600Y-83750000D02*
X145725000Y-78107400D01*
X152350000Y-83750000D02*
X151367600Y-83750000D01*
X145725000Y-78107400D02*
X145725000Y-75000000D01*
%TO.N,index_top_F*%
X145725000Y-61107400D02*
X145725000Y-58000000D01*
X151367600Y-66750000D02*
X145725000Y-61107400D01*
X152350000Y-66750000D02*
X151367600Y-66750000D01*
%TO.N,inner_bottom_F*%
X170350000Y-102875000D02*
X169339300Y-102875000D01*
X163725000Y-97260700D02*
X163725000Y-94125000D01*
X169339300Y-102875000D02*
X163725000Y-97260700D01*
%TO.N,inner_home_F*%
X170350000Y-85875000D02*
X169367600Y-85875000D01*
X169367600Y-85875000D02*
X163725000Y-80232400D01*
X163725000Y-80232400D02*
X163725000Y-77125000D01*
%TO.N,inner_top_F*%
X163725000Y-63267900D02*
X163725000Y-60125000D01*
X170350000Y-68875000D02*
X169332100Y-68875000D01*
X169332100Y-68875000D02*
X163725000Y-63267900D01*
%TO.N,near_home_F*%
X148750000Y-123275000D02*
X148750000Y-119955800D01*
X148750000Y-119955800D02*
X145389100Y-116594900D01*
X145389100Y-116594900D02*
X144194900Y-116594900D01*
X144194900Y-116594900D02*
X142125000Y-114525000D01*
%TO.N,mid_home_F*%
X163270800Y-121161900D02*
X163270800Y-117617200D01*
X163270800Y-117617200D02*
X162745300Y-117091700D01*
X163270800Y-115130100D02*
X162745200Y-117091700D01*
X166446000Y-125039400D02*
X166446000Y-124337100D01*
X167405400Y-125296500D02*
X166446000Y-125039400D01*
X162745300Y-117091700D02*
X162745200Y-117091700D01*
X166446000Y-124337100D02*
X163270800Y-121161900D01*
%TO.N,far_home_F*%
X183539500Y-121187400D02*
X183967200Y-120759700D01*
D29*
%TO.N,RAW*%
X188420000Y-63170000D02*
X189600000Y-63170000D01*
D28*
X199075800Y-98212500D02*
X199075800Y-99375000D01*
X189600000Y-63170000D02*
X195244700Y-68814700D01*
X199413300Y-97875000D02*
X199075800Y-98212500D01*
X195244700Y-68814700D02*
X195244700Y-93706400D01*
X195244700Y-93706400D02*
X199413300Y-97875000D01*
X200465000Y-97875000D02*
X199413300Y-97875000D01*
%TO.N,RST*%
X194699700Y-73939700D02*
X189010000Y-68250000D01*
X198385700Y-97501100D02*
X194699700Y-93815100D01*
D29*
X188420000Y-68250000D02*
X189010000Y-68250000D01*
D28*
X198385700Y-102860700D02*
X198385700Y-97501100D01*
X194699700Y-93815100D02*
X194699700Y-73939700D01*
D29*
X189010000Y-68250000D02*
X189600000Y-68250000D01*
D28*
X201900000Y-106375000D02*
X198385700Y-102860700D01*
%TO.N,VCC*%
X190768500Y-71958500D02*
X190768500Y-96998100D01*
X189600000Y-70790000D02*
X190768500Y-71958500D01*
X191730000Y-100850000D02*
X190828300Y-100850000D01*
D29*
X188420000Y-70790000D02*
X189600000Y-70790000D01*
D28*
X190828300Y-100850000D02*
X190567600Y-100589300D01*
X190567600Y-97199000D02*
X190768500Y-96998100D01*
X190567600Y-100589300D02*
X190567600Y-97199000D01*
D29*
%TO.N,C0*%
X188420000Y-73330000D02*
X189600000Y-73330000D01*
%TO.N,P16*%
X188420000Y-88570000D02*
X189600000Y-88570000D01*
%TO.N,P10*%
X188420000Y-91110000D02*
X189600000Y-91110000D01*
%TO.N,LED*%
X197580000Y-63170000D02*
X196400000Y-63170000D01*
%TO.N,DAT*%
X197580000Y-65710000D02*
X196400000Y-65710000D01*
D28*
%TO.N,SDA*%
X195908300Y-101736800D02*
X195908300Y-100850000D01*
X196009200Y-100850000D02*
X195440000Y-100280800D01*
X196810000Y-100850000D02*
X196009200Y-100850000D01*
X196009200Y-100850000D02*
X195908300Y-100850000D01*
X195905900Y-101739200D02*
X195908300Y-101736800D01*
X195440000Y-97039100D02*
X193194500Y-94793600D01*
D29*
X197580000Y-73330000D02*
X196400000Y-73330000D01*
D28*
X195440000Y-100280800D02*
X195440000Y-97039100D01*
X193194500Y-94793600D02*
X193194500Y-74618500D01*
%TO.N,SCL*%
X194270000Y-100850000D02*
X195171700Y-100850000D01*
D29*
X197580000Y-75870000D02*
X196400000Y-75870000D01*
D28*
X196606700Y-102394800D02*
X197972100Y-101029400D01*
X197972100Y-101029400D02*
X197972100Y-97655500D01*
X195171700Y-101888200D02*
X195678300Y-102394800D01*
X193796200Y-93479600D02*
X193796200Y-76613700D01*
X195171700Y-100850000D02*
X195171700Y-101888200D01*
X197972100Y-97655500D02*
X193796200Y-93479600D01*
X195678300Y-102394800D02*
X196606700Y-102394800D01*
D29*
%TO.N,CS*%
X197580000Y-78410000D02*
X196400000Y-78410000D01*
%TO.N,P9*%
X197580000Y-91110000D02*
X196400000Y-91110000D01*
D28*
%TO.N,MCU1_24*%
X187500000Y-63170000D02*
X187520000Y-63170000D01*
D29*
X185380000Y-63170000D02*
X187500000Y-63170000D01*
D28*
%TO.N,MCU1_1*%
X198500000Y-63170000D02*
X198480000Y-63170000D01*
D29*
X198500000Y-63170000D02*
X200620000Y-63170000D01*
%TO.N,MCU1_23*%
X185380000Y-65710000D02*
X187500000Y-65710000D01*
D28*
X187500000Y-65710000D02*
X187520000Y-65710000D01*
D29*
%TO.N,MCU1_2*%
X198500000Y-65710000D02*
X200620000Y-65710000D01*
D28*
X198500000Y-65710000D02*
X198480000Y-65710000D01*
%TO.N,MCU1_22*%
X187500000Y-68250000D02*
X187520000Y-68250000D01*
D29*
X185380000Y-68250000D02*
X187500000Y-68250000D01*
D28*
%TO.N,MCU1_3*%
X198500000Y-68250000D02*
X198480000Y-68250000D01*
D29*
X198500000Y-68250000D02*
X200620000Y-68250000D01*
%TO.N,MCU1_21*%
X185380000Y-70790000D02*
X187500000Y-70790000D01*
D28*
X187500000Y-70790000D02*
X187520000Y-70790000D01*
D29*
%TO.N,MCU1_4*%
X198500000Y-70790000D02*
X200620000Y-70790000D01*
D28*
X198500000Y-70790000D02*
X198480000Y-70790000D01*
D29*
%TO.N,MCU1_20*%
X185380000Y-73330000D02*
X187500000Y-73330000D01*
D28*
X187500000Y-73330000D02*
X187520000Y-73330000D01*
D29*
%TO.N,MCU1_5*%
X198500000Y-73330000D02*
X200620000Y-73330000D01*
D28*
X198500000Y-73330000D02*
X198480000Y-73330000D01*
D29*
%TO.N,MCU1_19*%
X185380000Y-75870000D02*
X187500000Y-75870000D01*
D28*
X187500000Y-75870000D02*
X187520000Y-75870000D01*
D29*
%TO.N,MCU1_6*%
X198500000Y-75870000D02*
X200620000Y-75870000D01*
D28*
X198500000Y-75870000D02*
X198480000Y-75870000D01*
D29*
%TO.N,MCU1_18*%
X185380000Y-78410000D02*
X187500000Y-78410000D01*
D28*
X187500000Y-78410000D02*
X187520000Y-78410000D01*
D29*
%TO.N,MCU1_7*%
X198500000Y-78410000D02*
X200620000Y-78410000D01*
D28*
X198500000Y-78410000D02*
X198480000Y-78410000D01*
D29*
%TO.N,MCU1_17*%
X185380000Y-80950000D02*
X187500000Y-80950000D01*
D28*
X187500000Y-80950000D02*
X187520000Y-80950000D01*
D29*
%TO.N,MCU1_8*%
X198500000Y-80950000D02*
X200620000Y-80950000D01*
D28*
X198500000Y-80950000D02*
X198480000Y-80950000D01*
%TO.N,MCU1_16*%
X187500000Y-83490000D02*
X187520000Y-83490000D01*
D29*
X185380000Y-83490000D02*
X187500000Y-83490000D01*
%TO.N,MCU1_9*%
X198500000Y-83490000D02*
X200620000Y-83490000D01*
D28*
X198500000Y-83490000D02*
X198480000Y-83490000D01*
D29*
%TO.N,MCU1_15*%
X185380000Y-86030000D02*
X187500000Y-86030000D01*
D28*
X187500000Y-86030000D02*
X187520000Y-86030000D01*
%TO.N,MCU1_10*%
X198500000Y-86030000D02*
X198480000Y-86030000D01*
D29*
X198500000Y-86030000D02*
X200620000Y-86030000D01*
D28*
%TO.N,MCU1_14*%
X187500000Y-88570000D02*
X187520000Y-88570000D01*
D29*
X185380000Y-88570000D02*
X187500000Y-88570000D01*
D28*
%TO.N,MCU1_11*%
X198500000Y-88570000D02*
X198480000Y-88570000D01*
D29*
X198500000Y-88570000D02*
X200620000Y-88570000D01*
%TO.N,MCU1_13*%
X185380000Y-91110000D02*
X187500000Y-91110000D01*
D28*
X187500000Y-91110000D02*
X187520000Y-91110000D01*
%TO.N,MCU1_12*%
X198500000Y-91110000D02*
X198480000Y-91110000D01*
D29*
X198500000Y-91110000D02*
X200620000Y-91110000D01*
%TO.N,DISP1_1*%
X189190000Y-98200000D02*
X189190000Y-99950000D01*
%TO.N,DISP1_2*%
X191730000Y-98200000D02*
X191730000Y-99950000D01*
%TO.N,DISP1_3*%
X194270000Y-98200000D02*
X194270000Y-99950000D01*
%TO.N,DISP1_4*%
X196810000Y-98200000D02*
X196810000Y-99950000D01*
%TO.N,JST1_1*%
X194800000Y-106750000D02*
X193000000Y-106750000D01*
%TO.N,JST1_2*%
X194800000Y-104750000D02*
X193000000Y-104750000D01*
%TD*%
M02*
