%TF.GenerationSoftware,KiCad,Pcbnew,8.0.1*%
%TF.CreationDate,2024-12-01T01:33:27+09:00*%
%TF.ProjectId,corney_island_wireless_autorouted,636f726e-6579-45f6-9973-6c616e645f77,0.2*%
%TF.SameCoordinates,Original*%
%TF.FileFunction,Legend,Top*%
%TF.FilePolarity,Positive*%
%FSLAX46Y46*%
G04 Gerber Fmt 4.6, Leading zero omitted, Abs format (unit mm)*
G04 Created by KiCad (PCBNEW 8.0.1) date 2024-12-01 01:33:27*
%MOMM*%
%LPD*%
G01*
G04 APERTURE LIST*
G04 Aperture macros list*
%AMRoundRect*
0 Rectangle with rounded corners*
0 $1 Rounding radius*
0 $2 $3 $4 $5 $6 $7 $8 $9 X,Y pos of 4 corners*
0 Add a 4 corners polygon primitive as box body*
4,1,4,$2,$3,$4,$5,$6,$7,$8,$9,$2,$3,0*
0 Add four circle primitives for the rounded corners*
1,1,$1+$1,$2,$3*
1,1,$1+$1,$4,$5*
1,1,$1+$1,$6,$7*
1,1,$1+$1,$8,$9*
0 Add four rect primitives between the rounded corners*
20,1,$1+$1,$2,$3,$4,$5,0*
20,1,$1+$1,$4,$5,$6,$7,0*
20,1,$1+$1,$6,$7,$8,$9,0*
20,1,$1+$1,$8,$9,$2,$3,0*%
%AMFreePoly0*
4,1,16,0.635355,0.285355,0.650000,0.250000,0.650000,-1.000000,0.635355,-1.035355,0.600000,-1.050000,0.564645,-1.035355,0.000000,-0.470710,-0.564645,-1.035355,-0.600000,-1.050000,-0.635355,-1.035355,-0.650000,-1.000000,-0.650000,0.250000,-0.635355,0.285355,-0.600000,0.300000,0.600000,0.300000,0.635355,0.285355,0.635355,0.285355,$1*%
%AMFreePoly1*
4,1,14,0.035355,0.435355,0.635355,-0.164645,0.650000,-0.200000,0.650000,-0.400000,0.635355,-0.435355,0.600000,-0.450000,-0.600000,-0.450000,-0.635355,-0.435355,-0.650000,-0.400000,-0.650000,-0.200000,-0.635355,-0.164645,-0.035355,0.435355,0.000000,0.450000,0.035355,0.435355,0.035355,0.435355,$1*%
G04 Aperture macros list end*
%ADD10C,0.150000*%
%ADD11C,0.100000*%
%ADD12C,0.120000*%
%ADD13C,2.000000*%
%ADD14C,2.100000*%
%ADD15RoundRect,0.050000X0.450000X0.600000X-0.450000X0.600000X-0.450000X-0.600000X0.450000X-0.600000X0*%
%ADD16C,4.400000*%
%ADD17C,3.100000*%
%ADD18C,3.500000*%
%ADD19RoundRect,0.050000X-1.300000X-1.300000X1.300000X-1.300000X1.300000X1.300000X-1.300000X1.300000X0*%
%ADD20C,1.800000*%
%ADD21RoundRect,0.050000X-0.300000X-0.600000X0.300000X-0.600000X0.300000X0.600000X-0.300000X0.600000X0*%
%ADD22C,0.900000*%
%ADD23RoundRect,0.050000X-1.775833X-0.475833X0.475833X-1.775833X1.775833X0.475833X-0.475833X1.775833X0*%
%ADD24RoundRect,0.050000X0.400000X-0.500000X0.400000X0.500000X-0.400000X0.500000X-0.400000X-0.500000X0*%
%ADD25C,1.000000*%
%ADD26RoundRect,0.050000X0.750000X-0.350000X0.750000X0.350000X-0.750000X0.350000X-0.750000X-0.350000X0*%
%ADD27RoundRect,0.050000X0.689711X0.294615X-0.089711X0.744615X-0.689711X-0.294615X0.089711X-0.744615X0*%
%ADD28RoundRect,0.050000X0.589958X0.463087X-0.279375X0.696024X-0.589958X-0.463087X0.279375X-0.696024X0*%
%ADD29RoundRect,0.050000X-1.592168X-0.919239X0.919239X-1.592168X1.592168X0.919239X-0.919239X1.592168X0*%
%ADD30C,2.300000*%
%ADD31FreePoly0,270.000000*%
%ADD32O,1.850000X1.300000*%
%ADD33FreePoly1,270.000000*%
%ADD34O,1.800000X1.800000*%
%ADD35RoundRect,0.050000X0.600000X-0.300000X0.600000X0.300000X-0.600000X0.300000X-0.600000X-0.300000X0*%
G04 APERTURE END LIST*
D10*
X113380951Y-106254819D02*
X113380951Y-106969104D01*
X113380951Y-106969104D02*
X113333332Y-107111961D01*
X113333332Y-107111961D02*
X113238094Y-107207200D01*
X113238094Y-107207200D02*
X113095237Y-107254819D01*
X113095237Y-107254819D02*
X112999999Y-107254819D01*
X114333332Y-107254819D02*
X113857142Y-107254819D01*
X113857142Y-107254819D02*
X113857142Y-106254819D01*
X115238094Y-107159580D02*
X115190475Y-107207200D01*
X115190475Y-107207200D02*
X115047618Y-107254819D01*
X115047618Y-107254819D02*
X114952380Y-107254819D01*
X114952380Y-107254819D02*
X114809523Y-107207200D01*
X114809523Y-107207200D02*
X114714285Y-107111961D01*
X114714285Y-107111961D02*
X114666666Y-107016723D01*
X114666666Y-107016723D02*
X114619047Y-106826247D01*
X114619047Y-106826247D02*
X114619047Y-106683390D01*
X114619047Y-106683390D02*
X114666666Y-106492914D01*
X114666666Y-106492914D02*
X114714285Y-106397676D01*
X114714285Y-106397676D02*
X114809523Y-106302438D01*
X114809523Y-106302438D02*
X114952380Y-106254819D01*
X114952380Y-106254819D02*
X115047618Y-106254819D01*
X115047618Y-106254819D02*
X115190475Y-106302438D01*
X115190475Y-106302438D02*
X115238094Y-106350057D01*
X115952380Y-106254819D02*
X115952380Y-106969104D01*
X115952380Y-106969104D02*
X115904761Y-107111961D01*
X115904761Y-107111961D02*
X115809523Y-107207200D01*
X115809523Y-107207200D02*
X115666666Y-107254819D01*
X115666666Y-107254819D02*
X115571428Y-107254819D01*
X116904761Y-107254819D02*
X116428571Y-107254819D01*
X116428571Y-107254819D02*
X116428571Y-106254819D01*
X117809523Y-107159580D02*
X117761904Y-107207200D01*
X117761904Y-107207200D02*
X117619047Y-107254819D01*
X117619047Y-107254819D02*
X117523809Y-107254819D01*
X117523809Y-107254819D02*
X117380952Y-107207200D01*
X117380952Y-107207200D02*
X117285714Y-107111961D01*
X117285714Y-107111961D02*
X117238095Y-107016723D01*
X117238095Y-107016723D02*
X117190476Y-106826247D01*
X117190476Y-106826247D02*
X117190476Y-106683390D01*
X117190476Y-106683390D02*
X117238095Y-106492914D01*
X117238095Y-106492914D02*
X117285714Y-106397676D01*
X117285714Y-106397676D02*
X117380952Y-106302438D01*
X117380952Y-106302438D02*
X117523809Y-106254819D01*
X117523809Y-106254819D02*
X117619047Y-106254819D01*
X117619047Y-106254819D02*
X117761904Y-106302438D01*
X117761904Y-106302438D02*
X117809523Y-106350057D01*
X118523809Y-106254819D02*
X118523809Y-106969104D01*
X118523809Y-106969104D02*
X118476190Y-107111961D01*
X118476190Y-107111961D02*
X118380952Y-107207200D01*
X118380952Y-107207200D02*
X118238095Y-107254819D01*
X118238095Y-107254819D02*
X118142857Y-107254819D01*
X119476190Y-107254819D02*
X119000000Y-107254819D01*
X119000000Y-107254819D02*
X119000000Y-106254819D01*
X120380952Y-107159580D02*
X120333333Y-107207200D01*
X120333333Y-107207200D02*
X120190476Y-107254819D01*
X120190476Y-107254819D02*
X120095238Y-107254819D01*
X120095238Y-107254819D02*
X119952381Y-107207200D01*
X119952381Y-107207200D02*
X119857143Y-107111961D01*
X119857143Y-107111961D02*
X119809524Y-107016723D01*
X119809524Y-107016723D02*
X119761905Y-106826247D01*
X119761905Y-106826247D02*
X119761905Y-106683390D01*
X119761905Y-106683390D02*
X119809524Y-106492914D01*
X119809524Y-106492914D02*
X119857143Y-106397676D01*
X119857143Y-106397676D02*
X119952381Y-106302438D01*
X119952381Y-106302438D02*
X120095238Y-106254819D01*
X120095238Y-106254819D02*
X120190476Y-106254819D01*
X120190476Y-106254819D02*
X120333333Y-106302438D01*
X120333333Y-106302438D02*
X120380952Y-106350057D01*
X121095238Y-106254819D02*
X121095238Y-106969104D01*
X121095238Y-106969104D02*
X121047619Y-107111961D01*
X121047619Y-107111961D02*
X120952381Y-107207200D01*
X120952381Y-107207200D02*
X120809524Y-107254819D01*
X120809524Y-107254819D02*
X120714286Y-107254819D01*
X122047619Y-107254819D02*
X121571429Y-107254819D01*
X121571429Y-107254819D02*
X121571429Y-106254819D01*
X122952381Y-107159580D02*
X122904762Y-107207200D01*
X122904762Y-107207200D02*
X122761905Y-107254819D01*
X122761905Y-107254819D02*
X122666667Y-107254819D01*
X122666667Y-107254819D02*
X122523810Y-107207200D01*
X122523810Y-107207200D02*
X122428572Y-107111961D01*
X122428572Y-107111961D02*
X122380953Y-107016723D01*
X122380953Y-107016723D02*
X122333334Y-106826247D01*
X122333334Y-106826247D02*
X122333334Y-106683390D01*
X122333334Y-106683390D02*
X122380953Y-106492914D01*
X122380953Y-106492914D02*
X122428572Y-106397676D01*
X122428572Y-106397676D02*
X122523810Y-106302438D01*
X122523810Y-106302438D02*
X122666667Y-106254819D01*
X122666667Y-106254819D02*
X122761905Y-106254819D01*
X122761905Y-106254819D02*
X122904762Y-106302438D01*
X122904762Y-106302438D02*
X122952381Y-106350057D01*
X202354819Y-111077381D02*
X201878628Y-111410714D01*
X202354819Y-111648809D02*
X201354819Y-111648809D01*
X201354819Y-111648809D02*
X201354819Y-111267857D01*
X201354819Y-111267857D02*
X201402438Y-111172619D01*
X201402438Y-111172619D02*
X201450057Y-111125000D01*
X201450057Y-111125000D02*
X201545295Y-111077381D01*
X201545295Y-111077381D02*
X201688152Y-111077381D01*
X201688152Y-111077381D02*
X201783390Y-111125000D01*
X201783390Y-111125000D02*
X201831009Y-111172619D01*
X201831009Y-111172619D02*
X201878628Y-111267857D01*
X201878628Y-111267857D02*
X201878628Y-111648809D01*
X201831009Y-110648809D02*
X201831009Y-110315476D01*
X202354819Y-110172619D02*
X202354819Y-110648809D01*
X202354819Y-110648809D02*
X201354819Y-110648809D01*
X201354819Y-110648809D02*
X201354819Y-110172619D01*
X202307200Y-109791666D02*
X202354819Y-109648809D01*
X202354819Y-109648809D02*
X202354819Y-109410714D01*
X202354819Y-109410714D02*
X202307200Y-109315476D01*
X202307200Y-109315476D02*
X202259580Y-109267857D01*
X202259580Y-109267857D02*
X202164342Y-109220238D01*
X202164342Y-109220238D02*
X202069104Y-109220238D01*
X202069104Y-109220238D02*
X201973866Y-109267857D01*
X201973866Y-109267857D02*
X201926247Y-109315476D01*
X201926247Y-109315476D02*
X201878628Y-109410714D01*
X201878628Y-109410714D02*
X201831009Y-109601190D01*
X201831009Y-109601190D02*
X201783390Y-109696428D01*
X201783390Y-109696428D02*
X201735771Y-109744047D01*
X201735771Y-109744047D02*
X201640533Y-109791666D01*
X201640533Y-109791666D02*
X201545295Y-109791666D01*
X201545295Y-109791666D02*
X201450057Y-109744047D01*
X201450057Y-109744047D02*
X201402438Y-109696428D01*
X201402438Y-109696428D02*
X201354819Y-109601190D01*
X201354819Y-109601190D02*
X201354819Y-109363095D01*
X201354819Y-109363095D02*
X201402438Y-109220238D01*
X201831009Y-108791666D02*
X201831009Y-108458333D01*
X202354819Y-108315476D02*
X202354819Y-108791666D01*
X202354819Y-108791666D02*
X201354819Y-108791666D01*
X201354819Y-108791666D02*
X201354819Y-108315476D01*
X201354819Y-108029761D02*
X201354819Y-107458333D01*
X202354819Y-107744047D02*
X201354819Y-107744047D01*
X194873333Y-83944819D02*
X194540000Y-83468628D01*
X194301905Y-83944819D02*
X194301905Y-82944819D01*
X194301905Y-82944819D02*
X194682857Y-82944819D01*
X194682857Y-82944819D02*
X194778095Y-82992438D01*
X194778095Y-82992438D02*
X194825714Y-83040057D01*
X194825714Y-83040057D02*
X194873333Y-83135295D01*
X194873333Y-83135295D02*
X194873333Y-83278152D01*
X194873333Y-83278152D02*
X194825714Y-83373390D01*
X194825714Y-83373390D02*
X194778095Y-83421009D01*
X194778095Y-83421009D02*
X194682857Y-83468628D01*
X194682857Y-83468628D02*
X194301905Y-83468628D01*
X195825714Y-83944819D02*
X195254286Y-83944819D01*
X195540000Y-83944819D02*
X195540000Y-82944819D01*
X195540000Y-82944819D02*
X195444762Y-83087676D01*
X195444762Y-83087676D02*
X195349524Y-83182914D01*
X195349524Y-83182914D02*
X195254286Y-83230533D01*
X190216667Y-70244819D02*
X190550000Y-71244819D01*
X190550000Y-71244819D02*
X190883333Y-70244819D01*
X191788095Y-71149580D02*
X191740476Y-71197200D01*
X191740476Y-71197200D02*
X191597619Y-71244819D01*
X191597619Y-71244819D02*
X191502381Y-71244819D01*
X191502381Y-71244819D02*
X191359524Y-71197200D01*
X191359524Y-71197200D02*
X191264286Y-71101961D01*
X191264286Y-71101961D02*
X191216667Y-71006723D01*
X191216667Y-71006723D02*
X191169048Y-70816247D01*
X191169048Y-70816247D02*
X191169048Y-70673390D01*
X191169048Y-70673390D02*
X191216667Y-70482914D01*
X191216667Y-70482914D02*
X191264286Y-70387676D01*
X191264286Y-70387676D02*
X191359524Y-70292438D01*
X191359524Y-70292438D02*
X191502381Y-70244819D01*
X191502381Y-70244819D02*
X191597619Y-70244819D01*
X191597619Y-70244819D02*
X191740476Y-70292438D01*
X191740476Y-70292438D02*
X191788095Y-70340057D01*
X192788095Y-71149580D02*
X192740476Y-71197200D01*
X192740476Y-71197200D02*
X192597619Y-71244819D01*
X192597619Y-71244819D02*
X192502381Y-71244819D01*
X192502381Y-71244819D02*
X192359524Y-71197200D01*
X192359524Y-71197200D02*
X192264286Y-71101961D01*
X192264286Y-71101961D02*
X192216667Y-71006723D01*
X192216667Y-71006723D02*
X192169048Y-70816247D01*
X192169048Y-70816247D02*
X192169048Y-70673390D01*
X192169048Y-70673390D02*
X192216667Y-70482914D01*
X192216667Y-70482914D02*
X192264286Y-70387676D01*
X192264286Y-70387676D02*
X192359524Y-70292438D01*
X192359524Y-70292438D02*
X192502381Y-70244819D01*
X192502381Y-70244819D02*
X192597619Y-70244819D01*
X192597619Y-70244819D02*
X192740476Y-70292438D01*
X192740476Y-70292438D02*
X192788095Y-70340057D01*
X193688095Y-67752438D02*
X193592857Y-67704819D01*
X193592857Y-67704819D02*
X193450000Y-67704819D01*
X193450000Y-67704819D02*
X193307143Y-67752438D01*
X193307143Y-67752438D02*
X193211905Y-67847676D01*
X193211905Y-67847676D02*
X193164286Y-67942914D01*
X193164286Y-67942914D02*
X193116667Y-68133390D01*
X193116667Y-68133390D02*
X193116667Y-68276247D01*
X193116667Y-68276247D02*
X193164286Y-68466723D01*
X193164286Y-68466723D02*
X193211905Y-68561961D01*
X193211905Y-68561961D02*
X193307143Y-68657200D01*
X193307143Y-68657200D02*
X193450000Y-68704819D01*
X193450000Y-68704819D02*
X193545238Y-68704819D01*
X193545238Y-68704819D02*
X193688095Y-68657200D01*
X193688095Y-68657200D02*
X193735714Y-68609580D01*
X193735714Y-68609580D02*
X193735714Y-68276247D01*
X193735714Y-68276247D02*
X193545238Y-68276247D01*
X194164286Y-68704819D02*
X194164286Y-67704819D01*
X194164286Y-67704819D02*
X194735714Y-68704819D01*
X194735714Y-68704819D02*
X194735714Y-67704819D01*
X195211905Y-68704819D02*
X195211905Y-67704819D01*
X195211905Y-67704819D02*
X195450000Y-67704819D01*
X195450000Y-67704819D02*
X195592857Y-67752438D01*
X195592857Y-67752438D02*
X195688095Y-67847676D01*
X195688095Y-67847676D02*
X195735714Y-67942914D01*
X195735714Y-67942914D02*
X195783333Y-68133390D01*
X195783333Y-68133390D02*
X195783333Y-68276247D01*
X195783333Y-68276247D02*
X195735714Y-68466723D01*
X195735714Y-68466723D02*
X195688095Y-68561961D01*
X195688095Y-68561961D02*
X195592857Y-68657200D01*
X195592857Y-68657200D02*
X195450000Y-68704819D01*
X195450000Y-68704819D02*
X195211905Y-68704819D01*
X190793333Y-78769580D02*
X190745714Y-78817200D01*
X190745714Y-78817200D02*
X190602857Y-78864819D01*
X190602857Y-78864819D02*
X190507619Y-78864819D01*
X190507619Y-78864819D02*
X190364762Y-78817200D01*
X190364762Y-78817200D02*
X190269524Y-78721961D01*
X190269524Y-78721961D02*
X190221905Y-78626723D01*
X190221905Y-78626723D02*
X190174286Y-78436247D01*
X190174286Y-78436247D02*
X190174286Y-78293390D01*
X190174286Y-78293390D02*
X190221905Y-78102914D01*
X190221905Y-78102914D02*
X190269524Y-78007676D01*
X190269524Y-78007676D02*
X190364762Y-77912438D01*
X190364762Y-77912438D02*
X190507619Y-77864819D01*
X190507619Y-77864819D02*
X190602857Y-77864819D01*
X190602857Y-77864819D02*
X190745714Y-77912438D01*
X190745714Y-77912438D02*
X190793333Y-77960057D01*
X191174286Y-77960057D02*
X191221905Y-77912438D01*
X191221905Y-77912438D02*
X191317143Y-77864819D01*
X191317143Y-77864819D02*
X191555238Y-77864819D01*
X191555238Y-77864819D02*
X191650476Y-77912438D01*
X191650476Y-77912438D02*
X191698095Y-77960057D01*
X191698095Y-77960057D02*
X191745714Y-78055295D01*
X191745714Y-78055295D02*
X191745714Y-78150533D01*
X191745714Y-78150533D02*
X191698095Y-78293390D01*
X191698095Y-78293390D02*
X191126667Y-78864819D01*
X191126667Y-78864819D02*
X191745714Y-78864819D01*
X190335714Y-91564819D02*
X190335714Y-90564819D01*
X190335714Y-90564819D02*
X190716666Y-90564819D01*
X190716666Y-90564819D02*
X190811904Y-90612438D01*
X190811904Y-90612438D02*
X190859523Y-90660057D01*
X190859523Y-90660057D02*
X190907142Y-90755295D01*
X190907142Y-90755295D02*
X190907142Y-90898152D01*
X190907142Y-90898152D02*
X190859523Y-90993390D01*
X190859523Y-90993390D02*
X190811904Y-91041009D01*
X190811904Y-91041009D02*
X190716666Y-91088628D01*
X190716666Y-91088628D02*
X190335714Y-91088628D01*
X191859523Y-91564819D02*
X191288095Y-91564819D01*
X191573809Y-91564819D02*
X191573809Y-90564819D01*
X191573809Y-90564819D02*
X191478571Y-90707676D01*
X191478571Y-90707676D02*
X191383333Y-90802914D01*
X191383333Y-90802914D02*
X191288095Y-90850533D01*
X192478571Y-90564819D02*
X192573809Y-90564819D01*
X192573809Y-90564819D02*
X192669047Y-90612438D01*
X192669047Y-90612438D02*
X192716666Y-90660057D01*
X192716666Y-90660057D02*
X192764285Y-90755295D01*
X192764285Y-90755295D02*
X192811904Y-90945771D01*
X192811904Y-90945771D02*
X192811904Y-91183866D01*
X192811904Y-91183866D02*
X192764285Y-91374342D01*
X192764285Y-91374342D02*
X192716666Y-91469580D01*
X192716666Y-91469580D02*
X192669047Y-91517200D01*
X192669047Y-91517200D02*
X192573809Y-91564819D01*
X192573809Y-91564819D02*
X192478571Y-91564819D01*
X192478571Y-91564819D02*
X192383333Y-91517200D01*
X192383333Y-91517200D02*
X192335714Y-91469580D01*
X192335714Y-91469580D02*
X192288095Y-91374342D01*
X192288095Y-91374342D02*
X192240476Y-91183866D01*
X192240476Y-91183866D02*
X192240476Y-90945771D01*
X192240476Y-90945771D02*
X192288095Y-90755295D01*
X192288095Y-90755295D02*
X192335714Y-90660057D01*
X192335714Y-90660057D02*
X192383333Y-90612438D01*
X192383333Y-90612438D02*
X192478571Y-90564819D01*
X194873333Y-81404819D02*
X194540000Y-80928628D01*
X194301905Y-81404819D02*
X194301905Y-80404819D01*
X194301905Y-80404819D02*
X194682857Y-80404819D01*
X194682857Y-80404819D02*
X194778095Y-80452438D01*
X194778095Y-80452438D02*
X194825714Y-80500057D01*
X194825714Y-80500057D02*
X194873333Y-80595295D01*
X194873333Y-80595295D02*
X194873333Y-80738152D01*
X194873333Y-80738152D02*
X194825714Y-80833390D01*
X194825714Y-80833390D02*
X194778095Y-80881009D01*
X194778095Y-80881009D02*
X194682857Y-80928628D01*
X194682857Y-80928628D02*
X194301905Y-80928628D01*
X195492381Y-80404819D02*
X195587619Y-80404819D01*
X195587619Y-80404819D02*
X195682857Y-80452438D01*
X195682857Y-80452438D02*
X195730476Y-80500057D01*
X195730476Y-80500057D02*
X195778095Y-80595295D01*
X195778095Y-80595295D02*
X195825714Y-80785771D01*
X195825714Y-80785771D02*
X195825714Y-81023866D01*
X195825714Y-81023866D02*
X195778095Y-81214342D01*
X195778095Y-81214342D02*
X195730476Y-81309580D01*
X195730476Y-81309580D02*
X195682857Y-81357200D01*
X195682857Y-81357200D02*
X195587619Y-81404819D01*
X195587619Y-81404819D02*
X195492381Y-81404819D01*
X195492381Y-81404819D02*
X195397143Y-81357200D01*
X195397143Y-81357200D02*
X195349524Y-81309580D01*
X195349524Y-81309580D02*
X195301905Y-81214342D01*
X195301905Y-81214342D02*
X195254286Y-81023866D01*
X195254286Y-81023866D02*
X195254286Y-80785771D01*
X195254286Y-80785771D02*
X195301905Y-80595295D01*
X195301905Y-80595295D02*
X195349524Y-80500057D01*
X195349524Y-80500057D02*
X195397143Y-80452438D01*
X195397143Y-80452438D02*
X195492381Y-80404819D01*
X190335714Y-89024819D02*
X190335714Y-88024819D01*
X190335714Y-88024819D02*
X190716666Y-88024819D01*
X190716666Y-88024819D02*
X190811904Y-88072438D01*
X190811904Y-88072438D02*
X190859523Y-88120057D01*
X190859523Y-88120057D02*
X190907142Y-88215295D01*
X190907142Y-88215295D02*
X190907142Y-88358152D01*
X190907142Y-88358152D02*
X190859523Y-88453390D01*
X190859523Y-88453390D02*
X190811904Y-88501009D01*
X190811904Y-88501009D02*
X190716666Y-88548628D01*
X190716666Y-88548628D02*
X190335714Y-88548628D01*
X191859523Y-89024819D02*
X191288095Y-89024819D01*
X191573809Y-89024819D02*
X191573809Y-88024819D01*
X191573809Y-88024819D02*
X191478571Y-88167676D01*
X191478571Y-88167676D02*
X191383333Y-88262914D01*
X191383333Y-88262914D02*
X191288095Y-88310533D01*
X192716666Y-88024819D02*
X192526190Y-88024819D01*
X192526190Y-88024819D02*
X192430952Y-88072438D01*
X192430952Y-88072438D02*
X192383333Y-88120057D01*
X192383333Y-88120057D02*
X192288095Y-88262914D01*
X192288095Y-88262914D02*
X192240476Y-88453390D01*
X192240476Y-88453390D02*
X192240476Y-88834342D01*
X192240476Y-88834342D02*
X192288095Y-88929580D01*
X192288095Y-88929580D02*
X192335714Y-88977200D01*
X192335714Y-88977200D02*
X192430952Y-89024819D01*
X192430952Y-89024819D02*
X192621428Y-89024819D01*
X192621428Y-89024819D02*
X192716666Y-88977200D01*
X192716666Y-88977200D02*
X192764285Y-88929580D01*
X192764285Y-88929580D02*
X192811904Y-88834342D01*
X192811904Y-88834342D02*
X192811904Y-88596247D01*
X192811904Y-88596247D02*
X192764285Y-88501009D01*
X192764285Y-88501009D02*
X192716666Y-88453390D01*
X192716666Y-88453390D02*
X192621428Y-88405771D01*
X192621428Y-88405771D02*
X192430952Y-88405771D01*
X192430952Y-88405771D02*
X192335714Y-88453390D01*
X192335714Y-88453390D02*
X192288095Y-88501009D01*
X192288095Y-88501009D02*
X192240476Y-88596247D01*
X194873333Y-89024819D02*
X194540000Y-88548628D01*
X194301905Y-89024819D02*
X194301905Y-88024819D01*
X194301905Y-88024819D02*
X194682857Y-88024819D01*
X194682857Y-88024819D02*
X194778095Y-88072438D01*
X194778095Y-88072438D02*
X194825714Y-88120057D01*
X194825714Y-88120057D02*
X194873333Y-88215295D01*
X194873333Y-88215295D02*
X194873333Y-88358152D01*
X194873333Y-88358152D02*
X194825714Y-88453390D01*
X194825714Y-88453390D02*
X194778095Y-88501009D01*
X194778095Y-88501009D02*
X194682857Y-88548628D01*
X194682857Y-88548628D02*
X194301905Y-88548628D01*
X195206667Y-88024819D02*
X195825714Y-88024819D01*
X195825714Y-88024819D02*
X195492381Y-88405771D01*
X195492381Y-88405771D02*
X195635238Y-88405771D01*
X195635238Y-88405771D02*
X195730476Y-88453390D01*
X195730476Y-88453390D02*
X195778095Y-88501009D01*
X195778095Y-88501009D02*
X195825714Y-88596247D01*
X195825714Y-88596247D02*
X195825714Y-88834342D01*
X195825714Y-88834342D02*
X195778095Y-88929580D01*
X195778095Y-88929580D02*
X195730476Y-88977200D01*
X195730476Y-88977200D02*
X195635238Y-89024819D01*
X195635238Y-89024819D02*
X195349524Y-89024819D01*
X195349524Y-89024819D02*
X195254286Y-88977200D01*
X195254286Y-88977200D02*
X195206667Y-88929580D01*
X191002380Y-68704819D02*
X190669047Y-68228628D01*
X190430952Y-68704819D02*
X190430952Y-67704819D01*
X190430952Y-67704819D02*
X190811904Y-67704819D01*
X190811904Y-67704819D02*
X190907142Y-67752438D01*
X190907142Y-67752438D02*
X190954761Y-67800057D01*
X190954761Y-67800057D02*
X191002380Y-67895295D01*
X191002380Y-67895295D02*
X191002380Y-68038152D01*
X191002380Y-68038152D02*
X190954761Y-68133390D01*
X190954761Y-68133390D02*
X190907142Y-68181009D01*
X190907142Y-68181009D02*
X190811904Y-68228628D01*
X190811904Y-68228628D02*
X190430952Y-68228628D01*
X191383333Y-68657200D02*
X191526190Y-68704819D01*
X191526190Y-68704819D02*
X191764285Y-68704819D01*
X191764285Y-68704819D02*
X191859523Y-68657200D01*
X191859523Y-68657200D02*
X191907142Y-68609580D01*
X191907142Y-68609580D02*
X191954761Y-68514342D01*
X191954761Y-68514342D02*
X191954761Y-68419104D01*
X191954761Y-68419104D02*
X191907142Y-68323866D01*
X191907142Y-68323866D02*
X191859523Y-68276247D01*
X191859523Y-68276247D02*
X191764285Y-68228628D01*
X191764285Y-68228628D02*
X191573809Y-68181009D01*
X191573809Y-68181009D02*
X191478571Y-68133390D01*
X191478571Y-68133390D02*
X191430952Y-68085771D01*
X191430952Y-68085771D02*
X191383333Y-67990533D01*
X191383333Y-67990533D02*
X191383333Y-67895295D01*
X191383333Y-67895295D02*
X191430952Y-67800057D01*
X191430952Y-67800057D02*
X191478571Y-67752438D01*
X191478571Y-67752438D02*
X191573809Y-67704819D01*
X191573809Y-67704819D02*
X191811904Y-67704819D01*
X191811904Y-67704819D02*
X191954761Y-67752438D01*
X192240476Y-67704819D02*
X192811904Y-67704819D01*
X192526190Y-68704819D02*
X192526190Y-67704819D01*
X193235714Y-73737200D02*
X193378571Y-73784819D01*
X193378571Y-73784819D02*
X193616666Y-73784819D01*
X193616666Y-73784819D02*
X193711904Y-73737200D01*
X193711904Y-73737200D02*
X193759523Y-73689580D01*
X193759523Y-73689580D02*
X193807142Y-73594342D01*
X193807142Y-73594342D02*
X193807142Y-73499104D01*
X193807142Y-73499104D02*
X193759523Y-73403866D01*
X193759523Y-73403866D02*
X193711904Y-73356247D01*
X193711904Y-73356247D02*
X193616666Y-73308628D01*
X193616666Y-73308628D02*
X193426190Y-73261009D01*
X193426190Y-73261009D02*
X193330952Y-73213390D01*
X193330952Y-73213390D02*
X193283333Y-73165771D01*
X193283333Y-73165771D02*
X193235714Y-73070533D01*
X193235714Y-73070533D02*
X193235714Y-72975295D01*
X193235714Y-72975295D02*
X193283333Y-72880057D01*
X193283333Y-72880057D02*
X193330952Y-72832438D01*
X193330952Y-72832438D02*
X193426190Y-72784819D01*
X193426190Y-72784819D02*
X193664285Y-72784819D01*
X193664285Y-72784819D02*
X193807142Y-72832438D01*
X194235714Y-73784819D02*
X194235714Y-72784819D01*
X194235714Y-72784819D02*
X194473809Y-72784819D01*
X194473809Y-72784819D02*
X194616666Y-72832438D01*
X194616666Y-72832438D02*
X194711904Y-72927676D01*
X194711904Y-72927676D02*
X194759523Y-73022914D01*
X194759523Y-73022914D02*
X194807142Y-73213390D01*
X194807142Y-73213390D02*
X194807142Y-73356247D01*
X194807142Y-73356247D02*
X194759523Y-73546723D01*
X194759523Y-73546723D02*
X194711904Y-73641961D01*
X194711904Y-73641961D02*
X194616666Y-73737200D01*
X194616666Y-73737200D02*
X194473809Y-73784819D01*
X194473809Y-73784819D02*
X194235714Y-73784819D01*
X195188095Y-73499104D02*
X195664285Y-73499104D01*
X195092857Y-73784819D02*
X195426190Y-72784819D01*
X195426190Y-72784819D02*
X195759523Y-73784819D01*
X190793333Y-81309580D02*
X190745714Y-81357200D01*
X190745714Y-81357200D02*
X190602857Y-81404819D01*
X190602857Y-81404819D02*
X190507619Y-81404819D01*
X190507619Y-81404819D02*
X190364762Y-81357200D01*
X190364762Y-81357200D02*
X190269524Y-81261961D01*
X190269524Y-81261961D02*
X190221905Y-81166723D01*
X190221905Y-81166723D02*
X190174286Y-80976247D01*
X190174286Y-80976247D02*
X190174286Y-80833390D01*
X190174286Y-80833390D02*
X190221905Y-80642914D01*
X190221905Y-80642914D02*
X190269524Y-80547676D01*
X190269524Y-80547676D02*
X190364762Y-80452438D01*
X190364762Y-80452438D02*
X190507619Y-80404819D01*
X190507619Y-80404819D02*
X190602857Y-80404819D01*
X190602857Y-80404819D02*
X190745714Y-80452438D01*
X190745714Y-80452438D02*
X190793333Y-80500057D01*
X191126667Y-80404819D02*
X191745714Y-80404819D01*
X191745714Y-80404819D02*
X191412381Y-80785771D01*
X191412381Y-80785771D02*
X191555238Y-80785771D01*
X191555238Y-80785771D02*
X191650476Y-80833390D01*
X191650476Y-80833390D02*
X191698095Y-80881009D01*
X191698095Y-80881009D02*
X191745714Y-80976247D01*
X191745714Y-80976247D02*
X191745714Y-81214342D01*
X191745714Y-81214342D02*
X191698095Y-81309580D01*
X191698095Y-81309580D02*
X191650476Y-81357200D01*
X191650476Y-81357200D02*
X191555238Y-81404819D01*
X191555238Y-81404819D02*
X191269524Y-81404819D01*
X191269524Y-81404819D02*
X191174286Y-81357200D01*
X191174286Y-81357200D02*
X191126667Y-81309580D01*
X190793333Y-86389580D02*
X190745714Y-86437200D01*
X190745714Y-86437200D02*
X190602857Y-86484819D01*
X190602857Y-86484819D02*
X190507619Y-86484819D01*
X190507619Y-86484819D02*
X190364762Y-86437200D01*
X190364762Y-86437200D02*
X190269524Y-86341961D01*
X190269524Y-86341961D02*
X190221905Y-86246723D01*
X190221905Y-86246723D02*
X190174286Y-86056247D01*
X190174286Y-86056247D02*
X190174286Y-85913390D01*
X190174286Y-85913390D02*
X190221905Y-85722914D01*
X190221905Y-85722914D02*
X190269524Y-85627676D01*
X190269524Y-85627676D02*
X190364762Y-85532438D01*
X190364762Y-85532438D02*
X190507619Y-85484819D01*
X190507619Y-85484819D02*
X190602857Y-85484819D01*
X190602857Y-85484819D02*
X190745714Y-85532438D01*
X190745714Y-85532438D02*
X190793333Y-85580057D01*
X191698095Y-85484819D02*
X191221905Y-85484819D01*
X191221905Y-85484819D02*
X191174286Y-85961009D01*
X191174286Y-85961009D02*
X191221905Y-85913390D01*
X191221905Y-85913390D02*
X191317143Y-85865771D01*
X191317143Y-85865771D02*
X191555238Y-85865771D01*
X191555238Y-85865771D02*
X191650476Y-85913390D01*
X191650476Y-85913390D02*
X191698095Y-85961009D01*
X191698095Y-85961009D02*
X191745714Y-86056247D01*
X191745714Y-86056247D02*
X191745714Y-86294342D01*
X191745714Y-86294342D02*
X191698095Y-86389580D01*
X191698095Y-86389580D02*
X191650476Y-86437200D01*
X191650476Y-86437200D02*
X191555238Y-86484819D01*
X191555238Y-86484819D02*
X191317143Y-86484819D01*
X191317143Y-86484819D02*
X191221905Y-86437200D01*
X191221905Y-86437200D02*
X191174286Y-86389580D01*
X190793333Y-73689580D02*
X190745714Y-73737200D01*
X190745714Y-73737200D02*
X190602857Y-73784819D01*
X190602857Y-73784819D02*
X190507619Y-73784819D01*
X190507619Y-73784819D02*
X190364762Y-73737200D01*
X190364762Y-73737200D02*
X190269524Y-73641961D01*
X190269524Y-73641961D02*
X190221905Y-73546723D01*
X190221905Y-73546723D02*
X190174286Y-73356247D01*
X190174286Y-73356247D02*
X190174286Y-73213390D01*
X190174286Y-73213390D02*
X190221905Y-73022914D01*
X190221905Y-73022914D02*
X190269524Y-72927676D01*
X190269524Y-72927676D02*
X190364762Y-72832438D01*
X190364762Y-72832438D02*
X190507619Y-72784819D01*
X190507619Y-72784819D02*
X190602857Y-72784819D01*
X190602857Y-72784819D02*
X190745714Y-72832438D01*
X190745714Y-72832438D02*
X190793333Y-72880057D01*
X191412381Y-72784819D02*
X191507619Y-72784819D01*
X191507619Y-72784819D02*
X191602857Y-72832438D01*
X191602857Y-72832438D02*
X191650476Y-72880057D01*
X191650476Y-72880057D02*
X191698095Y-72975295D01*
X191698095Y-72975295D02*
X191745714Y-73165771D01*
X191745714Y-73165771D02*
X191745714Y-73403866D01*
X191745714Y-73403866D02*
X191698095Y-73594342D01*
X191698095Y-73594342D02*
X191650476Y-73689580D01*
X191650476Y-73689580D02*
X191602857Y-73737200D01*
X191602857Y-73737200D02*
X191507619Y-73784819D01*
X191507619Y-73784819D02*
X191412381Y-73784819D01*
X191412381Y-73784819D02*
X191317143Y-73737200D01*
X191317143Y-73737200D02*
X191269524Y-73689580D01*
X191269524Y-73689580D02*
X191221905Y-73594342D01*
X191221905Y-73594342D02*
X191174286Y-73403866D01*
X191174286Y-73403866D02*
X191174286Y-73165771D01*
X191174286Y-73165771D02*
X191221905Y-72975295D01*
X191221905Y-72975295D02*
X191269524Y-72880057D01*
X191269524Y-72880057D02*
X191317143Y-72832438D01*
X191317143Y-72832438D02*
X191412381Y-72784819D01*
X190859523Y-63624819D02*
X190526190Y-63148628D01*
X190288095Y-63624819D02*
X190288095Y-62624819D01*
X190288095Y-62624819D02*
X190669047Y-62624819D01*
X190669047Y-62624819D02*
X190764285Y-62672438D01*
X190764285Y-62672438D02*
X190811904Y-62720057D01*
X190811904Y-62720057D02*
X190859523Y-62815295D01*
X190859523Y-62815295D02*
X190859523Y-62958152D01*
X190859523Y-62958152D02*
X190811904Y-63053390D01*
X190811904Y-63053390D02*
X190764285Y-63101009D01*
X190764285Y-63101009D02*
X190669047Y-63148628D01*
X190669047Y-63148628D02*
X190288095Y-63148628D01*
X191240476Y-63339104D02*
X191716666Y-63339104D01*
X191145238Y-63624819D02*
X191478571Y-62624819D01*
X191478571Y-62624819D02*
X191811904Y-63624819D01*
X192050000Y-62624819D02*
X192288095Y-63624819D01*
X192288095Y-63624819D02*
X192478571Y-62910533D01*
X192478571Y-62910533D02*
X192669047Y-63624819D01*
X192669047Y-63624819D02*
X192907143Y-62624819D01*
X193378571Y-66164819D02*
X193378571Y-65164819D01*
X193378571Y-65164819D02*
X193616666Y-65164819D01*
X193616666Y-65164819D02*
X193759523Y-65212438D01*
X193759523Y-65212438D02*
X193854761Y-65307676D01*
X193854761Y-65307676D02*
X193902380Y-65402914D01*
X193902380Y-65402914D02*
X193949999Y-65593390D01*
X193949999Y-65593390D02*
X193949999Y-65736247D01*
X193949999Y-65736247D02*
X193902380Y-65926723D01*
X193902380Y-65926723D02*
X193854761Y-66021961D01*
X193854761Y-66021961D02*
X193759523Y-66117200D01*
X193759523Y-66117200D02*
X193616666Y-66164819D01*
X193616666Y-66164819D02*
X193378571Y-66164819D01*
X194330952Y-65879104D02*
X194807142Y-65879104D01*
X194235714Y-66164819D02*
X194569047Y-65164819D01*
X194569047Y-65164819D02*
X194902380Y-66164819D01*
X195092857Y-65164819D02*
X195664285Y-65164819D01*
X195378571Y-66164819D02*
X195378571Y-65164819D01*
X190788095Y-65212438D02*
X190692857Y-65164819D01*
X190692857Y-65164819D02*
X190550000Y-65164819D01*
X190550000Y-65164819D02*
X190407143Y-65212438D01*
X190407143Y-65212438D02*
X190311905Y-65307676D01*
X190311905Y-65307676D02*
X190264286Y-65402914D01*
X190264286Y-65402914D02*
X190216667Y-65593390D01*
X190216667Y-65593390D02*
X190216667Y-65736247D01*
X190216667Y-65736247D02*
X190264286Y-65926723D01*
X190264286Y-65926723D02*
X190311905Y-66021961D01*
X190311905Y-66021961D02*
X190407143Y-66117200D01*
X190407143Y-66117200D02*
X190550000Y-66164819D01*
X190550000Y-66164819D02*
X190645238Y-66164819D01*
X190645238Y-66164819D02*
X190788095Y-66117200D01*
X190788095Y-66117200D02*
X190835714Y-66069580D01*
X190835714Y-66069580D02*
X190835714Y-65736247D01*
X190835714Y-65736247D02*
X190645238Y-65736247D01*
X191264286Y-66164819D02*
X191264286Y-65164819D01*
X191264286Y-65164819D02*
X191835714Y-66164819D01*
X191835714Y-66164819D02*
X191835714Y-65164819D01*
X192311905Y-66164819D02*
X192311905Y-65164819D01*
X192311905Y-65164819D02*
X192550000Y-65164819D01*
X192550000Y-65164819D02*
X192692857Y-65212438D01*
X192692857Y-65212438D02*
X192788095Y-65307676D01*
X192788095Y-65307676D02*
X192835714Y-65402914D01*
X192835714Y-65402914D02*
X192883333Y-65593390D01*
X192883333Y-65593390D02*
X192883333Y-65736247D01*
X192883333Y-65736247D02*
X192835714Y-65926723D01*
X192835714Y-65926723D02*
X192788095Y-66021961D01*
X192788095Y-66021961D02*
X192692857Y-66117200D01*
X192692857Y-66117200D02*
X192550000Y-66164819D01*
X192550000Y-66164819D02*
X192311905Y-66164819D01*
X193807142Y-63624819D02*
X193330952Y-63624819D01*
X193330952Y-63624819D02*
X193330952Y-62624819D01*
X194140476Y-63101009D02*
X194473809Y-63101009D01*
X194616666Y-63624819D02*
X194140476Y-63624819D01*
X194140476Y-63624819D02*
X194140476Y-62624819D01*
X194140476Y-62624819D02*
X194616666Y-62624819D01*
X195045238Y-63624819D02*
X195045238Y-62624819D01*
X195045238Y-62624819D02*
X195283333Y-62624819D01*
X195283333Y-62624819D02*
X195426190Y-62672438D01*
X195426190Y-62672438D02*
X195521428Y-62767676D01*
X195521428Y-62767676D02*
X195569047Y-62862914D01*
X195569047Y-62862914D02*
X195616666Y-63053390D01*
X195616666Y-63053390D02*
X195616666Y-63196247D01*
X195616666Y-63196247D02*
X195569047Y-63386723D01*
X195569047Y-63386723D02*
X195521428Y-63481961D01*
X195521428Y-63481961D02*
X195426190Y-63577200D01*
X195426190Y-63577200D02*
X195283333Y-63624819D01*
X195283333Y-63624819D02*
X195045238Y-63624819D01*
X190793333Y-83849580D02*
X190745714Y-83897200D01*
X190745714Y-83897200D02*
X190602857Y-83944819D01*
X190602857Y-83944819D02*
X190507619Y-83944819D01*
X190507619Y-83944819D02*
X190364762Y-83897200D01*
X190364762Y-83897200D02*
X190269524Y-83801961D01*
X190269524Y-83801961D02*
X190221905Y-83706723D01*
X190221905Y-83706723D02*
X190174286Y-83516247D01*
X190174286Y-83516247D02*
X190174286Y-83373390D01*
X190174286Y-83373390D02*
X190221905Y-83182914D01*
X190221905Y-83182914D02*
X190269524Y-83087676D01*
X190269524Y-83087676D02*
X190364762Y-82992438D01*
X190364762Y-82992438D02*
X190507619Y-82944819D01*
X190507619Y-82944819D02*
X190602857Y-82944819D01*
X190602857Y-82944819D02*
X190745714Y-82992438D01*
X190745714Y-82992438D02*
X190793333Y-83040057D01*
X191650476Y-83278152D02*
X191650476Y-83944819D01*
X191412381Y-82897200D02*
X191174286Y-83611485D01*
X191174286Y-83611485D02*
X191793333Y-83611485D01*
X193259524Y-76277200D02*
X193402381Y-76324819D01*
X193402381Y-76324819D02*
X193640476Y-76324819D01*
X193640476Y-76324819D02*
X193735714Y-76277200D01*
X193735714Y-76277200D02*
X193783333Y-76229580D01*
X193783333Y-76229580D02*
X193830952Y-76134342D01*
X193830952Y-76134342D02*
X193830952Y-76039104D01*
X193830952Y-76039104D02*
X193783333Y-75943866D01*
X193783333Y-75943866D02*
X193735714Y-75896247D01*
X193735714Y-75896247D02*
X193640476Y-75848628D01*
X193640476Y-75848628D02*
X193450000Y-75801009D01*
X193450000Y-75801009D02*
X193354762Y-75753390D01*
X193354762Y-75753390D02*
X193307143Y-75705771D01*
X193307143Y-75705771D02*
X193259524Y-75610533D01*
X193259524Y-75610533D02*
X193259524Y-75515295D01*
X193259524Y-75515295D02*
X193307143Y-75420057D01*
X193307143Y-75420057D02*
X193354762Y-75372438D01*
X193354762Y-75372438D02*
X193450000Y-75324819D01*
X193450000Y-75324819D02*
X193688095Y-75324819D01*
X193688095Y-75324819D02*
X193830952Y-75372438D01*
X194830952Y-76229580D02*
X194783333Y-76277200D01*
X194783333Y-76277200D02*
X194640476Y-76324819D01*
X194640476Y-76324819D02*
X194545238Y-76324819D01*
X194545238Y-76324819D02*
X194402381Y-76277200D01*
X194402381Y-76277200D02*
X194307143Y-76181961D01*
X194307143Y-76181961D02*
X194259524Y-76086723D01*
X194259524Y-76086723D02*
X194211905Y-75896247D01*
X194211905Y-75896247D02*
X194211905Y-75753390D01*
X194211905Y-75753390D02*
X194259524Y-75562914D01*
X194259524Y-75562914D02*
X194307143Y-75467676D01*
X194307143Y-75467676D02*
X194402381Y-75372438D01*
X194402381Y-75372438D02*
X194545238Y-75324819D01*
X194545238Y-75324819D02*
X194640476Y-75324819D01*
X194640476Y-75324819D02*
X194783333Y-75372438D01*
X194783333Y-75372438D02*
X194830952Y-75420057D01*
X195735714Y-76324819D02*
X195259524Y-76324819D01*
X195259524Y-76324819D02*
X195259524Y-75324819D01*
X194873333Y-78769580D02*
X194825714Y-78817200D01*
X194825714Y-78817200D02*
X194682857Y-78864819D01*
X194682857Y-78864819D02*
X194587619Y-78864819D01*
X194587619Y-78864819D02*
X194444762Y-78817200D01*
X194444762Y-78817200D02*
X194349524Y-78721961D01*
X194349524Y-78721961D02*
X194301905Y-78626723D01*
X194301905Y-78626723D02*
X194254286Y-78436247D01*
X194254286Y-78436247D02*
X194254286Y-78293390D01*
X194254286Y-78293390D02*
X194301905Y-78102914D01*
X194301905Y-78102914D02*
X194349524Y-78007676D01*
X194349524Y-78007676D02*
X194444762Y-77912438D01*
X194444762Y-77912438D02*
X194587619Y-77864819D01*
X194587619Y-77864819D02*
X194682857Y-77864819D01*
X194682857Y-77864819D02*
X194825714Y-77912438D01*
X194825714Y-77912438D02*
X194873333Y-77960057D01*
X195254286Y-78817200D02*
X195397143Y-78864819D01*
X195397143Y-78864819D02*
X195635238Y-78864819D01*
X195635238Y-78864819D02*
X195730476Y-78817200D01*
X195730476Y-78817200D02*
X195778095Y-78769580D01*
X195778095Y-78769580D02*
X195825714Y-78674342D01*
X195825714Y-78674342D02*
X195825714Y-78579104D01*
X195825714Y-78579104D02*
X195778095Y-78483866D01*
X195778095Y-78483866D02*
X195730476Y-78436247D01*
X195730476Y-78436247D02*
X195635238Y-78388628D01*
X195635238Y-78388628D02*
X195444762Y-78341009D01*
X195444762Y-78341009D02*
X195349524Y-78293390D01*
X195349524Y-78293390D02*
X195301905Y-78245771D01*
X195301905Y-78245771D02*
X195254286Y-78150533D01*
X195254286Y-78150533D02*
X195254286Y-78055295D01*
X195254286Y-78055295D02*
X195301905Y-77960057D01*
X195301905Y-77960057D02*
X195349524Y-77912438D01*
X195349524Y-77912438D02*
X195444762Y-77864819D01*
X195444762Y-77864819D02*
X195682857Y-77864819D01*
X195682857Y-77864819D02*
X195825714Y-77912438D01*
X194873333Y-86484819D02*
X194540000Y-86008628D01*
X194301905Y-86484819D02*
X194301905Y-85484819D01*
X194301905Y-85484819D02*
X194682857Y-85484819D01*
X194682857Y-85484819D02*
X194778095Y-85532438D01*
X194778095Y-85532438D02*
X194825714Y-85580057D01*
X194825714Y-85580057D02*
X194873333Y-85675295D01*
X194873333Y-85675295D02*
X194873333Y-85818152D01*
X194873333Y-85818152D02*
X194825714Y-85913390D01*
X194825714Y-85913390D02*
X194778095Y-85961009D01*
X194778095Y-85961009D02*
X194682857Y-86008628D01*
X194682857Y-86008628D02*
X194301905Y-86008628D01*
X195254286Y-85580057D02*
X195301905Y-85532438D01*
X195301905Y-85532438D02*
X195397143Y-85484819D01*
X195397143Y-85484819D02*
X195635238Y-85484819D01*
X195635238Y-85484819D02*
X195730476Y-85532438D01*
X195730476Y-85532438D02*
X195778095Y-85580057D01*
X195778095Y-85580057D02*
X195825714Y-85675295D01*
X195825714Y-85675295D02*
X195825714Y-85770533D01*
X195825714Y-85770533D02*
X195778095Y-85913390D01*
X195778095Y-85913390D02*
X195206667Y-86484819D01*
X195206667Y-86484819D02*
X195825714Y-86484819D01*
X193688095Y-70292438D02*
X193592857Y-70244819D01*
X193592857Y-70244819D02*
X193450000Y-70244819D01*
X193450000Y-70244819D02*
X193307143Y-70292438D01*
X193307143Y-70292438D02*
X193211905Y-70387676D01*
X193211905Y-70387676D02*
X193164286Y-70482914D01*
X193164286Y-70482914D02*
X193116667Y-70673390D01*
X193116667Y-70673390D02*
X193116667Y-70816247D01*
X193116667Y-70816247D02*
X193164286Y-71006723D01*
X193164286Y-71006723D02*
X193211905Y-71101961D01*
X193211905Y-71101961D02*
X193307143Y-71197200D01*
X193307143Y-71197200D02*
X193450000Y-71244819D01*
X193450000Y-71244819D02*
X193545238Y-71244819D01*
X193545238Y-71244819D02*
X193688095Y-71197200D01*
X193688095Y-71197200D02*
X193735714Y-71149580D01*
X193735714Y-71149580D02*
X193735714Y-70816247D01*
X193735714Y-70816247D02*
X193545238Y-70816247D01*
X194164286Y-71244819D02*
X194164286Y-70244819D01*
X194164286Y-70244819D02*
X194735714Y-71244819D01*
X194735714Y-71244819D02*
X194735714Y-70244819D01*
X195211905Y-71244819D02*
X195211905Y-70244819D01*
X195211905Y-70244819D02*
X195450000Y-70244819D01*
X195450000Y-70244819D02*
X195592857Y-70292438D01*
X195592857Y-70292438D02*
X195688095Y-70387676D01*
X195688095Y-70387676D02*
X195735714Y-70482914D01*
X195735714Y-70482914D02*
X195783333Y-70673390D01*
X195783333Y-70673390D02*
X195783333Y-70816247D01*
X195783333Y-70816247D02*
X195735714Y-71006723D01*
X195735714Y-71006723D02*
X195688095Y-71101961D01*
X195688095Y-71101961D02*
X195592857Y-71197200D01*
X195592857Y-71197200D02*
X195450000Y-71244819D01*
X195450000Y-71244819D02*
X195211905Y-71244819D01*
X190793333Y-76229580D02*
X190745714Y-76277200D01*
X190745714Y-76277200D02*
X190602857Y-76324819D01*
X190602857Y-76324819D02*
X190507619Y-76324819D01*
X190507619Y-76324819D02*
X190364762Y-76277200D01*
X190364762Y-76277200D02*
X190269524Y-76181961D01*
X190269524Y-76181961D02*
X190221905Y-76086723D01*
X190221905Y-76086723D02*
X190174286Y-75896247D01*
X190174286Y-75896247D02*
X190174286Y-75753390D01*
X190174286Y-75753390D02*
X190221905Y-75562914D01*
X190221905Y-75562914D02*
X190269524Y-75467676D01*
X190269524Y-75467676D02*
X190364762Y-75372438D01*
X190364762Y-75372438D02*
X190507619Y-75324819D01*
X190507619Y-75324819D02*
X190602857Y-75324819D01*
X190602857Y-75324819D02*
X190745714Y-75372438D01*
X190745714Y-75372438D02*
X190793333Y-75420057D01*
X191745714Y-76324819D02*
X191174286Y-76324819D01*
X191460000Y-76324819D02*
X191460000Y-75324819D01*
X191460000Y-75324819D02*
X191364762Y-75467676D01*
X191364762Y-75467676D02*
X191269524Y-75562914D01*
X191269524Y-75562914D02*
X191174286Y-75610533D01*
X194301905Y-91564819D02*
X194301905Y-90564819D01*
X194301905Y-90564819D02*
X194682857Y-90564819D01*
X194682857Y-90564819D02*
X194778095Y-90612438D01*
X194778095Y-90612438D02*
X194825714Y-90660057D01*
X194825714Y-90660057D02*
X194873333Y-90755295D01*
X194873333Y-90755295D02*
X194873333Y-90898152D01*
X194873333Y-90898152D02*
X194825714Y-90993390D01*
X194825714Y-90993390D02*
X194778095Y-91041009D01*
X194778095Y-91041009D02*
X194682857Y-91088628D01*
X194682857Y-91088628D02*
X194301905Y-91088628D01*
X195349524Y-91564819D02*
X195540000Y-91564819D01*
X195540000Y-91564819D02*
X195635238Y-91517200D01*
X195635238Y-91517200D02*
X195682857Y-91469580D01*
X195682857Y-91469580D02*
X195778095Y-91326723D01*
X195778095Y-91326723D02*
X195825714Y-91136247D01*
X195825714Y-91136247D02*
X195825714Y-90755295D01*
X195825714Y-90755295D02*
X195778095Y-90660057D01*
X195778095Y-90660057D02*
X195730476Y-90612438D01*
X195730476Y-90612438D02*
X195635238Y-90564819D01*
X195635238Y-90564819D02*
X195444762Y-90564819D01*
X195444762Y-90564819D02*
X195349524Y-90612438D01*
X195349524Y-90612438D02*
X195301905Y-90660057D01*
X195301905Y-90660057D02*
X195254286Y-90755295D01*
X195254286Y-90755295D02*
X195254286Y-90993390D01*
X195254286Y-90993390D02*
X195301905Y-91088628D01*
X195301905Y-91088628D02*
X195349524Y-91136247D01*
X195349524Y-91136247D02*
X195444762Y-91183866D01*
X195444762Y-91183866D02*
X195635238Y-91183866D01*
X195635238Y-91183866D02*
X195730476Y-91136247D01*
X195730476Y-91136247D02*
X195778095Y-91088628D01*
X195778095Y-91088628D02*
X195825714Y-90993390D01*
X201247619Y-103079819D02*
X201438095Y-103079819D01*
X201438095Y-103079819D02*
X201533333Y-103127438D01*
X201533333Y-103127438D02*
X201628571Y-103222676D01*
X201628571Y-103222676D02*
X201676190Y-103413152D01*
X201676190Y-103413152D02*
X201676190Y-103746485D01*
X201676190Y-103746485D02*
X201628571Y-103936961D01*
X201628571Y-103936961D02*
X201533333Y-104032200D01*
X201533333Y-104032200D02*
X201438095Y-104079819D01*
X201438095Y-104079819D02*
X201247619Y-104079819D01*
X201247619Y-104079819D02*
X201152381Y-104032200D01*
X201152381Y-104032200D02*
X201057143Y-103936961D01*
X201057143Y-103936961D02*
X201009524Y-103746485D01*
X201009524Y-103746485D02*
X201009524Y-103413152D01*
X201009524Y-103413152D02*
X201057143Y-103222676D01*
X201057143Y-103222676D02*
X201152381Y-103127438D01*
X201152381Y-103127438D02*
X201247619Y-103079819D01*
X202438095Y-103556009D02*
X202104762Y-103556009D01*
X202104762Y-104079819D02*
X202104762Y-103079819D01*
X202104762Y-103079819D02*
X202580952Y-103079819D01*
X203295238Y-103556009D02*
X202961905Y-103556009D01*
X202961905Y-104079819D02*
X202961905Y-103079819D01*
X202961905Y-103079819D02*
X203438095Y-103079819D01*
X201580952Y-93079819D02*
X201771428Y-93079819D01*
X201771428Y-93079819D02*
X201866666Y-93127438D01*
X201866666Y-93127438D02*
X201961904Y-93222676D01*
X201961904Y-93222676D02*
X202009523Y-93413152D01*
X202009523Y-93413152D02*
X202009523Y-93746485D01*
X202009523Y-93746485D02*
X201961904Y-93936961D01*
X201961904Y-93936961D02*
X201866666Y-94032200D01*
X201866666Y-94032200D02*
X201771428Y-94079819D01*
X201771428Y-94079819D02*
X201580952Y-94079819D01*
X201580952Y-94079819D02*
X201485714Y-94032200D01*
X201485714Y-94032200D02*
X201390476Y-93936961D01*
X201390476Y-93936961D02*
X201342857Y-93746485D01*
X201342857Y-93746485D02*
X201342857Y-93413152D01*
X201342857Y-93413152D02*
X201390476Y-93222676D01*
X201390476Y-93222676D02*
X201485714Y-93127438D01*
X201485714Y-93127438D02*
X201580952Y-93079819D01*
X202438095Y-94079819D02*
X202438095Y-93079819D01*
X202438095Y-93079819D02*
X203009523Y-94079819D01*
X203009523Y-94079819D02*
X203009523Y-93079819D01*
%TO.C,B1*%
X200150000Y-106625000D02*
X200400000Y-106625000D01*
X200150000Y-112625000D02*
X200150000Y-106625000D01*
X200150000Y-112625000D02*
X200400000Y-112625000D01*
X203650000Y-106625000D02*
X203400000Y-106625000D01*
X203650000Y-112625000D02*
X203400000Y-112625000D01*
X203650000Y-112625000D02*
X203650000Y-106625000D01*
D11*
%TO.C,D27*%
X135750000Y-64225000D02*
X136350000Y-64625000D01*
X135750000Y-64625000D02*
X135250000Y-64625000D01*
X135750000Y-65025000D02*
X135750000Y-64225000D01*
X136350000Y-64625000D02*
X135750000Y-65025000D01*
X136350000Y-64625000D02*
X136350000Y-64075000D01*
X136350000Y-64625000D02*
X136350000Y-65175000D01*
X136750000Y-64625000D02*
X136350000Y-64625000D01*
D10*
%TO.C,S29*%
X147000000Y-72550000D02*
X151480000Y-72550000D01*
X147000000Y-73150000D02*
X147000000Y-72550000D01*
X147000000Y-77250000D02*
X147000000Y-76750000D01*
X151500000Y-76550000D02*
X151500000Y-77250000D01*
X151500000Y-77250000D02*
X147000000Y-77250000D01*
X152000000Y-71970000D02*
X152000000Y-71050000D01*
X152500000Y-70550000D02*
X152000000Y-71050000D01*
X155500000Y-70550000D02*
X152500000Y-70550000D01*
X155500000Y-75050000D02*
X153200000Y-75050000D01*
X156000000Y-71050000D02*
X155500000Y-70550000D01*
X156000000Y-74550000D02*
X155500000Y-75050000D01*
X151500000Y-76530000D02*
G75*
G02*
X153200000Y-75050001I1589999J-109999D01*
G01*
X151999999Y-71970000D02*
G75*
G02*
X151480000Y-72549999I-549998J-30001D01*
G01*
%TO.C,S25*%
X129000000Y-87425000D02*
X133480000Y-87425000D01*
X129000000Y-88025000D02*
X129000000Y-87425000D01*
X129000000Y-92125000D02*
X129000000Y-91625000D01*
X133500000Y-91425000D02*
X133500000Y-92125000D01*
X133500000Y-92125000D02*
X129000000Y-92125000D01*
X134000000Y-86845000D02*
X134000000Y-85925000D01*
X134500000Y-85425000D02*
X134000000Y-85925000D01*
X137500000Y-85425000D02*
X134500000Y-85425000D01*
X137500000Y-89925000D02*
X135200000Y-89925000D01*
X138000000Y-85925000D02*
X137500000Y-85425000D01*
X138000000Y-89425000D02*
X137500000Y-89925000D01*
X133500000Y-91405000D02*
G75*
G02*
X135200000Y-89925001I1589999J-109999D01*
G01*
X133999999Y-86845000D02*
G75*
G02*
X133480000Y-87424999I-549998J-30001D01*
G01*
D12*
%TO.C,MCU1*%
X184050000Y-61840000D02*
X184050000Y-92440000D01*
X184050000Y-61840000D02*
X186710000Y-61840000D01*
X184050000Y-92440000D02*
X186710000Y-92440000D01*
X186710000Y-61840000D02*
X186710000Y-92440000D01*
X186710000Y-64440000D02*
X184050000Y-64440000D01*
X199290000Y-61840000D02*
X199290000Y-92440000D01*
X199290000Y-61840000D02*
X201950000Y-61840000D01*
X199290000Y-92440000D02*
X201950000Y-92440000D01*
X201950000Y-61840000D02*
X201950000Y-92440000D01*
D11*
%TO.C,D32*%
X171750000Y-85475000D02*
X172350000Y-85875000D01*
X171750000Y-85875000D02*
X171250000Y-85875000D01*
X171750000Y-86275000D02*
X171750000Y-85475000D01*
X172350000Y-85875000D02*
X171750000Y-86275000D01*
X172350000Y-85875000D02*
X172350000Y-85325000D01*
X172350000Y-85875000D02*
X172350000Y-86425000D01*
X172750000Y-85875000D02*
X172350000Y-85875000D01*
%TO.C,D30*%
X153750000Y-66350000D02*
X154350000Y-66750000D01*
X153750000Y-66750000D02*
X153250000Y-66750000D01*
X153750000Y-67150000D02*
X153750000Y-66350000D01*
X154350000Y-66750000D02*
X153750000Y-67150000D01*
X154350000Y-66750000D02*
X154350000Y-66200000D01*
X154350000Y-66750000D02*
X154350000Y-67300000D01*
X154750000Y-66750000D02*
X154350000Y-66750000D01*
D10*
%TO.C,S21*%
X93000000Y-59800000D02*
X97480000Y-59800000D01*
X93000000Y-60400000D02*
X93000000Y-59800000D01*
X93000000Y-64500000D02*
X93000000Y-64000000D01*
X97500000Y-63800000D02*
X97500000Y-64500000D01*
X97500000Y-64500000D02*
X93000000Y-64500000D01*
X98000000Y-59220000D02*
X98000000Y-58300000D01*
X98500000Y-57800000D02*
X98000000Y-58300000D01*
X101500000Y-57800000D02*
X98500000Y-57800000D01*
X101500000Y-62300000D02*
X99200000Y-62300000D01*
X102000000Y-58300000D02*
X101500000Y-57800000D01*
X102000000Y-61800000D02*
X101500000Y-62300000D01*
X97500000Y-63780000D02*
G75*
G02*
X99200000Y-62300001I1589999J-109999D01*
G01*
X97999999Y-59220000D02*
G75*
G02*
X97480000Y-59799999I-549998J-30001D01*
G01*
D11*
%TO.C,D19*%
X99750000Y-104600000D02*
X100350000Y-105000000D01*
X99750000Y-105000000D02*
X99250000Y-105000000D01*
X99750000Y-105400000D02*
X99750000Y-104600000D01*
X100350000Y-105000000D02*
X99750000Y-105400000D01*
X100350000Y-105000000D02*
X100350000Y-104450000D01*
X100350000Y-105000000D02*
X100350000Y-105550000D01*
X100750000Y-105000000D02*
X100350000Y-105000000D01*
%TO.C,D26*%
X135750000Y-81225000D02*
X136350000Y-81625000D01*
X135750000Y-81625000D02*
X135250000Y-81625000D01*
X135750000Y-82025000D02*
X135750000Y-81225000D01*
X136350000Y-81625000D02*
X135750000Y-82025000D01*
X136350000Y-81625000D02*
X136350000Y-81075000D01*
X136350000Y-81625000D02*
X136350000Y-82175000D01*
X136750000Y-81625000D02*
X136350000Y-81625000D01*
D10*
%TO.C,S36*%
X183518722Y-123773462D02*
X183768722Y-123340449D01*
X185568722Y-120222758D02*
X185868722Y-119703142D01*
X185868722Y-119703142D02*
X189748516Y-121943142D01*
X187415836Y-126023462D02*
X183518722Y-123773462D01*
X187765836Y-125417244D02*
X187415836Y-126023462D01*
X190488849Y-121700848D02*
X190948849Y-120904104D01*
X191631862Y-120721092D02*
X190948849Y-120904104D01*
X191979938Y-126118206D02*
X189988080Y-124968206D01*
X192662951Y-125935193D02*
X191979938Y-126118206D01*
X194229938Y-122221092D02*
X191631862Y-120721092D01*
X194412951Y-122904104D02*
X194229938Y-122221092D01*
X187775837Y-125399924D02*
G75*
G02*
X189988080Y-124968206I1321980J-890259D01*
G01*
X190488849Y-121700848D02*
G75*
G02*
X189748516Y-121943142I-491314J249021D01*
G01*
%TO.C,S22*%
X111000000Y-89550000D02*
X115480000Y-89550000D01*
X111000000Y-90150000D02*
X111000000Y-89550000D01*
X111000000Y-94250000D02*
X111000000Y-93750000D01*
X115500000Y-93550000D02*
X115500000Y-94250000D01*
X115500000Y-94250000D02*
X111000000Y-94250000D01*
X116000000Y-88970000D02*
X116000000Y-88050000D01*
X116500000Y-87550000D02*
X116000000Y-88050000D01*
X119500000Y-87550000D02*
X116500000Y-87550000D01*
X119500000Y-92050000D02*
X117200000Y-92050000D01*
X120000000Y-88050000D02*
X119500000Y-87550000D01*
X120000000Y-91550000D02*
X119500000Y-92050000D01*
X115500000Y-93530000D02*
G75*
G02*
X117200000Y-92050001I1589999J-109999D01*
G01*
X115999999Y-88970000D02*
G75*
G02*
X115480000Y-89549999I-549998J-30001D01*
G01*
%TO.C,S31*%
X165000000Y-91675000D02*
X169480000Y-91675000D01*
X165000000Y-92275000D02*
X165000000Y-91675000D01*
X165000000Y-96375000D02*
X165000000Y-95875000D01*
X169500000Y-95675000D02*
X169500000Y-96375000D01*
X169500000Y-96375000D02*
X165000000Y-96375000D01*
X170000000Y-91095000D02*
X170000000Y-90175000D01*
X170500000Y-89675000D02*
X170000000Y-90175000D01*
X173500000Y-89675000D02*
X170500000Y-89675000D01*
X173500000Y-94175000D02*
X171200000Y-94175000D01*
X174000000Y-90175000D02*
X173500000Y-89675000D01*
X174000000Y-93675000D02*
X173500000Y-94175000D01*
X169500000Y-95655000D02*
G75*
G02*
X171200000Y-94175001I1589999J-109999D01*
G01*
X169999999Y-91095000D02*
G75*
G02*
X169480000Y-91674999I-549998J-30001D01*
G01*
D11*
%TO.C,D33*%
X171750000Y-68475000D02*
X172350000Y-68875000D01*
X171750000Y-68875000D02*
X171250000Y-68875000D01*
X171750000Y-69275000D02*
X171750000Y-68475000D01*
X172350000Y-68875000D02*
X171750000Y-69275000D01*
X172350000Y-68875000D02*
X172350000Y-68325000D01*
X172350000Y-68875000D02*
X172350000Y-69425000D01*
X172750000Y-68875000D02*
X172350000Y-68875000D01*
D12*
%TO.C,PWR1*%
X200775000Y-97225000D02*
X200775000Y-97025000D01*
X200775000Y-100225000D02*
X200775000Y-98525000D01*
X201825000Y-102075000D02*
X202615000Y-102075000D01*
X202615000Y-95175000D02*
X201825000Y-95175000D01*
X203625000Y-101475000D02*
X203625000Y-95775000D01*
D10*
%TO.C,S26*%
X129000000Y-70425000D02*
X133480000Y-70425000D01*
X129000000Y-71025000D02*
X129000000Y-70425000D01*
X129000000Y-75125000D02*
X129000000Y-74625000D01*
X133500000Y-74425000D02*
X133500000Y-75125000D01*
X133500000Y-75125000D02*
X129000000Y-75125000D01*
X134000000Y-69845000D02*
X134000000Y-68925000D01*
X134500000Y-68425000D02*
X134000000Y-68925000D01*
X137500000Y-68425000D02*
X134500000Y-68425000D01*
X137500000Y-72925000D02*
X135200000Y-72925000D01*
X138000000Y-68925000D02*
X137500000Y-68425000D01*
X138000000Y-72425000D02*
X137500000Y-72925000D01*
X133500000Y-74405000D02*
G75*
G02*
X135200000Y-72925001I1589999J-109999D01*
G01*
X133999999Y-69845000D02*
G75*
G02*
X133480000Y-70424999I-549998J-30001D01*
G01*
D11*
%TO.C,D20*%
X99750000Y-87600000D02*
X100350000Y-88000000D01*
X99750000Y-88000000D02*
X99250000Y-88000000D01*
X99750000Y-88400000D02*
X99750000Y-87600000D01*
X100350000Y-88000000D02*
X99750000Y-88400000D01*
X100350000Y-88000000D02*
X100350000Y-87450000D01*
X100350000Y-88000000D02*
X100350000Y-88550000D01*
X100750000Y-88000000D02*
X100350000Y-88000000D01*
D10*
%TO.C,S32*%
X165000000Y-74675000D02*
X169480000Y-74675000D01*
X165000000Y-75275000D02*
X165000000Y-74675000D01*
X165000000Y-79375000D02*
X165000000Y-78875000D01*
X169500000Y-78675000D02*
X169500000Y-79375000D01*
X169500000Y-79375000D02*
X165000000Y-79375000D01*
X170000000Y-74095000D02*
X170000000Y-73175000D01*
X170500000Y-72675000D02*
X170000000Y-73175000D01*
X173500000Y-72675000D02*
X170500000Y-72675000D01*
X173500000Y-77175000D02*
X171200000Y-77175000D01*
X174000000Y-73175000D02*
X173500000Y-72675000D01*
X174000000Y-76675000D02*
X173500000Y-77175000D01*
X169500000Y-78655000D02*
G75*
G02*
X171200000Y-77175001I1589999J-109999D01*
G01*
X169999999Y-74095000D02*
G75*
G02*
X169480000Y-74674999I-549998J-30001D01*
G01*
D11*
%TO.C,D21*%
X99750000Y-70600000D02*
X100350000Y-71000000D01*
X99750000Y-71000000D02*
X99250000Y-71000000D01*
X99750000Y-71400000D02*
X99750000Y-70600000D01*
X100350000Y-71000000D02*
X99750000Y-71400000D01*
X100350000Y-71000000D02*
X100350000Y-70450000D01*
X100350000Y-71000000D02*
X100350000Y-71550000D01*
X100750000Y-71000000D02*
X100350000Y-71000000D01*
%TO.C,D31*%
X171750000Y-102475000D02*
X172350000Y-102875000D01*
X171750000Y-102875000D02*
X171250000Y-102875000D01*
X171750000Y-103275000D02*
X171750000Y-102475000D01*
X172350000Y-102875000D02*
X171750000Y-103275000D01*
X172350000Y-102875000D02*
X172350000Y-102325000D01*
X172350000Y-102875000D02*
X172350000Y-103425000D01*
X172750000Y-102875000D02*
X172350000Y-102875000D01*
%TO.C,D36*%
X185914394Y-133124110D02*
X186314394Y-132431290D01*
X186114394Y-132777700D02*
X185681381Y-132527700D01*
X186314394Y-132431290D02*
X186634009Y-133077700D01*
X186634009Y-133077700D02*
X185914394Y-133124110D01*
X186634009Y-133077700D02*
X186359009Y-133554014D01*
X186634009Y-133077700D02*
X186909009Y-132601386D01*
X186980419Y-133277700D02*
X186634009Y-133077700D01*
%TO.C,D28*%
X153750000Y-100350000D02*
X154350000Y-100750000D01*
X153750000Y-100750000D02*
X153250000Y-100750000D01*
X153750000Y-101150000D02*
X153750000Y-100350000D01*
X154350000Y-100750000D02*
X153750000Y-101150000D01*
X154350000Y-100750000D02*
X154350000Y-100200000D01*
X154350000Y-100750000D02*
X154350000Y-101300000D01*
X154750000Y-100750000D02*
X154350000Y-100750000D01*
%TO.C,D29*%
X153750000Y-83350000D02*
X154350000Y-83750000D01*
X153750000Y-83750000D02*
X153250000Y-83750000D01*
X153750000Y-84150000D02*
X153750000Y-83350000D01*
X154350000Y-83750000D02*
X153750000Y-84150000D01*
X154350000Y-83750000D02*
X154350000Y-83200000D01*
X154350000Y-83750000D02*
X154350000Y-84300000D01*
X154750000Y-83750000D02*
X154350000Y-83750000D01*
%TO.C,D35*%
X168654191Y-126045266D02*
X168861246Y-125272525D01*
X168757719Y-125658895D02*
X168274756Y-125529486D01*
X168861246Y-125272525D02*
X169337274Y-125814187D01*
X169337274Y-125814187D02*
X168654191Y-126045266D01*
X169337274Y-125814187D02*
X169194924Y-126345446D01*
X169337274Y-125814187D02*
X169479625Y-125282926D01*
X169723644Y-125917714D02*
X169337274Y-125814187D01*
%TO.C,D23*%
X117750000Y-83350000D02*
X118350000Y-83750000D01*
X117750000Y-83750000D02*
X117250000Y-83750000D01*
X117750000Y-84150000D02*
X117750000Y-83350000D01*
X118350000Y-83750000D02*
X117750000Y-84150000D01*
X118350000Y-83750000D02*
X118350000Y-83200000D01*
X118350000Y-83750000D02*
X118350000Y-84300000D01*
X118750000Y-83750000D02*
X118350000Y-83750000D01*
D10*
%TO.C,S27*%
X129000000Y-53425000D02*
X133480000Y-53425000D01*
X129000000Y-54025000D02*
X129000000Y-53425000D01*
X129000000Y-58125000D02*
X129000000Y-57625000D01*
X133500000Y-57425000D02*
X133500000Y-58125000D01*
X133500000Y-58125000D02*
X129000000Y-58125000D01*
X134000000Y-52845000D02*
X134000000Y-51925000D01*
X134500000Y-51425000D02*
X134000000Y-51925000D01*
X137500000Y-51425000D02*
X134500000Y-51425000D01*
X137500000Y-55925000D02*
X135200000Y-55925000D01*
X138000000Y-51925000D02*
X137500000Y-51425000D01*
X138000000Y-55425000D02*
X137500000Y-55925000D01*
X133500000Y-57405000D02*
G75*
G02*
X135200000Y-55925001I1589999J-109999D01*
G01*
X133999999Y-52845000D02*
G75*
G02*
X133480000Y-53424999I-549998J-30001D01*
G01*
D11*
%TO.C,D22*%
X117750000Y-100350000D02*
X118350000Y-100750000D01*
X117750000Y-100750000D02*
X117250000Y-100750000D01*
X117750000Y-101150000D02*
X117750000Y-100350000D01*
X118350000Y-100750000D02*
X117750000Y-101150000D01*
X118350000Y-100750000D02*
X118350000Y-100200000D01*
X118350000Y-100750000D02*
X118350000Y-101300000D01*
X118750000Y-100750000D02*
X118350000Y-100750000D01*
D10*
%TO.C,S33*%
X165000000Y-57675000D02*
X169480000Y-57675000D01*
X165000000Y-58275000D02*
X165000000Y-57675000D01*
X165000000Y-62375000D02*
X165000000Y-61875000D01*
X169500000Y-61675000D02*
X169500000Y-62375000D01*
X169500000Y-62375000D02*
X165000000Y-62375000D01*
X170000000Y-57095000D02*
X170000000Y-56175000D01*
X170500000Y-55675000D02*
X170000000Y-56175000D01*
X173500000Y-55675000D02*
X170500000Y-55675000D01*
X173500000Y-60175000D02*
X171200000Y-60175000D01*
X174000000Y-56175000D02*
X173500000Y-55675000D01*
X174000000Y-59675000D02*
X173500000Y-60175000D01*
X169500000Y-61655000D02*
G75*
G02*
X171200000Y-60175001I1589999J-109999D01*
G01*
X169999999Y-57095000D02*
G75*
G02*
X169480000Y-57674999I-549998J-30001D01*
G01*
%TO.C,S35*%
X163920048Y-117633378D02*
X164049457Y-117150415D01*
X164981206Y-113673082D02*
X165136497Y-113093528D01*
X165136497Y-113093528D02*
X169463845Y-114253036D01*
X168266714Y-118798064D02*
X163920048Y-117633378D01*
X168447887Y-118121917D02*
X168266714Y-118798064D01*
X170116241Y-113827385D02*
X170354355Y-112938733D01*
X170966727Y-112585180D02*
X170354355Y-112938733D01*
X172699819Y-117708303D02*
X170478190Y-117113019D01*
X173312192Y-117354750D02*
X172699819Y-117708303D01*
X173864505Y-113361637D02*
X170966727Y-112585180D01*
X174218058Y-113974009D02*
X173864505Y-113361637D01*
X168453065Y-118102597D02*
G75*
G02*
X170478190Y-117113020I1507355J-517782D01*
G01*
X170116241Y-113827385D02*
G75*
G02*
X169463845Y-114253036I-539026J113376D01*
G01*
%TO.C,S23*%
X111000000Y-72550000D02*
X115480000Y-72550000D01*
X111000000Y-73150000D02*
X111000000Y-72550000D01*
X111000000Y-77250000D02*
X111000000Y-76750000D01*
X115500000Y-76550000D02*
X115500000Y-77250000D01*
X115500000Y-77250000D02*
X111000000Y-77250000D01*
X116000000Y-71970000D02*
X116000000Y-71050000D01*
X116500000Y-70550000D02*
X116000000Y-71050000D01*
X119500000Y-70550000D02*
X116500000Y-70550000D01*
X119500000Y-75050000D02*
X117200000Y-75050000D01*
X120000000Y-71050000D02*
X119500000Y-70550000D01*
X120000000Y-74550000D02*
X119500000Y-75050000D01*
X115500000Y-76530000D02*
G75*
G02*
X117200000Y-75050001I1589999J-109999D01*
G01*
X115999999Y-71970000D02*
G75*
G02*
X115480000Y-72549999I-549998J-30001D01*
G01*
%TO.C,S24*%
X111000000Y-55550000D02*
X115480000Y-55550000D01*
X111000000Y-56150000D02*
X111000000Y-55550000D01*
X111000000Y-60250000D02*
X111000000Y-59750000D01*
X115500000Y-59550000D02*
X115500000Y-60250000D01*
X115500000Y-60250000D02*
X111000000Y-60250000D01*
X116000000Y-54970000D02*
X116000000Y-54050000D01*
X116500000Y-53550000D02*
X116000000Y-54050000D01*
X119500000Y-53550000D02*
X116500000Y-53550000D01*
X119500000Y-58050000D02*
X117200000Y-58050000D01*
X120000000Y-54050000D02*
X119500000Y-53550000D01*
X120000000Y-57550000D02*
X119500000Y-58050000D01*
X115500000Y-59530000D02*
G75*
G02*
X117200000Y-58050001I1589999J-109999D01*
G01*
X115999999Y-54970000D02*
G75*
G02*
X115480000Y-55549999I-549998J-30001D01*
G01*
%TO.C,S34*%
X143400000Y-112075000D02*
X147880000Y-112075000D01*
X143400000Y-112675000D02*
X143400000Y-112075000D01*
X143400000Y-116775000D02*
X143400000Y-116275000D01*
X147900000Y-116075000D02*
X147900000Y-116775000D01*
X147900000Y-116775000D02*
X143400000Y-116775000D01*
X148400000Y-111495000D02*
X148400000Y-110575000D01*
X148900000Y-110075000D02*
X148400000Y-110575000D01*
X151900000Y-110075000D02*
X148900000Y-110075000D01*
X151900000Y-114575000D02*
X149600000Y-114575000D01*
X152400000Y-110575000D02*
X151900000Y-110075000D01*
X152400000Y-114075000D02*
X151900000Y-114575000D01*
X147900000Y-116055000D02*
G75*
G02*
X149600000Y-114575001I1589999J-109999D01*
G01*
X148399999Y-111495000D02*
G75*
G02*
X147880000Y-112074999I-549998J-30001D01*
G01*
%TO.C,S30*%
X147000000Y-55550000D02*
X151480000Y-55550000D01*
X147000000Y-56150000D02*
X147000000Y-55550000D01*
X147000000Y-60250000D02*
X147000000Y-59750000D01*
X151500000Y-59550000D02*
X151500000Y-60250000D01*
X151500000Y-60250000D02*
X147000000Y-60250000D01*
X152000000Y-54970000D02*
X152000000Y-54050000D01*
X152500000Y-53550000D02*
X152000000Y-54050000D01*
X155500000Y-53550000D02*
X152500000Y-53550000D01*
X155500000Y-58050000D02*
X153200000Y-58050000D01*
X156000000Y-54050000D02*
X155500000Y-53550000D01*
X156000000Y-57550000D02*
X155500000Y-58050000D01*
X151500000Y-59530000D02*
G75*
G02*
X153200000Y-58050001I1589999J-109999D01*
G01*
X151999999Y-54970000D02*
G75*
G02*
X151480000Y-55549999I-549998J-30001D01*
G01*
%TO.C,S28*%
X147000000Y-89550000D02*
X151480000Y-89550000D01*
X147000000Y-90150000D02*
X147000000Y-89550000D01*
X147000000Y-94250000D02*
X147000000Y-93750000D01*
X151500000Y-93550000D02*
X151500000Y-94250000D01*
X151500000Y-94250000D02*
X147000000Y-94250000D01*
X152000000Y-88970000D02*
X152000000Y-88050000D01*
X152500000Y-87550000D02*
X152000000Y-88050000D01*
X155500000Y-87550000D02*
X152500000Y-87550000D01*
X155500000Y-92050000D02*
X153200000Y-92050000D01*
X156000000Y-88050000D02*
X155500000Y-87550000D01*
X156000000Y-91550000D02*
X155500000Y-92050000D01*
X151500000Y-93530000D02*
G75*
G02*
X153200000Y-92050001I1589999J-109999D01*
G01*
X151999999Y-88970000D02*
G75*
G02*
X151480000Y-89549999I-549998J-30001D01*
G01*
D11*
%TO.C,D24*%
X117750000Y-66350000D02*
X118350000Y-66750000D01*
X117750000Y-66750000D02*
X117250000Y-66750000D01*
X117750000Y-67150000D02*
X117750000Y-66350000D01*
X118350000Y-66750000D02*
X117750000Y-67150000D01*
X118350000Y-66750000D02*
X118350000Y-66200000D01*
X118350000Y-66750000D02*
X118350000Y-67300000D01*
X118750000Y-66750000D02*
X118350000Y-66750000D01*
D12*
%TO.C,JST1*%
X191540000Y-102690000D02*
X192540000Y-102690000D01*
X191540000Y-103610000D02*
X191540000Y-102690000D01*
X191540000Y-107810000D02*
X191540000Y-108810000D01*
X191540000Y-108810000D02*
X192540000Y-108810000D01*
X199360000Y-102690000D02*
X198360000Y-102690000D01*
X199360000Y-103610000D02*
X199360000Y-102690000D01*
X199360000Y-107890000D02*
X199360000Y-108810000D01*
X199360000Y-108810000D02*
X198360000Y-108810000D01*
D11*
X199900000Y-104750000D02*
X200900000Y-104750000D01*
X200400000Y-104250000D02*
X200400000Y-105250000D01*
X200400000Y-107250000D02*
X200400000Y-106250000D01*
D10*
%TO.C,S20*%
X93000000Y-76800000D02*
X97480000Y-76800000D01*
X93000000Y-77400000D02*
X93000000Y-76800000D01*
X93000000Y-81500000D02*
X93000000Y-81000000D01*
X97500000Y-80800000D02*
X97500000Y-81500000D01*
X97500000Y-81500000D02*
X93000000Y-81500000D01*
X98000000Y-76220000D02*
X98000000Y-75300000D01*
X98500000Y-74800000D02*
X98000000Y-75300000D01*
X101500000Y-74800000D02*
X98500000Y-74800000D01*
X101500000Y-79300000D02*
X99200000Y-79300000D01*
X102000000Y-75300000D02*
X101500000Y-74800000D01*
X102000000Y-78800000D02*
X101500000Y-79300000D01*
X97500000Y-80780000D02*
G75*
G02*
X99200000Y-79300001I1589999J-109999D01*
G01*
X97999999Y-76220000D02*
G75*
G02*
X97480000Y-76799999I-549998J-30001D01*
G01*
%TO.C,S19*%
X93000000Y-93800000D02*
X97480000Y-93800000D01*
X93000000Y-94400000D02*
X93000000Y-93800000D01*
X93000000Y-98500000D02*
X93000000Y-98000000D01*
X97500000Y-97800000D02*
X97500000Y-98500000D01*
X97500000Y-98500000D02*
X93000000Y-98500000D01*
X98000000Y-93220000D02*
X98000000Y-92300000D01*
X98500000Y-91800000D02*
X98000000Y-92300000D01*
X101500000Y-91800000D02*
X98500000Y-91800000D01*
X101500000Y-96300000D02*
X99200000Y-96300000D01*
X102000000Y-92300000D02*
X101500000Y-91800000D01*
X102000000Y-95800000D02*
X101500000Y-96300000D01*
X97500000Y-97780000D02*
G75*
G02*
X99200000Y-96300001I1589999J-109999D01*
G01*
X97999999Y-93220000D02*
G75*
G02*
X97480000Y-93799999I-549998J-30001D01*
G01*
D11*
%TO.C,D34*%
X150150000Y-122875000D02*
X150750000Y-123275000D01*
X150150000Y-123275000D02*
X149650000Y-123275000D01*
X150150000Y-123675000D02*
X150150000Y-122875000D01*
X150750000Y-123275000D02*
X150150000Y-123675000D01*
X150750000Y-123275000D02*
X150750000Y-122725000D01*
X150750000Y-123275000D02*
X150750000Y-123825000D01*
X151150000Y-123275000D02*
X150750000Y-123275000D01*
D12*
%TO.C,DISP1*%
X187860000Y-96870000D02*
X187860000Y-99530000D01*
X198140000Y-96870000D02*
X187860000Y-96870000D01*
X198140000Y-96870000D02*
X198140000Y-99530000D01*
X198140000Y-99530000D02*
X187860000Y-99530000D01*
D11*
%TO.C,D25*%
X135750000Y-98225000D02*
X136350000Y-98625000D01*
X135750000Y-98625000D02*
X135250000Y-98625000D01*
X135750000Y-99025000D02*
X135750000Y-98225000D01*
X136350000Y-98625000D02*
X135750000Y-99025000D01*
X136350000Y-98625000D02*
X136350000Y-98075000D01*
X136350000Y-98625000D02*
X136350000Y-99175000D01*
X136750000Y-98625000D02*
X136350000Y-98625000D01*
%TD*%
D13*
%TO.C,B1*%
X201900000Y-106375000D03*
X201900000Y-112875000D03*
%TD*%
%LPC*%
D14*
%TO.C,B1*%
X201900000Y-106375000D03*
X201900000Y-112875000D03*
%TD*%
D15*
%TO.C,D27*%
X137650000Y-64625000D03*
X134350000Y-64625000D03*
%TD*%
D16*
%TO.C,MH4*%
X109000000Y-87250000D03*
%TD*%
D13*
%TO.C,S29*%
X148500000Y-78750000D03*
D17*
X149000000Y-75000000D03*
X154000000Y-72800000D03*
D18*
X154000000Y-78750000D03*
D13*
X159500000Y-78750000D03*
D19*
X157275000Y-72800000D03*
X145725000Y-75000000D03*
%TD*%
D13*
%TO.C,S25*%
X130500000Y-93625000D03*
D17*
X131000000Y-89875000D03*
X136000000Y-87675000D03*
D18*
X136000000Y-93625000D03*
D13*
X141500000Y-93625000D03*
D19*
X139275000Y-87675000D03*
X127725000Y-89875000D03*
%TD*%
D20*
%TO.C,MCU1*%
X200620000Y-63170000D03*
X200620000Y-65710000D03*
X200620000Y-68250000D03*
X200620000Y-70790000D03*
X200620000Y-73330000D03*
X200620000Y-75870000D03*
X200620000Y-78410000D03*
X200620000Y-80950000D03*
X200620000Y-83490000D03*
X200620000Y-86030000D03*
X200620000Y-88570000D03*
X200620000Y-91110000D03*
X185380000Y-91110000D03*
D21*
X187520000Y-91110000D03*
X198480000Y-91110000D03*
D20*
X185380000Y-88570000D03*
D21*
X187520000Y-88570000D03*
X198480000Y-88570000D03*
D20*
X185380000Y-86030000D03*
D21*
X187520000Y-86030000D03*
X198480000Y-86030000D03*
D20*
X185380000Y-83490000D03*
D21*
X187520000Y-83490000D03*
X198480000Y-83490000D03*
D20*
X185380000Y-80950000D03*
D21*
X187520000Y-80950000D03*
X198480000Y-80950000D03*
D20*
X185380000Y-78410000D03*
D21*
X187520000Y-78410000D03*
X198480000Y-78410000D03*
D20*
X185380000Y-75870000D03*
D21*
X187520000Y-75870000D03*
X198480000Y-75870000D03*
D20*
X185380000Y-73330000D03*
D21*
X187520000Y-73330000D03*
X198480000Y-73330000D03*
D20*
X185380000Y-70790000D03*
D21*
X187520000Y-70790000D03*
X198480000Y-70790000D03*
D20*
X185380000Y-68250000D03*
D21*
X187520000Y-68250000D03*
X198480000Y-68250000D03*
D20*
X185380000Y-65710000D03*
D21*
X187520000Y-65710000D03*
X198480000Y-65710000D03*
D20*
X185380000Y-63170000D03*
D21*
X187520000Y-63170000D03*
X198480000Y-63170000D03*
D22*
X196400000Y-63170000D03*
D21*
X197580000Y-63170000D03*
D22*
X196400000Y-65710000D03*
D21*
X197580000Y-65710000D03*
D22*
X196400000Y-68250000D03*
D21*
X197580000Y-68250000D03*
D22*
X196400000Y-70790000D03*
D21*
X197580000Y-70790000D03*
D22*
X196400000Y-73330000D03*
D21*
X197580000Y-73330000D03*
D22*
X196400000Y-75870000D03*
D21*
X197580000Y-75870000D03*
D22*
X196400000Y-78410000D03*
D21*
X197580000Y-78410000D03*
D22*
X196400000Y-80950000D03*
D21*
X197580000Y-80950000D03*
D22*
X196400000Y-83490000D03*
D21*
X197580000Y-83490000D03*
D22*
X196400000Y-86030000D03*
D21*
X197580000Y-86030000D03*
D22*
X196400000Y-88570000D03*
D21*
X197580000Y-88570000D03*
D22*
X196400000Y-91110000D03*
D21*
X197580000Y-91110000D03*
X188420000Y-91110000D03*
D22*
X189600000Y-91110000D03*
D21*
X188420000Y-88570000D03*
D22*
X189600000Y-88570000D03*
D21*
X188420000Y-86030000D03*
D22*
X189600000Y-86030000D03*
D21*
X188420000Y-83490000D03*
D22*
X189600000Y-83490000D03*
D21*
X188420000Y-80950000D03*
D22*
X189600000Y-80950000D03*
D21*
X188420000Y-78410000D03*
D22*
X189600000Y-78410000D03*
D21*
X188420000Y-75870000D03*
D22*
X189600000Y-75870000D03*
D21*
X188420000Y-73330000D03*
D22*
X189600000Y-73330000D03*
D21*
X188420000Y-70790000D03*
D22*
X189600000Y-70790000D03*
D21*
X188420000Y-68250000D03*
D22*
X189600000Y-68250000D03*
D21*
X188420000Y-65710000D03*
D22*
X189600000Y-65710000D03*
D21*
X188420000Y-63170000D03*
D22*
X189600000Y-63170000D03*
%TD*%
D15*
%TO.C,D32*%
X173650000Y-85875000D03*
X170350000Y-85875000D03*
%TD*%
%TO.C,D30*%
X155650000Y-66750000D03*
X152350000Y-66750000D03*
%TD*%
D13*
%TO.C,S21*%
X94500000Y-66000000D03*
D17*
X95000000Y-62250000D03*
X100000000Y-60050000D03*
D18*
X100000000Y-66000000D03*
D13*
X105500000Y-66000000D03*
D19*
X103275000Y-60050000D03*
X91725000Y-62250000D03*
%TD*%
D15*
%TO.C,D19*%
X101650000Y-105000000D03*
X98350000Y-105000000D03*
%TD*%
%TO.C,D26*%
X137650000Y-81625000D03*
X134350000Y-81625000D03*
%TD*%
D13*
%TO.C,S36*%
X184067760Y-125822500D03*
D17*
X186375773Y-122824905D03*
X191805900Y-123419649D03*
D18*
X188830900Y-128572500D03*
D13*
X193594040Y-131322500D03*
D23*
X194642133Y-125057149D03*
X183539540Y-121187405D03*
%TD*%
D13*
%TO.C,S22*%
X112500000Y-95750000D03*
D17*
X113000000Y-92000000D03*
X118000000Y-89800000D03*
D18*
X118000000Y-95750000D03*
D13*
X123500000Y-95750000D03*
D19*
X121275000Y-89800000D03*
X109725000Y-92000000D03*
%TD*%
D16*
%TO.C,MH5*%
X163000000Y-70250000D03*
%TD*%
%TO.C,MH6*%
X141400000Y-109775000D03*
%TD*%
D13*
%TO.C,S31*%
X166500000Y-97875000D03*
D17*
X167000000Y-94125000D03*
X172000000Y-91925000D03*
D18*
X172000000Y-97875000D03*
D13*
X177500000Y-97875000D03*
D19*
X175275000Y-91925000D03*
X163725000Y-94125000D03*
%TD*%
D15*
%TO.C,D33*%
X173650000Y-68875000D03*
X170350000Y-68875000D03*
%TD*%
D24*
%TO.C,PWR1*%
X201115000Y-94975000D03*
X201115000Y-102275000D03*
D25*
X202225000Y-97125000D03*
X202225000Y-100125000D03*
D24*
X203325000Y-94975000D03*
X203325000Y-102275000D03*
D26*
X200465000Y-100875000D03*
X200465000Y-97875000D03*
X200465000Y-96375000D03*
%TD*%
D13*
%TO.C,S26*%
X130500000Y-76625000D03*
D17*
X131000000Y-72875000D03*
X136000000Y-70675000D03*
D18*
X136000000Y-76625000D03*
D13*
X141500000Y-76625000D03*
D19*
X139275000Y-70675000D03*
X127725000Y-72875000D03*
%TD*%
D15*
%TO.C,D20*%
X101650000Y-88000000D03*
X98350000Y-88000000D03*
%TD*%
D13*
%TO.C,S32*%
X166500000Y-80875000D03*
D17*
X167000000Y-77125000D03*
X172000000Y-74925000D03*
D18*
X172000000Y-80875000D03*
D13*
X177500000Y-80875000D03*
D19*
X175275000Y-74925000D03*
X163725000Y-77125000D03*
%TD*%
D15*
%TO.C,D21*%
X101650000Y-71000000D03*
X98350000Y-71000000D03*
%TD*%
%TO.C,D31*%
X173650000Y-102875000D03*
X170350000Y-102875000D03*
%TD*%
D27*
%TO.C,D36*%
X187759842Y-133727700D03*
X184901958Y-132077700D03*
%TD*%
D15*
%TO.C,D28*%
X155650000Y-100750000D03*
X152350000Y-100750000D03*
%TD*%
%TO.C,D29*%
X155650000Y-83750000D03*
X152350000Y-83750000D03*
%TD*%
D28*
%TO.C,D35*%
X170592978Y-126150650D03*
X167405422Y-125296550D03*
%TD*%
D15*
%TO.C,D23*%
X119650000Y-83750000D03*
X116350000Y-83750000D03*
%TD*%
D13*
%TO.C,S27*%
X130500000Y-59625000D03*
D17*
X131000000Y-55875000D03*
X136000000Y-53675000D03*
D18*
X136000000Y-59625000D03*
D13*
X141500000Y-59625000D03*
D19*
X139275000Y-53675000D03*
X127725000Y-55875000D03*
%TD*%
D15*
%TO.C,D22*%
X119650000Y-100750000D03*
X116350000Y-100750000D03*
%TD*%
D13*
%TO.C,S33*%
X166500000Y-63875000D03*
D17*
X167000000Y-60125000D03*
X172000000Y-57925000D03*
D18*
X172000000Y-63875000D03*
D13*
X177500000Y-63875000D03*
D19*
X175275000Y-57925000D03*
X163725000Y-60125000D03*
%TD*%
D13*
%TO.C,S35*%
X164980708Y-119470495D03*
D17*
X166434242Y-115977683D03*
X171833273Y-115146741D03*
D18*
X170293300Y-120894000D03*
D13*
X175605892Y-122317505D03*
D29*
X174996680Y-115994374D03*
X163270835Y-115130051D03*
%TD*%
D13*
%TO.C,S23*%
X112500000Y-78750000D03*
D17*
X113000000Y-75000000D03*
X118000000Y-72800000D03*
D18*
X118000000Y-78750000D03*
D13*
X123500000Y-78750000D03*
D19*
X121275000Y-72800000D03*
X109725000Y-75000000D03*
%TD*%
D13*
%TO.C,S24*%
X112500000Y-61750000D03*
D17*
X113000000Y-58000000D03*
X118000000Y-55800000D03*
D18*
X118000000Y-61750000D03*
D13*
X123500000Y-61750000D03*
D19*
X121275000Y-55800000D03*
X109725000Y-58000000D03*
%TD*%
D13*
%TO.C,S34*%
X144900000Y-118275000D03*
D17*
X145400000Y-114525000D03*
X150400000Y-112325000D03*
D18*
X150400000Y-118275000D03*
D13*
X155900000Y-118275000D03*
D19*
X153675000Y-112325000D03*
X142125000Y-114525000D03*
%TD*%
D13*
%TO.C,S30*%
X148500000Y-61750000D03*
D17*
X149000000Y-58000000D03*
X154000000Y-55800000D03*
D18*
X154000000Y-61750000D03*
D13*
X159500000Y-61750000D03*
D19*
X157275000Y-55800000D03*
X145725000Y-58000000D03*
%TD*%
D30*
%TO.C,MH1*%
X185000000Y-107700000D03*
%TD*%
D13*
%TO.C,S28*%
X148500000Y-95750000D03*
D17*
X149000000Y-92000000D03*
X154000000Y-89800000D03*
D18*
X154000000Y-95750000D03*
D13*
X159500000Y-95750000D03*
D19*
X157275000Y-89800000D03*
X145725000Y-92000000D03*
%TD*%
D15*
%TO.C,D24*%
X119650000Y-66750000D03*
X116350000Y-66750000D03*
%TD*%
D31*
%TO.C,JST1*%
X195816000Y-106750000D03*
X195816000Y-104750000D03*
D32*
X193000000Y-106750000D03*
X193000000Y-104750000D03*
D33*
X194800000Y-106750000D03*
X194800000Y-104750000D03*
%TD*%
D13*
%TO.C,S20*%
X94500000Y-83000000D03*
D17*
X95000000Y-79250000D03*
X100000000Y-77050000D03*
D18*
X100000000Y-83000000D03*
D13*
X105500000Y-83000000D03*
D19*
X103275000Y-77050000D03*
X91725000Y-79250000D03*
%TD*%
D30*
%TO.C,MH2*%
X201000000Y-116600000D03*
%TD*%
D13*
%TO.C,S19*%
X94500000Y-100000000D03*
D17*
X95000000Y-96250000D03*
X100000000Y-94050000D03*
D18*
X100000000Y-100000000D03*
D13*
X105500000Y-100000000D03*
D19*
X103275000Y-94050000D03*
X91725000Y-96250000D03*
%TD*%
D15*
%TO.C,D34*%
X152050000Y-123275000D03*
X148750000Y-123275000D03*
%TD*%
D34*
%TO.C,DISP1*%
X189190000Y-98200000D03*
X191730000Y-98200000D03*
X194270000Y-98200000D03*
X196810000Y-98200000D03*
D35*
X189190000Y-100850000D03*
X191730000Y-100850000D03*
X194270000Y-100850000D03*
X196810000Y-100850000D03*
X189190000Y-99950000D03*
X191730000Y-99950000D03*
X194270000Y-99950000D03*
X196810000Y-99950000D03*
%TD*%
D16*
%TO.C,MH3*%
X109000000Y-70250000D03*
%TD*%
%TO.C,MH7*%
X181186600Y-115013000D03*
%TD*%
D15*
%TO.C,D25*%
X137650000Y-98625000D03*
X134350000Y-98625000D03*
%TD*%
D13*
%TO.C,S2*%
X94500000Y-83000000D03*
D17*
X100000000Y-77050000D03*
D18*
X100000000Y-83000000D03*
D17*
X105000000Y-79250000D03*
D13*
X105500000Y-83000000D03*
%TD*%
%TO.C,S13*%
X166500000Y-97875000D03*
D17*
X172000000Y-91925000D03*
D18*
X172000000Y-97875000D03*
D17*
X177000000Y-94125000D03*
D13*
X177500000Y-97875000D03*
%TD*%
%TO.C,S14*%
X166500000Y-80875000D03*
D17*
X172000000Y-74925000D03*
D18*
X172000000Y-80875000D03*
D17*
X177000000Y-77125000D03*
D13*
X177500000Y-80875000D03*
%TD*%
%TO.C,S11*%
X148500000Y-78750000D03*
D17*
X154000000Y-72800000D03*
D18*
X154000000Y-78750000D03*
D17*
X159000000Y-75000000D03*
D13*
X159500000Y-78750000D03*
%TD*%
%TO.C,S6*%
X112500000Y-61750000D03*
D17*
X118000000Y-55800000D03*
D18*
X118000000Y-61750000D03*
D17*
X123000000Y-58000000D03*
D13*
X123500000Y-61750000D03*
%TD*%
%TO.C,S16*%
X144900000Y-118275000D03*
D17*
X150400000Y-112325000D03*
D18*
X150400000Y-118275000D03*
D17*
X155400000Y-114525000D03*
D13*
X155900000Y-118275000D03*
%TD*%
%TO.C,S18*%
X184067760Y-125822500D03*
D17*
X191805900Y-123419649D03*
D18*
X188830900Y-128572500D03*
D17*
X195036027Y-127824905D03*
D13*
X193594040Y-131322500D03*
%TD*%
%TO.C,S10*%
X148500000Y-95750000D03*
D17*
X154000000Y-89800000D03*
D18*
X154000000Y-95750000D03*
D17*
X159000000Y-92000000D03*
D13*
X159500000Y-95750000D03*
%TD*%
%TO.C,S9*%
X130500000Y-59625000D03*
D17*
X136000000Y-53675000D03*
D18*
X136000000Y-59625000D03*
D17*
X141000000Y-55875000D03*
D13*
X141500000Y-59625000D03*
%TD*%
%TO.C,S8*%
X130500000Y-76625000D03*
D17*
X136000000Y-70675000D03*
D18*
X136000000Y-76625000D03*
D17*
X141000000Y-72875000D03*
D13*
X141500000Y-76625000D03*
%TD*%
%TO.C,S15*%
X166500000Y-63875000D03*
D17*
X172000000Y-57925000D03*
D18*
X172000000Y-63875000D03*
D17*
X177000000Y-60125000D03*
D13*
X177500000Y-63875000D03*
%TD*%
%TO.C,S3*%
X94500000Y-66000000D03*
D17*
X100000000Y-60050000D03*
D18*
X100000000Y-66000000D03*
D17*
X105000000Y-62250000D03*
D13*
X105500000Y-66000000D03*
%TD*%
%TO.C,S12*%
X148500000Y-61750000D03*
D17*
X154000000Y-55800000D03*
D18*
X154000000Y-61750000D03*
D17*
X159000000Y-58000000D03*
D13*
X159500000Y-61750000D03*
%TD*%
%TO.C,S4*%
X112500000Y-95750000D03*
D17*
X118000000Y-89800000D03*
D18*
X118000000Y-95750000D03*
D17*
X123000000Y-92000000D03*
D13*
X123500000Y-95750000D03*
%TD*%
%TO.C,S5*%
X112500000Y-78750000D03*
D17*
X118000000Y-72800000D03*
D18*
X118000000Y-78750000D03*
D17*
X123000000Y-75000000D03*
D13*
X123500000Y-78750000D03*
%TD*%
%TO.C,S1*%
X94500000Y-100000000D03*
D17*
X100000000Y-94050000D03*
D18*
X100000000Y-100000000D03*
D17*
X105000000Y-96250000D03*
D13*
X105500000Y-100000000D03*
%TD*%
%TO.C,S7*%
X130500000Y-93625000D03*
D17*
X136000000Y-87675000D03*
D18*
X136000000Y-93625000D03*
D17*
X141000000Y-89875000D03*
D13*
X141500000Y-93625000D03*
%TD*%
%TO.C,S17*%
X164980708Y-119470495D03*
D17*
X171833273Y-115146741D03*
D18*
X170293300Y-120894000D03*
D17*
X176093501Y-118565873D03*
D13*
X175605892Y-122317505D03*
%TD*%
%LPD*%
M02*
