%TF.GenerationSoftware,KiCad,Pcbnew,8.0.1*%
%TF.CreationDate,2024-12-01T01:33:27+09:00*%
%TF.ProjectId,corney_island_wireless_autorouted,636f726e-6579-45f6-9973-6c616e645f77,0.2*%
%TF.SameCoordinates,Original*%
%TF.FileFunction,Legend,Bot*%
%TF.FilePolarity,Positive*%
%FSLAX46Y46*%
G04 Gerber Fmt 4.6, Leading zero omitted, Abs format (unit mm)*
G04 Created by KiCad (PCBNEW 8.0.1) date 2024-12-01 01:33:27*
%MOMM*%
%LPD*%
G01*
G04 APERTURE LIST*
G04 Aperture macros list*
%AMRoundRect*
0 Rectangle with rounded corners*
0 $1 Rounding radius*
0 $2 $3 $4 $5 $6 $7 $8 $9 X,Y pos of 4 corners*
0 Add a 4 corners polygon primitive as box body*
4,1,4,$2,$3,$4,$5,$6,$7,$8,$9,$2,$3,0*
0 Add four circle primitives for the rounded corners*
1,1,$1+$1,$2,$3*
1,1,$1+$1,$4,$5*
1,1,$1+$1,$6,$7*
1,1,$1+$1,$8,$9*
0 Add four rect primitives between the rounded corners*
20,1,$1+$1,$2,$3,$4,$5,0*
20,1,$1+$1,$4,$5,$6,$7,0*
20,1,$1+$1,$6,$7,$8,$9,0*
20,1,$1+$1,$8,$9,$2,$3,0*%
%AMFreePoly0*
4,1,16,0.635355,0.285355,0.650000,0.250000,0.650000,-1.000000,0.635355,-1.035355,0.600000,-1.050000,0.564645,-1.035355,0.000000,-0.470710,-0.564645,-1.035355,-0.600000,-1.050000,-0.635355,-1.035355,-0.650000,-1.000000,-0.650000,0.250000,-0.635355,0.285355,-0.600000,0.300000,0.600000,0.300000,0.635355,0.285355,0.635355,0.285355,$1*%
%AMFreePoly1*
4,1,14,0.035355,0.435355,0.635355,-0.164645,0.650000,-0.200000,0.650000,-0.400000,0.635355,-0.435355,0.600000,-0.450000,-0.600000,-0.450000,-0.635355,-0.435355,-0.650000,-0.400000,-0.650000,-0.200000,-0.635355,-0.164645,-0.035355,0.435355,0.000000,0.450000,0.035355,0.435355,0.035355,0.435355,$1*%
G04 Aperture macros list end*
%ADD10C,0.150000*%
%ADD11C,0.120000*%
%ADD12C,0.100000*%
%ADD13C,2.100000*%
%ADD14C,4.400000*%
%ADD15C,2.000000*%
%ADD16C,3.100000*%
%ADD17C,3.500000*%
%ADD18C,1.800000*%
%ADD19RoundRect,0.050000X-0.300000X-0.600000X0.300000X-0.600000X0.300000X0.600000X-0.300000X0.600000X0*%
%ADD20C,0.900000*%
%ADD21RoundRect,0.050000X-0.400000X0.500000X-0.400000X-0.500000X0.400000X-0.500000X0.400000X0.500000X0*%
%ADD22C,1.000000*%
%ADD23RoundRect,0.050000X-0.750000X0.350000X-0.750000X-0.350000X0.750000X-0.350000X0.750000X0.350000X0*%
%ADD24C,2.300000*%
%ADD25FreePoly0,270.000000*%
%ADD26O,1.850000X1.300000*%
%ADD27FreePoly1,270.000000*%
%ADD28O,1.800000X1.800000*%
%ADD29RoundRect,0.050000X-0.600000X0.300000X-0.600000X-0.300000X0.600000X-0.300000X0.600000X0.300000X0*%
%ADD30RoundRect,0.050000X0.689711X0.294615X-0.089711X0.744615X-0.689711X-0.294615X0.089711X-0.744615X0*%
%ADD31RoundRect,0.050000X-1.300000X-1.300000X1.300000X-1.300000X1.300000X1.300000X-1.300000X1.300000X0*%
%ADD32RoundRect,0.050000X0.450000X0.600000X-0.450000X0.600000X-0.450000X-0.600000X0.450000X-0.600000X0*%
%ADD33RoundRect,0.050000X-1.775833X-0.475833X0.475833X-1.775833X1.775833X0.475833X-0.475833X1.775833X0*%
%ADD34RoundRect,0.050000X0.589958X0.463087X-0.279375X0.696024X-0.589958X-0.463087X0.279375X-0.696024X0*%
%ADD35RoundRect,0.050000X-1.592168X-0.919239X0.919239X-1.592168X1.592168X0.919239X-0.919239X1.592168X0*%
G04 APERTURE END LIST*
D10*
X122619048Y-106254819D02*
X122619048Y-106969104D01*
X122619048Y-106969104D02*
X122666667Y-107111961D01*
X122666667Y-107111961D02*
X122761905Y-107207200D01*
X122761905Y-107207200D02*
X122904762Y-107254819D01*
X122904762Y-107254819D02*
X123000000Y-107254819D01*
X121666667Y-107254819D02*
X122142857Y-107254819D01*
X122142857Y-107254819D02*
X122142857Y-106254819D01*
X120761905Y-107159580D02*
X120809524Y-107207200D01*
X120809524Y-107207200D02*
X120952381Y-107254819D01*
X120952381Y-107254819D02*
X121047619Y-107254819D01*
X121047619Y-107254819D02*
X121190476Y-107207200D01*
X121190476Y-107207200D02*
X121285714Y-107111961D01*
X121285714Y-107111961D02*
X121333333Y-107016723D01*
X121333333Y-107016723D02*
X121380952Y-106826247D01*
X121380952Y-106826247D02*
X121380952Y-106683390D01*
X121380952Y-106683390D02*
X121333333Y-106492914D01*
X121333333Y-106492914D02*
X121285714Y-106397676D01*
X121285714Y-106397676D02*
X121190476Y-106302438D01*
X121190476Y-106302438D02*
X121047619Y-106254819D01*
X121047619Y-106254819D02*
X120952381Y-106254819D01*
X120952381Y-106254819D02*
X120809524Y-106302438D01*
X120809524Y-106302438D02*
X120761905Y-106350057D01*
X120047619Y-106254819D02*
X120047619Y-106969104D01*
X120047619Y-106969104D02*
X120095238Y-107111961D01*
X120095238Y-107111961D02*
X120190476Y-107207200D01*
X120190476Y-107207200D02*
X120333333Y-107254819D01*
X120333333Y-107254819D02*
X120428571Y-107254819D01*
X119095238Y-107254819D02*
X119571428Y-107254819D01*
X119571428Y-107254819D02*
X119571428Y-106254819D01*
X118190476Y-107159580D02*
X118238095Y-107207200D01*
X118238095Y-107207200D02*
X118380952Y-107254819D01*
X118380952Y-107254819D02*
X118476190Y-107254819D01*
X118476190Y-107254819D02*
X118619047Y-107207200D01*
X118619047Y-107207200D02*
X118714285Y-107111961D01*
X118714285Y-107111961D02*
X118761904Y-107016723D01*
X118761904Y-107016723D02*
X118809523Y-106826247D01*
X118809523Y-106826247D02*
X118809523Y-106683390D01*
X118809523Y-106683390D02*
X118761904Y-106492914D01*
X118761904Y-106492914D02*
X118714285Y-106397676D01*
X118714285Y-106397676D02*
X118619047Y-106302438D01*
X118619047Y-106302438D02*
X118476190Y-106254819D01*
X118476190Y-106254819D02*
X118380952Y-106254819D01*
X118380952Y-106254819D02*
X118238095Y-106302438D01*
X118238095Y-106302438D02*
X118190476Y-106350057D01*
X117476190Y-106254819D02*
X117476190Y-106969104D01*
X117476190Y-106969104D02*
X117523809Y-107111961D01*
X117523809Y-107111961D02*
X117619047Y-107207200D01*
X117619047Y-107207200D02*
X117761904Y-107254819D01*
X117761904Y-107254819D02*
X117857142Y-107254819D01*
X116523809Y-107254819D02*
X116999999Y-107254819D01*
X116999999Y-107254819D02*
X116999999Y-106254819D01*
X115619047Y-107159580D02*
X115666666Y-107207200D01*
X115666666Y-107207200D02*
X115809523Y-107254819D01*
X115809523Y-107254819D02*
X115904761Y-107254819D01*
X115904761Y-107254819D02*
X116047618Y-107207200D01*
X116047618Y-107207200D02*
X116142856Y-107111961D01*
X116142856Y-107111961D02*
X116190475Y-107016723D01*
X116190475Y-107016723D02*
X116238094Y-106826247D01*
X116238094Y-106826247D02*
X116238094Y-106683390D01*
X116238094Y-106683390D02*
X116190475Y-106492914D01*
X116190475Y-106492914D02*
X116142856Y-106397676D01*
X116142856Y-106397676D02*
X116047618Y-106302438D01*
X116047618Y-106302438D02*
X115904761Y-106254819D01*
X115904761Y-106254819D02*
X115809523Y-106254819D01*
X115809523Y-106254819D02*
X115666666Y-106302438D01*
X115666666Y-106302438D02*
X115619047Y-106350057D01*
X114904761Y-106254819D02*
X114904761Y-106969104D01*
X114904761Y-106969104D02*
X114952380Y-107111961D01*
X114952380Y-107111961D02*
X115047618Y-107207200D01*
X115047618Y-107207200D02*
X115190475Y-107254819D01*
X115190475Y-107254819D02*
X115285713Y-107254819D01*
X113952380Y-107254819D02*
X114428570Y-107254819D01*
X114428570Y-107254819D02*
X114428570Y-106254819D01*
X113047618Y-107159580D02*
X113095237Y-107207200D01*
X113095237Y-107207200D02*
X113238094Y-107254819D01*
X113238094Y-107254819D02*
X113333332Y-107254819D01*
X113333332Y-107254819D02*
X113476189Y-107207200D01*
X113476189Y-107207200D02*
X113571427Y-107111961D01*
X113571427Y-107111961D02*
X113619046Y-107016723D01*
X113619046Y-107016723D02*
X113666665Y-106826247D01*
X113666665Y-106826247D02*
X113666665Y-106683390D01*
X113666665Y-106683390D02*
X113619046Y-106492914D01*
X113619046Y-106492914D02*
X113571427Y-106397676D01*
X113571427Y-106397676D02*
X113476189Y-106302438D01*
X113476189Y-106302438D02*
X113333332Y-106254819D01*
X113333332Y-106254819D02*
X113238094Y-106254819D01*
X113238094Y-106254819D02*
X113095237Y-106302438D01*
X113095237Y-106302438D02*
X113047618Y-106350057D01*
X202354819Y-108045618D02*
X201878628Y-107712285D01*
X202354819Y-107474190D02*
X201354819Y-107474190D01*
X201354819Y-107474190D02*
X201354819Y-107855142D01*
X201354819Y-107855142D02*
X201402438Y-107950380D01*
X201402438Y-107950380D02*
X201450057Y-107997999D01*
X201450057Y-107997999D02*
X201545295Y-108045618D01*
X201545295Y-108045618D02*
X201688152Y-108045618D01*
X201688152Y-108045618D02*
X201783390Y-107997999D01*
X201783390Y-107997999D02*
X201831009Y-107950380D01*
X201831009Y-107950380D02*
X201878628Y-107855142D01*
X201878628Y-107855142D02*
X201878628Y-107474190D01*
X201831009Y-108474190D02*
X201831009Y-108807523D01*
X202354819Y-108950380D02*
X202354819Y-108474190D01*
X202354819Y-108474190D02*
X201354819Y-108474190D01*
X201354819Y-108474190D02*
X201354819Y-108950380D01*
X202307200Y-109331333D02*
X202354819Y-109474190D01*
X202354819Y-109474190D02*
X202354819Y-109712285D01*
X202354819Y-109712285D02*
X202307200Y-109807523D01*
X202307200Y-109807523D02*
X202259580Y-109855142D01*
X202259580Y-109855142D02*
X202164342Y-109902761D01*
X202164342Y-109902761D02*
X202069104Y-109902761D01*
X202069104Y-109902761D02*
X201973866Y-109855142D01*
X201973866Y-109855142D02*
X201926247Y-109807523D01*
X201926247Y-109807523D02*
X201878628Y-109712285D01*
X201878628Y-109712285D02*
X201831009Y-109521809D01*
X201831009Y-109521809D02*
X201783390Y-109426571D01*
X201783390Y-109426571D02*
X201735771Y-109378952D01*
X201735771Y-109378952D02*
X201640533Y-109331333D01*
X201640533Y-109331333D02*
X201545295Y-109331333D01*
X201545295Y-109331333D02*
X201450057Y-109378952D01*
X201450057Y-109378952D02*
X201402438Y-109426571D01*
X201402438Y-109426571D02*
X201354819Y-109521809D01*
X201354819Y-109521809D02*
X201354819Y-109759904D01*
X201354819Y-109759904D02*
X201402438Y-109902761D01*
X201831009Y-110331333D02*
X201831009Y-110664666D01*
X202354819Y-110807523D02*
X202354819Y-110331333D01*
X202354819Y-110331333D02*
X201354819Y-110331333D01*
X201354819Y-110331333D02*
X201354819Y-110807523D01*
X201354819Y-111093238D02*
X201354819Y-111664666D01*
X202354819Y-111378952D02*
X201354819Y-111378952D01*
X195206666Y-76229580D02*
X195254285Y-76277200D01*
X195254285Y-76277200D02*
X195397142Y-76324819D01*
X195397142Y-76324819D02*
X195492380Y-76324819D01*
X195492380Y-76324819D02*
X195635237Y-76277200D01*
X195635237Y-76277200D02*
X195730475Y-76181961D01*
X195730475Y-76181961D02*
X195778094Y-76086723D01*
X195778094Y-76086723D02*
X195825713Y-75896247D01*
X195825713Y-75896247D02*
X195825713Y-75753390D01*
X195825713Y-75753390D02*
X195778094Y-75562914D01*
X195778094Y-75562914D02*
X195730475Y-75467676D01*
X195730475Y-75467676D02*
X195635237Y-75372438D01*
X195635237Y-75372438D02*
X195492380Y-75324819D01*
X195492380Y-75324819D02*
X195397142Y-75324819D01*
X195397142Y-75324819D02*
X195254285Y-75372438D01*
X195254285Y-75372438D02*
X195206666Y-75420057D01*
X194254285Y-76324819D02*
X194825713Y-76324819D01*
X194539999Y-76324819D02*
X194539999Y-75324819D01*
X194539999Y-75324819D02*
X194635237Y-75467676D01*
X194635237Y-75467676D02*
X194730475Y-75562914D01*
X194730475Y-75562914D02*
X194825713Y-75610533D01*
X195664285Y-91564819D02*
X195664285Y-90564819D01*
X195664285Y-90564819D02*
X195283333Y-90564819D01*
X195283333Y-90564819D02*
X195188095Y-90612438D01*
X195188095Y-90612438D02*
X195140476Y-90660057D01*
X195140476Y-90660057D02*
X195092857Y-90755295D01*
X195092857Y-90755295D02*
X195092857Y-90898152D01*
X195092857Y-90898152D02*
X195140476Y-90993390D01*
X195140476Y-90993390D02*
X195188095Y-91041009D01*
X195188095Y-91041009D02*
X195283333Y-91088628D01*
X195283333Y-91088628D02*
X195664285Y-91088628D01*
X194140476Y-91564819D02*
X194711904Y-91564819D01*
X194426190Y-91564819D02*
X194426190Y-90564819D01*
X194426190Y-90564819D02*
X194521428Y-90707676D01*
X194521428Y-90707676D02*
X194616666Y-90802914D01*
X194616666Y-90802914D02*
X194711904Y-90850533D01*
X193521428Y-90564819D02*
X193426190Y-90564819D01*
X193426190Y-90564819D02*
X193330952Y-90612438D01*
X193330952Y-90612438D02*
X193283333Y-90660057D01*
X193283333Y-90660057D02*
X193235714Y-90755295D01*
X193235714Y-90755295D02*
X193188095Y-90945771D01*
X193188095Y-90945771D02*
X193188095Y-91183866D01*
X193188095Y-91183866D02*
X193235714Y-91374342D01*
X193235714Y-91374342D02*
X193283333Y-91469580D01*
X193283333Y-91469580D02*
X193330952Y-91517200D01*
X193330952Y-91517200D02*
X193426190Y-91564819D01*
X193426190Y-91564819D02*
X193521428Y-91564819D01*
X193521428Y-91564819D02*
X193616666Y-91517200D01*
X193616666Y-91517200D02*
X193664285Y-91469580D01*
X193664285Y-91469580D02*
X193711904Y-91374342D01*
X193711904Y-91374342D02*
X193759523Y-91183866D01*
X193759523Y-91183866D02*
X193759523Y-90945771D01*
X193759523Y-90945771D02*
X193711904Y-90755295D01*
X193711904Y-90755295D02*
X193664285Y-90660057D01*
X193664285Y-90660057D02*
X193616666Y-90612438D01*
X193616666Y-90612438D02*
X193521428Y-90564819D01*
X192740475Y-76277200D02*
X192597618Y-76324819D01*
X192597618Y-76324819D02*
X192359523Y-76324819D01*
X192359523Y-76324819D02*
X192264285Y-76277200D01*
X192264285Y-76277200D02*
X192216666Y-76229580D01*
X192216666Y-76229580D02*
X192169047Y-76134342D01*
X192169047Y-76134342D02*
X192169047Y-76039104D01*
X192169047Y-76039104D02*
X192216666Y-75943866D01*
X192216666Y-75943866D02*
X192264285Y-75896247D01*
X192264285Y-75896247D02*
X192359523Y-75848628D01*
X192359523Y-75848628D02*
X192549999Y-75801009D01*
X192549999Y-75801009D02*
X192645237Y-75753390D01*
X192645237Y-75753390D02*
X192692856Y-75705771D01*
X192692856Y-75705771D02*
X192740475Y-75610533D01*
X192740475Y-75610533D02*
X192740475Y-75515295D01*
X192740475Y-75515295D02*
X192692856Y-75420057D01*
X192692856Y-75420057D02*
X192645237Y-75372438D01*
X192645237Y-75372438D02*
X192549999Y-75324819D01*
X192549999Y-75324819D02*
X192311904Y-75324819D01*
X192311904Y-75324819D02*
X192169047Y-75372438D01*
X191169047Y-76229580D02*
X191216666Y-76277200D01*
X191216666Y-76277200D02*
X191359523Y-76324819D01*
X191359523Y-76324819D02*
X191454761Y-76324819D01*
X191454761Y-76324819D02*
X191597618Y-76277200D01*
X191597618Y-76277200D02*
X191692856Y-76181961D01*
X191692856Y-76181961D02*
X191740475Y-76086723D01*
X191740475Y-76086723D02*
X191788094Y-75896247D01*
X191788094Y-75896247D02*
X191788094Y-75753390D01*
X191788094Y-75753390D02*
X191740475Y-75562914D01*
X191740475Y-75562914D02*
X191692856Y-75467676D01*
X191692856Y-75467676D02*
X191597618Y-75372438D01*
X191597618Y-75372438D02*
X191454761Y-75324819D01*
X191454761Y-75324819D02*
X191359523Y-75324819D01*
X191359523Y-75324819D02*
X191216666Y-75372438D01*
X191216666Y-75372438D02*
X191169047Y-75420057D01*
X190264285Y-76324819D02*
X190740475Y-76324819D01*
X190740475Y-76324819D02*
X190740475Y-75324819D01*
X195783332Y-70244819D02*
X195449999Y-71244819D01*
X195449999Y-71244819D02*
X195116666Y-70244819D01*
X194211904Y-71149580D02*
X194259523Y-71197200D01*
X194259523Y-71197200D02*
X194402380Y-71244819D01*
X194402380Y-71244819D02*
X194497618Y-71244819D01*
X194497618Y-71244819D02*
X194640475Y-71197200D01*
X194640475Y-71197200D02*
X194735713Y-71101961D01*
X194735713Y-71101961D02*
X194783332Y-71006723D01*
X194783332Y-71006723D02*
X194830951Y-70816247D01*
X194830951Y-70816247D02*
X194830951Y-70673390D01*
X194830951Y-70673390D02*
X194783332Y-70482914D01*
X194783332Y-70482914D02*
X194735713Y-70387676D01*
X194735713Y-70387676D02*
X194640475Y-70292438D01*
X194640475Y-70292438D02*
X194497618Y-70244819D01*
X194497618Y-70244819D02*
X194402380Y-70244819D01*
X194402380Y-70244819D02*
X194259523Y-70292438D01*
X194259523Y-70292438D02*
X194211904Y-70340057D01*
X193211904Y-71149580D02*
X193259523Y-71197200D01*
X193259523Y-71197200D02*
X193402380Y-71244819D01*
X193402380Y-71244819D02*
X193497618Y-71244819D01*
X193497618Y-71244819D02*
X193640475Y-71197200D01*
X193640475Y-71197200D02*
X193735713Y-71101961D01*
X193735713Y-71101961D02*
X193783332Y-71006723D01*
X193783332Y-71006723D02*
X193830951Y-70816247D01*
X193830951Y-70816247D02*
X193830951Y-70673390D01*
X193830951Y-70673390D02*
X193783332Y-70482914D01*
X193783332Y-70482914D02*
X193735713Y-70387676D01*
X193735713Y-70387676D02*
X193640475Y-70292438D01*
X193640475Y-70292438D02*
X193497618Y-70244819D01*
X193497618Y-70244819D02*
X193402380Y-70244819D01*
X193402380Y-70244819D02*
X193259523Y-70292438D01*
X193259523Y-70292438D02*
X193211904Y-70340057D01*
X192192857Y-63624819D02*
X192669047Y-63624819D01*
X192669047Y-63624819D02*
X192669047Y-62624819D01*
X191859523Y-63101009D02*
X191526190Y-63101009D01*
X191383333Y-63624819D02*
X191859523Y-63624819D01*
X191859523Y-63624819D02*
X191859523Y-62624819D01*
X191859523Y-62624819D02*
X191383333Y-62624819D01*
X190954761Y-63624819D02*
X190954761Y-62624819D01*
X190954761Y-62624819D02*
X190716666Y-62624819D01*
X190716666Y-62624819D02*
X190573809Y-62672438D01*
X190573809Y-62672438D02*
X190478571Y-62767676D01*
X190478571Y-62767676D02*
X190430952Y-62862914D01*
X190430952Y-62862914D02*
X190383333Y-63053390D01*
X190383333Y-63053390D02*
X190383333Y-63196247D01*
X190383333Y-63196247D02*
X190430952Y-63386723D01*
X190430952Y-63386723D02*
X190478571Y-63481961D01*
X190478571Y-63481961D02*
X190573809Y-63577200D01*
X190573809Y-63577200D02*
X190716666Y-63624819D01*
X190716666Y-63624819D02*
X190954761Y-63624819D01*
X191126666Y-89024819D02*
X191459999Y-88548628D01*
X191698094Y-89024819D02*
X191698094Y-88024819D01*
X191698094Y-88024819D02*
X191317142Y-88024819D01*
X191317142Y-88024819D02*
X191221904Y-88072438D01*
X191221904Y-88072438D02*
X191174285Y-88120057D01*
X191174285Y-88120057D02*
X191126666Y-88215295D01*
X191126666Y-88215295D02*
X191126666Y-88358152D01*
X191126666Y-88358152D02*
X191174285Y-88453390D01*
X191174285Y-88453390D02*
X191221904Y-88501009D01*
X191221904Y-88501009D02*
X191317142Y-88548628D01*
X191317142Y-88548628D02*
X191698094Y-88548628D01*
X190793332Y-88024819D02*
X190174285Y-88024819D01*
X190174285Y-88024819D02*
X190507618Y-88405771D01*
X190507618Y-88405771D02*
X190364761Y-88405771D01*
X190364761Y-88405771D02*
X190269523Y-88453390D01*
X190269523Y-88453390D02*
X190221904Y-88501009D01*
X190221904Y-88501009D02*
X190174285Y-88596247D01*
X190174285Y-88596247D02*
X190174285Y-88834342D01*
X190174285Y-88834342D02*
X190221904Y-88929580D01*
X190221904Y-88929580D02*
X190269523Y-88977200D01*
X190269523Y-88977200D02*
X190364761Y-89024819D01*
X190364761Y-89024819D02*
X190650475Y-89024819D01*
X190650475Y-89024819D02*
X190745713Y-88977200D01*
X190745713Y-88977200D02*
X190793332Y-88929580D01*
X195206666Y-73689580D02*
X195254285Y-73737200D01*
X195254285Y-73737200D02*
X195397142Y-73784819D01*
X195397142Y-73784819D02*
X195492380Y-73784819D01*
X195492380Y-73784819D02*
X195635237Y-73737200D01*
X195635237Y-73737200D02*
X195730475Y-73641961D01*
X195730475Y-73641961D02*
X195778094Y-73546723D01*
X195778094Y-73546723D02*
X195825713Y-73356247D01*
X195825713Y-73356247D02*
X195825713Y-73213390D01*
X195825713Y-73213390D02*
X195778094Y-73022914D01*
X195778094Y-73022914D02*
X195730475Y-72927676D01*
X195730475Y-72927676D02*
X195635237Y-72832438D01*
X195635237Y-72832438D02*
X195492380Y-72784819D01*
X195492380Y-72784819D02*
X195397142Y-72784819D01*
X195397142Y-72784819D02*
X195254285Y-72832438D01*
X195254285Y-72832438D02*
X195206666Y-72880057D01*
X194587618Y-72784819D02*
X194492380Y-72784819D01*
X194492380Y-72784819D02*
X194397142Y-72832438D01*
X194397142Y-72832438D02*
X194349523Y-72880057D01*
X194349523Y-72880057D02*
X194301904Y-72975295D01*
X194301904Y-72975295D02*
X194254285Y-73165771D01*
X194254285Y-73165771D02*
X194254285Y-73403866D01*
X194254285Y-73403866D02*
X194301904Y-73594342D01*
X194301904Y-73594342D02*
X194349523Y-73689580D01*
X194349523Y-73689580D02*
X194397142Y-73737200D01*
X194397142Y-73737200D02*
X194492380Y-73784819D01*
X194492380Y-73784819D02*
X194587618Y-73784819D01*
X194587618Y-73784819D02*
X194682856Y-73737200D01*
X194682856Y-73737200D02*
X194730475Y-73689580D01*
X194730475Y-73689580D02*
X194778094Y-73594342D01*
X194778094Y-73594342D02*
X194825713Y-73403866D01*
X194825713Y-73403866D02*
X194825713Y-73165771D01*
X194825713Y-73165771D02*
X194778094Y-72975295D01*
X194778094Y-72975295D02*
X194730475Y-72880057D01*
X194730475Y-72880057D02*
X194682856Y-72832438D01*
X194682856Y-72832438D02*
X194587618Y-72784819D01*
X191126666Y-81404819D02*
X191459999Y-80928628D01*
X191698094Y-81404819D02*
X191698094Y-80404819D01*
X191698094Y-80404819D02*
X191317142Y-80404819D01*
X191317142Y-80404819D02*
X191221904Y-80452438D01*
X191221904Y-80452438D02*
X191174285Y-80500057D01*
X191174285Y-80500057D02*
X191126666Y-80595295D01*
X191126666Y-80595295D02*
X191126666Y-80738152D01*
X191126666Y-80738152D02*
X191174285Y-80833390D01*
X191174285Y-80833390D02*
X191221904Y-80881009D01*
X191221904Y-80881009D02*
X191317142Y-80928628D01*
X191317142Y-80928628D02*
X191698094Y-80928628D01*
X190507618Y-80404819D02*
X190412380Y-80404819D01*
X190412380Y-80404819D02*
X190317142Y-80452438D01*
X190317142Y-80452438D02*
X190269523Y-80500057D01*
X190269523Y-80500057D02*
X190221904Y-80595295D01*
X190221904Y-80595295D02*
X190174285Y-80785771D01*
X190174285Y-80785771D02*
X190174285Y-81023866D01*
X190174285Y-81023866D02*
X190221904Y-81214342D01*
X190221904Y-81214342D02*
X190269523Y-81309580D01*
X190269523Y-81309580D02*
X190317142Y-81357200D01*
X190317142Y-81357200D02*
X190412380Y-81404819D01*
X190412380Y-81404819D02*
X190507618Y-81404819D01*
X190507618Y-81404819D02*
X190602856Y-81357200D01*
X190602856Y-81357200D02*
X190650475Y-81309580D01*
X190650475Y-81309580D02*
X190698094Y-81214342D01*
X190698094Y-81214342D02*
X190745713Y-81023866D01*
X190745713Y-81023866D02*
X190745713Y-80785771D01*
X190745713Y-80785771D02*
X190698094Y-80595295D01*
X190698094Y-80595295D02*
X190650475Y-80500057D01*
X190650475Y-80500057D02*
X190602856Y-80452438D01*
X190602856Y-80452438D02*
X190507618Y-80404819D01*
X192311904Y-67752438D02*
X192407142Y-67704819D01*
X192407142Y-67704819D02*
X192549999Y-67704819D01*
X192549999Y-67704819D02*
X192692856Y-67752438D01*
X192692856Y-67752438D02*
X192788094Y-67847676D01*
X192788094Y-67847676D02*
X192835713Y-67942914D01*
X192835713Y-67942914D02*
X192883332Y-68133390D01*
X192883332Y-68133390D02*
X192883332Y-68276247D01*
X192883332Y-68276247D02*
X192835713Y-68466723D01*
X192835713Y-68466723D02*
X192788094Y-68561961D01*
X192788094Y-68561961D02*
X192692856Y-68657200D01*
X192692856Y-68657200D02*
X192549999Y-68704819D01*
X192549999Y-68704819D02*
X192454761Y-68704819D01*
X192454761Y-68704819D02*
X192311904Y-68657200D01*
X192311904Y-68657200D02*
X192264285Y-68609580D01*
X192264285Y-68609580D02*
X192264285Y-68276247D01*
X192264285Y-68276247D02*
X192454761Y-68276247D01*
X191835713Y-68704819D02*
X191835713Y-67704819D01*
X191835713Y-67704819D02*
X191264285Y-68704819D01*
X191264285Y-68704819D02*
X191264285Y-67704819D01*
X190788094Y-68704819D02*
X190788094Y-67704819D01*
X190788094Y-67704819D02*
X190549999Y-67704819D01*
X190549999Y-67704819D02*
X190407142Y-67752438D01*
X190407142Y-67752438D02*
X190311904Y-67847676D01*
X190311904Y-67847676D02*
X190264285Y-67942914D01*
X190264285Y-67942914D02*
X190216666Y-68133390D01*
X190216666Y-68133390D02*
X190216666Y-68276247D01*
X190216666Y-68276247D02*
X190264285Y-68466723D01*
X190264285Y-68466723D02*
X190311904Y-68561961D01*
X190311904Y-68561961D02*
X190407142Y-68657200D01*
X190407142Y-68657200D02*
X190549999Y-68704819D01*
X190549999Y-68704819D02*
X190788094Y-68704819D01*
X195664285Y-89024819D02*
X195664285Y-88024819D01*
X195664285Y-88024819D02*
X195283333Y-88024819D01*
X195283333Y-88024819D02*
X195188095Y-88072438D01*
X195188095Y-88072438D02*
X195140476Y-88120057D01*
X195140476Y-88120057D02*
X195092857Y-88215295D01*
X195092857Y-88215295D02*
X195092857Y-88358152D01*
X195092857Y-88358152D02*
X195140476Y-88453390D01*
X195140476Y-88453390D02*
X195188095Y-88501009D01*
X195188095Y-88501009D02*
X195283333Y-88548628D01*
X195283333Y-88548628D02*
X195664285Y-88548628D01*
X194140476Y-89024819D02*
X194711904Y-89024819D01*
X194426190Y-89024819D02*
X194426190Y-88024819D01*
X194426190Y-88024819D02*
X194521428Y-88167676D01*
X194521428Y-88167676D02*
X194616666Y-88262914D01*
X194616666Y-88262914D02*
X194711904Y-88310533D01*
X193283333Y-88024819D02*
X193473809Y-88024819D01*
X193473809Y-88024819D02*
X193569047Y-88072438D01*
X193569047Y-88072438D02*
X193616666Y-88120057D01*
X193616666Y-88120057D02*
X193711904Y-88262914D01*
X193711904Y-88262914D02*
X193759523Y-88453390D01*
X193759523Y-88453390D02*
X193759523Y-88834342D01*
X193759523Y-88834342D02*
X193711904Y-88929580D01*
X193711904Y-88929580D02*
X193664285Y-88977200D01*
X193664285Y-88977200D02*
X193569047Y-89024819D01*
X193569047Y-89024819D02*
X193378571Y-89024819D01*
X193378571Y-89024819D02*
X193283333Y-88977200D01*
X193283333Y-88977200D02*
X193235714Y-88929580D01*
X193235714Y-88929580D02*
X193188095Y-88834342D01*
X193188095Y-88834342D02*
X193188095Y-88596247D01*
X193188095Y-88596247D02*
X193235714Y-88501009D01*
X193235714Y-88501009D02*
X193283333Y-88453390D01*
X193283333Y-88453390D02*
X193378571Y-88405771D01*
X193378571Y-88405771D02*
X193569047Y-88405771D01*
X193569047Y-88405771D02*
X193664285Y-88453390D01*
X193664285Y-88453390D02*
X193711904Y-88501009D01*
X193711904Y-88501009D02*
X193759523Y-88596247D01*
X194997619Y-68704819D02*
X195330952Y-68228628D01*
X195569047Y-68704819D02*
X195569047Y-67704819D01*
X195569047Y-67704819D02*
X195188095Y-67704819D01*
X195188095Y-67704819D02*
X195092857Y-67752438D01*
X195092857Y-67752438D02*
X195045238Y-67800057D01*
X195045238Y-67800057D02*
X194997619Y-67895295D01*
X194997619Y-67895295D02*
X194997619Y-68038152D01*
X194997619Y-68038152D02*
X195045238Y-68133390D01*
X195045238Y-68133390D02*
X195092857Y-68181009D01*
X195092857Y-68181009D02*
X195188095Y-68228628D01*
X195188095Y-68228628D02*
X195569047Y-68228628D01*
X194616666Y-68657200D02*
X194473809Y-68704819D01*
X194473809Y-68704819D02*
X194235714Y-68704819D01*
X194235714Y-68704819D02*
X194140476Y-68657200D01*
X194140476Y-68657200D02*
X194092857Y-68609580D01*
X194092857Y-68609580D02*
X194045238Y-68514342D01*
X194045238Y-68514342D02*
X194045238Y-68419104D01*
X194045238Y-68419104D02*
X194092857Y-68323866D01*
X194092857Y-68323866D02*
X194140476Y-68276247D01*
X194140476Y-68276247D02*
X194235714Y-68228628D01*
X194235714Y-68228628D02*
X194426190Y-68181009D01*
X194426190Y-68181009D02*
X194521428Y-68133390D01*
X194521428Y-68133390D02*
X194569047Y-68085771D01*
X194569047Y-68085771D02*
X194616666Y-67990533D01*
X194616666Y-67990533D02*
X194616666Y-67895295D01*
X194616666Y-67895295D02*
X194569047Y-67800057D01*
X194569047Y-67800057D02*
X194521428Y-67752438D01*
X194521428Y-67752438D02*
X194426190Y-67704819D01*
X194426190Y-67704819D02*
X194188095Y-67704819D01*
X194188095Y-67704819D02*
X194045238Y-67752438D01*
X193759523Y-67704819D02*
X193188095Y-67704819D01*
X193473809Y-68704819D02*
X193473809Y-67704819D01*
X195206666Y-86389580D02*
X195254285Y-86437200D01*
X195254285Y-86437200D02*
X195397142Y-86484819D01*
X195397142Y-86484819D02*
X195492380Y-86484819D01*
X195492380Y-86484819D02*
X195635237Y-86437200D01*
X195635237Y-86437200D02*
X195730475Y-86341961D01*
X195730475Y-86341961D02*
X195778094Y-86246723D01*
X195778094Y-86246723D02*
X195825713Y-86056247D01*
X195825713Y-86056247D02*
X195825713Y-85913390D01*
X195825713Y-85913390D02*
X195778094Y-85722914D01*
X195778094Y-85722914D02*
X195730475Y-85627676D01*
X195730475Y-85627676D02*
X195635237Y-85532438D01*
X195635237Y-85532438D02*
X195492380Y-85484819D01*
X195492380Y-85484819D02*
X195397142Y-85484819D01*
X195397142Y-85484819D02*
X195254285Y-85532438D01*
X195254285Y-85532438D02*
X195206666Y-85580057D01*
X194301904Y-85484819D02*
X194778094Y-85484819D01*
X194778094Y-85484819D02*
X194825713Y-85961009D01*
X194825713Y-85961009D02*
X194778094Y-85913390D01*
X194778094Y-85913390D02*
X194682856Y-85865771D01*
X194682856Y-85865771D02*
X194444761Y-85865771D01*
X194444761Y-85865771D02*
X194349523Y-85913390D01*
X194349523Y-85913390D02*
X194301904Y-85961009D01*
X194301904Y-85961009D02*
X194254285Y-86056247D01*
X194254285Y-86056247D02*
X194254285Y-86294342D01*
X194254285Y-86294342D02*
X194301904Y-86389580D01*
X194301904Y-86389580D02*
X194349523Y-86437200D01*
X194349523Y-86437200D02*
X194444761Y-86484819D01*
X194444761Y-86484819D02*
X194682856Y-86484819D01*
X194682856Y-86484819D02*
X194778094Y-86437200D01*
X194778094Y-86437200D02*
X194825713Y-86389580D01*
X191126666Y-86484819D02*
X191459999Y-86008628D01*
X191698094Y-86484819D02*
X191698094Y-85484819D01*
X191698094Y-85484819D02*
X191317142Y-85484819D01*
X191317142Y-85484819D02*
X191221904Y-85532438D01*
X191221904Y-85532438D02*
X191174285Y-85580057D01*
X191174285Y-85580057D02*
X191126666Y-85675295D01*
X191126666Y-85675295D02*
X191126666Y-85818152D01*
X191126666Y-85818152D02*
X191174285Y-85913390D01*
X191174285Y-85913390D02*
X191221904Y-85961009D01*
X191221904Y-85961009D02*
X191317142Y-86008628D01*
X191317142Y-86008628D02*
X191698094Y-86008628D01*
X190745713Y-85580057D02*
X190698094Y-85532438D01*
X190698094Y-85532438D02*
X190602856Y-85484819D01*
X190602856Y-85484819D02*
X190364761Y-85484819D01*
X190364761Y-85484819D02*
X190269523Y-85532438D01*
X190269523Y-85532438D02*
X190221904Y-85580057D01*
X190221904Y-85580057D02*
X190174285Y-85675295D01*
X190174285Y-85675295D02*
X190174285Y-85770533D01*
X190174285Y-85770533D02*
X190221904Y-85913390D01*
X190221904Y-85913390D02*
X190793332Y-86484819D01*
X190793332Y-86484819D02*
X190174285Y-86484819D01*
X192311904Y-70292438D02*
X192407142Y-70244819D01*
X192407142Y-70244819D02*
X192549999Y-70244819D01*
X192549999Y-70244819D02*
X192692856Y-70292438D01*
X192692856Y-70292438D02*
X192788094Y-70387676D01*
X192788094Y-70387676D02*
X192835713Y-70482914D01*
X192835713Y-70482914D02*
X192883332Y-70673390D01*
X192883332Y-70673390D02*
X192883332Y-70816247D01*
X192883332Y-70816247D02*
X192835713Y-71006723D01*
X192835713Y-71006723D02*
X192788094Y-71101961D01*
X192788094Y-71101961D02*
X192692856Y-71197200D01*
X192692856Y-71197200D02*
X192549999Y-71244819D01*
X192549999Y-71244819D02*
X192454761Y-71244819D01*
X192454761Y-71244819D02*
X192311904Y-71197200D01*
X192311904Y-71197200D02*
X192264285Y-71149580D01*
X192264285Y-71149580D02*
X192264285Y-70816247D01*
X192264285Y-70816247D02*
X192454761Y-70816247D01*
X191835713Y-71244819D02*
X191835713Y-70244819D01*
X191835713Y-70244819D02*
X191264285Y-71244819D01*
X191264285Y-71244819D02*
X191264285Y-70244819D01*
X190788094Y-71244819D02*
X190788094Y-70244819D01*
X190788094Y-70244819D02*
X190549999Y-70244819D01*
X190549999Y-70244819D02*
X190407142Y-70292438D01*
X190407142Y-70292438D02*
X190311904Y-70387676D01*
X190311904Y-70387676D02*
X190264285Y-70482914D01*
X190264285Y-70482914D02*
X190216666Y-70673390D01*
X190216666Y-70673390D02*
X190216666Y-70816247D01*
X190216666Y-70816247D02*
X190264285Y-71006723D01*
X190264285Y-71006723D02*
X190311904Y-71101961D01*
X190311904Y-71101961D02*
X190407142Y-71197200D01*
X190407142Y-71197200D02*
X190549999Y-71244819D01*
X190549999Y-71244819D02*
X190788094Y-71244819D01*
X195140476Y-63624819D02*
X195473809Y-63148628D01*
X195711904Y-63624819D02*
X195711904Y-62624819D01*
X195711904Y-62624819D02*
X195330952Y-62624819D01*
X195330952Y-62624819D02*
X195235714Y-62672438D01*
X195235714Y-62672438D02*
X195188095Y-62720057D01*
X195188095Y-62720057D02*
X195140476Y-62815295D01*
X195140476Y-62815295D02*
X195140476Y-62958152D01*
X195140476Y-62958152D02*
X195188095Y-63053390D01*
X195188095Y-63053390D02*
X195235714Y-63101009D01*
X195235714Y-63101009D02*
X195330952Y-63148628D01*
X195330952Y-63148628D02*
X195711904Y-63148628D01*
X194759523Y-63339104D02*
X194283333Y-63339104D01*
X194854761Y-63624819D02*
X194521428Y-62624819D01*
X194521428Y-62624819D02*
X194188095Y-63624819D01*
X193949999Y-62624819D02*
X193711904Y-63624819D01*
X193711904Y-63624819D02*
X193521428Y-62910533D01*
X193521428Y-62910533D02*
X193330952Y-63624819D01*
X193330952Y-63624819D02*
X193092857Y-62624819D01*
X195206666Y-83849580D02*
X195254285Y-83897200D01*
X195254285Y-83897200D02*
X195397142Y-83944819D01*
X195397142Y-83944819D02*
X195492380Y-83944819D01*
X195492380Y-83944819D02*
X195635237Y-83897200D01*
X195635237Y-83897200D02*
X195730475Y-83801961D01*
X195730475Y-83801961D02*
X195778094Y-83706723D01*
X195778094Y-83706723D02*
X195825713Y-83516247D01*
X195825713Y-83516247D02*
X195825713Y-83373390D01*
X195825713Y-83373390D02*
X195778094Y-83182914D01*
X195778094Y-83182914D02*
X195730475Y-83087676D01*
X195730475Y-83087676D02*
X195635237Y-82992438D01*
X195635237Y-82992438D02*
X195492380Y-82944819D01*
X195492380Y-82944819D02*
X195397142Y-82944819D01*
X195397142Y-82944819D02*
X195254285Y-82992438D01*
X195254285Y-82992438D02*
X195206666Y-83040057D01*
X194349523Y-83278152D02*
X194349523Y-83944819D01*
X194587618Y-82897200D02*
X194825713Y-83611485D01*
X194825713Y-83611485D02*
X194206666Y-83611485D01*
X195211904Y-65212438D02*
X195307142Y-65164819D01*
X195307142Y-65164819D02*
X195449999Y-65164819D01*
X195449999Y-65164819D02*
X195592856Y-65212438D01*
X195592856Y-65212438D02*
X195688094Y-65307676D01*
X195688094Y-65307676D02*
X195735713Y-65402914D01*
X195735713Y-65402914D02*
X195783332Y-65593390D01*
X195783332Y-65593390D02*
X195783332Y-65736247D01*
X195783332Y-65736247D02*
X195735713Y-65926723D01*
X195735713Y-65926723D02*
X195688094Y-66021961D01*
X195688094Y-66021961D02*
X195592856Y-66117200D01*
X195592856Y-66117200D02*
X195449999Y-66164819D01*
X195449999Y-66164819D02*
X195354761Y-66164819D01*
X195354761Y-66164819D02*
X195211904Y-66117200D01*
X195211904Y-66117200D02*
X195164285Y-66069580D01*
X195164285Y-66069580D02*
X195164285Y-65736247D01*
X195164285Y-65736247D02*
X195354761Y-65736247D01*
X194735713Y-66164819D02*
X194735713Y-65164819D01*
X194735713Y-65164819D02*
X194164285Y-66164819D01*
X194164285Y-66164819D02*
X194164285Y-65164819D01*
X193688094Y-66164819D02*
X193688094Y-65164819D01*
X193688094Y-65164819D02*
X193449999Y-65164819D01*
X193449999Y-65164819D02*
X193307142Y-65212438D01*
X193307142Y-65212438D02*
X193211904Y-65307676D01*
X193211904Y-65307676D02*
X193164285Y-65402914D01*
X193164285Y-65402914D02*
X193116666Y-65593390D01*
X193116666Y-65593390D02*
X193116666Y-65736247D01*
X193116666Y-65736247D02*
X193164285Y-65926723D01*
X193164285Y-65926723D02*
X193211904Y-66021961D01*
X193211904Y-66021961D02*
X193307142Y-66117200D01*
X193307142Y-66117200D02*
X193449999Y-66164819D01*
X193449999Y-66164819D02*
X193688094Y-66164819D01*
X191126666Y-78769580D02*
X191174285Y-78817200D01*
X191174285Y-78817200D02*
X191317142Y-78864819D01*
X191317142Y-78864819D02*
X191412380Y-78864819D01*
X191412380Y-78864819D02*
X191555237Y-78817200D01*
X191555237Y-78817200D02*
X191650475Y-78721961D01*
X191650475Y-78721961D02*
X191698094Y-78626723D01*
X191698094Y-78626723D02*
X191745713Y-78436247D01*
X191745713Y-78436247D02*
X191745713Y-78293390D01*
X191745713Y-78293390D02*
X191698094Y-78102914D01*
X191698094Y-78102914D02*
X191650475Y-78007676D01*
X191650475Y-78007676D02*
X191555237Y-77912438D01*
X191555237Y-77912438D02*
X191412380Y-77864819D01*
X191412380Y-77864819D02*
X191317142Y-77864819D01*
X191317142Y-77864819D02*
X191174285Y-77912438D01*
X191174285Y-77912438D02*
X191126666Y-77960057D01*
X190745713Y-78817200D02*
X190602856Y-78864819D01*
X190602856Y-78864819D02*
X190364761Y-78864819D01*
X190364761Y-78864819D02*
X190269523Y-78817200D01*
X190269523Y-78817200D02*
X190221904Y-78769580D01*
X190221904Y-78769580D02*
X190174285Y-78674342D01*
X190174285Y-78674342D02*
X190174285Y-78579104D01*
X190174285Y-78579104D02*
X190221904Y-78483866D01*
X190221904Y-78483866D02*
X190269523Y-78436247D01*
X190269523Y-78436247D02*
X190364761Y-78388628D01*
X190364761Y-78388628D02*
X190555237Y-78341009D01*
X190555237Y-78341009D02*
X190650475Y-78293390D01*
X190650475Y-78293390D02*
X190698094Y-78245771D01*
X190698094Y-78245771D02*
X190745713Y-78150533D01*
X190745713Y-78150533D02*
X190745713Y-78055295D01*
X190745713Y-78055295D02*
X190698094Y-77960057D01*
X190698094Y-77960057D02*
X190650475Y-77912438D01*
X190650475Y-77912438D02*
X190555237Y-77864819D01*
X190555237Y-77864819D02*
X190317142Y-77864819D01*
X190317142Y-77864819D02*
X190174285Y-77912438D01*
X191126666Y-83944819D02*
X191459999Y-83468628D01*
X191698094Y-83944819D02*
X191698094Y-82944819D01*
X191698094Y-82944819D02*
X191317142Y-82944819D01*
X191317142Y-82944819D02*
X191221904Y-82992438D01*
X191221904Y-82992438D02*
X191174285Y-83040057D01*
X191174285Y-83040057D02*
X191126666Y-83135295D01*
X191126666Y-83135295D02*
X191126666Y-83278152D01*
X191126666Y-83278152D02*
X191174285Y-83373390D01*
X191174285Y-83373390D02*
X191221904Y-83421009D01*
X191221904Y-83421009D02*
X191317142Y-83468628D01*
X191317142Y-83468628D02*
X191698094Y-83468628D01*
X190174285Y-83944819D02*
X190745713Y-83944819D01*
X190459999Y-83944819D02*
X190459999Y-82944819D01*
X190459999Y-82944819D02*
X190555237Y-83087676D01*
X190555237Y-83087676D02*
X190650475Y-83182914D01*
X190650475Y-83182914D02*
X190745713Y-83230533D01*
X192621428Y-66164819D02*
X192621428Y-65164819D01*
X192621428Y-65164819D02*
X192383333Y-65164819D01*
X192383333Y-65164819D02*
X192240476Y-65212438D01*
X192240476Y-65212438D02*
X192145238Y-65307676D01*
X192145238Y-65307676D02*
X192097619Y-65402914D01*
X192097619Y-65402914D02*
X192050000Y-65593390D01*
X192050000Y-65593390D02*
X192050000Y-65736247D01*
X192050000Y-65736247D02*
X192097619Y-65926723D01*
X192097619Y-65926723D02*
X192145238Y-66021961D01*
X192145238Y-66021961D02*
X192240476Y-66117200D01*
X192240476Y-66117200D02*
X192383333Y-66164819D01*
X192383333Y-66164819D02*
X192621428Y-66164819D01*
X191669047Y-65879104D02*
X191192857Y-65879104D01*
X191764285Y-66164819D02*
X191430952Y-65164819D01*
X191430952Y-65164819D02*
X191097619Y-66164819D01*
X190907142Y-65164819D02*
X190335714Y-65164819D01*
X190621428Y-66164819D02*
X190621428Y-65164819D01*
X192764285Y-73737200D02*
X192621428Y-73784819D01*
X192621428Y-73784819D02*
X192383333Y-73784819D01*
X192383333Y-73784819D02*
X192288095Y-73737200D01*
X192288095Y-73737200D02*
X192240476Y-73689580D01*
X192240476Y-73689580D02*
X192192857Y-73594342D01*
X192192857Y-73594342D02*
X192192857Y-73499104D01*
X192192857Y-73499104D02*
X192240476Y-73403866D01*
X192240476Y-73403866D02*
X192288095Y-73356247D01*
X192288095Y-73356247D02*
X192383333Y-73308628D01*
X192383333Y-73308628D02*
X192573809Y-73261009D01*
X192573809Y-73261009D02*
X192669047Y-73213390D01*
X192669047Y-73213390D02*
X192716666Y-73165771D01*
X192716666Y-73165771D02*
X192764285Y-73070533D01*
X192764285Y-73070533D02*
X192764285Y-72975295D01*
X192764285Y-72975295D02*
X192716666Y-72880057D01*
X192716666Y-72880057D02*
X192669047Y-72832438D01*
X192669047Y-72832438D02*
X192573809Y-72784819D01*
X192573809Y-72784819D02*
X192335714Y-72784819D01*
X192335714Y-72784819D02*
X192192857Y-72832438D01*
X191764285Y-73784819D02*
X191764285Y-72784819D01*
X191764285Y-72784819D02*
X191526190Y-72784819D01*
X191526190Y-72784819D02*
X191383333Y-72832438D01*
X191383333Y-72832438D02*
X191288095Y-72927676D01*
X191288095Y-72927676D02*
X191240476Y-73022914D01*
X191240476Y-73022914D02*
X191192857Y-73213390D01*
X191192857Y-73213390D02*
X191192857Y-73356247D01*
X191192857Y-73356247D02*
X191240476Y-73546723D01*
X191240476Y-73546723D02*
X191288095Y-73641961D01*
X191288095Y-73641961D02*
X191383333Y-73737200D01*
X191383333Y-73737200D02*
X191526190Y-73784819D01*
X191526190Y-73784819D02*
X191764285Y-73784819D01*
X190811904Y-73499104D02*
X190335714Y-73499104D01*
X190907142Y-73784819D02*
X190573809Y-72784819D01*
X190573809Y-72784819D02*
X190240476Y-73784819D01*
X195206666Y-78769580D02*
X195254285Y-78817200D01*
X195254285Y-78817200D02*
X195397142Y-78864819D01*
X195397142Y-78864819D02*
X195492380Y-78864819D01*
X195492380Y-78864819D02*
X195635237Y-78817200D01*
X195635237Y-78817200D02*
X195730475Y-78721961D01*
X195730475Y-78721961D02*
X195778094Y-78626723D01*
X195778094Y-78626723D02*
X195825713Y-78436247D01*
X195825713Y-78436247D02*
X195825713Y-78293390D01*
X195825713Y-78293390D02*
X195778094Y-78102914D01*
X195778094Y-78102914D02*
X195730475Y-78007676D01*
X195730475Y-78007676D02*
X195635237Y-77912438D01*
X195635237Y-77912438D02*
X195492380Y-77864819D01*
X195492380Y-77864819D02*
X195397142Y-77864819D01*
X195397142Y-77864819D02*
X195254285Y-77912438D01*
X195254285Y-77912438D02*
X195206666Y-77960057D01*
X194825713Y-77960057D02*
X194778094Y-77912438D01*
X194778094Y-77912438D02*
X194682856Y-77864819D01*
X194682856Y-77864819D02*
X194444761Y-77864819D01*
X194444761Y-77864819D02*
X194349523Y-77912438D01*
X194349523Y-77912438D02*
X194301904Y-77960057D01*
X194301904Y-77960057D02*
X194254285Y-78055295D01*
X194254285Y-78055295D02*
X194254285Y-78150533D01*
X194254285Y-78150533D02*
X194301904Y-78293390D01*
X194301904Y-78293390D02*
X194873332Y-78864819D01*
X194873332Y-78864819D02*
X194254285Y-78864819D01*
X191698094Y-91564819D02*
X191698094Y-90564819D01*
X191698094Y-90564819D02*
X191317142Y-90564819D01*
X191317142Y-90564819D02*
X191221904Y-90612438D01*
X191221904Y-90612438D02*
X191174285Y-90660057D01*
X191174285Y-90660057D02*
X191126666Y-90755295D01*
X191126666Y-90755295D02*
X191126666Y-90898152D01*
X191126666Y-90898152D02*
X191174285Y-90993390D01*
X191174285Y-90993390D02*
X191221904Y-91041009D01*
X191221904Y-91041009D02*
X191317142Y-91088628D01*
X191317142Y-91088628D02*
X191698094Y-91088628D01*
X190650475Y-91564819D02*
X190459999Y-91564819D01*
X190459999Y-91564819D02*
X190364761Y-91517200D01*
X190364761Y-91517200D02*
X190317142Y-91469580D01*
X190317142Y-91469580D02*
X190221904Y-91326723D01*
X190221904Y-91326723D02*
X190174285Y-91136247D01*
X190174285Y-91136247D02*
X190174285Y-90755295D01*
X190174285Y-90755295D02*
X190221904Y-90660057D01*
X190221904Y-90660057D02*
X190269523Y-90612438D01*
X190269523Y-90612438D02*
X190364761Y-90564819D01*
X190364761Y-90564819D02*
X190555237Y-90564819D01*
X190555237Y-90564819D02*
X190650475Y-90612438D01*
X190650475Y-90612438D02*
X190698094Y-90660057D01*
X190698094Y-90660057D02*
X190745713Y-90755295D01*
X190745713Y-90755295D02*
X190745713Y-90993390D01*
X190745713Y-90993390D02*
X190698094Y-91088628D01*
X190698094Y-91088628D02*
X190650475Y-91136247D01*
X190650475Y-91136247D02*
X190555237Y-91183866D01*
X190555237Y-91183866D02*
X190364761Y-91183866D01*
X190364761Y-91183866D02*
X190269523Y-91136247D01*
X190269523Y-91136247D02*
X190221904Y-91088628D01*
X190221904Y-91088628D02*
X190174285Y-90993390D01*
X195206666Y-81309580D02*
X195254285Y-81357200D01*
X195254285Y-81357200D02*
X195397142Y-81404819D01*
X195397142Y-81404819D02*
X195492380Y-81404819D01*
X195492380Y-81404819D02*
X195635237Y-81357200D01*
X195635237Y-81357200D02*
X195730475Y-81261961D01*
X195730475Y-81261961D02*
X195778094Y-81166723D01*
X195778094Y-81166723D02*
X195825713Y-80976247D01*
X195825713Y-80976247D02*
X195825713Y-80833390D01*
X195825713Y-80833390D02*
X195778094Y-80642914D01*
X195778094Y-80642914D02*
X195730475Y-80547676D01*
X195730475Y-80547676D02*
X195635237Y-80452438D01*
X195635237Y-80452438D02*
X195492380Y-80404819D01*
X195492380Y-80404819D02*
X195397142Y-80404819D01*
X195397142Y-80404819D02*
X195254285Y-80452438D01*
X195254285Y-80452438D02*
X195206666Y-80500057D01*
X194873332Y-80404819D02*
X194254285Y-80404819D01*
X194254285Y-80404819D02*
X194587618Y-80785771D01*
X194587618Y-80785771D02*
X194444761Y-80785771D01*
X194444761Y-80785771D02*
X194349523Y-80833390D01*
X194349523Y-80833390D02*
X194301904Y-80881009D01*
X194301904Y-80881009D02*
X194254285Y-80976247D01*
X194254285Y-80976247D02*
X194254285Y-81214342D01*
X194254285Y-81214342D02*
X194301904Y-81309580D01*
X194301904Y-81309580D02*
X194349523Y-81357200D01*
X194349523Y-81357200D02*
X194444761Y-81404819D01*
X194444761Y-81404819D02*
X194730475Y-81404819D01*
X194730475Y-81404819D02*
X194825713Y-81357200D01*
X194825713Y-81357200D02*
X194873332Y-81309580D01*
X202819047Y-93079819D02*
X202628571Y-93079819D01*
X202628571Y-93079819D02*
X202533333Y-93127438D01*
X202533333Y-93127438D02*
X202438095Y-93222676D01*
X202438095Y-93222676D02*
X202390476Y-93413152D01*
X202390476Y-93413152D02*
X202390476Y-93746485D01*
X202390476Y-93746485D02*
X202438095Y-93936961D01*
X202438095Y-93936961D02*
X202533333Y-94032200D01*
X202533333Y-94032200D02*
X202628571Y-94079819D01*
X202628571Y-94079819D02*
X202819047Y-94079819D01*
X202819047Y-94079819D02*
X202914285Y-94032200D01*
X202914285Y-94032200D02*
X203009523Y-93936961D01*
X203009523Y-93936961D02*
X203057142Y-93746485D01*
X203057142Y-93746485D02*
X203057142Y-93413152D01*
X203057142Y-93413152D02*
X203009523Y-93222676D01*
X203009523Y-93222676D02*
X202914285Y-93127438D01*
X202914285Y-93127438D02*
X202819047Y-93079819D01*
X201961904Y-94079819D02*
X201961904Y-93079819D01*
X201961904Y-93079819D02*
X201390476Y-94079819D01*
X201390476Y-94079819D02*
X201390476Y-93079819D01*
X203152380Y-103079819D02*
X202961904Y-103079819D01*
X202961904Y-103079819D02*
X202866666Y-103127438D01*
X202866666Y-103127438D02*
X202771428Y-103222676D01*
X202771428Y-103222676D02*
X202723809Y-103413152D01*
X202723809Y-103413152D02*
X202723809Y-103746485D01*
X202723809Y-103746485D02*
X202771428Y-103936961D01*
X202771428Y-103936961D02*
X202866666Y-104032200D01*
X202866666Y-104032200D02*
X202961904Y-104079819D01*
X202961904Y-104079819D02*
X203152380Y-104079819D01*
X203152380Y-104079819D02*
X203247618Y-104032200D01*
X203247618Y-104032200D02*
X203342856Y-103936961D01*
X203342856Y-103936961D02*
X203390475Y-103746485D01*
X203390475Y-103746485D02*
X203390475Y-103413152D01*
X203390475Y-103413152D02*
X203342856Y-103222676D01*
X203342856Y-103222676D02*
X203247618Y-103127438D01*
X203247618Y-103127438D02*
X203152380Y-103079819D01*
X201961904Y-103556009D02*
X202295237Y-103556009D01*
X202295237Y-104079819D02*
X202295237Y-103079819D01*
X202295237Y-103079819D02*
X201819047Y-103079819D01*
X201104761Y-103556009D02*
X201438094Y-103556009D01*
X201438094Y-104079819D02*
X201438094Y-103079819D01*
X201438094Y-103079819D02*
X200961904Y-103079819D01*
%TO.C,B1*%
X200150000Y-106625000D02*
X200400000Y-106625000D01*
X200150000Y-112625000D02*
X200150000Y-106625000D01*
X200400000Y-112625000D02*
X200150000Y-112625000D01*
X203400000Y-106625000D02*
X203650000Y-106625000D01*
X203650000Y-106625000D02*
X203650000Y-112625000D01*
X203650000Y-112625000D02*
X203400000Y-112625000D01*
D11*
%TO.C,MCU1*%
X184050000Y-61840000D02*
X184050000Y-92440000D01*
X186710000Y-61840000D02*
X184050000Y-61840000D01*
X186710000Y-61840000D02*
X186710000Y-92440000D01*
X186710000Y-92440000D02*
X184050000Y-92440000D01*
X199290000Y-61840000D02*
X199290000Y-92440000D01*
X201950000Y-61840000D02*
X199290000Y-61840000D01*
X201950000Y-61840000D02*
X201950000Y-92440000D01*
X201950000Y-64440000D02*
X199290000Y-64440000D01*
X201950000Y-92440000D02*
X199290000Y-92440000D01*
%TO.C,PWR1*%
X200775000Y-97025000D02*
X200775000Y-98725000D01*
X200775000Y-100025000D02*
X200775000Y-100225000D01*
X201825000Y-95175000D02*
X202615000Y-95175000D01*
X202615000Y-102075000D02*
X201825000Y-102075000D01*
X203625000Y-95775000D02*
X203625000Y-101475000D01*
%TO.C,JST1*%
X191540000Y-102690000D02*
X192540000Y-102690000D01*
X191540000Y-103610000D02*
X191540000Y-102690000D01*
X191540000Y-107810000D02*
X191540000Y-108810000D01*
X191540000Y-108810000D02*
X192540000Y-108810000D01*
X199360000Y-102690000D02*
X198360000Y-102690000D01*
X199360000Y-103610000D02*
X199360000Y-102690000D01*
X199360000Y-107890000D02*
X199360000Y-108810000D01*
X199360000Y-108810000D02*
X198360000Y-108810000D01*
D12*
X199900000Y-106750000D02*
X200900000Y-106750000D01*
X200400000Y-104250000D02*
X200400000Y-105250000D01*
X200400000Y-107250000D02*
X200400000Y-106250000D01*
D11*
%TO.C,DISP1*%
X187860000Y-96870000D02*
X187860000Y-99530000D01*
X198140000Y-96870000D02*
X187860000Y-96870000D01*
X198140000Y-96870000D02*
X198140000Y-99530000D01*
X198140000Y-99530000D02*
X187860000Y-99530000D01*
D12*
%TO.C,D18*%
X185914394Y-133124110D02*
X186314394Y-132431290D01*
X186114394Y-132777700D02*
X185681381Y-132527700D01*
X186314394Y-132431290D02*
X186634009Y-133077700D01*
X186634009Y-133077700D02*
X185914394Y-133124110D01*
X186634009Y-133077700D02*
X186359009Y-133554014D01*
X186634009Y-133077700D02*
X186909009Y-132601386D01*
X186980419Y-133277700D02*
X186634009Y-133077700D01*
D10*
%TO.C,S2*%
X98500000Y-74800000D02*
X98000000Y-75300000D01*
X98500000Y-79300000D02*
X98000000Y-78800000D01*
X100800000Y-79300000D02*
X98500000Y-79300000D01*
X101500000Y-74800000D02*
X98500000Y-74800000D01*
X102000000Y-75300000D02*
X101500000Y-74800000D01*
X102000000Y-75300000D02*
X102000000Y-76220000D01*
X102500000Y-81500000D02*
X102500000Y-80800000D01*
X102520000Y-76800000D02*
X107000000Y-76800000D01*
X107000000Y-76800000D02*
X107000000Y-77400000D01*
X107000000Y-81000000D02*
X107000000Y-81500000D01*
X107000000Y-81500000D02*
X102500000Y-81500000D01*
X100800000Y-79300000D02*
G75*
G02*
X102500000Y-80780000I110000J-1590000D01*
G01*
X102520000Y-76799999D02*
G75*
G02*
X102000001Y-76220000I30000J549999D01*
G01*
%TO.C,S13*%
X170500000Y-89675000D02*
X170000000Y-90175000D01*
X170500000Y-94175000D02*
X170000000Y-93675000D01*
X172800000Y-94175000D02*
X170500000Y-94175000D01*
X173500000Y-89675000D02*
X170500000Y-89675000D01*
X174000000Y-90175000D02*
X173500000Y-89675000D01*
X174000000Y-90175000D02*
X174000000Y-91095000D01*
X174500000Y-96375000D02*
X174500000Y-95675000D01*
X174520000Y-91675000D02*
X179000000Y-91675000D01*
X179000000Y-91675000D02*
X179000000Y-92275000D01*
X179000000Y-95875000D02*
X179000000Y-96375000D01*
X179000000Y-96375000D02*
X174500000Y-96375000D01*
X172800000Y-94175000D02*
G75*
G02*
X174500000Y-95655000I110000J-1590000D01*
G01*
X174520000Y-91674999D02*
G75*
G02*
X174000001Y-91095000I30000J549999D01*
G01*
%TO.C,S14*%
X170500000Y-72675000D02*
X170000000Y-73175000D01*
X170500000Y-77175000D02*
X170000000Y-76675000D01*
X172800000Y-77175000D02*
X170500000Y-77175000D01*
X173500000Y-72675000D02*
X170500000Y-72675000D01*
X174000000Y-73175000D02*
X173500000Y-72675000D01*
X174000000Y-73175000D02*
X174000000Y-74095000D01*
X174500000Y-79375000D02*
X174500000Y-78675000D01*
X174520000Y-74675000D02*
X179000000Y-74675000D01*
X179000000Y-74675000D02*
X179000000Y-75275000D01*
X179000000Y-78875000D02*
X179000000Y-79375000D01*
X179000000Y-79375000D02*
X174500000Y-79375000D01*
X172800000Y-77175000D02*
G75*
G02*
X174500000Y-78655000I110000J-1590000D01*
G01*
X174520000Y-74674999D02*
G75*
G02*
X174000001Y-74095000I30000J549999D01*
G01*
%TO.C,S11*%
X152500000Y-70550000D02*
X152000000Y-71050000D01*
X152500000Y-75050000D02*
X152000000Y-74550000D01*
X154800000Y-75050000D02*
X152500000Y-75050000D01*
X155500000Y-70550000D02*
X152500000Y-70550000D01*
X156000000Y-71050000D02*
X155500000Y-70550000D01*
X156000000Y-71050000D02*
X156000000Y-71970000D01*
X156500000Y-77250000D02*
X156500000Y-76550000D01*
X156520000Y-72550000D02*
X161000000Y-72550000D01*
X161000000Y-72550000D02*
X161000000Y-73150000D01*
X161000000Y-76750000D02*
X161000000Y-77250000D01*
X161000000Y-77250000D02*
X156500000Y-77250000D01*
X154800000Y-75050000D02*
G75*
G02*
X156500000Y-76530000I110000J-1590000D01*
G01*
X156520000Y-72549999D02*
G75*
G02*
X156000001Y-71970000I30000J549999D01*
G01*
D12*
%TO.C,D5*%
X117750000Y-83350000D02*
X118350000Y-83750000D01*
X117750000Y-83750000D02*
X117250000Y-83750000D01*
X117750000Y-84150000D02*
X117750000Y-83350000D01*
X118350000Y-83750000D02*
X117750000Y-84150000D01*
X118350000Y-83750000D02*
X118350000Y-83200000D01*
X118350000Y-83750000D02*
X118350000Y-84300000D01*
X118750000Y-83750000D02*
X118350000Y-83750000D01*
%TO.C,D9*%
X135750000Y-64225000D02*
X136350000Y-64625000D01*
X135750000Y-64625000D02*
X135250000Y-64625000D01*
X135750000Y-65025000D02*
X135750000Y-64225000D01*
X136350000Y-64625000D02*
X135750000Y-65025000D01*
X136350000Y-64625000D02*
X136350000Y-64075000D01*
X136350000Y-64625000D02*
X136350000Y-65175000D01*
X136750000Y-64625000D02*
X136350000Y-64625000D01*
D10*
%TO.C,S6*%
X116500000Y-53550000D02*
X116000000Y-54050000D01*
X116500000Y-58050000D02*
X116000000Y-57550000D01*
X118800000Y-58050000D02*
X116500000Y-58050000D01*
X119500000Y-53550000D02*
X116500000Y-53550000D01*
X120000000Y-54050000D02*
X119500000Y-53550000D01*
X120000000Y-54050000D02*
X120000000Y-54970000D01*
X120500000Y-60250000D02*
X120500000Y-59550000D01*
X120520000Y-55550000D02*
X125000000Y-55550000D01*
X125000000Y-55550000D02*
X125000000Y-56150000D01*
X125000000Y-59750000D02*
X125000000Y-60250000D01*
X125000000Y-60250000D02*
X120500000Y-60250000D01*
X118800000Y-58050000D02*
G75*
G02*
X120500000Y-59530000I110000J-1590000D01*
G01*
X120520000Y-55549999D02*
G75*
G02*
X120000001Y-54970000I30000J549999D01*
G01*
D12*
%TO.C,D1*%
X99750000Y-104600000D02*
X100350000Y-105000000D01*
X99750000Y-105000000D02*
X99250000Y-105000000D01*
X99750000Y-105400000D02*
X99750000Y-104600000D01*
X100350000Y-105000000D02*
X99750000Y-105400000D01*
X100350000Y-105000000D02*
X100350000Y-104450000D01*
X100350000Y-105000000D02*
X100350000Y-105550000D01*
X100750000Y-105000000D02*
X100350000Y-105000000D01*
D10*
%TO.C,S16*%
X148900000Y-110075000D02*
X148400000Y-110575000D01*
X148900000Y-114575000D02*
X148400000Y-114075000D01*
X151200000Y-114575000D02*
X148900000Y-114575000D01*
X151900000Y-110075000D02*
X148900000Y-110075000D01*
X152400000Y-110575000D02*
X151900000Y-110075000D01*
X152400000Y-110575000D02*
X152400000Y-111495000D01*
X152900000Y-116775000D02*
X152900000Y-116075000D01*
X152920000Y-112075000D02*
X157400000Y-112075000D01*
X157400000Y-112075000D02*
X157400000Y-112675000D01*
X157400000Y-116275000D02*
X157400000Y-116775000D01*
X157400000Y-116775000D02*
X152900000Y-116775000D01*
X151200000Y-114575000D02*
G75*
G02*
X152900000Y-116055000I110000J-1590000D01*
G01*
X152920000Y-112074999D02*
G75*
G02*
X152400001Y-111495000I30000J549999D01*
G01*
D12*
%TO.C,D14*%
X171750000Y-85475000D02*
X172350000Y-85875000D01*
X171750000Y-85875000D02*
X171250000Y-85875000D01*
X171750000Y-86275000D02*
X171750000Y-85475000D01*
X172350000Y-85875000D02*
X171750000Y-86275000D01*
X172350000Y-85875000D02*
X172350000Y-85325000D01*
X172350000Y-85875000D02*
X172350000Y-86425000D01*
X172750000Y-85875000D02*
X172350000Y-85875000D01*
%TO.C,D16*%
X150150000Y-122875000D02*
X150750000Y-123275000D01*
X150150000Y-123275000D02*
X149650000Y-123275000D01*
X150150000Y-123675000D02*
X150150000Y-122875000D01*
X150750000Y-123275000D02*
X150150000Y-123675000D01*
X150750000Y-123275000D02*
X150750000Y-122725000D01*
X150750000Y-123275000D02*
X150750000Y-123825000D01*
X151150000Y-123275000D02*
X150750000Y-123275000D01*
%TO.C,D15*%
X171750000Y-68475000D02*
X172350000Y-68875000D01*
X171750000Y-68875000D02*
X171250000Y-68875000D01*
X171750000Y-69275000D02*
X171750000Y-68475000D01*
X172350000Y-68875000D02*
X171750000Y-69275000D01*
X172350000Y-68875000D02*
X172350000Y-68325000D01*
X172350000Y-68875000D02*
X172350000Y-69425000D01*
X172750000Y-68875000D02*
X172350000Y-68875000D01*
%TO.C,D10*%
X153750000Y-100350000D02*
X154350000Y-100750000D01*
X153750000Y-100750000D02*
X153250000Y-100750000D01*
X153750000Y-101150000D02*
X153750000Y-100350000D01*
X154350000Y-100750000D02*
X153750000Y-101150000D01*
X154350000Y-100750000D02*
X154350000Y-100200000D01*
X154350000Y-100750000D02*
X154350000Y-101300000D01*
X154750000Y-100750000D02*
X154350000Y-100750000D01*
%TO.C,D7*%
X135750000Y-98225000D02*
X136350000Y-98625000D01*
X135750000Y-98625000D02*
X135250000Y-98625000D01*
X135750000Y-99025000D02*
X135750000Y-98225000D01*
X136350000Y-98625000D02*
X135750000Y-99025000D01*
X136350000Y-98625000D02*
X136350000Y-98075000D01*
X136350000Y-98625000D02*
X136350000Y-99175000D01*
X136750000Y-98625000D02*
X136350000Y-98625000D01*
%TO.C,D11*%
X153750000Y-83350000D02*
X154350000Y-83750000D01*
X153750000Y-83750000D02*
X153250000Y-83750000D01*
X153750000Y-84150000D02*
X153750000Y-83350000D01*
X154350000Y-83750000D02*
X153750000Y-84150000D01*
X154350000Y-83750000D02*
X154350000Y-83200000D01*
X154350000Y-83750000D02*
X154350000Y-84300000D01*
X154750000Y-83750000D02*
X154350000Y-83750000D01*
%TO.C,D12*%
X153750000Y-66350000D02*
X154350000Y-66750000D01*
X153750000Y-66750000D02*
X153250000Y-66750000D01*
X153750000Y-67150000D02*
X153750000Y-66350000D01*
X154350000Y-66750000D02*
X153750000Y-67150000D01*
X154350000Y-66750000D02*
X154350000Y-66200000D01*
X154350000Y-66750000D02*
X154350000Y-67300000D01*
X154750000Y-66750000D02*
X154350000Y-66750000D01*
%TO.C,D4*%
X117750000Y-100350000D02*
X118350000Y-100750000D01*
X117750000Y-100750000D02*
X117250000Y-100750000D01*
X117750000Y-101150000D02*
X117750000Y-100350000D01*
X118350000Y-100750000D02*
X117750000Y-101150000D01*
X118350000Y-100750000D02*
X118350000Y-100200000D01*
X118350000Y-100750000D02*
X118350000Y-101300000D01*
X118750000Y-100750000D02*
X118350000Y-100750000D01*
D10*
%TO.C,S18*%
X189381862Y-124618206D02*
X189198849Y-123935193D01*
X191373720Y-125768206D02*
X189381862Y-124618206D01*
X191631862Y-120721092D02*
X190948849Y-120904104D01*
X191745964Y-128523462D02*
X192095964Y-127917244D01*
X194113284Y-124463142D02*
X197993078Y-126703142D01*
X194229938Y-122221092D02*
X191631862Y-120721092D01*
X194412951Y-122904104D02*
X193952951Y-123700848D01*
X194412951Y-122904104D02*
X194229938Y-122221092D01*
X195643078Y-130773462D02*
X191745964Y-128523462D01*
X195893078Y-130340449D02*
X195643078Y-130773462D01*
X197993078Y-126703142D02*
X197693078Y-127222758D01*
X191373720Y-125768206D02*
G75*
G02*
X192105963Y-127899923I-699737J-1431980D01*
G01*
X194113284Y-124463141D02*
G75*
G02*
X193952952Y-123700849I300981J461312D01*
G01*
%TO.C,S10*%
X152500000Y-87550000D02*
X152000000Y-88050000D01*
X152500000Y-92050000D02*
X152000000Y-91550000D01*
X154800000Y-92050000D02*
X152500000Y-92050000D01*
X155500000Y-87550000D02*
X152500000Y-87550000D01*
X156000000Y-88050000D02*
X155500000Y-87550000D01*
X156000000Y-88050000D02*
X156000000Y-88970000D01*
X156500000Y-94250000D02*
X156500000Y-93550000D01*
X156520000Y-89550000D02*
X161000000Y-89550000D01*
X161000000Y-89550000D02*
X161000000Y-90150000D01*
X161000000Y-93750000D02*
X161000000Y-94250000D01*
X161000000Y-94250000D02*
X156500000Y-94250000D01*
X154800000Y-92050000D02*
G75*
G02*
X156500000Y-93530000I110000J-1590000D01*
G01*
X156520000Y-89549999D02*
G75*
G02*
X156000001Y-88970000I30000J549999D01*
G01*
D12*
%TO.C,D3*%
X99750000Y-70600000D02*
X100350000Y-71000000D01*
X99750000Y-71000000D02*
X99250000Y-71000000D01*
X99750000Y-71400000D02*
X99750000Y-70600000D01*
X100350000Y-71000000D02*
X99750000Y-71400000D01*
X100350000Y-71000000D02*
X100350000Y-70450000D01*
X100350000Y-71000000D02*
X100350000Y-71550000D01*
X100750000Y-71000000D02*
X100350000Y-71000000D01*
D10*
%TO.C,S9*%
X134500000Y-51425000D02*
X134000000Y-51925000D01*
X134500000Y-55925000D02*
X134000000Y-55425000D01*
X136800000Y-55925000D02*
X134500000Y-55925000D01*
X137500000Y-51425000D02*
X134500000Y-51425000D01*
X138000000Y-51925000D02*
X137500000Y-51425000D01*
X138000000Y-51925000D02*
X138000000Y-52845000D01*
X138500000Y-58125000D02*
X138500000Y-57425000D01*
X138520000Y-53425000D02*
X143000000Y-53425000D01*
X143000000Y-53425000D02*
X143000000Y-54025000D01*
X143000000Y-57625000D02*
X143000000Y-58125000D01*
X143000000Y-58125000D02*
X138500000Y-58125000D01*
X136800000Y-55925000D02*
G75*
G02*
X138500000Y-57405000I110000J-1590000D01*
G01*
X138520000Y-53424999D02*
G75*
G02*
X138000001Y-52845000I30000J549999D01*
G01*
%TO.C,S8*%
X134500000Y-68425000D02*
X134000000Y-68925000D01*
X134500000Y-72925000D02*
X134000000Y-72425000D01*
X136800000Y-72925000D02*
X134500000Y-72925000D01*
X137500000Y-68425000D02*
X134500000Y-68425000D01*
X138000000Y-68925000D02*
X137500000Y-68425000D01*
X138000000Y-68925000D02*
X138000000Y-69845000D01*
X138500000Y-75125000D02*
X138500000Y-74425000D01*
X138520000Y-70425000D02*
X143000000Y-70425000D01*
X143000000Y-70425000D02*
X143000000Y-71025000D01*
X143000000Y-74625000D02*
X143000000Y-75125000D01*
X143000000Y-75125000D02*
X138500000Y-75125000D01*
X136800000Y-72925000D02*
G75*
G02*
X138500000Y-74405000I110000J-1590000D01*
G01*
X138520000Y-70424999D02*
G75*
G02*
X138000001Y-69845000I30000J549999D01*
G01*
D12*
%TO.C,D13*%
X171750000Y-102475000D02*
X172350000Y-102875000D01*
X171750000Y-102875000D02*
X171250000Y-102875000D01*
X171750000Y-103275000D02*
X171750000Y-102475000D01*
X172350000Y-102875000D02*
X171750000Y-103275000D01*
X172350000Y-102875000D02*
X172350000Y-102325000D01*
X172350000Y-102875000D02*
X172350000Y-103425000D01*
X172750000Y-102875000D02*
X172350000Y-102875000D01*
D10*
%TO.C,S15*%
X170500000Y-55675000D02*
X170000000Y-56175000D01*
X170500000Y-60175000D02*
X170000000Y-59675000D01*
X172800000Y-60175000D02*
X170500000Y-60175000D01*
X173500000Y-55675000D02*
X170500000Y-55675000D01*
X174000000Y-56175000D02*
X173500000Y-55675000D01*
X174000000Y-56175000D02*
X174000000Y-57095000D01*
X174500000Y-62375000D02*
X174500000Y-61675000D01*
X174520000Y-57675000D02*
X179000000Y-57675000D01*
X179000000Y-57675000D02*
X179000000Y-58275000D01*
X179000000Y-61875000D02*
X179000000Y-62375000D01*
X179000000Y-62375000D02*
X174500000Y-62375000D01*
X172800000Y-60175000D02*
G75*
G02*
X174500000Y-61655000I110000J-1590000D01*
G01*
X174520000Y-57674999D02*
G75*
G02*
X174000001Y-57095000I30000J549999D01*
G01*
D12*
%TO.C,D17*%
X168654191Y-126045266D02*
X168861246Y-125272525D01*
X168757719Y-125658895D02*
X168274756Y-125529486D01*
X168861246Y-125272525D02*
X169337274Y-125814187D01*
X169337274Y-125814187D02*
X168654191Y-126045266D01*
X169337274Y-125814187D02*
X169194924Y-126345446D01*
X169337274Y-125814187D02*
X169479625Y-125282926D01*
X169723644Y-125917714D02*
X169337274Y-125814187D01*
D10*
%TO.C,S3*%
X98500000Y-57800000D02*
X98000000Y-58300000D01*
X98500000Y-62300000D02*
X98000000Y-61800000D01*
X100800000Y-62300000D02*
X98500000Y-62300000D01*
X101500000Y-57800000D02*
X98500000Y-57800000D01*
X102000000Y-58300000D02*
X101500000Y-57800000D01*
X102000000Y-58300000D02*
X102000000Y-59220000D01*
X102500000Y-64500000D02*
X102500000Y-63800000D01*
X102520000Y-59800000D02*
X107000000Y-59800000D01*
X107000000Y-59800000D02*
X107000000Y-60400000D01*
X107000000Y-64000000D02*
X107000000Y-64500000D01*
X107000000Y-64500000D02*
X102500000Y-64500000D01*
X100800000Y-62300000D02*
G75*
G02*
X102500000Y-63780000I110000J-1590000D01*
G01*
X102520000Y-59799999D02*
G75*
G02*
X102000001Y-59220000I30000J549999D01*
G01*
D12*
%TO.C,D8*%
X135750000Y-81225000D02*
X136350000Y-81625000D01*
X135750000Y-81625000D02*
X135250000Y-81625000D01*
X135750000Y-82025000D02*
X135750000Y-81225000D01*
X136350000Y-81625000D02*
X135750000Y-82025000D01*
X136350000Y-81625000D02*
X136350000Y-81075000D01*
X136350000Y-81625000D02*
X136350000Y-82175000D01*
X136750000Y-81625000D02*
X136350000Y-81625000D01*
D10*
%TO.C,S12*%
X152500000Y-53550000D02*
X152000000Y-54050000D01*
X152500000Y-58050000D02*
X152000000Y-57550000D01*
X154800000Y-58050000D02*
X152500000Y-58050000D01*
X155500000Y-53550000D02*
X152500000Y-53550000D01*
X156000000Y-54050000D02*
X155500000Y-53550000D01*
X156000000Y-54050000D02*
X156000000Y-54970000D01*
X156500000Y-60250000D02*
X156500000Y-59550000D01*
X156520000Y-55550000D02*
X161000000Y-55550000D01*
X161000000Y-55550000D02*
X161000000Y-56150000D01*
X161000000Y-59750000D02*
X161000000Y-60250000D01*
X161000000Y-60250000D02*
X156500000Y-60250000D01*
X154800000Y-58050000D02*
G75*
G02*
X156500000Y-59530000I110000J-1590000D01*
G01*
X156520000Y-55549999D02*
G75*
G02*
X156000001Y-54970000I30000J549999D01*
G01*
%TO.C,S4*%
X116500000Y-87550000D02*
X116000000Y-88050000D01*
X116500000Y-92050000D02*
X116000000Y-91550000D01*
X118800000Y-92050000D02*
X116500000Y-92050000D01*
X119500000Y-87550000D02*
X116500000Y-87550000D01*
X120000000Y-88050000D02*
X119500000Y-87550000D01*
X120000000Y-88050000D02*
X120000000Y-88970000D01*
X120500000Y-94250000D02*
X120500000Y-93550000D01*
X120520000Y-89550000D02*
X125000000Y-89550000D01*
X125000000Y-89550000D02*
X125000000Y-90150000D01*
X125000000Y-93750000D02*
X125000000Y-94250000D01*
X125000000Y-94250000D02*
X120500000Y-94250000D01*
X118800000Y-92050000D02*
G75*
G02*
X120500000Y-93530000I110000J-1590000D01*
G01*
X120520000Y-89549999D02*
G75*
G02*
X120000001Y-88970000I30000J549999D01*
G01*
D12*
%TO.C,D6*%
X117750000Y-66350000D02*
X118350000Y-66750000D01*
X117750000Y-66750000D02*
X117250000Y-66750000D01*
X117750000Y-67150000D02*
X117750000Y-66350000D01*
X118350000Y-66750000D02*
X117750000Y-67150000D01*
X118350000Y-66750000D02*
X118350000Y-66200000D01*
X118350000Y-66750000D02*
X118350000Y-67300000D01*
X118750000Y-66750000D02*
X118350000Y-66750000D01*
D10*
%TO.C,S5*%
X116500000Y-70550000D02*
X116000000Y-71050000D01*
X116500000Y-75050000D02*
X116000000Y-74550000D01*
X118800000Y-75050000D02*
X116500000Y-75050000D01*
X119500000Y-70550000D02*
X116500000Y-70550000D01*
X120000000Y-71050000D02*
X119500000Y-70550000D01*
X120000000Y-71050000D02*
X120000000Y-71970000D01*
X120500000Y-77250000D02*
X120500000Y-76550000D01*
X120520000Y-72550000D02*
X125000000Y-72550000D01*
X125000000Y-72550000D02*
X125000000Y-73150000D01*
X125000000Y-76750000D02*
X125000000Y-77250000D01*
X125000000Y-77250000D02*
X120500000Y-77250000D01*
X118800000Y-75050000D02*
G75*
G02*
X120500000Y-76530000I110000J-1590000D01*
G01*
X120520000Y-72549999D02*
G75*
G02*
X120000001Y-71970000I30000J549999D01*
G01*
%TO.C,S1*%
X98500000Y-91800000D02*
X98000000Y-92300000D01*
X98500000Y-96300000D02*
X98000000Y-95800000D01*
X100800000Y-96300000D02*
X98500000Y-96300000D01*
X101500000Y-91800000D02*
X98500000Y-91800000D01*
X102000000Y-92300000D02*
X101500000Y-91800000D01*
X102000000Y-92300000D02*
X102000000Y-93220000D01*
X102500000Y-98500000D02*
X102500000Y-97800000D01*
X102520000Y-93800000D02*
X107000000Y-93800000D01*
X107000000Y-93800000D02*
X107000000Y-94400000D01*
X107000000Y-98000000D02*
X107000000Y-98500000D01*
X107000000Y-98500000D02*
X102500000Y-98500000D01*
X100800000Y-96300000D02*
G75*
G02*
X102500000Y-97780000I110000J-1590000D01*
G01*
X102520000Y-93799999D02*
G75*
G02*
X102000001Y-93220000I30000J549999D01*
G01*
%TO.C,S7*%
X134500000Y-85425000D02*
X134000000Y-85925000D01*
X134500000Y-89925000D02*
X134000000Y-89425000D01*
X136800000Y-89925000D02*
X134500000Y-89925000D01*
X137500000Y-85425000D02*
X134500000Y-85425000D01*
X138000000Y-85925000D02*
X137500000Y-85425000D01*
X138000000Y-85925000D02*
X138000000Y-86845000D01*
X138500000Y-92125000D02*
X138500000Y-91425000D01*
X138520000Y-87425000D02*
X143000000Y-87425000D01*
X143000000Y-87425000D02*
X143000000Y-88025000D01*
X143000000Y-91625000D02*
X143000000Y-92125000D01*
X143000000Y-92125000D02*
X138500000Y-92125000D01*
X136800000Y-89925000D02*
G75*
G02*
X138500000Y-91405000I110000J-1590000D01*
G01*
X138520000Y-87424999D02*
G75*
G02*
X138000001Y-86845000I30000J549999D01*
G01*
%TO.C,S17*%
X169802042Y-116931846D02*
X169448488Y-116319473D01*
X170966727Y-112585180D02*
X170354355Y-112938733D01*
X172023671Y-117527130D02*
X169802042Y-116931846D01*
X173096343Y-120092159D02*
X173277516Y-119416011D01*
X173864505Y-113361637D02*
X170966727Y-112585180D01*
X174218058Y-113974009D02*
X173864505Y-113361637D01*
X174218058Y-113974009D02*
X173979945Y-114862661D01*
X174332111Y-115557484D02*
X178659459Y-116716993D01*
X177443009Y-121256846D02*
X173096343Y-120092159D01*
X177572419Y-120773882D02*
X177443009Y-121256846D01*
X178659459Y-116716993D02*
X178504167Y-117296549D01*
X172023671Y-117527130D02*
G75*
G02*
X173282693Y-119396692I-305270J-1564292D01*
G01*
X174332111Y-115557483D02*
G75*
G02*
X173979945Y-114862661I171328J523494D01*
G01*
D12*
%TO.C,D2*%
X99750000Y-87600000D02*
X100350000Y-88000000D01*
X99750000Y-88000000D02*
X99250000Y-88000000D01*
X99750000Y-88400000D02*
X99750000Y-87600000D01*
X100350000Y-88000000D02*
X99750000Y-88400000D01*
X100350000Y-88000000D02*
X100350000Y-87450000D01*
X100350000Y-88000000D02*
X100350000Y-88550000D01*
X100750000Y-88000000D02*
X100350000Y-88000000D01*
%TD*%
%LPC*%
D13*
%TO.C,B1*%
X201900000Y-106375000D03*
X201900000Y-112875000D03*
%TD*%
D14*
%TO.C,MH4*%
X109000000Y-87250000D03*
%TD*%
D15*
%TO.C,S29*%
X148500000Y-78750000D03*
D16*
X149000000Y-75000000D03*
X154000000Y-72800000D03*
D17*
X154000000Y-78750000D03*
D15*
X159500000Y-78750000D03*
%TD*%
%TO.C,S25*%
X130500000Y-93625000D03*
D16*
X131000000Y-89875000D03*
X136000000Y-87675000D03*
D17*
X136000000Y-93625000D03*
D15*
X141500000Y-93625000D03*
%TD*%
D18*
%TO.C,MCU1*%
X200620000Y-63170000D03*
X200620000Y-65710000D03*
X200620000Y-68250000D03*
X200620000Y-70790000D03*
X200620000Y-73330000D03*
X200620000Y-75870000D03*
X200620000Y-78410000D03*
X200620000Y-80950000D03*
X200620000Y-83490000D03*
X200620000Y-86030000D03*
X200620000Y-88570000D03*
X200620000Y-91110000D03*
X185380000Y-91110000D03*
D19*
X187520000Y-91110000D03*
X198480000Y-91110000D03*
D18*
X185380000Y-88570000D03*
D19*
X187520000Y-88570000D03*
X198480000Y-88570000D03*
D18*
X185380000Y-86030000D03*
D19*
X187520000Y-86030000D03*
X198480000Y-86030000D03*
D18*
X185380000Y-83490000D03*
D19*
X187520000Y-83490000D03*
X198480000Y-83490000D03*
D18*
X185380000Y-80950000D03*
D19*
X187520000Y-80950000D03*
X198480000Y-80950000D03*
D18*
X185380000Y-78410000D03*
D19*
X187520000Y-78410000D03*
X198480000Y-78410000D03*
D18*
X185380000Y-75870000D03*
D19*
X187520000Y-75870000D03*
X198480000Y-75870000D03*
D18*
X185380000Y-73330000D03*
D19*
X187520000Y-73330000D03*
X198480000Y-73330000D03*
D18*
X185380000Y-70790000D03*
D19*
X187520000Y-70790000D03*
X198480000Y-70790000D03*
D18*
X185380000Y-68250000D03*
D19*
X187520000Y-68250000D03*
X198480000Y-68250000D03*
D18*
X185380000Y-65710000D03*
D19*
X187520000Y-65710000D03*
X198480000Y-65710000D03*
D18*
X185380000Y-63170000D03*
D19*
X187520000Y-63170000D03*
X198480000Y-63170000D03*
X188420000Y-63170000D03*
D20*
X196400000Y-63170000D03*
D19*
X188420000Y-65710000D03*
D20*
X196400000Y-65710000D03*
D19*
X188420000Y-68250000D03*
D20*
X196400000Y-68250000D03*
D19*
X188420000Y-70790000D03*
D20*
X196400000Y-70790000D03*
D19*
X188420000Y-73330000D03*
D20*
X196400000Y-73330000D03*
D19*
X188420000Y-75870000D03*
D20*
X196400000Y-75870000D03*
D19*
X188420000Y-78410000D03*
D20*
X196400000Y-78410000D03*
D19*
X188420000Y-80950000D03*
D20*
X196400000Y-80950000D03*
D19*
X188420000Y-83490000D03*
D20*
X196400000Y-83490000D03*
D19*
X188420000Y-86030000D03*
D20*
X196400000Y-86030000D03*
D19*
X188420000Y-88570000D03*
D20*
X196400000Y-88570000D03*
D19*
X188420000Y-91110000D03*
D20*
X196400000Y-91110000D03*
X189600000Y-91110000D03*
D19*
X197580000Y-91110000D03*
D20*
X189600000Y-88570000D03*
D19*
X197580000Y-88570000D03*
D20*
X189600000Y-86030000D03*
D19*
X197580000Y-86030000D03*
D20*
X189600000Y-83490000D03*
D19*
X197580000Y-83490000D03*
D20*
X189600000Y-80950000D03*
D19*
X197580000Y-80950000D03*
D20*
X189600000Y-78410000D03*
D19*
X197580000Y-78410000D03*
D20*
X189600000Y-75870000D03*
D19*
X197580000Y-75870000D03*
D20*
X189600000Y-73330000D03*
D19*
X197580000Y-73330000D03*
D20*
X189600000Y-70790000D03*
D19*
X197580000Y-70790000D03*
D20*
X189600000Y-68250000D03*
D19*
X197580000Y-68250000D03*
D20*
X189600000Y-65710000D03*
D19*
X197580000Y-65710000D03*
D20*
X189600000Y-63170000D03*
D19*
X197580000Y-63170000D03*
%TD*%
D15*
%TO.C,S21*%
X94500000Y-66000000D03*
D16*
X95000000Y-62250000D03*
X100000000Y-60050000D03*
D17*
X100000000Y-66000000D03*
D15*
X105500000Y-66000000D03*
%TD*%
%TO.C,S36*%
X184067760Y-125822500D03*
D16*
X186375773Y-122824905D03*
X191805900Y-123419649D03*
D17*
X188830900Y-128572500D03*
D15*
X193594040Y-131322500D03*
%TD*%
%TO.C,S22*%
X112500000Y-95750000D03*
D16*
X113000000Y-92000000D03*
X118000000Y-89800000D03*
D17*
X118000000Y-95750000D03*
D15*
X123500000Y-95750000D03*
%TD*%
D14*
%TO.C,MH5*%
X163000000Y-70250000D03*
%TD*%
%TO.C,MH6*%
X141400000Y-109775000D03*
%TD*%
D15*
%TO.C,S31*%
X166500000Y-97875000D03*
D16*
X167000000Y-94125000D03*
X172000000Y-91925000D03*
D17*
X172000000Y-97875000D03*
D15*
X177500000Y-97875000D03*
%TD*%
D21*
%TO.C,PWR1*%
X201115000Y-94975000D03*
X201115000Y-102275000D03*
D22*
X202225000Y-97125000D03*
X202225000Y-100125000D03*
D21*
X203325000Y-94975000D03*
X203325000Y-102275000D03*
D23*
X200465000Y-96375000D03*
X200465000Y-99375000D03*
X200465000Y-100875000D03*
%TD*%
D15*
%TO.C,S26*%
X130500000Y-76625000D03*
D16*
X131000000Y-72875000D03*
X136000000Y-70675000D03*
D17*
X136000000Y-76625000D03*
D15*
X141500000Y-76625000D03*
%TD*%
%TO.C,S32*%
X166500000Y-80875000D03*
D16*
X167000000Y-77125000D03*
X172000000Y-74925000D03*
D17*
X172000000Y-80875000D03*
D15*
X177500000Y-80875000D03*
%TD*%
%TO.C,S27*%
X130500000Y-59625000D03*
D16*
X131000000Y-55875000D03*
X136000000Y-53675000D03*
D17*
X136000000Y-59625000D03*
D15*
X141500000Y-59625000D03*
%TD*%
%TO.C,S33*%
X166500000Y-63875000D03*
D16*
X167000000Y-60125000D03*
X172000000Y-57925000D03*
D17*
X172000000Y-63875000D03*
D15*
X177500000Y-63875000D03*
%TD*%
%TO.C,S35*%
X164980708Y-119470495D03*
D16*
X166434242Y-115977683D03*
X171833273Y-115146741D03*
D17*
X170293300Y-120894000D03*
D15*
X175605892Y-122317505D03*
%TD*%
%TO.C,S23*%
X112500000Y-78750000D03*
D16*
X113000000Y-75000000D03*
X118000000Y-72800000D03*
D17*
X118000000Y-78750000D03*
D15*
X123500000Y-78750000D03*
%TD*%
%TO.C,S24*%
X112500000Y-61750000D03*
D16*
X113000000Y-58000000D03*
X118000000Y-55800000D03*
D17*
X118000000Y-61750000D03*
D15*
X123500000Y-61750000D03*
%TD*%
%TO.C,S34*%
X144900000Y-118275000D03*
D16*
X145400000Y-114525000D03*
X150400000Y-112325000D03*
D17*
X150400000Y-118275000D03*
D15*
X155900000Y-118275000D03*
%TD*%
%TO.C,S30*%
X148500000Y-61750000D03*
D16*
X149000000Y-58000000D03*
X154000000Y-55800000D03*
D17*
X154000000Y-61750000D03*
D15*
X159500000Y-61750000D03*
%TD*%
D24*
%TO.C,MH1*%
X185000000Y-107700000D03*
%TD*%
D15*
%TO.C,S28*%
X148500000Y-95750000D03*
D16*
X149000000Y-92000000D03*
X154000000Y-89800000D03*
D17*
X154000000Y-95750000D03*
D15*
X159500000Y-95750000D03*
%TD*%
D25*
%TO.C,JST1*%
X195816000Y-104750000D03*
X195816000Y-106750000D03*
D26*
X193000000Y-106750000D03*
X193000000Y-104750000D03*
D27*
X194800000Y-106750000D03*
X194800000Y-104750000D03*
%TD*%
D15*
%TO.C,S20*%
X94500000Y-83000000D03*
D16*
X95000000Y-79250000D03*
X100000000Y-77050000D03*
D17*
X100000000Y-83000000D03*
D15*
X105500000Y-83000000D03*
%TD*%
D24*
%TO.C,MH2*%
X201000000Y-116600000D03*
%TD*%
D15*
%TO.C,S19*%
X94500000Y-100000000D03*
D16*
X95000000Y-96250000D03*
X100000000Y-94050000D03*
D17*
X100000000Y-100000000D03*
D15*
X105500000Y-100000000D03*
%TD*%
D28*
%TO.C,DISP1*%
X189190000Y-98200000D03*
X191730000Y-98200000D03*
X194270000Y-98200000D03*
X196810000Y-98200000D03*
D29*
X196810000Y-100850000D03*
X194270000Y-100850000D03*
X191730000Y-100850000D03*
X189190000Y-100850000D03*
X196810000Y-99950000D03*
X194270000Y-99950000D03*
X191730000Y-99950000D03*
X189190000Y-99950000D03*
%TD*%
D14*
%TO.C,MH3*%
X109000000Y-70250000D03*
%TD*%
%TO.C,MH7*%
X181186600Y-115013000D03*
%TD*%
D30*
%TO.C,D18*%
X187759842Y-133727700D03*
X184901958Y-132077700D03*
%TD*%
D15*
%TO.C,S2*%
X94500000Y-83000000D03*
D16*
X100000000Y-77050000D03*
D17*
X100000000Y-83000000D03*
D16*
X105000000Y-79250000D03*
D15*
X105500000Y-83000000D03*
D31*
X96725000Y-77050000D03*
X108275000Y-79250000D03*
%TD*%
D15*
%TO.C,S13*%
X166500000Y-97875000D03*
D16*
X172000000Y-91925000D03*
D17*
X172000000Y-97875000D03*
D16*
X177000000Y-94125000D03*
D15*
X177500000Y-97875000D03*
D31*
X168725000Y-91925000D03*
X180275000Y-94125000D03*
%TD*%
D15*
%TO.C,S14*%
X166500000Y-80875000D03*
D16*
X172000000Y-74925000D03*
D17*
X172000000Y-80875000D03*
D16*
X177000000Y-77125000D03*
D15*
X177500000Y-80875000D03*
D31*
X168725000Y-74925000D03*
X180275000Y-77125000D03*
%TD*%
D15*
%TO.C,S11*%
X148500000Y-78750000D03*
D16*
X154000000Y-72800000D03*
D17*
X154000000Y-78750000D03*
D16*
X159000000Y-75000000D03*
D15*
X159500000Y-78750000D03*
D31*
X150725000Y-72800000D03*
X162275000Y-75000000D03*
%TD*%
D32*
%TO.C,D5*%
X119650000Y-83750000D03*
X116350000Y-83750000D03*
%TD*%
%TO.C,D9*%
X137650000Y-64625000D03*
X134350000Y-64625000D03*
%TD*%
D15*
%TO.C,S6*%
X112500000Y-61750000D03*
D16*
X118000000Y-55800000D03*
D17*
X118000000Y-61750000D03*
D16*
X123000000Y-58000000D03*
D15*
X123500000Y-61750000D03*
D31*
X114725000Y-55800000D03*
X126275000Y-58000000D03*
%TD*%
D32*
%TO.C,D1*%
X101650000Y-105000000D03*
X98350000Y-105000000D03*
%TD*%
D15*
%TO.C,S16*%
X144900000Y-118275000D03*
D16*
X150400000Y-112325000D03*
D17*
X150400000Y-118275000D03*
D16*
X155400000Y-114525000D03*
D15*
X155900000Y-118275000D03*
D31*
X147125000Y-112325000D03*
X158675000Y-114525000D03*
%TD*%
D32*
%TO.C,D14*%
X173650000Y-85875000D03*
X170350000Y-85875000D03*
%TD*%
%TO.C,D16*%
X152050000Y-123275000D03*
X148750000Y-123275000D03*
%TD*%
%TO.C,D15*%
X173650000Y-68875000D03*
X170350000Y-68875000D03*
%TD*%
%TO.C,D10*%
X155650000Y-100750000D03*
X152350000Y-100750000D03*
%TD*%
%TO.C,D7*%
X137650000Y-98625000D03*
X134350000Y-98625000D03*
%TD*%
%TO.C,D11*%
X155650000Y-83750000D03*
X152350000Y-83750000D03*
%TD*%
%TO.C,D12*%
X155650000Y-66750000D03*
X152350000Y-66750000D03*
%TD*%
%TO.C,D4*%
X119650000Y-100750000D03*
X116350000Y-100750000D03*
%TD*%
D15*
%TO.C,S18*%
X184067760Y-125822500D03*
D16*
X191805900Y-123419649D03*
D17*
X188830900Y-128572500D03*
D16*
X195036027Y-127824905D03*
D15*
X193594040Y-131322500D03*
D33*
X188969667Y-121782149D03*
X197872260Y-129462405D03*
%TD*%
D15*
%TO.C,S10*%
X148500000Y-95750000D03*
D16*
X154000000Y-89800000D03*
D17*
X154000000Y-95750000D03*
D16*
X159000000Y-92000000D03*
D15*
X159500000Y-95750000D03*
D31*
X150725000Y-89800000D03*
X162275000Y-92000000D03*
%TD*%
D32*
%TO.C,D3*%
X101650000Y-71000000D03*
X98350000Y-71000000D03*
%TD*%
D15*
%TO.C,S9*%
X130500000Y-59625000D03*
D16*
X136000000Y-53675000D03*
D17*
X136000000Y-59625000D03*
D16*
X141000000Y-55875000D03*
D15*
X141500000Y-59625000D03*
D31*
X132725000Y-53675000D03*
X144275000Y-55875000D03*
%TD*%
D15*
%TO.C,S8*%
X130500000Y-76625000D03*
D16*
X136000000Y-70675000D03*
D17*
X136000000Y-76625000D03*
D16*
X141000000Y-72875000D03*
D15*
X141500000Y-76625000D03*
D31*
X132725000Y-70675000D03*
X144275000Y-72875000D03*
%TD*%
D32*
%TO.C,D13*%
X173650000Y-102875000D03*
X170350000Y-102875000D03*
%TD*%
D15*
%TO.C,S15*%
X166500000Y-63875000D03*
D16*
X172000000Y-57925000D03*
D17*
X172000000Y-63875000D03*
D16*
X177000000Y-60125000D03*
D15*
X177500000Y-63875000D03*
D31*
X168725000Y-57925000D03*
X180275000Y-60125000D03*
%TD*%
D34*
%TO.C,D17*%
X170592978Y-126150650D03*
X167405422Y-125296550D03*
%TD*%
D15*
%TO.C,S3*%
X94500000Y-66000000D03*
D16*
X100000000Y-60050000D03*
D17*
X100000000Y-66000000D03*
D16*
X105000000Y-62250000D03*
D15*
X105500000Y-66000000D03*
D31*
X96725000Y-60050000D03*
X108275000Y-62250000D03*
%TD*%
D32*
%TO.C,D8*%
X137650000Y-81625000D03*
X134350000Y-81625000D03*
%TD*%
D15*
%TO.C,S12*%
X148500000Y-61750000D03*
D16*
X154000000Y-55800000D03*
D17*
X154000000Y-61750000D03*
D16*
X159000000Y-58000000D03*
D15*
X159500000Y-61750000D03*
D31*
X150725000Y-55800000D03*
X162275000Y-58000000D03*
%TD*%
D15*
%TO.C,S4*%
X112500000Y-95750000D03*
D16*
X118000000Y-89800000D03*
D17*
X118000000Y-95750000D03*
D16*
X123000000Y-92000000D03*
D15*
X123500000Y-95750000D03*
D31*
X114725000Y-89800000D03*
X126275000Y-92000000D03*
%TD*%
D32*
%TO.C,D6*%
X119650000Y-66750000D03*
X116350000Y-66750000D03*
%TD*%
D15*
%TO.C,S5*%
X112500000Y-78750000D03*
D16*
X118000000Y-72800000D03*
D17*
X118000000Y-78750000D03*
D16*
X123000000Y-75000000D03*
D15*
X123500000Y-78750000D03*
D31*
X114725000Y-72800000D03*
X126275000Y-75000000D03*
%TD*%
D15*
%TO.C,S1*%
X94500000Y-100000000D03*
D16*
X100000000Y-94050000D03*
D17*
X100000000Y-100000000D03*
D16*
X105000000Y-96250000D03*
D15*
X105500000Y-100000000D03*
D31*
X96725000Y-94050000D03*
X108275000Y-96250000D03*
%TD*%
D15*
%TO.C,S7*%
X130500000Y-93625000D03*
D16*
X136000000Y-87675000D03*
D17*
X136000000Y-93625000D03*
D16*
X141000000Y-89875000D03*
D15*
X141500000Y-93625000D03*
D31*
X132725000Y-87675000D03*
X144275000Y-89875000D03*
%TD*%
D15*
%TO.C,S17*%
X164980708Y-119470495D03*
D16*
X171833273Y-115146741D03*
D17*
X170293300Y-120894000D03*
D16*
X176093501Y-118565873D03*
D15*
X175605892Y-122317505D03*
D35*
X168669866Y-114299109D03*
X179256908Y-119413506D03*
%TD*%
D32*
%TO.C,D2*%
X101650000Y-88000000D03*
X98350000Y-88000000D03*
%TD*%
%LPD*%
M02*
