%TF.GenerationSoftware,KiCad,Pcbnew,8.0.1*%
%TF.CreationDate,2024-12-01T01:33:27+09:00*%
%TF.ProjectId,corney_island_wireless_autorouted,636f726e-6579-45f6-9973-6c616e645f77,0.2*%
%TF.SameCoordinates,Original*%
%TF.FileFunction,Soldermask,Bot*%
%TF.FilePolarity,Negative*%
%FSLAX46Y46*%
G04 Gerber Fmt 4.6, Leading zero omitted, Abs format (unit mm)*
G04 Created by KiCad (PCBNEW 8.0.1) date 2024-12-01 01:33:27*
%MOMM*%
%LPD*%
G01*
G04 APERTURE LIST*
G04 Aperture macros list*
%AMRoundRect*
0 Rectangle with rounded corners*
0 $1 Rounding radius*
0 $2 $3 $4 $5 $6 $7 $8 $9 X,Y pos of 4 corners*
0 Add a 4 corners polygon primitive as box body*
4,1,4,$2,$3,$4,$5,$6,$7,$8,$9,$2,$3,0*
0 Add four circle primitives for the rounded corners*
1,1,$1+$1,$2,$3*
1,1,$1+$1,$4,$5*
1,1,$1+$1,$6,$7*
1,1,$1+$1,$8,$9*
0 Add four rect primitives between the rounded corners*
20,1,$1+$1,$2,$3,$4,$5,0*
20,1,$1+$1,$4,$5,$6,$7,0*
20,1,$1+$1,$6,$7,$8,$9,0*
20,1,$1+$1,$8,$9,$2,$3,0*%
%AMFreePoly0*
4,1,16,0.635355,0.285355,0.650000,0.250000,0.650000,-1.000000,0.635355,-1.035355,0.600000,-1.050000,0.564645,-1.035355,0.000000,-0.470710,-0.564645,-1.035355,-0.600000,-1.050000,-0.635355,-1.035355,-0.650000,-1.000000,-0.650000,0.250000,-0.635355,0.285355,-0.600000,0.300000,0.600000,0.300000,0.635355,0.285355,0.635355,0.285355,$1*%
%AMFreePoly1*
4,1,14,0.035355,0.435355,0.635355,-0.164645,0.650000,-0.200000,0.650000,-0.400000,0.635355,-0.435355,0.600000,-0.450000,-0.600000,-0.450000,-0.635355,-0.435355,-0.650000,-0.400000,-0.650000,-0.200000,-0.635355,-0.164645,-0.035355,0.435355,0.000000,0.450000,0.035355,0.435355,0.035355,0.435355,$1*%
G04 Aperture macros list end*
%ADD10C,2.100000*%
%ADD11C,4.400000*%
%ADD12C,2.000000*%
%ADD13C,3.100000*%
%ADD14C,3.500000*%
%ADD15C,1.800000*%
%ADD16RoundRect,0.050000X-0.300000X-0.600000X0.300000X-0.600000X0.300000X0.600000X-0.300000X0.600000X0*%
%ADD17C,0.900000*%
%ADD18RoundRect,0.050000X-0.400000X0.500000X-0.400000X-0.500000X0.400000X-0.500000X0.400000X0.500000X0*%
%ADD19C,1.000000*%
%ADD20RoundRect,0.050000X-0.750000X0.350000X-0.750000X-0.350000X0.750000X-0.350000X0.750000X0.350000X0*%
%ADD21C,2.300000*%
%ADD22FreePoly0,270.000000*%
%ADD23O,1.850000X1.300000*%
%ADD24FreePoly1,270.000000*%
%ADD25O,1.800000X1.800000*%
%ADD26RoundRect,0.050000X-0.600000X0.300000X-0.600000X-0.300000X0.600000X-0.300000X0.600000X0.300000X0*%
%ADD27RoundRect,0.050000X0.689711X0.294615X-0.089711X0.744615X-0.689711X-0.294615X0.089711X-0.744615X0*%
%ADD28RoundRect,0.050000X-1.300000X-1.300000X1.300000X-1.300000X1.300000X1.300000X-1.300000X1.300000X0*%
%ADD29RoundRect,0.050000X0.450000X0.600000X-0.450000X0.600000X-0.450000X-0.600000X0.450000X-0.600000X0*%
%ADD30RoundRect,0.050000X-1.775833X-0.475833X0.475833X-1.775833X1.775833X0.475833X-0.475833X1.775833X0*%
%ADD31RoundRect,0.050000X0.589958X0.463087X-0.279375X0.696024X-0.589958X-0.463087X0.279375X-0.696024X0*%
%ADD32RoundRect,0.050000X-1.592168X-0.919239X0.919239X-1.592168X1.592168X0.919239X-0.919239X1.592168X0*%
G04 APERTURE END LIST*
D10*
%TO.C,B1*%
X201900000Y-106375000D03*
X201900000Y-112875000D03*
%TD*%
D11*
%TO.C,MH4*%
X109000000Y-87250000D03*
%TD*%
D12*
%TO.C,S29*%
X148500000Y-78750000D03*
D13*
X149000000Y-75000000D03*
X154000000Y-72800000D03*
D14*
X154000000Y-78750000D03*
D12*
X159500000Y-78750000D03*
%TD*%
%TO.C,S25*%
X130500000Y-93625000D03*
D13*
X131000000Y-89875000D03*
X136000000Y-87675000D03*
D14*
X136000000Y-93625000D03*
D12*
X141500000Y-93625000D03*
%TD*%
D15*
%TO.C,MCU1*%
X200620000Y-63170000D03*
X200620000Y-65710000D03*
X200620000Y-68250000D03*
X200620000Y-70790000D03*
X200620000Y-73330000D03*
X200620000Y-75870000D03*
X200620000Y-78410000D03*
X200620000Y-80950000D03*
X200620000Y-83490000D03*
X200620000Y-86030000D03*
X200620000Y-88570000D03*
X200620000Y-91110000D03*
X185380000Y-91110000D03*
D16*
X187520000Y-91110000D03*
X198480000Y-91110000D03*
D15*
X185380000Y-88570000D03*
D16*
X187520000Y-88570000D03*
X198480000Y-88570000D03*
D15*
X185380000Y-86030000D03*
D16*
X187520000Y-86030000D03*
X198480000Y-86030000D03*
D15*
X185380000Y-83490000D03*
D16*
X187520000Y-83490000D03*
X198480000Y-83490000D03*
D15*
X185380000Y-80950000D03*
D16*
X187520000Y-80950000D03*
X198480000Y-80950000D03*
D15*
X185380000Y-78410000D03*
D16*
X187520000Y-78410000D03*
X198480000Y-78410000D03*
D15*
X185380000Y-75870000D03*
D16*
X187520000Y-75870000D03*
X198480000Y-75870000D03*
D15*
X185380000Y-73330000D03*
D16*
X187520000Y-73330000D03*
X198480000Y-73330000D03*
D15*
X185380000Y-70790000D03*
D16*
X187520000Y-70790000D03*
X198480000Y-70790000D03*
D15*
X185380000Y-68250000D03*
D16*
X187520000Y-68250000D03*
X198480000Y-68250000D03*
D15*
X185380000Y-65710000D03*
D16*
X187520000Y-65710000D03*
X198480000Y-65710000D03*
D15*
X185380000Y-63170000D03*
D16*
X187520000Y-63170000D03*
X198480000Y-63170000D03*
X188420000Y-63170000D03*
D17*
X196400000Y-63170000D03*
D16*
X188420000Y-65710000D03*
D17*
X196400000Y-65710000D03*
D16*
X188420000Y-68250000D03*
D17*
X196400000Y-68250000D03*
D16*
X188420000Y-70790000D03*
D17*
X196400000Y-70790000D03*
D16*
X188420000Y-73330000D03*
D17*
X196400000Y-73330000D03*
D16*
X188420000Y-75870000D03*
D17*
X196400000Y-75870000D03*
D16*
X188420000Y-78410000D03*
D17*
X196400000Y-78410000D03*
D16*
X188420000Y-80950000D03*
D17*
X196400000Y-80950000D03*
D16*
X188420000Y-83490000D03*
D17*
X196400000Y-83490000D03*
D16*
X188420000Y-86030000D03*
D17*
X196400000Y-86030000D03*
D16*
X188420000Y-88570000D03*
D17*
X196400000Y-88570000D03*
D16*
X188420000Y-91110000D03*
D17*
X196400000Y-91110000D03*
X189600000Y-91110000D03*
D16*
X197580000Y-91110000D03*
D17*
X189600000Y-88570000D03*
D16*
X197580000Y-88570000D03*
D17*
X189600000Y-86030000D03*
D16*
X197580000Y-86030000D03*
D17*
X189600000Y-83490000D03*
D16*
X197580000Y-83490000D03*
D17*
X189600000Y-80950000D03*
D16*
X197580000Y-80950000D03*
D17*
X189600000Y-78410000D03*
D16*
X197580000Y-78410000D03*
D17*
X189600000Y-75870000D03*
D16*
X197580000Y-75870000D03*
D17*
X189600000Y-73330000D03*
D16*
X197580000Y-73330000D03*
D17*
X189600000Y-70790000D03*
D16*
X197580000Y-70790000D03*
D17*
X189600000Y-68250000D03*
D16*
X197580000Y-68250000D03*
D17*
X189600000Y-65710000D03*
D16*
X197580000Y-65710000D03*
D17*
X189600000Y-63170000D03*
D16*
X197580000Y-63170000D03*
%TD*%
D12*
%TO.C,S21*%
X94500000Y-66000000D03*
D13*
X95000000Y-62250000D03*
X100000000Y-60050000D03*
D14*
X100000000Y-66000000D03*
D12*
X105500000Y-66000000D03*
%TD*%
%TO.C,S36*%
X184067760Y-125822500D03*
D13*
X186375773Y-122824905D03*
X191805900Y-123419649D03*
D14*
X188830900Y-128572500D03*
D12*
X193594040Y-131322500D03*
%TD*%
%TO.C,S22*%
X112500000Y-95750000D03*
D13*
X113000000Y-92000000D03*
X118000000Y-89800000D03*
D14*
X118000000Y-95750000D03*
D12*
X123500000Y-95750000D03*
%TD*%
D11*
%TO.C,MH5*%
X163000000Y-70250000D03*
%TD*%
%TO.C,MH6*%
X141400000Y-109775000D03*
%TD*%
D12*
%TO.C,S31*%
X166500000Y-97875000D03*
D13*
X167000000Y-94125000D03*
X172000000Y-91925000D03*
D14*
X172000000Y-97875000D03*
D12*
X177500000Y-97875000D03*
%TD*%
D18*
%TO.C,PWR1*%
X201115000Y-94975000D03*
X201115000Y-102275000D03*
D19*
X202225000Y-97125000D03*
X202225000Y-100125000D03*
D18*
X203325000Y-94975000D03*
X203325000Y-102275000D03*
D20*
X200465000Y-96375000D03*
X200465000Y-99375000D03*
X200465000Y-100875000D03*
%TD*%
D12*
%TO.C,S26*%
X130500000Y-76625000D03*
D13*
X131000000Y-72875000D03*
X136000000Y-70675000D03*
D14*
X136000000Y-76625000D03*
D12*
X141500000Y-76625000D03*
%TD*%
%TO.C,S32*%
X166500000Y-80875000D03*
D13*
X167000000Y-77125000D03*
X172000000Y-74925000D03*
D14*
X172000000Y-80875000D03*
D12*
X177500000Y-80875000D03*
%TD*%
%TO.C,S27*%
X130500000Y-59625000D03*
D13*
X131000000Y-55875000D03*
X136000000Y-53675000D03*
D14*
X136000000Y-59625000D03*
D12*
X141500000Y-59625000D03*
%TD*%
%TO.C,S33*%
X166500000Y-63875000D03*
D13*
X167000000Y-60125000D03*
X172000000Y-57925000D03*
D14*
X172000000Y-63875000D03*
D12*
X177500000Y-63875000D03*
%TD*%
%TO.C,S35*%
X164980708Y-119470495D03*
D13*
X166434242Y-115977683D03*
X171833273Y-115146741D03*
D14*
X170293300Y-120894000D03*
D12*
X175605892Y-122317505D03*
%TD*%
%TO.C,S23*%
X112500000Y-78750000D03*
D13*
X113000000Y-75000000D03*
X118000000Y-72800000D03*
D14*
X118000000Y-78750000D03*
D12*
X123500000Y-78750000D03*
%TD*%
%TO.C,S24*%
X112500000Y-61750000D03*
D13*
X113000000Y-58000000D03*
X118000000Y-55800000D03*
D14*
X118000000Y-61750000D03*
D12*
X123500000Y-61750000D03*
%TD*%
%TO.C,S34*%
X144900000Y-118275000D03*
D13*
X145400000Y-114525000D03*
X150400000Y-112325000D03*
D14*
X150400000Y-118275000D03*
D12*
X155900000Y-118275000D03*
%TD*%
%TO.C,S30*%
X148500000Y-61750000D03*
D13*
X149000000Y-58000000D03*
X154000000Y-55800000D03*
D14*
X154000000Y-61750000D03*
D12*
X159500000Y-61750000D03*
%TD*%
D21*
%TO.C,MH1*%
X185000000Y-107700000D03*
%TD*%
D12*
%TO.C,S28*%
X148500000Y-95750000D03*
D13*
X149000000Y-92000000D03*
X154000000Y-89800000D03*
D14*
X154000000Y-95750000D03*
D12*
X159500000Y-95750000D03*
%TD*%
D22*
%TO.C,JST1*%
X195816000Y-104750000D03*
X195816000Y-106750000D03*
D23*
X193000000Y-106750000D03*
X193000000Y-104750000D03*
D24*
X194800000Y-106750000D03*
X194800000Y-104750000D03*
%TD*%
D12*
%TO.C,S20*%
X94500000Y-83000000D03*
D13*
X95000000Y-79250000D03*
X100000000Y-77050000D03*
D14*
X100000000Y-83000000D03*
D12*
X105500000Y-83000000D03*
%TD*%
D21*
%TO.C,MH2*%
X201000000Y-116600000D03*
%TD*%
D12*
%TO.C,S19*%
X94500000Y-100000000D03*
D13*
X95000000Y-96250000D03*
X100000000Y-94050000D03*
D14*
X100000000Y-100000000D03*
D12*
X105500000Y-100000000D03*
%TD*%
D25*
%TO.C,DISP1*%
X189190000Y-98200000D03*
X191730000Y-98200000D03*
X194270000Y-98200000D03*
X196810000Y-98200000D03*
D26*
X196810000Y-100850000D03*
X194270000Y-100850000D03*
X191730000Y-100850000D03*
X189190000Y-100850000D03*
X196810000Y-99950000D03*
X194270000Y-99950000D03*
X191730000Y-99950000D03*
X189190000Y-99950000D03*
%TD*%
D11*
%TO.C,MH3*%
X109000000Y-70250000D03*
%TD*%
%TO.C,MH7*%
X181186600Y-115013000D03*
%TD*%
D27*
%TO.C,D18*%
X187759842Y-133727700D03*
X184901958Y-132077700D03*
%TD*%
D12*
%TO.C,S2*%
X94500000Y-83000000D03*
D13*
X100000000Y-77050000D03*
D14*
X100000000Y-83000000D03*
D13*
X105000000Y-79250000D03*
D12*
X105500000Y-83000000D03*
D28*
X96725000Y-77050000D03*
X108275000Y-79250000D03*
%TD*%
D12*
%TO.C,S13*%
X166500000Y-97875000D03*
D13*
X172000000Y-91925000D03*
D14*
X172000000Y-97875000D03*
D13*
X177000000Y-94125000D03*
D12*
X177500000Y-97875000D03*
D28*
X168725000Y-91925000D03*
X180275000Y-94125000D03*
%TD*%
D12*
%TO.C,S14*%
X166500000Y-80875000D03*
D13*
X172000000Y-74925000D03*
D14*
X172000000Y-80875000D03*
D13*
X177000000Y-77125000D03*
D12*
X177500000Y-80875000D03*
D28*
X168725000Y-74925000D03*
X180275000Y-77125000D03*
%TD*%
D12*
%TO.C,S11*%
X148500000Y-78750000D03*
D13*
X154000000Y-72800000D03*
D14*
X154000000Y-78750000D03*
D13*
X159000000Y-75000000D03*
D12*
X159500000Y-78750000D03*
D28*
X150725000Y-72800000D03*
X162275000Y-75000000D03*
%TD*%
D29*
%TO.C,D5*%
X119650000Y-83750000D03*
X116350000Y-83750000D03*
%TD*%
%TO.C,D9*%
X137650000Y-64625000D03*
X134350000Y-64625000D03*
%TD*%
D12*
%TO.C,S6*%
X112500000Y-61750000D03*
D13*
X118000000Y-55800000D03*
D14*
X118000000Y-61750000D03*
D13*
X123000000Y-58000000D03*
D12*
X123500000Y-61750000D03*
D28*
X114725000Y-55800000D03*
X126275000Y-58000000D03*
%TD*%
D29*
%TO.C,D1*%
X101650000Y-105000000D03*
X98350000Y-105000000D03*
%TD*%
D12*
%TO.C,S16*%
X144900000Y-118275000D03*
D13*
X150400000Y-112325000D03*
D14*
X150400000Y-118275000D03*
D13*
X155400000Y-114525000D03*
D12*
X155900000Y-118275000D03*
D28*
X147125000Y-112325000D03*
X158675000Y-114525000D03*
%TD*%
D29*
%TO.C,D14*%
X173650000Y-85875000D03*
X170350000Y-85875000D03*
%TD*%
%TO.C,D16*%
X152050000Y-123275000D03*
X148750000Y-123275000D03*
%TD*%
%TO.C,D15*%
X173650000Y-68875000D03*
X170350000Y-68875000D03*
%TD*%
%TO.C,D10*%
X155650000Y-100750000D03*
X152350000Y-100750000D03*
%TD*%
%TO.C,D7*%
X137650000Y-98625000D03*
X134350000Y-98625000D03*
%TD*%
%TO.C,D11*%
X155650000Y-83750000D03*
X152350000Y-83750000D03*
%TD*%
%TO.C,D12*%
X155650000Y-66750000D03*
X152350000Y-66750000D03*
%TD*%
%TO.C,D4*%
X119650000Y-100750000D03*
X116350000Y-100750000D03*
%TD*%
D12*
%TO.C,S18*%
X184067760Y-125822500D03*
D13*
X191805900Y-123419649D03*
D14*
X188830900Y-128572500D03*
D13*
X195036027Y-127824905D03*
D12*
X193594040Y-131322500D03*
D30*
X188969667Y-121782149D03*
X197872260Y-129462405D03*
%TD*%
D12*
%TO.C,S10*%
X148500000Y-95750000D03*
D13*
X154000000Y-89800000D03*
D14*
X154000000Y-95750000D03*
D13*
X159000000Y-92000000D03*
D12*
X159500000Y-95750000D03*
D28*
X150725000Y-89800000D03*
X162275000Y-92000000D03*
%TD*%
D29*
%TO.C,D3*%
X101650000Y-71000000D03*
X98350000Y-71000000D03*
%TD*%
D12*
%TO.C,S9*%
X130500000Y-59625000D03*
D13*
X136000000Y-53675000D03*
D14*
X136000000Y-59625000D03*
D13*
X141000000Y-55875000D03*
D12*
X141500000Y-59625000D03*
D28*
X132725000Y-53675000D03*
X144275000Y-55875000D03*
%TD*%
D12*
%TO.C,S8*%
X130500000Y-76625000D03*
D13*
X136000000Y-70675000D03*
D14*
X136000000Y-76625000D03*
D13*
X141000000Y-72875000D03*
D12*
X141500000Y-76625000D03*
D28*
X132725000Y-70675000D03*
X144275000Y-72875000D03*
%TD*%
D29*
%TO.C,D13*%
X173650000Y-102875000D03*
X170350000Y-102875000D03*
%TD*%
D12*
%TO.C,S15*%
X166500000Y-63875000D03*
D13*
X172000000Y-57925000D03*
D14*
X172000000Y-63875000D03*
D13*
X177000000Y-60125000D03*
D12*
X177500000Y-63875000D03*
D28*
X168725000Y-57925000D03*
X180275000Y-60125000D03*
%TD*%
D31*
%TO.C,D17*%
X170592978Y-126150650D03*
X167405422Y-125296550D03*
%TD*%
D12*
%TO.C,S3*%
X94500000Y-66000000D03*
D13*
X100000000Y-60050000D03*
D14*
X100000000Y-66000000D03*
D13*
X105000000Y-62250000D03*
D12*
X105500000Y-66000000D03*
D28*
X96725000Y-60050000D03*
X108275000Y-62250000D03*
%TD*%
D29*
%TO.C,D8*%
X137650000Y-81625000D03*
X134350000Y-81625000D03*
%TD*%
D12*
%TO.C,S12*%
X148500000Y-61750000D03*
D13*
X154000000Y-55800000D03*
D14*
X154000000Y-61750000D03*
D13*
X159000000Y-58000000D03*
D12*
X159500000Y-61750000D03*
D28*
X150725000Y-55800000D03*
X162275000Y-58000000D03*
%TD*%
D12*
%TO.C,S4*%
X112500000Y-95750000D03*
D13*
X118000000Y-89800000D03*
D14*
X118000000Y-95750000D03*
D13*
X123000000Y-92000000D03*
D12*
X123500000Y-95750000D03*
D28*
X114725000Y-89800000D03*
X126275000Y-92000000D03*
%TD*%
D29*
%TO.C,D6*%
X119650000Y-66750000D03*
X116350000Y-66750000D03*
%TD*%
D12*
%TO.C,S5*%
X112500000Y-78750000D03*
D13*
X118000000Y-72800000D03*
D14*
X118000000Y-78750000D03*
D13*
X123000000Y-75000000D03*
D12*
X123500000Y-78750000D03*
D28*
X114725000Y-72800000D03*
X126275000Y-75000000D03*
%TD*%
D12*
%TO.C,S1*%
X94500000Y-100000000D03*
D13*
X100000000Y-94050000D03*
D14*
X100000000Y-100000000D03*
D13*
X105000000Y-96250000D03*
D12*
X105500000Y-100000000D03*
D28*
X96725000Y-94050000D03*
X108275000Y-96250000D03*
%TD*%
D12*
%TO.C,S7*%
X130500000Y-93625000D03*
D13*
X136000000Y-87675000D03*
D14*
X136000000Y-93625000D03*
D13*
X141000000Y-89875000D03*
D12*
X141500000Y-93625000D03*
D28*
X132725000Y-87675000D03*
X144275000Y-89875000D03*
%TD*%
D12*
%TO.C,S17*%
X164980708Y-119470495D03*
D13*
X171833273Y-115146741D03*
D14*
X170293300Y-120894000D03*
D13*
X176093501Y-118565873D03*
D12*
X175605892Y-122317505D03*
D32*
X168669866Y-114299109D03*
X179256908Y-119413506D03*
%TD*%
D29*
%TO.C,D2*%
X101650000Y-88000000D03*
X98350000Y-88000000D03*
%TD*%
M02*
