%TF.GenerationSoftware,KiCad,Pcbnew,8.0.1*%
%TF.CreationDate,2024-12-01T01:33:27+09:00*%
%TF.ProjectId,corney_island_wireless_autorouted,636f726e-6579-45f6-9973-6c616e645f77,0.2*%
%TF.SameCoordinates,Original*%
%TF.FileFunction,Copper,L2,Bot*%
%TF.FilePolarity,Positive*%
%FSLAX46Y46*%
G04 Gerber Fmt 4.6, Leading zero omitted, Abs format (unit mm)*
G04 Created by KiCad (PCBNEW 8.0.1) date 2024-12-01 01:33:27*
%MOMM*%
%LPD*%
G01*
G04 APERTURE LIST*
G04 Aperture macros list*
%AMRotRect*
0 Rectangle, with rotation*
0 The origin of the aperture is its center*
0 $1 length*
0 $2 width*
0 $3 Rotation angle, in degrees counterclockwise*
0 Add horizontal line*
21,1,$1,$2,0,0,$3*%
%AMFreePoly0*
4,1,6,0.600000,-1.000000,0.000000,-0.400000,-0.600000,-1.000000,-0.600000,0.250000,0.600000,0.250000,0.600000,-1.000000,0.600000,-1.000000,$1*%
%AMFreePoly1*
4,1,6,0.600000,-0.200000,0.600000,-0.400000,-0.600000,-0.400000,-0.600000,-0.200000,0.000000,0.400000,0.600000,-0.200000,0.600000,-0.200000,$1*%
G04 Aperture macros list end*
%TA.AperFunction,ComponentPad*%
%ADD10C,2.000000*%
%TD*%
%TA.AperFunction,ComponentPad*%
%ADD11C,1.700000*%
%TD*%
%TA.AperFunction,SMDPad,CuDef*%
%ADD12R,0.600000X1.200000*%
%TD*%
%TA.AperFunction,ComponentPad*%
%ADD13C,0.800000*%
%TD*%
%TA.AperFunction,SMDPad,CuDef*%
%ADD14R,0.800000X1.000000*%
%TD*%
%TA.AperFunction,SMDPad,CuDef*%
%ADD15R,1.500000X0.700000*%
%TD*%
%TA.AperFunction,SMDPad,CuDef*%
%ADD16FreePoly0,270.000000*%
%TD*%
%TA.AperFunction,ComponentPad*%
%ADD17O,1.750000X1.200000*%
%TD*%
%TA.AperFunction,SMDPad,CuDef*%
%ADD18FreePoly1,270.000000*%
%TD*%
%TA.AperFunction,ComponentPad*%
%ADD19O,1.700000X1.700000*%
%TD*%
%TA.AperFunction,SMDPad,CuDef*%
%ADD20R,1.200000X0.600000*%
%TD*%
%TA.AperFunction,SMDPad,CuDef*%
%ADD21RotRect,0.900000X1.200000X150.000000*%
%TD*%
%TA.AperFunction,SMDPad,CuDef*%
%ADD22R,2.600000X2.600000*%
%TD*%
%TA.AperFunction,SMDPad,CuDef*%
%ADD23R,0.900000X1.200000*%
%TD*%
%TA.AperFunction,SMDPad,CuDef*%
%ADD24RotRect,2.600000X2.600000X330.000000*%
%TD*%
%TA.AperFunction,SMDPad,CuDef*%
%ADD25RotRect,0.900000X1.200000X165.000000*%
%TD*%
%TA.AperFunction,SMDPad,CuDef*%
%ADD26RotRect,2.600000X2.600000X345.000000*%
%TD*%
%TA.AperFunction,ViaPad*%
%ADD27C,0.600000*%
%TD*%
%TA.AperFunction,Conductor*%
%ADD28C,0.200000*%
%TD*%
%TA.AperFunction,Conductor*%
%ADD29C,0.250000*%
%TD*%
G04 APERTURE END LIST*
D10*
%TO.P,B1,1*%
%TO.N,RST*%
X201900000Y-106375000D03*
%TO.P,B1,2*%
%TO.N,GND*%
X201900000Y-112875000D03*
%TD*%
D11*
%TO.P,MCU1,1*%
%TO.N,MCU1_1*%
X200620000Y-63170000D03*
%TO.P,MCU1,2*%
%TO.N,MCU1_2*%
X200620000Y-65710000D03*
%TO.P,MCU1,3*%
%TO.N,MCU1_3*%
X200620000Y-68250000D03*
%TO.P,MCU1,4*%
%TO.N,MCU1_4*%
X200620000Y-70790000D03*
%TO.P,MCU1,5*%
%TO.N,MCU1_5*%
X200620000Y-73330000D03*
%TO.P,MCU1,6*%
%TO.N,MCU1_6*%
X200620000Y-75870000D03*
%TO.P,MCU1,7*%
%TO.N,MCU1_7*%
X200620000Y-78410000D03*
%TO.P,MCU1,8*%
%TO.N,MCU1_8*%
X200620000Y-80950000D03*
%TO.P,MCU1,9*%
%TO.N,MCU1_9*%
X200620000Y-83490000D03*
%TO.P,MCU1,10*%
%TO.N,MCU1_10*%
X200620000Y-86030000D03*
%TO.P,MCU1,11*%
%TO.N,MCU1_11*%
X200620000Y-88570000D03*
%TO.P,MCU1,12*%
%TO.N,MCU1_12*%
X200620000Y-91110000D03*
%TO.P,MCU1,13*%
%TO.N,MCU1_13*%
X185380000Y-91110000D03*
D12*
X187520000Y-91110000D03*
%TO.N,MCU1_12*%
X198480000Y-91110000D03*
D11*
%TO.P,MCU1,14*%
%TO.N,MCU1_14*%
X185380000Y-88570000D03*
D12*
X187520000Y-88570000D03*
%TO.N,MCU1_11*%
X198480000Y-88570000D03*
D11*
%TO.P,MCU1,15*%
%TO.N,MCU1_15*%
X185380000Y-86030000D03*
D12*
X187520000Y-86030000D03*
%TO.N,MCU1_10*%
X198480000Y-86030000D03*
D11*
%TO.P,MCU1,16*%
%TO.N,MCU1_16*%
X185380000Y-83490000D03*
D12*
X187520000Y-83490000D03*
%TO.N,MCU1_9*%
X198480000Y-83490000D03*
D11*
%TO.P,MCU1,17*%
%TO.N,MCU1_17*%
X185380000Y-80950000D03*
D12*
X187520000Y-80950000D03*
%TO.N,MCU1_8*%
X198480000Y-80950000D03*
D11*
%TO.P,MCU1,18*%
%TO.N,MCU1_18*%
X185380000Y-78410000D03*
D12*
X187520000Y-78410000D03*
%TO.N,MCU1_7*%
X198480000Y-78410000D03*
D11*
%TO.P,MCU1,19*%
%TO.N,MCU1_19*%
X185380000Y-75870000D03*
D12*
X187520000Y-75870000D03*
%TO.N,MCU1_6*%
X198480000Y-75870000D03*
D11*
%TO.P,MCU1,20*%
%TO.N,MCU1_20*%
X185380000Y-73330000D03*
D12*
X187520000Y-73330000D03*
%TO.N,MCU1_5*%
X198480000Y-73330000D03*
D11*
%TO.P,MCU1,21*%
%TO.N,MCU1_21*%
X185380000Y-70790000D03*
D12*
X187520000Y-70790000D03*
%TO.N,MCU1_4*%
X198480000Y-70790000D03*
D11*
%TO.P,MCU1,22*%
%TO.N,MCU1_22*%
X185380000Y-68250000D03*
D12*
X187520000Y-68250000D03*
%TO.N,MCU1_3*%
X198480000Y-68250000D03*
D11*
%TO.P,MCU1,23*%
%TO.N,MCU1_23*%
X185380000Y-65710000D03*
D12*
X187520000Y-65710000D03*
%TO.N,MCU1_2*%
X198480000Y-65710000D03*
D11*
%TO.P,MCU1,24*%
%TO.N,MCU1_24*%
X185380000Y-63170000D03*
D12*
X187520000Y-63170000D03*
%TO.N,MCU1_1*%
X198480000Y-63170000D03*
%TO.P,MCU1,101*%
%TO.N,LED*%
X188420000Y-63170000D03*
D13*
X196400000Y-63170000D03*
D12*
%TO.P,MCU1,102*%
%TO.N,DAT*%
X188420000Y-65710000D03*
D13*
X196400000Y-65710000D03*
D12*
%TO.P,MCU1,103*%
%TO.N,GND*%
X188420000Y-68250000D03*
D13*
X196400000Y-68250000D03*
D12*
%TO.P,MCU1,104*%
X188420000Y-70790000D03*
D13*
X196400000Y-70790000D03*
D12*
%TO.P,MCU1,105*%
%TO.N,SDA*%
X188420000Y-73330000D03*
D13*
X196400000Y-73330000D03*
D12*
%TO.P,MCU1,106*%
%TO.N,SCL*%
X188420000Y-75870000D03*
D13*
X196400000Y-75870000D03*
D12*
%TO.P,MCU1,107*%
%TO.N,CS*%
X188420000Y-78410000D03*
D13*
X196400000Y-78410000D03*
D12*
%TO.P,MCU1,108*%
%TO.N,R0*%
X188420000Y-80950000D03*
D13*
X196400000Y-80950000D03*
D12*
%TO.P,MCU1,109*%
%TO.N,R1*%
X188420000Y-83490000D03*
D13*
X196400000Y-83490000D03*
D12*
%TO.P,MCU1,110*%
%TO.N,R2*%
X188420000Y-86030000D03*
D13*
X196400000Y-86030000D03*
D12*
%TO.P,MCU1,111*%
%TO.N,R3*%
X188420000Y-88570000D03*
D13*
X196400000Y-88570000D03*
D12*
%TO.P,MCU1,112*%
%TO.N,P9*%
X188420000Y-91110000D03*
D13*
X196400000Y-91110000D03*
%TO.P,MCU1,113*%
%TO.N,P10*%
X189600000Y-91110000D03*
D12*
X197580000Y-91110000D03*
D13*
%TO.P,MCU1,114*%
%TO.N,P16*%
X189600000Y-88570000D03*
D12*
X197580000Y-88570000D03*
D13*
%TO.P,MCU1,115*%
%TO.N,C5*%
X189600000Y-86030000D03*
D12*
X197580000Y-86030000D03*
D13*
%TO.P,MCU1,116*%
%TO.N,C4*%
X189600000Y-83490000D03*
D12*
X197580000Y-83490000D03*
D13*
%TO.P,MCU1,117*%
%TO.N,C3*%
X189600000Y-80950000D03*
D12*
X197580000Y-80950000D03*
D13*
%TO.P,MCU1,118*%
%TO.N,C2*%
X189600000Y-78410000D03*
D12*
X197580000Y-78410000D03*
D13*
%TO.P,MCU1,119*%
%TO.N,C1*%
X189600000Y-75870000D03*
D12*
X197580000Y-75870000D03*
D13*
%TO.P,MCU1,120*%
%TO.N,C0*%
X189600000Y-73330000D03*
D12*
X197580000Y-73330000D03*
D13*
%TO.P,MCU1,121*%
%TO.N,VCC*%
X189600000Y-70790000D03*
D12*
X197580000Y-70790000D03*
D13*
%TO.P,MCU1,122*%
%TO.N,RST*%
X189600000Y-68250000D03*
D12*
X197580000Y-68250000D03*
D13*
%TO.P,MCU1,123*%
%TO.N,GND*%
X189600000Y-65710000D03*
D12*
X197580000Y-65710000D03*
D13*
%TO.P,MCU1,124*%
%TO.N,RAW*%
X189600000Y-63170000D03*
D12*
X197580000Y-63170000D03*
%TD*%
D14*
%TO.P,PWR1,*%
%TO.N,*%
X201115000Y-94975000D03*
X201115000Y-102275000D03*
X203325000Y-94975000D03*
X203325000Y-102275000D03*
D15*
%TO.P,PWR1,1*%
%TO.N,BAT_P*%
X200465000Y-96375000D03*
%TO.P,PWR1,2*%
%TO.N,RAW*%
X200465000Y-99375000D03*
%TO.P,PWR1,3*%
%TO.N,N/C*%
X200465000Y-100875000D03*
%TD*%
D16*
%TO.P,JST1,1*%
%TO.N,BAT_P*%
X195816000Y-104750000D03*
%TO.P,JST1,2*%
%TO.N,GND*%
X195816000Y-106750000D03*
D17*
%TO.P,JST1,11*%
%TO.N,JST1_1*%
X193000000Y-106750000D03*
%TO.P,JST1,12*%
%TO.N,JST1_2*%
X193000000Y-104750000D03*
D18*
%TO.P,JST1,31*%
%TO.N,JST1_1*%
X194800000Y-106750000D03*
%TO.P,JST1,32*%
%TO.N,JST1_2*%
X194800000Y-104750000D03*
%TD*%
D19*
%TO.P,DISP1,1*%
%TO.N,DISP1_1*%
X189190000Y-98200000D03*
%TO.P,DISP1,2*%
%TO.N,DISP1_2*%
X191730000Y-98200000D03*
%TO.P,DISP1,3*%
%TO.N,DISP1_3*%
X194270000Y-98200000D03*
%TO.P,DISP1,4*%
%TO.N,DISP1_4*%
X196810000Y-98200000D03*
D20*
%TO.P,DISP1,20*%
%TO.N,GND*%
X196810000Y-100850000D03*
%TO.P,DISP1,21*%
%TO.N,VCC*%
X194270000Y-100850000D03*
%TO.P,DISP1,22*%
%TO.N,SCL*%
X191730000Y-100850000D03*
%TO.P,DISP1,23*%
%TO.N,SDA*%
X189190000Y-100850000D03*
%TO.P,DISP1,24*%
%TO.N,DISP1_4*%
X196810000Y-99950000D03*
%TO.P,DISP1,25*%
%TO.N,DISP1_3*%
X194270000Y-99950000D03*
%TO.P,DISP1,26*%
%TO.N,DISP1_2*%
X191730000Y-99950000D03*
%TO.P,DISP1,27*%
%TO.N,DISP1_1*%
X189190000Y-99950000D03*
%TD*%
D21*
%TO.P,D18,1*%
%TO.N,R3*%
X187759842Y-133727700D03*
%TO.P,D18,2*%
%TO.N,far_home_B*%
X184901958Y-132077700D03*
%TD*%
D22*
%TO.P,S2,1*%
%TO.N,C1*%
X96725000Y-77050000D03*
%TO.P,S2,2*%
%TO.N,pinky_home_B*%
X108275000Y-79250000D03*
%TD*%
%TO.P,S13,1*%
%TO.N,C5*%
X168725000Y-91925000D03*
%TO.P,S13,2*%
%TO.N,inner_bottom_B*%
X180275000Y-94125000D03*
%TD*%
%TO.P,S14,1*%
%TO.N,C5*%
X168725000Y-74925000D03*
%TO.P,S14,2*%
%TO.N,inner_home_B*%
X180275000Y-77125000D03*
%TD*%
%TO.P,S11,1*%
%TO.N,C4*%
X150725000Y-72800000D03*
%TO.P,S11,2*%
%TO.N,index_home_B*%
X162275000Y-75000000D03*
%TD*%
D23*
%TO.P,D5,1*%
%TO.N,R1*%
X119650000Y-83750000D03*
%TO.P,D5,2*%
%TO.N,ring_home_B*%
X116350000Y-83750000D03*
%TD*%
%TO.P,D9,1*%
%TO.N,R0*%
X137650000Y-64625000D03*
%TO.P,D9,2*%
%TO.N,middle_top_B*%
X134350000Y-64625000D03*
%TD*%
D22*
%TO.P,S6,1*%
%TO.N,C2*%
X114725000Y-55800000D03*
%TO.P,S6,2*%
%TO.N,ring_top_B*%
X126275000Y-58000000D03*
%TD*%
D23*
%TO.P,D1,1*%
%TO.N,R2*%
X101650000Y-105000000D03*
%TO.P,D1,2*%
%TO.N,pinky_bottom_B*%
X98350000Y-105000000D03*
%TD*%
D22*
%TO.P,S16,1*%
%TO.N,C3*%
X147125000Y-112325000D03*
%TO.P,S16,2*%
%TO.N,near_home_B*%
X158675000Y-114525000D03*
%TD*%
D23*
%TO.P,D14,1*%
%TO.N,R1*%
X173650000Y-85875000D03*
%TO.P,D14,2*%
%TO.N,inner_home_B*%
X170350000Y-85875000D03*
%TD*%
%TO.P,D16,1*%
%TO.N,R3*%
X152050000Y-123275000D03*
%TO.P,D16,2*%
%TO.N,near_home_B*%
X148750000Y-123275000D03*
%TD*%
%TO.P,D15,1*%
%TO.N,R0*%
X173650000Y-68875000D03*
%TO.P,D15,2*%
%TO.N,inner_top_B*%
X170350000Y-68875000D03*
%TD*%
%TO.P,D10,1*%
%TO.N,R2*%
X155650000Y-100750000D03*
%TO.P,D10,2*%
%TO.N,index_bottom_B*%
X152350000Y-100750000D03*
%TD*%
%TO.P,D7,1*%
%TO.N,R2*%
X137650000Y-98625000D03*
%TO.P,D7,2*%
%TO.N,middle_bottom_B*%
X134350000Y-98625000D03*
%TD*%
%TO.P,D11,1*%
%TO.N,R1*%
X155650000Y-83750000D03*
%TO.P,D11,2*%
%TO.N,index_home_B*%
X152350000Y-83750000D03*
%TD*%
%TO.P,D12,1*%
%TO.N,R0*%
X155650000Y-66750000D03*
%TO.P,D12,2*%
%TO.N,index_top_B*%
X152350000Y-66750000D03*
%TD*%
%TO.P,D4,1*%
%TO.N,R2*%
X119650000Y-100750000D03*
%TO.P,D4,2*%
%TO.N,ring_bottom_B*%
X116350000Y-100750000D03*
%TD*%
D24*
%TO.P,S18,1*%
%TO.N,C5*%
X188969667Y-121782149D03*
%TO.P,S18,2*%
%TO.N,far_home_B*%
X197872260Y-129462405D03*
%TD*%
D22*
%TO.P,S10,1*%
%TO.N,C4*%
X150725000Y-89800000D03*
%TO.P,S10,2*%
%TO.N,index_bottom_B*%
X162275000Y-92000000D03*
%TD*%
D23*
%TO.P,D3,1*%
%TO.N,R0*%
X101650000Y-71000000D03*
%TO.P,D3,2*%
%TO.N,pinky_top_B*%
X98350000Y-71000000D03*
%TD*%
D22*
%TO.P,S9,1*%
%TO.N,C3*%
X132725000Y-53675000D03*
%TO.P,S9,2*%
%TO.N,middle_top_B*%
X144275000Y-55875000D03*
%TD*%
%TO.P,S8,1*%
%TO.N,C3*%
X132725000Y-70675000D03*
%TO.P,S8,2*%
%TO.N,middle_home_B*%
X144275000Y-72875000D03*
%TD*%
D23*
%TO.P,D13,1*%
%TO.N,R2*%
X173650000Y-102875000D03*
%TO.P,D13,2*%
%TO.N,inner_bottom_B*%
X170350000Y-102875000D03*
%TD*%
D22*
%TO.P,S15,1*%
%TO.N,C5*%
X168725000Y-57925000D03*
%TO.P,S15,2*%
%TO.N,inner_top_B*%
X180275000Y-60125000D03*
%TD*%
D25*
%TO.P,D17,1*%
%TO.N,R3*%
X170592978Y-126150650D03*
%TO.P,D17,2*%
%TO.N,mid_home_B*%
X167405422Y-125296550D03*
%TD*%
D22*
%TO.P,S3,1*%
%TO.N,C1*%
X96725000Y-60050000D03*
%TO.P,S3,2*%
%TO.N,pinky_top_B*%
X108275000Y-62250000D03*
%TD*%
D23*
%TO.P,D8,1*%
%TO.N,R1*%
X137650000Y-81625000D03*
%TO.P,D8,2*%
%TO.N,middle_home_B*%
X134350000Y-81625000D03*
%TD*%
D22*
%TO.P,S12,1*%
%TO.N,C4*%
X150725000Y-55800000D03*
%TO.P,S12,2*%
%TO.N,index_top_B*%
X162275000Y-58000000D03*
%TD*%
%TO.P,S4,1*%
%TO.N,C2*%
X114725000Y-89800000D03*
%TO.P,S4,2*%
%TO.N,ring_bottom_B*%
X126275000Y-92000000D03*
%TD*%
D23*
%TO.P,D6,1*%
%TO.N,R0*%
X119650000Y-66750000D03*
%TO.P,D6,2*%
%TO.N,ring_top_B*%
X116350000Y-66750000D03*
%TD*%
D22*
%TO.P,S5,1*%
%TO.N,C2*%
X114725000Y-72800000D03*
%TO.P,S5,2*%
%TO.N,ring_home_B*%
X126275000Y-75000000D03*
%TD*%
%TO.P,S1,1*%
%TO.N,C1*%
X96725000Y-94050000D03*
%TO.P,S1,2*%
%TO.N,pinky_bottom_B*%
X108275000Y-96250000D03*
%TD*%
%TO.P,S7,1*%
%TO.N,C3*%
X132725000Y-87675000D03*
%TO.P,S7,2*%
%TO.N,middle_bottom_B*%
X144275000Y-89875000D03*
%TD*%
D26*
%TO.P,S17,1*%
%TO.N,C4*%
X168669866Y-114299109D03*
%TO.P,S17,2*%
%TO.N,mid_home_B*%
X179256908Y-119413506D03*
%TD*%
D23*
%TO.P,D2,1*%
%TO.N,R1*%
X101650000Y-88000000D03*
%TO.P,D2,2*%
%TO.N,pinky_home_B*%
X98350000Y-88000000D03*
%TD*%
D27*
%TO.N,R3*%
X187227000Y-116500000D03*
%TO.N,R0*%
X155550000Y-65350000D03*
X138800000Y-64625000D03*
X102900000Y-71000000D03*
%TO.N,C1*%
X103275000Y-73000000D03*
%TO.N,VCC*%
X193639167Y-101700910D03*
%TO.N,GND*%
X198342914Y-95922835D03*
%TO.N,R3*%
X188000000Y-131400000D03*
X171571164Y-127128836D03*
%TO.N,C1*%
X97300000Y-91700000D03*
%TO.N,GND*%
X196963200Y-92888300D03*
X188420000Y-67135000D03*
%TO.N,C2*%
X120723300Y-58003500D03*
X181900000Y-83200000D03*
X120723300Y-75386500D03*
X121275000Y-87028000D03*
%TO.N,C3*%
X147032700Y-110513500D03*
X138923800Y-84075500D03*
X138931600Y-68529700D03*
X138700000Y-51394700D03*
X176929500Y-71556900D03*
%TO.N,C4*%
X174996700Y-112800800D03*
X156883900Y-77533800D03*
X152860800Y-53742500D03*
X157275000Y-87028000D03*
%TO.N,C5*%
X194642100Y-119474400D03*
X176169100Y-72303700D03*
X174893400Y-87247200D03*
X174700000Y-55800000D03*
%TO.N,R2*%
X172692700Y-102836700D03*
X102611200Y-104831300D03*
X120571600Y-101671600D03*
X138619600Y-98880500D03*
X156605500Y-100855500D03*
%TO.N,R1*%
X172695200Y-86015500D03*
X137650000Y-80513600D03*
X156626500Y-83472500D03*
X120614900Y-84045000D03*
X102534100Y-87115900D03*
%TO.N,R0*%
X156700000Y-69100000D03*
X172686000Y-69270500D03*
X118693400Y-66750000D03*
%TO.N,R3*%
X187227000Y-92903100D03*
X153002100Y-123258900D03*
%TO.N,RAW*%
X199075800Y-99375000D03*
%TO.N,SDA*%
X195905900Y-101739200D03*
X193194500Y-74618500D03*
%TO.N,SCL*%
X193796200Y-76613700D03*
X193100000Y-100900000D03*
%TO.N,BAT_P*%
X199300000Y-96100000D03*
X195100000Y-109300000D03*
%TD*%
D28*
%TO.N,far_home_B*%
X184100000Y-132879658D02*
X184901958Y-132077700D01*
X191834665Y-135500000D02*
X185700000Y-135500000D01*
X197872260Y-129462405D02*
X191834665Y-135500000D01*
X185700000Y-135500000D02*
X184100000Y-133900000D01*
X184100000Y-133900000D02*
X184100000Y-132879658D01*
%TO.N,R3*%
X187300000Y-130700000D02*
X188000000Y-131400000D01*
X182000000Y-121700000D02*
X182000000Y-127700000D01*
X184627000Y-119100000D02*
X184600000Y-119100000D01*
X184600000Y-119100000D02*
X182000000Y-121700000D01*
X187227000Y-116500000D02*
X184627000Y-119100000D01*
X182000000Y-127700000D02*
X185000000Y-130700000D01*
X185000000Y-130700000D02*
X187300000Y-130700000D01*
%TO.N,C5*%
X191277400Y-119474400D02*
X194642100Y-119474400D01*
X190800000Y-119951800D02*
X191277400Y-119474400D01*
X190800000Y-120000000D02*
X190800000Y-119951800D01*
X188969700Y-121782100D02*
X190751800Y-120000000D01*
X190751800Y-120000000D02*
X190800000Y-120000000D01*
%TO.N,C1*%
X97300000Y-91700000D02*
X96725000Y-92275000D01*
X96725000Y-92275000D02*
X96725000Y-94050000D01*
%TO.N,C2*%
X116572000Y-87028000D02*
X121275000Y-87028000D01*
X114725000Y-88875000D02*
X116572000Y-87028000D01*
X114725000Y-89800000D02*
X114725000Y-88875000D01*
%TO.N,C3*%
X135224500Y-84075500D02*
X138923800Y-84075500D01*
X132725000Y-86575000D02*
X135224500Y-84075500D01*
X132725000Y-87675000D02*
X132725000Y-86575000D01*
%TO.N,C4*%
X150725000Y-88875000D02*
X152572000Y-87028000D01*
X152572000Y-87028000D02*
X157275000Y-87028000D01*
X150725000Y-89800000D02*
X150725000Y-88875000D01*
%TO.N,C5*%
X172095686Y-87247200D02*
X174893400Y-87247200D01*
X170587800Y-87612200D02*
X171730686Y-87612200D01*
X168725000Y-91925000D02*
X168725000Y-89475000D01*
X168725000Y-89475000D02*
X170587800Y-87612200D01*
X171730686Y-87612200D02*
X172095686Y-87247200D01*
%TO.N,C2*%
X123657800Y-84645200D02*
X121275000Y-87028000D01*
X135164000Y-83430000D02*
X133948800Y-84645200D01*
X139380200Y-83430000D02*
X135164000Y-83430000D01*
X141734600Y-85784400D02*
X139380200Y-83430000D01*
X168205700Y-85784400D02*
X141734600Y-85784400D01*
X169633500Y-87212200D02*
X168205700Y-85784400D01*
X133948800Y-84645200D02*
X123657800Y-84645200D01*
X171565000Y-87212200D02*
X169633500Y-87212200D01*
X171966700Y-86810500D02*
X171565000Y-87212200D01*
X174479000Y-86810500D02*
X171966700Y-86810500D01*
X181439700Y-83660300D02*
X177629200Y-83660300D01*
X177629200Y-83660300D02*
X174479000Y-86810500D01*
X181900000Y-83200000D02*
X181439700Y-83660300D01*
%TO.N,C5*%
X168725000Y-56375000D02*
X168725000Y-57925000D01*
X174100000Y-55200000D02*
X169900000Y-55200000D01*
X174700000Y-55800000D02*
X174100000Y-55200000D01*
X169900000Y-55200000D02*
X168725000Y-56375000D01*
%TO.N,R0*%
X155550000Y-65350000D02*
X154825000Y-64625000D01*
X155650000Y-65450000D02*
X155550000Y-65350000D01*
X164525400Y-67508900D02*
X167212700Y-70196200D01*
X159346500Y-69465300D02*
X161302900Y-67508900D01*
X157065300Y-69465300D02*
X159346500Y-69465300D01*
X167212700Y-70196200D02*
X172686000Y-70196200D01*
X156700000Y-69100000D02*
X157065300Y-69465300D01*
X161302900Y-67508900D02*
X164525400Y-67508900D01*
X154825000Y-64625000D02*
X137650000Y-64625000D01*
X155650000Y-66750000D02*
X155650000Y-65450000D01*
%TO.N,index_top_B*%
X156264600Y-67651700D02*
X162275000Y-61641300D01*
X162275000Y-61641300D02*
X162275000Y-58000000D01*
X152751700Y-67651700D02*
X156264600Y-67651700D01*
X152350000Y-66750000D02*
X152350000Y-67250000D01*
X152350000Y-67250000D02*
X152751700Y-67651700D01*
%TO.N,middle_top_B*%
X144275000Y-61625000D02*
X144275000Y-55875000D01*
X142900000Y-63000000D02*
X144275000Y-61625000D01*
X136800000Y-63000000D02*
X142900000Y-63000000D01*
X134350000Y-64625000D02*
X135175000Y-64625000D01*
X135175000Y-64625000D02*
X136800000Y-63000000D01*
%TO.N,C3*%
X134300000Y-50800000D02*
X132725000Y-52375000D01*
X138105300Y-50800000D02*
X134300000Y-50800000D01*
X132725000Y-52375000D02*
X132725000Y-53675000D01*
X138700000Y-51394700D02*
X138105300Y-50800000D01*
%TO.N,R0*%
X101650000Y-71000000D02*
X102900000Y-71000000D01*
X115775000Y-67651700D02*
X117791700Y-67651700D01*
X115669800Y-67546500D02*
X115775000Y-67651700D01*
X103714500Y-71000000D02*
X107168000Y-67546500D01*
X107168000Y-67546500D02*
X115669800Y-67546500D01*
X117791700Y-67651700D02*
X118693400Y-66750000D01*
X102900000Y-71000000D02*
X103714500Y-71000000D01*
%TO.N,C1*%
X189121800Y-74600000D02*
X190171800Y-75650000D01*
X183052300Y-74600000D02*
X189121800Y-74600000D01*
X173061400Y-67938500D02*
X176390800Y-67938500D01*
X176390800Y-67938500D02*
X183052300Y-74600000D01*
X167483600Y-69776700D02*
X171223200Y-69776700D01*
X171223200Y-69776700D02*
X173061400Y-67938500D01*
X160920600Y-67078600D02*
X164785500Y-67078600D01*
X164785500Y-67078600D02*
X167483600Y-69776700D01*
X119995400Y-67905400D02*
X140606700Y-67905400D01*
X117729100Y-70171700D02*
X119995400Y-67905400D01*
X113128300Y-70171700D02*
X117729100Y-70171700D01*
X110334900Y-72965100D02*
X113128300Y-70171700D01*
X140606700Y-67905400D02*
X140781000Y-68079700D01*
X103309900Y-72965100D02*
X110334900Y-72965100D01*
X103275000Y-73000000D02*
X103309900Y-72965100D01*
X140781000Y-68079700D02*
X159919500Y-68079700D01*
X159919500Y-68079700D02*
X160920600Y-67078600D01*
X103197900Y-73077100D02*
X97477100Y-73077100D01*
X103275000Y-73000000D02*
X103197900Y-73077100D01*
X97477100Y-73077100D02*
X96725000Y-73829200D01*
X97589100Y-72965100D02*
X97477100Y-73077100D01*
X91700000Y-72025000D02*
X96725000Y-77050000D01*
X91700000Y-59800000D02*
X91700000Y-72025000D01*
X96725000Y-59025000D02*
X96000000Y-58300000D01*
X96000000Y-58300000D02*
X93200000Y-58300000D01*
X96725000Y-60050000D02*
X96725000Y-59025000D01*
X93200000Y-58300000D02*
X91700000Y-59800000D01*
%TO.N,SCL*%
X193050000Y-100850000D02*
X191730000Y-100850000D01*
X193100000Y-100900000D02*
X193050000Y-100850000D01*
%TO.N,VCC*%
X194270000Y-101070077D02*
X193639167Y-101700910D01*
X194270000Y-100850000D02*
X194270000Y-101070077D01*
%TO.N,SDA*%
X195345100Y-102300000D02*
X195905900Y-101739200D01*
X191541700Y-102300000D02*
X195345100Y-102300000D01*
X190091700Y-100850000D02*
X191541700Y-102300000D01*
X189190000Y-100850000D02*
X190091700Y-100850000D01*
%TO.N,GND*%
X198342914Y-100117086D02*
X198342914Y-95922835D01*
X197610000Y-100850000D02*
X198342914Y-100117086D01*
X196810000Y-100850000D02*
X197610000Y-100850000D01*
%TO.N,BAT_P*%
X198900000Y-93700000D02*
X198900000Y-95700000D01*
X198900000Y-95700000D02*
X199300000Y-96100000D01*
X188036700Y-101900000D02*
X188968350Y-102831650D01*
X192131200Y-93600000D02*
X188036700Y-97694500D01*
X198800000Y-93600000D02*
X192131200Y-93600000D01*
X188036700Y-97694500D02*
X188036700Y-101900000D01*
X198900000Y-93700000D02*
X198800000Y-93600000D01*
X189924900Y-103788200D02*
X188968350Y-102831650D01*
X191000000Y-109300000D02*
X189924900Y-108224900D01*
X195100000Y-109300000D02*
X191000000Y-109300000D01*
X188968350Y-102831650D02*
X189136700Y-103000000D01*
X189924900Y-108224900D02*
X189924900Y-103788200D01*
X199575000Y-96375000D02*
X200465000Y-96375000D01*
X199300000Y-96100000D02*
X199575000Y-96375000D01*
X195816000Y-103716000D02*
X195816000Y-104750000D01*
X195100000Y-103000000D02*
X195816000Y-103716000D01*
X189136700Y-103000000D02*
X195100000Y-103000000D01*
%TO.N,GND*%
X196810000Y-101792400D02*
X197300000Y-102282400D01*
X196810000Y-100850000D02*
X196810000Y-101792400D01*
X197300000Y-105817700D02*
X197300000Y-102282400D01*
X196367700Y-106750000D02*
X197300000Y-105817700D01*
X195816000Y-106750000D02*
X196367700Y-106750000D01*
X195816000Y-109616000D02*
X195816000Y-106750000D01*
X199075000Y-112875000D02*
X195816000Y-109616000D01*
X201900000Y-112875000D02*
X199075000Y-112875000D01*
%TO.N,R3*%
X187759842Y-133727700D02*
X188000000Y-133487542D01*
X188000000Y-133487542D02*
X188000000Y-131400000D01*
X170592978Y-126150650D02*
X171571164Y-127128836D01*
D29*
%TO.N,C1*%
X190171800Y-75650000D02*
X189820000Y-75650000D01*
D28*
X96725000Y-73829200D02*
X96725000Y-77050000D01*
X189820000Y-75650000D02*
X189600000Y-75870000D01*
D29*
X197580000Y-75870000D02*
X197425000Y-75870000D01*
X197425000Y-75870000D02*
X196700000Y-75145000D01*
X195595000Y-75650000D02*
X190171800Y-75650000D01*
X196700000Y-75145000D02*
X196100000Y-75145000D01*
X196100000Y-75145000D02*
X195595000Y-75650000D01*
X197775000Y-75870000D02*
X197580000Y-75870000D01*
D28*
%TO.N,pinky_bottom_B*%
X108275000Y-99364000D02*
X108275000Y-96250000D01*
X105054100Y-102584900D02*
X108275000Y-99364000D01*
X98350000Y-105000000D02*
X99101700Y-105000000D01*
X99101700Y-105000000D02*
X101516800Y-102584900D01*
X101516800Y-102584900D02*
X105054100Y-102584900D01*
D29*
%TO.N,GND*%
X188575000Y-70790000D02*
X189300000Y-71515000D01*
D28*
X189820000Y-65490000D02*
X189600000Y-65710000D01*
D29*
X196700000Y-64985000D02*
X196100000Y-64985000D01*
X197425000Y-65710000D02*
X196700000Y-64985000D01*
X189900000Y-71515000D02*
X190395000Y-71020000D01*
X189900000Y-68975000D02*
X190395000Y-68480000D01*
X195595000Y-65490000D02*
X189820000Y-65490000D01*
X190395000Y-71020000D02*
X196170000Y-71020000D01*
X188225000Y-68250000D02*
X188420000Y-68250000D01*
X188575000Y-68250000D02*
X189300000Y-68975000D01*
D28*
X188497500Y-68250000D02*
X188497500Y-67212500D01*
X188497500Y-67212500D02*
X188420000Y-67135000D01*
D29*
X188420000Y-70790000D02*
X188575000Y-70790000D01*
X189300000Y-71515000D02*
X189900000Y-71515000D01*
X190395000Y-68480000D02*
X196170000Y-68480000D01*
D28*
X196170000Y-68480000D02*
X196400000Y-68250000D01*
D29*
X188497500Y-68250000D02*
X188575000Y-68250000D01*
X197580000Y-65710000D02*
X197425000Y-65710000D01*
D28*
X196170000Y-71020000D02*
X196400000Y-70790000D01*
D29*
X188420000Y-68250000D02*
X188497500Y-68250000D01*
X188225000Y-70790000D02*
X188420000Y-70790000D01*
X196100000Y-64985000D02*
X195595000Y-65490000D01*
X197775000Y-65710000D02*
X197580000Y-65710000D01*
X189300000Y-68975000D02*
X189900000Y-68975000D01*
D28*
%TO.N,pinky_home_B*%
X99101700Y-87248300D02*
X105030100Y-81319900D01*
X99101700Y-88000000D02*
X99101700Y-87248300D01*
X105030100Y-81319900D02*
X106205100Y-81319900D01*
X98350000Y-88000000D02*
X99101700Y-88000000D01*
X106205100Y-81319900D02*
X108275000Y-79250000D01*
%TO.N,pinky_top_B*%
X98350000Y-71000000D02*
X99101700Y-71000000D01*
X99101700Y-71000000D02*
X100546700Y-69555000D01*
X108275000Y-65366700D02*
X108275000Y-62250000D01*
X104086700Y-69555000D02*
X108275000Y-65366700D01*
X100546700Y-69555000D02*
X104086700Y-69555000D01*
%TO.N,C2*%
X117311500Y-75386500D02*
X120723300Y-75386500D01*
X116928500Y-58003500D02*
X120723300Y-58003500D01*
D29*
X195595000Y-78190000D02*
X189820000Y-78190000D01*
X196700000Y-77685000D02*
X196100000Y-77685000D01*
D28*
X114725000Y-72800000D02*
X117311500Y-75386500D01*
D29*
X197580000Y-78410000D02*
X197425000Y-78410000D01*
X196100000Y-77685000D02*
X195595000Y-78190000D01*
D28*
X114725000Y-55800000D02*
X116928500Y-58003500D01*
D29*
X197425000Y-78410000D02*
X196700000Y-77685000D01*
X197775000Y-78410000D02*
X197580000Y-78410000D01*
D28*
X189820000Y-78190000D02*
X189600000Y-78410000D01*
%TO.N,ring_bottom_B*%
X116350000Y-100750000D02*
X117101700Y-100750000D01*
X120600000Y-97251700D02*
X124134700Y-97251700D01*
X124134700Y-97251700D02*
X126275000Y-95111400D01*
X117101700Y-100750000D02*
X120600000Y-97251700D01*
X126275000Y-95111400D02*
X126275000Y-92000000D01*
%TO.N,ring_home_B*%
X126275000Y-78104000D02*
X126275000Y-75000000D01*
X116350000Y-83750000D02*
X117101700Y-83750000D01*
X122453200Y-81925800D02*
X126275000Y-78104000D01*
X118925900Y-81925800D02*
X122453200Y-81925800D01*
X117101700Y-83750000D02*
X118925900Y-81925800D01*
%TO.N,ring_top_B*%
X124134700Y-63251700D02*
X126275000Y-61111400D01*
X120600000Y-63251700D02*
X124134700Y-63251700D01*
X117101700Y-66750000D02*
X120600000Y-63251700D01*
X116350000Y-66750000D02*
X117101700Y-66750000D01*
X126275000Y-61111400D02*
X126275000Y-58000000D01*
D29*
%TO.N,C3*%
X196100000Y-80225000D02*
X195595000Y-80730000D01*
X197775000Y-80950000D02*
X197580000Y-80950000D01*
X197425000Y-80950000D02*
X196700000Y-80225000D01*
D28*
X147125000Y-110605800D02*
X147032700Y-110513500D01*
D29*
X197580000Y-80950000D02*
X197425000Y-80950000D01*
X196700000Y-80225000D02*
X196100000Y-80225000D01*
D28*
X165514000Y-71556900D02*
X164084300Y-72986600D01*
X176929500Y-71556900D02*
X165514000Y-71556900D01*
X140526700Y-70124800D02*
X138931600Y-68529700D01*
X134870300Y-68529700D02*
X138931600Y-68529700D01*
X132725000Y-70675000D02*
X134870300Y-68529700D01*
X147125000Y-112325000D02*
X147125000Y-110605800D01*
X160336600Y-72986600D02*
X157474800Y-70124800D01*
X157474800Y-70124800D02*
X140526700Y-70124800D01*
X164084300Y-72986600D02*
X160336600Y-72986600D01*
D29*
X195595000Y-80730000D02*
X189820000Y-80730000D01*
D28*
X189820000Y-80730000D02*
X189600000Y-80950000D01*
%TO.N,middle_bottom_B*%
X138429000Y-95297700D02*
X141970900Y-95297700D01*
X135101700Y-98625000D02*
X138429000Y-95297700D01*
X141970900Y-95297700D02*
X144275000Y-92993600D01*
X144275000Y-92993600D02*
X144275000Y-89875000D01*
X134350000Y-98625000D02*
X135101700Y-98625000D01*
%TO.N,middle_home_B*%
X134350000Y-81625000D02*
X135101700Y-81625000D01*
X135101700Y-81625000D02*
X138600000Y-78126700D01*
X144275000Y-75986400D02*
X144275000Y-72875000D01*
X142134700Y-78126700D02*
X144275000Y-75986400D01*
X138600000Y-78126700D02*
X142134700Y-78126700D01*
%TO.N,C4*%
X170265700Y-112800800D02*
X174996700Y-112800800D01*
D29*
X197425000Y-83490000D02*
X196700000Y-82765000D01*
X195595000Y-83270000D02*
X189820000Y-83270000D01*
D28*
X150725000Y-72800000D02*
X152975400Y-75050400D01*
X154400500Y-75050400D02*
X156883900Y-77533800D01*
X152975400Y-75050400D02*
X154400500Y-75050400D01*
D29*
X197580000Y-83490000D02*
X197425000Y-83490000D01*
X196100000Y-82765000D02*
X195595000Y-83270000D01*
D28*
X169802300Y-112337400D02*
X170265700Y-112800800D01*
X152782500Y-53742500D02*
X152860800Y-53742500D01*
X168669900Y-114299100D02*
X169195500Y-112337400D01*
X169195500Y-112337400D02*
X169802300Y-112337400D01*
X189820000Y-83270000D02*
X189600000Y-83490000D01*
D29*
X196700000Y-82765000D02*
X196100000Y-82765000D01*
D28*
X150725000Y-55800000D02*
X152782500Y-53742500D01*
D29*
X197775000Y-83490000D02*
X197580000Y-83490000D01*
D28*
%TO.N,index_bottom_B*%
X156275100Y-91749500D02*
X158116400Y-89908200D01*
X158116400Y-89908200D02*
X160183200Y-89908200D01*
X153101700Y-100750000D02*
X156275100Y-97576600D01*
X152350000Y-100750000D02*
X153101700Y-100750000D01*
X156275100Y-97576600D02*
X156275100Y-91749500D01*
X160183200Y-89908200D02*
X162275000Y-92000000D01*
%TO.N,index_home_B*%
X162275000Y-75000000D02*
X162275000Y-78699300D01*
X156319300Y-84655000D02*
X154006700Y-84655000D01*
X154006700Y-84655000D02*
X153101700Y-83750000D01*
X162275000Y-78699300D02*
X156319300Y-84655000D01*
X152350000Y-83750000D02*
X153101700Y-83750000D01*
D29*
%TO.N,C5*%
X196100000Y-85305000D02*
X195595000Y-85810000D01*
X197775000Y-86030000D02*
X197580000Y-86030000D01*
D28*
X174893400Y-87247200D02*
X177315000Y-84825600D01*
D29*
X197580000Y-86030000D02*
X197425000Y-86030000D01*
X195595000Y-85810000D02*
X190171800Y-85810000D01*
D28*
X171346300Y-72303700D02*
X176169100Y-72303700D01*
D29*
X197425000Y-86030000D02*
X196700000Y-85305000D01*
D28*
X189820000Y-85810000D02*
X189600000Y-86030000D01*
X168725000Y-74925000D02*
X171346300Y-72303700D01*
D29*
X190171800Y-85810000D02*
X189820000Y-85810000D01*
D28*
X189187400Y-84825600D02*
X190171800Y-85810000D01*
D29*
X196700000Y-85305000D02*
X196100000Y-85305000D01*
D28*
X177315000Y-84825600D02*
X189187400Y-84825600D01*
%TO.N,inner_bottom_B*%
X170350000Y-102875000D02*
X171101700Y-102875000D01*
X171101700Y-102875000D02*
X173928300Y-100048400D01*
X177456400Y-100048400D02*
X180275000Y-97229800D01*
X173928300Y-100048400D02*
X177456400Y-100048400D01*
X180275000Y-97229800D02*
X180275000Y-94125000D01*
%TO.N,inner_home_B*%
X171101700Y-85875000D02*
X171101700Y-85123300D01*
X170350000Y-85875000D02*
X171101700Y-85875000D01*
X171101700Y-85123300D02*
X177030100Y-79194900D01*
X178205100Y-79194900D02*
X180275000Y-77125000D01*
X177030100Y-79194900D02*
X178205100Y-79194900D01*
%TO.N,inner_top_B*%
X174600000Y-65376700D02*
X178126700Y-65376700D01*
X178126700Y-65376700D02*
X180275000Y-63228400D01*
X171101700Y-68875000D02*
X174600000Y-65376700D01*
X170350000Y-68875000D02*
X171101700Y-68875000D01*
X180275000Y-63228400D02*
X180275000Y-60125000D01*
%TO.N,near_home_B*%
X149501700Y-123275000D02*
X149501700Y-122523300D01*
X155430100Y-116594900D02*
X156605100Y-116594900D01*
X148750000Y-123275000D02*
X149501700Y-123275000D01*
X149501700Y-122523300D02*
X155430100Y-116594900D01*
X156605100Y-116594900D02*
X158675000Y-114525000D01*
%TO.N,mid_home_B*%
X167405400Y-125296500D02*
X167690900Y-124231000D01*
X178731300Y-121375200D02*
X178124400Y-121375200D01*
X174900600Y-120811700D02*
X171481300Y-124231000D01*
X178124400Y-121375200D02*
X177560900Y-120811700D01*
X177560900Y-120811700D02*
X174900600Y-120811700D01*
X171481300Y-124231000D02*
X167690900Y-124231000D01*
X179256900Y-119413500D02*
X178731300Y-121375200D01*
%TO.N,R2*%
X156605500Y-100855500D02*
X156507200Y-100855500D01*
D29*
X188420000Y-86030000D02*
X188575000Y-86030000D01*
D28*
X120401700Y-101501700D02*
X120401700Y-100750000D01*
X183311100Y-88937300D02*
X184948400Y-87300000D01*
X171700200Y-103829200D02*
X159579200Y-103829200D01*
D29*
X188575000Y-86030000D02*
X189300000Y-86755000D01*
X189300000Y-86755000D02*
X189600000Y-86755000D01*
D28*
X102570400Y-104831300D02*
X102611200Y-104831300D01*
X172692700Y-102836700D02*
X171700200Y-103829200D01*
X137650000Y-98625000D02*
X136898300Y-98625000D01*
X155650000Y-100750000D02*
X154898300Y-100750000D01*
X172860000Y-102836700D02*
X172692700Y-102836700D01*
X173650000Y-102875000D02*
X175298000Y-102875000D01*
X153989300Y-101659000D02*
X154898300Y-100750000D01*
X136898300Y-98625000D02*
X134773300Y-100750000D01*
X196170000Y-86260000D02*
X196400000Y-86030000D01*
X101650000Y-105000000D02*
X102401700Y-105000000D01*
X183311100Y-94861900D02*
X183311100Y-88937300D01*
D29*
X190395000Y-86260000D02*
X196170000Y-86260000D01*
D28*
X156507200Y-100855500D02*
X156401700Y-100750000D01*
X138619600Y-98880500D02*
X138401700Y-98662600D01*
X137650000Y-98625000D02*
X138401700Y-98625000D01*
X156025900Y-100750000D02*
X156401700Y-100750000D01*
X102401700Y-105000000D02*
X102570400Y-104831300D01*
X120571600Y-101671600D02*
X117411900Y-104831300D01*
X159579200Y-103829200D02*
X156605500Y-100855500D01*
X120571600Y-101671600D02*
X120401700Y-101501700D01*
X189055000Y-87300000D02*
X189600000Y-86755000D01*
X156025900Y-100750000D02*
X155817800Y-100750000D01*
X117411900Y-104831300D02*
X102611200Y-104831300D01*
X172898300Y-102875000D02*
X172860000Y-102836700D01*
X119650000Y-100750000D02*
X120401700Y-100750000D01*
X138401700Y-98662600D02*
X138401700Y-98625000D01*
X173650000Y-102875000D02*
X172898300Y-102875000D01*
D29*
X189900000Y-86755000D02*
X190395000Y-86260000D01*
X189600000Y-86755000D02*
X189900000Y-86755000D01*
D28*
X138619600Y-98880500D02*
X141398100Y-101659000D01*
X155650000Y-100750000D02*
X155817800Y-100750000D01*
X141398100Y-101659000D02*
X153989300Y-101659000D01*
X175298000Y-102875000D02*
X183311100Y-94861900D01*
D29*
X188225000Y-86030000D02*
X188420000Y-86030000D01*
D28*
X184948400Y-87300000D02*
X189055000Y-87300000D01*
X134773300Y-100750000D02*
X120401700Y-100750000D01*
%TO.N,R1*%
X152465200Y-85382700D02*
X151598300Y-84515800D01*
X172757800Y-86015500D02*
X172695200Y-86015500D01*
D29*
X188225000Y-83490000D02*
X188420000Y-83490000D01*
D28*
X119650000Y-83750000D02*
X120401700Y-83750000D01*
X153946900Y-82798600D02*
X154898300Y-83750000D01*
X196170000Y-83720000D02*
X196400000Y-83490000D01*
X168381000Y-85382700D02*
X152465200Y-85382700D01*
X172898300Y-85875000D02*
X172757800Y-86015500D01*
X151598300Y-82955300D02*
X150268000Y-81625000D01*
X133910400Y-84045000D02*
X120614900Y-84045000D01*
X120401700Y-83831800D02*
X120401700Y-83750000D01*
X107577300Y-84474100D02*
X115597400Y-84474100D01*
X151598300Y-82955300D02*
X151755000Y-82798600D01*
X156401700Y-83697300D02*
X156401700Y-83750000D01*
X151598300Y-84515800D02*
X151598300Y-82955300D01*
X156025900Y-83750000D02*
X156401700Y-83750000D01*
X173650000Y-85875000D02*
X174401700Y-85875000D01*
X187691300Y-82297600D02*
X178308200Y-82297600D01*
D29*
X188420000Y-83490000D02*
X188497500Y-83490000D01*
D28*
X102534100Y-87115900D02*
X104935500Y-87115900D01*
X117996600Y-84651700D02*
X118898300Y-83750000D01*
X155650000Y-83750000D02*
X154898300Y-83750000D01*
X150268000Y-81625000D02*
X137650000Y-81625000D01*
X173650000Y-85875000D02*
X172898300Y-85875000D01*
X156626500Y-83472500D02*
X156401700Y-83697300D01*
X137650000Y-81249200D02*
X137650000Y-80513600D01*
D29*
X189300000Y-84215000D02*
X189900000Y-84215000D01*
D28*
X102401700Y-87248300D02*
X102534100Y-87115900D01*
D29*
X188575000Y-83490000D02*
X189300000Y-84215000D01*
D28*
X151755000Y-82798600D02*
X153946900Y-82798600D01*
X188497500Y-83490000D02*
X188497500Y-83103800D01*
X169808800Y-86810500D02*
X168381000Y-85382700D01*
X115775000Y-84651700D02*
X117996600Y-84651700D01*
X172695200Y-86015500D02*
X172093900Y-86015500D01*
X119650000Y-83750000D02*
X118898300Y-83750000D01*
X174730800Y-85875000D02*
X174401700Y-85875000D01*
D29*
X188497500Y-83490000D02*
X188575000Y-83490000D01*
D28*
X172093900Y-86015500D02*
X171298900Y-86810500D01*
D29*
X189900000Y-84215000D02*
X190395000Y-83720000D01*
D28*
X115597400Y-84474100D02*
X115775000Y-84651700D01*
X137274200Y-81625000D02*
X137650000Y-81249200D01*
X104935500Y-87115900D02*
X107577300Y-84474100D01*
D29*
X190395000Y-83720000D02*
X196170000Y-83720000D01*
D28*
X136330400Y-81625000D02*
X133910400Y-84045000D01*
X178308200Y-82297600D02*
X174730800Y-85875000D01*
X120614900Y-84045000D02*
X120401700Y-83831800D01*
X101650000Y-88000000D02*
X102401700Y-88000000D01*
X137650000Y-81625000D02*
X137274200Y-81625000D01*
X171298900Y-86810500D02*
X169808800Y-86810500D01*
X156025900Y-83750000D02*
X155650000Y-83750000D01*
X188497500Y-83103800D02*
X187691300Y-82297600D01*
X137274200Y-81625000D02*
X136898300Y-81625000D01*
X102401700Y-88000000D02*
X102401700Y-87248300D01*
X136898300Y-81625000D02*
X136330400Y-81625000D01*
%TO.N,R0*%
X172686000Y-69270500D02*
X172686000Y-70196200D01*
X173650000Y-68875000D02*
X173274200Y-68875000D01*
X188592500Y-80659600D02*
X187612900Y-79680000D01*
X173212500Y-68875000D02*
X172898300Y-68875000D01*
D29*
X190395000Y-81180000D02*
X196170000Y-81180000D01*
D28*
X184959700Y-79680000D02*
X182114800Y-76835100D01*
X188592500Y-80967500D02*
X188592500Y-80659600D01*
D29*
X188420000Y-80950000D02*
X188575000Y-80950000D01*
D28*
X119274200Y-66750000D02*
X118693400Y-66750000D01*
X134773300Y-66750000D02*
X136898300Y-64625000D01*
D29*
X188575000Y-80950000D02*
X188592500Y-80967500D01*
D28*
X137650000Y-64625000D02*
X136898300Y-64625000D01*
X172686000Y-69270500D02*
X172898300Y-69058200D01*
X172898300Y-69058200D02*
X172898300Y-68875000D01*
X182114800Y-75884500D02*
X176426500Y-70196200D01*
D29*
X188592500Y-80967500D02*
X189300000Y-81675000D01*
D28*
X182114800Y-76835100D02*
X182114800Y-75884500D01*
X119650000Y-66750000D02*
X134773300Y-66750000D01*
X119650000Y-66750000D02*
X119274200Y-66750000D01*
X187612900Y-79680000D02*
X184959700Y-79680000D01*
X173274200Y-68875000D02*
X173212500Y-68875000D01*
X196170000Y-81180000D02*
X196400000Y-80950000D01*
D29*
X188225000Y-80950000D02*
X188420000Y-80950000D01*
D28*
X176426500Y-70196200D02*
X172686000Y-70196200D01*
D29*
X189900000Y-81675000D02*
X190395000Y-81180000D01*
X189300000Y-81675000D02*
X189900000Y-81675000D01*
D28*
%TO.N,R3*%
X169633500Y-125893700D02*
X169633500Y-125893600D01*
X184210700Y-90649500D02*
X184210700Y-91635500D01*
X189055000Y-89840000D02*
X185020200Y-89840000D01*
X156061100Y-126317900D02*
X169209300Y-126317900D01*
X152050000Y-123275000D02*
X152801700Y-123275000D01*
D29*
X189900000Y-89295000D02*
X190395000Y-88800000D01*
D28*
X189600000Y-89295000D02*
X189055000Y-89840000D01*
X170593000Y-126150700D02*
X169633500Y-125893600D01*
X169209300Y-126317900D02*
X169633500Y-125893700D01*
X153002100Y-123258900D02*
X156061100Y-126317900D01*
X152817800Y-123258900D02*
X153002100Y-123258900D01*
D29*
X188225000Y-88570000D02*
X188420000Y-88570000D01*
D28*
X185020200Y-89840000D02*
X184210700Y-90649500D01*
X184210700Y-91635500D02*
X185478300Y-92903100D01*
X196170000Y-88800000D02*
X196400000Y-88570000D01*
D29*
X188575000Y-88570000D02*
X189300000Y-89295000D01*
X189600000Y-89295000D02*
X189900000Y-89295000D01*
D28*
X152801700Y-123275000D02*
X152817800Y-123258900D01*
D29*
X188420000Y-88570000D02*
X188575000Y-88570000D01*
D28*
X185478300Y-92903100D02*
X187227000Y-92903100D01*
D29*
X190395000Y-88800000D02*
X196170000Y-88800000D01*
X189300000Y-89295000D02*
X189600000Y-89295000D01*
%TO.N,RAW*%
X196700000Y-62445000D02*
X196100000Y-62445000D01*
X197580000Y-63170000D02*
X197425000Y-63170000D01*
D28*
X189820000Y-62950000D02*
X189600000Y-63170000D01*
D29*
X196100000Y-62445000D02*
X195595000Y-62950000D01*
X197425000Y-63170000D02*
X196700000Y-62445000D01*
X195595000Y-62950000D02*
X189820000Y-62950000D01*
D28*
X200465000Y-99375000D02*
X199075800Y-99375000D01*
D29*
X197775000Y-63170000D02*
X197580000Y-63170000D01*
%TO.N,RST*%
X197425000Y-68250000D02*
X196700000Y-67525000D01*
X196700000Y-67525000D02*
X196100000Y-67525000D01*
X197580000Y-68250000D02*
X197425000Y-68250000D01*
D28*
X189820000Y-68030000D02*
X189600000Y-68250000D01*
D29*
X196100000Y-67525000D02*
X195595000Y-68030000D01*
X197775000Y-68250000D02*
X197580000Y-68250000D01*
X195595000Y-68030000D02*
X189820000Y-68030000D01*
%TO.N,VCC*%
X197580000Y-70790000D02*
X197425000Y-70790000D01*
X196700000Y-70065000D02*
X196100000Y-70065000D01*
X197425000Y-70790000D02*
X196700000Y-70065000D01*
D28*
X193786300Y-100850000D02*
X194270000Y-100850000D01*
D29*
X196100000Y-70065000D02*
X195595000Y-70570000D01*
X197775000Y-70790000D02*
X197580000Y-70790000D01*
X195595000Y-70570000D02*
X189820000Y-70570000D01*
D28*
X189820000Y-70570000D02*
X189600000Y-70790000D01*
D29*
%TO.N,C0*%
X197425000Y-73330000D02*
X196700000Y-72605000D01*
D28*
X189820000Y-73110000D02*
X189600000Y-73330000D01*
D29*
X197580000Y-73330000D02*
X197425000Y-73330000D01*
X197775000Y-73330000D02*
X197580000Y-73330000D01*
X196700000Y-72605000D02*
X196100000Y-72605000D01*
X196100000Y-72605000D02*
X195595000Y-73110000D01*
X195595000Y-73110000D02*
X189820000Y-73110000D01*
%TO.N,P16*%
X197775000Y-88570000D02*
X197580000Y-88570000D01*
X197425000Y-88570000D02*
X196700000Y-87845000D01*
X195595000Y-88350000D02*
X189820000Y-88350000D01*
D28*
X189820000Y-88350000D02*
X189600000Y-88570000D01*
D29*
X196700000Y-87845000D02*
X196100000Y-87845000D01*
X196100000Y-87845000D02*
X195595000Y-88350000D01*
X197580000Y-88570000D02*
X197425000Y-88570000D01*
%TO.N,P10*%
X196100000Y-90385000D02*
X195595000Y-90890000D01*
X197580000Y-91110000D02*
X197425000Y-91110000D01*
X195595000Y-90890000D02*
X189820000Y-90890000D01*
X197775000Y-91110000D02*
X197580000Y-91110000D01*
X196700000Y-90385000D02*
X196100000Y-90385000D01*
D28*
X189820000Y-90890000D02*
X189600000Y-91110000D01*
D29*
X197425000Y-91110000D02*
X196700000Y-90385000D01*
%TO.N,LED*%
X189300000Y-63895000D02*
X189900000Y-63895000D01*
D28*
X196170000Y-63400000D02*
X196400000Y-63170000D01*
D29*
X189900000Y-63895000D02*
X190395000Y-63400000D01*
X188575000Y-63170000D02*
X189300000Y-63895000D01*
X188420000Y-63170000D02*
X188575000Y-63170000D01*
X190395000Y-63400000D02*
X196170000Y-63400000D01*
X188225000Y-63170000D02*
X188420000Y-63170000D01*
%TO.N,DAT*%
X188575000Y-65710000D02*
X189300000Y-66435000D01*
X188225000Y-65710000D02*
X188420000Y-65710000D01*
X188420000Y-65710000D02*
X188575000Y-65710000D01*
X189300000Y-66435000D02*
X189900000Y-66435000D01*
X189900000Y-66435000D02*
X190395000Y-65940000D01*
D28*
X196170000Y-65940000D02*
X196400000Y-65710000D01*
D29*
X190395000Y-65940000D02*
X196170000Y-65940000D01*
%TO.N,SDA*%
X189300000Y-74055000D02*
X189900000Y-74055000D01*
D28*
X196170000Y-73560000D02*
X196400000Y-73330000D01*
D29*
X194352800Y-73560000D02*
X196170000Y-73560000D01*
X190395000Y-73560000D02*
X194352800Y-73560000D01*
D28*
X193294300Y-74618500D02*
X193194500Y-74618500D01*
X194352800Y-73560000D02*
X193294300Y-74618500D01*
D29*
X188225000Y-73330000D02*
X188420000Y-73330000D01*
X188420000Y-73330000D02*
X188575000Y-73330000D01*
X188575000Y-73330000D02*
X189300000Y-74055000D01*
X189900000Y-74055000D02*
X190395000Y-73560000D01*
%TO.N,SCL*%
X193282500Y-76100000D02*
X196170000Y-76100000D01*
X188575000Y-75870000D02*
X189300000Y-76595000D01*
X188225000Y-75870000D02*
X188420000Y-75870000D01*
D28*
X196170000Y-76100000D02*
X196400000Y-75870000D01*
X193282500Y-76100000D02*
X193796200Y-76613700D01*
D29*
X189900000Y-76595000D02*
X190395000Y-76100000D01*
X188420000Y-75870000D02*
X188575000Y-75870000D01*
X189300000Y-76595000D02*
X189900000Y-76595000D01*
X190395000Y-76100000D02*
X193282500Y-76100000D01*
%TO.N,CS*%
X188225000Y-78410000D02*
X188420000Y-78410000D01*
X189900000Y-79135000D02*
X190395000Y-78640000D01*
X189300000Y-79135000D02*
X189900000Y-79135000D01*
X188420000Y-78410000D02*
X188575000Y-78410000D01*
X190395000Y-78640000D02*
X196170000Y-78640000D01*
X188575000Y-78410000D02*
X189300000Y-79135000D01*
D28*
X196170000Y-78640000D02*
X196400000Y-78410000D01*
D29*
%TO.N,P9*%
X190395000Y-91340000D02*
X196170000Y-91340000D01*
X188420000Y-91110000D02*
X188575000Y-91110000D01*
X189900000Y-91835000D02*
X190395000Y-91340000D01*
X189300000Y-91835000D02*
X189900000Y-91835000D01*
X188225000Y-91110000D02*
X188420000Y-91110000D01*
X188575000Y-91110000D02*
X189300000Y-91835000D01*
D28*
X196170000Y-91340000D02*
X196400000Y-91110000D01*
%TO.N,MCU1_24*%
X187500000Y-63170000D02*
X187520000Y-63170000D01*
D29*
X185380000Y-63170000D02*
X187500000Y-63170000D01*
%TO.N,MCU1_1*%
X200620000Y-63170000D02*
X198500000Y-63170000D01*
D28*
X198500000Y-63170000D02*
X198480000Y-63170000D01*
%TO.N,MCU1_23*%
X187500000Y-65710000D02*
X187520000Y-65710000D01*
D29*
X185380000Y-65710000D02*
X187500000Y-65710000D01*
D28*
%TO.N,MCU1_2*%
X198500000Y-65710000D02*
X198480000Y-65710000D01*
D29*
X200620000Y-65710000D02*
X198500000Y-65710000D01*
%TO.N,MCU1_22*%
X185380000Y-68250000D02*
X187500000Y-68250000D01*
D28*
X187500000Y-68250000D02*
X187520000Y-68250000D01*
%TO.N,MCU1_3*%
X198500000Y-68250000D02*
X198480000Y-68250000D01*
D29*
X200620000Y-68250000D02*
X198500000Y-68250000D01*
D28*
%TO.N,MCU1_21*%
X187500000Y-70790000D02*
X187520000Y-70790000D01*
D29*
X185380000Y-70790000D02*
X187500000Y-70790000D01*
D28*
%TO.N,MCU1_4*%
X198500000Y-70790000D02*
X198480000Y-70790000D01*
D29*
X200620000Y-70790000D02*
X198500000Y-70790000D01*
D28*
%TO.N,MCU1_20*%
X187500000Y-73330000D02*
X187520000Y-73330000D01*
D29*
X185380000Y-73330000D02*
X187500000Y-73330000D01*
%TO.N,MCU1_5*%
X200620000Y-73330000D02*
X198500000Y-73330000D01*
D28*
X198500000Y-73330000D02*
X198480000Y-73330000D01*
%TO.N,MCU1_19*%
X187500000Y-75870000D02*
X187520000Y-75870000D01*
D29*
X185380000Y-75870000D02*
X187500000Y-75870000D01*
D28*
%TO.N,MCU1_6*%
X198500000Y-75870000D02*
X198480000Y-75870000D01*
D29*
X200620000Y-75870000D02*
X198500000Y-75870000D01*
%TO.N,MCU1_18*%
X185380000Y-78410000D02*
X187500000Y-78410000D01*
D28*
X187500000Y-78410000D02*
X187520000Y-78410000D01*
%TO.N,MCU1_7*%
X198500000Y-78410000D02*
X198480000Y-78410000D01*
D29*
X200620000Y-78410000D02*
X198500000Y-78410000D01*
D28*
%TO.N,MCU1_17*%
X187500000Y-80950000D02*
X187520000Y-80950000D01*
D29*
X185380000Y-80950000D02*
X187500000Y-80950000D01*
%TO.N,MCU1_8*%
X200620000Y-80950000D02*
X198500000Y-80950000D01*
D28*
X198500000Y-80950000D02*
X198480000Y-80950000D01*
D29*
%TO.N,MCU1_16*%
X185380000Y-83490000D02*
X187500000Y-83490000D01*
D28*
X187500000Y-83490000D02*
X187520000Y-83490000D01*
D29*
%TO.N,MCU1_9*%
X200620000Y-83490000D02*
X198500000Y-83490000D01*
D28*
X198500000Y-83490000D02*
X198480000Y-83490000D01*
%TO.N,MCU1_15*%
X187500000Y-86030000D02*
X187520000Y-86030000D01*
D29*
X185380000Y-86030000D02*
X187500000Y-86030000D01*
D28*
%TO.N,MCU1_10*%
X198500000Y-86030000D02*
X198480000Y-86030000D01*
D29*
X200620000Y-86030000D02*
X198500000Y-86030000D01*
D28*
%TO.N,MCU1_14*%
X187500000Y-88570000D02*
X187520000Y-88570000D01*
D29*
X185380000Y-88570000D02*
X187500000Y-88570000D01*
D28*
%TO.N,MCU1_11*%
X198500000Y-88570000D02*
X198480000Y-88570000D01*
D29*
X200620000Y-88570000D02*
X198500000Y-88570000D01*
D28*
%TO.N,MCU1_13*%
X187500000Y-91110000D02*
X187520000Y-91110000D01*
D29*
X185380000Y-91110000D02*
X187500000Y-91110000D01*
%TO.N,MCU1_12*%
X200620000Y-91110000D02*
X198500000Y-91110000D01*
D28*
X198500000Y-91110000D02*
X198480000Y-91110000D01*
D29*
%TO.N,DISP1_1*%
X189190000Y-98200000D02*
X189190000Y-99950000D01*
%TO.N,DISP1_2*%
X191730000Y-98200000D02*
X191730000Y-99950000D01*
%TO.N,DISP1_3*%
X194270000Y-98200000D02*
X194270000Y-99950000D01*
%TO.N,DISP1_4*%
X196810000Y-98200000D02*
X196810000Y-99950000D01*
%TO.N,JST1_1*%
X194800000Y-106750000D02*
X193000000Y-106750000D01*
%TO.N,JST1_2*%
X194800000Y-104750000D02*
X193000000Y-104750000D01*
%TD*%
M02*
