%TF.GenerationSoftware,KiCad,Pcbnew,8.0.1*%
%TF.CreationDate,2024-12-01T01:33:27+09:00*%
%TF.ProjectId,corney_island_wireless_autorouted,636f726e-6579-45f6-9973-6c616e645f77,0.2*%
%TF.SameCoordinates,Original*%
%TF.FileFunction,Paste,Top*%
%TF.FilePolarity,Positive*%
%FSLAX46Y46*%
G04 Gerber Fmt 4.6, Leading zero omitted, Abs format (unit mm)*
G04 Created by KiCad (PCBNEW 8.0.1) date 2024-12-01 01:33:27*
%MOMM*%
%LPD*%
G01*
G04 APERTURE LIST*
G04 Aperture macros list*
%AMRotRect*
0 Rectangle, with rotation*
0 The origin of the aperture is its center*
0 $1 length*
0 $2 width*
0 $3 Rotation angle, in degrees counterclockwise*
0 Add horizontal line*
21,1,$1,$2,0,0,$3*%
%AMFreePoly0*
4,1,6,0.600000,-1.000000,0.000000,-0.400000,-0.600000,-1.000000,-0.600000,0.250000,0.600000,0.250000,0.600000,-1.000000,0.600000,-1.000000,$1*%
%AMFreePoly1*
4,1,6,0.600000,-0.200000,0.600000,-0.400000,-0.600000,-0.400000,-0.600000,-0.200000,0.000000,0.400000,0.600000,-0.200000,0.600000,-0.200000,$1*%
G04 Aperture macros list end*
%ADD10R,0.900000X1.200000*%
%ADD11R,2.600000X2.600000*%
%ADD12R,0.600000X1.200000*%
%ADD13RotRect,2.600000X2.600000X330.000000*%
%ADD14R,0.800000X1.000000*%
%ADD15R,1.500000X0.700000*%
%ADD16RotRect,0.900000X1.200000X150.000000*%
%ADD17RotRect,0.900000X1.200000X165.000000*%
%ADD18RotRect,2.600000X2.600000X345.000000*%
%ADD19FreePoly0,270.000000*%
%ADD20FreePoly1,270.000000*%
%ADD21R,1.200000X0.600000*%
G04 APERTURE END LIST*
D10*
%TO.C,D27*%
X137650000Y-64625000D03*
X134350000Y-64625000D03*
%TD*%
D11*
%TO.C,S29*%
X157275000Y-72800000D03*
X145725000Y-75000000D03*
%TD*%
%TO.C,S25*%
X139275000Y-87675000D03*
X127725000Y-89875000D03*
%TD*%
D12*
%TO.C,MCU1*%
X187520000Y-91110000D03*
X198480000Y-91110000D03*
X187520000Y-88570000D03*
X198480000Y-88570000D03*
X187520000Y-86030000D03*
X198480000Y-86030000D03*
X187520000Y-83490000D03*
X198480000Y-83490000D03*
X187520000Y-80950000D03*
X198480000Y-80950000D03*
X187520000Y-78410000D03*
X198480000Y-78410000D03*
X187520000Y-75870000D03*
X198480000Y-75870000D03*
X187520000Y-73330000D03*
X198480000Y-73330000D03*
X187520000Y-70790000D03*
X198480000Y-70790000D03*
X187520000Y-68250000D03*
X198480000Y-68250000D03*
X187520000Y-65710000D03*
X198480000Y-65710000D03*
X187520000Y-63170000D03*
X198480000Y-63170000D03*
X197580000Y-63170000D03*
X197580000Y-65710000D03*
X197580000Y-68250000D03*
X197580000Y-70790000D03*
X197580000Y-73330000D03*
X197580000Y-75870000D03*
X197580000Y-78410000D03*
X197580000Y-80950000D03*
X197580000Y-83490000D03*
X197580000Y-86030000D03*
X197580000Y-88570000D03*
X197580000Y-91110000D03*
X188420000Y-91110000D03*
X188420000Y-88570000D03*
X188420000Y-86030000D03*
X188420000Y-83490000D03*
X188420000Y-80950000D03*
X188420000Y-78410000D03*
X188420000Y-75870000D03*
X188420000Y-73330000D03*
X188420000Y-70790000D03*
X188420000Y-68250000D03*
X188420000Y-65710000D03*
X188420000Y-63170000D03*
%TD*%
D10*
%TO.C,D32*%
X173650000Y-85875000D03*
X170350000Y-85875000D03*
%TD*%
%TO.C,D30*%
X155650000Y-66750000D03*
X152350000Y-66750000D03*
%TD*%
D11*
%TO.C,S21*%
X103275000Y-60050000D03*
X91725000Y-62250000D03*
%TD*%
D10*
%TO.C,D19*%
X101650000Y-105000000D03*
X98350000Y-105000000D03*
%TD*%
%TO.C,D26*%
X137650000Y-81625000D03*
X134350000Y-81625000D03*
%TD*%
D13*
%TO.C,S36*%
X194642133Y-125057149D03*
X183539540Y-121187405D03*
%TD*%
D11*
%TO.C,S22*%
X121275000Y-89800000D03*
X109725000Y-92000000D03*
%TD*%
%TO.C,S31*%
X175275000Y-91925000D03*
X163725000Y-94125000D03*
%TD*%
D10*
%TO.C,D33*%
X173650000Y-68875000D03*
X170350000Y-68875000D03*
%TD*%
D14*
%TO.C,PWR1*%
X201115000Y-94975000D03*
X201115000Y-102275000D03*
X203325000Y-94975000D03*
X203325000Y-102275000D03*
D15*
X200465000Y-100875000D03*
X200465000Y-97875000D03*
X200465000Y-96375000D03*
%TD*%
D11*
%TO.C,S26*%
X139275000Y-70675000D03*
X127725000Y-72875000D03*
%TD*%
D10*
%TO.C,D20*%
X101650000Y-88000000D03*
X98350000Y-88000000D03*
%TD*%
D11*
%TO.C,S32*%
X175275000Y-74925000D03*
X163725000Y-77125000D03*
%TD*%
D10*
%TO.C,D21*%
X101650000Y-71000000D03*
X98350000Y-71000000D03*
%TD*%
%TO.C,D31*%
X173650000Y-102875000D03*
X170350000Y-102875000D03*
%TD*%
D16*
%TO.C,D36*%
X187759842Y-133727700D03*
X184901958Y-132077700D03*
%TD*%
D10*
%TO.C,D28*%
X155650000Y-100750000D03*
X152350000Y-100750000D03*
%TD*%
%TO.C,D29*%
X155650000Y-83750000D03*
X152350000Y-83750000D03*
%TD*%
D17*
%TO.C,D35*%
X170592978Y-126150650D03*
X167405422Y-125296550D03*
%TD*%
D10*
%TO.C,D23*%
X119650000Y-83750000D03*
X116350000Y-83750000D03*
%TD*%
D11*
%TO.C,S27*%
X139275000Y-53675000D03*
X127725000Y-55875000D03*
%TD*%
D10*
%TO.C,D22*%
X119650000Y-100750000D03*
X116350000Y-100750000D03*
%TD*%
D11*
%TO.C,S33*%
X175275000Y-57925000D03*
X163725000Y-60125000D03*
%TD*%
D18*
%TO.C,S35*%
X174996680Y-115994374D03*
X163270835Y-115130051D03*
%TD*%
D11*
%TO.C,S23*%
X121275000Y-72800000D03*
X109725000Y-75000000D03*
%TD*%
%TO.C,S24*%
X121275000Y-55800000D03*
X109725000Y-58000000D03*
%TD*%
%TO.C,S34*%
X153675000Y-112325000D03*
X142125000Y-114525000D03*
%TD*%
%TO.C,S30*%
X157275000Y-55800000D03*
X145725000Y-58000000D03*
%TD*%
%TO.C,S28*%
X157275000Y-89800000D03*
X145725000Y-92000000D03*
%TD*%
D10*
%TO.C,D24*%
X119650000Y-66750000D03*
X116350000Y-66750000D03*
%TD*%
D19*
%TO.C,JST1*%
X195816000Y-106750000D03*
X195816000Y-104750000D03*
D20*
X194800000Y-106750000D03*
X194800000Y-104750000D03*
%TD*%
D11*
%TO.C,S20*%
X103275000Y-77050000D03*
X91725000Y-79250000D03*
%TD*%
%TO.C,S19*%
X103275000Y-94050000D03*
X91725000Y-96250000D03*
%TD*%
D10*
%TO.C,D34*%
X152050000Y-123275000D03*
X148750000Y-123275000D03*
%TD*%
D21*
%TO.C,DISP1*%
X189190000Y-100850000D03*
X191730000Y-100850000D03*
X194270000Y-100850000D03*
X196810000Y-100850000D03*
X189190000Y-99950000D03*
X191730000Y-99950000D03*
X194270000Y-99950000D03*
X196810000Y-99950000D03*
%TD*%
D10*
%TO.C,D25*%
X137650000Y-98625000D03*
X134350000Y-98625000D03*
%TD*%
M02*
