%TF.GenerationSoftware,KiCad,Pcbnew,8.0.6+1*%
%TF.CreationDate,2024-12-31T16:22:16+00:00*%
%TF.ProjectId,corney_island_wireless,636f726e-6579-45f6-9973-6c616e645f77,0.2*%
%TF.SameCoordinates,Original*%
%TF.FileFunction,Drillmap*%
%TF.FilePolarity,Positive*%
%FSLAX45Y45*%
G04 Gerber Fmt 4.5, Leading zero omitted, Abs format (unit mm)*
G04 Created by KiCad (PCBNEW 8.0.6+1) date 2024-12-31 16:22:16*
%MOMM*%
%LPD*%
G01*
G04 APERTURE LIST*
%ADD10C,0.150000*%
%ADD11C,0.200000*%
%ADD12C,0.100000*%
%ADD13C,0.130000*%
G04 APERTURE END LIST*
D10*
X9100000Y-10950000D02*
X12591898Y-10950000D01*
X9000000Y-10850000D02*
X9000000Y-5750000D01*
X9100000Y-10950000D02*
G75*
G02*
X9000000Y-10850000I0J100000D01*
G01*
X10700000Y-5650000D02*
X9100000Y-5650000D01*
X9000000Y-5750000D02*
G75*
G02*
X9100000Y-5650000I100000J0D01*
G01*
X12500000Y-4587500D02*
X10900000Y-4587500D01*
X10800000Y-4687500D02*
G75*
G02*
X10900000Y-4587500I100000J0D01*
G01*
X10800000Y-4687500D02*
X10800000Y-5550000D01*
X14600000Y-4912500D02*
X14600000Y-4475000D01*
X14500000Y-4375000D02*
G75*
G02*
X14600000Y-4475000I0J-100000D01*
G01*
X14500000Y-4375000D02*
X12700000Y-4375000D01*
X12600000Y-4475000D02*
G75*
G02*
X12700000Y-4375000I100000J0D01*
G01*
X12600000Y-4475000D02*
X12600000Y-4487500D01*
X16400000Y-5125000D02*
X16400000Y-5112500D01*
X16300000Y-5012500D02*
G75*
G02*
X16400000Y-5112500I0J-100000D01*
G01*
X16300000Y-5012500D02*
X14700000Y-5012500D01*
X18200000Y-5600000D02*
X18200000Y-5325000D01*
X18100000Y-5225000D02*
G75*
G02*
X18200000Y-5325000I0J-100000D01*
G01*
X18100000Y-5225000D02*
X16500000Y-5225000D01*
X19312481Y-13901024D02*
X20386603Y-12040591D01*
X19199997Y-13947617D02*
X14069557Y-12572920D01*
X14019936Y-12541896D02*
X12667401Y-10984431D01*
X19312481Y-13901024D02*
G75*
G02*
X19199998Y-13947613I-86601J50004D01*
G01*
X14069557Y-12572920D02*
G75*
G02*
X14019937Y-12541895I25883J96590D01*
G01*
X12591898Y-10950000D02*
G75*
G02*
X12667402Y-10984430I2J-100000D01*
G01*
X18300000Y-5700000D02*
X20300000Y-5700000D01*
X20400000Y-11990591D02*
X20400000Y-5800000D01*
X20400000Y-11990591D02*
G75*
G02*
X20386602Y-12040591I-100000J2D01*
G01*
X20300000Y-5700000D02*
G75*
G02*
X20400000Y-5800000I0J-100000D01*
G01*
X18300000Y-5700000D02*
G75*
G02*
X18200000Y-5600000I0J100000D01*
G01*
X16500000Y-5225000D02*
G75*
G02*
X16400000Y-5125000I0J100000D01*
G01*
X14700000Y-5012500D02*
G75*
G02*
X14600000Y-4912500I0J100000D01*
G01*
X12600000Y-4487500D02*
G75*
G02*
X12500000Y-4587500I-100000J0D01*
G01*
X10800000Y-5550000D02*
G75*
G02*
X10700000Y-5650000I-100000J0D01*
G01*
D11*
D12*
X18940000Y-6084500D02*
X18980000Y-6124500D01*
X18980000Y-6084500D02*
X18940000Y-6124500D01*
X18940000Y-6338500D02*
X18980000Y-6378500D01*
X18980000Y-6338500D02*
X18940000Y-6378500D01*
X18940000Y-6592500D02*
X18980000Y-6632500D01*
X18980000Y-6592500D02*
X18940000Y-6632500D01*
X18940000Y-6846500D02*
X18980000Y-6886500D01*
X18980000Y-6846500D02*
X18940000Y-6886500D01*
X18940000Y-7100500D02*
X18980000Y-7140500D01*
X18980000Y-7100500D02*
X18940000Y-7140500D01*
X18940000Y-7354500D02*
X18980000Y-7394500D01*
X18980000Y-7354500D02*
X18940000Y-7394500D01*
X18940000Y-7608500D02*
X18980000Y-7648500D01*
X18980000Y-7608500D02*
X18940000Y-7648500D01*
X18940000Y-7862500D02*
X18980000Y-7902500D01*
X18980000Y-7862500D02*
X18940000Y-7902500D01*
X18940000Y-8116500D02*
X18980000Y-8156500D01*
X18980000Y-8116500D02*
X18940000Y-8156500D01*
X18940000Y-8370500D02*
X18980000Y-8410500D01*
X18980000Y-8370500D02*
X18940000Y-8410500D01*
X18940000Y-8624500D02*
X18980000Y-8664500D01*
X18980000Y-8624500D02*
X18940000Y-8664500D01*
X18940000Y-8878500D02*
X18980000Y-8918500D01*
X18980000Y-8878500D02*
X18940000Y-8918500D01*
X19620000Y-6084500D02*
X19660000Y-6124500D01*
X19660000Y-6084500D02*
X19620000Y-6124500D01*
X19620000Y-6338500D02*
X19660000Y-6378500D01*
X19660000Y-6338500D02*
X19620000Y-6378500D01*
X19620000Y-6592500D02*
X19660000Y-6632500D01*
X19660000Y-6592500D02*
X19620000Y-6632500D01*
X19620000Y-6846500D02*
X19660000Y-6886500D01*
X19660000Y-6846500D02*
X19620000Y-6886500D01*
X19620000Y-7100500D02*
X19660000Y-7140500D01*
X19660000Y-7100500D02*
X19620000Y-7140500D01*
X19620000Y-7354500D02*
X19660000Y-7394500D01*
X19660000Y-7354500D02*
X19620000Y-7394500D01*
X19620000Y-7608500D02*
X19660000Y-7648500D01*
X19660000Y-7608500D02*
X19620000Y-7648500D01*
X19620000Y-7862500D02*
X19660000Y-7902500D01*
X19660000Y-7862500D02*
X19620000Y-7902500D01*
X19620000Y-8116500D02*
X19660000Y-8156500D01*
X19660000Y-8116500D02*
X19620000Y-8156500D01*
X19620000Y-8370500D02*
X19660000Y-8410500D01*
X19660000Y-8370500D02*
X19620000Y-8410500D01*
X19620000Y-8624500D02*
X19660000Y-8664500D01*
X19660000Y-8624500D02*
X19620000Y-8664500D01*
X19620000Y-8878500D02*
X19660000Y-8918500D01*
X19660000Y-8878500D02*
X19620000Y-8918500D01*
X19737500Y-10262500D02*
G75*
G02*
X19662500Y-10262500I-37500J0D01*
G01*
X19662500Y-10262500D02*
G75*
G02*
X19737500Y-10262500I37500J0D01*
G01*
X19737500Y-10462500D02*
G75*
G02*
X19662500Y-10462500I-37500J0D01*
G01*
X19662500Y-10462500D02*
G75*
G02*
X19737500Y-10462500I37500J0D01*
G01*
X18538000Y-6054500D02*
X18538000Y-6154500D01*
X18488000Y-6104500D02*
X18588000Y-6104500D01*
X18538000Y-6308500D02*
X18538000Y-6408500D01*
X18488000Y-6358500D02*
X18588000Y-6358500D01*
X18538000Y-6562500D02*
X18538000Y-6662500D01*
X18488000Y-6612500D02*
X18588000Y-6612500D01*
X18538000Y-6816500D02*
X18538000Y-6916500D01*
X18488000Y-6866500D02*
X18588000Y-6866500D01*
X18538000Y-7070500D02*
X18538000Y-7170500D01*
X18488000Y-7120500D02*
X18588000Y-7120500D01*
X18538000Y-7324500D02*
X18538000Y-7424500D01*
X18488000Y-7374500D02*
X18588000Y-7374500D01*
X18538000Y-7578500D02*
X18538000Y-7678500D01*
X18488000Y-7628500D02*
X18588000Y-7628500D01*
X18538000Y-7832500D02*
X18538000Y-7932500D01*
X18488000Y-7882500D02*
X18588000Y-7882500D01*
X18538000Y-8086500D02*
X18538000Y-8186500D01*
X18488000Y-8136500D02*
X18588000Y-8136500D01*
X18538000Y-8340500D02*
X18538000Y-8440500D01*
X18488000Y-8390500D02*
X18588000Y-8390500D01*
X18538000Y-8594500D02*
X18538000Y-8694500D01*
X18488000Y-8644500D02*
X18588000Y-8644500D01*
X18538000Y-8848500D02*
X18538000Y-8948500D01*
X18488000Y-8898500D02*
X18588000Y-8898500D01*
X18792000Y-9357500D02*
X18792000Y-9457500D01*
X18742000Y-9407500D02*
X18842000Y-9407500D01*
X19046000Y-9357500D02*
X19046000Y-9457500D01*
X18996000Y-9407500D02*
X19096000Y-9407500D01*
X19300000Y-9357500D02*
X19300000Y-9457500D01*
X19250000Y-9407500D02*
X19350000Y-9407500D01*
X19554000Y-9357500D02*
X19554000Y-9457500D01*
X19504000Y-9407500D02*
X19604000Y-9407500D01*
X19808000Y-9357500D02*
X19808000Y-9457500D01*
X19758000Y-9407500D02*
X19858000Y-9407500D01*
X20062000Y-6054500D02*
X20062000Y-6154500D01*
X20012000Y-6104500D02*
X20112000Y-6104500D01*
X20062000Y-6308500D02*
X20062000Y-6408500D01*
X20012000Y-6358500D02*
X20112000Y-6358500D01*
X20062000Y-6562500D02*
X20062000Y-6662500D01*
X20012000Y-6612500D02*
X20112000Y-6612500D01*
X20062000Y-6816500D02*
X20062000Y-6916500D01*
X20012000Y-6866500D02*
X20112000Y-6866500D01*
X20062000Y-7070500D02*
X20062000Y-7170500D01*
X20012000Y-7120500D02*
X20112000Y-7120500D01*
X20062000Y-7324500D02*
X20062000Y-7424500D01*
X20012000Y-7374500D02*
X20112000Y-7374500D01*
X20062000Y-7578500D02*
X20062000Y-7678500D01*
X20012000Y-7628500D02*
X20112000Y-7628500D01*
X20062000Y-7832500D02*
X20062000Y-7932500D01*
X20012000Y-7882500D02*
X20112000Y-7882500D01*
X20062000Y-8086500D02*
X20062000Y-8186500D01*
X20012000Y-8136500D02*
X20112000Y-8136500D01*
X20062000Y-8340500D02*
X20062000Y-8440500D01*
X20012000Y-8390500D02*
X20112000Y-8390500D01*
X20062000Y-8594500D02*
X20062000Y-8694500D01*
X20012000Y-8644500D02*
X20112000Y-8644500D01*
X20062000Y-8848500D02*
X20062000Y-8948500D01*
X20012000Y-8898500D02*
X20112000Y-8898500D01*
D13*
X20235962Y-9370962D02*
X20235962Y-9279038D01*
X20144038Y-9279038D01*
X20144038Y-9370962D01*
X20235962Y-9370962D01*
X20235962Y-10020962D02*
X20235962Y-9929038D01*
X20144038Y-9929038D01*
X20144038Y-10020962D01*
X20235962Y-10020962D01*
D11*
X9253277Y-14270005D02*
X9253277Y-14070005D01*
X9253277Y-14070005D02*
X9300896Y-14070005D01*
X9300896Y-14070005D02*
X9329467Y-14079529D01*
X9329467Y-14079529D02*
X9348515Y-14098576D01*
X9348515Y-14098576D02*
X9358039Y-14117624D01*
X9358039Y-14117624D02*
X9367563Y-14155719D01*
X9367563Y-14155719D02*
X9367563Y-14184290D01*
X9367563Y-14184290D02*
X9358039Y-14222386D01*
X9358039Y-14222386D02*
X9348515Y-14241433D01*
X9348515Y-14241433D02*
X9329467Y-14260481D01*
X9329467Y-14260481D02*
X9300896Y-14270005D01*
X9300896Y-14270005D02*
X9253277Y-14270005D01*
X9453277Y-14270005D02*
X9453277Y-14136671D01*
X9453277Y-14174767D02*
X9462801Y-14155719D01*
X9462801Y-14155719D02*
X9472324Y-14146195D01*
X9472324Y-14146195D02*
X9491372Y-14136671D01*
X9491372Y-14136671D02*
X9510420Y-14136671D01*
X9577086Y-14270005D02*
X9577086Y-14136671D01*
X9577086Y-14070005D02*
X9567563Y-14079529D01*
X9567563Y-14079529D02*
X9577086Y-14089052D01*
X9577086Y-14089052D02*
X9586610Y-14079529D01*
X9586610Y-14079529D02*
X9577086Y-14070005D01*
X9577086Y-14070005D02*
X9577086Y-14089052D01*
X9700896Y-14270005D02*
X9681848Y-14260481D01*
X9681848Y-14260481D02*
X9672324Y-14241433D01*
X9672324Y-14241433D02*
X9672324Y-14070005D01*
X9805658Y-14270005D02*
X9786610Y-14260481D01*
X9786610Y-14260481D02*
X9777086Y-14241433D01*
X9777086Y-14241433D02*
X9777086Y-14070005D01*
X10034229Y-14270005D02*
X10034229Y-14070005D01*
X10034229Y-14070005D02*
X10100896Y-14212862D01*
X10100896Y-14212862D02*
X10167563Y-14070005D01*
X10167563Y-14070005D02*
X10167563Y-14270005D01*
X10348515Y-14270005D02*
X10348515Y-14165243D01*
X10348515Y-14165243D02*
X10338991Y-14146195D01*
X10338991Y-14146195D02*
X10319944Y-14136671D01*
X10319944Y-14136671D02*
X10281848Y-14136671D01*
X10281848Y-14136671D02*
X10262801Y-14146195D01*
X10348515Y-14260481D02*
X10329467Y-14270005D01*
X10329467Y-14270005D02*
X10281848Y-14270005D01*
X10281848Y-14270005D02*
X10262801Y-14260481D01*
X10262801Y-14260481D02*
X10253277Y-14241433D01*
X10253277Y-14241433D02*
X10253277Y-14222386D01*
X10253277Y-14222386D02*
X10262801Y-14203338D01*
X10262801Y-14203338D02*
X10281848Y-14193814D01*
X10281848Y-14193814D02*
X10329467Y-14193814D01*
X10329467Y-14193814D02*
X10348515Y-14184290D01*
X10443753Y-14136671D02*
X10443753Y-14336671D01*
X10443753Y-14146195D02*
X10462801Y-14136671D01*
X10462801Y-14136671D02*
X10500896Y-14136671D01*
X10500896Y-14136671D02*
X10519944Y-14146195D01*
X10519944Y-14146195D02*
X10529467Y-14155719D01*
X10529467Y-14155719D02*
X10538991Y-14174767D01*
X10538991Y-14174767D02*
X10538991Y-14231909D01*
X10538991Y-14231909D02*
X10529467Y-14250957D01*
X10529467Y-14250957D02*
X10519944Y-14260481D01*
X10519944Y-14260481D02*
X10500896Y-14270005D01*
X10500896Y-14270005D02*
X10462801Y-14270005D01*
X10462801Y-14270005D02*
X10443753Y-14260481D01*
X10624705Y-14250957D02*
X10634229Y-14260481D01*
X10634229Y-14260481D02*
X10624705Y-14270005D01*
X10624705Y-14270005D02*
X10615182Y-14260481D01*
X10615182Y-14260481D02*
X10624705Y-14250957D01*
X10624705Y-14250957D02*
X10624705Y-14270005D01*
X10624705Y-14146195D02*
X10634229Y-14155719D01*
X10634229Y-14155719D02*
X10624705Y-14165243D01*
X10624705Y-14165243D02*
X10615182Y-14155719D01*
X10615182Y-14155719D02*
X10624705Y-14146195D01*
X10624705Y-14146195D02*
X10624705Y-14165243D01*
D12*
X8952500Y-14578521D02*
X8992500Y-14618521D01*
X8992500Y-14578521D02*
X8952500Y-14618521D01*
D11*
X9291372Y-14490005D02*
X9310420Y-14490005D01*
X9310420Y-14490005D02*
X9329467Y-14499529D01*
X9329467Y-14499529D02*
X9338991Y-14509052D01*
X9338991Y-14509052D02*
X9348515Y-14528100D01*
X9348515Y-14528100D02*
X9358039Y-14566195D01*
X9358039Y-14566195D02*
X9358039Y-14613814D01*
X9358039Y-14613814D02*
X9348515Y-14651909D01*
X9348515Y-14651909D02*
X9338991Y-14670957D01*
X9338991Y-14670957D02*
X9329467Y-14680481D01*
X9329467Y-14680481D02*
X9310420Y-14690005D01*
X9310420Y-14690005D02*
X9291372Y-14690005D01*
X9291372Y-14690005D02*
X9272324Y-14680481D01*
X9272324Y-14680481D02*
X9262801Y-14670957D01*
X9262801Y-14670957D02*
X9253277Y-14651909D01*
X9253277Y-14651909D02*
X9243753Y-14613814D01*
X9243753Y-14613814D02*
X9243753Y-14566195D01*
X9243753Y-14566195D02*
X9253277Y-14528100D01*
X9253277Y-14528100D02*
X9262801Y-14509052D01*
X9262801Y-14509052D02*
X9272324Y-14499529D01*
X9272324Y-14499529D02*
X9291372Y-14490005D01*
X9443753Y-14670957D02*
X9453277Y-14680481D01*
X9453277Y-14680481D02*
X9443753Y-14690005D01*
X9443753Y-14690005D02*
X9434229Y-14680481D01*
X9434229Y-14680481D02*
X9443753Y-14670957D01*
X9443753Y-14670957D02*
X9443753Y-14690005D01*
X9624705Y-14556671D02*
X9624705Y-14690005D01*
X9577086Y-14480481D02*
X9529467Y-14623338D01*
X9529467Y-14623338D02*
X9653277Y-14623338D01*
X9767563Y-14490005D02*
X9786610Y-14490005D01*
X9786610Y-14490005D02*
X9805658Y-14499529D01*
X9805658Y-14499529D02*
X9815182Y-14509052D01*
X9815182Y-14509052D02*
X9824705Y-14528100D01*
X9824705Y-14528100D02*
X9834229Y-14566195D01*
X9834229Y-14566195D02*
X9834229Y-14613814D01*
X9834229Y-14613814D02*
X9824705Y-14651909D01*
X9824705Y-14651909D02*
X9815182Y-14670957D01*
X9815182Y-14670957D02*
X9805658Y-14680481D01*
X9805658Y-14680481D02*
X9786610Y-14690005D01*
X9786610Y-14690005D02*
X9767563Y-14690005D01*
X9767563Y-14690005D02*
X9748515Y-14680481D01*
X9748515Y-14680481D02*
X9738991Y-14670957D01*
X9738991Y-14670957D02*
X9729467Y-14651909D01*
X9729467Y-14651909D02*
X9719944Y-14613814D01*
X9719944Y-14613814D02*
X9719944Y-14566195D01*
X9719944Y-14566195D02*
X9729467Y-14528100D01*
X9729467Y-14528100D02*
X9738991Y-14509052D01*
X9738991Y-14509052D02*
X9748515Y-14499529D01*
X9748515Y-14499529D02*
X9767563Y-14490005D01*
X9958039Y-14490005D02*
X9977086Y-14490005D01*
X9977086Y-14490005D02*
X9996134Y-14499529D01*
X9996134Y-14499529D02*
X10005658Y-14509052D01*
X10005658Y-14509052D02*
X10015182Y-14528100D01*
X10015182Y-14528100D02*
X10024705Y-14566195D01*
X10024705Y-14566195D02*
X10024705Y-14613814D01*
X10024705Y-14613814D02*
X10015182Y-14651909D01*
X10015182Y-14651909D02*
X10005658Y-14670957D01*
X10005658Y-14670957D02*
X9996134Y-14680481D01*
X9996134Y-14680481D02*
X9977086Y-14690005D01*
X9977086Y-14690005D02*
X9958039Y-14690005D01*
X9958039Y-14690005D02*
X9938991Y-14680481D01*
X9938991Y-14680481D02*
X9929467Y-14670957D01*
X9929467Y-14670957D02*
X9919944Y-14651909D01*
X9919944Y-14651909D02*
X9910420Y-14613814D01*
X9910420Y-14613814D02*
X9910420Y-14566195D01*
X9910420Y-14566195D02*
X9919944Y-14528100D01*
X9919944Y-14528100D02*
X9929467Y-14509052D01*
X9929467Y-14509052D02*
X9938991Y-14499529D01*
X9938991Y-14499529D02*
X9958039Y-14490005D01*
X10110420Y-14690005D02*
X10110420Y-14556671D01*
X10110420Y-14575719D02*
X10119944Y-14566195D01*
X10119944Y-14566195D02*
X10138991Y-14556671D01*
X10138991Y-14556671D02*
X10167563Y-14556671D01*
X10167563Y-14556671D02*
X10186610Y-14566195D01*
X10186610Y-14566195D02*
X10196134Y-14585243D01*
X10196134Y-14585243D02*
X10196134Y-14690005D01*
X10196134Y-14585243D02*
X10205658Y-14566195D01*
X10205658Y-14566195D02*
X10224705Y-14556671D01*
X10224705Y-14556671D02*
X10253277Y-14556671D01*
X10253277Y-14556671D02*
X10272325Y-14566195D01*
X10272325Y-14566195D02*
X10281848Y-14585243D01*
X10281848Y-14585243D02*
X10281848Y-14690005D01*
X10377086Y-14690005D02*
X10377086Y-14556671D01*
X10377086Y-14575719D02*
X10386610Y-14566195D01*
X10386610Y-14566195D02*
X10405658Y-14556671D01*
X10405658Y-14556671D02*
X10434229Y-14556671D01*
X10434229Y-14556671D02*
X10453277Y-14566195D01*
X10453277Y-14566195D02*
X10462801Y-14585243D01*
X10462801Y-14585243D02*
X10462801Y-14690005D01*
X10462801Y-14585243D02*
X10472325Y-14566195D01*
X10472325Y-14566195D02*
X10491372Y-14556671D01*
X10491372Y-14556671D02*
X10519944Y-14556671D01*
X10519944Y-14556671D02*
X10538991Y-14566195D01*
X10538991Y-14566195D02*
X10548515Y-14585243D01*
X10548515Y-14585243D02*
X10548515Y-14690005D01*
X10938991Y-14480481D02*
X10767563Y-14737624D01*
X11196134Y-14490005D02*
X11215182Y-14490005D01*
X11215182Y-14490005D02*
X11234229Y-14499529D01*
X11234229Y-14499529D02*
X11243753Y-14509052D01*
X11243753Y-14509052D02*
X11253277Y-14528100D01*
X11253277Y-14528100D02*
X11262801Y-14566195D01*
X11262801Y-14566195D02*
X11262801Y-14613814D01*
X11262801Y-14613814D02*
X11253277Y-14651909D01*
X11253277Y-14651909D02*
X11243753Y-14670957D01*
X11243753Y-14670957D02*
X11234229Y-14680481D01*
X11234229Y-14680481D02*
X11215182Y-14690005D01*
X11215182Y-14690005D02*
X11196134Y-14690005D01*
X11196134Y-14690005D02*
X11177087Y-14680481D01*
X11177087Y-14680481D02*
X11167563Y-14670957D01*
X11167563Y-14670957D02*
X11158039Y-14651909D01*
X11158039Y-14651909D02*
X11148515Y-14613814D01*
X11148515Y-14613814D02*
X11148515Y-14566195D01*
X11148515Y-14566195D02*
X11158039Y-14528100D01*
X11158039Y-14528100D02*
X11167563Y-14509052D01*
X11167563Y-14509052D02*
X11177087Y-14499529D01*
X11177087Y-14499529D02*
X11196134Y-14490005D01*
X11348515Y-14670957D02*
X11358039Y-14680481D01*
X11358039Y-14680481D02*
X11348515Y-14690005D01*
X11348515Y-14690005D02*
X11338991Y-14680481D01*
X11338991Y-14680481D02*
X11348515Y-14670957D01*
X11348515Y-14670957D02*
X11348515Y-14690005D01*
X11481848Y-14490005D02*
X11500896Y-14490005D01*
X11500896Y-14490005D02*
X11519944Y-14499529D01*
X11519944Y-14499529D02*
X11529467Y-14509052D01*
X11529467Y-14509052D02*
X11538991Y-14528100D01*
X11538991Y-14528100D02*
X11548515Y-14566195D01*
X11548515Y-14566195D02*
X11548515Y-14613814D01*
X11548515Y-14613814D02*
X11538991Y-14651909D01*
X11538991Y-14651909D02*
X11529467Y-14670957D01*
X11529467Y-14670957D02*
X11519944Y-14680481D01*
X11519944Y-14680481D02*
X11500896Y-14690005D01*
X11500896Y-14690005D02*
X11481848Y-14690005D01*
X11481848Y-14690005D02*
X11462801Y-14680481D01*
X11462801Y-14680481D02*
X11453277Y-14670957D01*
X11453277Y-14670957D02*
X11443753Y-14651909D01*
X11443753Y-14651909D02*
X11434229Y-14613814D01*
X11434229Y-14613814D02*
X11434229Y-14566195D01*
X11434229Y-14566195D02*
X11443753Y-14528100D01*
X11443753Y-14528100D02*
X11453277Y-14509052D01*
X11453277Y-14509052D02*
X11462801Y-14499529D01*
X11462801Y-14499529D02*
X11481848Y-14490005D01*
X11738991Y-14690005D02*
X11624706Y-14690005D01*
X11681848Y-14690005D02*
X11681848Y-14490005D01*
X11681848Y-14490005D02*
X11662801Y-14518576D01*
X11662801Y-14518576D02*
X11643753Y-14537624D01*
X11643753Y-14537624D02*
X11624706Y-14547148D01*
X11919944Y-14490005D02*
X11824706Y-14490005D01*
X11824706Y-14490005D02*
X11815182Y-14585243D01*
X11815182Y-14585243D02*
X11824706Y-14575719D01*
X11824706Y-14575719D02*
X11843753Y-14566195D01*
X11843753Y-14566195D02*
X11891372Y-14566195D01*
X11891372Y-14566195D02*
X11910420Y-14575719D01*
X11910420Y-14575719D02*
X11919944Y-14585243D01*
X11919944Y-14585243D02*
X11929467Y-14604290D01*
X11929467Y-14604290D02*
X11929467Y-14651909D01*
X11929467Y-14651909D02*
X11919944Y-14670957D01*
X11919944Y-14670957D02*
X11910420Y-14680481D01*
X11910420Y-14680481D02*
X11891372Y-14690005D01*
X11891372Y-14690005D02*
X11843753Y-14690005D01*
X11843753Y-14690005D02*
X11824706Y-14680481D01*
X11824706Y-14680481D02*
X11815182Y-14670957D01*
X11996134Y-14490005D02*
X12129467Y-14490005D01*
X12129467Y-14490005D02*
X12043753Y-14690005D01*
X12196134Y-14490005D02*
X12196134Y-14528100D01*
X12272325Y-14490005D02*
X12272325Y-14528100D01*
X12567563Y-14766195D02*
X12558039Y-14756671D01*
X12558039Y-14756671D02*
X12538991Y-14728100D01*
X12538991Y-14728100D02*
X12529468Y-14709052D01*
X12529468Y-14709052D02*
X12519944Y-14680481D01*
X12519944Y-14680481D02*
X12510420Y-14632862D01*
X12510420Y-14632862D02*
X12510420Y-14594767D01*
X12510420Y-14594767D02*
X12519944Y-14547148D01*
X12519944Y-14547148D02*
X12529468Y-14518576D01*
X12529468Y-14518576D02*
X12538991Y-14499529D01*
X12538991Y-14499529D02*
X12558039Y-14470957D01*
X12558039Y-14470957D02*
X12567563Y-14461433D01*
X12634229Y-14509052D02*
X12643753Y-14499529D01*
X12643753Y-14499529D02*
X12662801Y-14490005D01*
X12662801Y-14490005D02*
X12710420Y-14490005D01*
X12710420Y-14490005D02*
X12729468Y-14499529D01*
X12729468Y-14499529D02*
X12738991Y-14509052D01*
X12738991Y-14509052D02*
X12748515Y-14528100D01*
X12748515Y-14528100D02*
X12748515Y-14547148D01*
X12748515Y-14547148D02*
X12738991Y-14575719D01*
X12738991Y-14575719D02*
X12624706Y-14690005D01*
X12624706Y-14690005D02*
X12748515Y-14690005D01*
X12919944Y-14556671D02*
X12919944Y-14690005D01*
X12872325Y-14480481D02*
X12824706Y-14623338D01*
X12824706Y-14623338D02*
X12948515Y-14623338D01*
X13177087Y-14690005D02*
X13177087Y-14490005D01*
X13262801Y-14690005D02*
X13262801Y-14585243D01*
X13262801Y-14585243D02*
X13253277Y-14566195D01*
X13253277Y-14566195D02*
X13234230Y-14556671D01*
X13234230Y-14556671D02*
X13205658Y-14556671D01*
X13205658Y-14556671D02*
X13186610Y-14566195D01*
X13186610Y-14566195D02*
X13177087Y-14575719D01*
X13386610Y-14690005D02*
X13367563Y-14680481D01*
X13367563Y-14680481D02*
X13358039Y-14670957D01*
X13358039Y-14670957D02*
X13348515Y-14651909D01*
X13348515Y-14651909D02*
X13348515Y-14594767D01*
X13348515Y-14594767D02*
X13358039Y-14575719D01*
X13358039Y-14575719D02*
X13367563Y-14566195D01*
X13367563Y-14566195D02*
X13386610Y-14556671D01*
X13386610Y-14556671D02*
X13415182Y-14556671D01*
X13415182Y-14556671D02*
X13434230Y-14566195D01*
X13434230Y-14566195D02*
X13443753Y-14575719D01*
X13443753Y-14575719D02*
X13453277Y-14594767D01*
X13453277Y-14594767D02*
X13453277Y-14651909D01*
X13453277Y-14651909D02*
X13443753Y-14670957D01*
X13443753Y-14670957D02*
X13434230Y-14680481D01*
X13434230Y-14680481D02*
X13415182Y-14690005D01*
X13415182Y-14690005D02*
X13386610Y-14690005D01*
X13567563Y-14690005D02*
X13548515Y-14680481D01*
X13548515Y-14680481D02*
X13538991Y-14661433D01*
X13538991Y-14661433D02*
X13538991Y-14490005D01*
X13719944Y-14680481D02*
X13700896Y-14690005D01*
X13700896Y-14690005D02*
X13662801Y-14690005D01*
X13662801Y-14690005D02*
X13643753Y-14680481D01*
X13643753Y-14680481D02*
X13634230Y-14661433D01*
X13634230Y-14661433D02*
X13634230Y-14585243D01*
X13634230Y-14585243D02*
X13643753Y-14566195D01*
X13643753Y-14566195D02*
X13662801Y-14556671D01*
X13662801Y-14556671D02*
X13700896Y-14556671D01*
X13700896Y-14556671D02*
X13719944Y-14566195D01*
X13719944Y-14566195D02*
X13729468Y-14585243D01*
X13729468Y-14585243D02*
X13729468Y-14604290D01*
X13729468Y-14604290D02*
X13634230Y-14623338D01*
X13805658Y-14680481D02*
X13824706Y-14690005D01*
X13824706Y-14690005D02*
X13862801Y-14690005D01*
X13862801Y-14690005D02*
X13881849Y-14680481D01*
X13881849Y-14680481D02*
X13891372Y-14661433D01*
X13891372Y-14661433D02*
X13891372Y-14651909D01*
X13891372Y-14651909D02*
X13881849Y-14632862D01*
X13881849Y-14632862D02*
X13862801Y-14623338D01*
X13862801Y-14623338D02*
X13834230Y-14623338D01*
X13834230Y-14623338D02*
X13815182Y-14613814D01*
X13815182Y-14613814D02*
X13805658Y-14594767D01*
X13805658Y-14594767D02*
X13805658Y-14585243D01*
X13805658Y-14585243D02*
X13815182Y-14566195D01*
X13815182Y-14566195D02*
X13834230Y-14556671D01*
X13834230Y-14556671D02*
X13862801Y-14556671D01*
X13862801Y-14556671D02*
X13881849Y-14566195D01*
X13958039Y-14766195D02*
X13967563Y-14756671D01*
X13967563Y-14756671D02*
X13986611Y-14728100D01*
X13986611Y-14728100D02*
X13996134Y-14709052D01*
X13996134Y-14709052D02*
X14005658Y-14680481D01*
X14005658Y-14680481D02*
X14015182Y-14632862D01*
X14015182Y-14632862D02*
X14015182Y-14594767D01*
X14015182Y-14594767D02*
X14005658Y-14547148D01*
X14005658Y-14547148D02*
X13996134Y-14518576D01*
X13996134Y-14518576D02*
X13986611Y-14499529D01*
X13986611Y-14499529D02*
X13967563Y-14470957D01*
X13967563Y-14470957D02*
X13958039Y-14461433D01*
D12*
X8992500Y-14862521D02*
G75*
G02*
X8917500Y-14862521I-37500J0D01*
G01*
X8917500Y-14862521D02*
G75*
G02*
X8992500Y-14862521I37500J0D01*
G01*
D11*
X9291372Y-14754005D02*
X9310420Y-14754005D01*
X9310420Y-14754005D02*
X9329467Y-14763529D01*
X9329467Y-14763529D02*
X9338991Y-14773052D01*
X9338991Y-14773052D02*
X9348515Y-14792100D01*
X9348515Y-14792100D02*
X9358039Y-14830195D01*
X9358039Y-14830195D02*
X9358039Y-14877814D01*
X9358039Y-14877814D02*
X9348515Y-14915909D01*
X9348515Y-14915909D02*
X9338991Y-14934957D01*
X9338991Y-14934957D02*
X9329467Y-14944481D01*
X9329467Y-14944481D02*
X9310420Y-14954005D01*
X9310420Y-14954005D02*
X9291372Y-14954005D01*
X9291372Y-14954005D02*
X9272324Y-14944481D01*
X9272324Y-14944481D02*
X9262801Y-14934957D01*
X9262801Y-14934957D02*
X9253277Y-14915909D01*
X9253277Y-14915909D02*
X9243753Y-14877814D01*
X9243753Y-14877814D02*
X9243753Y-14830195D01*
X9243753Y-14830195D02*
X9253277Y-14792100D01*
X9253277Y-14792100D02*
X9262801Y-14773052D01*
X9262801Y-14773052D02*
X9272324Y-14763529D01*
X9272324Y-14763529D02*
X9291372Y-14754005D01*
X9443753Y-14934957D02*
X9453277Y-14944481D01*
X9453277Y-14944481D02*
X9443753Y-14954005D01*
X9443753Y-14954005D02*
X9434229Y-14944481D01*
X9434229Y-14944481D02*
X9443753Y-14934957D01*
X9443753Y-14934957D02*
X9443753Y-14954005D01*
X9519944Y-14754005D02*
X9653277Y-14754005D01*
X9653277Y-14754005D02*
X9567563Y-14954005D01*
X9824705Y-14754005D02*
X9729467Y-14754005D01*
X9729467Y-14754005D02*
X9719944Y-14849243D01*
X9719944Y-14849243D02*
X9729467Y-14839719D01*
X9729467Y-14839719D02*
X9748515Y-14830195D01*
X9748515Y-14830195D02*
X9796134Y-14830195D01*
X9796134Y-14830195D02*
X9815182Y-14839719D01*
X9815182Y-14839719D02*
X9824705Y-14849243D01*
X9824705Y-14849243D02*
X9834229Y-14868290D01*
X9834229Y-14868290D02*
X9834229Y-14915909D01*
X9834229Y-14915909D02*
X9824705Y-14934957D01*
X9824705Y-14934957D02*
X9815182Y-14944481D01*
X9815182Y-14944481D02*
X9796134Y-14954005D01*
X9796134Y-14954005D02*
X9748515Y-14954005D01*
X9748515Y-14954005D02*
X9729467Y-14944481D01*
X9729467Y-14944481D02*
X9719944Y-14934957D01*
X9958039Y-14754005D02*
X9977086Y-14754005D01*
X9977086Y-14754005D02*
X9996134Y-14763529D01*
X9996134Y-14763529D02*
X10005658Y-14773052D01*
X10005658Y-14773052D02*
X10015182Y-14792100D01*
X10015182Y-14792100D02*
X10024705Y-14830195D01*
X10024705Y-14830195D02*
X10024705Y-14877814D01*
X10024705Y-14877814D02*
X10015182Y-14915909D01*
X10015182Y-14915909D02*
X10005658Y-14934957D01*
X10005658Y-14934957D02*
X9996134Y-14944481D01*
X9996134Y-14944481D02*
X9977086Y-14954005D01*
X9977086Y-14954005D02*
X9958039Y-14954005D01*
X9958039Y-14954005D02*
X9938991Y-14944481D01*
X9938991Y-14944481D02*
X9929467Y-14934957D01*
X9929467Y-14934957D02*
X9919944Y-14915909D01*
X9919944Y-14915909D02*
X9910420Y-14877814D01*
X9910420Y-14877814D02*
X9910420Y-14830195D01*
X9910420Y-14830195D02*
X9919944Y-14792100D01*
X9919944Y-14792100D02*
X9929467Y-14773052D01*
X9929467Y-14773052D02*
X9938991Y-14763529D01*
X9938991Y-14763529D02*
X9958039Y-14754005D01*
X10110420Y-14954005D02*
X10110420Y-14820671D01*
X10110420Y-14839719D02*
X10119944Y-14830195D01*
X10119944Y-14830195D02*
X10138991Y-14820671D01*
X10138991Y-14820671D02*
X10167563Y-14820671D01*
X10167563Y-14820671D02*
X10186610Y-14830195D01*
X10186610Y-14830195D02*
X10196134Y-14849243D01*
X10196134Y-14849243D02*
X10196134Y-14954005D01*
X10196134Y-14849243D02*
X10205658Y-14830195D01*
X10205658Y-14830195D02*
X10224705Y-14820671D01*
X10224705Y-14820671D02*
X10253277Y-14820671D01*
X10253277Y-14820671D02*
X10272325Y-14830195D01*
X10272325Y-14830195D02*
X10281848Y-14849243D01*
X10281848Y-14849243D02*
X10281848Y-14954005D01*
X10377086Y-14954005D02*
X10377086Y-14820671D01*
X10377086Y-14839719D02*
X10386610Y-14830195D01*
X10386610Y-14830195D02*
X10405658Y-14820671D01*
X10405658Y-14820671D02*
X10434229Y-14820671D01*
X10434229Y-14820671D02*
X10453277Y-14830195D01*
X10453277Y-14830195D02*
X10462801Y-14849243D01*
X10462801Y-14849243D02*
X10462801Y-14954005D01*
X10462801Y-14849243D02*
X10472325Y-14830195D01*
X10472325Y-14830195D02*
X10491372Y-14820671D01*
X10491372Y-14820671D02*
X10519944Y-14820671D01*
X10519944Y-14820671D02*
X10538991Y-14830195D01*
X10538991Y-14830195D02*
X10548515Y-14849243D01*
X10548515Y-14849243D02*
X10548515Y-14954005D01*
X10938991Y-14744481D02*
X10767563Y-15001624D01*
X11196134Y-14754005D02*
X11215182Y-14754005D01*
X11215182Y-14754005D02*
X11234229Y-14763529D01*
X11234229Y-14763529D02*
X11243753Y-14773052D01*
X11243753Y-14773052D02*
X11253277Y-14792100D01*
X11253277Y-14792100D02*
X11262801Y-14830195D01*
X11262801Y-14830195D02*
X11262801Y-14877814D01*
X11262801Y-14877814D02*
X11253277Y-14915909D01*
X11253277Y-14915909D02*
X11243753Y-14934957D01*
X11243753Y-14934957D02*
X11234229Y-14944481D01*
X11234229Y-14944481D02*
X11215182Y-14954005D01*
X11215182Y-14954005D02*
X11196134Y-14954005D01*
X11196134Y-14954005D02*
X11177087Y-14944481D01*
X11177087Y-14944481D02*
X11167563Y-14934957D01*
X11167563Y-14934957D02*
X11158039Y-14915909D01*
X11158039Y-14915909D02*
X11148515Y-14877814D01*
X11148515Y-14877814D02*
X11148515Y-14830195D01*
X11148515Y-14830195D02*
X11158039Y-14792100D01*
X11158039Y-14792100D02*
X11167563Y-14773052D01*
X11167563Y-14773052D02*
X11177087Y-14763529D01*
X11177087Y-14763529D02*
X11196134Y-14754005D01*
X11348515Y-14934957D02*
X11358039Y-14944481D01*
X11358039Y-14944481D02*
X11348515Y-14954005D01*
X11348515Y-14954005D02*
X11338991Y-14944481D01*
X11338991Y-14944481D02*
X11348515Y-14934957D01*
X11348515Y-14934957D02*
X11348515Y-14954005D01*
X11481848Y-14754005D02*
X11500896Y-14754005D01*
X11500896Y-14754005D02*
X11519944Y-14763529D01*
X11519944Y-14763529D02*
X11529467Y-14773052D01*
X11529467Y-14773052D02*
X11538991Y-14792100D01*
X11538991Y-14792100D02*
X11548515Y-14830195D01*
X11548515Y-14830195D02*
X11548515Y-14877814D01*
X11548515Y-14877814D02*
X11538991Y-14915909D01*
X11538991Y-14915909D02*
X11529467Y-14934957D01*
X11529467Y-14934957D02*
X11519944Y-14944481D01*
X11519944Y-14944481D02*
X11500896Y-14954005D01*
X11500896Y-14954005D02*
X11481848Y-14954005D01*
X11481848Y-14954005D02*
X11462801Y-14944481D01*
X11462801Y-14944481D02*
X11453277Y-14934957D01*
X11453277Y-14934957D02*
X11443753Y-14915909D01*
X11443753Y-14915909D02*
X11434229Y-14877814D01*
X11434229Y-14877814D02*
X11434229Y-14830195D01*
X11434229Y-14830195D02*
X11443753Y-14792100D01*
X11443753Y-14792100D02*
X11453277Y-14773052D01*
X11453277Y-14773052D02*
X11462801Y-14763529D01*
X11462801Y-14763529D02*
X11481848Y-14754005D01*
X11624706Y-14773052D02*
X11634229Y-14763529D01*
X11634229Y-14763529D02*
X11653277Y-14754005D01*
X11653277Y-14754005D02*
X11700896Y-14754005D01*
X11700896Y-14754005D02*
X11719944Y-14763529D01*
X11719944Y-14763529D02*
X11729467Y-14773052D01*
X11729467Y-14773052D02*
X11738991Y-14792100D01*
X11738991Y-14792100D02*
X11738991Y-14811148D01*
X11738991Y-14811148D02*
X11729467Y-14839719D01*
X11729467Y-14839719D02*
X11615182Y-14954005D01*
X11615182Y-14954005D02*
X11738991Y-14954005D01*
X11834229Y-14954005D02*
X11872325Y-14954005D01*
X11872325Y-14954005D02*
X11891372Y-14944481D01*
X11891372Y-14944481D02*
X11900896Y-14934957D01*
X11900896Y-14934957D02*
X11919944Y-14906386D01*
X11919944Y-14906386D02*
X11929467Y-14868290D01*
X11929467Y-14868290D02*
X11929467Y-14792100D01*
X11929467Y-14792100D02*
X11919944Y-14773052D01*
X11919944Y-14773052D02*
X11910420Y-14763529D01*
X11910420Y-14763529D02*
X11891372Y-14754005D01*
X11891372Y-14754005D02*
X11853277Y-14754005D01*
X11853277Y-14754005D02*
X11834229Y-14763529D01*
X11834229Y-14763529D02*
X11824706Y-14773052D01*
X11824706Y-14773052D02*
X11815182Y-14792100D01*
X11815182Y-14792100D02*
X11815182Y-14839719D01*
X11815182Y-14839719D02*
X11824706Y-14858767D01*
X11824706Y-14858767D02*
X11834229Y-14868290D01*
X11834229Y-14868290D02*
X11853277Y-14877814D01*
X11853277Y-14877814D02*
X11891372Y-14877814D01*
X11891372Y-14877814D02*
X11910420Y-14868290D01*
X11910420Y-14868290D02*
X11919944Y-14858767D01*
X11919944Y-14858767D02*
X11929467Y-14839719D01*
X12110420Y-14754005D02*
X12015182Y-14754005D01*
X12015182Y-14754005D02*
X12005658Y-14849243D01*
X12005658Y-14849243D02*
X12015182Y-14839719D01*
X12015182Y-14839719D02*
X12034229Y-14830195D01*
X12034229Y-14830195D02*
X12081848Y-14830195D01*
X12081848Y-14830195D02*
X12100896Y-14839719D01*
X12100896Y-14839719D02*
X12110420Y-14849243D01*
X12110420Y-14849243D02*
X12119944Y-14868290D01*
X12119944Y-14868290D02*
X12119944Y-14915909D01*
X12119944Y-14915909D02*
X12110420Y-14934957D01*
X12110420Y-14934957D02*
X12100896Y-14944481D01*
X12100896Y-14944481D02*
X12081848Y-14954005D01*
X12081848Y-14954005D02*
X12034229Y-14954005D01*
X12034229Y-14954005D02*
X12015182Y-14944481D01*
X12015182Y-14944481D02*
X12005658Y-14934957D01*
X12196134Y-14754005D02*
X12196134Y-14792100D01*
X12272325Y-14754005D02*
X12272325Y-14792100D01*
X12567563Y-15030195D02*
X12558039Y-15020671D01*
X12558039Y-15020671D02*
X12538991Y-14992100D01*
X12538991Y-14992100D02*
X12529468Y-14973052D01*
X12529468Y-14973052D02*
X12519944Y-14944481D01*
X12519944Y-14944481D02*
X12510420Y-14896862D01*
X12510420Y-14896862D02*
X12510420Y-14858767D01*
X12510420Y-14858767D02*
X12519944Y-14811148D01*
X12519944Y-14811148D02*
X12529468Y-14782576D01*
X12529468Y-14782576D02*
X12538991Y-14763529D01*
X12538991Y-14763529D02*
X12558039Y-14734957D01*
X12558039Y-14734957D02*
X12567563Y-14725433D01*
X12634229Y-14773052D02*
X12643753Y-14763529D01*
X12643753Y-14763529D02*
X12662801Y-14754005D01*
X12662801Y-14754005D02*
X12710420Y-14754005D01*
X12710420Y-14754005D02*
X12729468Y-14763529D01*
X12729468Y-14763529D02*
X12738991Y-14773052D01*
X12738991Y-14773052D02*
X12748515Y-14792100D01*
X12748515Y-14792100D02*
X12748515Y-14811148D01*
X12748515Y-14811148D02*
X12738991Y-14839719D01*
X12738991Y-14839719D02*
X12624706Y-14954005D01*
X12624706Y-14954005D02*
X12748515Y-14954005D01*
X12986610Y-14954005D02*
X12986610Y-14754005D01*
X13072325Y-14954005D02*
X13072325Y-14849243D01*
X13072325Y-14849243D02*
X13062801Y-14830195D01*
X13062801Y-14830195D02*
X13043753Y-14820671D01*
X13043753Y-14820671D02*
X13015182Y-14820671D01*
X13015182Y-14820671D02*
X12996134Y-14830195D01*
X12996134Y-14830195D02*
X12986610Y-14839719D01*
X13196134Y-14954005D02*
X13177087Y-14944481D01*
X13177087Y-14944481D02*
X13167563Y-14934957D01*
X13167563Y-14934957D02*
X13158039Y-14915909D01*
X13158039Y-14915909D02*
X13158039Y-14858767D01*
X13158039Y-14858767D02*
X13167563Y-14839719D01*
X13167563Y-14839719D02*
X13177087Y-14830195D01*
X13177087Y-14830195D02*
X13196134Y-14820671D01*
X13196134Y-14820671D02*
X13224706Y-14820671D01*
X13224706Y-14820671D02*
X13243753Y-14830195D01*
X13243753Y-14830195D02*
X13253277Y-14839719D01*
X13253277Y-14839719D02*
X13262801Y-14858767D01*
X13262801Y-14858767D02*
X13262801Y-14915909D01*
X13262801Y-14915909D02*
X13253277Y-14934957D01*
X13253277Y-14934957D02*
X13243753Y-14944481D01*
X13243753Y-14944481D02*
X13224706Y-14954005D01*
X13224706Y-14954005D02*
X13196134Y-14954005D01*
X13377087Y-14954005D02*
X13358039Y-14944481D01*
X13358039Y-14944481D02*
X13348515Y-14925433D01*
X13348515Y-14925433D02*
X13348515Y-14754005D01*
X13529468Y-14944481D02*
X13510420Y-14954005D01*
X13510420Y-14954005D02*
X13472325Y-14954005D01*
X13472325Y-14954005D02*
X13453277Y-14944481D01*
X13453277Y-14944481D02*
X13443753Y-14925433D01*
X13443753Y-14925433D02*
X13443753Y-14849243D01*
X13443753Y-14849243D02*
X13453277Y-14830195D01*
X13453277Y-14830195D02*
X13472325Y-14820671D01*
X13472325Y-14820671D02*
X13510420Y-14820671D01*
X13510420Y-14820671D02*
X13529468Y-14830195D01*
X13529468Y-14830195D02*
X13538991Y-14849243D01*
X13538991Y-14849243D02*
X13538991Y-14868290D01*
X13538991Y-14868290D02*
X13443753Y-14887338D01*
X13615182Y-14944481D02*
X13634230Y-14954005D01*
X13634230Y-14954005D02*
X13672325Y-14954005D01*
X13672325Y-14954005D02*
X13691372Y-14944481D01*
X13691372Y-14944481D02*
X13700896Y-14925433D01*
X13700896Y-14925433D02*
X13700896Y-14915909D01*
X13700896Y-14915909D02*
X13691372Y-14896862D01*
X13691372Y-14896862D02*
X13672325Y-14887338D01*
X13672325Y-14887338D02*
X13643753Y-14887338D01*
X13643753Y-14887338D02*
X13624706Y-14877814D01*
X13624706Y-14877814D02*
X13615182Y-14858767D01*
X13615182Y-14858767D02*
X13615182Y-14849243D01*
X13615182Y-14849243D02*
X13624706Y-14830195D01*
X13624706Y-14830195D02*
X13643753Y-14820671D01*
X13643753Y-14820671D02*
X13672325Y-14820671D01*
X13672325Y-14820671D02*
X13691372Y-14830195D01*
X13767563Y-15030195D02*
X13777087Y-15020671D01*
X13777087Y-15020671D02*
X13796134Y-14992100D01*
X13796134Y-14992100D02*
X13805658Y-14973052D01*
X13805658Y-14973052D02*
X13815182Y-14944481D01*
X13815182Y-14944481D02*
X13824706Y-14896862D01*
X13824706Y-14896862D02*
X13824706Y-14858767D01*
X13824706Y-14858767D02*
X13815182Y-14811148D01*
X13815182Y-14811148D02*
X13805658Y-14782576D01*
X13805658Y-14782576D02*
X13796134Y-14763529D01*
X13796134Y-14763529D02*
X13777087Y-14734957D01*
X13777087Y-14734957D02*
X13767563Y-14725433D01*
D12*
X8942500Y-15076521D02*
X8942500Y-15176521D01*
X8892500Y-15126521D02*
X8992500Y-15126521D01*
D11*
X9358039Y-15218005D02*
X9243753Y-15218005D01*
X9300896Y-15218005D02*
X9300896Y-15018005D01*
X9300896Y-15018005D02*
X9281848Y-15046576D01*
X9281848Y-15046576D02*
X9262801Y-15065624D01*
X9262801Y-15065624D02*
X9243753Y-15075148D01*
X9443753Y-15198957D02*
X9453277Y-15208481D01*
X9453277Y-15208481D02*
X9443753Y-15218005D01*
X9443753Y-15218005D02*
X9434229Y-15208481D01*
X9434229Y-15208481D02*
X9443753Y-15198957D01*
X9443753Y-15198957D02*
X9443753Y-15218005D01*
X9577086Y-15018005D02*
X9596134Y-15018005D01*
X9596134Y-15018005D02*
X9615182Y-15027529D01*
X9615182Y-15027529D02*
X9624705Y-15037052D01*
X9624705Y-15037052D02*
X9634229Y-15056100D01*
X9634229Y-15056100D02*
X9643753Y-15094195D01*
X9643753Y-15094195D02*
X9643753Y-15141814D01*
X9643753Y-15141814D02*
X9634229Y-15179909D01*
X9634229Y-15179909D02*
X9624705Y-15198957D01*
X9624705Y-15198957D02*
X9615182Y-15208481D01*
X9615182Y-15208481D02*
X9596134Y-15218005D01*
X9596134Y-15218005D02*
X9577086Y-15218005D01*
X9577086Y-15218005D02*
X9558039Y-15208481D01*
X9558039Y-15208481D02*
X9548515Y-15198957D01*
X9548515Y-15198957D02*
X9538991Y-15179909D01*
X9538991Y-15179909D02*
X9529467Y-15141814D01*
X9529467Y-15141814D02*
X9529467Y-15094195D01*
X9529467Y-15094195D02*
X9538991Y-15056100D01*
X9538991Y-15056100D02*
X9548515Y-15037052D01*
X9548515Y-15037052D02*
X9558039Y-15027529D01*
X9558039Y-15027529D02*
X9577086Y-15018005D01*
X9767563Y-15018005D02*
X9786610Y-15018005D01*
X9786610Y-15018005D02*
X9805658Y-15027529D01*
X9805658Y-15027529D02*
X9815182Y-15037052D01*
X9815182Y-15037052D02*
X9824705Y-15056100D01*
X9824705Y-15056100D02*
X9834229Y-15094195D01*
X9834229Y-15094195D02*
X9834229Y-15141814D01*
X9834229Y-15141814D02*
X9824705Y-15179909D01*
X9824705Y-15179909D02*
X9815182Y-15198957D01*
X9815182Y-15198957D02*
X9805658Y-15208481D01*
X9805658Y-15208481D02*
X9786610Y-15218005D01*
X9786610Y-15218005D02*
X9767563Y-15218005D01*
X9767563Y-15218005D02*
X9748515Y-15208481D01*
X9748515Y-15208481D02*
X9738991Y-15198957D01*
X9738991Y-15198957D02*
X9729467Y-15179909D01*
X9729467Y-15179909D02*
X9719944Y-15141814D01*
X9719944Y-15141814D02*
X9719944Y-15094195D01*
X9719944Y-15094195D02*
X9729467Y-15056100D01*
X9729467Y-15056100D02*
X9738991Y-15037052D01*
X9738991Y-15037052D02*
X9748515Y-15027529D01*
X9748515Y-15027529D02*
X9767563Y-15018005D01*
X9958039Y-15018005D02*
X9977086Y-15018005D01*
X9977086Y-15018005D02*
X9996134Y-15027529D01*
X9996134Y-15027529D02*
X10005658Y-15037052D01*
X10005658Y-15037052D02*
X10015182Y-15056100D01*
X10015182Y-15056100D02*
X10024705Y-15094195D01*
X10024705Y-15094195D02*
X10024705Y-15141814D01*
X10024705Y-15141814D02*
X10015182Y-15179909D01*
X10015182Y-15179909D02*
X10005658Y-15198957D01*
X10005658Y-15198957D02*
X9996134Y-15208481D01*
X9996134Y-15208481D02*
X9977086Y-15218005D01*
X9977086Y-15218005D02*
X9958039Y-15218005D01*
X9958039Y-15218005D02*
X9938991Y-15208481D01*
X9938991Y-15208481D02*
X9929467Y-15198957D01*
X9929467Y-15198957D02*
X9919944Y-15179909D01*
X9919944Y-15179909D02*
X9910420Y-15141814D01*
X9910420Y-15141814D02*
X9910420Y-15094195D01*
X9910420Y-15094195D02*
X9919944Y-15056100D01*
X9919944Y-15056100D02*
X9929467Y-15037052D01*
X9929467Y-15037052D02*
X9938991Y-15027529D01*
X9938991Y-15027529D02*
X9958039Y-15018005D01*
X10110420Y-15218005D02*
X10110420Y-15084671D01*
X10110420Y-15103719D02*
X10119944Y-15094195D01*
X10119944Y-15094195D02*
X10138991Y-15084671D01*
X10138991Y-15084671D02*
X10167563Y-15084671D01*
X10167563Y-15084671D02*
X10186610Y-15094195D01*
X10186610Y-15094195D02*
X10196134Y-15113243D01*
X10196134Y-15113243D02*
X10196134Y-15218005D01*
X10196134Y-15113243D02*
X10205658Y-15094195D01*
X10205658Y-15094195D02*
X10224705Y-15084671D01*
X10224705Y-15084671D02*
X10253277Y-15084671D01*
X10253277Y-15084671D02*
X10272325Y-15094195D01*
X10272325Y-15094195D02*
X10281848Y-15113243D01*
X10281848Y-15113243D02*
X10281848Y-15218005D01*
X10377086Y-15218005D02*
X10377086Y-15084671D01*
X10377086Y-15103719D02*
X10386610Y-15094195D01*
X10386610Y-15094195D02*
X10405658Y-15084671D01*
X10405658Y-15084671D02*
X10434229Y-15084671D01*
X10434229Y-15084671D02*
X10453277Y-15094195D01*
X10453277Y-15094195D02*
X10462801Y-15113243D01*
X10462801Y-15113243D02*
X10462801Y-15218005D01*
X10462801Y-15113243D02*
X10472325Y-15094195D01*
X10472325Y-15094195D02*
X10491372Y-15084671D01*
X10491372Y-15084671D02*
X10519944Y-15084671D01*
X10519944Y-15084671D02*
X10538991Y-15094195D01*
X10538991Y-15094195D02*
X10548515Y-15113243D01*
X10548515Y-15113243D02*
X10548515Y-15218005D01*
X10938991Y-15008481D02*
X10767563Y-15265624D01*
X11196134Y-15018005D02*
X11215182Y-15018005D01*
X11215182Y-15018005D02*
X11234229Y-15027529D01*
X11234229Y-15027529D02*
X11243753Y-15037052D01*
X11243753Y-15037052D02*
X11253277Y-15056100D01*
X11253277Y-15056100D02*
X11262801Y-15094195D01*
X11262801Y-15094195D02*
X11262801Y-15141814D01*
X11262801Y-15141814D02*
X11253277Y-15179909D01*
X11253277Y-15179909D02*
X11243753Y-15198957D01*
X11243753Y-15198957D02*
X11234229Y-15208481D01*
X11234229Y-15208481D02*
X11215182Y-15218005D01*
X11215182Y-15218005D02*
X11196134Y-15218005D01*
X11196134Y-15218005D02*
X11177087Y-15208481D01*
X11177087Y-15208481D02*
X11167563Y-15198957D01*
X11167563Y-15198957D02*
X11158039Y-15179909D01*
X11158039Y-15179909D02*
X11148515Y-15141814D01*
X11148515Y-15141814D02*
X11148515Y-15094195D01*
X11148515Y-15094195D02*
X11158039Y-15056100D01*
X11158039Y-15056100D02*
X11167563Y-15037052D01*
X11167563Y-15037052D02*
X11177087Y-15027529D01*
X11177087Y-15027529D02*
X11196134Y-15018005D01*
X11348515Y-15198957D02*
X11358039Y-15208481D01*
X11358039Y-15208481D02*
X11348515Y-15218005D01*
X11348515Y-15218005D02*
X11338991Y-15208481D01*
X11338991Y-15208481D02*
X11348515Y-15198957D01*
X11348515Y-15198957D02*
X11348515Y-15218005D01*
X11481848Y-15018005D02*
X11500896Y-15018005D01*
X11500896Y-15018005D02*
X11519944Y-15027529D01*
X11519944Y-15027529D02*
X11529467Y-15037052D01*
X11529467Y-15037052D02*
X11538991Y-15056100D01*
X11538991Y-15056100D02*
X11548515Y-15094195D01*
X11548515Y-15094195D02*
X11548515Y-15141814D01*
X11548515Y-15141814D02*
X11538991Y-15179909D01*
X11538991Y-15179909D02*
X11529467Y-15198957D01*
X11529467Y-15198957D02*
X11519944Y-15208481D01*
X11519944Y-15208481D02*
X11500896Y-15218005D01*
X11500896Y-15218005D02*
X11481848Y-15218005D01*
X11481848Y-15218005D02*
X11462801Y-15208481D01*
X11462801Y-15208481D02*
X11453277Y-15198957D01*
X11453277Y-15198957D02*
X11443753Y-15179909D01*
X11443753Y-15179909D02*
X11434229Y-15141814D01*
X11434229Y-15141814D02*
X11434229Y-15094195D01*
X11434229Y-15094195D02*
X11443753Y-15056100D01*
X11443753Y-15056100D02*
X11453277Y-15037052D01*
X11453277Y-15037052D02*
X11462801Y-15027529D01*
X11462801Y-15027529D02*
X11481848Y-15018005D01*
X11615182Y-15018005D02*
X11738991Y-15018005D01*
X11738991Y-15018005D02*
X11672325Y-15094195D01*
X11672325Y-15094195D02*
X11700896Y-15094195D01*
X11700896Y-15094195D02*
X11719944Y-15103719D01*
X11719944Y-15103719D02*
X11729467Y-15113243D01*
X11729467Y-15113243D02*
X11738991Y-15132290D01*
X11738991Y-15132290D02*
X11738991Y-15179909D01*
X11738991Y-15179909D02*
X11729467Y-15198957D01*
X11729467Y-15198957D02*
X11719944Y-15208481D01*
X11719944Y-15208481D02*
X11700896Y-15218005D01*
X11700896Y-15218005D02*
X11643753Y-15218005D01*
X11643753Y-15218005D02*
X11624706Y-15208481D01*
X11624706Y-15208481D02*
X11615182Y-15198957D01*
X11834229Y-15218005D02*
X11872325Y-15218005D01*
X11872325Y-15218005D02*
X11891372Y-15208481D01*
X11891372Y-15208481D02*
X11900896Y-15198957D01*
X11900896Y-15198957D02*
X11919944Y-15170386D01*
X11919944Y-15170386D02*
X11929467Y-15132290D01*
X11929467Y-15132290D02*
X11929467Y-15056100D01*
X11929467Y-15056100D02*
X11919944Y-15037052D01*
X11919944Y-15037052D02*
X11910420Y-15027529D01*
X11910420Y-15027529D02*
X11891372Y-15018005D01*
X11891372Y-15018005D02*
X11853277Y-15018005D01*
X11853277Y-15018005D02*
X11834229Y-15027529D01*
X11834229Y-15027529D02*
X11824706Y-15037052D01*
X11824706Y-15037052D02*
X11815182Y-15056100D01*
X11815182Y-15056100D02*
X11815182Y-15103719D01*
X11815182Y-15103719D02*
X11824706Y-15122767D01*
X11824706Y-15122767D02*
X11834229Y-15132290D01*
X11834229Y-15132290D02*
X11853277Y-15141814D01*
X11853277Y-15141814D02*
X11891372Y-15141814D01*
X11891372Y-15141814D02*
X11910420Y-15132290D01*
X11910420Y-15132290D02*
X11919944Y-15122767D01*
X11919944Y-15122767D02*
X11929467Y-15103719D01*
X12100896Y-15084671D02*
X12100896Y-15218005D01*
X12053277Y-15008481D02*
X12005658Y-15151338D01*
X12005658Y-15151338D02*
X12129467Y-15151338D01*
X12196134Y-15018005D02*
X12196134Y-15056100D01*
X12272325Y-15018005D02*
X12272325Y-15056100D01*
X12567563Y-15294195D02*
X12558039Y-15284671D01*
X12558039Y-15284671D02*
X12538991Y-15256100D01*
X12538991Y-15256100D02*
X12529468Y-15237052D01*
X12529468Y-15237052D02*
X12519944Y-15208481D01*
X12519944Y-15208481D02*
X12510420Y-15160862D01*
X12510420Y-15160862D02*
X12510420Y-15122767D01*
X12510420Y-15122767D02*
X12519944Y-15075148D01*
X12519944Y-15075148D02*
X12529468Y-15046576D01*
X12529468Y-15046576D02*
X12538991Y-15027529D01*
X12538991Y-15027529D02*
X12558039Y-14998957D01*
X12558039Y-14998957D02*
X12567563Y-14989433D01*
X12634229Y-15037052D02*
X12643753Y-15027529D01*
X12643753Y-15027529D02*
X12662801Y-15018005D01*
X12662801Y-15018005D02*
X12710420Y-15018005D01*
X12710420Y-15018005D02*
X12729468Y-15027529D01*
X12729468Y-15027529D02*
X12738991Y-15037052D01*
X12738991Y-15037052D02*
X12748515Y-15056100D01*
X12748515Y-15056100D02*
X12748515Y-15075148D01*
X12748515Y-15075148D02*
X12738991Y-15103719D01*
X12738991Y-15103719D02*
X12624706Y-15218005D01*
X12624706Y-15218005D02*
X12748515Y-15218005D01*
X12843753Y-15218005D02*
X12881848Y-15218005D01*
X12881848Y-15218005D02*
X12900896Y-15208481D01*
X12900896Y-15208481D02*
X12910420Y-15198957D01*
X12910420Y-15198957D02*
X12929468Y-15170386D01*
X12929468Y-15170386D02*
X12938991Y-15132290D01*
X12938991Y-15132290D02*
X12938991Y-15056100D01*
X12938991Y-15056100D02*
X12929468Y-15037052D01*
X12929468Y-15037052D02*
X12919944Y-15027529D01*
X12919944Y-15027529D02*
X12900896Y-15018005D01*
X12900896Y-15018005D02*
X12862801Y-15018005D01*
X12862801Y-15018005D02*
X12843753Y-15027529D01*
X12843753Y-15027529D02*
X12834229Y-15037052D01*
X12834229Y-15037052D02*
X12824706Y-15056100D01*
X12824706Y-15056100D02*
X12824706Y-15103719D01*
X12824706Y-15103719D02*
X12834229Y-15122767D01*
X12834229Y-15122767D02*
X12843753Y-15132290D01*
X12843753Y-15132290D02*
X12862801Y-15141814D01*
X12862801Y-15141814D02*
X12900896Y-15141814D01*
X12900896Y-15141814D02*
X12919944Y-15132290D01*
X12919944Y-15132290D02*
X12929468Y-15122767D01*
X12929468Y-15122767D02*
X12938991Y-15103719D01*
X13177087Y-15218005D02*
X13177087Y-15018005D01*
X13262801Y-15218005D02*
X13262801Y-15113243D01*
X13262801Y-15113243D02*
X13253277Y-15094195D01*
X13253277Y-15094195D02*
X13234230Y-15084671D01*
X13234230Y-15084671D02*
X13205658Y-15084671D01*
X13205658Y-15084671D02*
X13186610Y-15094195D01*
X13186610Y-15094195D02*
X13177087Y-15103719D01*
X13386610Y-15218005D02*
X13367563Y-15208481D01*
X13367563Y-15208481D02*
X13358039Y-15198957D01*
X13358039Y-15198957D02*
X13348515Y-15179909D01*
X13348515Y-15179909D02*
X13348515Y-15122767D01*
X13348515Y-15122767D02*
X13358039Y-15103719D01*
X13358039Y-15103719D02*
X13367563Y-15094195D01*
X13367563Y-15094195D02*
X13386610Y-15084671D01*
X13386610Y-15084671D02*
X13415182Y-15084671D01*
X13415182Y-15084671D02*
X13434230Y-15094195D01*
X13434230Y-15094195D02*
X13443753Y-15103719D01*
X13443753Y-15103719D02*
X13453277Y-15122767D01*
X13453277Y-15122767D02*
X13453277Y-15179909D01*
X13453277Y-15179909D02*
X13443753Y-15198957D01*
X13443753Y-15198957D02*
X13434230Y-15208481D01*
X13434230Y-15208481D02*
X13415182Y-15218005D01*
X13415182Y-15218005D02*
X13386610Y-15218005D01*
X13567563Y-15218005D02*
X13548515Y-15208481D01*
X13548515Y-15208481D02*
X13538991Y-15189433D01*
X13538991Y-15189433D02*
X13538991Y-15018005D01*
X13719944Y-15208481D02*
X13700896Y-15218005D01*
X13700896Y-15218005D02*
X13662801Y-15218005D01*
X13662801Y-15218005D02*
X13643753Y-15208481D01*
X13643753Y-15208481D02*
X13634230Y-15189433D01*
X13634230Y-15189433D02*
X13634230Y-15113243D01*
X13634230Y-15113243D02*
X13643753Y-15094195D01*
X13643753Y-15094195D02*
X13662801Y-15084671D01*
X13662801Y-15084671D02*
X13700896Y-15084671D01*
X13700896Y-15084671D02*
X13719944Y-15094195D01*
X13719944Y-15094195D02*
X13729468Y-15113243D01*
X13729468Y-15113243D02*
X13729468Y-15132290D01*
X13729468Y-15132290D02*
X13634230Y-15151338D01*
X13805658Y-15208481D02*
X13824706Y-15218005D01*
X13824706Y-15218005D02*
X13862801Y-15218005D01*
X13862801Y-15218005D02*
X13881849Y-15208481D01*
X13881849Y-15208481D02*
X13891372Y-15189433D01*
X13891372Y-15189433D02*
X13891372Y-15179909D01*
X13891372Y-15179909D02*
X13881849Y-15160862D01*
X13881849Y-15160862D02*
X13862801Y-15151338D01*
X13862801Y-15151338D02*
X13834230Y-15151338D01*
X13834230Y-15151338D02*
X13815182Y-15141814D01*
X13815182Y-15141814D02*
X13805658Y-15122767D01*
X13805658Y-15122767D02*
X13805658Y-15113243D01*
X13805658Y-15113243D02*
X13815182Y-15094195D01*
X13815182Y-15094195D02*
X13834230Y-15084671D01*
X13834230Y-15084671D02*
X13862801Y-15084671D01*
X13862801Y-15084671D02*
X13881849Y-15094195D01*
X13958039Y-15294195D02*
X13967563Y-15284671D01*
X13967563Y-15284671D02*
X13986611Y-15256100D01*
X13986611Y-15256100D02*
X13996134Y-15237052D01*
X13996134Y-15237052D02*
X14005658Y-15208481D01*
X14005658Y-15208481D02*
X14015182Y-15160862D01*
X14015182Y-15160862D02*
X14015182Y-15122767D01*
X14015182Y-15122767D02*
X14005658Y-15075148D01*
X14005658Y-15075148D02*
X13996134Y-15046576D01*
X13996134Y-15046576D02*
X13986611Y-15027529D01*
X13986611Y-15027529D02*
X13967563Y-14998957D01*
X13967563Y-14998957D02*
X13958039Y-14989433D01*
D13*
X8973462Y-15436483D02*
X8973462Y-15344559D01*
X8881538Y-15344559D01*
X8881538Y-15436483D01*
X8973462Y-15436483D01*
D11*
X9358039Y-15482005D02*
X9243753Y-15482005D01*
X9300896Y-15482005D02*
X9300896Y-15282005D01*
X9300896Y-15282005D02*
X9281848Y-15310576D01*
X9281848Y-15310576D02*
X9262801Y-15329624D01*
X9262801Y-15329624D02*
X9243753Y-15339148D01*
X9443753Y-15462957D02*
X9453277Y-15472481D01*
X9453277Y-15472481D02*
X9443753Y-15482005D01*
X9443753Y-15482005D02*
X9434229Y-15472481D01*
X9434229Y-15472481D02*
X9443753Y-15462957D01*
X9443753Y-15462957D02*
X9443753Y-15482005D01*
X9519944Y-15282005D02*
X9643753Y-15282005D01*
X9643753Y-15282005D02*
X9577086Y-15358195D01*
X9577086Y-15358195D02*
X9605658Y-15358195D01*
X9605658Y-15358195D02*
X9624705Y-15367719D01*
X9624705Y-15367719D02*
X9634229Y-15377243D01*
X9634229Y-15377243D02*
X9643753Y-15396290D01*
X9643753Y-15396290D02*
X9643753Y-15443909D01*
X9643753Y-15443909D02*
X9634229Y-15462957D01*
X9634229Y-15462957D02*
X9624705Y-15472481D01*
X9624705Y-15472481D02*
X9605658Y-15482005D01*
X9605658Y-15482005D02*
X9548515Y-15482005D01*
X9548515Y-15482005D02*
X9529467Y-15472481D01*
X9529467Y-15472481D02*
X9519944Y-15462957D01*
X9767563Y-15282005D02*
X9786610Y-15282005D01*
X9786610Y-15282005D02*
X9805658Y-15291529D01*
X9805658Y-15291529D02*
X9815182Y-15301052D01*
X9815182Y-15301052D02*
X9824705Y-15320100D01*
X9824705Y-15320100D02*
X9834229Y-15358195D01*
X9834229Y-15358195D02*
X9834229Y-15405814D01*
X9834229Y-15405814D02*
X9824705Y-15443909D01*
X9824705Y-15443909D02*
X9815182Y-15462957D01*
X9815182Y-15462957D02*
X9805658Y-15472481D01*
X9805658Y-15472481D02*
X9786610Y-15482005D01*
X9786610Y-15482005D02*
X9767563Y-15482005D01*
X9767563Y-15482005D02*
X9748515Y-15472481D01*
X9748515Y-15472481D02*
X9738991Y-15462957D01*
X9738991Y-15462957D02*
X9729467Y-15443909D01*
X9729467Y-15443909D02*
X9719944Y-15405814D01*
X9719944Y-15405814D02*
X9719944Y-15358195D01*
X9719944Y-15358195D02*
X9729467Y-15320100D01*
X9729467Y-15320100D02*
X9738991Y-15301052D01*
X9738991Y-15301052D02*
X9748515Y-15291529D01*
X9748515Y-15291529D02*
X9767563Y-15282005D01*
X9958039Y-15282005D02*
X9977086Y-15282005D01*
X9977086Y-15282005D02*
X9996134Y-15291529D01*
X9996134Y-15291529D02*
X10005658Y-15301052D01*
X10005658Y-15301052D02*
X10015182Y-15320100D01*
X10015182Y-15320100D02*
X10024705Y-15358195D01*
X10024705Y-15358195D02*
X10024705Y-15405814D01*
X10024705Y-15405814D02*
X10015182Y-15443909D01*
X10015182Y-15443909D02*
X10005658Y-15462957D01*
X10005658Y-15462957D02*
X9996134Y-15472481D01*
X9996134Y-15472481D02*
X9977086Y-15482005D01*
X9977086Y-15482005D02*
X9958039Y-15482005D01*
X9958039Y-15482005D02*
X9938991Y-15472481D01*
X9938991Y-15472481D02*
X9929467Y-15462957D01*
X9929467Y-15462957D02*
X9919944Y-15443909D01*
X9919944Y-15443909D02*
X9910420Y-15405814D01*
X9910420Y-15405814D02*
X9910420Y-15358195D01*
X9910420Y-15358195D02*
X9919944Y-15320100D01*
X9919944Y-15320100D02*
X9929467Y-15301052D01*
X9929467Y-15301052D02*
X9938991Y-15291529D01*
X9938991Y-15291529D02*
X9958039Y-15282005D01*
X10110420Y-15482005D02*
X10110420Y-15348671D01*
X10110420Y-15367719D02*
X10119944Y-15358195D01*
X10119944Y-15358195D02*
X10138991Y-15348671D01*
X10138991Y-15348671D02*
X10167563Y-15348671D01*
X10167563Y-15348671D02*
X10186610Y-15358195D01*
X10186610Y-15358195D02*
X10196134Y-15377243D01*
X10196134Y-15377243D02*
X10196134Y-15482005D01*
X10196134Y-15377243D02*
X10205658Y-15358195D01*
X10205658Y-15358195D02*
X10224705Y-15348671D01*
X10224705Y-15348671D02*
X10253277Y-15348671D01*
X10253277Y-15348671D02*
X10272325Y-15358195D01*
X10272325Y-15358195D02*
X10281848Y-15377243D01*
X10281848Y-15377243D02*
X10281848Y-15482005D01*
X10377086Y-15482005D02*
X10377086Y-15348671D01*
X10377086Y-15367719D02*
X10386610Y-15358195D01*
X10386610Y-15358195D02*
X10405658Y-15348671D01*
X10405658Y-15348671D02*
X10434229Y-15348671D01*
X10434229Y-15348671D02*
X10453277Y-15358195D01*
X10453277Y-15358195D02*
X10462801Y-15377243D01*
X10462801Y-15377243D02*
X10462801Y-15482005D01*
X10462801Y-15377243D02*
X10472325Y-15358195D01*
X10472325Y-15358195D02*
X10491372Y-15348671D01*
X10491372Y-15348671D02*
X10519944Y-15348671D01*
X10519944Y-15348671D02*
X10538991Y-15358195D01*
X10538991Y-15358195D02*
X10548515Y-15377243D01*
X10548515Y-15377243D02*
X10548515Y-15482005D01*
X10938991Y-15272481D02*
X10767563Y-15529624D01*
X11196134Y-15282005D02*
X11215182Y-15282005D01*
X11215182Y-15282005D02*
X11234229Y-15291529D01*
X11234229Y-15291529D02*
X11243753Y-15301052D01*
X11243753Y-15301052D02*
X11253277Y-15320100D01*
X11253277Y-15320100D02*
X11262801Y-15358195D01*
X11262801Y-15358195D02*
X11262801Y-15405814D01*
X11262801Y-15405814D02*
X11253277Y-15443909D01*
X11253277Y-15443909D02*
X11243753Y-15462957D01*
X11243753Y-15462957D02*
X11234229Y-15472481D01*
X11234229Y-15472481D02*
X11215182Y-15482005D01*
X11215182Y-15482005D02*
X11196134Y-15482005D01*
X11196134Y-15482005D02*
X11177087Y-15472481D01*
X11177087Y-15472481D02*
X11167563Y-15462957D01*
X11167563Y-15462957D02*
X11158039Y-15443909D01*
X11158039Y-15443909D02*
X11148515Y-15405814D01*
X11148515Y-15405814D02*
X11148515Y-15358195D01*
X11148515Y-15358195D02*
X11158039Y-15320100D01*
X11158039Y-15320100D02*
X11167563Y-15301052D01*
X11167563Y-15301052D02*
X11177087Y-15291529D01*
X11177087Y-15291529D02*
X11196134Y-15282005D01*
X11348515Y-15462957D02*
X11358039Y-15472481D01*
X11358039Y-15472481D02*
X11348515Y-15482005D01*
X11348515Y-15482005D02*
X11338991Y-15472481D01*
X11338991Y-15472481D02*
X11348515Y-15462957D01*
X11348515Y-15462957D02*
X11348515Y-15482005D01*
X11481848Y-15282005D02*
X11500896Y-15282005D01*
X11500896Y-15282005D02*
X11519944Y-15291529D01*
X11519944Y-15291529D02*
X11529467Y-15301052D01*
X11529467Y-15301052D02*
X11538991Y-15320100D01*
X11538991Y-15320100D02*
X11548515Y-15358195D01*
X11548515Y-15358195D02*
X11548515Y-15405814D01*
X11548515Y-15405814D02*
X11538991Y-15443909D01*
X11538991Y-15443909D02*
X11529467Y-15462957D01*
X11529467Y-15462957D02*
X11519944Y-15472481D01*
X11519944Y-15472481D02*
X11500896Y-15482005D01*
X11500896Y-15482005D02*
X11481848Y-15482005D01*
X11481848Y-15482005D02*
X11462801Y-15472481D01*
X11462801Y-15472481D02*
X11453277Y-15462957D01*
X11453277Y-15462957D02*
X11443753Y-15443909D01*
X11443753Y-15443909D02*
X11434229Y-15405814D01*
X11434229Y-15405814D02*
X11434229Y-15358195D01*
X11434229Y-15358195D02*
X11443753Y-15320100D01*
X11443753Y-15320100D02*
X11453277Y-15301052D01*
X11453277Y-15301052D02*
X11462801Y-15291529D01*
X11462801Y-15291529D02*
X11481848Y-15282005D01*
X11729467Y-15282005D02*
X11634229Y-15282005D01*
X11634229Y-15282005D02*
X11624706Y-15377243D01*
X11624706Y-15377243D02*
X11634229Y-15367719D01*
X11634229Y-15367719D02*
X11653277Y-15358195D01*
X11653277Y-15358195D02*
X11700896Y-15358195D01*
X11700896Y-15358195D02*
X11719944Y-15367719D01*
X11719944Y-15367719D02*
X11729467Y-15377243D01*
X11729467Y-15377243D02*
X11738991Y-15396290D01*
X11738991Y-15396290D02*
X11738991Y-15443909D01*
X11738991Y-15443909D02*
X11729467Y-15462957D01*
X11729467Y-15462957D02*
X11719944Y-15472481D01*
X11719944Y-15472481D02*
X11700896Y-15482005D01*
X11700896Y-15482005D02*
X11653277Y-15482005D01*
X11653277Y-15482005D02*
X11634229Y-15472481D01*
X11634229Y-15472481D02*
X11624706Y-15462957D01*
X11929467Y-15482005D02*
X11815182Y-15482005D01*
X11872325Y-15482005D02*
X11872325Y-15282005D01*
X11872325Y-15282005D02*
X11853277Y-15310576D01*
X11853277Y-15310576D02*
X11834229Y-15329624D01*
X11834229Y-15329624D02*
X11815182Y-15339148D01*
X12005658Y-15301052D02*
X12015182Y-15291529D01*
X12015182Y-15291529D02*
X12034229Y-15282005D01*
X12034229Y-15282005D02*
X12081848Y-15282005D01*
X12081848Y-15282005D02*
X12100896Y-15291529D01*
X12100896Y-15291529D02*
X12110420Y-15301052D01*
X12110420Y-15301052D02*
X12119944Y-15320100D01*
X12119944Y-15320100D02*
X12119944Y-15339148D01*
X12119944Y-15339148D02*
X12110420Y-15367719D01*
X12110420Y-15367719D02*
X11996134Y-15482005D01*
X11996134Y-15482005D02*
X12119944Y-15482005D01*
X12196134Y-15282005D02*
X12196134Y-15320100D01*
X12272325Y-15282005D02*
X12272325Y-15320100D01*
X12567563Y-15558195D02*
X12558039Y-15548671D01*
X12558039Y-15548671D02*
X12538991Y-15520100D01*
X12538991Y-15520100D02*
X12529468Y-15501052D01*
X12529468Y-15501052D02*
X12519944Y-15472481D01*
X12519944Y-15472481D02*
X12510420Y-15424862D01*
X12510420Y-15424862D02*
X12510420Y-15386767D01*
X12510420Y-15386767D02*
X12519944Y-15339148D01*
X12519944Y-15339148D02*
X12529468Y-15310576D01*
X12529468Y-15310576D02*
X12538991Y-15291529D01*
X12538991Y-15291529D02*
X12558039Y-15262957D01*
X12558039Y-15262957D02*
X12567563Y-15253433D01*
X12634229Y-15301052D02*
X12643753Y-15291529D01*
X12643753Y-15291529D02*
X12662801Y-15282005D01*
X12662801Y-15282005D02*
X12710420Y-15282005D01*
X12710420Y-15282005D02*
X12729468Y-15291529D01*
X12729468Y-15291529D02*
X12738991Y-15301052D01*
X12738991Y-15301052D02*
X12748515Y-15320100D01*
X12748515Y-15320100D02*
X12748515Y-15339148D01*
X12748515Y-15339148D02*
X12738991Y-15367719D01*
X12738991Y-15367719D02*
X12624706Y-15482005D01*
X12624706Y-15482005D02*
X12748515Y-15482005D01*
X12986610Y-15482005D02*
X12986610Y-15282005D01*
X13072325Y-15482005D02*
X13072325Y-15377243D01*
X13072325Y-15377243D02*
X13062801Y-15358195D01*
X13062801Y-15358195D02*
X13043753Y-15348671D01*
X13043753Y-15348671D02*
X13015182Y-15348671D01*
X13015182Y-15348671D02*
X12996134Y-15358195D01*
X12996134Y-15358195D02*
X12986610Y-15367719D01*
X13196134Y-15482005D02*
X13177087Y-15472481D01*
X13177087Y-15472481D02*
X13167563Y-15462957D01*
X13167563Y-15462957D02*
X13158039Y-15443909D01*
X13158039Y-15443909D02*
X13158039Y-15386767D01*
X13158039Y-15386767D02*
X13167563Y-15367719D01*
X13167563Y-15367719D02*
X13177087Y-15358195D01*
X13177087Y-15358195D02*
X13196134Y-15348671D01*
X13196134Y-15348671D02*
X13224706Y-15348671D01*
X13224706Y-15348671D02*
X13243753Y-15358195D01*
X13243753Y-15358195D02*
X13253277Y-15367719D01*
X13253277Y-15367719D02*
X13262801Y-15386767D01*
X13262801Y-15386767D02*
X13262801Y-15443909D01*
X13262801Y-15443909D02*
X13253277Y-15462957D01*
X13253277Y-15462957D02*
X13243753Y-15472481D01*
X13243753Y-15472481D02*
X13224706Y-15482005D01*
X13224706Y-15482005D02*
X13196134Y-15482005D01*
X13377087Y-15482005D02*
X13358039Y-15472481D01*
X13358039Y-15472481D02*
X13348515Y-15453433D01*
X13348515Y-15453433D02*
X13348515Y-15282005D01*
X13529468Y-15472481D02*
X13510420Y-15482005D01*
X13510420Y-15482005D02*
X13472325Y-15482005D01*
X13472325Y-15482005D02*
X13453277Y-15472481D01*
X13453277Y-15472481D02*
X13443753Y-15453433D01*
X13443753Y-15453433D02*
X13443753Y-15377243D01*
X13443753Y-15377243D02*
X13453277Y-15358195D01*
X13453277Y-15358195D02*
X13472325Y-15348671D01*
X13472325Y-15348671D02*
X13510420Y-15348671D01*
X13510420Y-15348671D02*
X13529468Y-15358195D01*
X13529468Y-15358195D02*
X13538991Y-15377243D01*
X13538991Y-15377243D02*
X13538991Y-15396290D01*
X13538991Y-15396290D02*
X13443753Y-15415338D01*
X13615182Y-15472481D02*
X13634230Y-15482005D01*
X13634230Y-15482005D02*
X13672325Y-15482005D01*
X13672325Y-15482005D02*
X13691372Y-15472481D01*
X13691372Y-15472481D02*
X13700896Y-15453433D01*
X13700896Y-15453433D02*
X13700896Y-15443909D01*
X13700896Y-15443909D02*
X13691372Y-15424862D01*
X13691372Y-15424862D02*
X13672325Y-15415338D01*
X13672325Y-15415338D02*
X13643753Y-15415338D01*
X13643753Y-15415338D02*
X13624706Y-15405814D01*
X13624706Y-15405814D02*
X13615182Y-15386767D01*
X13615182Y-15386767D02*
X13615182Y-15377243D01*
X13615182Y-15377243D02*
X13624706Y-15358195D01*
X13624706Y-15358195D02*
X13643753Y-15348671D01*
X13643753Y-15348671D02*
X13672325Y-15348671D01*
X13672325Y-15348671D02*
X13691372Y-15358195D01*
X13767563Y-15558195D02*
X13777087Y-15548671D01*
X13777087Y-15548671D02*
X13796134Y-15520100D01*
X13796134Y-15520100D02*
X13805658Y-15501052D01*
X13805658Y-15501052D02*
X13815182Y-15472481D01*
X13815182Y-15472481D02*
X13824706Y-15424862D01*
X13824706Y-15424862D02*
X13824706Y-15386767D01*
X13824706Y-15386767D02*
X13815182Y-15339148D01*
X13815182Y-15339148D02*
X13805658Y-15310576D01*
X13805658Y-15310576D02*
X13796134Y-15291529D01*
X13796134Y-15291529D02*
X13777087Y-15262957D01*
X13777087Y-15262957D02*
X13767563Y-15253433D01*
M02*
