%TF.GenerationSoftware,KiCad,Pcbnew,8.0.6+1*%
%TF.CreationDate,2024-11-30T16:17:39+00:00*%
%TF.ProjectId,corney_island_wireless,636f726e-6579-45f6-9973-6c616e645f77,0.2*%
%TF.SameCoordinates,Original*%
%TF.FileFunction,Drillmap*%
%TF.FilePolarity,Positive*%
%FSLAX45Y45*%
G04 Gerber Fmt 4.5, Leading zero omitted, Abs format (unit mm)*
G04 Created by KiCad (PCBNEW 8.0.6+1) date 2024-11-30 16:17:39*
%MOMM*%
%LPD*%
G01*
G04 APERTURE LIST*
%ADD10C,0.150000*%
%ADD11C,0.200000*%
%ADD12C,0.100000*%
%ADD13C,0.130000*%
G04 APERTURE END LIST*
D10*
X9100000Y-10950000D02*
X12612845Y-10950000D01*
X9000000Y-10850000D02*
X9000000Y-5750000D01*
X9100000Y-10950000D02*
G75*
G02*
X9000000Y-10850000I0J100000D01*
G01*
X10750000Y-5650000D02*
X9100000Y-5650000D01*
X9000000Y-5750000D02*
G75*
G02*
X9100000Y-5650000I100000J0D01*
G01*
X12550000Y-5225000D02*
X10900000Y-5225000D01*
X10800000Y-5325000D02*
G75*
G02*
X10900000Y-5225000I100000J0D01*
G01*
X10800000Y-5325000D02*
X10800000Y-5600000D01*
X14600000Y-5175000D02*
X14600000Y-5112500D01*
X14500000Y-5012500D02*
G75*
G02*
X14600000Y-5112500I0J-100000D01*
G01*
X14500000Y-5012500D02*
X12700000Y-5012500D01*
X12600000Y-5112500D02*
G75*
G02*
X12700000Y-5012500I100000J0D01*
G01*
X12600000Y-5112500D02*
X12600000Y-5175000D01*
X16400000Y-5387500D02*
X16400000Y-5325000D01*
X16300000Y-5225000D02*
G75*
G02*
X16400000Y-5325000I0J-100000D01*
G01*
X16300000Y-5225000D02*
X14650000Y-5225000D01*
X18200000Y-5862500D02*
X18200000Y-5537500D01*
X18100000Y-5437500D02*
G75*
G02*
X18200000Y-5537500I0J-100000D01*
G01*
X18100000Y-5437500D02*
X16450000Y-5437500D01*
X19293298Y-14146751D02*
X20393301Y-12241489D01*
X19237056Y-14170047D02*
X14056392Y-12781892D01*
X14029668Y-12764037D02*
X12652510Y-10969559D01*
X18250000Y-5912500D02*
X20350000Y-5912500D01*
X20400000Y-5962500D02*
X20400000Y-12216489D01*
X12612845Y-10950000D02*
G75*
G02*
X12652507Y-10969562I-5J-50000D01*
G01*
X14056392Y-12781892D02*
G75*
G02*
X14029668Y-12764037I12938J48292D01*
G01*
X19293298Y-14146751D02*
G75*
G02*
X19237057Y-14170043I-43298J25001D01*
G01*
X20400000Y-12216489D02*
G75*
G02*
X20393302Y-12241489I-50000J-1D01*
G01*
X20350000Y-5912500D02*
G75*
G02*
X20400000Y-5962500I0J-50000D01*
G01*
X18250000Y-5912500D02*
G75*
G02*
X18200000Y-5862500I0J50000D01*
G01*
X16450000Y-5437500D02*
G75*
G02*
X16400000Y-5387500I0J50000D01*
G01*
X14650000Y-5225000D02*
G75*
G02*
X14600000Y-5175000I0J50000D01*
G01*
X12600000Y-5175000D02*
G75*
G02*
X12550000Y-5225000I-50000J0D01*
G01*
X10800000Y-5600000D02*
G75*
G02*
X10750000Y-5650000I-50000J0D01*
G01*
D11*
D12*
X18940000Y-6297000D02*
X18980000Y-6337000D01*
X18980000Y-6297000D02*
X18940000Y-6337000D01*
X18940000Y-6551000D02*
X18980000Y-6591000D01*
X18980000Y-6551000D02*
X18940000Y-6591000D01*
X18940000Y-6805000D02*
X18980000Y-6845000D01*
X18980000Y-6805000D02*
X18940000Y-6845000D01*
X18940000Y-7059000D02*
X18980000Y-7099000D01*
X18980000Y-7059000D02*
X18940000Y-7099000D01*
X18940000Y-7313000D02*
X18980000Y-7353000D01*
X18980000Y-7313000D02*
X18940000Y-7353000D01*
X18940000Y-7567000D02*
X18980000Y-7607000D01*
X18980000Y-7567000D02*
X18940000Y-7607000D01*
X18940000Y-7821000D02*
X18980000Y-7861000D01*
X18980000Y-7821000D02*
X18940000Y-7861000D01*
X18940000Y-8075000D02*
X18980000Y-8115000D01*
X18980000Y-8075000D02*
X18940000Y-8115000D01*
X18940000Y-8329000D02*
X18980000Y-8369000D01*
X18980000Y-8329000D02*
X18940000Y-8369000D01*
X18940000Y-8583000D02*
X18980000Y-8623000D01*
X18980000Y-8583000D02*
X18940000Y-8623000D01*
X18940000Y-8837000D02*
X18980000Y-8877000D01*
X18980000Y-8837000D02*
X18940000Y-8877000D01*
X18940000Y-9091000D02*
X18980000Y-9131000D01*
X18980000Y-9091000D02*
X18940000Y-9131000D01*
X19620000Y-6297000D02*
X19660000Y-6337000D01*
X19660000Y-6297000D02*
X19620000Y-6337000D01*
X19620000Y-6551000D02*
X19660000Y-6591000D01*
X19660000Y-6551000D02*
X19620000Y-6591000D01*
X19620000Y-6805000D02*
X19660000Y-6845000D01*
X19660000Y-6805000D02*
X19620000Y-6845000D01*
X19620000Y-7059000D02*
X19660000Y-7099000D01*
X19660000Y-7059000D02*
X19620000Y-7099000D01*
X19620000Y-7313000D02*
X19660000Y-7353000D01*
X19660000Y-7313000D02*
X19620000Y-7353000D01*
X19620000Y-7567000D02*
X19660000Y-7607000D01*
X19660000Y-7567000D02*
X19620000Y-7607000D01*
X19620000Y-7821000D02*
X19660000Y-7861000D01*
X19660000Y-7821000D02*
X19620000Y-7861000D01*
X19620000Y-8075000D02*
X19660000Y-8115000D01*
X19660000Y-8075000D02*
X19620000Y-8115000D01*
X19620000Y-8329000D02*
X19660000Y-8369000D01*
X19660000Y-8329000D02*
X19620000Y-8369000D01*
X19620000Y-8583000D02*
X19660000Y-8623000D01*
X19660000Y-8583000D02*
X19620000Y-8623000D01*
X19620000Y-8837000D02*
X19660000Y-8877000D01*
X19660000Y-8837000D02*
X19620000Y-8877000D01*
X19620000Y-9091000D02*
X19660000Y-9131000D01*
X19660000Y-9091000D02*
X19620000Y-9131000D01*
X19337500Y-10475000D02*
G75*
G02*
X19262500Y-10475000I-37500J0D01*
G01*
X19262500Y-10475000D02*
G75*
G02*
X19337500Y-10475000I37500J0D01*
G01*
X19337500Y-10675000D02*
G75*
G02*
X19262500Y-10675000I-37500J0D01*
G01*
X19262500Y-10675000D02*
G75*
G02*
X19337500Y-10675000I37500J0D01*
G01*
X18538000Y-6267000D02*
X18538000Y-6367000D01*
X18488000Y-6317000D02*
X18588000Y-6317000D01*
X18538000Y-6521000D02*
X18538000Y-6621000D01*
X18488000Y-6571000D02*
X18588000Y-6571000D01*
X18538000Y-6775000D02*
X18538000Y-6875000D01*
X18488000Y-6825000D02*
X18588000Y-6825000D01*
X18538000Y-7029000D02*
X18538000Y-7129000D01*
X18488000Y-7079000D02*
X18588000Y-7079000D01*
X18538000Y-7283000D02*
X18538000Y-7383000D01*
X18488000Y-7333000D02*
X18588000Y-7333000D01*
X18538000Y-7537000D02*
X18538000Y-7637000D01*
X18488000Y-7587000D02*
X18588000Y-7587000D01*
X18538000Y-7791000D02*
X18538000Y-7891000D01*
X18488000Y-7841000D02*
X18588000Y-7841000D01*
X18538000Y-8045000D02*
X18538000Y-8145000D01*
X18488000Y-8095000D02*
X18588000Y-8095000D01*
X18538000Y-8299000D02*
X18538000Y-8399000D01*
X18488000Y-8349000D02*
X18588000Y-8349000D01*
X18538000Y-8553000D02*
X18538000Y-8653000D01*
X18488000Y-8603000D02*
X18588000Y-8603000D01*
X18538000Y-8807000D02*
X18538000Y-8907000D01*
X18488000Y-8857000D02*
X18588000Y-8857000D01*
X18538000Y-9061000D02*
X18538000Y-9161000D01*
X18488000Y-9111000D02*
X18588000Y-9111000D01*
X18919000Y-9770000D02*
X18919000Y-9870000D01*
X18869000Y-9820000D02*
X18969000Y-9820000D01*
X19173000Y-9770000D02*
X19173000Y-9870000D01*
X19123000Y-9820000D02*
X19223000Y-9820000D01*
X19427000Y-9770000D02*
X19427000Y-9870000D01*
X19377000Y-9820000D02*
X19477000Y-9820000D01*
X19681000Y-9770000D02*
X19681000Y-9870000D01*
X19631000Y-9820000D02*
X19731000Y-9820000D01*
X20062000Y-6267000D02*
X20062000Y-6367000D01*
X20012000Y-6317000D02*
X20112000Y-6317000D01*
X20062000Y-6521000D02*
X20062000Y-6621000D01*
X20012000Y-6571000D02*
X20112000Y-6571000D01*
X20062000Y-6775000D02*
X20062000Y-6875000D01*
X20012000Y-6825000D02*
X20112000Y-6825000D01*
X20062000Y-7029000D02*
X20062000Y-7129000D01*
X20012000Y-7079000D02*
X20112000Y-7079000D01*
X20062000Y-7283000D02*
X20062000Y-7383000D01*
X20012000Y-7333000D02*
X20112000Y-7333000D01*
X20062000Y-7537000D02*
X20062000Y-7637000D01*
X20012000Y-7587000D02*
X20112000Y-7587000D01*
X20062000Y-7791000D02*
X20062000Y-7891000D01*
X20012000Y-7841000D02*
X20112000Y-7841000D01*
X20062000Y-8045000D02*
X20062000Y-8145000D01*
X20012000Y-8095000D02*
X20112000Y-8095000D01*
X20062000Y-8299000D02*
X20062000Y-8399000D01*
X20012000Y-8349000D02*
X20112000Y-8349000D01*
X20062000Y-8553000D02*
X20062000Y-8653000D01*
X20012000Y-8603000D02*
X20112000Y-8603000D01*
X20062000Y-8807000D02*
X20062000Y-8907000D01*
X20012000Y-8857000D02*
X20112000Y-8857000D01*
X20062000Y-9061000D02*
X20062000Y-9161000D01*
X20012000Y-9111000D02*
X20112000Y-9111000D01*
D13*
X20235962Y-10683462D02*
X20235962Y-10591538D01*
X20144038Y-10591538D01*
X20144038Y-10683462D01*
X20235962Y-10683462D01*
X20235962Y-11333462D02*
X20235962Y-11241538D01*
X20144038Y-11241538D01*
X20144038Y-11333462D01*
X20235962Y-11333462D01*
D11*
X9253277Y-14490731D02*
X9253277Y-14290731D01*
X9253277Y-14290731D02*
X9300896Y-14290731D01*
X9300896Y-14290731D02*
X9329467Y-14300255D01*
X9329467Y-14300255D02*
X9348515Y-14319303D01*
X9348515Y-14319303D02*
X9358039Y-14338350D01*
X9358039Y-14338350D02*
X9367563Y-14376445D01*
X9367563Y-14376445D02*
X9367563Y-14405017D01*
X9367563Y-14405017D02*
X9358039Y-14443112D01*
X9358039Y-14443112D02*
X9348515Y-14462160D01*
X9348515Y-14462160D02*
X9329467Y-14481207D01*
X9329467Y-14481207D02*
X9300896Y-14490731D01*
X9300896Y-14490731D02*
X9253277Y-14490731D01*
X9453277Y-14490731D02*
X9453277Y-14357398D01*
X9453277Y-14395493D02*
X9462801Y-14376445D01*
X9462801Y-14376445D02*
X9472324Y-14366922D01*
X9472324Y-14366922D02*
X9491372Y-14357398D01*
X9491372Y-14357398D02*
X9510420Y-14357398D01*
X9577086Y-14490731D02*
X9577086Y-14357398D01*
X9577086Y-14290731D02*
X9567563Y-14300255D01*
X9567563Y-14300255D02*
X9577086Y-14309779D01*
X9577086Y-14309779D02*
X9586610Y-14300255D01*
X9586610Y-14300255D02*
X9577086Y-14290731D01*
X9577086Y-14290731D02*
X9577086Y-14309779D01*
X9700896Y-14490731D02*
X9681848Y-14481207D01*
X9681848Y-14481207D02*
X9672324Y-14462160D01*
X9672324Y-14462160D02*
X9672324Y-14290731D01*
X9805658Y-14490731D02*
X9786610Y-14481207D01*
X9786610Y-14481207D02*
X9777086Y-14462160D01*
X9777086Y-14462160D02*
X9777086Y-14290731D01*
X10034229Y-14490731D02*
X10034229Y-14290731D01*
X10034229Y-14290731D02*
X10100896Y-14433588D01*
X10100896Y-14433588D02*
X10167563Y-14290731D01*
X10167563Y-14290731D02*
X10167563Y-14490731D01*
X10348515Y-14490731D02*
X10348515Y-14385969D01*
X10348515Y-14385969D02*
X10338991Y-14366922D01*
X10338991Y-14366922D02*
X10319944Y-14357398D01*
X10319944Y-14357398D02*
X10281848Y-14357398D01*
X10281848Y-14357398D02*
X10262801Y-14366922D01*
X10348515Y-14481207D02*
X10329467Y-14490731D01*
X10329467Y-14490731D02*
X10281848Y-14490731D01*
X10281848Y-14490731D02*
X10262801Y-14481207D01*
X10262801Y-14481207D02*
X10253277Y-14462160D01*
X10253277Y-14462160D02*
X10253277Y-14443112D01*
X10253277Y-14443112D02*
X10262801Y-14424064D01*
X10262801Y-14424064D02*
X10281848Y-14414541D01*
X10281848Y-14414541D02*
X10329467Y-14414541D01*
X10329467Y-14414541D02*
X10348515Y-14405017D01*
X10443753Y-14357398D02*
X10443753Y-14557398D01*
X10443753Y-14366922D02*
X10462801Y-14357398D01*
X10462801Y-14357398D02*
X10500896Y-14357398D01*
X10500896Y-14357398D02*
X10519944Y-14366922D01*
X10519944Y-14366922D02*
X10529467Y-14376445D01*
X10529467Y-14376445D02*
X10538991Y-14395493D01*
X10538991Y-14395493D02*
X10538991Y-14452636D01*
X10538991Y-14452636D02*
X10529467Y-14471683D01*
X10529467Y-14471683D02*
X10519944Y-14481207D01*
X10519944Y-14481207D02*
X10500896Y-14490731D01*
X10500896Y-14490731D02*
X10462801Y-14490731D01*
X10462801Y-14490731D02*
X10443753Y-14481207D01*
X10624705Y-14471683D02*
X10634229Y-14481207D01*
X10634229Y-14481207D02*
X10624705Y-14490731D01*
X10624705Y-14490731D02*
X10615182Y-14481207D01*
X10615182Y-14481207D02*
X10624705Y-14471683D01*
X10624705Y-14471683D02*
X10624705Y-14490731D01*
X10624705Y-14366922D02*
X10634229Y-14376445D01*
X10634229Y-14376445D02*
X10624705Y-14385969D01*
X10624705Y-14385969D02*
X10615182Y-14376445D01*
X10615182Y-14376445D02*
X10624705Y-14366922D01*
X10624705Y-14366922D02*
X10624705Y-14385969D01*
D12*
X8952500Y-14799247D02*
X8992500Y-14839247D01*
X8992500Y-14799247D02*
X8952500Y-14839247D01*
D11*
X9291372Y-14710731D02*
X9310420Y-14710731D01*
X9310420Y-14710731D02*
X9329467Y-14720255D01*
X9329467Y-14720255D02*
X9338991Y-14729779D01*
X9338991Y-14729779D02*
X9348515Y-14748826D01*
X9348515Y-14748826D02*
X9358039Y-14786922D01*
X9358039Y-14786922D02*
X9358039Y-14834541D01*
X9358039Y-14834541D02*
X9348515Y-14872636D01*
X9348515Y-14872636D02*
X9338991Y-14891683D01*
X9338991Y-14891683D02*
X9329467Y-14901207D01*
X9329467Y-14901207D02*
X9310420Y-14910731D01*
X9310420Y-14910731D02*
X9291372Y-14910731D01*
X9291372Y-14910731D02*
X9272324Y-14901207D01*
X9272324Y-14901207D02*
X9262801Y-14891683D01*
X9262801Y-14891683D02*
X9253277Y-14872636D01*
X9253277Y-14872636D02*
X9243753Y-14834541D01*
X9243753Y-14834541D02*
X9243753Y-14786922D01*
X9243753Y-14786922D02*
X9253277Y-14748826D01*
X9253277Y-14748826D02*
X9262801Y-14729779D01*
X9262801Y-14729779D02*
X9272324Y-14720255D01*
X9272324Y-14720255D02*
X9291372Y-14710731D01*
X9443753Y-14891683D02*
X9453277Y-14901207D01*
X9453277Y-14901207D02*
X9443753Y-14910731D01*
X9443753Y-14910731D02*
X9434229Y-14901207D01*
X9434229Y-14901207D02*
X9443753Y-14891683D01*
X9443753Y-14891683D02*
X9443753Y-14910731D01*
X9624705Y-14777398D02*
X9624705Y-14910731D01*
X9577086Y-14701207D02*
X9529467Y-14844064D01*
X9529467Y-14844064D02*
X9653277Y-14844064D01*
X9767563Y-14710731D02*
X9786610Y-14710731D01*
X9786610Y-14710731D02*
X9805658Y-14720255D01*
X9805658Y-14720255D02*
X9815182Y-14729779D01*
X9815182Y-14729779D02*
X9824705Y-14748826D01*
X9824705Y-14748826D02*
X9834229Y-14786922D01*
X9834229Y-14786922D02*
X9834229Y-14834541D01*
X9834229Y-14834541D02*
X9824705Y-14872636D01*
X9824705Y-14872636D02*
X9815182Y-14891683D01*
X9815182Y-14891683D02*
X9805658Y-14901207D01*
X9805658Y-14901207D02*
X9786610Y-14910731D01*
X9786610Y-14910731D02*
X9767563Y-14910731D01*
X9767563Y-14910731D02*
X9748515Y-14901207D01*
X9748515Y-14901207D02*
X9738991Y-14891683D01*
X9738991Y-14891683D02*
X9729467Y-14872636D01*
X9729467Y-14872636D02*
X9719944Y-14834541D01*
X9719944Y-14834541D02*
X9719944Y-14786922D01*
X9719944Y-14786922D02*
X9729467Y-14748826D01*
X9729467Y-14748826D02*
X9738991Y-14729779D01*
X9738991Y-14729779D02*
X9748515Y-14720255D01*
X9748515Y-14720255D02*
X9767563Y-14710731D01*
X9958039Y-14710731D02*
X9977086Y-14710731D01*
X9977086Y-14710731D02*
X9996134Y-14720255D01*
X9996134Y-14720255D02*
X10005658Y-14729779D01*
X10005658Y-14729779D02*
X10015182Y-14748826D01*
X10015182Y-14748826D02*
X10024705Y-14786922D01*
X10024705Y-14786922D02*
X10024705Y-14834541D01*
X10024705Y-14834541D02*
X10015182Y-14872636D01*
X10015182Y-14872636D02*
X10005658Y-14891683D01*
X10005658Y-14891683D02*
X9996134Y-14901207D01*
X9996134Y-14901207D02*
X9977086Y-14910731D01*
X9977086Y-14910731D02*
X9958039Y-14910731D01*
X9958039Y-14910731D02*
X9938991Y-14901207D01*
X9938991Y-14901207D02*
X9929467Y-14891683D01*
X9929467Y-14891683D02*
X9919944Y-14872636D01*
X9919944Y-14872636D02*
X9910420Y-14834541D01*
X9910420Y-14834541D02*
X9910420Y-14786922D01*
X9910420Y-14786922D02*
X9919944Y-14748826D01*
X9919944Y-14748826D02*
X9929467Y-14729779D01*
X9929467Y-14729779D02*
X9938991Y-14720255D01*
X9938991Y-14720255D02*
X9958039Y-14710731D01*
X10110420Y-14910731D02*
X10110420Y-14777398D01*
X10110420Y-14796445D02*
X10119944Y-14786922D01*
X10119944Y-14786922D02*
X10138991Y-14777398D01*
X10138991Y-14777398D02*
X10167563Y-14777398D01*
X10167563Y-14777398D02*
X10186610Y-14786922D01*
X10186610Y-14786922D02*
X10196134Y-14805969D01*
X10196134Y-14805969D02*
X10196134Y-14910731D01*
X10196134Y-14805969D02*
X10205658Y-14786922D01*
X10205658Y-14786922D02*
X10224705Y-14777398D01*
X10224705Y-14777398D02*
X10253277Y-14777398D01*
X10253277Y-14777398D02*
X10272325Y-14786922D01*
X10272325Y-14786922D02*
X10281848Y-14805969D01*
X10281848Y-14805969D02*
X10281848Y-14910731D01*
X10377086Y-14910731D02*
X10377086Y-14777398D01*
X10377086Y-14796445D02*
X10386610Y-14786922D01*
X10386610Y-14786922D02*
X10405658Y-14777398D01*
X10405658Y-14777398D02*
X10434229Y-14777398D01*
X10434229Y-14777398D02*
X10453277Y-14786922D01*
X10453277Y-14786922D02*
X10462801Y-14805969D01*
X10462801Y-14805969D02*
X10462801Y-14910731D01*
X10462801Y-14805969D02*
X10472325Y-14786922D01*
X10472325Y-14786922D02*
X10491372Y-14777398D01*
X10491372Y-14777398D02*
X10519944Y-14777398D01*
X10519944Y-14777398D02*
X10538991Y-14786922D01*
X10538991Y-14786922D02*
X10548515Y-14805969D01*
X10548515Y-14805969D02*
X10548515Y-14910731D01*
X10938991Y-14701207D02*
X10767563Y-14958350D01*
X11196134Y-14710731D02*
X11215182Y-14710731D01*
X11215182Y-14710731D02*
X11234229Y-14720255D01*
X11234229Y-14720255D02*
X11243753Y-14729779D01*
X11243753Y-14729779D02*
X11253277Y-14748826D01*
X11253277Y-14748826D02*
X11262801Y-14786922D01*
X11262801Y-14786922D02*
X11262801Y-14834541D01*
X11262801Y-14834541D02*
X11253277Y-14872636D01*
X11253277Y-14872636D02*
X11243753Y-14891683D01*
X11243753Y-14891683D02*
X11234229Y-14901207D01*
X11234229Y-14901207D02*
X11215182Y-14910731D01*
X11215182Y-14910731D02*
X11196134Y-14910731D01*
X11196134Y-14910731D02*
X11177087Y-14901207D01*
X11177087Y-14901207D02*
X11167563Y-14891683D01*
X11167563Y-14891683D02*
X11158039Y-14872636D01*
X11158039Y-14872636D02*
X11148515Y-14834541D01*
X11148515Y-14834541D02*
X11148515Y-14786922D01*
X11148515Y-14786922D02*
X11158039Y-14748826D01*
X11158039Y-14748826D02*
X11167563Y-14729779D01*
X11167563Y-14729779D02*
X11177087Y-14720255D01*
X11177087Y-14720255D02*
X11196134Y-14710731D01*
X11348515Y-14891683D02*
X11358039Y-14901207D01*
X11358039Y-14901207D02*
X11348515Y-14910731D01*
X11348515Y-14910731D02*
X11338991Y-14901207D01*
X11338991Y-14901207D02*
X11348515Y-14891683D01*
X11348515Y-14891683D02*
X11348515Y-14910731D01*
X11481848Y-14710731D02*
X11500896Y-14710731D01*
X11500896Y-14710731D02*
X11519944Y-14720255D01*
X11519944Y-14720255D02*
X11529467Y-14729779D01*
X11529467Y-14729779D02*
X11538991Y-14748826D01*
X11538991Y-14748826D02*
X11548515Y-14786922D01*
X11548515Y-14786922D02*
X11548515Y-14834541D01*
X11548515Y-14834541D02*
X11538991Y-14872636D01*
X11538991Y-14872636D02*
X11529467Y-14891683D01*
X11529467Y-14891683D02*
X11519944Y-14901207D01*
X11519944Y-14901207D02*
X11500896Y-14910731D01*
X11500896Y-14910731D02*
X11481848Y-14910731D01*
X11481848Y-14910731D02*
X11462801Y-14901207D01*
X11462801Y-14901207D02*
X11453277Y-14891683D01*
X11453277Y-14891683D02*
X11443753Y-14872636D01*
X11443753Y-14872636D02*
X11434229Y-14834541D01*
X11434229Y-14834541D02*
X11434229Y-14786922D01*
X11434229Y-14786922D02*
X11443753Y-14748826D01*
X11443753Y-14748826D02*
X11453277Y-14729779D01*
X11453277Y-14729779D02*
X11462801Y-14720255D01*
X11462801Y-14720255D02*
X11481848Y-14710731D01*
X11738991Y-14910731D02*
X11624706Y-14910731D01*
X11681848Y-14910731D02*
X11681848Y-14710731D01*
X11681848Y-14710731D02*
X11662801Y-14739303D01*
X11662801Y-14739303D02*
X11643753Y-14758350D01*
X11643753Y-14758350D02*
X11624706Y-14767874D01*
X11919944Y-14710731D02*
X11824706Y-14710731D01*
X11824706Y-14710731D02*
X11815182Y-14805969D01*
X11815182Y-14805969D02*
X11824706Y-14796445D01*
X11824706Y-14796445D02*
X11843753Y-14786922D01*
X11843753Y-14786922D02*
X11891372Y-14786922D01*
X11891372Y-14786922D02*
X11910420Y-14796445D01*
X11910420Y-14796445D02*
X11919944Y-14805969D01*
X11919944Y-14805969D02*
X11929467Y-14825017D01*
X11929467Y-14825017D02*
X11929467Y-14872636D01*
X11929467Y-14872636D02*
X11919944Y-14891683D01*
X11919944Y-14891683D02*
X11910420Y-14901207D01*
X11910420Y-14901207D02*
X11891372Y-14910731D01*
X11891372Y-14910731D02*
X11843753Y-14910731D01*
X11843753Y-14910731D02*
X11824706Y-14901207D01*
X11824706Y-14901207D02*
X11815182Y-14891683D01*
X11996134Y-14710731D02*
X12129467Y-14710731D01*
X12129467Y-14710731D02*
X12043753Y-14910731D01*
X12196134Y-14710731D02*
X12196134Y-14748826D01*
X12272325Y-14710731D02*
X12272325Y-14748826D01*
X12567563Y-14986922D02*
X12558039Y-14977398D01*
X12558039Y-14977398D02*
X12538991Y-14948826D01*
X12538991Y-14948826D02*
X12529468Y-14929779D01*
X12529468Y-14929779D02*
X12519944Y-14901207D01*
X12519944Y-14901207D02*
X12510420Y-14853588D01*
X12510420Y-14853588D02*
X12510420Y-14815493D01*
X12510420Y-14815493D02*
X12519944Y-14767874D01*
X12519944Y-14767874D02*
X12529468Y-14739303D01*
X12529468Y-14739303D02*
X12538991Y-14720255D01*
X12538991Y-14720255D02*
X12558039Y-14691683D01*
X12558039Y-14691683D02*
X12567563Y-14682160D01*
X12634229Y-14729779D02*
X12643753Y-14720255D01*
X12643753Y-14720255D02*
X12662801Y-14710731D01*
X12662801Y-14710731D02*
X12710420Y-14710731D01*
X12710420Y-14710731D02*
X12729468Y-14720255D01*
X12729468Y-14720255D02*
X12738991Y-14729779D01*
X12738991Y-14729779D02*
X12748515Y-14748826D01*
X12748515Y-14748826D02*
X12748515Y-14767874D01*
X12748515Y-14767874D02*
X12738991Y-14796445D01*
X12738991Y-14796445D02*
X12624706Y-14910731D01*
X12624706Y-14910731D02*
X12748515Y-14910731D01*
X12919944Y-14777398D02*
X12919944Y-14910731D01*
X12872325Y-14701207D02*
X12824706Y-14844064D01*
X12824706Y-14844064D02*
X12948515Y-14844064D01*
X13177087Y-14910731D02*
X13177087Y-14710731D01*
X13262801Y-14910731D02*
X13262801Y-14805969D01*
X13262801Y-14805969D02*
X13253277Y-14786922D01*
X13253277Y-14786922D02*
X13234230Y-14777398D01*
X13234230Y-14777398D02*
X13205658Y-14777398D01*
X13205658Y-14777398D02*
X13186610Y-14786922D01*
X13186610Y-14786922D02*
X13177087Y-14796445D01*
X13386610Y-14910731D02*
X13367563Y-14901207D01*
X13367563Y-14901207D02*
X13358039Y-14891683D01*
X13358039Y-14891683D02*
X13348515Y-14872636D01*
X13348515Y-14872636D02*
X13348515Y-14815493D01*
X13348515Y-14815493D02*
X13358039Y-14796445D01*
X13358039Y-14796445D02*
X13367563Y-14786922D01*
X13367563Y-14786922D02*
X13386610Y-14777398D01*
X13386610Y-14777398D02*
X13415182Y-14777398D01*
X13415182Y-14777398D02*
X13434230Y-14786922D01*
X13434230Y-14786922D02*
X13443753Y-14796445D01*
X13443753Y-14796445D02*
X13453277Y-14815493D01*
X13453277Y-14815493D02*
X13453277Y-14872636D01*
X13453277Y-14872636D02*
X13443753Y-14891683D01*
X13443753Y-14891683D02*
X13434230Y-14901207D01*
X13434230Y-14901207D02*
X13415182Y-14910731D01*
X13415182Y-14910731D02*
X13386610Y-14910731D01*
X13567563Y-14910731D02*
X13548515Y-14901207D01*
X13548515Y-14901207D02*
X13538991Y-14882160D01*
X13538991Y-14882160D02*
X13538991Y-14710731D01*
X13719944Y-14901207D02*
X13700896Y-14910731D01*
X13700896Y-14910731D02*
X13662801Y-14910731D01*
X13662801Y-14910731D02*
X13643753Y-14901207D01*
X13643753Y-14901207D02*
X13634230Y-14882160D01*
X13634230Y-14882160D02*
X13634230Y-14805969D01*
X13634230Y-14805969D02*
X13643753Y-14786922D01*
X13643753Y-14786922D02*
X13662801Y-14777398D01*
X13662801Y-14777398D02*
X13700896Y-14777398D01*
X13700896Y-14777398D02*
X13719944Y-14786922D01*
X13719944Y-14786922D02*
X13729468Y-14805969D01*
X13729468Y-14805969D02*
X13729468Y-14825017D01*
X13729468Y-14825017D02*
X13634230Y-14844064D01*
X13805658Y-14901207D02*
X13824706Y-14910731D01*
X13824706Y-14910731D02*
X13862801Y-14910731D01*
X13862801Y-14910731D02*
X13881849Y-14901207D01*
X13881849Y-14901207D02*
X13891372Y-14882160D01*
X13891372Y-14882160D02*
X13891372Y-14872636D01*
X13891372Y-14872636D02*
X13881849Y-14853588D01*
X13881849Y-14853588D02*
X13862801Y-14844064D01*
X13862801Y-14844064D02*
X13834230Y-14844064D01*
X13834230Y-14844064D02*
X13815182Y-14834541D01*
X13815182Y-14834541D02*
X13805658Y-14815493D01*
X13805658Y-14815493D02*
X13805658Y-14805969D01*
X13805658Y-14805969D02*
X13815182Y-14786922D01*
X13815182Y-14786922D02*
X13834230Y-14777398D01*
X13834230Y-14777398D02*
X13862801Y-14777398D01*
X13862801Y-14777398D02*
X13881849Y-14786922D01*
X13958039Y-14986922D02*
X13967563Y-14977398D01*
X13967563Y-14977398D02*
X13986611Y-14948826D01*
X13986611Y-14948826D02*
X13996134Y-14929779D01*
X13996134Y-14929779D02*
X14005658Y-14901207D01*
X14005658Y-14901207D02*
X14015182Y-14853588D01*
X14015182Y-14853588D02*
X14015182Y-14815493D01*
X14015182Y-14815493D02*
X14005658Y-14767874D01*
X14005658Y-14767874D02*
X13996134Y-14739303D01*
X13996134Y-14739303D02*
X13986611Y-14720255D01*
X13986611Y-14720255D02*
X13967563Y-14691683D01*
X13967563Y-14691683D02*
X13958039Y-14682160D01*
D12*
X8992500Y-15083247D02*
G75*
G02*
X8917500Y-15083247I-37500J0D01*
G01*
X8917500Y-15083247D02*
G75*
G02*
X8992500Y-15083247I37500J0D01*
G01*
D11*
X9291372Y-14974731D02*
X9310420Y-14974731D01*
X9310420Y-14974731D02*
X9329467Y-14984255D01*
X9329467Y-14984255D02*
X9338991Y-14993779D01*
X9338991Y-14993779D02*
X9348515Y-15012826D01*
X9348515Y-15012826D02*
X9358039Y-15050922D01*
X9358039Y-15050922D02*
X9358039Y-15098541D01*
X9358039Y-15098541D02*
X9348515Y-15136636D01*
X9348515Y-15136636D02*
X9338991Y-15155683D01*
X9338991Y-15155683D02*
X9329467Y-15165207D01*
X9329467Y-15165207D02*
X9310420Y-15174731D01*
X9310420Y-15174731D02*
X9291372Y-15174731D01*
X9291372Y-15174731D02*
X9272324Y-15165207D01*
X9272324Y-15165207D02*
X9262801Y-15155683D01*
X9262801Y-15155683D02*
X9253277Y-15136636D01*
X9253277Y-15136636D02*
X9243753Y-15098541D01*
X9243753Y-15098541D02*
X9243753Y-15050922D01*
X9243753Y-15050922D02*
X9253277Y-15012826D01*
X9253277Y-15012826D02*
X9262801Y-14993779D01*
X9262801Y-14993779D02*
X9272324Y-14984255D01*
X9272324Y-14984255D02*
X9291372Y-14974731D01*
X9443753Y-15155683D02*
X9453277Y-15165207D01*
X9453277Y-15165207D02*
X9443753Y-15174731D01*
X9443753Y-15174731D02*
X9434229Y-15165207D01*
X9434229Y-15165207D02*
X9443753Y-15155683D01*
X9443753Y-15155683D02*
X9443753Y-15174731D01*
X9519944Y-14974731D02*
X9653277Y-14974731D01*
X9653277Y-14974731D02*
X9567563Y-15174731D01*
X9824705Y-14974731D02*
X9729467Y-14974731D01*
X9729467Y-14974731D02*
X9719944Y-15069969D01*
X9719944Y-15069969D02*
X9729467Y-15060445D01*
X9729467Y-15060445D02*
X9748515Y-15050922D01*
X9748515Y-15050922D02*
X9796134Y-15050922D01*
X9796134Y-15050922D02*
X9815182Y-15060445D01*
X9815182Y-15060445D02*
X9824705Y-15069969D01*
X9824705Y-15069969D02*
X9834229Y-15089017D01*
X9834229Y-15089017D02*
X9834229Y-15136636D01*
X9834229Y-15136636D02*
X9824705Y-15155683D01*
X9824705Y-15155683D02*
X9815182Y-15165207D01*
X9815182Y-15165207D02*
X9796134Y-15174731D01*
X9796134Y-15174731D02*
X9748515Y-15174731D01*
X9748515Y-15174731D02*
X9729467Y-15165207D01*
X9729467Y-15165207D02*
X9719944Y-15155683D01*
X9958039Y-14974731D02*
X9977086Y-14974731D01*
X9977086Y-14974731D02*
X9996134Y-14984255D01*
X9996134Y-14984255D02*
X10005658Y-14993779D01*
X10005658Y-14993779D02*
X10015182Y-15012826D01*
X10015182Y-15012826D02*
X10024705Y-15050922D01*
X10024705Y-15050922D02*
X10024705Y-15098541D01*
X10024705Y-15098541D02*
X10015182Y-15136636D01*
X10015182Y-15136636D02*
X10005658Y-15155683D01*
X10005658Y-15155683D02*
X9996134Y-15165207D01*
X9996134Y-15165207D02*
X9977086Y-15174731D01*
X9977086Y-15174731D02*
X9958039Y-15174731D01*
X9958039Y-15174731D02*
X9938991Y-15165207D01*
X9938991Y-15165207D02*
X9929467Y-15155683D01*
X9929467Y-15155683D02*
X9919944Y-15136636D01*
X9919944Y-15136636D02*
X9910420Y-15098541D01*
X9910420Y-15098541D02*
X9910420Y-15050922D01*
X9910420Y-15050922D02*
X9919944Y-15012826D01*
X9919944Y-15012826D02*
X9929467Y-14993779D01*
X9929467Y-14993779D02*
X9938991Y-14984255D01*
X9938991Y-14984255D02*
X9958039Y-14974731D01*
X10110420Y-15174731D02*
X10110420Y-15041398D01*
X10110420Y-15060445D02*
X10119944Y-15050922D01*
X10119944Y-15050922D02*
X10138991Y-15041398D01*
X10138991Y-15041398D02*
X10167563Y-15041398D01*
X10167563Y-15041398D02*
X10186610Y-15050922D01*
X10186610Y-15050922D02*
X10196134Y-15069969D01*
X10196134Y-15069969D02*
X10196134Y-15174731D01*
X10196134Y-15069969D02*
X10205658Y-15050922D01*
X10205658Y-15050922D02*
X10224705Y-15041398D01*
X10224705Y-15041398D02*
X10253277Y-15041398D01*
X10253277Y-15041398D02*
X10272325Y-15050922D01*
X10272325Y-15050922D02*
X10281848Y-15069969D01*
X10281848Y-15069969D02*
X10281848Y-15174731D01*
X10377086Y-15174731D02*
X10377086Y-15041398D01*
X10377086Y-15060445D02*
X10386610Y-15050922D01*
X10386610Y-15050922D02*
X10405658Y-15041398D01*
X10405658Y-15041398D02*
X10434229Y-15041398D01*
X10434229Y-15041398D02*
X10453277Y-15050922D01*
X10453277Y-15050922D02*
X10462801Y-15069969D01*
X10462801Y-15069969D02*
X10462801Y-15174731D01*
X10462801Y-15069969D02*
X10472325Y-15050922D01*
X10472325Y-15050922D02*
X10491372Y-15041398D01*
X10491372Y-15041398D02*
X10519944Y-15041398D01*
X10519944Y-15041398D02*
X10538991Y-15050922D01*
X10538991Y-15050922D02*
X10548515Y-15069969D01*
X10548515Y-15069969D02*
X10548515Y-15174731D01*
X10938991Y-14965207D02*
X10767563Y-15222350D01*
X11196134Y-14974731D02*
X11215182Y-14974731D01*
X11215182Y-14974731D02*
X11234229Y-14984255D01*
X11234229Y-14984255D02*
X11243753Y-14993779D01*
X11243753Y-14993779D02*
X11253277Y-15012826D01*
X11253277Y-15012826D02*
X11262801Y-15050922D01*
X11262801Y-15050922D02*
X11262801Y-15098541D01*
X11262801Y-15098541D02*
X11253277Y-15136636D01*
X11253277Y-15136636D02*
X11243753Y-15155683D01*
X11243753Y-15155683D02*
X11234229Y-15165207D01*
X11234229Y-15165207D02*
X11215182Y-15174731D01*
X11215182Y-15174731D02*
X11196134Y-15174731D01*
X11196134Y-15174731D02*
X11177087Y-15165207D01*
X11177087Y-15165207D02*
X11167563Y-15155683D01*
X11167563Y-15155683D02*
X11158039Y-15136636D01*
X11158039Y-15136636D02*
X11148515Y-15098541D01*
X11148515Y-15098541D02*
X11148515Y-15050922D01*
X11148515Y-15050922D02*
X11158039Y-15012826D01*
X11158039Y-15012826D02*
X11167563Y-14993779D01*
X11167563Y-14993779D02*
X11177087Y-14984255D01*
X11177087Y-14984255D02*
X11196134Y-14974731D01*
X11348515Y-15155683D02*
X11358039Y-15165207D01*
X11358039Y-15165207D02*
X11348515Y-15174731D01*
X11348515Y-15174731D02*
X11338991Y-15165207D01*
X11338991Y-15165207D02*
X11348515Y-15155683D01*
X11348515Y-15155683D02*
X11348515Y-15174731D01*
X11481848Y-14974731D02*
X11500896Y-14974731D01*
X11500896Y-14974731D02*
X11519944Y-14984255D01*
X11519944Y-14984255D02*
X11529467Y-14993779D01*
X11529467Y-14993779D02*
X11538991Y-15012826D01*
X11538991Y-15012826D02*
X11548515Y-15050922D01*
X11548515Y-15050922D02*
X11548515Y-15098541D01*
X11548515Y-15098541D02*
X11538991Y-15136636D01*
X11538991Y-15136636D02*
X11529467Y-15155683D01*
X11529467Y-15155683D02*
X11519944Y-15165207D01*
X11519944Y-15165207D02*
X11500896Y-15174731D01*
X11500896Y-15174731D02*
X11481848Y-15174731D01*
X11481848Y-15174731D02*
X11462801Y-15165207D01*
X11462801Y-15165207D02*
X11453277Y-15155683D01*
X11453277Y-15155683D02*
X11443753Y-15136636D01*
X11443753Y-15136636D02*
X11434229Y-15098541D01*
X11434229Y-15098541D02*
X11434229Y-15050922D01*
X11434229Y-15050922D02*
X11443753Y-15012826D01*
X11443753Y-15012826D02*
X11453277Y-14993779D01*
X11453277Y-14993779D02*
X11462801Y-14984255D01*
X11462801Y-14984255D02*
X11481848Y-14974731D01*
X11624706Y-14993779D02*
X11634229Y-14984255D01*
X11634229Y-14984255D02*
X11653277Y-14974731D01*
X11653277Y-14974731D02*
X11700896Y-14974731D01*
X11700896Y-14974731D02*
X11719944Y-14984255D01*
X11719944Y-14984255D02*
X11729467Y-14993779D01*
X11729467Y-14993779D02*
X11738991Y-15012826D01*
X11738991Y-15012826D02*
X11738991Y-15031874D01*
X11738991Y-15031874D02*
X11729467Y-15060445D01*
X11729467Y-15060445D02*
X11615182Y-15174731D01*
X11615182Y-15174731D02*
X11738991Y-15174731D01*
X11834229Y-15174731D02*
X11872325Y-15174731D01*
X11872325Y-15174731D02*
X11891372Y-15165207D01*
X11891372Y-15165207D02*
X11900896Y-15155683D01*
X11900896Y-15155683D02*
X11919944Y-15127112D01*
X11919944Y-15127112D02*
X11929467Y-15089017D01*
X11929467Y-15089017D02*
X11929467Y-15012826D01*
X11929467Y-15012826D02*
X11919944Y-14993779D01*
X11919944Y-14993779D02*
X11910420Y-14984255D01*
X11910420Y-14984255D02*
X11891372Y-14974731D01*
X11891372Y-14974731D02*
X11853277Y-14974731D01*
X11853277Y-14974731D02*
X11834229Y-14984255D01*
X11834229Y-14984255D02*
X11824706Y-14993779D01*
X11824706Y-14993779D02*
X11815182Y-15012826D01*
X11815182Y-15012826D02*
X11815182Y-15060445D01*
X11815182Y-15060445D02*
X11824706Y-15079493D01*
X11824706Y-15079493D02*
X11834229Y-15089017D01*
X11834229Y-15089017D02*
X11853277Y-15098541D01*
X11853277Y-15098541D02*
X11891372Y-15098541D01*
X11891372Y-15098541D02*
X11910420Y-15089017D01*
X11910420Y-15089017D02*
X11919944Y-15079493D01*
X11919944Y-15079493D02*
X11929467Y-15060445D01*
X12110420Y-14974731D02*
X12015182Y-14974731D01*
X12015182Y-14974731D02*
X12005658Y-15069969D01*
X12005658Y-15069969D02*
X12015182Y-15060445D01*
X12015182Y-15060445D02*
X12034229Y-15050922D01*
X12034229Y-15050922D02*
X12081848Y-15050922D01*
X12081848Y-15050922D02*
X12100896Y-15060445D01*
X12100896Y-15060445D02*
X12110420Y-15069969D01*
X12110420Y-15069969D02*
X12119944Y-15089017D01*
X12119944Y-15089017D02*
X12119944Y-15136636D01*
X12119944Y-15136636D02*
X12110420Y-15155683D01*
X12110420Y-15155683D02*
X12100896Y-15165207D01*
X12100896Y-15165207D02*
X12081848Y-15174731D01*
X12081848Y-15174731D02*
X12034229Y-15174731D01*
X12034229Y-15174731D02*
X12015182Y-15165207D01*
X12015182Y-15165207D02*
X12005658Y-15155683D01*
X12196134Y-14974731D02*
X12196134Y-15012826D01*
X12272325Y-14974731D02*
X12272325Y-15012826D01*
X12567563Y-15250922D02*
X12558039Y-15241398D01*
X12558039Y-15241398D02*
X12538991Y-15212826D01*
X12538991Y-15212826D02*
X12529468Y-15193779D01*
X12529468Y-15193779D02*
X12519944Y-15165207D01*
X12519944Y-15165207D02*
X12510420Y-15117588D01*
X12510420Y-15117588D02*
X12510420Y-15079493D01*
X12510420Y-15079493D02*
X12519944Y-15031874D01*
X12519944Y-15031874D02*
X12529468Y-15003303D01*
X12529468Y-15003303D02*
X12538991Y-14984255D01*
X12538991Y-14984255D02*
X12558039Y-14955683D01*
X12558039Y-14955683D02*
X12567563Y-14946160D01*
X12634229Y-14993779D02*
X12643753Y-14984255D01*
X12643753Y-14984255D02*
X12662801Y-14974731D01*
X12662801Y-14974731D02*
X12710420Y-14974731D01*
X12710420Y-14974731D02*
X12729468Y-14984255D01*
X12729468Y-14984255D02*
X12738991Y-14993779D01*
X12738991Y-14993779D02*
X12748515Y-15012826D01*
X12748515Y-15012826D02*
X12748515Y-15031874D01*
X12748515Y-15031874D02*
X12738991Y-15060445D01*
X12738991Y-15060445D02*
X12624706Y-15174731D01*
X12624706Y-15174731D02*
X12748515Y-15174731D01*
X12986610Y-15174731D02*
X12986610Y-14974731D01*
X13072325Y-15174731D02*
X13072325Y-15069969D01*
X13072325Y-15069969D02*
X13062801Y-15050922D01*
X13062801Y-15050922D02*
X13043753Y-15041398D01*
X13043753Y-15041398D02*
X13015182Y-15041398D01*
X13015182Y-15041398D02*
X12996134Y-15050922D01*
X12996134Y-15050922D02*
X12986610Y-15060445D01*
X13196134Y-15174731D02*
X13177087Y-15165207D01*
X13177087Y-15165207D02*
X13167563Y-15155683D01*
X13167563Y-15155683D02*
X13158039Y-15136636D01*
X13158039Y-15136636D02*
X13158039Y-15079493D01*
X13158039Y-15079493D02*
X13167563Y-15060445D01*
X13167563Y-15060445D02*
X13177087Y-15050922D01*
X13177087Y-15050922D02*
X13196134Y-15041398D01*
X13196134Y-15041398D02*
X13224706Y-15041398D01*
X13224706Y-15041398D02*
X13243753Y-15050922D01*
X13243753Y-15050922D02*
X13253277Y-15060445D01*
X13253277Y-15060445D02*
X13262801Y-15079493D01*
X13262801Y-15079493D02*
X13262801Y-15136636D01*
X13262801Y-15136636D02*
X13253277Y-15155683D01*
X13253277Y-15155683D02*
X13243753Y-15165207D01*
X13243753Y-15165207D02*
X13224706Y-15174731D01*
X13224706Y-15174731D02*
X13196134Y-15174731D01*
X13377087Y-15174731D02*
X13358039Y-15165207D01*
X13358039Y-15165207D02*
X13348515Y-15146160D01*
X13348515Y-15146160D02*
X13348515Y-14974731D01*
X13529468Y-15165207D02*
X13510420Y-15174731D01*
X13510420Y-15174731D02*
X13472325Y-15174731D01*
X13472325Y-15174731D02*
X13453277Y-15165207D01*
X13453277Y-15165207D02*
X13443753Y-15146160D01*
X13443753Y-15146160D02*
X13443753Y-15069969D01*
X13443753Y-15069969D02*
X13453277Y-15050922D01*
X13453277Y-15050922D02*
X13472325Y-15041398D01*
X13472325Y-15041398D02*
X13510420Y-15041398D01*
X13510420Y-15041398D02*
X13529468Y-15050922D01*
X13529468Y-15050922D02*
X13538991Y-15069969D01*
X13538991Y-15069969D02*
X13538991Y-15089017D01*
X13538991Y-15089017D02*
X13443753Y-15108064D01*
X13615182Y-15165207D02*
X13634230Y-15174731D01*
X13634230Y-15174731D02*
X13672325Y-15174731D01*
X13672325Y-15174731D02*
X13691372Y-15165207D01*
X13691372Y-15165207D02*
X13700896Y-15146160D01*
X13700896Y-15146160D02*
X13700896Y-15136636D01*
X13700896Y-15136636D02*
X13691372Y-15117588D01*
X13691372Y-15117588D02*
X13672325Y-15108064D01*
X13672325Y-15108064D02*
X13643753Y-15108064D01*
X13643753Y-15108064D02*
X13624706Y-15098541D01*
X13624706Y-15098541D02*
X13615182Y-15079493D01*
X13615182Y-15079493D02*
X13615182Y-15069969D01*
X13615182Y-15069969D02*
X13624706Y-15050922D01*
X13624706Y-15050922D02*
X13643753Y-15041398D01*
X13643753Y-15041398D02*
X13672325Y-15041398D01*
X13672325Y-15041398D02*
X13691372Y-15050922D01*
X13767563Y-15250922D02*
X13777087Y-15241398D01*
X13777087Y-15241398D02*
X13796134Y-15212826D01*
X13796134Y-15212826D02*
X13805658Y-15193779D01*
X13805658Y-15193779D02*
X13815182Y-15165207D01*
X13815182Y-15165207D02*
X13824706Y-15117588D01*
X13824706Y-15117588D02*
X13824706Y-15079493D01*
X13824706Y-15079493D02*
X13815182Y-15031874D01*
X13815182Y-15031874D02*
X13805658Y-15003303D01*
X13805658Y-15003303D02*
X13796134Y-14984255D01*
X13796134Y-14984255D02*
X13777087Y-14955683D01*
X13777087Y-14955683D02*
X13767563Y-14946160D01*
D12*
X8942500Y-15297247D02*
X8942500Y-15397247D01*
X8892500Y-15347247D02*
X8992500Y-15347247D01*
D11*
X9358039Y-15438731D02*
X9243753Y-15438731D01*
X9300896Y-15438731D02*
X9300896Y-15238731D01*
X9300896Y-15238731D02*
X9281848Y-15267303D01*
X9281848Y-15267303D02*
X9262801Y-15286350D01*
X9262801Y-15286350D02*
X9243753Y-15295874D01*
X9443753Y-15419683D02*
X9453277Y-15429207D01*
X9453277Y-15429207D02*
X9443753Y-15438731D01*
X9443753Y-15438731D02*
X9434229Y-15429207D01*
X9434229Y-15429207D02*
X9443753Y-15419683D01*
X9443753Y-15419683D02*
X9443753Y-15438731D01*
X9577086Y-15238731D02*
X9596134Y-15238731D01*
X9596134Y-15238731D02*
X9615182Y-15248255D01*
X9615182Y-15248255D02*
X9624705Y-15257779D01*
X9624705Y-15257779D02*
X9634229Y-15276826D01*
X9634229Y-15276826D02*
X9643753Y-15314922D01*
X9643753Y-15314922D02*
X9643753Y-15362541D01*
X9643753Y-15362541D02*
X9634229Y-15400636D01*
X9634229Y-15400636D02*
X9624705Y-15419683D01*
X9624705Y-15419683D02*
X9615182Y-15429207D01*
X9615182Y-15429207D02*
X9596134Y-15438731D01*
X9596134Y-15438731D02*
X9577086Y-15438731D01*
X9577086Y-15438731D02*
X9558039Y-15429207D01*
X9558039Y-15429207D02*
X9548515Y-15419683D01*
X9548515Y-15419683D02*
X9538991Y-15400636D01*
X9538991Y-15400636D02*
X9529467Y-15362541D01*
X9529467Y-15362541D02*
X9529467Y-15314922D01*
X9529467Y-15314922D02*
X9538991Y-15276826D01*
X9538991Y-15276826D02*
X9548515Y-15257779D01*
X9548515Y-15257779D02*
X9558039Y-15248255D01*
X9558039Y-15248255D02*
X9577086Y-15238731D01*
X9767563Y-15238731D02*
X9786610Y-15238731D01*
X9786610Y-15238731D02*
X9805658Y-15248255D01*
X9805658Y-15248255D02*
X9815182Y-15257779D01*
X9815182Y-15257779D02*
X9824705Y-15276826D01*
X9824705Y-15276826D02*
X9834229Y-15314922D01*
X9834229Y-15314922D02*
X9834229Y-15362541D01*
X9834229Y-15362541D02*
X9824705Y-15400636D01*
X9824705Y-15400636D02*
X9815182Y-15419683D01*
X9815182Y-15419683D02*
X9805658Y-15429207D01*
X9805658Y-15429207D02*
X9786610Y-15438731D01*
X9786610Y-15438731D02*
X9767563Y-15438731D01*
X9767563Y-15438731D02*
X9748515Y-15429207D01*
X9748515Y-15429207D02*
X9738991Y-15419683D01*
X9738991Y-15419683D02*
X9729467Y-15400636D01*
X9729467Y-15400636D02*
X9719944Y-15362541D01*
X9719944Y-15362541D02*
X9719944Y-15314922D01*
X9719944Y-15314922D02*
X9729467Y-15276826D01*
X9729467Y-15276826D02*
X9738991Y-15257779D01*
X9738991Y-15257779D02*
X9748515Y-15248255D01*
X9748515Y-15248255D02*
X9767563Y-15238731D01*
X9958039Y-15238731D02*
X9977086Y-15238731D01*
X9977086Y-15238731D02*
X9996134Y-15248255D01*
X9996134Y-15248255D02*
X10005658Y-15257779D01*
X10005658Y-15257779D02*
X10015182Y-15276826D01*
X10015182Y-15276826D02*
X10024705Y-15314922D01*
X10024705Y-15314922D02*
X10024705Y-15362541D01*
X10024705Y-15362541D02*
X10015182Y-15400636D01*
X10015182Y-15400636D02*
X10005658Y-15419683D01*
X10005658Y-15419683D02*
X9996134Y-15429207D01*
X9996134Y-15429207D02*
X9977086Y-15438731D01*
X9977086Y-15438731D02*
X9958039Y-15438731D01*
X9958039Y-15438731D02*
X9938991Y-15429207D01*
X9938991Y-15429207D02*
X9929467Y-15419683D01*
X9929467Y-15419683D02*
X9919944Y-15400636D01*
X9919944Y-15400636D02*
X9910420Y-15362541D01*
X9910420Y-15362541D02*
X9910420Y-15314922D01*
X9910420Y-15314922D02*
X9919944Y-15276826D01*
X9919944Y-15276826D02*
X9929467Y-15257779D01*
X9929467Y-15257779D02*
X9938991Y-15248255D01*
X9938991Y-15248255D02*
X9958039Y-15238731D01*
X10110420Y-15438731D02*
X10110420Y-15305398D01*
X10110420Y-15324445D02*
X10119944Y-15314922D01*
X10119944Y-15314922D02*
X10138991Y-15305398D01*
X10138991Y-15305398D02*
X10167563Y-15305398D01*
X10167563Y-15305398D02*
X10186610Y-15314922D01*
X10186610Y-15314922D02*
X10196134Y-15333969D01*
X10196134Y-15333969D02*
X10196134Y-15438731D01*
X10196134Y-15333969D02*
X10205658Y-15314922D01*
X10205658Y-15314922D02*
X10224705Y-15305398D01*
X10224705Y-15305398D02*
X10253277Y-15305398D01*
X10253277Y-15305398D02*
X10272325Y-15314922D01*
X10272325Y-15314922D02*
X10281848Y-15333969D01*
X10281848Y-15333969D02*
X10281848Y-15438731D01*
X10377086Y-15438731D02*
X10377086Y-15305398D01*
X10377086Y-15324445D02*
X10386610Y-15314922D01*
X10386610Y-15314922D02*
X10405658Y-15305398D01*
X10405658Y-15305398D02*
X10434229Y-15305398D01*
X10434229Y-15305398D02*
X10453277Y-15314922D01*
X10453277Y-15314922D02*
X10462801Y-15333969D01*
X10462801Y-15333969D02*
X10462801Y-15438731D01*
X10462801Y-15333969D02*
X10472325Y-15314922D01*
X10472325Y-15314922D02*
X10491372Y-15305398D01*
X10491372Y-15305398D02*
X10519944Y-15305398D01*
X10519944Y-15305398D02*
X10538991Y-15314922D01*
X10538991Y-15314922D02*
X10548515Y-15333969D01*
X10548515Y-15333969D02*
X10548515Y-15438731D01*
X10938991Y-15229207D02*
X10767563Y-15486350D01*
X11196134Y-15238731D02*
X11215182Y-15238731D01*
X11215182Y-15238731D02*
X11234229Y-15248255D01*
X11234229Y-15248255D02*
X11243753Y-15257779D01*
X11243753Y-15257779D02*
X11253277Y-15276826D01*
X11253277Y-15276826D02*
X11262801Y-15314922D01*
X11262801Y-15314922D02*
X11262801Y-15362541D01*
X11262801Y-15362541D02*
X11253277Y-15400636D01*
X11253277Y-15400636D02*
X11243753Y-15419683D01*
X11243753Y-15419683D02*
X11234229Y-15429207D01*
X11234229Y-15429207D02*
X11215182Y-15438731D01*
X11215182Y-15438731D02*
X11196134Y-15438731D01*
X11196134Y-15438731D02*
X11177087Y-15429207D01*
X11177087Y-15429207D02*
X11167563Y-15419683D01*
X11167563Y-15419683D02*
X11158039Y-15400636D01*
X11158039Y-15400636D02*
X11148515Y-15362541D01*
X11148515Y-15362541D02*
X11148515Y-15314922D01*
X11148515Y-15314922D02*
X11158039Y-15276826D01*
X11158039Y-15276826D02*
X11167563Y-15257779D01*
X11167563Y-15257779D02*
X11177087Y-15248255D01*
X11177087Y-15248255D02*
X11196134Y-15238731D01*
X11348515Y-15419683D02*
X11358039Y-15429207D01*
X11358039Y-15429207D02*
X11348515Y-15438731D01*
X11348515Y-15438731D02*
X11338991Y-15429207D01*
X11338991Y-15429207D02*
X11348515Y-15419683D01*
X11348515Y-15419683D02*
X11348515Y-15438731D01*
X11481848Y-15238731D02*
X11500896Y-15238731D01*
X11500896Y-15238731D02*
X11519944Y-15248255D01*
X11519944Y-15248255D02*
X11529467Y-15257779D01*
X11529467Y-15257779D02*
X11538991Y-15276826D01*
X11538991Y-15276826D02*
X11548515Y-15314922D01*
X11548515Y-15314922D02*
X11548515Y-15362541D01*
X11548515Y-15362541D02*
X11538991Y-15400636D01*
X11538991Y-15400636D02*
X11529467Y-15419683D01*
X11529467Y-15419683D02*
X11519944Y-15429207D01*
X11519944Y-15429207D02*
X11500896Y-15438731D01*
X11500896Y-15438731D02*
X11481848Y-15438731D01*
X11481848Y-15438731D02*
X11462801Y-15429207D01*
X11462801Y-15429207D02*
X11453277Y-15419683D01*
X11453277Y-15419683D02*
X11443753Y-15400636D01*
X11443753Y-15400636D02*
X11434229Y-15362541D01*
X11434229Y-15362541D02*
X11434229Y-15314922D01*
X11434229Y-15314922D02*
X11443753Y-15276826D01*
X11443753Y-15276826D02*
X11453277Y-15257779D01*
X11453277Y-15257779D02*
X11462801Y-15248255D01*
X11462801Y-15248255D02*
X11481848Y-15238731D01*
X11615182Y-15238731D02*
X11738991Y-15238731D01*
X11738991Y-15238731D02*
X11672325Y-15314922D01*
X11672325Y-15314922D02*
X11700896Y-15314922D01*
X11700896Y-15314922D02*
X11719944Y-15324445D01*
X11719944Y-15324445D02*
X11729467Y-15333969D01*
X11729467Y-15333969D02*
X11738991Y-15353017D01*
X11738991Y-15353017D02*
X11738991Y-15400636D01*
X11738991Y-15400636D02*
X11729467Y-15419683D01*
X11729467Y-15419683D02*
X11719944Y-15429207D01*
X11719944Y-15429207D02*
X11700896Y-15438731D01*
X11700896Y-15438731D02*
X11643753Y-15438731D01*
X11643753Y-15438731D02*
X11624706Y-15429207D01*
X11624706Y-15429207D02*
X11615182Y-15419683D01*
X11834229Y-15438731D02*
X11872325Y-15438731D01*
X11872325Y-15438731D02*
X11891372Y-15429207D01*
X11891372Y-15429207D02*
X11900896Y-15419683D01*
X11900896Y-15419683D02*
X11919944Y-15391112D01*
X11919944Y-15391112D02*
X11929467Y-15353017D01*
X11929467Y-15353017D02*
X11929467Y-15276826D01*
X11929467Y-15276826D02*
X11919944Y-15257779D01*
X11919944Y-15257779D02*
X11910420Y-15248255D01*
X11910420Y-15248255D02*
X11891372Y-15238731D01*
X11891372Y-15238731D02*
X11853277Y-15238731D01*
X11853277Y-15238731D02*
X11834229Y-15248255D01*
X11834229Y-15248255D02*
X11824706Y-15257779D01*
X11824706Y-15257779D02*
X11815182Y-15276826D01*
X11815182Y-15276826D02*
X11815182Y-15324445D01*
X11815182Y-15324445D02*
X11824706Y-15343493D01*
X11824706Y-15343493D02*
X11834229Y-15353017D01*
X11834229Y-15353017D02*
X11853277Y-15362541D01*
X11853277Y-15362541D02*
X11891372Y-15362541D01*
X11891372Y-15362541D02*
X11910420Y-15353017D01*
X11910420Y-15353017D02*
X11919944Y-15343493D01*
X11919944Y-15343493D02*
X11929467Y-15324445D01*
X12100896Y-15305398D02*
X12100896Y-15438731D01*
X12053277Y-15229207D02*
X12005658Y-15372064D01*
X12005658Y-15372064D02*
X12129467Y-15372064D01*
X12196134Y-15238731D02*
X12196134Y-15276826D01*
X12272325Y-15238731D02*
X12272325Y-15276826D01*
X12567563Y-15514922D02*
X12558039Y-15505398D01*
X12558039Y-15505398D02*
X12538991Y-15476826D01*
X12538991Y-15476826D02*
X12529468Y-15457779D01*
X12529468Y-15457779D02*
X12519944Y-15429207D01*
X12519944Y-15429207D02*
X12510420Y-15381588D01*
X12510420Y-15381588D02*
X12510420Y-15343493D01*
X12510420Y-15343493D02*
X12519944Y-15295874D01*
X12519944Y-15295874D02*
X12529468Y-15267303D01*
X12529468Y-15267303D02*
X12538991Y-15248255D01*
X12538991Y-15248255D02*
X12558039Y-15219683D01*
X12558039Y-15219683D02*
X12567563Y-15210160D01*
X12634229Y-15257779D02*
X12643753Y-15248255D01*
X12643753Y-15248255D02*
X12662801Y-15238731D01*
X12662801Y-15238731D02*
X12710420Y-15238731D01*
X12710420Y-15238731D02*
X12729468Y-15248255D01*
X12729468Y-15248255D02*
X12738991Y-15257779D01*
X12738991Y-15257779D02*
X12748515Y-15276826D01*
X12748515Y-15276826D02*
X12748515Y-15295874D01*
X12748515Y-15295874D02*
X12738991Y-15324445D01*
X12738991Y-15324445D02*
X12624706Y-15438731D01*
X12624706Y-15438731D02*
X12748515Y-15438731D01*
X12862801Y-15324445D02*
X12843753Y-15314922D01*
X12843753Y-15314922D02*
X12834229Y-15305398D01*
X12834229Y-15305398D02*
X12824706Y-15286350D01*
X12824706Y-15286350D02*
X12824706Y-15276826D01*
X12824706Y-15276826D02*
X12834229Y-15257779D01*
X12834229Y-15257779D02*
X12843753Y-15248255D01*
X12843753Y-15248255D02*
X12862801Y-15238731D01*
X12862801Y-15238731D02*
X12900896Y-15238731D01*
X12900896Y-15238731D02*
X12919944Y-15248255D01*
X12919944Y-15248255D02*
X12929468Y-15257779D01*
X12929468Y-15257779D02*
X12938991Y-15276826D01*
X12938991Y-15276826D02*
X12938991Y-15286350D01*
X12938991Y-15286350D02*
X12929468Y-15305398D01*
X12929468Y-15305398D02*
X12919944Y-15314922D01*
X12919944Y-15314922D02*
X12900896Y-15324445D01*
X12900896Y-15324445D02*
X12862801Y-15324445D01*
X12862801Y-15324445D02*
X12843753Y-15333969D01*
X12843753Y-15333969D02*
X12834229Y-15343493D01*
X12834229Y-15343493D02*
X12824706Y-15362541D01*
X12824706Y-15362541D02*
X12824706Y-15400636D01*
X12824706Y-15400636D02*
X12834229Y-15419683D01*
X12834229Y-15419683D02*
X12843753Y-15429207D01*
X12843753Y-15429207D02*
X12862801Y-15438731D01*
X12862801Y-15438731D02*
X12900896Y-15438731D01*
X12900896Y-15438731D02*
X12919944Y-15429207D01*
X12919944Y-15429207D02*
X12929468Y-15419683D01*
X12929468Y-15419683D02*
X12938991Y-15400636D01*
X12938991Y-15400636D02*
X12938991Y-15362541D01*
X12938991Y-15362541D02*
X12929468Y-15343493D01*
X12929468Y-15343493D02*
X12919944Y-15333969D01*
X12919944Y-15333969D02*
X12900896Y-15324445D01*
X13177087Y-15438731D02*
X13177087Y-15238731D01*
X13262801Y-15438731D02*
X13262801Y-15333969D01*
X13262801Y-15333969D02*
X13253277Y-15314922D01*
X13253277Y-15314922D02*
X13234230Y-15305398D01*
X13234230Y-15305398D02*
X13205658Y-15305398D01*
X13205658Y-15305398D02*
X13186610Y-15314922D01*
X13186610Y-15314922D02*
X13177087Y-15324445D01*
X13386610Y-15438731D02*
X13367563Y-15429207D01*
X13367563Y-15429207D02*
X13358039Y-15419683D01*
X13358039Y-15419683D02*
X13348515Y-15400636D01*
X13348515Y-15400636D02*
X13348515Y-15343493D01*
X13348515Y-15343493D02*
X13358039Y-15324445D01*
X13358039Y-15324445D02*
X13367563Y-15314922D01*
X13367563Y-15314922D02*
X13386610Y-15305398D01*
X13386610Y-15305398D02*
X13415182Y-15305398D01*
X13415182Y-15305398D02*
X13434230Y-15314922D01*
X13434230Y-15314922D02*
X13443753Y-15324445D01*
X13443753Y-15324445D02*
X13453277Y-15343493D01*
X13453277Y-15343493D02*
X13453277Y-15400636D01*
X13453277Y-15400636D02*
X13443753Y-15419683D01*
X13443753Y-15419683D02*
X13434230Y-15429207D01*
X13434230Y-15429207D02*
X13415182Y-15438731D01*
X13415182Y-15438731D02*
X13386610Y-15438731D01*
X13567563Y-15438731D02*
X13548515Y-15429207D01*
X13548515Y-15429207D02*
X13538991Y-15410160D01*
X13538991Y-15410160D02*
X13538991Y-15238731D01*
X13719944Y-15429207D02*
X13700896Y-15438731D01*
X13700896Y-15438731D02*
X13662801Y-15438731D01*
X13662801Y-15438731D02*
X13643753Y-15429207D01*
X13643753Y-15429207D02*
X13634230Y-15410160D01*
X13634230Y-15410160D02*
X13634230Y-15333969D01*
X13634230Y-15333969D02*
X13643753Y-15314922D01*
X13643753Y-15314922D02*
X13662801Y-15305398D01*
X13662801Y-15305398D02*
X13700896Y-15305398D01*
X13700896Y-15305398D02*
X13719944Y-15314922D01*
X13719944Y-15314922D02*
X13729468Y-15333969D01*
X13729468Y-15333969D02*
X13729468Y-15353017D01*
X13729468Y-15353017D02*
X13634230Y-15372064D01*
X13805658Y-15429207D02*
X13824706Y-15438731D01*
X13824706Y-15438731D02*
X13862801Y-15438731D01*
X13862801Y-15438731D02*
X13881849Y-15429207D01*
X13881849Y-15429207D02*
X13891372Y-15410160D01*
X13891372Y-15410160D02*
X13891372Y-15400636D01*
X13891372Y-15400636D02*
X13881849Y-15381588D01*
X13881849Y-15381588D02*
X13862801Y-15372064D01*
X13862801Y-15372064D02*
X13834230Y-15372064D01*
X13834230Y-15372064D02*
X13815182Y-15362541D01*
X13815182Y-15362541D02*
X13805658Y-15343493D01*
X13805658Y-15343493D02*
X13805658Y-15333969D01*
X13805658Y-15333969D02*
X13815182Y-15314922D01*
X13815182Y-15314922D02*
X13834230Y-15305398D01*
X13834230Y-15305398D02*
X13862801Y-15305398D01*
X13862801Y-15305398D02*
X13881849Y-15314922D01*
X13958039Y-15514922D02*
X13967563Y-15505398D01*
X13967563Y-15505398D02*
X13986611Y-15476826D01*
X13986611Y-15476826D02*
X13996134Y-15457779D01*
X13996134Y-15457779D02*
X14005658Y-15429207D01*
X14005658Y-15429207D02*
X14015182Y-15381588D01*
X14015182Y-15381588D02*
X14015182Y-15343493D01*
X14015182Y-15343493D02*
X14005658Y-15295874D01*
X14005658Y-15295874D02*
X13996134Y-15267303D01*
X13996134Y-15267303D02*
X13986611Y-15248255D01*
X13986611Y-15248255D02*
X13967563Y-15219683D01*
X13967563Y-15219683D02*
X13958039Y-15210160D01*
D13*
X8973462Y-15657210D02*
X8973462Y-15565285D01*
X8881538Y-15565285D01*
X8881538Y-15657210D01*
X8973462Y-15657210D01*
D11*
X9358039Y-15702731D02*
X9243753Y-15702731D01*
X9300896Y-15702731D02*
X9300896Y-15502731D01*
X9300896Y-15502731D02*
X9281848Y-15531303D01*
X9281848Y-15531303D02*
X9262801Y-15550350D01*
X9262801Y-15550350D02*
X9243753Y-15559874D01*
X9443753Y-15683683D02*
X9453277Y-15693207D01*
X9453277Y-15693207D02*
X9443753Y-15702731D01*
X9443753Y-15702731D02*
X9434229Y-15693207D01*
X9434229Y-15693207D02*
X9443753Y-15683683D01*
X9443753Y-15683683D02*
X9443753Y-15702731D01*
X9519944Y-15502731D02*
X9643753Y-15502731D01*
X9643753Y-15502731D02*
X9577086Y-15578922D01*
X9577086Y-15578922D02*
X9605658Y-15578922D01*
X9605658Y-15578922D02*
X9624705Y-15588445D01*
X9624705Y-15588445D02*
X9634229Y-15597969D01*
X9634229Y-15597969D02*
X9643753Y-15617017D01*
X9643753Y-15617017D02*
X9643753Y-15664636D01*
X9643753Y-15664636D02*
X9634229Y-15683683D01*
X9634229Y-15683683D02*
X9624705Y-15693207D01*
X9624705Y-15693207D02*
X9605658Y-15702731D01*
X9605658Y-15702731D02*
X9548515Y-15702731D01*
X9548515Y-15702731D02*
X9529467Y-15693207D01*
X9529467Y-15693207D02*
X9519944Y-15683683D01*
X9767563Y-15502731D02*
X9786610Y-15502731D01*
X9786610Y-15502731D02*
X9805658Y-15512255D01*
X9805658Y-15512255D02*
X9815182Y-15521779D01*
X9815182Y-15521779D02*
X9824705Y-15540826D01*
X9824705Y-15540826D02*
X9834229Y-15578922D01*
X9834229Y-15578922D02*
X9834229Y-15626541D01*
X9834229Y-15626541D02*
X9824705Y-15664636D01*
X9824705Y-15664636D02*
X9815182Y-15683683D01*
X9815182Y-15683683D02*
X9805658Y-15693207D01*
X9805658Y-15693207D02*
X9786610Y-15702731D01*
X9786610Y-15702731D02*
X9767563Y-15702731D01*
X9767563Y-15702731D02*
X9748515Y-15693207D01*
X9748515Y-15693207D02*
X9738991Y-15683683D01*
X9738991Y-15683683D02*
X9729467Y-15664636D01*
X9729467Y-15664636D02*
X9719944Y-15626541D01*
X9719944Y-15626541D02*
X9719944Y-15578922D01*
X9719944Y-15578922D02*
X9729467Y-15540826D01*
X9729467Y-15540826D02*
X9738991Y-15521779D01*
X9738991Y-15521779D02*
X9748515Y-15512255D01*
X9748515Y-15512255D02*
X9767563Y-15502731D01*
X9958039Y-15502731D02*
X9977086Y-15502731D01*
X9977086Y-15502731D02*
X9996134Y-15512255D01*
X9996134Y-15512255D02*
X10005658Y-15521779D01*
X10005658Y-15521779D02*
X10015182Y-15540826D01*
X10015182Y-15540826D02*
X10024705Y-15578922D01*
X10024705Y-15578922D02*
X10024705Y-15626541D01*
X10024705Y-15626541D02*
X10015182Y-15664636D01*
X10015182Y-15664636D02*
X10005658Y-15683683D01*
X10005658Y-15683683D02*
X9996134Y-15693207D01*
X9996134Y-15693207D02*
X9977086Y-15702731D01*
X9977086Y-15702731D02*
X9958039Y-15702731D01*
X9958039Y-15702731D02*
X9938991Y-15693207D01*
X9938991Y-15693207D02*
X9929467Y-15683683D01*
X9929467Y-15683683D02*
X9919944Y-15664636D01*
X9919944Y-15664636D02*
X9910420Y-15626541D01*
X9910420Y-15626541D02*
X9910420Y-15578922D01*
X9910420Y-15578922D02*
X9919944Y-15540826D01*
X9919944Y-15540826D02*
X9929467Y-15521779D01*
X9929467Y-15521779D02*
X9938991Y-15512255D01*
X9938991Y-15512255D02*
X9958039Y-15502731D01*
X10110420Y-15702731D02*
X10110420Y-15569398D01*
X10110420Y-15588445D02*
X10119944Y-15578922D01*
X10119944Y-15578922D02*
X10138991Y-15569398D01*
X10138991Y-15569398D02*
X10167563Y-15569398D01*
X10167563Y-15569398D02*
X10186610Y-15578922D01*
X10186610Y-15578922D02*
X10196134Y-15597969D01*
X10196134Y-15597969D02*
X10196134Y-15702731D01*
X10196134Y-15597969D02*
X10205658Y-15578922D01*
X10205658Y-15578922D02*
X10224705Y-15569398D01*
X10224705Y-15569398D02*
X10253277Y-15569398D01*
X10253277Y-15569398D02*
X10272325Y-15578922D01*
X10272325Y-15578922D02*
X10281848Y-15597969D01*
X10281848Y-15597969D02*
X10281848Y-15702731D01*
X10377086Y-15702731D02*
X10377086Y-15569398D01*
X10377086Y-15588445D02*
X10386610Y-15578922D01*
X10386610Y-15578922D02*
X10405658Y-15569398D01*
X10405658Y-15569398D02*
X10434229Y-15569398D01*
X10434229Y-15569398D02*
X10453277Y-15578922D01*
X10453277Y-15578922D02*
X10462801Y-15597969D01*
X10462801Y-15597969D02*
X10462801Y-15702731D01*
X10462801Y-15597969D02*
X10472325Y-15578922D01*
X10472325Y-15578922D02*
X10491372Y-15569398D01*
X10491372Y-15569398D02*
X10519944Y-15569398D01*
X10519944Y-15569398D02*
X10538991Y-15578922D01*
X10538991Y-15578922D02*
X10548515Y-15597969D01*
X10548515Y-15597969D02*
X10548515Y-15702731D01*
X10938991Y-15493207D02*
X10767563Y-15750350D01*
X11196134Y-15502731D02*
X11215182Y-15502731D01*
X11215182Y-15502731D02*
X11234229Y-15512255D01*
X11234229Y-15512255D02*
X11243753Y-15521779D01*
X11243753Y-15521779D02*
X11253277Y-15540826D01*
X11253277Y-15540826D02*
X11262801Y-15578922D01*
X11262801Y-15578922D02*
X11262801Y-15626541D01*
X11262801Y-15626541D02*
X11253277Y-15664636D01*
X11253277Y-15664636D02*
X11243753Y-15683683D01*
X11243753Y-15683683D02*
X11234229Y-15693207D01*
X11234229Y-15693207D02*
X11215182Y-15702731D01*
X11215182Y-15702731D02*
X11196134Y-15702731D01*
X11196134Y-15702731D02*
X11177087Y-15693207D01*
X11177087Y-15693207D02*
X11167563Y-15683683D01*
X11167563Y-15683683D02*
X11158039Y-15664636D01*
X11158039Y-15664636D02*
X11148515Y-15626541D01*
X11148515Y-15626541D02*
X11148515Y-15578922D01*
X11148515Y-15578922D02*
X11158039Y-15540826D01*
X11158039Y-15540826D02*
X11167563Y-15521779D01*
X11167563Y-15521779D02*
X11177087Y-15512255D01*
X11177087Y-15512255D02*
X11196134Y-15502731D01*
X11348515Y-15683683D02*
X11358039Y-15693207D01*
X11358039Y-15693207D02*
X11348515Y-15702731D01*
X11348515Y-15702731D02*
X11338991Y-15693207D01*
X11338991Y-15693207D02*
X11348515Y-15683683D01*
X11348515Y-15683683D02*
X11348515Y-15702731D01*
X11481848Y-15502731D02*
X11500896Y-15502731D01*
X11500896Y-15502731D02*
X11519944Y-15512255D01*
X11519944Y-15512255D02*
X11529467Y-15521779D01*
X11529467Y-15521779D02*
X11538991Y-15540826D01*
X11538991Y-15540826D02*
X11548515Y-15578922D01*
X11548515Y-15578922D02*
X11548515Y-15626541D01*
X11548515Y-15626541D02*
X11538991Y-15664636D01*
X11538991Y-15664636D02*
X11529467Y-15683683D01*
X11529467Y-15683683D02*
X11519944Y-15693207D01*
X11519944Y-15693207D02*
X11500896Y-15702731D01*
X11500896Y-15702731D02*
X11481848Y-15702731D01*
X11481848Y-15702731D02*
X11462801Y-15693207D01*
X11462801Y-15693207D02*
X11453277Y-15683683D01*
X11453277Y-15683683D02*
X11443753Y-15664636D01*
X11443753Y-15664636D02*
X11434229Y-15626541D01*
X11434229Y-15626541D02*
X11434229Y-15578922D01*
X11434229Y-15578922D02*
X11443753Y-15540826D01*
X11443753Y-15540826D02*
X11453277Y-15521779D01*
X11453277Y-15521779D02*
X11462801Y-15512255D01*
X11462801Y-15512255D02*
X11481848Y-15502731D01*
X11729467Y-15502731D02*
X11634229Y-15502731D01*
X11634229Y-15502731D02*
X11624706Y-15597969D01*
X11624706Y-15597969D02*
X11634229Y-15588445D01*
X11634229Y-15588445D02*
X11653277Y-15578922D01*
X11653277Y-15578922D02*
X11700896Y-15578922D01*
X11700896Y-15578922D02*
X11719944Y-15588445D01*
X11719944Y-15588445D02*
X11729467Y-15597969D01*
X11729467Y-15597969D02*
X11738991Y-15617017D01*
X11738991Y-15617017D02*
X11738991Y-15664636D01*
X11738991Y-15664636D02*
X11729467Y-15683683D01*
X11729467Y-15683683D02*
X11719944Y-15693207D01*
X11719944Y-15693207D02*
X11700896Y-15702731D01*
X11700896Y-15702731D02*
X11653277Y-15702731D01*
X11653277Y-15702731D02*
X11634229Y-15693207D01*
X11634229Y-15693207D02*
X11624706Y-15683683D01*
X11929467Y-15702731D02*
X11815182Y-15702731D01*
X11872325Y-15702731D02*
X11872325Y-15502731D01*
X11872325Y-15502731D02*
X11853277Y-15531303D01*
X11853277Y-15531303D02*
X11834229Y-15550350D01*
X11834229Y-15550350D02*
X11815182Y-15559874D01*
X12005658Y-15521779D02*
X12015182Y-15512255D01*
X12015182Y-15512255D02*
X12034229Y-15502731D01*
X12034229Y-15502731D02*
X12081848Y-15502731D01*
X12081848Y-15502731D02*
X12100896Y-15512255D01*
X12100896Y-15512255D02*
X12110420Y-15521779D01*
X12110420Y-15521779D02*
X12119944Y-15540826D01*
X12119944Y-15540826D02*
X12119944Y-15559874D01*
X12119944Y-15559874D02*
X12110420Y-15588445D01*
X12110420Y-15588445D02*
X11996134Y-15702731D01*
X11996134Y-15702731D02*
X12119944Y-15702731D01*
X12196134Y-15502731D02*
X12196134Y-15540826D01*
X12272325Y-15502731D02*
X12272325Y-15540826D01*
X12567563Y-15778922D02*
X12558039Y-15769398D01*
X12558039Y-15769398D02*
X12538991Y-15740826D01*
X12538991Y-15740826D02*
X12529468Y-15721779D01*
X12529468Y-15721779D02*
X12519944Y-15693207D01*
X12519944Y-15693207D02*
X12510420Y-15645588D01*
X12510420Y-15645588D02*
X12510420Y-15607493D01*
X12510420Y-15607493D02*
X12519944Y-15559874D01*
X12519944Y-15559874D02*
X12529468Y-15531303D01*
X12529468Y-15531303D02*
X12538991Y-15512255D01*
X12538991Y-15512255D02*
X12558039Y-15483683D01*
X12558039Y-15483683D02*
X12567563Y-15474160D01*
X12634229Y-15521779D02*
X12643753Y-15512255D01*
X12643753Y-15512255D02*
X12662801Y-15502731D01*
X12662801Y-15502731D02*
X12710420Y-15502731D01*
X12710420Y-15502731D02*
X12729468Y-15512255D01*
X12729468Y-15512255D02*
X12738991Y-15521779D01*
X12738991Y-15521779D02*
X12748515Y-15540826D01*
X12748515Y-15540826D02*
X12748515Y-15559874D01*
X12748515Y-15559874D02*
X12738991Y-15588445D01*
X12738991Y-15588445D02*
X12624706Y-15702731D01*
X12624706Y-15702731D02*
X12748515Y-15702731D01*
X12986610Y-15702731D02*
X12986610Y-15502731D01*
X13072325Y-15702731D02*
X13072325Y-15597969D01*
X13072325Y-15597969D02*
X13062801Y-15578922D01*
X13062801Y-15578922D02*
X13043753Y-15569398D01*
X13043753Y-15569398D02*
X13015182Y-15569398D01*
X13015182Y-15569398D02*
X12996134Y-15578922D01*
X12996134Y-15578922D02*
X12986610Y-15588445D01*
X13196134Y-15702731D02*
X13177087Y-15693207D01*
X13177087Y-15693207D02*
X13167563Y-15683683D01*
X13167563Y-15683683D02*
X13158039Y-15664636D01*
X13158039Y-15664636D02*
X13158039Y-15607493D01*
X13158039Y-15607493D02*
X13167563Y-15588445D01*
X13167563Y-15588445D02*
X13177087Y-15578922D01*
X13177087Y-15578922D02*
X13196134Y-15569398D01*
X13196134Y-15569398D02*
X13224706Y-15569398D01*
X13224706Y-15569398D02*
X13243753Y-15578922D01*
X13243753Y-15578922D02*
X13253277Y-15588445D01*
X13253277Y-15588445D02*
X13262801Y-15607493D01*
X13262801Y-15607493D02*
X13262801Y-15664636D01*
X13262801Y-15664636D02*
X13253277Y-15683683D01*
X13253277Y-15683683D02*
X13243753Y-15693207D01*
X13243753Y-15693207D02*
X13224706Y-15702731D01*
X13224706Y-15702731D02*
X13196134Y-15702731D01*
X13377087Y-15702731D02*
X13358039Y-15693207D01*
X13358039Y-15693207D02*
X13348515Y-15674160D01*
X13348515Y-15674160D02*
X13348515Y-15502731D01*
X13529468Y-15693207D02*
X13510420Y-15702731D01*
X13510420Y-15702731D02*
X13472325Y-15702731D01*
X13472325Y-15702731D02*
X13453277Y-15693207D01*
X13453277Y-15693207D02*
X13443753Y-15674160D01*
X13443753Y-15674160D02*
X13443753Y-15597969D01*
X13443753Y-15597969D02*
X13453277Y-15578922D01*
X13453277Y-15578922D02*
X13472325Y-15569398D01*
X13472325Y-15569398D02*
X13510420Y-15569398D01*
X13510420Y-15569398D02*
X13529468Y-15578922D01*
X13529468Y-15578922D02*
X13538991Y-15597969D01*
X13538991Y-15597969D02*
X13538991Y-15617017D01*
X13538991Y-15617017D02*
X13443753Y-15636064D01*
X13615182Y-15693207D02*
X13634230Y-15702731D01*
X13634230Y-15702731D02*
X13672325Y-15702731D01*
X13672325Y-15702731D02*
X13691372Y-15693207D01*
X13691372Y-15693207D02*
X13700896Y-15674160D01*
X13700896Y-15674160D02*
X13700896Y-15664636D01*
X13700896Y-15664636D02*
X13691372Y-15645588D01*
X13691372Y-15645588D02*
X13672325Y-15636064D01*
X13672325Y-15636064D02*
X13643753Y-15636064D01*
X13643753Y-15636064D02*
X13624706Y-15626541D01*
X13624706Y-15626541D02*
X13615182Y-15607493D01*
X13615182Y-15607493D02*
X13615182Y-15597969D01*
X13615182Y-15597969D02*
X13624706Y-15578922D01*
X13624706Y-15578922D02*
X13643753Y-15569398D01*
X13643753Y-15569398D02*
X13672325Y-15569398D01*
X13672325Y-15569398D02*
X13691372Y-15578922D01*
X13767563Y-15778922D02*
X13777087Y-15769398D01*
X13777087Y-15769398D02*
X13796134Y-15740826D01*
X13796134Y-15740826D02*
X13805658Y-15721779D01*
X13805658Y-15721779D02*
X13815182Y-15693207D01*
X13815182Y-15693207D02*
X13824706Y-15645588D01*
X13824706Y-15645588D02*
X13824706Y-15607493D01*
X13824706Y-15607493D02*
X13815182Y-15559874D01*
X13815182Y-15559874D02*
X13805658Y-15531303D01*
X13805658Y-15531303D02*
X13796134Y-15512255D01*
X13796134Y-15512255D02*
X13777087Y-15483683D01*
X13777087Y-15483683D02*
X13767563Y-15474160D01*
M02*
