G04 #@! TF.GenerationSoftware,KiCad,Pcbnew,8.0.6+1*
G04 #@! TF.CreationDate,2024-12-31T16:22:16+00:00*
G04 #@! TF.ProjectId,corney_island_wireless,636f726e-6579-45f6-9973-6c616e645f77,0.2*
G04 #@! TF.SameCoordinates,Original*
G04 #@! TF.FileFunction,Soldermask,Bot*
G04 #@! TF.FilePolarity,Negative*
%FSLAX46Y46*%
G04 Gerber Fmt 4.6, Leading zero omitted, Abs format (unit mm)*
G04 Created by KiCad (PCBNEW 8.0.6+1) date 2024-12-31 16:22:16*
%MOMM*%
%LPD*%
G01*
G04 APERTURE LIST*
%ADD10C,2.300000*%
%ADD11C,4.400000*%
%ADD12C,3.500000*%
%ADD13C,2.000000*%
%ADD14C,3.100000*%
%ADD15C,1.800000*%
%ADD16C,0.900000*%
%ADD17O,1.800000X1.800000*%
%ADD18C,1.000000*%
%ADD19C,2.100000*%
%ADD20O,1.850000X1.300000*%
G04 APERTURE END LIST*
D10*
X185000000Y-105575000D03*
X201000000Y-114475000D03*
D11*
X109000000Y-74500000D03*
X109000000Y-91500000D03*
X163000000Y-68125000D03*
X141400000Y-107650000D03*
X181186589Y-112888004D03*
D12*
X100000000Y-100000000D03*
D13*
X105500000Y-100000000D03*
X94500000Y-100000000D03*
D14*
X100000000Y-94050000D03*
G36*
G01*
X95375000Y-95350000D02*
X95375000Y-92750000D01*
G75*
G02*
X95425000Y-92700000I50000J0D01*
G01*
X98025000Y-92700000D01*
G75*
G02*
X98075000Y-92750000I0J-50000D01*
G01*
X98075000Y-95350000D01*
G75*
G02*
X98025000Y-95400000I-50000J0D01*
G01*
X95425000Y-95400000D01*
G75*
G02*
X95375000Y-95350000I0J50000D01*
G01*
G37*
G36*
G01*
X106925000Y-97550000D02*
X106925000Y-94950000D01*
G75*
G02*
X106975000Y-94900000I50000J0D01*
G01*
X109575000Y-94900000D01*
G75*
G02*
X109625000Y-94950000I0J-50000D01*
G01*
X109625000Y-97550000D01*
G75*
G02*
X109575000Y-97600000I-50000J0D01*
G01*
X106975000Y-97600000D01*
G75*
G02*
X106925000Y-97550000I0J50000D01*
G01*
G37*
X105000000Y-96250000D03*
D12*
X100000000Y-83000000D03*
D13*
X105500000Y-83000000D03*
X94500000Y-83000000D03*
D14*
X100000000Y-77050000D03*
G36*
G01*
X95375000Y-78350000D02*
X95375000Y-75750000D01*
G75*
G02*
X95425000Y-75700000I50000J0D01*
G01*
X98025000Y-75700000D01*
G75*
G02*
X98075000Y-75750000I0J-50000D01*
G01*
X98075000Y-78350000D01*
G75*
G02*
X98025000Y-78400000I-50000J0D01*
G01*
X95425000Y-78400000D01*
G75*
G02*
X95375000Y-78350000I0J50000D01*
G01*
G37*
G36*
G01*
X106925000Y-80550000D02*
X106925000Y-77950000D01*
G75*
G02*
X106975000Y-77900000I50000J0D01*
G01*
X109575000Y-77900000D01*
G75*
G02*
X109625000Y-77950000I0J-50000D01*
G01*
X109625000Y-80550000D01*
G75*
G02*
X109575000Y-80600000I-50000J0D01*
G01*
X106975000Y-80600000D01*
G75*
G02*
X106925000Y-80550000I0J50000D01*
G01*
G37*
X105000000Y-79250000D03*
D12*
X100000000Y-66000000D03*
D13*
X105500000Y-66000000D03*
X94500000Y-66000000D03*
D14*
X100000000Y-60050000D03*
G36*
G01*
X95375000Y-61350000D02*
X95375000Y-58750000D01*
G75*
G02*
X95425000Y-58700000I50000J0D01*
G01*
X98025000Y-58700000D01*
G75*
G02*
X98075000Y-58750000I0J-50000D01*
G01*
X98075000Y-61350000D01*
G75*
G02*
X98025000Y-61400000I-50000J0D01*
G01*
X95425000Y-61400000D01*
G75*
G02*
X95375000Y-61350000I0J50000D01*
G01*
G37*
G36*
G01*
X106925000Y-63550000D02*
X106925000Y-60950000D01*
G75*
G02*
X106975000Y-60900000I50000J0D01*
G01*
X109575000Y-60900000D01*
G75*
G02*
X109625000Y-60950000I0J-50000D01*
G01*
X109625000Y-63550000D01*
G75*
G02*
X109575000Y-63600000I-50000J0D01*
G01*
X106975000Y-63600000D01*
G75*
G02*
X106925000Y-63550000I0J50000D01*
G01*
G37*
X105000000Y-62250000D03*
D12*
X118000000Y-89375000D03*
D13*
X123500000Y-89375000D03*
X112500000Y-89375000D03*
D14*
X118000000Y-83425000D03*
G36*
G01*
X113375000Y-84725000D02*
X113375000Y-82125000D01*
G75*
G02*
X113425000Y-82075000I50000J0D01*
G01*
X116025000Y-82075000D01*
G75*
G02*
X116075000Y-82125000I0J-50000D01*
G01*
X116075000Y-84725000D01*
G75*
G02*
X116025000Y-84775000I-50000J0D01*
G01*
X113425000Y-84775000D01*
G75*
G02*
X113375000Y-84725000I0J50000D01*
G01*
G37*
G36*
G01*
X124925000Y-86925000D02*
X124925000Y-84325000D01*
G75*
G02*
X124975000Y-84275000I50000J0D01*
G01*
X127575000Y-84275000D01*
G75*
G02*
X127625000Y-84325000I0J-50000D01*
G01*
X127625000Y-86925000D01*
G75*
G02*
X127575000Y-86975000I-50000J0D01*
G01*
X124975000Y-86975000D01*
G75*
G02*
X124925000Y-86925000I0J50000D01*
G01*
G37*
X123000000Y-85625000D03*
D12*
X118000000Y-72375000D03*
D13*
X123500000Y-72375000D03*
X112500000Y-72375000D03*
D14*
X118000000Y-66425000D03*
G36*
G01*
X113375000Y-67725000D02*
X113375000Y-65125000D01*
G75*
G02*
X113425000Y-65075000I50000J0D01*
G01*
X116025000Y-65075000D01*
G75*
G02*
X116075000Y-65125000I0J-50000D01*
G01*
X116075000Y-67725000D01*
G75*
G02*
X116025000Y-67775000I-50000J0D01*
G01*
X113425000Y-67775000D01*
G75*
G02*
X113375000Y-67725000I0J50000D01*
G01*
G37*
G36*
G01*
X124925000Y-69925000D02*
X124925000Y-67325000D01*
G75*
G02*
X124975000Y-67275000I50000J0D01*
G01*
X127575000Y-67275000D01*
G75*
G02*
X127625000Y-67325000I0J-50000D01*
G01*
X127625000Y-69925000D01*
G75*
G02*
X127575000Y-69975000I-50000J0D01*
G01*
X124975000Y-69975000D01*
G75*
G02*
X124925000Y-69925000I0J50000D01*
G01*
G37*
X123000000Y-68625000D03*
D12*
X118000000Y-55375000D03*
D13*
X123500000Y-55375000D03*
X112500000Y-55375000D03*
D14*
X118000000Y-49425000D03*
G36*
G01*
X113375000Y-50725000D02*
X113375000Y-48125000D01*
G75*
G02*
X113425000Y-48075000I50000J0D01*
G01*
X116025000Y-48075000D01*
G75*
G02*
X116075000Y-48125000I0J-50000D01*
G01*
X116075000Y-50725000D01*
G75*
G02*
X116025000Y-50775000I-50000J0D01*
G01*
X113425000Y-50775000D01*
G75*
G02*
X113375000Y-50725000I0J50000D01*
G01*
G37*
G36*
G01*
X124925000Y-52925000D02*
X124925000Y-50325000D01*
G75*
G02*
X124975000Y-50275000I50000J0D01*
G01*
X127575000Y-50275000D01*
G75*
G02*
X127625000Y-50325000I0J-50000D01*
G01*
X127625000Y-52925000D01*
G75*
G02*
X127575000Y-52975000I-50000J0D01*
G01*
X124975000Y-52975000D01*
G75*
G02*
X124925000Y-52925000I0J50000D01*
G01*
G37*
X123000000Y-51625000D03*
D12*
X136000000Y-87250000D03*
D13*
X141500000Y-87250000D03*
X130500000Y-87250000D03*
D14*
X136000000Y-81300000D03*
G36*
G01*
X131375000Y-82600000D02*
X131375000Y-80000000D01*
G75*
G02*
X131425000Y-79950000I50000J0D01*
G01*
X134025000Y-79950000D01*
G75*
G02*
X134075000Y-80000000I0J-50000D01*
G01*
X134075000Y-82600000D01*
G75*
G02*
X134025000Y-82650000I-50000J0D01*
G01*
X131425000Y-82650000D01*
G75*
G02*
X131375000Y-82600000I0J50000D01*
G01*
G37*
G36*
G01*
X142925000Y-84800000D02*
X142925000Y-82200000D01*
G75*
G02*
X142975000Y-82150000I50000J0D01*
G01*
X145575000Y-82150000D01*
G75*
G02*
X145625000Y-82200000I0J-50000D01*
G01*
X145625000Y-84800000D01*
G75*
G02*
X145575000Y-84850000I-50000J0D01*
G01*
X142975000Y-84850000D01*
G75*
G02*
X142925000Y-84800000I0J50000D01*
G01*
G37*
X141000000Y-83500000D03*
D12*
X136000000Y-70250000D03*
D13*
X141500000Y-70250000D03*
X130500000Y-70250000D03*
D14*
X136000000Y-64300000D03*
G36*
G01*
X131375000Y-65600000D02*
X131375000Y-63000000D01*
G75*
G02*
X131425000Y-62950000I50000J0D01*
G01*
X134025000Y-62950000D01*
G75*
G02*
X134075000Y-63000000I0J-50000D01*
G01*
X134075000Y-65600000D01*
G75*
G02*
X134025000Y-65650000I-50000J0D01*
G01*
X131425000Y-65650000D01*
G75*
G02*
X131375000Y-65600000I0J50000D01*
G01*
G37*
G36*
G01*
X142925000Y-67800000D02*
X142925000Y-65200000D01*
G75*
G02*
X142975000Y-65150000I50000J0D01*
G01*
X145575000Y-65150000D01*
G75*
G02*
X145625000Y-65200000I0J-50000D01*
G01*
X145625000Y-67800000D01*
G75*
G02*
X145575000Y-67850000I-50000J0D01*
G01*
X142975000Y-67850000D01*
G75*
G02*
X142925000Y-67800000I0J50000D01*
G01*
G37*
X141000000Y-66500000D03*
D12*
X136000000Y-53250000D03*
D13*
X141500000Y-53250000D03*
X130500000Y-53250000D03*
D14*
X136000000Y-47300000D03*
G36*
G01*
X131375000Y-48600000D02*
X131375000Y-46000000D01*
G75*
G02*
X131425000Y-45950000I50000J0D01*
G01*
X134025000Y-45950000D01*
G75*
G02*
X134075000Y-46000000I0J-50000D01*
G01*
X134075000Y-48600000D01*
G75*
G02*
X134025000Y-48650000I-50000J0D01*
G01*
X131425000Y-48650000D01*
G75*
G02*
X131375000Y-48600000I0J50000D01*
G01*
G37*
G36*
G01*
X142925000Y-50800000D02*
X142925000Y-48200000D01*
G75*
G02*
X142975000Y-48150000I50000J0D01*
G01*
X145575000Y-48150000D01*
G75*
G02*
X145625000Y-48200000I0J-50000D01*
G01*
X145625000Y-50800000D01*
G75*
G02*
X145575000Y-50850000I-50000J0D01*
G01*
X142975000Y-50850000D01*
G75*
G02*
X142925000Y-50800000I0J50000D01*
G01*
G37*
X141000000Y-49500000D03*
D12*
X154000000Y-93625000D03*
D13*
X159500000Y-93625000D03*
X148500000Y-93625000D03*
D14*
X154000000Y-87675000D03*
G36*
G01*
X149375000Y-88975000D02*
X149375000Y-86375000D01*
G75*
G02*
X149425000Y-86325000I50000J0D01*
G01*
X152025000Y-86325000D01*
G75*
G02*
X152075000Y-86375000I0J-50000D01*
G01*
X152075000Y-88975000D01*
G75*
G02*
X152025000Y-89025000I-50000J0D01*
G01*
X149425000Y-89025000D01*
G75*
G02*
X149375000Y-88975000I0J50000D01*
G01*
G37*
G36*
G01*
X160925000Y-91175000D02*
X160925000Y-88575000D01*
G75*
G02*
X160975000Y-88525000I50000J0D01*
G01*
X163575000Y-88525000D01*
G75*
G02*
X163625000Y-88575000I0J-50000D01*
G01*
X163625000Y-91175000D01*
G75*
G02*
X163575000Y-91225000I-50000J0D01*
G01*
X160975000Y-91225000D01*
G75*
G02*
X160925000Y-91175000I0J50000D01*
G01*
G37*
X159000000Y-89875000D03*
D12*
X154000000Y-76625000D03*
D13*
X159500000Y-76625000D03*
X148500000Y-76625000D03*
D14*
X154000000Y-70675000D03*
G36*
G01*
X149375000Y-71975000D02*
X149375000Y-69375000D01*
G75*
G02*
X149425000Y-69325000I50000J0D01*
G01*
X152025000Y-69325000D01*
G75*
G02*
X152075000Y-69375000I0J-50000D01*
G01*
X152075000Y-71975000D01*
G75*
G02*
X152025000Y-72025000I-50000J0D01*
G01*
X149425000Y-72025000D01*
G75*
G02*
X149375000Y-71975000I0J50000D01*
G01*
G37*
G36*
G01*
X160925000Y-74175000D02*
X160925000Y-71575000D01*
G75*
G02*
X160975000Y-71525000I50000J0D01*
G01*
X163575000Y-71525000D01*
G75*
G02*
X163625000Y-71575000I0J-50000D01*
G01*
X163625000Y-74175000D01*
G75*
G02*
X163575000Y-74225000I-50000J0D01*
G01*
X160975000Y-74225000D01*
G75*
G02*
X160925000Y-74175000I0J50000D01*
G01*
G37*
X159000000Y-72875000D03*
D12*
X154000000Y-59625000D03*
D13*
X159500000Y-59625000D03*
X148500000Y-59625000D03*
D14*
X154000000Y-53675000D03*
G36*
G01*
X149375000Y-54975000D02*
X149375000Y-52375000D01*
G75*
G02*
X149425000Y-52325000I50000J0D01*
G01*
X152025000Y-52325000D01*
G75*
G02*
X152075000Y-52375000I0J-50000D01*
G01*
X152075000Y-54975000D01*
G75*
G02*
X152025000Y-55025000I-50000J0D01*
G01*
X149425000Y-55025000D01*
G75*
G02*
X149375000Y-54975000I0J50000D01*
G01*
G37*
G36*
G01*
X160925000Y-57175000D02*
X160925000Y-54575000D01*
G75*
G02*
X160975000Y-54525000I50000J0D01*
G01*
X163575000Y-54525000D01*
G75*
G02*
X163625000Y-54575000I0J-50000D01*
G01*
X163625000Y-57175000D01*
G75*
G02*
X163575000Y-57225000I-50000J0D01*
G01*
X160975000Y-57225000D01*
G75*
G02*
X160925000Y-57175000I0J50000D01*
G01*
G37*
X159000000Y-55875000D03*
D12*
X172000000Y-95750000D03*
D13*
X177500000Y-95750000D03*
X166500000Y-95750000D03*
D14*
X172000000Y-89800000D03*
G36*
G01*
X167375000Y-91100000D02*
X167375000Y-88500000D01*
G75*
G02*
X167425000Y-88450000I50000J0D01*
G01*
X170025000Y-88450000D01*
G75*
G02*
X170075000Y-88500000I0J-50000D01*
G01*
X170075000Y-91100000D01*
G75*
G02*
X170025000Y-91150000I-50000J0D01*
G01*
X167425000Y-91150000D01*
G75*
G02*
X167375000Y-91100000I0J50000D01*
G01*
G37*
G36*
G01*
X178925000Y-93300000D02*
X178925000Y-90700000D01*
G75*
G02*
X178975000Y-90650000I50000J0D01*
G01*
X181575000Y-90650000D01*
G75*
G02*
X181625000Y-90700000I0J-50000D01*
G01*
X181625000Y-93300000D01*
G75*
G02*
X181575000Y-93350000I-50000J0D01*
G01*
X178975000Y-93350000D01*
G75*
G02*
X178925000Y-93300000I0J50000D01*
G01*
G37*
X177000000Y-92000000D03*
D12*
X172000000Y-78750000D03*
D13*
X177500000Y-78750000D03*
X166500000Y-78750000D03*
D14*
X172000000Y-72800000D03*
G36*
G01*
X167375000Y-74100000D02*
X167375000Y-71500000D01*
G75*
G02*
X167425000Y-71450000I50000J0D01*
G01*
X170025000Y-71450000D01*
G75*
G02*
X170075000Y-71500000I0J-50000D01*
G01*
X170075000Y-74100000D01*
G75*
G02*
X170025000Y-74150000I-50000J0D01*
G01*
X167425000Y-74150000D01*
G75*
G02*
X167375000Y-74100000I0J50000D01*
G01*
G37*
G36*
G01*
X178925000Y-76300000D02*
X178925000Y-73700000D01*
G75*
G02*
X178975000Y-73650000I50000J0D01*
G01*
X181575000Y-73650000D01*
G75*
G02*
X181625000Y-73700000I0J-50000D01*
G01*
X181625000Y-76300000D01*
G75*
G02*
X181575000Y-76350000I-50000J0D01*
G01*
X178975000Y-76350000D01*
G75*
G02*
X178925000Y-76300000I0J50000D01*
G01*
G37*
X177000000Y-75000000D03*
D12*
X172000000Y-61750000D03*
D13*
X177500000Y-61750000D03*
X166500000Y-61750000D03*
D14*
X172000000Y-55800000D03*
G36*
G01*
X167375000Y-57100000D02*
X167375000Y-54500000D01*
G75*
G02*
X167425000Y-54450000I50000J0D01*
G01*
X170025000Y-54450000D01*
G75*
G02*
X170075000Y-54500000I0J-50000D01*
G01*
X170075000Y-57100000D01*
G75*
G02*
X170025000Y-57150000I-50000J0D01*
G01*
X167425000Y-57150000D01*
G75*
G02*
X167375000Y-57100000I0J50000D01*
G01*
G37*
G36*
G01*
X178925000Y-59300000D02*
X178925000Y-56700000D01*
G75*
G02*
X178975000Y-56650000I50000J0D01*
G01*
X181575000Y-56650000D01*
G75*
G02*
X181625000Y-56700000I0J-50000D01*
G01*
X181625000Y-59300000D01*
G75*
G02*
X181575000Y-59350000I-50000J0D01*
G01*
X178975000Y-59350000D01*
G75*
G02*
X178925000Y-59300000I0J50000D01*
G01*
G37*
X177000000Y-58000000D03*
D12*
X150400000Y-116150000D03*
D13*
X155900000Y-116150000D03*
X144900000Y-116150000D03*
D14*
X150400000Y-110200000D03*
G36*
G01*
X145775000Y-111500000D02*
X145775000Y-108900000D01*
G75*
G02*
X145825000Y-108850000I50000J0D01*
G01*
X148425000Y-108850000D01*
G75*
G02*
X148475000Y-108900000I0J-50000D01*
G01*
X148475000Y-111500000D01*
G75*
G02*
X148425000Y-111550000I-50000J0D01*
G01*
X145825000Y-111550000D01*
G75*
G02*
X145775000Y-111500000I0J50000D01*
G01*
G37*
G36*
G01*
X157325000Y-113700000D02*
X157325000Y-111100000D01*
G75*
G02*
X157375000Y-111050000I50000J0D01*
G01*
X159975000Y-111050000D01*
G75*
G02*
X160025000Y-111100000I0J-50000D01*
G01*
X160025000Y-113700000D01*
G75*
G02*
X159975000Y-113750000I-50000J0D01*
G01*
X157375000Y-113750000D01*
G75*
G02*
X157325000Y-113700000I0J50000D01*
G01*
G37*
X155400000Y-112400000D03*
D12*
X170293294Y-118769002D03*
D13*
X175605886Y-120192507D03*
X164980702Y-117345497D03*
D14*
X171833267Y-113021743D03*
G36*
G01*
X167029396Y-113080409D02*
X167702325Y-110569002D01*
G75*
G02*
X167763562Y-110533647I48296J-12941D01*
G01*
X170274969Y-111206576D01*
G75*
G02*
X170310324Y-111267813I-12941J-48296D01*
G01*
X169637395Y-113779220D01*
G75*
G02*
X169576158Y-113814575I-48296J12941D01*
G01*
X167064751Y-113141646D01*
G75*
G02*
X167029396Y-113080409I12941J48296D01*
G01*
G37*
G36*
G01*
X177616438Y-118194806D02*
X178289367Y-115683399D01*
G75*
G02*
X178350604Y-115648044I48296J-12941D01*
G01*
X180862011Y-116320973D01*
G75*
G02*
X180897366Y-116382210I-12941J-48296D01*
G01*
X180224437Y-118893617D01*
G75*
G02*
X180163200Y-118928972I-48296J12941D01*
G01*
X177651793Y-118256043D01*
G75*
G02*
X177616438Y-118194806I12941J48296D01*
G01*
G37*
X176093495Y-116440875D03*
D12*
X188830894Y-126447527D03*
D13*
X193594034Y-129197527D03*
X184067754Y-123697527D03*
D14*
X191805894Y-121294676D03*
G36*
G01*
X187150527Y-120108009D02*
X188450527Y-117856343D01*
G75*
G02*
X188518828Y-117838042I43301J-25000D01*
G01*
X190770494Y-119138042D01*
G75*
G02*
X190788795Y-119206343I-25000J-43301D01*
G01*
X189488795Y-121458009D01*
G75*
G02*
X189420494Y-121476310I-43301J25000D01*
G01*
X187168828Y-120176310D01*
G75*
G02*
X187150527Y-120108009I25000J43301D01*
G01*
G37*
G36*
G01*
X196053120Y-127788265D02*
X197353120Y-125536599D01*
G75*
G02*
X197421421Y-125518298I43301J-25000D01*
G01*
X199673087Y-126818298D01*
G75*
G02*
X199691388Y-126886599I-25000J-43301D01*
G01*
X198391388Y-129138265D01*
G75*
G02*
X198323087Y-129156566I-43301J25000D01*
G01*
X196071421Y-127856566D01*
G75*
G02*
X196053120Y-127788265I25000J43301D01*
G01*
G37*
X195036021Y-125699932D03*
G36*
G01*
X98850000Y-104400000D02*
X98850000Y-105600000D01*
G75*
G02*
X98800000Y-105650000I-50000J0D01*
G01*
X97900000Y-105650000D01*
G75*
G02*
X97850000Y-105600000I0J50000D01*
G01*
X97850000Y-104400000D01*
G75*
G02*
X97900000Y-104350000I50000J0D01*
G01*
X98800000Y-104350000D01*
G75*
G02*
X98850000Y-104400000I0J-50000D01*
G01*
G37*
G36*
G01*
X102150000Y-104400000D02*
X102150000Y-105600000D01*
G75*
G02*
X102100000Y-105650000I-50000J0D01*
G01*
X101200000Y-105650000D01*
G75*
G02*
X101150000Y-105600000I0J50000D01*
G01*
X101150000Y-104400000D01*
G75*
G02*
X101200000Y-104350000I50000J0D01*
G01*
X102100000Y-104350000D01*
G75*
G02*
X102150000Y-104400000I0J-50000D01*
G01*
G37*
G36*
G01*
X98850000Y-87400000D02*
X98850000Y-88600000D01*
G75*
G02*
X98800000Y-88650000I-50000J0D01*
G01*
X97900000Y-88650000D01*
G75*
G02*
X97850000Y-88600000I0J50000D01*
G01*
X97850000Y-87400000D01*
G75*
G02*
X97900000Y-87350000I50000J0D01*
G01*
X98800000Y-87350000D01*
G75*
G02*
X98850000Y-87400000I0J-50000D01*
G01*
G37*
G36*
G01*
X102150000Y-87400000D02*
X102150000Y-88600000D01*
G75*
G02*
X102100000Y-88650000I-50000J0D01*
G01*
X101200000Y-88650000D01*
G75*
G02*
X101150000Y-88600000I0J50000D01*
G01*
X101150000Y-87400000D01*
G75*
G02*
X101200000Y-87350000I50000J0D01*
G01*
X102100000Y-87350000D01*
G75*
G02*
X102150000Y-87400000I0J-50000D01*
G01*
G37*
G36*
G01*
X98850000Y-70400000D02*
X98850000Y-71600000D01*
G75*
G02*
X98800000Y-71650000I-50000J0D01*
G01*
X97900000Y-71650000D01*
G75*
G02*
X97850000Y-71600000I0J50000D01*
G01*
X97850000Y-70400000D01*
G75*
G02*
X97900000Y-70350000I50000J0D01*
G01*
X98800000Y-70350000D01*
G75*
G02*
X98850000Y-70400000I0J-50000D01*
G01*
G37*
G36*
G01*
X102150000Y-70400000D02*
X102150000Y-71600000D01*
G75*
G02*
X102100000Y-71650000I-50000J0D01*
G01*
X101200000Y-71650000D01*
G75*
G02*
X101150000Y-71600000I0J50000D01*
G01*
X101150000Y-70400000D01*
G75*
G02*
X101200000Y-70350000I50000J0D01*
G01*
X102100000Y-70350000D01*
G75*
G02*
X102150000Y-70400000I0J-50000D01*
G01*
G37*
G36*
G01*
X116850000Y-93775000D02*
X116850000Y-94975000D01*
G75*
G02*
X116800000Y-95025000I-50000J0D01*
G01*
X115900000Y-95025000D01*
G75*
G02*
X115850000Y-94975000I0J50000D01*
G01*
X115850000Y-93775000D01*
G75*
G02*
X115900000Y-93725000I50000J0D01*
G01*
X116800000Y-93725000D01*
G75*
G02*
X116850000Y-93775000I0J-50000D01*
G01*
G37*
G36*
G01*
X120150000Y-93775000D02*
X120150000Y-94975000D01*
G75*
G02*
X120100000Y-95025000I-50000J0D01*
G01*
X119200000Y-95025000D01*
G75*
G02*
X119150000Y-94975000I0J50000D01*
G01*
X119150000Y-93775000D01*
G75*
G02*
X119200000Y-93725000I50000J0D01*
G01*
X120100000Y-93725000D01*
G75*
G02*
X120150000Y-93775000I0J-50000D01*
G01*
G37*
G36*
G01*
X116850000Y-76775000D02*
X116850000Y-77975000D01*
G75*
G02*
X116800000Y-78025000I-50000J0D01*
G01*
X115900000Y-78025000D01*
G75*
G02*
X115850000Y-77975000I0J50000D01*
G01*
X115850000Y-76775000D01*
G75*
G02*
X115900000Y-76725000I50000J0D01*
G01*
X116800000Y-76725000D01*
G75*
G02*
X116850000Y-76775000I0J-50000D01*
G01*
G37*
G36*
G01*
X120150000Y-76775000D02*
X120150000Y-77975000D01*
G75*
G02*
X120100000Y-78025000I-50000J0D01*
G01*
X119200000Y-78025000D01*
G75*
G02*
X119150000Y-77975000I0J50000D01*
G01*
X119150000Y-76775000D01*
G75*
G02*
X119200000Y-76725000I50000J0D01*
G01*
X120100000Y-76725000D01*
G75*
G02*
X120150000Y-76775000I0J-50000D01*
G01*
G37*
G36*
G01*
X116850000Y-59775000D02*
X116850000Y-60975000D01*
G75*
G02*
X116800000Y-61025000I-50000J0D01*
G01*
X115900000Y-61025000D01*
G75*
G02*
X115850000Y-60975000I0J50000D01*
G01*
X115850000Y-59775000D01*
G75*
G02*
X115900000Y-59725000I50000J0D01*
G01*
X116800000Y-59725000D01*
G75*
G02*
X116850000Y-59775000I0J-50000D01*
G01*
G37*
G36*
G01*
X120150000Y-59775000D02*
X120150000Y-60975000D01*
G75*
G02*
X120100000Y-61025000I-50000J0D01*
G01*
X119200000Y-61025000D01*
G75*
G02*
X119150000Y-60975000I0J50000D01*
G01*
X119150000Y-59775000D01*
G75*
G02*
X119200000Y-59725000I50000J0D01*
G01*
X120100000Y-59725000D01*
G75*
G02*
X120150000Y-59775000I0J-50000D01*
G01*
G37*
G36*
G01*
X134850000Y-91650000D02*
X134850000Y-92850000D01*
G75*
G02*
X134800000Y-92900000I-50000J0D01*
G01*
X133900000Y-92900000D01*
G75*
G02*
X133850000Y-92850000I0J50000D01*
G01*
X133850000Y-91650000D01*
G75*
G02*
X133900000Y-91600000I50000J0D01*
G01*
X134800000Y-91600000D01*
G75*
G02*
X134850000Y-91650000I0J-50000D01*
G01*
G37*
G36*
G01*
X138150000Y-91650000D02*
X138150000Y-92850000D01*
G75*
G02*
X138100000Y-92900000I-50000J0D01*
G01*
X137200000Y-92900000D01*
G75*
G02*
X137150000Y-92850000I0J50000D01*
G01*
X137150000Y-91650000D01*
G75*
G02*
X137200000Y-91600000I50000J0D01*
G01*
X138100000Y-91600000D01*
G75*
G02*
X138150000Y-91650000I0J-50000D01*
G01*
G37*
G36*
G01*
X134850000Y-74650000D02*
X134850000Y-75850000D01*
G75*
G02*
X134800000Y-75900000I-50000J0D01*
G01*
X133900000Y-75900000D01*
G75*
G02*
X133850000Y-75850000I0J50000D01*
G01*
X133850000Y-74650000D01*
G75*
G02*
X133900000Y-74600000I50000J0D01*
G01*
X134800000Y-74600000D01*
G75*
G02*
X134850000Y-74650000I0J-50000D01*
G01*
G37*
G36*
G01*
X138150000Y-74650000D02*
X138150000Y-75850000D01*
G75*
G02*
X138100000Y-75900000I-50000J0D01*
G01*
X137200000Y-75900000D01*
G75*
G02*
X137150000Y-75850000I0J50000D01*
G01*
X137150000Y-74650000D01*
G75*
G02*
X137200000Y-74600000I50000J0D01*
G01*
X138100000Y-74600000D01*
G75*
G02*
X138150000Y-74650000I0J-50000D01*
G01*
G37*
G36*
G01*
X134850000Y-57650000D02*
X134850000Y-58850000D01*
G75*
G02*
X134800000Y-58900000I-50000J0D01*
G01*
X133900000Y-58900000D01*
G75*
G02*
X133850000Y-58850000I0J50000D01*
G01*
X133850000Y-57650000D01*
G75*
G02*
X133900000Y-57600000I50000J0D01*
G01*
X134800000Y-57600000D01*
G75*
G02*
X134850000Y-57650000I0J-50000D01*
G01*
G37*
G36*
G01*
X138150000Y-57650000D02*
X138150000Y-58850000D01*
G75*
G02*
X138100000Y-58900000I-50000J0D01*
G01*
X137200000Y-58900000D01*
G75*
G02*
X137150000Y-58850000I0J50000D01*
G01*
X137150000Y-57650000D01*
G75*
G02*
X137200000Y-57600000I50000J0D01*
G01*
X138100000Y-57600000D01*
G75*
G02*
X138150000Y-57650000I0J-50000D01*
G01*
G37*
G36*
G01*
X152850000Y-98025000D02*
X152850000Y-99225000D01*
G75*
G02*
X152800000Y-99275000I-50000J0D01*
G01*
X151900000Y-99275000D01*
G75*
G02*
X151850000Y-99225000I0J50000D01*
G01*
X151850000Y-98025000D01*
G75*
G02*
X151900000Y-97975000I50000J0D01*
G01*
X152800000Y-97975000D01*
G75*
G02*
X152850000Y-98025000I0J-50000D01*
G01*
G37*
G36*
G01*
X156150000Y-98025000D02*
X156150000Y-99225000D01*
G75*
G02*
X156100000Y-99275000I-50000J0D01*
G01*
X155200000Y-99275000D01*
G75*
G02*
X155150000Y-99225000I0J50000D01*
G01*
X155150000Y-98025000D01*
G75*
G02*
X155200000Y-97975000I50000J0D01*
G01*
X156100000Y-97975000D01*
G75*
G02*
X156150000Y-98025000I0J-50000D01*
G01*
G37*
G36*
G01*
X152850000Y-81025000D02*
X152850000Y-82225000D01*
G75*
G02*
X152800000Y-82275000I-50000J0D01*
G01*
X151900000Y-82275000D01*
G75*
G02*
X151850000Y-82225000I0J50000D01*
G01*
X151850000Y-81025000D01*
G75*
G02*
X151900000Y-80975000I50000J0D01*
G01*
X152800000Y-80975000D01*
G75*
G02*
X152850000Y-81025000I0J-50000D01*
G01*
G37*
G36*
G01*
X156150000Y-81025000D02*
X156150000Y-82225000D01*
G75*
G02*
X156100000Y-82275000I-50000J0D01*
G01*
X155200000Y-82275000D01*
G75*
G02*
X155150000Y-82225000I0J50000D01*
G01*
X155150000Y-81025000D01*
G75*
G02*
X155200000Y-80975000I50000J0D01*
G01*
X156100000Y-80975000D01*
G75*
G02*
X156150000Y-81025000I0J-50000D01*
G01*
G37*
G36*
G01*
X152850000Y-64025000D02*
X152850000Y-65225000D01*
G75*
G02*
X152800000Y-65275000I-50000J0D01*
G01*
X151900000Y-65275000D01*
G75*
G02*
X151850000Y-65225000I0J50000D01*
G01*
X151850000Y-64025000D01*
G75*
G02*
X151900000Y-63975000I50000J0D01*
G01*
X152800000Y-63975000D01*
G75*
G02*
X152850000Y-64025000I0J-50000D01*
G01*
G37*
G36*
G01*
X156150000Y-64025000D02*
X156150000Y-65225000D01*
G75*
G02*
X156100000Y-65275000I-50000J0D01*
G01*
X155200000Y-65275000D01*
G75*
G02*
X155150000Y-65225000I0J50000D01*
G01*
X155150000Y-64025000D01*
G75*
G02*
X155200000Y-63975000I50000J0D01*
G01*
X156100000Y-63975000D01*
G75*
G02*
X156150000Y-64025000I0J-50000D01*
G01*
G37*
G36*
G01*
X170850000Y-100150000D02*
X170850000Y-101350000D01*
G75*
G02*
X170800000Y-101400000I-50000J0D01*
G01*
X169900000Y-101400000D01*
G75*
G02*
X169850000Y-101350000I0J50000D01*
G01*
X169850000Y-100150000D01*
G75*
G02*
X169900000Y-100100000I50000J0D01*
G01*
X170800000Y-100100000D01*
G75*
G02*
X170850000Y-100150000I0J-50000D01*
G01*
G37*
G36*
G01*
X174150000Y-100150000D02*
X174150000Y-101350000D01*
G75*
G02*
X174100000Y-101400000I-50000J0D01*
G01*
X173200000Y-101400000D01*
G75*
G02*
X173150000Y-101350000I0J50000D01*
G01*
X173150000Y-100150000D01*
G75*
G02*
X173200000Y-100100000I50000J0D01*
G01*
X174100000Y-100100000D01*
G75*
G02*
X174150000Y-100150000I0J-50000D01*
G01*
G37*
G36*
G01*
X170850000Y-83150000D02*
X170850000Y-84350000D01*
G75*
G02*
X170800000Y-84400000I-50000J0D01*
G01*
X169900000Y-84400000D01*
G75*
G02*
X169850000Y-84350000I0J50000D01*
G01*
X169850000Y-83150000D01*
G75*
G02*
X169900000Y-83100000I50000J0D01*
G01*
X170800000Y-83100000D01*
G75*
G02*
X170850000Y-83150000I0J-50000D01*
G01*
G37*
G36*
G01*
X174150000Y-83150000D02*
X174150000Y-84350000D01*
G75*
G02*
X174100000Y-84400000I-50000J0D01*
G01*
X173200000Y-84400000D01*
G75*
G02*
X173150000Y-84350000I0J50000D01*
G01*
X173150000Y-83150000D01*
G75*
G02*
X173200000Y-83100000I50000J0D01*
G01*
X174100000Y-83100000D01*
G75*
G02*
X174150000Y-83150000I0J-50000D01*
G01*
G37*
G36*
G01*
X170850000Y-66150000D02*
X170850000Y-67350000D01*
G75*
G02*
X170800000Y-67400000I-50000J0D01*
G01*
X169900000Y-67400000D01*
G75*
G02*
X169850000Y-67350000I0J50000D01*
G01*
X169850000Y-66150000D01*
G75*
G02*
X169900000Y-66100000I50000J0D01*
G01*
X170800000Y-66100000D01*
G75*
G02*
X170850000Y-66150000I0J-50000D01*
G01*
G37*
G36*
G01*
X174150000Y-66150000D02*
X174150000Y-67350000D01*
G75*
G02*
X174100000Y-67400000I-50000J0D01*
G01*
X173200000Y-67400000D01*
G75*
G02*
X173150000Y-67350000I0J50000D01*
G01*
X173150000Y-66150000D01*
G75*
G02*
X173200000Y-66100000I50000J0D01*
G01*
X174100000Y-66100000D01*
G75*
G02*
X174150000Y-66150000I0J-50000D01*
G01*
G37*
G36*
G01*
X149250000Y-120550000D02*
X149250000Y-121750000D01*
G75*
G02*
X149200000Y-121800000I-50000J0D01*
G01*
X148300000Y-121800000D01*
G75*
G02*
X148250000Y-121750000I0J50000D01*
G01*
X148250000Y-120550000D01*
G75*
G02*
X148300000Y-120500000I50000J0D01*
G01*
X149200000Y-120500000D01*
G75*
G02*
X149250000Y-120550000I0J-50000D01*
G01*
G37*
G36*
G01*
X152550000Y-120550000D02*
X152550000Y-121750000D01*
G75*
G02*
X152500000Y-121800000I-50000J0D01*
G01*
X151600000Y-121800000D01*
G75*
G02*
X151550000Y-121750000I0J50000D01*
G01*
X151550000Y-120550000D01*
G75*
G02*
X151600000Y-120500000I50000J0D01*
G01*
X152500000Y-120500000D01*
G75*
G02*
X152550000Y-120550000I0J-50000D01*
G01*
G37*
G36*
G01*
X168043675Y-122721434D02*
X167733092Y-123880545D01*
G75*
G02*
X167671855Y-123915900I-48296J12941D01*
G01*
X166802522Y-123682963D01*
G75*
G02*
X166767167Y-123621726I12941J48296D01*
G01*
X167077750Y-122462615D01*
G75*
G02*
X167138987Y-122427260I48296J-12941D01*
G01*
X168008320Y-122660197D01*
G75*
G02*
X168043675Y-122721434I-12941J-48296D01*
G01*
G37*
G36*
G01*
X171231231Y-123575536D02*
X170920648Y-124734647D01*
G75*
G02*
X170859411Y-124770002I-48296J12941D01*
G01*
X169990078Y-124537065D01*
G75*
G02*
X169954723Y-124475828I12941J48296D01*
G01*
X170265306Y-123316717D01*
G75*
G02*
X170326543Y-123281362I48296J-12941D01*
G01*
X171195876Y-123514299D01*
G75*
G02*
X171231231Y-123575536I-12941J-48296D01*
G01*
G37*
G36*
G01*
X185634964Y-129683039D02*
X185034964Y-130722269D01*
G75*
G02*
X184966663Y-130740570I-43301J25000D01*
G01*
X184187241Y-130290570D01*
G75*
G02*
X184168940Y-130222269I25000J43301D01*
G01*
X184768940Y-129183039D01*
G75*
G02*
X184837241Y-129164738I43301J-25000D01*
G01*
X185616663Y-129614738D01*
G75*
G02*
X185634964Y-129683039I-25000J-43301D01*
G01*
G37*
G36*
G01*
X188492848Y-131333039D02*
X187892848Y-132372269D01*
G75*
G02*
X187824547Y-132390570I-43301J25000D01*
G01*
X187045125Y-131940570D01*
G75*
G02*
X187026824Y-131872269I25000J43301D01*
G01*
X187626824Y-130833039D01*
G75*
G02*
X187695125Y-130814738I43301J-25000D01*
G01*
X188474547Y-131264738D01*
G75*
G02*
X188492848Y-131333039I-25000J-43301D01*
G01*
G37*
D12*
X100000000Y-100000000D03*
D13*
X105500000Y-100000000D03*
X94500000Y-100000000D03*
D14*
X100000000Y-94050000D03*
X95000000Y-96250000D03*
D12*
X100000000Y-83000000D03*
D13*
X105500000Y-83000000D03*
X94500000Y-83000000D03*
D14*
X100000000Y-77050000D03*
X95000000Y-79250000D03*
D12*
X100000000Y-66000000D03*
D13*
X105500000Y-66000000D03*
X94500000Y-66000000D03*
D14*
X100000000Y-60050000D03*
X95000000Y-62250000D03*
D12*
X118000000Y-89375000D03*
D13*
X123500000Y-89375000D03*
X112500000Y-89375000D03*
D14*
X118000000Y-83425000D03*
X113000000Y-85625000D03*
D12*
X118000000Y-72375000D03*
D13*
X123500000Y-72375000D03*
X112500000Y-72375000D03*
D14*
X118000000Y-66425000D03*
X113000000Y-68625000D03*
D12*
X118000000Y-55375000D03*
D13*
X123500000Y-55375000D03*
X112500000Y-55375000D03*
D14*
X118000000Y-49425000D03*
X113000000Y-51625000D03*
D12*
X136000000Y-87250000D03*
D13*
X141500000Y-87250000D03*
X130500000Y-87250000D03*
D14*
X136000000Y-81300000D03*
X131000000Y-83500000D03*
D12*
X136000000Y-70250000D03*
D13*
X141500000Y-70250000D03*
X130500000Y-70250000D03*
D14*
X136000000Y-64300000D03*
X131000000Y-66500000D03*
D12*
X136000000Y-53250000D03*
D13*
X141500000Y-53250000D03*
X130500000Y-53250000D03*
D14*
X136000000Y-47300000D03*
X131000000Y-49500000D03*
D12*
X154000000Y-93625000D03*
D13*
X159500000Y-93625000D03*
X148500000Y-93625000D03*
D14*
X154000000Y-87675000D03*
X149000000Y-89875000D03*
D12*
X154000000Y-76625000D03*
D13*
X159500000Y-76625000D03*
X148500000Y-76625000D03*
D14*
X154000000Y-70675000D03*
X149000000Y-72875000D03*
D12*
X154000000Y-59625000D03*
D13*
X159500000Y-59625000D03*
X148500000Y-59625000D03*
D14*
X154000000Y-53675000D03*
X149000000Y-55875000D03*
D12*
X172000000Y-95750000D03*
D13*
X177500000Y-95750000D03*
X166500000Y-95750000D03*
D14*
X172000000Y-89800000D03*
X167000000Y-92000000D03*
D12*
X172000000Y-78750000D03*
D13*
X177500000Y-78750000D03*
X166500000Y-78750000D03*
D14*
X172000000Y-72800000D03*
X167000000Y-75000000D03*
D12*
X172000000Y-61750000D03*
D13*
X177500000Y-61750000D03*
X166500000Y-61750000D03*
D14*
X172000000Y-55800000D03*
X167000000Y-58000000D03*
D12*
X150400000Y-116150000D03*
D13*
X155900000Y-116150000D03*
X144900000Y-116150000D03*
D14*
X150400000Y-110200000D03*
X145400000Y-112400000D03*
D12*
X170293294Y-118769002D03*
D13*
X175605886Y-120192507D03*
X164980702Y-117345497D03*
D14*
X171833267Y-113021743D03*
X166434236Y-113852685D03*
D12*
X188830894Y-126447527D03*
D13*
X193594034Y-129197527D03*
X184067754Y-123697527D03*
D14*
X191805894Y-121294676D03*
X186375767Y-120699932D03*
D15*
X185380000Y-61045000D03*
X200620000Y-61045000D03*
D16*
X196400000Y-61045000D03*
X189600000Y-61045000D03*
G36*
G01*
X187170000Y-61645000D02*
X187170000Y-60445000D01*
G75*
G02*
X187220000Y-60395000I50000J0D01*
G01*
X187820000Y-60395000D01*
G75*
G02*
X187870000Y-60445000I0J-50000D01*
G01*
X187870000Y-61645000D01*
G75*
G02*
X187820000Y-61695000I-50000J0D01*
G01*
X187220000Y-61695000D01*
G75*
G02*
X187170000Y-61645000I0J50000D01*
G01*
G37*
G36*
G01*
X188070000Y-61645000D02*
X188070000Y-60445000D01*
G75*
G02*
X188120000Y-60395000I50000J0D01*
G01*
X188720000Y-60395000D01*
G75*
G02*
X188770000Y-60445000I0J-50000D01*
G01*
X188770000Y-61645000D01*
G75*
G02*
X188720000Y-61695000I-50000J0D01*
G01*
X188120000Y-61695000D01*
G75*
G02*
X188070000Y-61645000I0J50000D01*
G01*
G37*
G36*
G01*
X197230000Y-61645000D02*
X197230000Y-60445000D01*
G75*
G02*
X197280000Y-60395000I50000J0D01*
G01*
X197880000Y-60395000D01*
G75*
G02*
X197930000Y-60445000I0J-50000D01*
G01*
X197930000Y-61645000D01*
G75*
G02*
X197880000Y-61695000I-50000J0D01*
G01*
X197280000Y-61695000D01*
G75*
G02*
X197230000Y-61645000I0J50000D01*
G01*
G37*
G36*
G01*
X198130000Y-61645000D02*
X198130000Y-60445000D01*
G75*
G02*
X198180000Y-60395000I50000J0D01*
G01*
X198780000Y-60395000D01*
G75*
G02*
X198830000Y-60445000I0J-50000D01*
G01*
X198830000Y-61645000D01*
G75*
G02*
X198780000Y-61695000I-50000J0D01*
G01*
X198180000Y-61695000D01*
G75*
G02*
X198130000Y-61645000I0J50000D01*
G01*
G37*
D15*
X185380000Y-63585000D03*
X200620000Y-63585000D03*
D16*
X196400000Y-63585000D03*
X189600000Y-63585000D03*
G36*
G01*
X187170000Y-64185000D02*
X187170000Y-62985000D01*
G75*
G02*
X187220000Y-62935000I50000J0D01*
G01*
X187820000Y-62935000D01*
G75*
G02*
X187870000Y-62985000I0J-50000D01*
G01*
X187870000Y-64185000D01*
G75*
G02*
X187820000Y-64235000I-50000J0D01*
G01*
X187220000Y-64235000D01*
G75*
G02*
X187170000Y-64185000I0J50000D01*
G01*
G37*
G36*
G01*
X188070000Y-64185000D02*
X188070000Y-62985000D01*
G75*
G02*
X188120000Y-62935000I50000J0D01*
G01*
X188720000Y-62935000D01*
G75*
G02*
X188770000Y-62985000I0J-50000D01*
G01*
X188770000Y-64185000D01*
G75*
G02*
X188720000Y-64235000I-50000J0D01*
G01*
X188120000Y-64235000D01*
G75*
G02*
X188070000Y-64185000I0J50000D01*
G01*
G37*
G36*
G01*
X197230000Y-64185000D02*
X197230000Y-62985000D01*
G75*
G02*
X197280000Y-62935000I50000J0D01*
G01*
X197880000Y-62935000D01*
G75*
G02*
X197930000Y-62985000I0J-50000D01*
G01*
X197930000Y-64185000D01*
G75*
G02*
X197880000Y-64235000I-50000J0D01*
G01*
X197280000Y-64235000D01*
G75*
G02*
X197230000Y-64185000I0J50000D01*
G01*
G37*
G36*
G01*
X198130000Y-64185000D02*
X198130000Y-62985000D01*
G75*
G02*
X198180000Y-62935000I50000J0D01*
G01*
X198780000Y-62935000D01*
G75*
G02*
X198830000Y-62985000I0J-50000D01*
G01*
X198830000Y-64185000D01*
G75*
G02*
X198780000Y-64235000I-50000J0D01*
G01*
X198180000Y-64235000D01*
G75*
G02*
X198130000Y-64185000I0J50000D01*
G01*
G37*
D15*
X185380000Y-66125000D03*
X200620000Y-66125000D03*
D16*
X196400000Y-66125000D03*
X189600000Y-66125000D03*
G36*
G01*
X187170000Y-66725000D02*
X187170000Y-65525000D01*
G75*
G02*
X187220000Y-65475000I50000J0D01*
G01*
X187820000Y-65475000D01*
G75*
G02*
X187870000Y-65525000I0J-50000D01*
G01*
X187870000Y-66725000D01*
G75*
G02*
X187820000Y-66775000I-50000J0D01*
G01*
X187220000Y-66775000D01*
G75*
G02*
X187170000Y-66725000I0J50000D01*
G01*
G37*
G36*
G01*
X188070000Y-66725000D02*
X188070000Y-65525000D01*
G75*
G02*
X188120000Y-65475000I50000J0D01*
G01*
X188720000Y-65475000D01*
G75*
G02*
X188770000Y-65525000I0J-50000D01*
G01*
X188770000Y-66725000D01*
G75*
G02*
X188720000Y-66775000I-50000J0D01*
G01*
X188120000Y-66775000D01*
G75*
G02*
X188070000Y-66725000I0J50000D01*
G01*
G37*
G36*
G01*
X197230000Y-66725000D02*
X197230000Y-65525000D01*
G75*
G02*
X197280000Y-65475000I50000J0D01*
G01*
X197880000Y-65475000D01*
G75*
G02*
X197930000Y-65525000I0J-50000D01*
G01*
X197930000Y-66725000D01*
G75*
G02*
X197880000Y-66775000I-50000J0D01*
G01*
X197280000Y-66775000D01*
G75*
G02*
X197230000Y-66725000I0J50000D01*
G01*
G37*
G36*
G01*
X198130000Y-66725000D02*
X198130000Y-65525000D01*
G75*
G02*
X198180000Y-65475000I50000J0D01*
G01*
X198780000Y-65475000D01*
G75*
G02*
X198830000Y-65525000I0J-50000D01*
G01*
X198830000Y-66725000D01*
G75*
G02*
X198780000Y-66775000I-50000J0D01*
G01*
X198180000Y-66775000D01*
G75*
G02*
X198130000Y-66725000I0J50000D01*
G01*
G37*
D15*
X185380000Y-68665000D03*
X200620000Y-68665000D03*
D16*
X196400000Y-68665000D03*
X189600000Y-68665000D03*
G36*
G01*
X187170000Y-69265000D02*
X187170000Y-68065000D01*
G75*
G02*
X187220000Y-68015000I50000J0D01*
G01*
X187820000Y-68015000D01*
G75*
G02*
X187870000Y-68065000I0J-50000D01*
G01*
X187870000Y-69265000D01*
G75*
G02*
X187820000Y-69315000I-50000J0D01*
G01*
X187220000Y-69315000D01*
G75*
G02*
X187170000Y-69265000I0J50000D01*
G01*
G37*
G36*
G01*
X188070000Y-69265000D02*
X188070000Y-68065000D01*
G75*
G02*
X188120000Y-68015000I50000J0D01*
G01*
X188720000Y-68015000D01*
G75*
G02*
X188770000Y-68065000I0J-50000D01*
G01*
X188770000Y-69265000D01*
G75*
G02*
X188720000Y-69315000I-50000J0D01*
G01*
X188120000Y-69315000D01*
G75*
G02*
X188070000Y-69265000I0J50000D01*
G01*
G37*
G36*
G01*
X197230000Y-69265000D02*
X197230000Y-68065000D01*
G75*
G02*
X197280000Y-68015000I50000J0D01*
G01*
X197880000Y-68015000D01*
G75*
G02*
X197930000Y-68065000I0J-50000D01*
G01*
X197930000Y-69265000D01*
G75*
G02*
X197880000Y-69315000I-50000J0D01*
G01*
X197280000Y-69315000D01*
G75*
G02*
X197230000Y-69265000I0J50000D01*
G01*
G37*
G36*
G01*
X198130000Y-69265000D02*
X198130000Y-68065000D01*
G75*
G02*
X198180000Y-68015000I50000J0D01*
G01*
X198780000Y-68015000D01*
G75*
G02*
X198830000Y-68065000I0J-50000D01*
G01*
X198830000Y-69265000D01*
G75*
G02*
X198780000Y-69315000I-50000J0D01*
G01*
X198180000Y-69315000D01*
G75*
G02*
X198130000Y-69265000I0J50000D01*
G01*
G37*
D15*
X185380000Y-71205000D03*
X200620000Y-71205000D03*
D16*
X196400000Y-71205000D03*
X189600000Y-71205000D03*
G36*
G01*
X187170000Y-71805000D02*
X187170000Y-70605000D01*
G75*
G02*
X187220000Y-70555000I50000J0D01*
G01*
X187820000Y-70555000D01*
G75*
G02*
X187870000Y-70605000I0J-50000D01*
G01*
X187870000Y-71805000D01*
G75*
G02*
X187820000Y-71855000I-50000J0D01*
G01*
X187220000Y-71855000D01*
G75*
G02*
X187170000Y-71805000I0J50000D01*
G01*
G37*
G36*
G01*
X188070000Y-71805000D02*
X188070000Y-70605000D01*
G75*
G02*
X188120000Y-70555000I50000J0D01*
G01*
X188720000Y-70555000D01*
G75*
G02*
X188770000Y-70605000I0J-50000D01*
G01*
X188770000Y-71805000D01*
G75*
G02*
X188720000Y-71855000I-50000J0D01*
G01*
X188120000Y-71855000D01*
G75*
G02*
X188070000Y-71805000I0J50000D01*
G01*
G37*
G36*
G01*
X197230000Y-71805000D02*
X197230000Y-70605000D01*
G75*
G02*
X197280000Y-70555000I50000J0D01*
G01*
X197880000Y-70555000D01*
G75*
G02*
X197930000Y-70605000I0J-50000D01*
G01*
X197930000Y-71805000D01*
G75*
G02*
X197880000Y-71855000I-50000J0D01*
G01*
X197280000Y-71855000D01*
G75*
G02*
X197230000Y-71805000I0J50000D01*
G01*
G37*
G36*
G01*
X198130000Y-71805000D02*
X198130000Y-70605000D01*
G75*
G02*
X198180000Y-70555000I50000J0D01*
G01*
X198780000Y-70555000D01*
G75*
G02*
X198830000Y-70605000I0J-50000D01*
G01*
X198830000Y-71805000D01*
G75*
G02*
X198780000Y-71855000I-50000J0D01*
G01*
X198180000Y-71855000D01*
G75*
G02*
X198130000Y-71805000I0J50000D01*
G01*
G37*
D15*
X185380000Y-73745000D03*
X200620000Y-73745000D03*
D16*
X196400000Y-73745000D03*
X189600000Y-73745000D03*
G36*
G01*
X187170000Y-74345000D02*
X187170000Y-73145000D01*
G75*
G02*
X187220000Y-73095000I50000J0D01*
G01*
X187820000Y-73095000D01*
G75*
G02*
X187870000Y-73145000I0J-50000D01*
G01*
X187870000Y-74345000D01*
G75*
G02*
X187820000Y-74395000I-50000J0D01*
G01*
X187220000Y-74395000D01*
G75*
G02*
X187170000Y-74345000I0J50000D01*
G01*
G37*
G36*
G01*
X188070000Y-74345000D02*
X188070000Y-73145000D01*
G75*
G02*
X188120000Y-73095000I50000J0D01*
G01*
X188720000Y-73095000D01*
G75*
G02*
X188770000Y-73145000I0J-50000D01*
G01*
X188770000Y-74345000D01*
G75*
G02*
X188720000Y-74395000I-50000J0D01*
G01*
X188120000Y-74395000D01*
G75*
G02*
X188070000Y-74345000I0J50000D01*
G01*
G37*
G36*
G01*
X197230000Y-74345000D02*
X197230000Y-73145000D01*
G75*
G02*
X197280000Y-73095000I50000J0D01*
G01*
X197880000Y-73095000D01*
G75*
G02*
X197930000Y-73145000I0J-50000D01*
G01*
X197930000Y-74345000D01*
G75*
G02*
X197880000Y-74395000I-50000J0D01*
G01*
X197280000Y-74395000D01*
G75*
G02*
X197230000Y-74345000I0J50000D01*
G01*
G37*
G36*
G01*
X198130000Y-74345000D02*
X198130000Y-73145000D01*
G75*
G02*
X198180000Y-73095000I50000J0D01*
G01*
X198780000Y-73095000D01*
G75*
G02*
X198830000Y-73145000I0J-50000D01*
G01*
X198830000Y-74345000D01*
G75*
G02*
X198780000Y-74395000I-50000J0D01*
G01*
X198180000Y-74395000D01*
G75*
G02*
X198130000Y-74345000I0J50000D01*
G01*
G37*
D15*
X185380000Y-76285000D03*
X200620000Y-76285000D03*
D16*
X196400000Y-76285000D03*
X189600000Y-76285000D03*
G36*
G01*
X187170000Y-76885000D02*
X187170000Y-75685000D01*
G75*
G02*
X187220000Y-75635000I50000J0D01*
G01*
X187820000Y-75635000D01*
G75*
G02*
X187870000Y-75685000I0J-50000D01*
G01*
X187870000Y-76885000D01*
G75*
G02*
X187820000Y-76935000I-50000J0D01*
G01*
X187220000Y-76935000D01*
G75*
G02*
X187170000Y-76885000I0J50000D01*
G01*
G37*
G36*
G01*
X188070000Y-76885000D02*
X188070000Y-75685000D01*
G75*
G02*
X188120000Y-75635000I50000J0D01*
G01*
X188720000Y-75635000D01*
G75*
G02*
X188770000Y-75685000I0J-50000D01*
G01*
X188770000Y-76885000D01*
G75*
G02*
X188720000Y-76935000I-50000J0D01*
G01*
X188120000Y-76935000D01*
G75*
G02*
X188070000Y-76885000I0J50000D01*
G01*
G37*
G36*
G01*
X197230000Y-76885000D02*
X197230000Y-75685000D01*
G75*
G02*
X197280000Y-75635000I50000J0D01*
G01*
X197880000Y-75635000D01*
G75*
G02*
X197930000Y-75685000I0J-50000D01*
G01*
X197930000Y-76885000D01*
G75*
G02*
X197880000Y-76935000I-50000J0D01*
G01*
X197280000Y-76935000D01*
G75*
G02*
X197230000Y-76885000I0J50000D01*
G01*
G37*
G36*
G01*
X198130000Y-76885000D02*
X198130000Y-75685000D01*
G75*
G02*
X198180000Y-75635000I50000J0D01*
G01*
X198780000Y-75635000D01*
G75*
G02*
X198830000Y-75685000I0J-50000D01*
G01*
X198830000Y-76885000D01*
G75*
G02*
X198780000Y-76935000I-50000J0D01*
G01*
X198180000Y-76935000D01*
G75*
G02*
X198130000Y-76885000I0J50000D01*
G01*
G37*
D15*
X185380000Y-78825000D03*
X200620000Y-78825000D03*
D16*
X196400000Y-78825000D03*
X189600000Y-78825000D03*
G36*
G01*
X187170000Y-79425000D02*
X187170000Y-78225000D01*
G75*
G02*
X187220000Y-78175000I50000J0D01*
G01*
X187820000Y-78175000D01*
G75*
G02*
X187870000Y-78225000I0J-50000D01*
G01*
X187870000Y-79425000D01*
G75*
G02*
X187820000Y-79475000I-50000J0D01*
G01*
X187220000Y-79475000D01*
G75*
G02*
X187170000Y-79425000I0J50000D01*
G01*
G37*
G36*
G01*
X188070000Y-79425000D02*
X188070000Y-78225000D01*
G75*
G02*
X188120000Y-78175000I50000J0D01*
G01*
X188720000Y-78175000D01*
G75*
G02*
X188770000Y-78225000I0J-50000D01*
G01*
X188770000Y-79425000D01*
G75*
G02*
X188720000Y-79475000I-50000J0D01*
G01*
X188120000Y-79475000D01*
G75*
G02*
X188070000Y-79425000I0J50000D01*
G01*
G37*
G36*
G01*
X197230000Y-79425000D02*
X197230000Y-78225000D01*
G75*
G02*
X197280000Y-78175000I50000J0D01*
G01*
X197880000Y-78175000D01*
G75*
G02*
X197930000Y-78225000I0J-50000D01*
G01*
X197930000Y-79425000D01*
G75*
G02*
X197880000Y-79475000I-50000J0D01*
G01*
X197280000Y-79475000D01*
G75*
G02*
X197230000Y-79425000I0J50000D01*
G01*
G37*
G36*
G01*
X198130000Y-79425000D02*
X198130000Y-78225000D01*
G75*
G02*
X198180000Y-78175000I50000J0D01*
G01*
X198780000Y-78175000D01*
G75*
G02*
X198830000Y-78225000I0J-50000D01*
G01*
X198830000Y-79425000D01*
G75*
G02*
X198780000Y-79475000I-50000J0D01*
G01*
X198180000Y-79475000D01*
G75*
G02*
X198130000Y-79425000I0J50000D01*
G01*
G37*
D15*
X185380000Y-81365000D03*
X200620000Y-81365000D03*
D16*
X196400000Y-81365000D03*
X189600000Y-81365000D03*
G36*
G01*
X187170000Y-81965000D02*
X187170000Y-80765000D01*
G75*
G02*
X187220000Y-80715000I50000J0D01*
G01*
X187820000Y-80715000D01*
G75*
G02*
X187870000Y-80765000I0J-50000D01*
G01*
X187870000Y-81965000D01*
G75*
G02*
X187820000Y-82015000I-50000J0D01*
G01*
X187220000Y-82015000D01*
G75*
G02*
X187170000Y-81965000I0J50000D01*
G01*
G37*
G36*
G01*
X188070000Y-81965000D02*
X188070000Y-80765000D01*
G75*
G02*
X188120000Y-80715000I50000J0D01*
G01*
X188720000Y-80715000D01*
G75*
G02*
X188770000Y-80765000I0J-50000D01*
G01*
X188770000Y-81965000D01*
G75*
G02*
X188720000Y-82015000I-50000J0D01*
G01*
X188120000Y-82015000D01*
G75*
G02*
X188070000Y-81965000I0J50000D01*
G01*
G37*
G36*
G01*
X197230000Y-81965000D02*
X197230000Y-80765000D01*
G75*
G02*
X197280000Y-80715000I50000J0D01*
G01*
X197880000Y-80715000D01*
G75*
G02*
X197930000Y-80765000I0J-50000D01*
G01*
X197930000Y-81965000D01*
G75*
G02*
X197880000Y-82015000I-50000J0D01*
G01*
X197280000Y-82015000D01*
G75*
G02*
X197230000Y-81965000I0J50000D01*
G01*
G37*
G36*
G01*
X198130000Y-81965000D02*
X198130000Y-80765000D01*
G75*
G02*
X198180000Y-80715000I50000J0D01*
G01*
X198780000Y-80715000D01*
G75*
G02*
X198830000Y-80765000I0J-50000D01*
G01*
X198830000Y-81965000D01*
G75*
G02*
X198780000Y-82015000I-50000J0D01*
G01*
X198180000Y-82015000D01*
G75*
G02*
X198130000Y-81965000I0J50000D01*
G01*
G37*
D15*
X185380000Y-83905000D03*
X200620000Y-83905000D03*
D16*
X196400000Y-83905000D03*
X189600000Y-83905000D03*
G36*
G01*
X187170000Y-84505000D02*
X187170000Y-83305000D01*
G75*
G02*
X187220000Y-83255000I50000J0D01*
G01*
X187820000Y-83255000D01*
G75*
G02*
X187870000Y-83305000I0J-50000D01*
G01*
X187870000Y-84505000D01*
G75*
G02*
X187820000Y-84555000I-50000J0D01*
G01*
X187220000Y-84555000D01*
G75*
G02*
X187170000Y-84505000I0J50000D01*
G01*
G37*
G36*
G01*
X188070000Y-84505000D02*
X188070000Y-83305000D01*
G75*
G02*
X188120000Y-83255000I50000J0D01*
G01*
X188720000Y-83255000D01*
G75*
G02*
X188770000Y-83305000I0J-50000D01*
G01*
X188770000Y-84505000D01*
G75*
G02*
X188720000Y-84555000I-50000J0D01*
G01*
X188120000Y-84555000D01*
G75*
G02*
X188070000Y-84505000I0J50000D01*
G01*
G37*
G36*
G01*
X197230000Y-84505000D02*
X197230000Y-83305000D01*
G75*
G02*
X197280000Y-83255000I50000J0D01*
G01*
X197880000Y-83255000D01*
G75*
G02*
X197930000Y-83305000I0J-50000D01*
G01*
X197930000Y-84505000D01*
G75*
G02*
X197880000Y-84555000I-50000J0D01*
G01*
X197280000Y-84555000D01*
G75*
G02*
X197230000Y-84505000I0J50000D01*
G01*
G37*
G36*
G01*
X198130000Y-84505000D02*
X198130000Y-83305000D01*
G75*
G02*
X198180000Y-83255000I50000J0D01*
G01*
X198780000Y-83255000D01*
G75*
G02*
X198830000Y-83305000I0J-50000D01*
G01*
X198830000Y-84505000D01*
G75*
G02*
X198780000Y-84555000I-50000J0D01*
G01*
X198180000Y-84555000D01*
G75*
G02*
X198130000Y-84505000I0J50000D01*
G01*
G37*
D15*
X185380000Y-86445000D03*
X200620000Y-86445000D03*
D16*
X196400000Y-86445000D03*
X189600000Y-86445000D03*
G36*
G01*
X187170000Y-87045000D02*
X187170000Y-85845000D01*
G75*
G02*
X187220000Y-85795000I50000J0D01*
G01*
X187820000Y-85795000D01*
G75*
G02*
X187870000Y-85845000I0J-50000D01*
G01*
X187870000Y-87045000D01*
G75*
G02*
X187820000Y-87095000I-50000J0D01*
G01*
X187220000Y-87095000D01*
G75*
G02*
X187170000Y-87045000I0J50000D01*
G01*
G37*
G36*
G01*
X188070000Y-87045000D02*
X188070000Y-85845000D01*
G75*
G02*
X188120000Y-85795000I50000J0D01*
G01*
X188720000Y-85795000D01*
G75*
G02*
X188770000Y-85845000I0J-50000D01*
G01*
X188770000Y-87045000D01*
G75*
G02*
X188720000Y-87095000I-50000J0D01*
G01*
X188120000Y-87095000D01*
G75*
G02*
X188070000Y-87045000I0J50000D01*
G01*
G37*
G36*
G01*
X197230000Y-87045000D02*
X197230000Y-85845000D01*
G75*
G02*
X197280000Y-85795000I50000J0D01*
G01*
X197880000Y-85795000D01*
G75*
G02*
X197930000Y-85845000I0J-50000D01*
G01*
X197930000Y-87045000D01*
G75*
G02*
X197880000Y-87095000I-50000J0D01*
G01*
X197280000Y-87095000D01*
G75*
G02*
X197230000Y-87045000I0J50000D01*
G01*
G37*
G36*
G01*
X198130000Y-87045000D02*
X198130000Y-85845000D01*
G75*
G02*
X198180000Y-85795000I50000J0D01*
G01*
X198780000Y-85795000D01*
G75*
G02*
X198830000Y-85845000I0J-50000D01*
G01*
X198830000Y-87045000D01*
G75*
G02*
X198780000Y-87095000I-50000J0D01*
G01*
X198180000Y-87095000D01*
G75*
G02*
X198130000Y-87045000I0J50000D01*
G01*
G37*
D15*
X185380000Y-88985000D03*
X200620000Y-88985000D03*
D16*
X196400000Y-88985000D03*
X189600000Y-88985000D03*
G36*
G01*
X187170000Y-89585000D02*
X187170000Y-88385000D01*
G75*
G02*
X187220000Y-88335000I50000J0D01*
G01*
X187820000Y-88335000D01*
G75*
G02*
X187870000Y-88385000I0J-50000D01*
G01*
X187870000Y-89585000D01*
G75*
G02*
X187820000Y-89635000I-50000J0D01*
G01*
X187220000Y-89635000D01*
G75*
G02*
X187170000Y-89585000I0J50000D01*
G01*
G37*
G36*
G01*
X188070000Y-89585000D02*
X188070000Y-88385000D01*
G75*
G02*
X188120000Y-88335000I50000J0D01*
G01*
X188720000Y-88335000D01*
G75*
G02*
X188770000Y-88385000I0J-50000D01*
G01*
X188770000Y-89585000D01*
G75*
G02*
X188720000Y-89635000I-50000J0D01*
G01*
X188120000Y-89635000D01*
G75*
G02*
X188070000Y-89585000I0J50000D01*
G01*
G37*
G36*
G01*
X197230000Y-89585000D02*
X197230000Y-88385000D01*
G75*
G02*
X197280000Y-88335000I50000J0D01*
G01*
X197880000Y-88335000D01*
G75*
G02*
X197930000Y-88385000I0J-50000D01*
G01*
X197930000Y-89585000D01*
G75*
G02*
X197880000Y-89635000I-50000J0D01*
G01*
X197280000Y-89635000D01*
G75*
G02*
X197230000Y-89585000I0J50000D01*
G01*
G37*
G36*
G01*
X198130000Y-89585000D02*
X198130000Y-88385000D01*
G75*
G02*
X198180000Y-88335000I50000J0D01*
G01*
X198780000Y-88335000D01*
G75*
G02*
X198830000Y-88385000I0J-50000D01*
G01*
X198830000Y-89585000D01*
G75*
G02*
X198780000Y-89635000I-50000J0D01*
G01*
X198180000Y-89635000D01*
G75*
G02*
X198130000Y-89585000I0J50000D01*
G01*
G37*
G36*
G01*
X197480000Y-95475000D02*
X198680000Y-95475000D01*
G75*
G02*
X198730000Y-95525000I0J-50000D01*
G01*
X198730000Y-96125000D01*
G75*
G02*
X198680000Y-96175000I-50000J0D01*
G01*
X197480000Y-96175000D01*
G75*
G02*
X197430000Y-96125000I0J50000D01*
G01*
X197430000Y-95525000D01*
G75*
G02*
X197480000Y-95475000I50000J0D01*
G01*
G37*
G36*
G01*
X194940000Y-95475000D02*
X196140000Y-95475000D01*
G75*
G02*
X196190000Y-95525000I0J-50000D01*
G01*
X196190000Y-96125000D01*
G75*
G02*
X196140000Y-96175000I-50000J0D01*
G01*
X194940000Y-96175000D01*
G75*
G02*
X194890000Y-96125000I0J50000D01*
G01*
X194890000Y-95525000D01*
G75*
G02*
X194940000Y-95475000I50000J0D01*
G01*
G37*
G36*
G01*
X189860000Y-95475000D02*
X191060000Y-95475000D01*
G75*
G02*
X191110000Y-95525000I0J-50000D01*
G01*
X191110000Y-96125000D01*
G75*
G02*
X191060000Y-96175000I-50000J0D01*
G01*
X189860000Y-96175000D01*
G75*
G02*
X189810000Y-96125000I0J50000D01*
G01*
X189810000Y-95525000D01*
G75*
G02*
X189860000Y-95475000I50000J0D01*
G01*
G37*
G36*
G01*
X187320000Y-95475000D02*
X188520000Y-95475000D01*
G75*
G02*
X188570000Y-95525000I0J-50000D01*
G01*
X188570000Y-96125000D01*
G75*
G02*
X188520000Y-96175000I-50000J0D01*
G01*
X187320000Y-96175000D01*
G75*
G02*
X187270000Y-96125000I0J50000D01*
G01*
X187270000Y-95525000D01*
G75*
G02*
X187320000Y-95475000I50000J0D01*
G01*
G37*
G36*
G01*
X197480000Y-96375000D02*
X198680000Y-96375000D01*
G75*
G02*
X198730000Y-96425000I0J-50000D01*
G01*
X198730000Y-97025000D01*
G75*
G02*
X198680000Y-97075000I-50000J0D01*
G01*
X197480000Y-97075000D01*
G75*
G02*
X197430000Y-97025000I0J50000D01*
G01*
X197430000Y-96425000D01*
G75*
G02*
X197480000Y-96375000I50000J0D01*
G01*
G37*
G36*
G01*
X194940000Y-96375000D02*
X196140000Y-96375000D01*
G75*
G02*
X196190000Y-96425000I0J-50000D01*
G01*
X196190000Y-97025000D01*
G75*
G02*
X196140000Y-97075000I-50000J0D01*
G01*
X194940000Y-97075000D01*
G75*
G02*
X194890000Y-97025000I0J50000D01*
G01*
X194890000Y-96425000D01*
G75*
G02*
X194940000Y-96375000I50000J0D01*
G01*
G37*
G36*
G01*
X189860000Y-96375000D02*
X191060000Y-96375000D01*
G75*
G02*
X191110000Y-96425000I0J-50000D01*
G01*
X191110000Y-97025000D01*
G75*
G02*
X191060000Y-97075000I-50000J0D01*
G01*
X189860000Y-97075000D01*
G75*
G02*
X189810000Y-97025000I0J50000D01*
G01*
X189810000Y-96425000D01*
G75*
G02*
X189860000Y-96375000I50000J0D01*
G01*
G37*
G36*
G01*
X187320000Y-96375000D02*
X188520000Y-96375000D01*
G75*
G02*
X188570000Y-96425000I0J-50000D01*
G01*
X188570000Y-97025000D01*
G75*
G02*
X188520000Y-97075000I-50000J0D01*
G01*
X187320000Y-97075000D01*
G75*
G02*
X187270000Y-97025000I0J50000D01*
G01*
X187270000Y-96425000D01*
G75*
G02*
X187320000Y-96375000I50000J0D01*
G01*
G37*
D17*
X187920000Y-94075000D03*
X190460000Y-94075000D03*
X193000000Y-94075000D03*
X195540000Y-94075000D03*
D15*
X198080000Y-94075000D03*
G36*
G01*
X200715000Y-103300000D02*
X201515000Y-103300000D01*
G75*
G02*
X201565000Y-103350000I0J-50000D01*
G01*
X201565000Y-104350000D01*
G75*
G02*
X201515000Y-104400000I-50000J0D01*
G01*
X200715000Y-104400000D01*
G75*
G02*
X200665000Y-104350000I0J50000D01*
G01*
X200665000Y-103350000D01*
G75*
G02*
X200715000Y-103300000I50000J0D01*
G01*
G37*
G36*
G01*
X202925000Y-103300000D02*
X203725000Y-103300000D01*
G75*
G02*
X203775000Y-103350000I0J-50000D01*
G01*
X203775000Y-104350000D01*
G75*
G02*
X203725000Y-104400000I-50000J0D01*
G01*
X202925000Y-104400000D01*
G75*
G02*
X202875000Y-104350000I0J50000D01*
G01*
X202875000Y-103350000D01*
G75*
G02*
X202925000Y-103300000I50000J0D01*
G01*
G37*
G36*
G01*
X200715000Y-110600000D02*
X201515000Y-110600000D01*
G75*
G02*
X201565000Y-110650000I0J-50000D01*
G01*
X201565000Y-111650000D01*
G75*
G02*
X201515000Y-111700000I-50000J0D01*
G01*
X200715000Y-111700000D01*
G75*
G02*
X200665000Y-111650000I0J50000D01*
G01*
X200665000Y-110650000D01*
G75*
G02*
X200715000Y-110600000I50000J0D01*
G01*
G37*
G36*
G01*
X202925000Y-110600000D02*
X203725000Y-110600000D01*
G75*
G02*
X203775000Y-110650000I0J-50000D01*
G01*
X203775000Y-111650000D01*
G75*
G02*
X203725000Y-111700000I-50000J0D01*
G01*
X202925000Y-111700000D01*
G75*
G02*
X202875000Y-111650000I0J50000D01*
G01*
X202875000Y-110650000D01*
G75*
G02*
X202925000Y-110600000I50000J0D01*
G01*
G37*
G36*
G01*
X199715000Y-104850000D02*
X201215000Y-104850000D01*
G75*
G02*
X201265000Y-104900000I0J-50000D01*
G01*
X201265000Y-105600000D01*
G75*
G02*
X201215000Y-105650000I-50000J0D01*
G01*
X199715000Y-105650000D01*
G75*
G02*
X199665000Y-105600000I0J50000D01*
G01*
X199665000Y-104900000D01*
G75*
G02*
X199715000Y-104850000I50000J0D01*
G01*
G37*
G36*
G01*
X199715000Y-107850000D02*
X201215000Y-107850000D01*
G75*
G02*
X201265000Y-107900000I0J-50000D01*
G01*
X201265000Y-108600000D01*
G75*
G02*
X201215000Y-108650000I-50000J0D01*
G01*
X199715000Y-108650000D01*
G75*
G02*
X199665000Y-108600000I0J50000D01*
G01*
X199665000Y-107900000D01*
G75*
G02*
X199715000Y-107850000I50000J0D01*
G01*
G37*
G36*
G01*
X199715000Y-109350000D02*
X201215000Y-109350000D01*
G75*
G02*
X201265000Y-109400000I0J-50000D01*
G01*
X201265000Y-110100000D01*
G75*
G02*
X201215000Y-110150000I-50000J0D01*
G01*
X199715000Y-110150000D01*
G75*
G02*
X199665000Y-110100000I0J50000D01*
G01*
X199665000Y-109400000D01*
G75*
G02*
X199715000Y-109350000I50000J0D01*
G01*
G37*
D18*
X202225000Y-106000000D03*
X202225000Y-109000000D03*
D19*
X201900000Y-99750000D03*
X201900000Y-93250000D03*
D20*
X197000000Y-102625000D03*
X197000000Y-104625000D03*
G36*
X194764645Y-102589645D02*
G01*
X195364645Y-101989645D01*
X195400000Y-101975000D01*
X195600000Y-101975000D01*
X195635355Y-101989645D01*
X195650000Y-102025000D01*
X195650000Y-103225000D01*
X195635355Y-103260355D01*
X195600000Y-103275000D01*
X195400000Y-103275000D01*
X195364645Y-103260355D01*
X194764645Y-102660355D01*
X194750000Y-102625000D01*
X194764645Y-102589645D01*
G37*
G36*
X194764645Y-104589645D02*
G01*
X195364645Y-103989645D01*
X195400000Y-103975000D01*
X195600000Y-103975000D01*
X195635355Y-103989645D01*
X195650000Y-104025000D01*
X195650000Y-105225000D01*
X195635355Y-105260355D01*
X195600000Y-105275000D01*
X195400000Y-105275000D01*
X195364645Y-105260355D01*
X194764645Y-104660355D01*
X194750000Y-104625000D01*
X194764645Y-104589645D01*
G37*
G36*
X193898645Y-103989645D02*
G01*
X193934000Y-103975000D01*
X195184000Y-103975000D01*
X195219355Y-103989645D01*
X195234000Y-104025000D01*
X195219355Y-104060355D01*
X194654710Y-104625000D01*
X195219355Y-105189645D01*
X195234000Y-105225000D01*
X195219355Y-105260355D01*
X195184000Y-105275000D01*
X193934000Y-105275000D01*
X193898645Y-105260355D01*
X193884000Y-105225000D01*
X193884000Y-104025000D01*
X193898645Y-103989645D01*
G37*
G36*
X193898645Y-101989645D02*
G01*
X193934000Y-101975000D01*
X195184000Y-101975000D01*
X195219355Y-101989645D01*
X195234000Y-102025000D01*
X195219355Y-102060355D01*
X194654710Y-102625000D01*
X195219355Y-103189645D01*
X195234000Y-103225000D01*
X195219355Y-103260355D01*
X195184000Y-103275000D01*
X193934000Y-103275000D01*
X193898645Y-103260355D01*
X193884000Y-103225000D01*
X193884000Y-102025000D01*
X193898645Y-101989645D01*
G37*
M02*
