M48
; DRILL file {KiCad 8.0.6+1} date 2024-11-30T16:17:39+0000
; FORMAT={-:-/ absolute / metric / decimal}
; #@! TF.CreationDate,2024-11-30T16:17:39+00:00
; #@! TF.GenerationSoftware,Kicad,Pcbnew,8.0.6+1
; #@! TF.FileFunction,Plated,1,2,PTH
FMAT,2
METRIC
; #@! TA.AperFunction,Plated,PTH,ComponentDrill
T1C0.400
; #@! TA.AperFunction,Plated,PTH,ComponentDrill
T2C0.750
; #@! TA.AperFunction,Plated,PTH,ComponentDrill
T3C1.000
; #@! TA.AperFunction,Plated,PTH,ComponentDrill
T4C1.300
%
G90
G05
T1
X189.6Y-63.17
X189.6Y-65.71
X189.6Y-68.25
X189.6Y-70.79
X189.6Y-73.33
X189.6Y-75.87
X189.6Y-78.41
X189.6Y-80.95
X189.6Y-83.49
X189.6Y-86.03
X189.6Y-88.57
X189.6Y-91.11
X196.4Y-63.17
X196.4Y-65.71
X196.4Y-68.25
X196.4Y-70.79
X196.4Y-73.33
X196.4Y-75.87
X196.4Y-78.41
X196.4Y-80.95
X196.4Y-83.49
X196.4Y-86.03
X196.4Y-88.57
X196.4Y-91.11
T2
X193.0Y-104.75
X193.0Y-106.75
T3
X185.38Y-63.17
X185.38Y-65.71
X185.38Y-68.25
X185.38Y-70.79
X185.38Y-73.33
X185.38Y-75.87
X185.38Y-78.41
X185.38Y-80.95
X185.38Y-83.49
X185.38Y-86.03
X185.38Y-88.57
X185.38Y-91.11
X189.19Y-98.2
X191.73Y-98.2
X194.27Y-98.2
X196.81Y-98.2
X200.62Y-63.17
X200.62Y-65.71
X200.62Y-68.25
X200.62Y-70.79
X200.62Y-73.33
X200.62Y-75.87
X200.62Y-78.41
X200.62Y-80.95
X200.62Y-83.49
X200.62Y-86.03
X200.62Y-88.57
X200.62Y-91.11
T4
X201.9Y-106.375
X201.9Y-112.875
M30
