M48
; DRILL file {KiCad 8.0.6+1} date 2024-12-31T16:22:16+0000
; FORMAT={-:-/ absolute / metric / decimal}
; #@! TF.CreationDate,2024-12-31T16:22:16+00:00
; #@! TF.GenerationSoftware,Kicad,Pcbnew,8.0.6+1
; #@! TF.FileFunction,Plated,1,2,PTH
FMAT,2
METRIC
; #@! TA.AperFunction,Plated,PTH,ComponentDrill
T1C0.400
; #@! TA.AperFunction,Plated,PTH,ComponentDrill
T2C0.750
; #@! TA.AperFunction,Plated,PTH,ComponentDrill
T3C1.000
; #@! TA.AperFunction,Plated,PTH,ComponentDrill
T4C1.300
%
G90
G05
T1
X189.6Y-61.045
X189.6Y-63.585
X189.6Y-66.125
X189.6Y-68.665
X189.6Y-71.205
X189.6Y-73.745
X189.6Y-76.285
X189.6Y-78.825
X189.6Y-81.365
X189.6Y-83.905
X189.6Y-86.445
X189.6Y-88.985
X196.4Y-61.045
X196.4Y-63.585
X196.4Y-66.125
X196.4Y-68.665
X196.4Y-71.205
X196.4Y-73.745
X196.4Y-76.285
X196.4Y-78.825
X196.4Y-81.365
X196.4Y-83.905
X196.4Y-86.445
X196.4Y-88.985
T2
X197.0Y-102.625
X197.0Y-104.625
T3
X185.38Y-61.045
X185.38Y-63.585
X185.38Y-66.125
X185.38Y-68.665
X185.38Y-71.205
X185.38Y-73.745
X185.38Y-76.285
X185.38Y-78.825
X185.38Y-81.365
X185.38Y-83.905
X185.38Y-86.445
X185.38Y-88.985
X187.92Y-94.075
X190.46Y-94.075
X193.0Y-94.075
X195.54Y-94.075
X198.08Y-94.075
X200.62Y-61.045
X200.62Y-63.585
X200.62Y-66.125
X200.62Y-68.665
X200.62Y-71.205
X200.62Y-73.745
X200.62Y-76.285
X200.62Y-78.825
X200.62Y-81.365
X200.62Y-83.905
X200.62Y-86.445
X200.62Y-88.985
T4
X201.9Y-93.25
X201.9Y-99.75
M30
