G04 #@! TF.GenerationSoftware,KiCad,Pcbnew,8.0.6+1*
G04 #@! TF.CreationDate,2024-12-31T16:22:16+00:00*
G04 #@! TF.ProjectId,corney_island_wireless,636f726e-6579-45f6-9973-6c616e645f77,0.2*
G04 #@! TF.SameCoordinates,Original*
G04 #@! TF.FileFunction,Profile,NP*
%FSLAX46Y46*%
G04 Gerber Fmt 4.6, Leading zero omitted, Abs format (unit mm)*
G04 Created by KiCad (PCBNEW 8.0.6+1) date 2024-12-31 16:22:16*
%MOMM*%
%LPD*%
G01*
G04 APERTURE LIST*
G04 #@! TA.AperFunction,Profile*
%ADD10C,0.150000*%
G04 #@! TD*
G04 APERTURE END LIST*
D10*
X91000000Y-109500000D02*
X125918976Y-109500000D01*
X90000000Y-108500000D02*
X90000000Y-57500000D01*
X91000000Y-109500000D02*
G75*
G02*
X90000000Y-108500000I0J1000000D01*
G01*
X107000000Y-56500000D02*
X91000000Y-56500000D01*
X90000000Y-57500000D02*
G75*
G02*
X91000000Y-56500000I1000000J0D01*
G01*
X125000000Y-45875000D02*
X109000000Y-45875000D01*
X108000000Y-46875000D02*
G75*
G02*
X109000000Y-45875000I1000000J0D01*
G01*
X108000000Y-46875000D02*
X108000000Y-55500000D01*
X146000000Y-49125000D02*
X146000000Y-44750000D01*
X145000000Y-43750000D02*
G75*
G02*
X146000000Y-44750000I0J-1000000D01*
G01*
X145000000Y-43750000D02*
X127000000Y-43750000D01*
X126000000Y-44750000D02*
G75*
G02*
X127000000Y-43750000I1000000J0D01*
G01*
X126000000Y-44750000D02*
X126000000Y-44875000D01*
X164000000Y-51250000D02*
X164000000Y-51125000D01*
X163000000Y-50125000D02*
G75*
G02*
X164000000Y-51125000I0J-1000000D01*
G01*
X163000000Y-50125000D02*
X147000000Y-50125000D01*
X182000000Y-56000000D02*
X182000000Y-53250000D01*
X181000000Y-52250000D02*
G75*
G02*
X182000000Y-53250000I0J-1000000D01*
G01*
X181000000Y-52250000D02*
X165000000Y-52250000D01*
X193124811Y-139010244D02*
X203866025Y-120405915D01*
X191999967Y-139476169D02*
X140695574Y-125729199D01*
X140199360Y-125418960D02*
X126674009Y-109844313D01*
X193124811Y-139010244D02*
G75*
G02*
X191999976Y-139476134I-866011J500044D01*
G01*
X140695574Y-125729199D02*
G75*
G02*
X140199369Y-125418952I258826J965899D01*
G01*
X125918976Y-109500000D02*
G75*
G02*
X126674023Y-109844301I24J-1000000D01*
G01*
X183000000Y-57000000D02*
X203000000Y-57000000D01*
X204000000Y-119905915D02*
X204000000Y-58000000D01*
X204000000Y-119905915D02*
G75*
G02*
X203866019Y-120405911I-1000000J15D01*
G01*
X203000000Y-57000000D02*
G75*
G02*
X204000000Y-58000000I0J-1000000D01*
G01*
X183000000Y-57000000D02*
G75*
G02*
X182000000Y-56000000I0J1000000D01*
G01*
X165000000Y-52250000D02*
G75*
G02*
X164000000Y-51250000I0J1000000D01*
G01*
X147000000Y-50125000D02*
G75*
G02*
X146000000Y-49125000I0J1000000D01*
G01*
X126000000Y-44875000D02*
G75*
G02*
X125000000Y-45875000I-1000000J0D01*
G01*
X108000000Y-55500000D02*
G75*
G02*
X107000000Y-56500000I-1000000J0D01*
G01*
M02*
