M48
; DRILL file {KiCad 8.0.6+1} date 2024-12-31T16:22:16+0000
; FORMAT={-:-/ absolute / metric / decimal}
; #@! TF.CreationDate,2024-12-31T16:22:16+00:00
; #@! TF.GenerationSoftware,Kicad,Pcbnew,8.0.6+1
; #@! TF.FileFunction,NonPlated,1,2,NPTH
FMAT,2
METRIC
; #@! TA.AperFunction,NonPlated,NPTH,ComponentDrill
T1C0.900
; #@! TA.AperFunction,NonPlated,NPTH,ComponentDrill
T2C1.900
; #@! TA.AperFunction,NonPlated,NPTH,ComponentDrill
T3C2.200
; #@! TA.AperFunction,NonPlated,NPTH,ComponentDrill
T4C3.000
; #@! TA.AperFunction,NonPlated,NPTH,ComponentDrill
T5C3.400
; #@! TA.AperFunction,NonPlated,NPTH,ComponentDrill
T6C4.300
%
G90
G05
T1
X202.225Y-106.0
X202.225Y-109.0
T2
X94.5Y-66.0
X94.5Y-66.0
X94.5Y-83.0
X94.5Y-83.0
X94.5Y-100.0
X94.5Y-100.0
X105.5Y-66.0
X105.5Y-66.0
X105.5Y-83.0
X105.5Y-83.0
X105.5Y-100.0
X105.5Y-100.0
X112.5Y-55.375
X112.5Y-55.375
X112.5Y-72.375
X112.5Y-72.375
X112.5Y-89.375
X112.5Y-89.375
X123.5Y-55.375
X123.5Y-55.375
X123.5Y-72.375
X123.5Y-72.375
X123.5Y-89.375
X123.5Y-89.375
X130.5Y-53.25
X130.5Y-53.25
X130.5Y-70.25
X130.5Y-70.25
X130.5Y-87.25
X130.5Y-87.25
X141.5Y-53.25
X141.5Y-53.25
X141.5Y-70.25
X141.5Y-70.25
X141.5Y-87.25
X141.5Y-87.25
X144.9Y-116.15
X144.9Y-116.15
X148.5Y-59.625
X148.5Y-59.625
X148.5Y-76.625
X148.5Y-76.625
X148.5Y-93.625
X148.5Y-93.625
X155.9Y-116.15
X155.9Y-116.15
X159.5Y-59.625
X159.5Y-59.625
X159.5Y-76.625
X159.5Y-76.625
X159.5Y-93.625
X159.5Y-93.625
X164.981Y-117.345
X164.981Y-117.345
X166.5Y-61.75
X166.5Y-61.75
X166.5Y-78.75
X166.5Y-78.75
X166.5Y-95.75
X166.5Y-95.75
X175.606Y-120.193
X175.606Y-120.193
X177.5Y-61.75
X177.5Y-61.75
X177.5Y-78.75
X177.5Y-78.75
X177.5Y-95.75
X177.5Y-95.75
X184.068Y-123.698
X184.068Y-123.698
X193.594Y-129.198
X193.594Y-129.198
T3
X185.0Y-105.575
X201.0Y-114.475
T4
X95.0Y-62.25
X95.0Y-79.25
X95.0Y-96.25
X100.0Y-60.05
X100.0Y-60.05
X100.0Y-77.05
X100.0Y-77.05
X100.0Y-94.05
X100.0Y-94.05
X105.0Y-62.25
X105.0Y-79.25
X105.0Y-96.25
X113.0Y-51.625
X113.0Y-68.625
X113.0Y-85.625
X118.0Y-49.425
X118.0Y-49.425
X118.0Y-66.425
X118.0Y-66.425
X118.0Y-83.425
X118.0Y-83.425
X123.0Y-51.625
X123.0Y-68.625
X123.0Y-85.625
X131.0Y-49.5
X131.0Y-66.5
X131.0Y-83.5
X136.0Y-47.3
X136.0Y-47.3
X136.0Y-64.3
X136.0Y-64.3
X136.0Y-81.3
X136.0Y-81.3
X141.0Y-49.5
X141.0Y-66.5
X141.0Y-83.5
X145.4Y-112.4
X149.0Y-55.875
X149.0Y-72.875
X149.0Y-89.875
X150.4Y-110.2
X150.4Y-110.2
X154.0Y-53.675
X154.0Y-53.675
X154.0Y-70.675
X154.0Y-70.675
X154.0Y-87.675
X154.0Y-87.675
X155.4Y-112.4
X159.0Y-55.875
X159.0Y-72.875
X159.0Y-89.875
X166.434Y-113.853
X167.0Y-58.0
X167.0Y-75.0
X167.0Y-92.0
X171.833Y-113.022
X171.833Y-113.022
X172.0Y-55.8
X172.0Y-55.8
X172.0Y-72.8
X172.0Y-72.8
X172.0Y-89.8
X172.0Y-89.8
X176.093Y-116.441
X177.0Y-58.0
X177.0Y-75.0
X177.0Y-92.0
X186.376Y-120.7
X191.806Y-121.295
X191.806Y-121.295
X195.036Y-125.7
T5
X100.0Y-66.0
X100.0Y-66.0
X100.0Y-83.0
X100.0Y-83.0
X100.0Y-100.0
X100.0Y-100.0
X118.0Y-55.375
X118.0Y-55.375
X118.0Y-72.375
X118.0Y-72.375
X118.0Y-89.375
X118.0Y-89.375
X136.0Y-53.25
X136.0Y-53.25
X136.0Y-70.25
X136.0Y-70.25
X136.0Y-87.25
X136.0Y-87.25
X150.4Y-116.15
X150.4Y-116.15
X154.0Y-59.625
X154.0Y-59.625
X154.0Y-76.625
X154.0Y-76.625
X154.0Y-93.625
X154.0Y-93.625
X170.293Y-118.769
X170.293Y-118.769
X172.0Y-61.75
X172.0Y-61.75
X172.0Y-78.75
X172.0Y-78.75
X172.0Y-95.75
X172.0Y-95.75
X188.831Y-126.448
X188.831Y-126.448
T6
X109.0Y-74.5
X109.0Y-91.5
X141.4Y-107.65
X163.0Y-68.125
X181.187Y-112.888
M30
