G04 #@! TF.GenerationSoftware,KiCad,Pcbnew,8.0.6+1*
G04 #@! TF.CreationDate,2024-12-31T16:22:16+00:00*
G04 #@! TF.ProjectId,corney_island_wireless,636f726e-6579-45f6-9973-6c616e645f77,0.2*
G04 #@! TF.SameCoordinates,Original*
G04 #@! TF.FileFunction,Legend,Bot*
G04 #@! TF.FilePolarity,Positive*
%FSLAX46Y46*%
G04 Gerber Fmt 4.6, Leading zero omitted, Abs format (unit mm)*
G04 Created by KiCad (PCBNEW 8.0.6+1) date 2024-12-31 16:22:16*
%MOMM*%
%LPD*%
G01*
G04 APERTURE LIST*
%ADD10C,0.150000*%
%ADD11C,0.100000*%
%ADD12C,0.120000*%
%ADD13C,2.300000*%
%ADD14C,4.400000*%
%ADD15C,3.500000*%
%ADD16C,2.000000*%
%ADD17C,3.100000*%
%ADD18C,1.800000*%
%ADD19C,0.900000*%
%ADD20O,1.800000X1.800000*%
%ADD21C,1.000000*%
%ADD22C,2.100000*%
%ADD23O,1.850000X1.300000*%
G04 APERTURE END LIST*
D10*
X122619048Y-99879819D02*
X122619048Y-100594104D01*
X122619048Y-100594104D02*
X122666667Y-100736961D01*
X122666667Y-100736961D02*
X122761905Y-100832200D01*
X122761905Y-100832200D02*
X122904762Y-100879819D01*
X122904762Y-100879819D02*
X123000000Y-100879819D01*
X121666667Y-100879819D02*
X122142857Y-100879819D01*
X122142857Y-100879819D02*
X122142857Y-99879819D01*
X120761905Y-100784580D02*
X120809524Y-100832200D01*
X120809524Y-100832200D02*
X120952381Y-100879819D01*
X120952381Y-100879819D02*
X121047619Y-100879819D01*
X121047619Y-100879819D02*
X121190476Y-100832200D01*
X121190476Y-100832200D02*
X121285714Y-100736961D01*
X121285714Y-100736961D02*
X121333333Y-100641723D01*
X121333333Y-100641723D02*
X121380952Y-100451247D01*
X121380952Y-100451247D02*
X121380952Y-100308390D01*
X121380952Y-100308390D02*
X121333333Y-100117914D01*
X121333333Y-100117914D02*
X121285714Y-100022676D01*
X121285714Y-100022676D02*
X121190476Y-99927438D01*
X121190476Y-99927438D02*
X121047619Y-99879819D01*
X121047619Y-99879819D02*
X120952381Y-99879819D01*
X120952381Y-99879819D02*
X120809524Y-99927438D01*
X120809524Y-99927438D02*
X120761905Y-99975057D01*
X120047619Y-99879819D02*
X120047619Y-100594104D01*
X120047619Y-100594104D02*
X120095238Y-100736961D01*
X120095238Y-100736961D02*
X120190476Y-100832200D01*
X120190476Y-100832200D02*
X120333333Y-100879819D01*
X120333333Y-100879819D02*
X120428571Y-100879819D01*
X119095238Y-100879819D02*
X119571428Y-100879819D01*
X119571428Y-100879819D02*
X119571428Y-99879819D01*
X118190476Y-100784580D02*
X118238095Y-100832200D01*
X118238095Y-100832200D02*
X118380952Y-100879819D01*
X118380952Y-100879819D02*
X118476190Y-100879819D01*
X118476190Y-100879819D02*
X118619047Y-100832200D01*
X118619047Y-100832200D02*
X118714285Y-100736961D01*
X118714285Y-100736961D02*
X118761904Y-100641723D01*
X118761904Y-100641723D02*
X118809523Y-100451247D01*
X118809523Y-100451247D02*
X118809523Y-100308390D01*
X118809523Y-100308390D02*
X118761904Y-100117914D01*
X118761904Y-100117914D02*
X118714285Y-100022676D01*
X118714285Y-100022676D02*
X118619047Y-99927438D01*
X118619047Y-99927438D02*
X118476190Y-99879819D01*
X118476190Y-99879819D02*
X118380952Y-99879819D01*
X118380952Y-99879819D02*
X118238095Y-99927438D01*
X118238095Y-99927438D02*
X118190476Y-99975057D01*
X117476190Y-99879819D02*
X117476190Y-100594104D01*
X117476190Y-100594104D02*
X117523809Y-100736961D01*
X117523809Y-100736961D02*
X117619047Y-100832200D01*
X117619047Y-100832200D02*
X117761904Y-100879819D01*
X117761904Y-100879819D02*
X117857142Y-100879819D01*
X116523809Y-100879819D02*
X116999999Y-100879819D01*
X116999999Y-100879819D02*
X116999999Y-99879819D01*
X115619047Y-100784580D02*
X115666666Y-100832200D01*
X115666666Y-100832200D02*
X115809523Y-100879819D01*
X115809523Y-100879819D02*
X115904761Y-100879819D01*
X115904761Y-100879819D02*
X116047618Y-100832200D01*
X116047618Y-100832200D02*
X116142856Y-100736961D01*
X116142856Y-100736961D02*
X116190475Y-100641723D01*
X116190475Y-100641723D02*
X116238094Y-100451247D01*
X116238094Y-100451247D02*
X116238094Y-100308390D01*
X116238094Y-100308390D02*
X116190475Y-100117914D01*
X116190475Y-100117914D02*
X116142856Y-100022676D01*
X116142856Y-100022676D02*
X116047618Y-99927438D01*
X116047618Y-99927438D02*
X115904761Y-99879819D01*
X115904761Y-99879819D02*
X115809523Y-99879819D01*
X115809523Y-99879819D02*
X115666666Y-99927438D01*
X115666666Y-99927438D02*
X115619047Y-99975057D01*
X114904761Y-99879819D02*
X114904761Y-100594104D01*
X114904761Y-100594104D02*
X114952380Y-100736961D01*
X114952380Y-100736961D02*
X115047618Y-100832200D01*
X115047618Y-100832200D02*
X115190475Y-100879819D01*
X115190475Y-100879819D02*
X115285713Y-100879819D01*
X113952380Y-100879819D02*
X114428570Y-100879819D01*
X114428570Y-100879819D02*
X114428570Y-99879819D01*
X113047618Y-100784580D02*
X113095237Y-100832200D01*
X113095237Y-100832200D02*
X113238094Y-100879819D01*
X113238094Y-100879819D02*
X113333332Y-100879819D01*
X113333332Y-100879819D02*
X113476189Y-100832200D01*
X113476189Y-100832200D02*
X113571427Y-100736961D01*
X113571427Y-100736961D02*
X113619046Y-100641723D01*
X113619046Y-100641723D02*
X113666665Y-100451247D01*
X113666665Y-100451247D02*
X113666665Y-100308390D01*
X113666665Y-100308390D02*
X113619046Y-100117914D01*
X113619046Y-100117914D02*
X113571427Y-100022676D01*
X113571427Y-100022676D02*
X113476189Y-99927438D01*
X113476189Y-99927438D02*
X113333332Y-99879819D01*
X113333332Y-99879819D02*
X113238094Y-99879819D01*
X113238094Y-99879819D02*
X113095237Y-99927438D01*
X113095237Y-99927438D02*
X113047618Y-99975057D01*
X192192857Y-61499819D02*
X192669047Y-61499819D01*
X192669047Y-61499819D02*
X192669047Y-60499819D01*
X191859523Y-60976009D02*
X191526190Y-60976009D01*
X191383333Y-61499819D02*
X191859523Y-61499819D01*
X191859523Y-61499819D02*
X191859523Y-60499819D01*
X191859523Y-60499819D02*
X191383333Y-60499819D01*
X190954761Y-61499819D02*
X190954761Y-60499819D01*
X190954761Y-60499819D02*
X190716666Y-60499819D01*
X190716666Y-60499819D02*
X190573809Y-60547438D01*
X190573809Y-60547438D02*
X190478571Y-60642676D01*
X190478571Y-60642676D02*
X190430952Y-60737914D01*
X190430952Y-60737914D02*
X190383333Y-60928390D01*
X190383333Y-60928390D02*
X190383333Y-61071247D01*
X190383333Y-61071247D02*
X190430952Y-61261723D01*
X190430952Y-61261723D02*
X190478571Y-61356961D01*
X190478571Y-61356961D02*
X190573809Y-61452200D01*
X190573809Y-61452200D02*
X190716666Y-61499819D01*
X190716666Y-61499819D02*
X190954761Y-61499819D01*
X195140476Y-61499819D02*
X195473809Y-61023628D01*
X195711904Y-61499819D02*
X195711904Y-60499819D01*
X195711904Y-60499819D02*
X195330952Y-60499819D01*
X195330952Y-60499819D02*
X195235714Y-60547438D01*
X195235714Y-60547438D02*
X195188095Y-60595057D01*
X195188095Y-60595057D02*
X195140476Y-60690295D01*
X195140476Y-60690295D02*
X195140476Y-60833152D01*
X195140476Y-60833152D02*
X195188095Y-60928390D01*
X195188095Y-60928390D02*
X195235714Y-60976009D01*
X195235714Y-60976009D02*
X195330952Y-61023628D01*
X195330952Y-61023628D02*
X195711904Y-61023628D01*
X194759523Y-61214104D02*
X194283333Y-61214104D01*
X194854761Y-61499819D02*
X194521428Y-60499819D01*
X194521428Y-60499819D02*
X194188095Y-61499819D01*
X193949999Y-60499819D02*
X193711904Y-61499819D01*
X193711904Y-61499819D02*
X193521428Y-60785533D01*
X193521428Y-60785533D02*
X193330952Y-61499819D01*
X193330952Y-61499819D02*
X193092857Y-60499819D01*
X192621428Y-64039819D02*
X192621428Y-63039819D01*
X192621428Y-63039819D02*
X192383333Y-63039819D01*
X192383333Y-63039819D02*
X192240476Y-63087438D01*
X192240476Y-63087438D02*
X192145238Y-63182676D01*
X192145238Y-63182676D02*
X192097619Y-63277914D01*
X192097619Y-63277914D02*
X192050000Y-63468390D01*
X192050000Y-63468390D02*
X192050000Y-63611247D01*
X192050000Y-63611247D02*
X192097619Y-63801723D01*
X192097619Y-63801723D02*
X192145238Y-63896961D01*
X192145238Y-63896961D02*
X192240476Y-63992200D01*
X192240476Y-63992200D02*
X192383333Y-64039819D01*
X192383333Y-64039819D02*
X192621428Y-64039819D01*
X191669047Y-63754104D02*
X191192857Y-63754104D01*
X191764285Y-64039819D02*
X191430952Y-63039819D01*
X191430952Y-63039819D02*
X191097619Y-64039819D01*
X190907142Y-63039819D02*
X190335714Y-63039819D01*
X190621428Y-64039819D02*
X190621428Y-63039819D01*
X195211904Y-63087438D02*
X195307142Y-63039819D01*
X195307142Y-63039819D02*
X195449999Y-63039819D01*
X195449999Y-63039819D02*
X195592856Y-63087438D01*
X195592856Y-63087438D02*
X195688094Y-63182676D01*
X195688094Y-63182676D02*
X195735713Y-63277914D01*
X195735713Y-63277914D02*
X195783332Y-63468390D01*
X195783332Y-63468390D02*
X195783332Y-63611247D01*
X195783332Y-63611247D02*
X195735713Y-63801723D01*
X195735713Y-63801723D02*
X195688094Y-63896961D01*
X195688094Y-63896961D02*
X195592856Y-63992200D01*
X195592856Y-63992200D02*
X195449999Y-64039819D01*
X195449999Y-64039819D02*
X195354761Y-64039819D01*
X195354761Y-64039819D02*
X195211904Y-63992200D01*
X195211904Y-63992200D02*
X195164285Y-63944580D01*
X195164285Y-63944580D02*
X195164285Y-63611247D01*
X195164285Y-63611247D02*
X195354761Y-63611247D01*
X194735713Y-64039819D02*
X194735713Y-63039819D01*
X194735713Y-63039819D02*
X194164285Y-64039819D01*
X194164285Y-64039819D02*
X194164285Y-63039819D01*
X193688094Y-64039819D02*
X193688094Y-63039819D01*
X193688094Y-63039819D02*
X193449999Y-63039819D01*
X193449999Y-63039819D02*
X193307142Y-63087438D01*
X193307142Y-63087438D02*
X193211904Y-63182676D01*
X193211904Y-63182676D02*
X193164285Y-63277914D01*
X193164285Y-63277914D02*
X193116666Y-63468390D01*
X193116666Y-63468390D02*
X193116666Y-63611247D01*
X193116666Y-63611247D02*
X193164285Y-63801723D01*
X193164285Y-63801723D02*
X193211904Y-63896961D01*
X193211904Y-63896961D02*
X193307142Y-63992200D01*
X193307142Y-63992200D02*
X193449999Y-64039819D01*
X193449999Y-64039819D02*
X193688094Y-64039819D01*
X192311904Y-65627438D02*
X192407142Y-65579819D01*
X192407142Y-65579819D02*
X192549999Y-65579819D01*
X192549999Y-65579819D02*
X192692856Y-65627438D01*
X192692856Y-65627438D02*
X192788094Y-65722676D01*
X192788094Y-65722676D02*
X192835713Y-65817914D01*
X192835713Y-65817914D02*
X192883332Y-66008390D01*
X192883332Y-66008390D02*
X192883332Y-66151247D01*
X192883332Y-66151247D02*
X192835713Y-66341723D01*
X192835713Y-66341723D02*
X192788094Y-66436961D01*
X192788094Y-66436961D02*
X192692856Y-66532200D01*
X192692856Y-66532200D02*
X192549999Y-66579819D01*
X192549999Y-66579819D02*
X192454761Y-66579819D01*
X192454761Y-66579819D02*
X192311904Y-66532200D01*
X192311904Y-66532200D02*
X192264285Y-66484580D01*
X192264285Y-66484580D02*
X192264285Y-66151247D01*
X192264285Y-66151247D02*
X192454761Y-66151247D01*
X191835713Y-66579819D02*
X191835713Y-65579819D01*
X191835713Y-65579819D02*
X191264285Y-66579819D01*
X191264285Y-66579819D02*
X191264285Y-65579819D01*
X190788094Y-66579819D02*
X190788094Y-65579819D01*
X190788094Y-65579819D02*
X190549999Y-65579819D01*
X190549999Y-65579819D02*
X190407142Y-65627438D01*
X190407142Y-65627438D02*
X190311904Y-65722676D01*
X190311904Y-65722676D02*
X190264285Y-65817914D01*
X190264285Y-65817914D02*
X190216666Y-66008390D01*
X190216666Y-66008390D02*
X190216666Y-66151247D01*
X190216666Y-66151247D02*
X190264285Y-66341723D01*
X190264285Y-66341723D02*
X190311904Y-66436961D01*
X190311904Y-66436961D02*
X190407142Y-66532200D01*
X190407142Y-66532200D02*
X190549999Y-66579819D01*
X190549999Y-66579819D02*
X190788094Y-66579819D01*
X194997619Y-66579819D02*
X195330952Y-66103628D01*
X195569047Y-66579819D02*
X195569047Y-65579819D01*
X195569047Y-65579819D02*
X195188095Y-65579819D01*
X195188095Y-65579819D02*
X195092857Y-65627438D01*
X195092857Y-65627438D02*
X195045238Y-65675057D01*
X195045238Y-65675057D02*
X194997619Y-65770295D01*
X194997619Y-65770295D02*
X194997619Y-65913152D01*
X194997619Y-65913152D02*
X195045238Y-66008390D01*
X195045238Y-66008390D02*
X195092857Y-66056009D01*
X195092857Y-66056009D02*
X195188095Y-66103628D01*
X195188095Y-66103628D02*
X195569047Y-66103628D01*
X194616666Y-66532200D02*
X194473809Y-66579819D01*
X194473809Y-66579819D02*
X194235714Y-66579819D01*
X194235714Y-66579819D02*
X194140476Y-66532200D01*
X194140476Y-66532200D02*
X194092857Y-66484580D01*
X194092857Y-66484580D02*
X194045238Y-66389342D01*
X194045238Y-66389342D02*
X194045238Y-66294104D01*
X194045238Y-66294104D02*
X194092857Y-66198866D01*
X194092857Y-66198866D02*
X194140476Y-66151247D01*
X194140476Y-66151247D02*
X194235714Y-66103628D01*
X194235714Y-66103628D02*
X194426190Y-66056009D01*
X194426190Y-66056009D02*
X194521428Y-66008390D01*
X194521428Y-66008390D02*
X194569047Y-65960771D01*
X194569047Y-65960771D02*
X194616666Y-65865533D01*
X194616666Y-65865533D02*
X194616666Y-65770295D01*
X194616666Y-65770295D02*
X194569047Y-65675057D01*
X194569047Y-65675057D02*
X194521428Y-65627438D01*
X194521428Y-65627438D02*
X194426190Y-65579819D01*
X194426190Y-65579819D02*
X194188095Y-65579819D01*
X194188095Y-65579819D02*
X194045238Y-65627438D01*
X193759523Y-65579819D02*
X193188095Y-65579819D01*
X193473809Y-66579819D02*
X193473809Y-65579819D01*
X192311904Y-68167438D02*
X192407142Y-68119819D01*
X192407142Y-68119819D02*
X192549999Y-68119819D01*
X192549999Y-68119819D02*
X192692856Y-68167438D01*
X192692856Y-68167438D02*
X192788094Y-68262676D01*
X192788094Y-68262676D02*
X192835713Y-68357914D01*
X192835713Y-68357914D02*
X192883332Y-68548390D01*
X192883332Y-68548390D02*
X192883332Y-68691247D01*
X192883332Y-68691247D02*
X192835713Y-68881723D01*
X192835713Y-68881723D02*
X192788094Y-68976961D01*
X192788094Y-68976961D02*
X192692856Y-69072200D01*
X192692856Y-69072200D02*
X192549999Y-69119819D01*
X192549999Y-69119819D02*
X192454761Y-69119819D01*
X192454761Y-69119819D02*
X192311904Y-69072200D01*
X192311904Y-69072200D02*
X192264285Y-69024580D01*
X192264285Y-69024580D02*
X192264285Y-68691247D01*
X192264285Y-68691247D02*
X192454761Y-68691247D01*
X191835713Y-69119819D02*
X191835713Y-68119819D01*
X191835713Y-68119819D02*
X191264285Y-69119819D01*
X191264285Y-69119819D02*
X191264285Y-68119819D01*
X190788094Y-69119819D02*
X190788094Y-68119819D01*
X190788094Y-68119819D02*
X190549999Y-68119819D01*
X190549999Y-68119819D02*
X190407142Y-68167438D01*
X190407142Y-68167438D02*
X190311904Y-68262676D01*
X190311904Y-68262676D02*
X190264285Y-68357914D01*
X190264285Y-68357914D02*
X190216666Y-68548390D01*
X190216666Y-68548390D02*
X190216666Y-68691247D01*
X190216666Y-68691247D02*
X190264285Y-68881723D01*
X190264285Y-68881723D02*
X190311904Y-68976961D01*
X190311904Y-68976961D02*
X190407142Y-69072200D01*
X190407142Y-69072200D02*
X190549999Y-69119819D01*
X190549999Y-69119819D02*
X190788094Y-69119819D01*
X195783332Y-68119819D02*
X195449999Y-69119819D01*
X195449999Y-69119819D02*
X195116666Y-68119819D01*
X194211904Y-69024580D02*
X194259523Y-69072200D01*
X194259523Y-69072200D02*
X194402380Y-69119819D01*
X194402380Y-69119819D02*
X194497618Y-69119819D01*
X194497618Y-69119819D02*
X194640475Y-69072200D01*
X194640475Y-69072200D02*
X194735713Y-68976961D01*
X194735713Y-68976961D02*
X194783332Y-68881723D01*
X194783332Y-68881723D02*
X194830951Y-68691247D01*
X194830951Y-68691247D02*
X194830951Y-68548390D01*
X194830951Y-68548390D02*
X194783332Y-68357914D01*
X194783332Y-68357914D02*
X194735713Y-68262676D01*
X194735713Y-68262676D02*
X194640475Y-68167438D01*
X194640475Y-68167438D02*
X194497618Y-68119819D01*
X194497618Y-68119819D02*
X194402380Y-68119819D01*
X194402380Y-68119819D02*
X194259523Y-68167438D01*
X194259523Y-68167438D02*
X194211904Y-68215057D01*
X193211904Y-69024580D02*
X193259523Y-69072200D01*
X193259523Y-69072200D02*
X193402380Y-69119819D01*
X193402380Y-69119819D02*
X193497618Y-69119819D01*
X193497618Y-69119819D02*
X193640475Y-69072200D01*
X193640475Y-69072200D02*
X193735713Y-68976961D01*
X193735713Y-68976961D02*
X193783332Y-68881723D01*
X193783332Y-68881723D02*
X193830951Y-68691247D01*
X193830951Y-68691247D02*
X193830951Y-68548390D01*
X193830951Y-68548390D02*
X193783332Y-68357914D01*
X193783332Y-68357914D02*
X193735713Y-68262676D01*
X193735713Y-68262676D02*
X193640475Y-68167438D01*
X193640475Y-68167438D02*
X193497618Y-68119819D01*
X193497618Y-68119819D02*
X193402380Y-68119819D01*
X193402380Y-68119819D02*
X193259523Y-68167438D01*
X193259523Y-68167438D02*
X193211904Y-68215057D01*
X192764285Y-71612200D02*
X192621428Y-71659819D01*
X192621428Y-71659819D02*
X192383333Y-71659819D01*
X192383333Y-71659819D02*
X192288095Y-71612200D01*
X192288095Y-71612200D02*
X192240476Y-71564580D01*
X192240476Y-71564580D02*
X192192857Y-71469342D01*
X192192857Y-71469342D02*
X192192857Y-71374104D01*
X192192857Y-71374104D02*
X192240476Y-71278866D01*
X192240476Y-71278866D02*
X192288095Y-71231247D01*
X192288095Y-71231247D02*
X192383333Y-71183628D01*
X192383333Y-71183628D02*
X192573809Y-71136009D01*
X192573809Y-71136009D02*
X192669047Y-71088390D01*
X192669047Y-71088390D02*
X192716666Y-71040771D01*
X192716666Y-71040771D02*
X192764285Y-70945533D01*
X192764285Y-70945533D02*
X192764285Y-70850295D01*
X192764285Y-70850295D02*
X192716666Y-70755057D01*
X192716666Y-70755057D02*
X192669047Y-70707438D01*
X192669047Y-70707438D02*
X192573809Y-70659819D01*
X192573809Y-70659819D02*
X192335714Y-70659819D01*
X192335714Y-70659819D02*
X192192857Y-70707438D01*
X191764285Y-71659819D02*
X191764285Y-70659819D01*
X191764285Y-70659819D02*
X191526190Y-70659819D01*
X191526190Y-70659819D02*
X191383333Y-70707438D01*
X191383333Y-70707438D02*
X191288095Y-70802676D01*
X191288095Y-70802676D02*
X191240476Y-70897914D01*
X191240476Y-70897914D02*
X191192857Y-71088390D01*
X191192857Y-71088390D02*
X191192857Y-71231247D01*
X191192857Y-71231247D02*
X191240476Y-71421723D01*
X191240476Y-71421723D02*
X191288095Y-71516961D01*
X191288095Y-71516961D02*
X191383333Y-71612200D01*
X191383333Y-71612200D02*
X191526190Y-71659819D01*
X191526190Y-71659819D02*
X191764285Y-71659819D01*
X190811904Y-71374104D02*
X190335714Y-71374104D01*
X190907142Y-71659819D02*
X190573809Y-70659819D01*
X190573809Y-70659819D02*
X190240476Y-71659819D01*
X195206666Y-71564580D02*
X195254285Y-71612200D01*
X195254285Y-71612200D02*
X195397142Y-71659819D01*
X195397142Y-71659819D02*
X195492380Y-71659819D01*
X195492380Y-71659819D02*
X195635237Y-71612200D01*
X195635237Y-71612200D02*
X195730475Y-71516961D01*
X195730475Y-71516961D02*
X195778094Y-71421723D01*
X195778094Y-71421723D02*
X195825713Y-71231247D01*
X195825713Y-71231247D02*
X195825713Y-71088390D01*
X195825713Y-71088390D02*
X195778094Y-70897914D01*
X195778094Y-70897914D02*
X195730475Y-70802676D01*
X195730475Y-70802676D02*
X195635237Y-70707438D01*
X195635237Y-70707438D02*
X195492380Y-70659819D01*
X195492380Y-70659819D02*
X195397142Y-70659819D01*
X195397142Y-70659819D02*
X195254285Y-70707438D01*
X195254285Y-70707438D02*
X195206666Y-70755057D01*
X194587618Y-70659819D02*
X194492380Y-70659819D01*
X194492380Y-70659819D02*
X194397142Y-70707438D01*
X194397142Y-70707438D02*
X194349523Y-70755057D01*
X194349523Y-70755057D02*
X194301904Y-70850295D01*
X194301904Y-70850295D02*
X194254285Y-71040771D01*
X194254285Y-71040771D02*
X194254285Y-71278866D01*
X194254285Y-71278866D02*
X194301904Y-71469342D01*
X194301904Y-71469342D02*
X194349523Y-71564580D01*
X194349523Y-71564580D02*
X194397142Y-71612200D01*
X194397142Y-71612200D02*
X194492380Y-71659819D01*
X194492380Y-71659819D02*
X194587618Y-71659819D01*
X194587618Y-71659819D02*
X194682856Y-71612200D01*
X194682856Y-71612200D02*
X194730475Y-71564580D01*
X194730475Y-71564580D02*
X194778094Y-71469342D01*
X194778094Y-71469342D02*
X194825713Y-71278866D01*
X194825713Y-71278866D02*
X194825713Y-71040771D01*
X194825713Y-71040771D02*
X194778094Y-70850295D01*
X194778094Y-70850295D02*
X194730475Y-70755057D01*
X194730475Y-70755057D02*
X194682856Y-70707438D01*
X194682856Y-70707438D02*
X194587618Y-70659819D01*
X192740475Y-74152200D02*
X192597618Y-74199819D01*
X192597618Y-74199819D02*
X192359523Y-74199819D01*
X192359523Y-74199819D02*
X192264285Y-74152200D01*
X192264285Y-74152200D02*
X192216666Y-74104580D01*
X192216666Y-74104580D02*
X192169047Y-74009342D01*
X192169047Y-74009342D02*
X192169047Y-73914104D01*
X192169047Y-73914104D02*
X192216666Y-73818866D01*
X192216666Y-73818866D02*
X192264285Y-73771247D01*
X192264285Y-73771247D02*
X192359523Y-73723628D01*
X192359523Y-73723628D02*
X192549999Y-73676009D01*
X192549999Y-73676009D02*
X192645237Y-73628390D01*
X192645237Y-73628390D02*
X192692856Y-73580771D01*
X192692856Y-73580771D02*
X192740475Y-73485533D01*
X192740475Y-73485533D02*
X192740475Y-73390295D01*
X192740475Y-73390295D02*
X192692856Y-73295057D01*
X192692856Y-73295057D02*
X192645237Y-73247438D01*
X192645237Y-73247438D02*
X192549999Y-73199819D01*
X192549999Y-73199819D02*
X192311904Y-73199819D01*
X192311904Y-73199819D02*
X192169047Y-73247438D01*
X191169047Y-74104580D02*
X191216666Y-74152200D01*
X191216666Y-74152200D02*
X191359523Y-74199819D01*
X191359523Y-74199819D02*
X191454761Y-74199819D01*
X191454761Y-74199819D02*
X191597618Y-74152200D01*
X191597618Y-74152200D02*
X191692856Y-74056961D01*
X191692856Y-74056961D02*
X191740475Y-73961723D01*
X191740475Y-73961723D02*
X191788094Y-73771247D01*
X191788094Y-73771247D02*
X191788094Y-73628390D01*
X191788094Y-73628390D02*
X191740475Y-73437914D01*
X191740475Y-73437914D02*
X191692856Y-73342676D01*
X191692856Y-73342676D02*
X191597618Y-73247438D01*
X191597618Y-73247438D02*
X191454761Y-73199819D01*
X191454761Y-73199819D02*
X191359523Y-73199819D01*
X191359523Y-73199819D02*
X191216666Y-73247438D01*
X191216666Y-73247438D02*
X191169047Y-73295057D01*
X190264285Y-74199819D02*
X190740475Y-74199819D01*
X190740475Y-74199819D02*
X190740475Y-73199819D01*
X195206666Y-74104580D02*
X195254285Y-74152200D01*
X195254285Y-74152200D02*
X195397142Y-74199819D01*
X195397142Y-74199819D02*
X195492380Y-74199819D01*
X195492380Y-74199819D02*
X195635237Y-74152200D01*
X195635237Y-74152200D02*
X195730475Y-74056961D01*
X195730475Y-74056961D02*
X195778094Y-73961723D01*
X195778094Y-73961723D02*
X195825713Y-73771247D01*
X195825713Y-73771247D02*
X195825713Y-73628390D01*
X195825713Y-73628390D02*
X195778094Y-73437914D01*
X195778094Y-73437914D02*
X195730475Y-73342676D01*
X195730475Y-73342676D02*
X195635237Y-73247438D01*
X195635237Y-73247438D02*
X195492380Y-73199819D01*
X195492380Y-73199819D02*
X195397142Y-73199819D01*
X195397142Y-73199819D02*
X195254285Y-73247438D01*
X195254285Y-73247438D02*
X195206666Y-73295057D01*
X194254285Y-74199819D02*
X194825713Y-74199819D01*
X194539999Y-74199819D02*
X194539999Y-73199819D01*
X194539999Y-73199819D02*
X194635237Y-73342676D01*
X194635237Y-73342676D02*
X194730475Y-73437914D01*
X194730475Y-73437914D02*
X194825713Y-73485533D01*
X191126666Y-76644580D02*
X191174285Y-76692200D01*
X191174285Y-76692200D02*
X191317142Y-76739819D01*
X191317142Y-76739819D02*
X191412380Y-76739819D01*
X191412380Y-76739819D02*
X191555237Y-76692200D01*
X191555237Y-76692200D02*
X191650475Y-76596961D01*
X191650475Y-76596961D02*
X191698094Y-76501723D01*
X191698094Y-76501723D02*
X191745713Y-76311247D01*
X191745713Y-76311247D02*
X191745713Y-76168390D01*
X191745713Y-76168390D02*
X191698094Y-75977914D01*
X191698094Y-75977914D02*
X191650475Y-75882676D01*
X191650475Y-75882676D02*
X191555237Y-75787438D01*
X191555237Y-75787438D02*
X191412380Y-75739819D01*
X191412380Y-75739819D02*
X191317142Y-75739819D01*
X191317142Y-75739819D02*
X191174285Y-75787438D01*
X191174285Y-75787438D02*
X191126666Y-75835057D01*
X190745713Y-76692200D02*
X190602856Y-76739819D01*
X190602856Y-76739819D02*
X190364761Y-76739819D01*
X190364761Y-76739819D02*
X190269523Y-76692200D01*
X190269523Y-76692200D02*
X190221904Y-76644580D01*
X190221904Y-76644580D02*
X190174285Y-76549342D01*
X190174285Y-76549342D02*
X190174285Y-76454104D01*
X190174285Y-76454104D02*
X190221904Y-76358866D01*
X190221904Y-76358866D02*
X190269523Y-76311247D01*
X190269523Y-76311247D02*
X190364761Y-76263628D01*
X190364761Y-76263628D02*
X190555237Y-76216009D01*
X190555237Y-76216009D02*
X190650475Y-76168390D01*
X190650475Y-76168390D02*
X190698094Y-76120771D01*
X190698094Y-76120771D02*
X190745713Y-76025533D01*
X190745713Y-76025533D02*
X190745713Y-75930295D01*
X190745713Y-75930295D02*
X190698094Y-75835057D01*
X190698094Y-75835057D02*
X190650475Y-75787438D01*
X190650475Y-75787438D02*
X190555237Y-75739819D01*
X190555237Y-75739819D02*
X190317142Y-75739819D01*
X190317142Y-75739819D02*
X190174285Y-75787438D01*
X195206666Y-76644580D02*
X195254285Y-76692200D01*
X195254285Y-76692200D02*
X195397142Y-76739819D01*
X195397142Y-76739819D02*
X195492380Y-76739819D01*
X195492380Y-76739819D02*
X195635237Y-76692200D01*
X195635237Y-76692200D02*
X195730475Y-76596961D01*
X195730475Y-76596961D02*
X195778094Y-76501723D01*
X195778094Y-76501723D02*
X195825713Y-76311247D01*
X195825713Y-76311247D02*
X195825713Y-76168390D01*
X195825713Y-76168390D02*
X195778094Y-75977914D01*
X195778094Y-75977914D02*
X195730475Y-75882676D01*
X195730475Y-75882676D02*
X195635237Y-75787438D01*
X195635237Y-75787438D02*
X195492380Y-75739819D01*
X195492380Y-75739819D02*
X195397142Y-75739819D01*
X195397142Y-75739819D02*
X195254285Y-75787438D01*
X195254285Y-75787438D02*
X195206666Y-75835057D01*
X194825713Y-75835057D02*
X194778094Y-75787438D01*
X194778094Y-75787438D02*
X194682856Y-75739819D01*
X194682856Y-75739819D02*
X194444761Y-75739819D01*
X194444761Y-75739819D02*
X194349523Y-75787438D01*
X194349523Y-75787438D02*
X194301904Y-75835057D01*
X194301904Y-75835057D02*
X194254285Y-75930295D01*
X194254285Y-75930295D02*
X194254285Y-76025533D01*
X194254285Y-76025533D02*
X194301904Y-76168390D01*
X194301904Y-76168390D02*
X194873332Y-76739819D01*
X194873332Y-76739819D02*
X194254285Y-76739819D01*
X191126666Y-79279819D02*
X191459999Y-78803628D01*
X191698094Y-79279819D02*
X191698094Y-78279819D01*
X191698094Y-78279819D02*
X191317142Y-78279819D01*
X191317142Y-78279819D02*
X191221904Y-78327438D01*
X191221904Y-78327438D02*
X191174285Y-78375057D01*
X191174285Y-78375057D02*
X191126666Y-78470295D01*
X191126666Y-78470295D02*
X191126666Y-78613152D01*
X191126666Y-78613152D02*
X191174285Y-78708390D01*
X191174285Y-78708390D02*
X191221904Y-78756009D01*
X191221904Y-78756009D02*
X191317142Y-78803628D01*
X191317142Y-78803628D02*
X191698094Y-78803628D01*
X190507618Y-78279819D02*
X190412380Y-78279819D01*
X190412380Y-78279819D02*
X190317142Y-78327438D01*
X190317142Y-78327438D02*
X190269523Y-78375057D01*
X190269523Y-78375057D02*
X190221904Y-78470295D01*
X190221904Y-78470295D02*
X190174285Y-78660771D01*
X190174285Y-78660771D02*
X190174285Y-78898866D01*
X190174285Y-78898866D02*
X190221904Y-79089342D01*
X190221904Y-79089342D02*
X190269523Y-79184580D01*
X190269523Y-79184580D02*
X190317142Y-79232200D01*
X190317142Y-79232200D02*
X190412380Y-79279819D01*
X190412380Y-79279819D02*
X190507618Y-79279819D01*
X190507618Y-79279819D02*
X190602856Y-79232200D01*
X190602856Y-79232200D02*
X190650475Y-79184580D01*
X190650475Y-79184580D02*
X190698094Y-79089342D01*
X190698094Y-79089342D02*
X190745713Y-78898866D01*
X190745713Y-78898866D02*
X190745713Y-78660771D01*
X190745713Y-78660771D02*
X190698094Y-78470295D01*
X190698094Y-78470295D02*
X190650475Y-78375057D01*
X190650475Y-78375057D02*
X190602856Y-78327438D01*
X190602856Y-78327438D02*
X190507618Y-78279819D01*
X195206666Y-79184580D02*
X195254285Y-79232200D01*
X195254285Y-79232200D02*
X195397142Y-79279819D01*
X195397142Y-79279819D02*
X195492380Y-79279819D01*
X195492380Y-79279819D02*
X195635237Y-79232200D01*
X195635237Y-79232200D02*
X195730475Y-79136961D01*
X195730475Y-79136961D02*
X195778094Y-79041723D01*
X195778094Y-79041723D02*
X195825713Y-78851247D01*
X195825713Y-78851247D02*
X195825713Y-78708390D01*
X195825713Y-78708390D02*
X195778094Y-78517914D01*
X195778094Y-78517914D02*
X195730475Y-78422676D01*
X195730475Y-78422676D02*
X195635237Y-78327438D01*
X195635237Y-78327438D02*
X195492380Y-78279819D01*
X195492380Y-78279819D02*
X195397142Y-78279819D01*
X195397142Y-78279819D02*
X195254285Y-78327438D01*
X195254285Y-78327438D02*
X195206666Y-78375057D01*
X194873332Y-78279819D02*
X194254285Y-78279819D01*
X194254285Y-78279819D02*
X194587618Y-78660771D01*
X194587618Y-78660771D02*
X194444761Y-78660771D01*
X194444761Y-78660771D02*
X194349523Y-78708390D01*
X194349523Y-78708390D02*
X194301904Y-78756009D01*
X194301904Y-78756009D02*
X194254285Y-78851247D01*
X194254285Y-78851247D02*
X194254285Y-79089342D01*
X194254285Y-79089342D02*
X194301904Y-79184580D01*
X194301904Y-79184580D02*
X194349523Y-79232200D01*
X194349523Y-79232200D02*
X194444761Y-79279819D01*
X194444761Y-79279819D02*
X194730475Y-79279819D01*
X194730475Y-79279819D02*
X194825713Y-79232200D01*
X194825713Y-79232200D02*
X194873332Y-79184580D01*
X191126666Y-81819819D02*
X191459999Y-81343628D01*
X191698094Y-81819819D02*
X191698094Y-80819819D01*
X191698094Y-80819819D02*
X191317142Y-80819819D01*
X191317142Y-80819819D02*
X191221904Y-80867438D01*
X191221904Y-80867438D02*
X191174285Y-80915057D01*
X191174285Y-80915057D02*
X191126666Y-81010295D01*
X191126666Y-81010295D02*
X191126666Y-81153152D01*
X191126666Y-81153152D02*
X191174285Y-81248390D01*
X191174285Y-81248390D02*
X191221904Y-81296009D01*
X191221904Y-81296009D02*
X191317142Y-81343628D01*
X191317142Y-81343628D02*
X191698094Y-81343628D01*
X190174285Y-81819819D02*
X190745713Y-81819819D01*
X190459999Y-81819819D02*
X190459999Y-80819819D01*
X190459999Y-80819819D02*
X190555237Y-80962676D01*
X190555237Y-80962676D02*
X190650475Y-81057914D01*
X190650475Y-81057914D02*
X190745713Y-81105533D01*
X195206666Y-81724580D02*
X195254285Y-81772200D01*
X195254285Y-81772200D02*
X195397142Y-81819819D01*
X195397142Y-81819819D02*
X195492380Y-81819819D01*
X195492380Y-81819819D02*
X195635237Y-81772200D01*
X195635237Y-81772200D02*
X195730475Y-81676961D01*
X195730475Y-81676961D02*
X195778094Y-81581723D01*
X195778094Y-81581723D02*
X195825713Y-81391247D01*
X195825713Y-81391247D02*
X195825713Y-81248390D01*
X195825713Y-81248390D02*
X195778094Y-81057914D01*
X195778094Y-81057914D02*
X195730475Y-80962676D01*
X195730475Y-80962676D02*
X195635237Y-80867438D01*
X195635237Y-80867438D02*
X195492380Y-80819819D01*
X195492380Y-80819819D02*
X195397142Y-80819819D01*
X195397142Y-80819819D02*
X195254285Y-80867438D01*
X195254285Y-80867438D02*
X195206666Y-80915057D01*
X194349523Y-81153152D02*
X194349523Y-81819819D01*
X194587618Y-80772200D02*
X194825713Y-81486485D01*
X194825713Y-81486485D02*
X194206666Y-81486485D01*
X191126666Y-84359819D02*
X191459999Y-83883628D01*
X191698094Y-84359819D02*
X191698094Y-83359819D01*
X191698094Y-83359819D02*
X191317142Y-83359819D01*
X191317142Y-83359819D02*
X191221904Y-83407438D01*
X191221904Y-83407438D02*
X191174285Y-83455057D01*
X191174285Y-83455057D02*
X191126666Y-83550295D01*
X191126666Y-83550295D02*
X191126666Y-83693152D01*
X191126666Y-83693152D02*
X191174285Y-83788390D01*
X191174285Y-83788390D02*
X191221904Y-83836009D01*
X191221904Y-83836009D02*
X191317142Y-83883628D01*
X191317142Y-83883628D02*
X191698094Y-83883628D01*
X190745713Y-83455057D02*
X190698094Y-83407438D01*
X190698094Y-83407438D02*
X190602856Y-83359819D01*
X190602856Y-83359819D02*
X190364761Y-83359819D01*
X190364761Y-83359819D02*
X190269523Y-83407438D01*
X190269523Y-83407438D02*
X190221904Y-83455057D01*
X190221904Y-83455057D02*
X190174285Y-83550295D01*
X190174285Y-83550295D02*
X190174285Y-83645533D01*
X190174285Y-83645533D02*
X190221904Y-83788390D01*
X190221904Y-83788390D02*
X190793332Y-84359819D01*
X190793332Y-84359819D02*
X190174285Y-84359819D01*
X195206666Y-84264580D02*
X195254285Y-84312200D01*
X195254285Y-84312200D02*
X195397142Y-84359819D01*
X195397142Y-84359819D02*
X195492380Y-84359819D01*
X195492380Y-84359819D02*
X195635237Y-84312200D01*
X195635237Y-84312200D02*
X195730475Y-84216961D01*
X195730475Y-84216961D02*
X195778094Y-84121723D01*
X195778094Y-84121723D02*
X195825713Y-83931247D01*
X195825713Y-83931247D02*
X195825713Y-83788390D01*
X195825713Y-83788390D02*
X195778094Y-83597914D01*
X195778094Y-83597914D02*
X195730475Y-83502676D01*
X195730475Y-83502676D02*
X195635237Y-83407438D01*
X195635237Y-83407438D02*
X195492380Y-83359819D01*
X195492380Y-83359819D02*
X195397142Y-83359819D01*
X195397142Y-83359819D02*
X195254285Y-83407438D01*
X195254285Y-83407438D02*
X195206666Y-83455057D01*
X194301904Y-83359819D02*
X194778094Y-83359819D01*
X194778094Y-83359819D02*
X194825713Y-83836009D01*
X194825713Y-83836009D02*
X194778094Y-83788390D01*
X194778094Y-83788390D02*
X194682856Y-83740771D01*
X194682856Y-83740771D02*
X194444761Y-83740771D01*
X194444761Y-83740771D02*
X194349523Y-83788390D01*
X194349523Y-83788390D02*
X194301904Y-83836009D01*
X194301904Y-83836009D02*
X194254285Y-83931247D01*
X194254285Y-83931247D02*
X194254285Y-84169342D01*
X194254285Y-84169342D02*
X194301904Y-84264580D01*
X194301904Y-84264580D02*
X194349523Y-84312200D01*
X194349523Y-84312200D02*
X194444761Y-84359819D01*
X194444761Y-84359819D02*
X194682856Y-84359819D01*
X194682856Y-84359819D02*
X194778094Y-84312200D01*
X194778094Y-84312200D02*
X194825713Y-84264580D01*
X191126666Y-86899819D02*
X191459999Y-86423628D01*
X191698094Y-86899819D02*
X191698094Y-85899819D01*
X191698094Y-85899819D02*
X191317142Y-85899819D01*
X191317142Y-85899819D02*
X191221904Y-85947438D01*
X191221904Y-85947438D02*
X191174285Y-85995057D01*
X191174285Y-85995057D02*
X191126666Y-86090295D01*
X191126666Y-86090295D02*
X191126666Y-86233152D01*
X191126666Y-86233152D02*
X191174285Y-86328390D01*
X191174285Y-86328390D02*
X191221904Y-86376009D01*
X191221904Y-86376009D02*
X191317142Y-86423628D01*
X191317142Y-86423628D02*
X191698094Y-86423628D01*
X190793332Y-85899819D02*
X190174285Y-85899819D01*
X190174285Y-85899819D02*
X190507618Y-86280771D01*
X190507618Y-86280771D02*
X190364761Y-86280771D01*
X190364761Y-86280771D02*
X190269523Y-86328390D01*
X190269523Y-86328390D02*
X190221904Y-86376009D01*
X190221904Y-86376009D02*
X190174285Y-86471247D01*
X190174285Y-86471247D02*
X190174285Y-86709342D01*
X190174285Y-86709342D02*
X190221904Y-86804580D01*
X190221904Y-86804580D02*
X190269523Y-86852200D01*
X190269523Y-86852200D02*
X190364761Y-86899819D01*
X190364761Y-86899819D02*
X190650475Y-86899819D01*
X190650475Y-86899819D02*
X190745713Y-86852200D01*
X190745713Y-86852200D02*
X190793332Y-86804580D01*
X195664285Y-86899819D02*
X195664285Y-85899819D01*
X195664285Y-85899819D02*
X195283333Y-85899819D01*
X195283333Y-85899819D02*
X195188095Y-85947438D01*
X195188095Y-85947438D02*
X195140476Y-85995057D01*
X195140476Y-85995057D02*
X195092857Y-86090295D01*
X195092857Y-86090295D02*
X195092857Y-86233152D01*
X195092857Y-86233152D02*
X195140476Y-86328390D01*
X195140476Y-86328390D02*
X195188095Y-86376009D01*
X195188095Y-86376009D02*
X195283333Y-86423628D01*
X195283333Y-86423628D02*
X195664285Y-86423628D01*
X194140476Y-86899819D02*
X194711904Y-86899819D01*
X194426190Y-86899819D02*
X194426190Y-85899819D01*
X194426190Y-85899819D02*
X194521428Y-86042676D01*
X194521428Y-86042676D02*
X194616666Y-86137914D01*
X194616666Y-86137914D02*
X194711904Y-86185533D01*
X193283333Y-85899819D02*
X193473809Y-85899819D01*
X193473809Y-85899819D02*
X193569047Y-85947438D01*
X193569047Y-85947438D02*
X193616666Y-85995057D01*
X193616666Y-85995057D02*
X193711904Y-86137914D01*
X193711904Y-86137914D02*
X193759523Y-86328390D01*
X193759523Y-86328390D02*
X193759523Y-86709342D01*
X193759523Y-86709342D02*
X193711904Y-86804580D01*
X193711904Y-86804580D02*
X193664285Y-86852200D01*
X193664285Y-86852200D02*
X193569047Y-86899819D01*
X193569047Y-86899819D02*
X193378571Y-86899819D01*
X193378571Y-86899819D02*
X193283333Y-86852200D01*
X193283333Y-86852200D02*
X193235714Y-86804580D01*
X193235714Y-86804580D02*
X193188095Y-86709342D01*
X193188095Y-86709342D02*
X193188095Y-86471247D01*
X193188095Y-86471247D02*
X193235714Y-86376009D01*
X193235714Y-86376009D02*
X193283333Y-86328390D01*
X193283333Y-86328390D02*
X193378571Y-86280771D01*
X193378571Y-86280771D02*
X193569047Y-86280771D01*
X193569047Y-86280771D02*
X193664285Y-86328390D01*
X193664285Y-86328390D02*
X193711904Y-86376009D01*
X193711904Y-86376009D02*
X193759523Y-86471247D01*
X191698094Y-89439819D02*
X191698094Y-88439819D01*
X191698094Y-88439819D02*
X191317142Y-88439819D01*
X191317142Y-88439819D02*
X191221904Y-88487438D01*
X191221904Y-88487438D02*
X191174285Y-88535057D01*
X191174285Y-88535057D02*
X191126666Y-88630295D01*
X191126666Y-88630295D02*
X191126666Y-88773152D01*
X191126666Y-88773152D02*
X191174285Y-88868390D01*
X191174285Y-88868390D02*
X191221904Y-88916009D01*
X191221904Y-88916009D02*
X191317142Y-88963628D01*
X191317142Y-88963628D02*
X191698094Y-88963628D01*
X190650475Y-89439819D02*
X190459999Y-89439819D01*
X190459999Y-89439819D02*
X190364761Y-89392200D01*
X190364761Y-89392200D02*
X190317142Y-89344580D01*
X190317142Y-89344580D02*
X190221904Y-89201723D01*
X190221904Y-89201723D02*
X190174285Y-89011247D01*
X190174285Y-89011247D02*
X190174285Y-88630295D01*
X190174285Y-88630295D02*
X190221904Y-88535057D01*
X190221904Y-88535057D02*
X190269523Y-88487438D01*
X190269523Y-88487438D02*
X190364761Y-88439819D01*
X190364761Y-88439819D02*
X190555237Y-88439819D01*
X190555237Y-88439819D02*
X190650475Y-88487438D01*
X190650475Y-88487438D02*
X190698094Y-88535057D01*
X190698094Y-88535057D02*
X190745713Y-88630295D01*
X190745713Y-88630295D02*
X190745713Y-88868390D01*
X190745713Y-88868390D02*
X190698094Y-88963628D01*
X190698094Y-88963628D02*
X190650475Y-89011247D01*
X190650475Y-89011247D02*
X190555237Y-89058866D01*
X190555237Y-89058866D02*
X190364761Y-89058866D01*
X190364761Y-89058866D02*
X190269523Y-89011247D01*
X190269523Y-89011247D02*
X190221904Y-88963628D01*
X190221904Y-88963628D02*
X190174285Y-88868390D01*
X195664285Y-89439819D02*
X195664285Y-88439819D01*
X195664285Y-88439819D02*
X195283333Y-88439819D01*
X195283333Y-88439819D02*
X195188095Y-88487438D01*
X195188095Y-88487438D02*
X195140476Y-88535057D01*
X195140476Y-88535057D02*
X195092857Y-88630295D01*
X195092857Y-88630295D02*
X195092857Y-88773152D01*
X195092857Y-88773152D02*
X195140476Y-88868390D01*
X195140476Y-88868390D02*
X195188095Y-88916009D01*
X195188095Y-88916009D02*
X195283333Y-88963628D01*
X195283333Y-88963628D02*
X195664285Y-88963628D01*
X194140476Y-89439819D02*
X194711904Y-89439819D01*
X194426190Y-89439819D02*
X194426190Y-88439819D01*
X194426190Y-88439819D02*
X194521428Y-88582676D01*
X194521428Y-88582676D02*
X194616666Y-88677914D01*
X194616666Y-88677914D02*
X194711904Y-88725533D01*
X193521428Y-88439819D02*
X193426190Y-88439819D01*
X193426190Y-88439819D02*
X193330952Y-88487438D01*
X193330952Y-88487438D02*
X193283333Y-88535057D01*
X193283333Y-88535057D02*
X193235714Y-88630295D01*
X193235714Y-88630295D02*
X193188095Y-88820771D01*
X193188095Y-88820771D02*
X193188095Y-89058866D01*
X193188095Y-89058866D02*
X193235714Y-89249342D01*
X193235714Y-89249342D02*
X193283333Y-89344580D01*
X193283333Y-89344580D02*
X193330952Y-89392200D01*
X193330952Y-89392200D02*
X193426190Y-89439819D01*
X193426190Y-89439819D02*
X193521428Y-89439819D01*
X193521428Y-89439819D02*
X193616666Y-89392200D01*
X193616666Y-89392200D02*
X193664285Y-89344580D01*
X193664285Y-89344580D02*
X193711904Y-89249342D01*
X193711904Y-89249342D02*
X193759523Y-89058866D01*
X193759523Y-89058866D02*
X193759523Y-88820771D01*
X193759523Y-88820771D02*
X193711904Y-88630295D01*
X193711904Y-88630295D02*
X193664285Y-88535057D01*
X193664285Y-88535057D02*
X193616666Y-88487438D01*
X193616666Y-88487438D02*
X193521428Y-88439819D01*
X202819047Y-101954819D02*
X202628571Y-101954819D01*
X202628571Y-101954819D02*
X202533333Y-102002438D01*
X202533333Y-102002438D02*
X202438095Y-102097676D01*
X202438095Y-102097676D02*
X202390476Y-102288152D01*
X202390476Y-102288152D02*
X202390476Y-102621485D01*
X202390476Y-102621485D02*
X202438095Y-102811961D01*
X202438095Y-102811961D02*
X202533333Y-102907200D01*
X202533333Y-102907200D02*
X202628571Y-102954819D01*
X202628571Y-102954819D02*
X202819047Y-102954819D01*
X202819047Y-102954819D02*
X202914285Y-102907200D01*
X202914285Y-102907200D02*
X203009523Y-102811961D01*
X203009523Y-102811961D02*
X203057142Y-102621485D01*
X203057142Y-102621485D02*
X203057142Y-102288152D01*
X203057142Y-102288152D02*
X203009523Y-102097676D01*
X203009523Y-102097676D02*
X202914285Y-102002438D01*
X202914285Y-102002438D02*
X202819047Y-101954819D01*
X201961904Y-102954819D02*
X201961904Y-101954819D01*
X201961904Y-101954819D02*
X201390476Y-102954819D01*
X201390476Y-102954819D02*
X201390476Y-101954819D01*
X203152380Y-111954819D02*
X202961904Y-111954819D01*
X202961904Y-111954819D02*
X202866666Y-112002438D01*
X202866666Y-112002438D02*
X202771428Y-112097676D01*
X202771428Y-112097676D02*
X202723809Y-112288152D01*
X202723809Y-112288152D02*
X202723809Y-112621485D01*
X202723809Y-112621485D02*
X202771428Y-112811961D01*
X202771428Y-112811961D02*
X202866666Y-112907200D01*
X202866666Y-112907200D02*
X202961904Y-112954819D01*
X202961904Y-112954819D02*
X203152380Y-112954819D01*
X203152380Y-112954819D02*
X203247618Y-112907200D01*
X203247618Y-112907200D02*
X203342856Y-112811961D01*
X203342856Y-112811961D02*
X203390475Y-112621485D01*
X203390475Y-112621485D02*
X203390475Y-112288152D01*
X203390475Y-112288152D02*
X203342856Y-112097676D01*
X203342856Y-112097676D02*
X203247618Y-112002438D01*
X203247618Y-112002438D02*
X203152380Y-111954819D01*
X201961904Y-112431009D02*
X202295237Y-112431009D01*
X202295237Y-112954819D02*
X202295237Y-111954819D01*
X202295237Y-111954819D02*
X201819047Y-111954819D01*
X201104761Y-112431009D02*
X201438094Y-112431009D01*
X201438094Y-112954819D02*
X201438094Y-111954819D01*
X201438094Y-111954819D02*
X200961904Y-111954819D01*
X202354819Y-94920618D02*
X201878628Y-94587285D01*
X202354819Y-94349190D02*
X201354819Y-94349190D01*
X201354819Y-94349190D02*
X201354819Y-94730142D01*
X201354819Y-94730142D02*
X201402438Y-94825380D01*
X201402438Y-94825380D02*
X201450057Y-94872999D01*
X201450057Y-94872999D02*
X201545295Y-94920618D01*
X201545295Y-94920618D02*
X201688152Y-94920618D01*
X201688152Y-94920618D02*
X201783390Y-94872999D01*
X201783390Y-94872999D02*
X201831009Y-94825380D01*
X201831009Y-94825380D02*
X201878628Y-94730142D01*
X201878628Y-94730142D02*
X201878628Y-94349190D01*
X201831009Y-95349190D02*
X201831009Y-95682523D01*
X202354819Y-95825380D02*
X202354819Y-95349190D01*
X202354819Y-95349190D02*
X201354819Y-95349190D01*
X201354819Y-95349190D02*
X201354819Y-95825380D01*
X202307200Y-96206333D02*
X202354819Y-96349190D01*
X202354819Y-96349190D02*
X202354819Y-96587285D01*
X202354819Y-96587285D02*
X202307200Y-96682523D01*
X202307200Y-96682523D02*
X202259580Y-96730142D01*
X202259580Y-96730142D02*
X202164342Y-96777761D01*
X202164342Y-96777761D02*
X202069104Y-96777761D01*
X202069104Y-96777761D02*
X201973866Y-96730142D01*
X201973866Y-96730142D02*
X201926247Y-96682523D01*
X201926247Y-96682523D02*
X201878628Y-96587285D01*
X201878628Y-96587285D02*
X201831009Y-96396809D01*
X201831009Y-96396809D02*
X201783390Y-96301571D01*
X201783390Y-96301571D02*
X201735771Y-96253952D01*
X201735771Y-96253952D02*
X201640533Y-96206333D01*
X201640533Y-96206333D02*
X201545295Y-96206333D01*
X201545295Y-96206333D02*
X201450057Y-96253952D01*
X201450057Y-96253952D02*
X201402438Y-96301571D01*
X201402438Y-96301571D02*
X201354819Y-96396809D01*
X201354819Y-96396809D02*
X201354819Y-96634904D01*
X201354819Y-96634904D02*
X201402438Y-96777761D01*
X201831009Y-97206333D02*
X201831009Y-97539666D01*
X202354819Y-97682523D02*
X202354819Y-97206333D01*
X202354819Y-97206333D02*
X201354819Y-97206333D01*
X201354819Y-97206333D02*
X201354819Y-97682523D01*
X201354819Y-97968238D02*
X201354819Y-98539666D01*
X202354819Y-98253952D02*
X201354819Y-98253952D01*
X98500000Y-91800000D02*
X98000000Y-92300000D01*
X101500000Y-91800000D02*
X98500000Y-91800000D01*
X102000000Y-92300000D02*
X101500000Y-91800000D01*
X102000000Y-92300000D02*
X102000000Y-93220000D01*
X102520000Y-93800000D02*
X107000000Y-93800000D01*
X107000000Y-93800000D02*
X107000000Y-94400000D01*
X102520000Y-93800000D02*
G75*
G02*
X102000000Y-93220000I30000J550000D01*
G01*
X98500000Y-96300000D02*
X98000000Y-95800000D01*
X100800000Y-96300000D02*
X98500000Y-96300000D01*
X102500000Y-98500000D02*
X102500000Y-97800000D01*
X107000000Y-98500000D02*
X102500000Y-98500000D01*
X107000000Y-98000000D02*
X107000000Y-98500000D01*
X100800000Y-96300000D02*
G75*
G02*
X102500000Y-97780000I110000J-1590000D01*
G01*
X98500000Y-74800000D02*
X98000000Y-75300000D01*
X101500000Y-74800000D02*
X98500000Y-74800000D01*
X102000000Y-75300000D02*
X101500000Y-74800000D01*
X102000000Y-75300000D02*
X102000000Y-76220000D01*
X102520000Y-76800000D02*
X107000000Y-76800000D01*
X107000000Y-76800000D02*
X107000000Y-77400000D01*
X102520000Y-76800000D02*
G75*
G02*
X102000000Y-76220000I30000J550000D01*
G01*
X98500000Y-79300000D02*
X98000000Y-78800000D01*
X100800000Y-79300000D02*
X98500000Y-79300000D01*
X102500000Y-81500000D02*
X102500000Y-80800000D01*
X107000000Y-81500000D02*
X102500000Y-81500000D01*
X107000000Y-81000000D02*
X107000000Y-81500000D01*
X100800000Y-79300000D02*
G75*
G02*
X102500000Y-80780000I110000J-1590000D01*
G01*
X98500000Y-57800000D02*
X98000000Y-58300000D01*
X101500000Y-57800000D02*
X98500000Y-57800000D01*
X102000000Y-58300000D02*
X101500000Y-57800000D01*
X102000000Y-58300000D02*
X102000000Y-59220000D01*
X102520000Y-59800000D02*
X107000000Y-59800000D01*
X107000000Y-59800000D02*
X107000000Y-60400000D01*
X102520000Y-59800000D02*
G75*
G02*
X102000000Y-59220000I30000J550000D01*
G01*
X98500000Y-62300000D02*
X98000000Y-61800000D01*
X100800000Y-62300000D02*
X98500000Y-62300000D01*
X102500000Y-64500000D02*
X102500000Y-63800000D01*
X107000000Y-64500000D02*
X102500000Y-64500000D01*
X107000000Y-64000000D02*
X107000000Y-64500000D01*
X100800000Y-62300000D02*
G75*
G02*
X102500000Y-63780000I110000J-1590000D01*
G01*
X116500000Y-81175000D02*
X116000000Y-81675000D01*
X119500000Y-81175000D02*
X116500000Y-81175000D01*
X120000000Y-81675000D02*
X119500000Y-81175000D01*
X120000000Y-81675000D02*
X120000000Y-82595000D01*
X120520000Y-83175000D02*
X125000000Y-83175000D01*
X125000000Y-83175000D02*
X125000000Y-83775000D01*
X120520000Y-83175000D02*
G75*
G02*
X120000000Y-82595000I30000J550000D01*
G01*
X116500000Y-85675000D02*
X116000000Y-85175000D01*
X118800000Y-85675000D02*
X116500000Y-85675000D01*
X120500000Y-87875000D02*
X120500000Y-87175000D01*
X125000000Y-87875000D02*
X120500000Y-87875000D01*
X125000000Y-87375000D02*
X125000000Y-87875000D01*
X118800000Y-85675000D02*
G75*
G02*
X120500000Y-87155000I110000J-1590000D01*
G01*
X116500000Y-64175000D02*
X116000000Y-64675000D01*
X119500000Y-64175000D02*
X116500000Y-64175000D01*
X120000000Y-64675000D02*
X119500000Y-64175000D01*
X120000000Y-64675000D02*
X120000000Y-65595000D01*
X120520000Y-66175000D02*
X125000000Y-66175000D01*
X125000000Y-66175000D02*
X125000000Y-66775000D01*
X120520000Y-66175000D02*
G75*
G02*
X120000000Y-65595000I30000J550000D01*
G01*
X116500000Y-68675000D02*
X116000000Y-68175000D01*
X118800000Y-68675000D02*
X116500000Y-68675000D01*
X120500000Y-70875000D02*
X120500000Y-70175000D01*
X125000000Y-70875000D02*
X120500000Y-70875000D01*
X125000000Y-70375000D02*
X125000000Y-70875000D01*
X118800000Y-68675000D02*
G75*
G02*
X120500000Y-70155000I110000J-1590000D01*
G01*
X116500000Y-47175000D02*
X116000000Y-47675000D01*
X119500000Y-47175000D02*
X116500000Y-47175000D01*
X120000000Y-47675000D02*
X119500000Y-47175000D01*
X120000000Y-47675000D02*
X120000000Y-48595000D01*
X120520000Y-49175000D02*
X125000000Y-49175000D01*
X125000000Y-49175000D02*
X125000000Y-49775000D01*
X120520000Y-49175000D02*
G75*
G02*
X120000000Y-48595000I30000J550000D01*
G01*
X116500000Y-51675000D02*
X116000000Y-51175000D01*
X118800000Y-51675000D02*
X116500000Y-51675000D01*
X120500000Y-53875000D02*
X120500000Y-53175000D01*
X125000000Y-53875000D02*
X120500000Y-53875000D01*
X125000000Y-53375000D02*
X125000000Y-53875000D01*
X118800000Y-51675000D02*
G75*
G02*
X120500000Y-53155000I110000J-1590000D01*
G01*
X134500000Y-79050000D02*
X134000000Y-79550000D01*
X137500000Y-79050000D02*
X134500000Y-79050000D01*
X138000000Y-79550000D02*
X137500000Y-79050000D01*
X138000000Y-79550000D02*
X138000000Y-80470000D01*
X138520000Y-81050000D02*
X143000000Y-81050000D01*
X143000000Y-81050000D02*
X143000000Y-81650000D01*
X138520000Y-81050000D02*
G75*
G02*
X138000000Y-80470000I30000J550000D01*
G01*
X134500000Y-83550000D02*
X134000000Y-83050000D01*
X136800000Y-83550000D02*
X134500000Y-83550000D01*
X138500000Y-85750000D02*
X138500000Y-85050000D01*
X143000000Y-85750000D02*
X138500000Y-85750000D01*
X143000000Y-85250000D02*
X143000000Y-85750000D01*
X136800000Y-83550000D02*
G75*
G02*
X138500000Y-85030000I110000J-1590000D01*
G01*
X134500000Y-62050000D02*
X134000000Y-62550000D01*
X137500000Y-62050000D02*
X134500000Y-62050000D01*
X138000000Y-62550000D02*
X137500000Y-62050000D01*
X138000000Y-62550000D02*
X138000000Y-63470000D01*
X138520000Y-64050000D02*
X143000000Y-64050000D01*
X143000000Y-64050000D02*
X143000000Y-64650000D01*
X138520000Y-64050000D02*
G75*
G02*
X138000000Y-63470000I30000J550000D01*
G01*
X134500000Y-66550000D02*
X134000000Y-66050000D01*
X136800000Y-66550000D02*
X134500000Y-66550000D01*
X138500000Y-68750000D02*
X138500000Y-68050000D01*
X143000000Y-68750000D02*
X138500000Y-68750000D01*
X143000000Y-68250000D02*
X143000000Y-68750000D01*
X136800000Y-66550000D02*
G75*
G02*
X138500000Y-68030000I110000J-1590000D01*
G01*
X134500000Y-45050000D02*
X134000000Y-45550000D01*
X137500000Y-45050000D02*
X134500000Y-45050000D01*
X138000000Y-45550000D02*
X137500000Y-45050000D01*
X138000000Y-45550000D02*
X138000000Y-46470000D01*
X138520000Y-47050000D02*
X143000000Y-47050000D01*
X143000000Y-47050000D02*
X143000000Y-47650000D01*
X138520000Y-47050000D02*
G75*
G02*
X138000000Y-46470000I30000J550000D01*
G01*
X134500000Y-49550000D02*
X134000000Y-49050000D01*
X136800000Y-49550000D02*
X134500000Y-49550000D01*
X138500000Y-51750000D02*
X138500000Y-51050000D01*
X143000000Y-51750000D02*
X138500000Y-51750000D01*
X143000000Y-51250000D02*
X143000000Y-51750000D01*
X136800000Y-49550000D02*
G75*
G02*
X138500000Y-51030000I110000J-1590000D01*
G01*
X152500000Y-85425000D02*
X152000000Y-85925000D01*
X155500000Y-85425000D02*
X152500000Y-85425000D01*
X156000000Y-85925000D02*
X155500000Y-85425000D01*
X156000000Y-85925000D02*
X156000000Y-86845000D01*
X156520000Y-87425000D02*
X161000000Y-87425000D01*
X161000000Y-87425000D02*
X161000000Y-88025000D01*
X156520000Y-87425000D02*
G75*
G02*
X156000000Y-86845000I30000J550000D01*
G01*
X152500000Y-89925000D02*
X152000000Y-89425000D01*
X154800000Y-89925000D02*
X152500000Y-89925000D01*
X156500000Y-92125000D02*
X156500000Y-91425000D01*
X161000000Y-92125000D02*
X156500000Y-92125000D01*
X161000000Y-91625000D02*
X161000000Y-92125000D01*
X154800000Y-89925000D02*
G75*
G02*
X156500000Y-91405000I110000J-1590000D01*
G01*
X152500000Y-68425000D02*
X152000000Y-68925000D01*
X155500000Y-68425000D02*
X152500000Y-68425000D01*
X156000000Y-68925000D02*
X155500000Y-68425000D01*
X156000000Y-68925000D02*
X156000000Y-69845000D01*
X156520000Y-70425000D02*
X161000000Y-70425000D01*
X161000000Y-70425000D02*
X161000000Y-71025000D01*
X156520000Y-70425000D02*
G75*
G02*
X156000000Y-69845000I30000J550000D01*
G01*
X152500000Y-72925000D02*
X152000000Y-72425000D01*
X154800000Y-72925000D02*
X152500000Y-72925000D01*
X156500000Y-75125000D02*
X156500000Y-74425000D01*
X161000000Y-75125000D02*
X156500000Y-75125000D01*
X161000000Y-74625000D02*
X161000000Y-75125000D01*
X154800000Y-72925000D02*
G75*
G02*
X156500000Y-74405000I110000J-1590000D01*
G01*
X152500000Y-51425000D02*
X152000000Y-51925000D01*
X155500000Y-51425000D02*
X152500000Y-51425000D01*
X156000000Y-51925000D02*
X155500000Y-51425000D01*
X156000000Y-51925000D02*
X156000000Y-52845000D01*
X156520000Y-53425000D02*
X161000000Y-53425000D01*
X161000000Y-53425000D02*
X161000000Y-54025000D01*
X156520000Y-53425000D02*
G75*
G02*
X156000000Y-52845000I30000J550000D01*
G01*
X152500000Y-55925000D02*
X152000000Y-55425000D01*
X154800000Y-55925000D02*
X152500000Y-55925000D01*
X156500000Y-58125000D02*
X156500000Y-57425000D01*
X161000000Y-58125000D02*
X156500000Y-58125000D01*
X161000000Y-57625000D02*
X161000000Y-58125000D01*
X154800000Y-55925000D02*
G75*
G02*
X156500000Y-57405000I110000J-1590000D01*
G01*
X170500000Y-87550000D02*
X170000000Y-88050000D01*
X173500000Y-87550000D02*
X170500000Y-87550000D01*
X174000000Y-88050000D02*
X173500000Y-87550000D01*
X174000000Y-88050000D02*
X174000000Y-88970000D01*
X174520000Y-89550000D02*
X179000000Y-89550000D01*
X179000000Y-89550000D02*
X179000000Y-90150000D01*
X174520000Y-89550000D02*
G75*
G02*
X174000000Y-88970000I30000J550000D01*
G01*
X170500000Y-92050000D02*
X170000000Y-91550000D01*
X172800000Y-92050000D02*
X170500000Y-92050000D01*
X174500000Y-94250000D02*
X174500000Y-93550000D01*
X179000000Y-94250000D02*
X174500000Y-94250000D01*
X179000000Y-93750000D02*
X179000000Y-94250000D01*
X172800000Y-92050000D02*
G75*
G02*
X174500000Y-93530000I110000J-1590000D01*
G01*
X170500000Y-70550000D02*
X170000000Y-71050000D01*
X173500000Y-70550000D02*
X170500000Y-70550000D01*
X174000000Y-71050000D02*
X173500000Y-70550000D01*
X174000000Y-71050000D02*
X174000000Y-71970000D01*
X174520000Y-72550000D02*
X179000000Y-72550000D01*
X179000000Y-72550000D02*
X179000000Y-73150000D01*
X174520000Y-72550000D02*
G75*
G02*
X174000000Y-71970000I30000J550000D01*
G01*
X170500000Y-75050000D02*
X170000000Y-74550000D01*
X172800000Y-75050000D02*
X170500000Y-75050000D01*
X174500000Y-77250000D02*
X174500000Y-76550000D01*
X179000000Y-77250000D02*
X174500000Y-77250000D01*
X179000000Y-76750000D02*
X179000000Y-77250000D01*
X172800000Y-75050000D02*
G75*
G02*
X174500000Y-76530000I110000J-1590000D01*
G01*
X170500000Y-53550000D02*
X170000000Y-54050000D01*
X173500000Y-53550000D02*
X170500000Y-53550000D01*
X174000000Y-54050000D02*
X173500000Y-53550000D01*
X174000000Y-54050000D02*
X174000000Y-54970000D01*
X174520000Y-55550000D02*
X179000000Y-55550000D01*
X179000000Y-55550000D02*
X179000000Y-56150000D01*
X174520000Y-55550000D02*
G75*
G02*
X174000000Y-54970000I30000J550000D01*
G01*
X170500000Y-58050000D02*
X170000000Y-57550000D01*
X172800000Y-58050000D02*
X170500000Y-58050000D01*
X174500000Y-60250000D02*
X174500000Y-59550000D01*
X179000000Y-60250000D02*
X174500000Y-60250000D01*
X179000000Y-59750000D02*
X179000000Y-60250000D01*
X172800000Y-58050000D02*
G75*
G02*
X174500000Y-59530000I110000J-1590000D01*
G01*
X148900000Y-107950000D02*
X148400000Y-108450000D01*
X151900000Y-107950000D02*
X148900000Y-107950000D01*
X152400000Y-108450000D02*
X151900000Y-107950000D01*
X152400000Y-108450000D02*
X152400000Y-109370000D01*
X152920000Y-109950000D02*
X157400000Y-109950000D01*
X157400000Y-109950000D02*
X157400000Y-110550000D01*
X152920000Y-109950000D02*
G75*
G02*
X152400000Y-109370000I30000J550000D01*
G01*
X148900000Y-112450000D02*
X148400000Y-111950000D01*
X151200000Y-112450000D02*
X148900000Y-112450000D01*
X152900000Y-114650000D02*
X152900000Y-113950000D01*
X157400000Y-114650000D02*
X152900000Y-114650000D01*
X157400000Y-114150000D02*
X157400000Y-114650000D01*
X151200000Y-112450000D02*
G75*
G02*
X152900000Y-113930000I110000J-1590000D01*
G01*
X170966721Y-110460182D02*
X170354349Y-110813735D01*
X173864499Y-111236639D02*
X170966721Y-110460182D01*
X174218052Y-111849011D02*
X173864499Y-111236639D01*
X174218052Y-111849011D02*
X173979939Y-112737663D01*
X174332105Y-113432486D02*
X178659453Y-114591995D01*
X178659453Y-114591995D02*
X178504161Y-115171551D01*
X174332105Y-113432486D02*
G75*
G02*
X173979938Y-112737663I171328J523495D01*
G01*
X169802036Y-114806848D02*
X169448482Y-114194475D01*
X172023665Y-115402132D02*
X169802036Y-114806848D01*
X173096337Y-117967161D02*
X173277510Y-117291013D01*
X177443003Y-119131847D02*
X173096337Y-117967161D01*
X177572413Y-118648884D02*
X177443003Y-119131847D01*
X172023665Y-115402132D02*
G75*
G02*
X173282687Y-117271694I-305270J-1564292D01*
G01*
X191631856Y-118596119D02*
X190948843Y-118779131D01*
X194229932Y-120096119D02*
X191631856Y-118596119D01*
X194412945Y-120779131D02*
X194229932Y-120096119D01*
X194412945Y-120779131D02*
X193952945Y-121575875D01*
X194113278Y-122338169D02*
X197993072Y-124578169D01*
X197993072Y-124578169D02*
X197693072Y-125097785D01*
X194113278Y-122338169D02*
G75*
G02*
X193952946Y-121575875I300981J461313D01*
G01*
X189381856Y-122493233D02*
X189198843Y-121810220D01*
X191373714Y-123643233D02*
X189381856Y-122493233D01*
X191745958Y-126398489D02*
X192095958Y-125792271D01*
X195643072Y-128648489D02*
X191745958Y-126398489D01*
X195893072Y-128215476D02*
X195643072Y-128648489D01*
X191373714Y-123643233D02*
G75*
G02*
X192105957Y-125774950I-699737J-1431980D01*
G01*
D11*
X99750000Y-105000000D02*
X99250000Y-105000000D01*
X99750000Y-104600000D02*
X100350000Y-105000000D01*
X99750000Y-105400000D02*
X99750000Y-104600000D01*
X100350000Y-105000000D02*
X99750000Y-105400000D01*
X100350000Y-105000000D02*
X100350000Y-104450000D01*
X100350000Y-105000000D02*
X100350000Y-105550000D01*
X100750000Y-105000000D02*
X100350000Y-105000000D01*
X99750000Y-88000000D02*
X99250000Y-88000000D01*
X99750000Y-87600000D02*
X100350000Y-88000000D01*
X99750000Y-88400000D02*
X99750000Y-87600000D01*
X100350000Y-88000000D02*
X99750000Y-88400000D01*
X100350000Y-88000000D02*
X100350000Y-87450000D01*
X100350000Y-88000000D02*
X100350000Y-88550000D01*
X100750000Y-88000000D02*
X100350000Y-88000000D01*
X99750000Y-71000000D02*
X99250000Y-71000000D01*
X99750000Y-70600000D02*
X100350000Y-71000000D01*
X99750000Y-71400000D02*
X99750000Y-70600000D01*
X100350000Y-71000000D02*
X99750000Y-71400000D01*
X100350000Y-71000000D02*
X100350000Y-70450000D01*
X100350000Y-71000000D02*
X100350000Y-71550000D01*
X100750000Y-71000000D02*
X100350000Y-71000000D01*
X117750000Y-94375000D02*
X117250000Y-94375000D01*
X117750000Y-93975000D02*
X118350000Y-94375000D01*
X117750000Y-94775000D02*
X117750000Y-93975000D01*
X118350000Y-94375000D02*
X117750000Y-94775000D01*
X118350000Y-94375000D02*
X118350000Y-93825000D01*
X118350000Y-94375000D02*
X118350000Y-94925000D01*
X118750000Y-94375000D02*
X118350000Y-94375000D01*
X117750000Y-77375000D02*
X117250000Y-77375000D01*
X117750000Y-76975000D02*
X118350000Y-77375000D01*
X117750000Y-77775000D02*
X117750000Y-76975000D01*
X118350000Y-77375000D02*
X117750000Y-77775000D01*
X118350000Y-77375000D02*
X118350000Y-76825000D01*
X118350000Y-77375000D02*
X118350000Y-77925000D01*
X118750000Y-77375000D02*
X118350000Y-77375000D01*
X117750000Y-60375000D02*
X117250000Y-60375000D01*
X117750000Y-59975000D02*
X118350000Y-60375000D01*
X117750000Y-60775000D02*
X117750000Y-59975000D01*
X118350000Y-60375000D02*
X117750000Y-60775000D01*
X118350000Y-60375000D02*
X118350000Y-59825000D01*
X118350000Y-60375000D02*
X118350000Y-60925000D01*
X118750000Y-60375000D02*
X118350000Y-60375000D01*
X135750000Y-92250000D02*
X135250000Y-92250000D01*
X135750000Y-91850000D02*
X136350000Y-92250000D01*
X135750000Y-92650000D02*
X135750000Y-91850000D01*
X136350000Y-92250000D02*
X135750000Y-92650000D01*
X136350000Y-92250000D02*
X136350000Y-91700000D01*
X136350000Y-92250000D02*
X136350000Y-92800000D01*
X136750000Y-92250000D02*
X136350000Y-92250000D01*
X135750000Y-75250000D02*
X135250000Y-75250000D01*
X135750000Y-74850000D02*
X136350000Y-75250000D01*
X135750000Y-75650000D02*
X135750000Y-74850000D01*
X136350000Y-75250000D02*
X135750000Y-75650000D01*
X136350000Y-75250000D02*
X136350000Y-74700000D01*
X136350000Y-75250000D02*
X136350000Y-75800000D01*
X136750000Y-75250000D02*
X136350000Y-75250000D01*
X135750000Y-58250000D02*
X135250000Y-58250000D01*
X135750000Y-57850000D02*
X136350000Y-58250000D01*
X135750000Y-58650000D02*
X135750000Y-57850000D01*
X136350000Y-58250000D02*
X135750000Y-58650000D01*
X136350000Y-58250000D02*
X136350000Y-57700000D01*
X136350000Y-58250000D02*
X136350000Y-58800000D01*
X136750000Y-58250000D02*
X136350000Y-58250000D01*
X153750000Y-98625000D02*
X153250000Y-98625000D01*
X153750000Y-98225000D02*
X154350000Y-98625000D01*
X153750000Y-99025000D02*
X153750000Y-98225000D01*
X154350000Y-98625000D02*
X153750000Y-99025000D01*
X154350000Y-98625000D02*
X154350000Y-98075000D01*
X154350000Y-98625000D02*
X154350000Y-99175000D01*
X154750000Y-98625000D02*
X154350000Y-98625000D01*
X153750000Y-81625000D02*
X153250000Y-81625000D01*
X153750000Y-81225000D02*
X154350000Y-81625000D01*
X153750000Y-82025000D02*
X153750000Y-81225000D01*
X154350000Y-81625000D02*
X153750000Y-82025000D01*
X154350000Y-81625000D02*
X154350000Y-81075000D01*
X154350000Y-81625000D02*
X154350000Y-82175000D01*
X154750000Y-81625000D02*
X154350000Y-81625000D01*
X153750000Y-64625000D02*
X153250000Y-64625000D01*
X153750000Y-64225000D02*
X154350000Y-64625000D01*
X153750000Y-65025000D02*
X153750000Y-64225000D01*
X154350000Y-64625000D02*
X153750000Y-65025000D01*
X154350000Y-64625000D02*
X154350000Y-64075000D01*
X154350000Y-64625000D02*
X154350000Y-65175000D01*
X154750000Y-64625000D02*
X154350000Y-64625000D01*
X171750000Y-100750000D02*
X171250000Y-100750000D01*
X171750000Y-100350000D02*
X172350000Y-100750000D01*
X171750000Y-101150000D02*
X171750000Y-100350000D01*
X172350000Y-100750000D02*
X171750000Y-101150000D01*
X172350000Y-100750000D02*
X172350000Y-100200000D01*
X172350000Y-100750000D02*
X172350000Y-101300000D01*
X172750000Y-100750000D02*
X172350000Y-100750000D01*
X171750000Y-83750000D02*
X171250000Y-83750000D01*
X171750000Y-83350000D02*
X172350000Y-83750000D01*
X171750000Y-84150000D02*
X171750000Y-83350000D01*
X172350000Y-83750000D02*
X171750000Y-84150000D01*
X172350000Y-83750000D02*
X172350000Y-83200000D01*
X172350000Y-83750000D02*
X172350000Y-84300000D01*
X172750000Y-83750000D02*
X172350000Y-83750000D01*
X171750000Y-66750000D02*
X171250000Y-66750000D01*
X171750000Y-66350000D02*
X172350000Y-66750000D01*
X171750000Y-67150000D02*
X171750000Y-66350000D01*
X172350000Y-66750000D02*
X171750000Y-67150000D01*
X172350000Y-66750000D02*
X172350000Y-66200000D01*
X172350000Y-66750000D02*
X172350000Y-67300000D01*
X172750000Y-66750000D02*
X172350000Y-66750000D01*
X150150000Y-121150000D02*
X149650000Y-121150000D01*
X150150000Y-120750000D02*
X150750000Y-121150000D01*
X150150000Y-121550000D02*
X150150000Y-120750000D01*
X150750000Y-121150000D02*
X150150000Y-121550000D01*
X150750000Y-121150000D02*
X150750000Y-120600000D01*
X150750000Y-121150000D02*
X150750000Y-121700000D01*
X151150000Y-121150000D02*
X150750000Y-121150000D01*
X168757718Y-123533926D02*
X168274755Y-123404517D01*
X168861245Y-123147556D02*
X169337273Y-123689218D01*
X168654190Y-123920297D02*
X168861245Y-123147556D01*
X169337273Y-123689218D02*
X168654190Y-123920297D01*
X169337273Y-123689218D02*
X169479624Y-123157958D01*
X169337273Y-123689218D02*
X169194923Y-124220477D01*
X169723643Y-123792745D02*
X169337273Y-123689218D01*
X186114388Y-130652654D02*
X185681375Y-130402654D01*
X186314388Y-130306244D02*
X186634003Y-130952654D01*
X185914388Y-130999064D02*
X186314388Y-130306244D01*
X186634003Y-130952654D02*
X185914388Y-130999064D01*
X186634003Y-130952654D02*
X186909003Y-130476340D01*
X186634003Y-130952654D02*
X186359003Y-131428968D01*
X186980413Y-131152654D02*
X186634003Y-130952654D01*
D12*
X186710000Y-59715000D02*
X184050000Y-59715000D01*
X186710000Y-59715000D02*
X186710000Y-90315000D01*
X186710000Y-90315000D02*
X184050000Y-90315000D01*
X184050000Y-59715000D02*
X184050000Y-90315000D01*
X201950000Y-59715000D02*
X199290000Y-59715000D01*
X201950000Y-59715000D02*
X201950000Y-90315000D01*
X201950000Y-90315000D02*
X199290000Y-90315000D01*
X199290000Y-59715000D02*
X199290000Y-90315000D01*
X201950000Y-62315000D02*
X199290000Y-62315000D01*
X199410000Y-92745000D02*
X199410000Y-95405000D01*
X199410000Y-92745000D02*
X186590000Y-92745000D01*
X199410000Y-95405000D02*
X186590000Y-95405000D01*
X186590000Y-92745000D02*
X186590000Y-95405000D01*
X200775000Y-108900000D02*
X200775000Y-109100000D01*
X202615000Y-110950000D02*
X201825000Y-110950000D01*
X201825000Y-104050000D02*
X202615000Y-104050000D01*
X200775000Y-105900000D02*
X200775000Y-107600000D01*
X203625000Y-104650000D02*
X203625000Y-110350000D01*
D10*
X203400000Y-93500000D02*
X203650000Y-93500000D01*
X203650000Y-93500000D02*
X203650000Y-99500000D01*
X203650000Y-99500000D02*
X203400000Y-99500000D01*
X200400000Y-99500000D02*
X200150000Y-99500000D01*
X200150000Y-99500000D02*
X200150000Y-93500000D01*
X200150000Y-93500000D02*
X200400000Y-93500000D01*
D11*
X189600000Y-105125000D02*
X189600000Y-104125000D01*
X189600000Y-102125000D02*
X189600000Y-103125000D01*
X190100000Y-102625000D02*
X189100000Y-102625000D01*
D12*
X198460000Y-101565000D02*
X198460000Y-100565000D01*
X198460000Y-100565000D02*
X197460000Y-100565000D01*
X198460000Y-105765000D02*
X198460000Y-106685000D01*
X198460000Y-106685000D02*
X197460000Y-106685000D01*
X190640000Y-101485000D02*
X190640000Y-100565000D01*
X190640000Y-100565000D02*
X191640000Y-100565000D01*
X190640000Y-105765000D02*
X190640000Y-106685000D01*
X190640000Y-106685000D02*
X191640000Y-106685000D01*
%LPC*%
D13*
X185000000Y-105575000D03*
X201000000Y-114475000D03*
D14*
X109000000Y-74500000D03*
X109000000Y-91500000D03*
X163000000Y-68125000D03*
X141400000Y-107650000D03*
X181186589Y-112888004D03*
D15*
X100000000Y-100000000D03*
D16*
X105500000Y-100000000D03*
X94500000Y-100000000D03*
D17*
X100000000Y-94050000D03*
G36*
G01*
X95375000Y-95350000D02*
X95375000Y-92750000D01*
G75*
G02*
X95425000Y-92700000I50000J0D01*
G01*
X98025000Y-92700000D01*
G75*
G02*
X98075000Y-92750000I0J-50000D01*
G01*
X98075000Y-95350000D01*
G75*
G02*
X98025000Y-95400000I-50000J0D01*
G01*
X95425000Y-95400000D01*
G75*
G02*
X95375000Y-95350000I0J50000D01*
G01*
G37*
G36*
G01*
X106925000Y-97550000D02*
X106925000Y-94950000D01*
G75*
G02*
X106975000Y-94900000I50000J0D01*
G01*
X109575000Y-94900000D01*
G75*
G02*
X109625000Y-94950000I0J-50000D01*
G01*
X109625000Y-97550000D01*
G75*
G02*
X109575000Y-97600000I-50000J0D01*
G01*
X106975000Y-97600000D01*
G75*
G02*
X106925000Y-97550000I0J50000D01*
G01*
G37*
X105000000Y-96250000D03*
D15*
X100000000Y-83000000D03*
D16*
X105500000Y-83000000D03*
X94500000Y-83000000D03*
D17*
X100000000Y-77050000D03*
G36*
G01*
X95375000Y-78350000D02*
X95375000Y-75750000D01*
G75*
G02*
X95425000Y-75700000I50000J0D01*
G01*
X98025000Y-75700000D01*
G75*
G02*
X98075000Y-75750000I0J-50000D01*
G01*
X98075000Y-78350000D01*
G75*
G02*
X98025000Y-78400000I-50000J0D01*
G01*
X95425000Y-78400000D01*
G75*
G02*
X95375000Y-78350000I0J50000D01*
G01*
G37*
G36*
G01*
X106925000Y-80550000D02*
X106925000Y-77950000D01*
G75*
G02*
X106975000Y-77900000I50000J0D01*
G01*
X109575000Y-77900000D01*
G75*
G02*
X109625000Y-77950000I0J-50000D01*
G01*
X109625000Y-80550000D01*
G75*
G02*
X109575000Y-80600000I-50000J0D01*
G01*
X106975000Y-80600000D01*
G75*
G02*
X106925000Y-80550000I0J50000D01*
G01*
G37*
X105000000Y-79250000D03*
D15*
X100000000Y-66000000D03*
D16*
X105500000Y-66000000D03*
X94500000Y-66000000D03*
D17*
X100000000Y-60050000D03*
G36*
G01*
X95375000Y-61350000D02*
X95375000Y-58750000D01*
G75*
G02*
X95425000Y-58700000I50000J0D01*
G01*
X98025000Y-58700000D01*
G75*
G02*
X98075000Y-58750000I0J-50000D01*
G01*
X98075000Y-61350000D01*
G75*
G02*
X98025000Y-61400000I-50000J0D01*
G01*
X95425000Y-61400000D01*
G75*
G02*
X95375000Y-61350000I0J50000D01*
G01*
G37*
G36*
G01*
X106925000Y-63550000D02*
X106925000Y-60950000D01*
G75*
G02*
X106975000Y-60900000I50000J0D01*
G01*
X109575000Y-60900000D01*
G75*
G02*
X109625000Y-60950000I0J-50000D01*
G01*
X109625000Y-63550000D01*
G75*
G02*
X109575000Y-63600000I-50000J0D01*
G01*
X106975000Y-63600000D01*
G75*
G02*
X106925000Y-63550000I0J50000D01*
G01*
G37*
X105000000Y-62250000D03*
D15*
X118000000Y-89375000D03*
D16*
X123500000Y-89375000D03*
X112500000Y-89375000D03*
D17*
X118000000Y-83425000D03*
G36*
G01*
X113375000Y-84725000D02*
X113375000Y-82125000D01*
G75*
G02*
X113425000Y-82075000I50000J0D01*
G01*
X116025000Y-82075000D01*
G75*
G02*
X116075000Y-82125000I0J-50000D01*
G01*
X116075000Y-84725000D01*
G75*
G02*
X116025000Y-84775000I-50000J0D01*
G01*
X113425000Y-84775000D01*
G75*
G02*
X113375000Y-84725000I0J50000D01*
G01*
G37*
G36*
G01*
X124925000Y-86925000D02*
X124925000Y-84325000D01*
G75*
G02*
X124975000Y-84275000I50000J0D01*
G01*
X127575000Y-84275000D01*
G75*
G02*
X127625000Y-84325000I0J-50000D01*
G01*
X127625000Y-86925000D01*
G75*
G02*
X127575000Y-86975000I-50000J0D01*
G01*
X124975000Y-86975000D01*
G75*
G02*
X124925000Y-86925000I0J50000D01*
G01*
G37*
X123000000Y-85625000D03*
D15*
X118000000Y-72375000D03*
D16*
X123500000Y-72375000D03*
X112500000Y-72375000D03*
D17*
X118000000Y-66425000D03*
G36*
G01*
X113375000Y-67725000D02*
X113375000Y-65125000D01*
G75*
G02*
X113425000Y-65075000I50000J0D01*
G01*
X116025000Y-65075000D01*
G75*
G02*
X116075000Y-65125000I0J-50000D01*
G01*
X116075000Y-67725000D01*
G75*
G02*
X116025000Y-67775000I-50000J0D01*
G01*
X113425000Y-67775000D01*
G75*
G02*
X113375000Y-67725000I0J50000D01*
G01*
G37*
G36*
G01*
X124925000Y-69925000D02*
X124925000Y-67325000D01*
G75*
G02*
X124975000Y-67275000I50000J0D01*
G01*
X127575000Y-67275000D01*
G75*
G02*
X127625000Y-67325000I0J-50000D01*
G01*
X127625000Y-69925000D01*
G75*
G02*
X127575000Y-69975000I-50000J0D01*
G01*
X124975000Y-69975000D01*
G75*
G02*
X124925000Y-69925000I0J50000D01*
G01*
G37*
X123000000Y-68625000D03*
D15*
X118000000Y-55375000D03*
D16*
X123500000Y-55375000D03*
X112500000Y-55375000D03*
D17*
X118000000Y-49425000D03*
G36*
G01*
X113375000Y-50725000D02*
X113375000Y-48125000D01*
G75*
G02*
X113425000Y-48075000I50000J0D01*
G01*
X116025000Y-48075000D01*
G75*
G02*
X116075000Y-48125000I0J-50000D01*
G01*
X116075000Y-50725000D01*
G75*
G02*
X116025000Y-50775000I-50000J0D01*
G01*
X113425000Y-50775000D01*
G75*
G02*
X113375000Y-50725000I0J50000D01*
G01*
G37*
G36*
G01*
X124925000Y-52925000D02*
X124925000Y-50325000D01*
G75*
G02*
X124975000Y-50275000I50000J0D01*
G01*
X127575000Y-50275000D01*
G75*
G02*
X127625000Y-50325000I0J-50000D01*
G01*
X127625000Y-52925000D01*
G75*
G02*
X127575000Y-52975000I-50000J0D01*
G01*
X124975000Y-52975000D01*
G75*
G02*
X124925000Y-52925000I0J50000D01*
G01*
G37*
X123000000Y-51625000D03*
D15*
X136000000Y-87250000D03*
D16*
X141500000Y-87250000D03*
X130500000Y-87250000D03*
D17*
X136000000Y-81300000D03*
G36*
G01*
X131375000Y-82600000D02*
X131375000Y-80000000D01*
G75*
G02*
X131425000Y-79950000I50000J0D01*
G01*
X134025000Y-79950000D01*
G75*
G02*
X134075000Y-80000000I0J-50000D01*
G01*
X134075000Y-82600000D01*
G75*
G02*
X134025000Y-82650000I-50000J0D01*
G01*
X131425000Y-82650000D01*
G75*
G02*
X131375000Y-82600000I0J50000D01*
G01*
G37*
G36*
G01*
X142925000Y-84800000D02*
X142925000Y-82200000D01*
G75*
G02*
X142975000Y-82150000I50000J0D01*
G01*
X145575000Y-82150000D01*
G75*
G02*
X145625000Y-82200000I0J-50000D01*
G01*
X145625000Y-84800000D01*
G75*
G02*
X145575000Y-84850000I-50000J0D01*
G01*
X142975000Y-84850000D01*
G75*
G02*
X142925000Y-84800000I0J50000D01*
G01*
G37*
X141000000Y-83500000D03*
D15*
X136000000Y-70250000D03*
D16*
X141500000Y-70250000D03*
X130500000Y-70250000D03*
D17*
X136000000Y-64300000D03*
G36*
G01*
X131375000Y-65600000D02*
X131375000Y-63000000D01*
G75*
G02*
X131425000Y-62950000I50000J0D01*
G01*
X134025000Y-62950000D01*
G75*
G02*
X134075000Y-63000000I0J-50000D01*
G01*
X134075000Y-65600000D01*
G75*
G02*
X134025000Y-65650000I-50000J0D01*
G01*
X131425000Y-65650000D01*
G75*
G02*
X131375000Y-65600000I0J50000D01*
G01*
G37*
G36*
G01*
X142925000Y-67800000D02*
X142925000Y-65200000D01*
G75*
G02*
X142975000Y-65150000I50000J0D01*
G01*
X145575000Y-65150000D01*
G75*
G02*
X145625000Y-65200000I0J-50000D01*
G01*
X145625000Y-67800000D01*
G75*
G02*
X145575000Y-67850000I-50000J0D01*
G01*
X142975000Y-67850000D01*
G75*
G02*
X142925000Y-67800000I0J50000D01*
G01*
G37*
X141000000Y-66500000D03*
D15*
X136000000Y-53250000D03*
D16*
X141500000Y-53250000D03*
X130500000Y-53250000D03*
D17*
X136000000Y-47300000D03*
G36*
G01*
X131375000Y-48600000D02*
X131375000Y-46000000D01*
G75*
G02*
X131425000Y-45950000I50000J0D01*
G01*
X134025000Y-45950000D01*
G75*
G02*
X134075000Y-46000000I0J-50000D01*
G01*
X134075000Y-48600000D01*
G75*
G02*
X134025000Y-48650000I-50000J0D01*
G01*
X131425000Y-48650000D01*
G75*
G02*
X131375000Y-48600000I0J50000D01*
G01*
G37*
G36*
G01*
X142925000Y-50800000D02*
X142925000Y-48200000D01*
G75*
G02*
X142975000Y-48150000I50000J0D01*
G01*
X145575000Y-48150000D01*
G75*
G02*
X145625000Y-48200000I0J-50000D01*
G01*
X145625000Y-50800000D01*
G75*
G02*
X145575000Y-50850000I-50000J0D01*
G01*
X142975000Y-50850000D01*
G75*
G02*
X142925000Y-50800000I0J50000D01*
G01*
G37*
X141000000Y-49500000D03*
D15*
X154000000Y-93625000D03*
D16*
X159500000Y-93625000D03*
X148500000Y-93625000D03*
D17*
X154000000Y-87675000D03*
G36*
G01*
X149375000Y-88975000D02*
X149375000Y-86375000D01*
G75*
G02*
X149425000Y-86325000I50000J0D01*
G01*
X152025000Y-86325000D01*
G75*
G02*
X152075000Y-86375000I0J-50000D01*
G01*
X152075000Y-88975000D01*
G75*
G02*
X152025000Y-89025000I-50000J0D01*
G01*
X149425000Y-89025000D01*
G75*
G02*
X149375000Y-88975000I0J50000D01*
G01*
G37*
G36*
G01*
X160925000Y-91175000D02*
X160925000Y-88575000D01*
G75*
G02*
X160975000Y-88525000I50000J0D01*
G01*
X163575000Y-88525000D01*
G75*
G02*
X163625000Y-88575000I0J-50000D01*
G01*
X163625000Y-91175000D01*
G75*
G02*
X163575000Y-91225000I-50000J0D01*
G01*
X160975000Y-91225000D01*
G75*
G02*
X160925000Y-91175000I0J50000D01*
G01*
G37*
X159000000Y-89875000D03*
D15*
X154000000Y-76625000D03*
D16*
X159500000Y-76625000D03*
X148500000Y-76625000D03*
D17*
X154000000Y-70675000D03*
G36*
G01*
X149375000Y-71975000D02*
X149375000Y-69375000D01*
G75*
G02*
X149425000Y-69325000I50000J0D01*
G01*
X152025000Y-69325000D01*
G75*
G02*
X152075000Y-69375000I0J-50000D01*
G01*
X152075000Y-71975000D01*
G75*
G02*
X152025000Y-72025000I-50000J0D01*
G01*
X149425000Y-72025000D01*
G75*
G02*
X149375000Y-71975000I0J50000D01*
G01*
G37*
G36*
G01*
X160925000Y-74175000D02*
X160925000Y-71575000D01*
G75*
G02*
X160975000Y-71525000I50000J0D01*
G01*
X163575000Y-71525000D01*
G75*
G02*
X163625000Y-71575000I0J-50000D01*
G01*
X163625000Y-74175000D01*
G75*
G02*
X163575000Y-74225000I-50000J0D01*
G01*
X160975000Y-74225000D01*
G75*
G02*
X160925000Y-74175000I0J50000D01*
G01*
G37*
X159000000Y-72875000D03*
D15*
X154000000Y-59625000D03*
D16*
X159500000Y-59625000D03*
X148500000Y-59625000D03*
D17*
X154000000Y-53675000D03*
G36*
G01*
X149375000Y-54975000D02*
X149375000Y-52375000D01*
G75*
G02*
X149425000Y-52325000I50000J0D01*
G01*
X152025000Y-52325000D01*
G75*
G02*
X152075000Y-52375000I0J-50000D01*
G01*
X152075000Y-54975000D01*
G75*
G02*
X152025000Y-55025000I-50000J0D01*
G01*
X149425000Y-55025000D01*
G75*
G02*
X149375000Y-54975000I0J50000D01*
G01*
G37*
G36*
G01*
X160925000Y-57175000D02*
X160925000Y-54575000D01*
G75*
G02*
X160975000Y-54525000I50000J0D01*
G01*
X163575000Y-54525000D01*
G75*
G02*
X163625000Y-54575000I0J-50000D01*
G01*
X163625000Y-57175000D01*
G75*
G02*
X163575000Y-57225000I-50000J0D01*
G01*
X160975000Y-57225000D01*
G75*
G02*
X160925000Y-57175000I0J50000D01*
G01*
G37*
X159000000Y-55875000D03*
D15*
X172000000Y-95750000D03*
D16*
X177500000Y-95750000D03*
X166500000Y-95750000D03*
D17*
X172000000Y-89800000D03*
G36*
G01*
X167375000Y-91100000D02*
X167375000Y-88500000D01*
G75*
G02*
X167425000Y-88450000I50000J0D01*
G01*
X170025000Y-88450000D01*
G75*
G02*
X170075000Y-88500000I0J-50000D01*
G01*
X170075000Y-91100000D01*
G75*
G02*
X170025000Y-91150000I-50000J0D01*
G01*
X167425000Y-91150000D01*
G75*
G02*
X167375000Y-91100000I0J50000D01*
G01*
G37*
G36*
G01*
X178925000Y-93300000D02*
X178925000Y-90700000D01*
G75*
G02*
X178975000Y-90650000I50000J0D01*
G01*
X181575000Y-90650000D01*
G75*
G02*
X181625000Y-90700000I0J-50000D01*
G01*
X181625000Y-93300000D01*
G75*
G02*
X181575000Y-93350000I-50000J0D01*
G01*
X178975000Y-93350000D01*
G75*
G02*
X178925000Y-93300000I0J50000D01*
G01*
G37*
X177000000Y-92000000D03*
D15*
X172000000Y-78750000D03*
D16*
X177500000Y-78750000D03*
X166500000Y-78750000D03*
D17*
X172000000Y-72800000D03*
G36*
G01*
X167375000Y-74100000D02*
X167375000Y-71500000D01*
G75*
G02*
X167425000Y-71450000I50000J0D01*
G01*
X170025000Y-71450000D01*
G75*
G02*
X170075000Y-71500000I0J-50000D01*
G01*
X170075000Y-74100000D01*
G75*
G02*
X170025000Y-74150000I-50000J0D01*
G01*
X167425000Y-74150000D01*
G75*
G02*
X167375000Y-74100000I0J50000D01*
G01*
G37*
G36*
G01*
X178925000Y-76300000D02*
X178925000Y-73700000D01*
G75*
G02*
X178975000Y-73650000I50000J0D01*
G01*
X181575000Y-73650000D01*
G75*
G02*
X181625000Y-73700000I0J-50000D01*
G01*
X181625000Y-76300000D01*
G75*
G02*
X181575000Y-76350000I-50000J0D01*
G01*
X178975000Y-76350000D01*
G75*
G02*
X178925000Y-76300000I0J50000D01*
G01*
G37*
X177000000Y-75000000D03*
D15*
X172000000Y-61750000D03*
D16*
X177500000Y-61750000D03*
X166500000Y-61750000D03*
D17*
X172000000Y-55800000D03*
G36*
G01*
X167375000Y-57100000D02*
X167375000Y-54500000D01*
G75*
G02*
X167425000Y-54450000I50000J0D01*
G01*
X170025000Y-54450000D01*
G75*
G02*
X170075000Y-54500000I0J-50000D01*
G01*
X170075000Y-57100000D01*
G75*
G02*
X170025000Y-57150000I-50000J0D01*
G01*
X167425000Y-57150000D01*
G75*
G02*
X167375000Y-57100000I0J50000D01*
G01*
G37*
G36*
G01*
X178925000Y-59300000D02*
X178925000Y-56700000D01*
G75*
G02*
X178975000Y-56650000I50000J0D01*
G01*
X181575000Y-56650000D01*
G75*
G02*
X181625000Y-56700000I0J-50000D01*
G01*
X181625000Y-59300000D01*
G75*
G02*
X181575000Y-59350000I-50000J0D01*
G01*
X178975000Y-59350000D01*
G75*
G02*
X178925000Y-59300000I0J50000D01*
G01*
G37*
X177000000Y-58000000D03*
D15*
X150400000Y-116150000D03*
D16*
X155900000Y-116150000D03*
X144900000Y-116150000D03*
D17*
X150400000Y-110200000D03*
G36*
G01*
X145775000Y-111500000D02*
X145775000Y-108900000D01*
G75*
G02*
X145825000Y-108850000I50000J0D01*
G01*
X148425000Y-108850000D01*
G75*
G02*
X148475000Y-108900000I0J-50000D01*
G01*
X148475000Y-111500000D01*
G75*
G02*
X148425000Y-111550000I-50000J0D01*
G01*
X145825000Y-111550000D01*
G75*
G02*
X145775000Y-111500000I0J50000D01*
G01*
G37*
G36*
G01*
X157325000Y-113700000D02*
X157325000Y-111100000D01*
G75*
G02*
X157375000Y-111050000I50000J0D01*
G01*
X159975000Y-111050000D01*
G75*
G02*
X160025000Y-111100000I0J-50000D01*
G01*
X160025000Y-113700000D01*
G75*
G02*
X159975000Y-113750000I-50000J0D01*
G01*
X157375000Y-113750000D01*
G75*
G02*
X157325000Y-113700000I0J50000D01*
G01*
G37*
X155400000Y-112400000D03*
D15*
X170293294Y-118769002D03*
D16*
X175605886Y-120192507D03*
X164980702Y-117345497D03*
D17*
X171833267Y-113021743D03*
G36*
G01*
X167029396Y-113080409D02*
X167702325Y-110569002D01*
G75*
G02*
X167763562Y-110533647I48296J-12941D01*
G01*
X170274969Y-111206576D01*
G75*
G02*
X170310324Y-111267813I-12941J-48296D01*
G01*
X169637395Y-113779220D01*
G75*
G02*
X169576158Y-113814575I-48296J12941D01*
G01*
X167064751Y-113141646D01*
G75*
G02*
X167029396Y-113080409I12941J48296D01*
G01*
G37*
G36*
G01*
X177616438Y-118194806D02*
X178289367Y-115683399D01*
G75*
G02*
X178350604Y-115648044I48296J-12941D01*
G01*
X180862011Y-116320973D01*
G75*
G02*
X180897366Y-116382210I-12941J-48296D01*
G01*
X180224437Y-118893617D01*
G75*
G02*
X180163200Y-118928972I-48296J12941D01*
G01*
X177651793Y-118256043D01*
G75*
G02*
X177616438Y-118194806I12941J48296D01*
G01*
G37*
X176093495Y-116440875D03*
D15*
X188830894Y-126447527D03*
D16*
X193594034Y-129197527D03*
X184067754Y-123697527D03*
D17*
X191805894Y-121294676D03*
G36*
G01*
X187150527Y-120108009D02*
X188450527Y-117856343D01*
G75*
G02*
X188518828Y-117838042I43301J-25000D01*
G01*
X190770494Y-119138042D01*
G75*
G02*
X190788795Y-119206343I-25000J-43301D01*
G01*
X189488795Y-121458009D01*
G75*
G02*
X189420494Y-121476310I-43301J25000D01*
G01*
X187168828Y-120176310D01*
G75*
G02*
X187150527Y-120108009I25000J43301D01*
G01*
G37*
G36*
G01*
X196053120Y-127788265D02*
X197353120Y-125536599D01*
G75*
G02*
X197421421Y-125518298I43301J-25000D01*
G01*
X199673087Y-126818298D01*
G75*
G02*
X199691388Y-126886599I-25000J-43301D01*
G01*
X198391388Y-129138265D01*
G75*
G02*
X198323087Y-129156566I-43301J25000D01*
G01*
X196071421Y-127856566D01*
G75*
G02*
X196053120Y-127788265I25000J43301D01*
G01*
G37*
X195036021Y-125699932D03*
G36*
G01*
X98850000Y-104400000D02*
X98850000Y-105600000D01*
G75*
G02*
X98800000Y-105650000I-50000J0D01*
G01*
X97900000Y-105650000D01*
G75*
G02*
X97850000Y-105600000I0J50000D01*
G01*
X97850000Y-104400000D01*
G75*
G02*
X97900000Y-104350000I50000J0D01*
G01*
X98800000Y-104350000D01*
G75*
G02*
X98850000Y-104400000I0J-50000D01*
G01*
G37*
G36*
G01*
X102150000Y-104400000D02*
X102150000Y-105600000D01*
G75*
G02*
X102100000Y-105650000I-50000J0D01*
G01*
X101200000Y-105650000D01*
G75*
G02*
X101150000Y-105600000I0J50000D01*
G01*
X101150000Y-104400000D01*
G75*
G02*
X101200000Y-104350000I50000J0D01*
G01*
X102100000Y-104350000D01*
G75*
G02*
X102150000Y-104400000I0J-50000D01*
G01*
G37*
G36*
G01*
X98850000Y-87400000D02*
X98850000Y-88600000D01*
G75*
G02*
X98800000Y-88650000I-50000J0D01*
G01*
X97900000Y-88650000D01*
G75*
G02*
X97850000Y-88600000I0J50000D01*
G01*
X97850000Y-87400000D01*
G75*
G02*
X97900000Y-87350000I50000J0D01*
G01*
X98800000Y-87350000D01*
G75*
G02*
X98850000Y-87400000I0J-50000D01*
G01*
G37*
G36*
G01*
X102150000Y-87400000D02*
X102150000Y-88600000D01*
G75*
G02*
X102100000Y-88650000I-50000J0D01*
G01*
X101200000Y-88650000D01*
G75*
G02*
X101150000Y-88600000I0J50000D01*
G01*
X101150000Y-87400000D01*
G75*
G02*
X101200000Y-87350000I50000J0D01*
G01*
X102100000Y-87350000D01*
G75*
G02*
X102150000Y-87400000I0J-50000D01*
G01*
G37*
G36*
G01*
X98850000Y-70400000D02*
X98850000Y-71600000D01*
G75*
G02*
X98800000Y-71650000I-50000J0D01*
G01*
X97900000Y-71650000D01*
G75*
G02*
X97850000Y-71600000I0J50000D01*
G01*
X97850000Y-70400000D01*
G75*
G02*
X97900000Y-70350000I50000J0D01*
G01*
X98800000Y-70350000D01*
G75*
G02*
X98850000Y-70400000I0J-50000D01*
G01*
G37*
G36*
G01*
X102150000Y-70400000D02*
X102150000Y-71600000D01*
G75*
G02*
X102100000Y-71650000I-50000J0D01*
G01*
X101200000Y-71650000D01*
G75*
G02*
X101150000Y-71600000I0J50000D01*
G01*
X101150000Y-70400000D01*
G75*
G02*
X101200000Y-70350000I50000J0D01*
G01*
X102100000Y-70350000D01*
G75*
G02*
X102150000Y-70400000I0J-50000D01*
G01*
G37*
G36*
G01*
X116850000Y-93775000D02*
X116850000Y-94975000D01*
G75*
G02*
X116800000Y-95025000I-50000J0D01*
G01*
X115900000Y-95025000D01*
G75*
G02*
X115850000Y-94975000I0J50000D01*
G01*
X115850000Y-93775000D01*
G75*
G02*
X115900000Y-93725000I50000J0D01*
G01*
X116800000Y-93725000D01*
G75*
G02*
X116850000Y-93775000I0J-50000D01*
G01*
G37*
G36*
G01*
X120150000Y-93775000D02*
X120150000Y-94975000D01*
G75*
G02*
X120100000Y-95025000I-50000J0D01*
G01*
X119200000Y-95025000D01*
G75*
G02*
X119150000Y-94975000I0J50000D01*
G01*
X119150000Y-93775000D01*
G75*
G02*
X119200000Y-93725000I50000J0D01*
G01*
X120100000Y-93725000D01*
G75*
G02*
X120150000Y-93775000I0J-50000D01*
G01*
G37*
G36*
G01*
X116850000Y-76775000D02*
X116850000Y-77975000D01*
G75*
G02*
X116800000Y-78025000I-50000J0D01*
G01*
X115900000Y-78025000D01*
G75*
G02*
X115850000Y-77975000I0J50000D01*
G01*
X115850000Y-76775000D01*
G75*
G02*
X115900000Y-76725000I50000J0D01*
G01*
X116800000Y-76725000D01*
G75*
G02*
X116850000Y-76775000I0J-50000D01*
G01*
G37*
G36*
G01*
X120150000Y-76775000D02*
X120150000Y-77975000D01*
G75*
G02*
X120100000Y-78025000I-50000J0D01*
G01*
X119200000Y-78025000D01*
G75*
G02*
X119150000Y-77975000I0J50000D01*
G01*
X119150000Y-76775000D01*
G75*
G02*
X119200000Y-76725000I50000J0D01*
G01*
X120100000Y-76725000D01*
G75*
G02*
X120150000Y-76775000I0J-50000D01*
G01*
G37*
G36*
G01*
X116850000Y-59775000D02*
X116850000Y-60975000D01*
G75*
G02*
X116800000Y-61025000I-50000J0D01*
G01*
X115900000Y-61025000D01*
G75*
G02*
X115850000Y-60975000I0J50000D01*
G01*
X115850000Y-59775000D01*
G75*
G02*
X115900000Y-59725000I50000J0D01*
G01*
X116800000Y-59725000D01*
G75*
G02*
X116850000Y-59775000I0J-50000D01*
G01*
G37*
G36*
G01*
X120150000Y-59775000D02*
X120150000Y-60975000D01*
G75*
G02*
X120100000Y-61025000I-50000J0D01*
G01*
X119200000Y-61025000D01*
G75*
G02*
X119150000Y-60975000I0J50000D01*
G01*
X119150000Y-59775000D01*
G75*
G02*
X119200000Y-59725000I50000J0D01*
G01*
X120100000Y-59725000D01*
G75*
G02*
X120150000Y-59775000I0J-50000D01*
G01*
G37*
G36*
G01*
X134850000Y-91650000D02*
X134850000Y-92850000D01*
G75*
G02*
X134800000Y-92900000I-50000J0D01*
G01*
X133900000Y-92900000D01*
G75*
G02*
X133850000Y-92850000I0J50000D01*
G01*
X133850000Y-91650000D01*
G75*
G02*
X133900000Y-91600000I50000J0D01*
G01*
X134800000Y-91600000D01*
G75*
G02*
X134850000Y-91650000I0J-50000D01*
G01*
G37*
G36*
G01*
X138150000Y-91650000D02*
X138150000Y-92850000D01*
G75*
G02*
X138100000Y-92900000I-50000J0D01*
G01*
X137200000Y-92900000D01*
G75*
G02*
X137150000Y-92850000I0J50000D01*
G01*
X137150000Y-91650000D01*
G75*
G02*
X137200000Y-91600000I50000J0D01*
G01*
X138100000Y-91600000D01*
G75*
G02*
X138150000Y-91650000I0J-50000D01*
G01*
G37*
G36*
G01*
X134850000Y-74650000D02*
X134850000Y-75850000D01*
G75*
G02*
X134800000Y-75900000I-50000J0D01*
G01*
X133900000Y-75900000D01*
G75*
G02*
X133850000Y-75850000I0J50000D01*
G01*
X133850000Y-74650000D01*
G75*
G02*
X133900000Y-74600000I50000J0D01*
G01*
X134800000Y-74600000D01*
G75*
G02*
X134850000Y-74650000I0J-50000D01*
G01*
G37*
G36*
G01*
X138150000Y-74650000D02*
X138150000Y-75850000D01*
G75*
G02*
X138100000Y-75900000I-50000J0D01*
G01*
X137200000Y-75900000D01*
G75*
G02*
X137150000Y-75850000I0J50000D01*
G01*
X137150000Y-74650000D01*
G75*
G02*
X137200000Y-74600000I50000J0D01*
G01*
X138100000Y-74600000D01*
G75*
G02*
X138150000Y-74650000I0J-50000D01*
G01*
G37*
G36*
G01*
X134850000Y-57650000D02*
X134850000Y-58850000D01*
G75*
G02*
X134800000Y-58900000I-50000J0D01*
G01*
X133900000Y-58900000D01*
G75*
G02*
X133850000Y-58850000I0J50000D01*
G01*
X133850000Y-57650000D01*
G75*
G02*
X133900000Y-57600000I50000J0D01*
G01*
X134800000Y-57600000D01*
G75*
G02*
X134850000Y-57650000I0J-50000D01*
G01*
G37*
G36*
G01*
X138150000Y-57650000D02*
X138150000Y-58850000D01*
G75*
G02*
X138100000Y-58900000I-50000J0D01*
G01*
X137200000Y-58900000D01*
G75*
G02*
X137150000Y-58850000I0J50000D01*
G01*
X137150000Y-57650000D01*
G75*
G02*
X137200000Y-57600000I50000J0D01*
G01*
X138100000Y-57600000D01*
G75*
G02*
X138150000Y-57650000I0J-50000D01*
G01*
G37*
G36*
G01*
X152850000Y-98025000D02*
X152850000Y-99225000D01*
G75*
G02*
X152800000Y-99275000I-50000J0D01*
G01*
X151900000Y-99275000D01*
G75*
G02*
X151850000Y-99225000I0J50000D01*
G01*
X151850000Y-98025000D01*
G75*
G02*
X151900000Y-97975000I50000J0D01*
G01*
X152800000Y-97975000D01*
G75*
G02*
X152850000Y-98025000I0J-50000D01*
G01*
G37*
G36*
G01*
X156150000Y-98025000D02*
X156150000Y-99225000D01*
G75*
G02*
X156100000Y-99275000I-50000J0D01*
G01*
X155200000Y-99275000D01*
G75*
G02*
X155150000Y-99225000I0J50000D01*
G01*
X155150000Y-98025000D01*
G75*
G02*
X155200000Y-97975000I50000J0D01*
G01*
X156100000Y-97975000D01*
G75*
G02*
X156150000Y-98025000I0J-50000D01*
G01*
G37*
G36*
G01*
X152850000Y-81025000D02*
X152850000Y-82225000D01*
G75*
G02*
X152800000Y-82275000I-50000J0D01*
G01*
X151900000Y-82275000D01*
G75*
G02*
X151850000Y-82225000I0J50000D01*
G01*
X151850000Y-81025000D01*
G75*
G02*
X151900000Y-80975000I50000J0D01*
G01*
X152800000Y-80975000D01*
G75*
G02*
X152850000Y-81025000I0J-50000D01*
G01*
G37*
G36*
G01*
X156150000Y-81025000D02*
X156150000Y-82225000D01*
G75*
G02*
X156100000Y-82275000I-50000J0D01*
G01*
X155200000Y-82275000D01*
G75*
G02*
X155150000Y-82225000I0J50000D01*
G01*
X155150000Y-81025000D01*
G75*
G02*
X155200000Y-80975000I50000J0D01*
G01*
X156100000Y-80975000D01*
G75*
G02*
X156150000Y-81025000I0J-50000D01*
G01*
G37*
G36*
G01*
X152850000Y-64025000D02*
X152850000Y-65225000D01*
G75*
G02*
X152800000Y-65275000I-50000J0D01*
G01*
X151900000Y-65275000D01*
G75*
G02*
X151850000Y-65225000I0J50000D01*
G01*
X151850000Y-64025000D01*
G75*
G02*
X151900000Y-63975000I50000J0D01*
G01*
X152800000Y-63975000D01*
G75*
G02*
X152850000Y-64025000I0J-50000D01*
G01*
G37*
G36*
G01*
X156150000Y-64025000D02*
X156150000Y-65225000D01*
G75*
G02*
X156100000Y-65275000I-50000J0D01*
G01*
X155200000Y-65275000D01*
G75*
G02*
X155150000Y-65225000I0J50000D01*
G01*
X155150000Y-64025000D01*
G75*
G02*
X155200000Y-63975000I50000J0D01*
G01*
X156100000Y-63975000D01*
G75*
G02*
X156150000Y-64025000I0J-50000D01*
G01*
G37*
G36*
G01*
X170850000Y-100150000D02*
X170850000Y-101350000D01*
G75*
G02*
X170800000Y-101400000I-50000J0D01*
G01*
X169900000Y-101400000D01*
G75*
G02*
X169850000Y-101350000I0J50000D01*
G01*
X169850000Y-100150000D01*
G75*
G02*
X169900000Y-100100000I50000J0D01*
G01*
X170800000Y-100100000D01*
G75*
G02*
X170850000Y-100150000I0J-50000D01*
G01*
G37*
G36*
G01*
X174150000Y-100150000D02*
X174150000Y-101350000D01*
G75*
G02*
X174100000Y-101400000I-50000J0D01*
G01*
X173200000Y-101400000D01*
G75*
G02*
X173150000Y-101350000I0J50000D01*
G01*
X173150000Y-100150000D01*
G75*
G02*
X173200000Y-100100000I50000J0D01*
G01*
X174100000Y-100100000D01*
G75*
G02*
X174150000Y-100150000I0J-50000D01*
G01*
G37*
G36*
G01*
X170850000Y-83150000D02*
X170850000Y-84350000D01*
G75*
G02*
X170800000Y-84400000I-50000J0D01*
G01*
X169900000Y-84400000D01*
G75*
G02*
X169850000Y-84350000I0J50000D01*
G01*
X169850000Y-83150000D01*
G75*
G02*
X169900000Y-83100000I50000J0D01*
G01*
X170800000Y-83100000D01*
G75*
G02*
X170850000Y-83150000I0J-50000D01*
G01*
G37*
G36*
G01*
X174150000Y-83150000D02*
X174150000Y-84350000D01*
G75*
G02*
X174100000Y-84400000I-50000J0D01*
G01*
X173200000Y-84400000D01*
G75*
G02*
X173150000Y-84350000I0J50000D01*
G01*
X173150000Y-83150000D01*
G75*
G02*
X173200000Y-83100000I50000J0D01*
G01*
X174100000Y-83100000D01*
G75*
G02*
X174150000Y-83150000I0J-50000D01*
G01*
G37*
G36*
G01*
X170850000Y-66150000D02*
X170850000Y-67350000D01*
G75*
G02*
X170800000Y-67400000I-50000J0D01*
G01*
X169900000Y-67400000D01*
G75*
G02*
X169850000Y-67350000I0J50000D01*
G01*
X169850000Y-66150000D01*
G75*
G02*
X169900000Y-66100000I50000J0D01*
G01*
X170800000Y-66100000D01*
G75*
G02*
X170850000Y-66150000I0J-50000D01*
G01*
G37*
G36*
G01*
X174150000Y-66150000D02*
X174150000Y-67350000D01*
G75*
G02*
X174100000Y-67400000I-50000J0D01*
G01*
X173200000Y-67400000D01*
G75*
G02*
X173150000Y-67350000I0J50000D01*
G01*
X173150000Y-66150000D01*
G75*
G02*
X173200000Y-66100000I50000J0D01*
G01*
X174100000Y-66100000D01*
G75*
G02*
X174150000Y-66150000I0J-50000D01*
G01*
G37*
G36*
G01*
X149250000Y-120550000D02*
X149250000Y-121750000D01*
G75*
G02*
X149200000Y-121800000I-50000J0D01*
G01*
X148300000Y-121800000D01*
G75*
G02*
X148250000Y-121750000I0J50000D01*
G01*
X148250000Y-120550000D01*
G75*
G02*
X148300000Y-120500000I50000J0D01*
G01*
X149200000Y-120500000D01*
G75*
G02*
X149250000Y-120550000I0J-50000D01*
G01*
G37*
G36*
G01*
X152550000Y-120550000D02*
X152550000Y-121750000D01*
G75*
G02*
X152500000Y-121800000I-50000J0D01*
G01*
X151600000Y-121800000D01*
G75*
G02*
X151550000Y-121750000I0J50000D01*
G01*
X151550000Y-120550000D01*
G75*
G02*
X151600000Y-120500000I50000J0D01*
G01*
X152500000Y-120500000D01*
G75*
G02*
X152550000Y-120550000I0J-50000D01*
G01*
G37*
G36*
G01*
X168043675Y-122721434D02*
X167733092Y-123880545D01*
G75*
G02*
X167671855Y-123915900I-48296J12941D01*
G01*
X166802522Y-123682963D01*
G75*
G02*
X166767167Y-123621726I12941J48296D01*
G01*
X167077750Y-122462615D01*
G75*
G02*
X167138987Y-122427260I48296J-12941D01*
G01*
X168008320Y-122660197D01*
G75*
G02*
X168043675Y-122721434I-12941J-48296D01*
G01*
G37*
G36*
G01*
X171231231Y-123575536D02*
X170920648Y-124734647D01*
G75*
G02*
X170859411Y-124770002I-48296J12941D01*
G01*
X169990078Y-124537065D01*
G75*
G02*
X169954723Y-124475828I12941J48296D01*
G01*
X170265306Y-123316717D01*
G75*
G02*
X170326543Y-123281362I48296J-12941D01*
G01*
X171195876Y-123514299D01*
G75*
G02*
X171231231Y-123575536I-12941J-48296D01*
G01*
G37*
G36*
G01*
X185634964Y-129683039D02*
X185034964Y-130722269D01*
G75*
G02*
X184966663Y-130740570I-43301J25000D01*
G01*
X184187241Y-130290570D01*
G75*
G02*
X184168940Y-130222269I25000J43301D01*
G01*
X184768940Y-129183039D01*
G75*
G02*
X184837241Y-129164738I43301J-25000D01*
G01*
X185616663Y-129614738D01*
G75*
G02*
X185634964Y-129683039I-25000J-43301D01*
G01*
G37*
G36*
G01*
X188492848Y-131333039D02*
X187892848Y-132372269D01*
G75*
G02*
X187824547Y-132390570I-43301J25000D01*
G01*
X187045125Y-131940570D01*
G75*
G02*
X187026824Y-131872269I25000J43301D01*
G01*
X187626824Y-130833039D01*
G75*
G02*
X187695125Y-130814738I43301J-25000D01*
G01*
X188474547Y-131264738D01*
G75*
G02*
X188492848Y-131333039I-25000J-43301D01*
G01*
G37*
D15*
X100000000Y-100000000D03*
D16*
X105500000Y-100000000D03*
X94500000Y-100000000D03*
D17*
X100000000Y-94050000D03*
X95000000Y-96250000D03*
D15*
X100000000Y-83000000D03*
D16*
X105500000Y-83000000D03*
X94500000Y-83000000D03*
D17*
X100000000Y-77050000D03*
X95000000Y-79250000D03*
D15*
X100000000Y-66000000D03*
D16*
X105500000Y-66000000D03*
X94500000Y-66000000D03*
D17*
X100000000Y-60050000D03*
X95000000Y-62250000D03*
D15*
X118000000Y-89375000D03*
D16*
X123500000Y-89375000D03*
X112500000Y-89375000D03*
D17*
X118000000Y-83425000D03*
X113000000Y-85625000D03*
D15*
X118000000Y-72375000D03*
D16*
X123500000Y-72375000D03*
X112500000Y-72375000D03*
D17*
X118000000Y-66425000D03*
X113000000Y-68625000D03*
D15*
X118000000Y-55375000D03*
D16*
X123500000Y-55375000D03*
X112500000Y-55375000D03*
D17*
X118000000Y-49425000D03*
X113000000Y-51625000D03*
D15*
X136000000Y-87250000D03*
D16*
X141500000Y-87250000D03*
X130500000Y-87250000D03*
D17*
X136000000Y-81300000D03*
X131000000Y-83500000D03*
D15*
X136000000Y-70250000D03*
D16*
X141500000Y-70250000D03*
X130500000Y-70250000D03*
D17*
X136000000Y-64300000D03*
X131000000Y-66500000D03*
D15*
X136000000Y-53250000D03*
D16*
X141500000Y-53250000D03*
X130500000Y-53250000D03*
D17*
X136000000Y-47300000D03*
X131000000Y-49500000D03*
D15*
X154000000Y-93625000D03*
D16*
X159500000Y-93625000D03*
X148500000Y-93625000D03*
D17*
X154000000Y-87675000D03*
X149000000Y-89875000D03*
D15*
X154000000Y-76625000D03*
D16*
X159500000Y-76625000D03*
X148500000Y-76625000D03*
D17*
X154000000Y-70675000D03*
X149000000Y-72875000D03*
D15*
X154000000Y-59625000D03*
D16*
X159500000Y-59625000D03*
X148500000Y-59625000D03*
D17*
X154000000Y-53675000D03*
X149000000Y-55875000D03*
D15*
X172000000Y-95750000D03*
D16*
X177500000Y-95750000D03*
X166500000Y-95750000D03*
D17*
X172000000Y-89800000D03*
X167000000Y-92000000D03*
D15*
X172000000Y-78750000D03*
D16*
X177500000Y-78750000D03*
X166500000Y-78750000D03*
D17*
X172000000Y-72800000D03*
X167000000Y-75000000D03*
D15*
X172000000Y-61750000D03*
D16*
X177500000Y-61750000D03*
X166500000Y-61750000D03*
D17*
X172000000Y-55800000D03*
X167000000Y-58000000D03*
D15*
X150400000Y-116150000D03*
D16*
X155900000Y-116150000D03*
X144900000Y-116150000D03*
D17*
X150400000Y-110200000D03*
X145400000Y-112400000D03*
D15*
X170293294Y-118769002D03*
D16*
X175605886Y-120192507D03*
X164980702Y-117345497D03*
D17*
X171833267Y-113021743D03*
X166434236Y-113852685D03*
D15*
X188830894Y-126447527D03*
D16*
X193594034Y-129197527D03*
X184067754Y-123697527D03*
D17*
X191805894Y-121294676D03*
X186375767Y-120699932D03*
D18*
X185380000Y-61045000D03*
X200620000Y-61045000D03*
D19*
X196400000Y-61045000D03*
X189600000Y-61045000D03*
G36*
G01*
X187170000Y-61645000D02*
X187170000Y-60445000D01*
G75*
G02*
X187220000Y-60395000I50000J0D01*
G01*
X187820000Y-60395000D01*
G75*
G02*
X187870000Y-60445000I0J-50000D01*
G01*
X187870000Y-61645000D01*
G75*
G02*
X187820000Y-61695000I-50000J0D01*
G01*
X187220000Y-61695000D01*
G75*
G02*
X187170000Y-61645000I0J50000D01*
G01*
G37*
G36*
G01*
X188070000Y-61645000D02*
X188070000Y-60445000D01*
G75*
G02*
X188120000Y-60395000I50000J0D01*
G01*
X188720000Y-60395000D01*
G75*
G02*
X188770000Y-60445000I0J-50000D01*
G01*
X188770000Y-61645000D01*
G75*
G02*
X188720000Y-61695000I-50000J0D01*
G01*
X188120000Y-61695000D01*
G75*
G02*
X188070000Y-61645000I0J50000D01*
G01*
G37*
G36*
G01*
X197230000Y-61645000D02*
X197230000Y-60445000D01*
G75*
G02*
X197280000Y-60395000I50000J0D01*
G01*
X197880000Y-60395000D01*
G75*
G02*
X197930000Y-60445000I0J-50000D01*
G01*
X197930000Y-61645000D01*
G75*
G02*
X197880000Y-61695000I-50000J0D01*
G01*
X197280000Y-61695000D01*
G75*
G02*
X197230000Y-61645000I0J50000D01*
G01*
G37*
G36*
G01*
X198130000Y-61645000D02*
X198130000Y-60445000D01*
G75*
G02*
X198180000Y-60395000I50000J0D01*
G01*
X198780000Y-60395000D01*
G75*
G02*
X198830000Y-60445000I0J-50000D01*
G01*
X198830000Y-61645000D01*
G75*
G02*
X198780000Y-61695000I-50000J0D01*
G01*
X198180000Y-61695000D01*
G75*
G02*
X198130000Y-61645000I0J50000D01*
G01*
G37*
D18*
X185380000Y-63585000D03*
X200620000Y-63585000D03*
D19*
X196400000Y-63585000D03*
X189600000Y-63585000D03*
G36*
G01*
X187170000Y-64185000D02*
X187170000Y-62985000D01*
G75*
G02*
X187220000Y-62935000I50000J0D01*
G01*
X187820000Y-62935000D01*
G75*
G02*
X187870000Y-62985000I0J-50000D01*
G01*
X187870000Y-64185000D01*
G75*
G02*
X187820000Y-64235000I-50000J0D01*
G01*
X187220000Y-64235000D01*
G75*
G02*
X187170000Y-64185000I0J50000D01*
G01*
G37*
G36*
G01*
X188070000Y-64185000D02*
X188070000Y-62985000D01*
G75*
G02*
X188120000Y-62935000I50000J0D01*
G01*
X188720000Y-62935000D01*
G75*
G02*
X188770000Y-62985000I0J-50000D01*
G01*
X188770000Y-64185000D01*
G75*
G02*
X188720000Y-64235000I-50000J0D01*
G01*
X188120000Y-64235000D01*
G75*
G02*
X188070000Y-64185000I0J50000D01*
G01*
G37*
G36*
G01*
X197230000Y-64185000D02*
X197230000Y-62985000D01*
G75*
G02*
X197280000Y-62935000I50000J0D01*
G01*
X197880000Y-62935000D01*
G75*
G02*
X197930000Y-62985000I0J-50000D01*
G01*
X197930000Y-64185000D01*
G75*
G02*
X197880000Y-64235000I-50000J0D01*
G01*
X197280000Y-64235000D01*
G75*
G02*
X197230000Y-64185000I0J50000D01*
G01*
G37*
G36*
G01*
X198130000Y-64185000D02*
X198130000Y-62985000D01*
G75*
G02*
X198180000Y-62935000I50000J0D01*
G01*
X198780000Y-62935000D01*
G75*
G02*
X198830000Y-62985000I0J-50000D01*
G01*
X198830000Y-64185000D01*
G75*
G02*
X198780000Y-64235000I-50000J0D01*
G01*
X198180000Y-64235000D01*
G75*
G02*
X198130000Y-64185000I0J50000D01*
G01*
G37*
D18*
X185380000Y-66125000D03*
X200620000Y-66125000D03*
D19*
X196400000Y-66125000D03*
X189600000Y-66125000D03*
G36*
G01*
X187170000Y-66725000D02*
X187170000Y-65525000D01*
G75*
G02*
X187220000Y-65475000I50000J0D01*
G01*
X187820000Y-65475000D01*
G75*
G02*
X187870000Y-65525000I0J-50000D01*
G01*
X187870000Y-66725000D01*
G75*
G02*
X187820000Y-66775000I-50000J0D01*
G01*
X187220000Y-66775000D01*
G75*
G02*
X187170000Y-66725000I0J50000D01*
G01*
G37*
G36*
G01*
X188070000Y-66725000D02*
X188070000Y-65525000D01*
G75*
G02*
X188120000Y-65475000I50000J0D01*
G01*
X188720000Y-65475000D01*
G75*
G02*
X188770000Y-65525000I0J-50000D01*
G01*
X188770000Y-66725000D01*
G75*
G02*
X188720000Y-66775000I-50000J0D01*
G01*
X188120000Y-66775000D01*
G75*
G02*
X188070000Y-66725000I0J50000D01*
G01*
G37*
G36*
G01*
X197230000Y-66725000D02*
X197230000Y-65525000D01*
G75*
G02*
X197280000Y-65475000I50000J0D01*
G01*
X197880000Y-65475000D01*
G75*
G02*
X197930000Y-65525000I0J-50000D01*
G01*
X197930000Y-66725000D01*
G75*
G02*
X197880000Y-66775000I-50000J0D01*
G01*
X197280000Y-66775000D01*
G75*
G02*
X197230000Y-66725000I0J50000D01*
G01*
G37*
G36*
G01*
X198130000Y-66725000D02*
X198130000Y-65525000D01*
G75*
G02*
X198180000Y-65475000I50000J0D01*
G01*
X198780000Y-65475000D01*
G75*
G02*
X198830000Y-65525000I0J-50000D01*
G01*
X198830000Y-66725000D01*
G75*
G02*
X198780000Y-66775000I-50000J0D01*
G01*
X198180000Y-66775000D01*
G75*
G02*
X198130000Y-66725000I0J50000D01*
G01*
G37*
D18*
X185380000Y-68665000D03*
X200620000Y-68665000D03*
D19*
X196400000Y-68665000D03*
X189600000Y-68665000D03*
G36*
G01*
X187170000Y-69265000D02*
X187170000Y-68065000D01*
G75*
G02*
X187220000Y-68015000I50000J0D01*
G01*
X187820000Y-68015000D01*
G75*
G02*
X187870000Y-68065000I0J-50000D01*
G01*
X187870000Y-69265000D01*
G75*
G02*
X187820000Y-69315000I-50000J0D01*
G01*
X187220000Y-69315000D01*
G75*
G02*
X187170000Y-69265000I0J50000D01*
G01*
G37*
G36*
G01*
X188070000Y-69265000D02*
X188070000Y-68065000D01*
G75*
G02*
X188120000Y-68015000I50000J0D01*
G01*
X188720000Y-68015000D01*
G75*
G02*
X188770000Y-68065000I0J-50000D01*
G01*
X188770000Y-69265000D01*
G75*
G02*
X188720000Y-69315000I-50000J0D01*
G01*
X188120000Y-69315000D01*
G75*
G02*
X188070000Y-69265000I0J50000D01*
G01*
G37*
G36*
G01*
X197230000Y-69265000D02*
X197230000Y-68065000D01*
G75*
G02*
X197280000Y-68015000I50000J0D01*
G01*
X197880000Y-68015000D01*
G75*
G02*
X197930000Y-68065000I0J-50000D01*
G01*
X197930000Y-69265000D01*
G75*
G02*
X197880000Y-69315000I-50000J0D01*
G01*
X197280000Y-69315000D01*
G75*
G02*
X197230000Y-69265000I0J50000D01*
G01*
G37*
G36*
G01*
X198130000Y-69265000D02*
X198130000Y-68065000D01*
G75*
G02*
X198180000Y-68015000I50000J0D01*
G01*
X198780000Y-68015000D01*
G75*
G02*
X198830000Y-68065000I0J-50000D01*
G01*
X198830000Y-69265000D01*
G75*
G02*
X198780000Y-69315000I-50000J0D01*
G01*
X198180000Y-69315000D01*
G75*
G02*
X198130000Y-69265000I0J50000D01*
G01*
G37*
D18*
X185380000Y-71205000D03*
X200620000Y-71205000D03*
D19*
X196400000Y-71205000D03*
X189600000Y-71205000D03*
G36*
G01*
X187170000Y-71805000D02*
X187170000Y-70605000D01*
G75*
G02*
X187220000Y-70555000I50000J0D01*
G01*
X187820000Y-70555000D01*
G75*
G02*
X187870000Y-70605000I0J-50000D01*
G01*
X187870000Y-71805000D01*
G75*
G02*
X187820000Y-71855000I-50000J0D01*
G01*
X187220000Y-71855000D01*
G75*
G02*
X187170000Y-71805000I0J50000D01*
G01*
G37*
G36*
G01*
X188070000Y-71805000D02*
X188070000Y-70605000D01*
G75*
G02*
X188120000Y-70555000I50000J0D01*
G01*
X188720000Y-70555000D01*
G75*
G02*
X188770000Y-70605000I0J-50000D01*
G01*
X188770000Y-71805000D01*
G75*
G02*
X188720000Y-71855000I-50000J0D01*
G01*
X188120000Y-71855000D01*
G75*
G02*
X188070000Y-71805000I0J50000D01*
G01*
G37*
G36*
G01*
X197230000Y-71805000D02*
X197230000Y-70605000D01*
G75*
G02*
X197280000Y-70555000I50000J0D01*
G01*
X197880000Y-70555000D01*
G75*
G02*
X197930000Y-70605000I0J-50000D01*
G01*
X197930000Y-71805000D01*
G75*
G02*
X197880000Y-71855000I-50000J0D01*
G01*
X197280000Y-71855000D01*
G75*
G02*
X197230000Y-71805000I0J50000D01*
G01*
G37*
G36*
G01*
X198130000Y-71805000D02*
X198130000Y-70605000D01*
G75*
G02*
X198180000Y-70555000I50000J0D01*
G01*
X198780000Y-70555000D01*
G75*
G02*
X198830000Y-70605000I0J-50000D01*
G01*
X198830000Y-71805000D01*
G75*
G02*
X198780000Y-71855000I-50000J0D01*
G01*
X198180000Y-71855000D01*
G75*
G02*
X198130000Y-71805000I0J50000D01*
G01*
G37*
D18*
X185380000Y-73745000D03*
X200620000Y-73745000D03*
D19*
X196400000Y-73745000D03*
X189600000Y-73745000D03*
G36*
G01*
X187170000Y-74345000D02*
X187170000Y-73145000D01*
G75*
G02*
X187220000Y-73095000I50000J0D01*
G01*
X187820000Y-73095000D01*
G75*
G02*
X187870000Y-73145000I0J-50000D01*
G01*
X187870000Y-74345000D01*
G75*
G02*
X187820000Y-74395000I-50000J0D01*
G01*
X187220000Y-74395000D01*
G75*
G02*
X187170000Y-74345000I0J50000D01*
G01*
G37*
G36*
G01*
X188070000Y-74345000D02*
X188070000Y-73145000D01*
G75*
G02*
X188120000Y-73095000I50000J0D01*
G01*
X188720000Y-73095000D01*
G75*
G02*
X188770000Y-73145000I0J-50000D01*
G01*
X188770000Y-74345000D01*
G75*
G02*
X188720000Y-74395000I-50000J0D01*
G01*
X188120000Y-74395000D01*
G75*
G02*
X188070000Y-74345000I0J50000D01*
G01*
G37*
G36*
G01*
X197230000Y-74345000D02*
X197230000Y-73145000D01*
G75*
G02*
X197280000Y-73095000I50000J0D01*
G01*
X197880000Y-73095000D01*
G75*
G02*
X197930000Y-73145000I0J-50000D01*
G01*
X197930000Y-74345000D01*
G75*
G02*
X197880000Y-74395000I-50000J0D01*
G01*
X197280000Y-74395000D01*
G75*
G02*
X197230000Y-74345000I0J50000D01*
G01*
G37*
G36*
G01*
X198130000Y-74345000D02*
X198130000Y-73145000D01*
G75*
G02*
X198180000Y-73095000I50000J0D01*
G01*
X198780000Y-73095000D01*
G75*
G02*
X198830000Y-73145000I0J-50000D01*
G01*
X198830000Y-74345000D01*
G75*
G02*
X198780000Y-74395000I-50000J0D01*
G01*
X198180000Y-74395000D01*
G75*
G02*
X198130000Y-74345000I0J50000D01*
G01*
G37*
D18*
X185380000Y-76285000D03*
X200620000Y-76285000D03*
D19*
X196400000Y-76285000D03*
X189600000Y-76285000D03*
G36*
G01*
X187170000Y-76885000D02*
X187170000Y-75685000D01*
G75*
G02*
X187220000Y-75635000I50000J0D01*
G01*
X187820000Y-75635000D01*
G75*
G02*
X187870000Y-75685000I0J-50000D01*
G01*
X187870000Y-76885000D01*
G75*
G02*
X187820000Y-76935000I-50000J0D01*
G01*
X187220000Y-76935000D01*
G75*
G02*
X187170000Y-76885000I0J50000D01*
G01*
G37*
G36*
G01*
X188070000Y-76885000D02*
X188070000Y-75685000D01*
G75*
G02*
X188120000Y-75635000I50000J0D01*
G01*
X188720000Y-75635000D01*
G75*
G02*
X188770000Y-75685000I0J-50000D01*
G01*
X188770000Y-76885000D01*
G75*
G02*
X188720000Y-76935000I-50000J0D01*
G01*
X188120000Y-76935000D01*
G75*
G02*
X188070000Y-76885000I0J50000D01*
G01*
G37*
G36*
G01*
X197230000Y-76885000D02*
X197230000Y-75685000D01*
G75*
G02*
X197280000Y-75635000I50000J0D01*
G01*
X197880000Y-75635000D01*
G75*
G02*
X197930000Y-75685000I0J-50000D01*
G01*
X197930000Y-76885000D01*
G75*
G02*
X197880000Y-76935000I-50000J0D01*
G01*
X197280000Y-76935000D01*
G75*
G02*
X197230000Y-76885000I0J50000D01*
G01*
G37*
G36*
G01*
X198130000Y-76885000D02*
X198130000Y-75685000D01*
G75*
G02*
X198180000Y-75635000I50000J0D01*
G01*
X198780000Y-75635000D01*
G75*
G02*
X198830000Y-75685000I0J-50000D01*
G01*
X198830000Y-76885000D01*
G75*
G02*
X198780000Y-76935000I-50000J0D01*
G01*
X198180000Y-76935000D01*
G75*
G02*
X198130000Y-76885000I0J50000D01*
G01*
G37*
D18*
X185380000Y-78825000D03*
X200620000Y-78825000D03*
D19*
X196400000Y-78825000D03*
X189600000Y-78825000D03*
G36*
G01*
X187170000Y-79425000D02*
X187170000Y-78225000D01*
G75*
G02*
X187220000Y-78175000I50000J0D01*
G01*
X187820000Y-78175000D01*
G75*
G02*
X187870000Y-78225000I0J-50000D01*
G01*
X187870000Y-79425000D01*
G75*
G02*
X187820000Y-79475000I-50000J0D01*
G01*
X187220000Y-79475000D01*
G75*
G02*
X187170000Y-79425000I0J50000D01*
G01*
G37*
G36*
G01*
X188070000Y-79425000D02*
X188070000Y-78225000D01*
G75*
G02*
X188120000Y-78175000I50000J0D01*
G01*
X188720000Y-78175000D01*
G75*
G02*
X188770000Y-78225000I0J-50000D01*
G01*
X188770000Y-79425000D01*
G75*
G02*
X188720000Y-79475000I-50000J0D01*
G01*
X188120000Y-79475000D01*
G75*
G02*
X188070000Y-79425000I0J50000D01*
G01*
G37*
G36*
G01*
X197230000Y-79425000D02*
X197230000Y-78225000D01*
G75*
G02*
X197280000Y-78175000I50000J0D01*
G01*
X197880000Y-78175000D01*
G75*
G02*
X197930000Y-78225000I0J-50000D01*
G01*
X197930000Y-79425000D01*
G75*
G02*
X197880000Y-79475000I-50000J0D01*
G01*
X197280000Y-79475000D01*
G75*
G02*
X197230000Y-79425000I0J50000D01*
G01*
G37*
G36*
G01*
X198130000Y-79425000D02*
X198130000Y-78225000D01*
G75*
G02*
X198180000Y-78175000I50000J0D01*
G01*
X198780000Y-78175000D01*
G75*
G02*
X198830000Y-78225000I0J-50000D01*
G01*
X198830000Y-79425000D01*
G75*
G02*
X198780000Y-79475000I-50000J0D01*
G01*
X198180000Y-79475000D01*
G75*
G02*
X198130000Y-79425000I0J50000D01*
G01*
G37*
D18*
X185380000Y-81365000D03*
X200620000Y-81365000D03*
D19*
X196400000Y-81365000D03*
X189600000Y-81365000D03*
G36*
G01*
X187170000Y-81965000D02*
X187170000Y-80765000D01*
G75*
G02*
X187220000Y-80715000I50000J0D01*
G01*
X187820000Y-80715000D01*
G75*
G02*
X187870000Y-80765000I0J-50000D01*
G01*
X187870000Y-81965000D01*
G75*
G02*
X187820000Y-82015000I-50000J0D01*
G01*
X187220000Y-82015000D01*
G75*
G02*
X187170000Y-81965000I0J50000D01*
G01*
G37*
G36*
G01*
X188070000Y-81965000D02*
X188070000Y-80765000D01*
G75*
G02*
X188120000Y-80715000I50000J0D01*
G01*
X188720000Y-80715000D01*
G75*
G02*
X188770000Y-80765000I0J-50000D01*
G01*
X188770000Y-81965000D01*
G75*
G02*
X188720000Y-82015000I-50000J0D01*
G01*
X188120000Y-82015000D01*
G75*
G02*
X188070000Y-81965000I0J50000D01*
G01*
G37*
G36*
G01*
X197230000Y-81965000D02*
X197230000Y-80765000D01*
G75*
G02*
X197280000Y-80715000I50000J0D01*
G01*
X197880000Y-80715000D01*
G75*
G02*
X197930000Y-80765000I0J-50000D01*
G01*
X197930000Y-81965000D01*
G75*
G02*
X197880000Y-82015000I-50000J0D01*
G01*
X197280000Y-82015000D01*
G75*
G02*
X197230000Y-81965000I0J50000D01*
G01*
G37*
G36*
G01*
X198130000Y-81965000D02*
X198130000Y-80765000D01*
G75*
G02*
X198180000Y-80715000I50000J0D01*
G01*
X198780000Y-80715000D01*
G75*
G02*
X198830000Y-80765000I0J-50000D01*
G01*
X198830000Y-81965000D01*
G75*
G02*
X198780000Y-82015000I-50000J0D01*
G01*
X198180000Y-82015000D01*
G75*
G02*
X198130000Y-81965000I0J50000D01*
G01*
G37*
D18*
X185380000Y-83905000D03*
X200620000Y-83905000D03*
D19*
X196400000Y-83905000D03*
X189600000Y-83905000D03*
G36*
G01*
X187170000Y-84505000D02*
X187170000Y-83305000D01*
G75*
G02*
X187220000Y-83255000I50000J0D01*
G01*
X187820000Y-83255000D01*
G75*
G02*
X187870000Y-83305000I0J-50000D01*
G01*
X187870000Y-84505000D01*
G75*
G02*
X187820000Y-84555000I-50000J0D01*
G01*
X187220000Y-84555000D01*
G75*
G02*
X187170000Y-84505000I0J50000D01*
G01*
G37*
G36*
G01*
X188070000Y-84505000D02*
X188070000Y-83305000D01*
G75*
G02*
X188120000Y-83255000I50000J0D01*
G01*
X188720000Y-83255000D01*
G75*
G02*
X188770000Y-83305000I0J-50000D01*
G01*
X188770000Y-84505000D01*
G75*
G02*
X188720000Y-84555000I-50000J0D01*
G01*
X188120000Y-84555000D01*
G75*
G02*
X188070000Y-84505000I0J50000D01*
G01*
G37*
G36*
G01*
X197230000Y-84505000D02*
X197230000Y-83305000D01*
G75*
G02*
X197280000Y-83255000I50000J0D01*
G01*
X197880000Y-83255000D01*
G75*
G02*
X197930000Y-83305000I0J-50000D01*
G01*
X197930000Y-84505000D01*
G75*
G02*
X197880000Y-84555000I-50000J0D01*
G01*
X197280000Y-84555000D01*
G75*
G02*
X197230000Y-84505000I0J50000D01*
G01*
G37*
G36*
G01*
X198130000Y-84505000D02*
X198130000Y-83305000D01*
G75*
G02*
X198180000Y-83255000I50000J0D01*
G01*
X198780000Y-83255000D01*
G75*
G02*
X198830000Y-83305000I0J-50000D01*
G01*
X198830000Y-84505000D01*
G75*
G02*
X198780000Y-84555000I-50000J0D01*
G01*
X198180000Y-84555000D01*
G75*
G02*
X198130000Y-84505000I0J50000D01*
G01*
G37*
D18*
X185380000Y-86445000D03*
X200620000Y-86445000D03*
D19*
X196400000Y-86445000D03*
X189600000Y-86445000D03*
G36*
G01*
X187170000Y-87045000D02*
X187170000Y-85845000D01*
G75*
G02*
X187220000Y-85795000I50000J0D01*
G01*
X187820000Y-85795000D01*
G75*
G02*
X187870000Y-85845000I0J-50000D01*
G01*
X187870000Y-87045000D01*
G75*
G02*
X187820000Y-87095000I-50000J0D01*
G01*
X187220000Y-87095000D01*
G75*
G02*
X187170000Y-87045000I0J50000D01*
G01*
G37*
G36*
G01*
X188070000Y-87045000D02*
X188070000Y-85845000D01*
G75*
G02*
X188120000Y-85795000I50000J0D01*
G01*
X188720000Y-85795000D01*
G75*
G02*
X188770000Y-85845000I0J-50000D01*
G01*
X188770000Y-87045000D01*
G75*
G02*
X188720000Y-87095000I-50000J0D01*
G01*
X188120000Y-87095000D01*
G75*
G02*
X188070000Y-87045000I0J50000D01*
G01*
G37*
G36*
G01*
X197230000Y-87045000D02*
X197230000Y-85845000D01*
G75*
G02*
X197280000Y-85795000I50000J0D01*
G01*
X197880000Y-85795000D01*
G75*
G02*
X197930000Y-85845000I0J-50000D01*
G01*
X197930000Y-87045000D01*
G75*
G02*
X197880000Y-87095000I-50000J0D01*
G01*
X197280000Y-87095000D01*
G75*
G02*
X197230000Y-87045000I0J50000D01*
G01*
G37*
G36*
G01*
X198130000Y-87045000D02*
X198130000Y-85845000D01*
G75*
G02*
X198180000Y-85795000I50000J0D01*
G01*
X198780000Y-85795000D01*
G75*
G02*
X198830000Y-85845000I0J-50000D01*
G01*
X198830000Y-87045000D01*
G75*
G02*
X198780000Y-87095000I-50000J0D01*
G01*
X198180000Y-87095000D01*
G75*
G02*
X198130000Y-87045000I0J50000D01*
G01*
G37*
D18*
X185380000Y-88985000D03*
X200620000Y-88985000D03*
D19*
X196400000Y-88985000D03*
X189600000Y-88985000D03*
G36*
G01*
X187170000Y-89585000D02*
X187170000Y-88385000D01*
G75*
G02*
X187220000Y-88335000I50000J0D01*
G01*
X187820000Y-88335000D01*
G75*
G02*
X187870000Y-88385000I0J-50000D01*
G01*
X187870000Y-89585000D01*
G75*
G02*
X187820000Y-89635000I-50000J0D01*
G01*
X187220000Y-89635000D01*
G75*
G02*
X187170000Y-89585000I0J50000D01*
G01*
G37*
G36*
G01*
X188070000Y-89585000D02*
X188070000Y-88385000D01*
G75*
G02*
X188120000Y-88335000I50000J0D01*
G01*
X188720000Y-88335000D01*
G75*
G02*
X188770000Y-88385000I0J-50000D01*
G01*
X188770000Y-89585000D01*
G75*
G02*
X188720000Y-89635000I-50000J0D01*
G01*
X188120000Y-89635000D01*
G75*
G02*
X188070000Y-89585000I0J50000D01*
G01*
G37*
G36*
G01*
X197230000Y-89585000D02*
X197230000Y-88385000D01*
G75*
G02*
X197280000Y-88335000I50000J0D01*
G01*
X197880000Y-88335000D01*
G75*
G02*
X197930000Y-88385000I0J-50000D01*
G01*
X197930000Y-89585000D01*
G75*
G02*
X197880000Y-89635000I-50000J0D01*
G01*
X197280000Y-89635000D01*
G75*
G02*
X197230000Y-89585000I0J50000D01*
G01*
G37*
G36*
G01*
X198130000Y-89585000D02*
X198130000Y-88385000D01*
G75*
G02*
X198180000Y-88335000I50000J0D01*
G01*
X198780000Y-88335000D01*
G75*
G02*
X198830000Y-88385000I0J-50000D01*
G01*
X198830000Y-89585000D01*
G75*
G02*
X198780000Y-89635000I-50000J0D01*
G01*
X198180000Y-89635000D01*
G75*
G02*
X198130000Y-89585000I0J50000D01*
G01*
G37*
G36*
G01*
X197480000Y-95475000D02*
X198680000Y-95475000D01*
G75*
G02*
X198730000Y-95525000I0J-50000D01*
G01*
X198730000Y-96125000D01*
G75*
G02*
X198680000Y-96175000I-50000J0D01*
G01*
X197480000Y-96175000D01*
G75*
G02*
X197430000Y-96125000I0J50000D01*
G01*
X197430000Y-95525000D01*
G75*
G02*
X197480000Y-95475000I50000J0D01*
G01*
G37*
G36*
G01*
X194940000Y-95475000D02*
X196140000Y-95475000D01*
G75*
G02*
X196190000Y-95525000I0J-50000D01*
G01*
X196190000Y-96125000D01*
G75*
G02*
X196140000Y-96175000I-50000J0D01*
G01*
X194940000Y-96175000D01*
G75*
G02*
X194890000Y-96125000I0J50000D01*
G01*
X194890000Y-95525000D01*
G75*
G02*
X194940000Y-95475000I50000J0D01*
G01*
G37*
G36*
G01*
X189860000Y-95475000D02*
X191060000Y-95475000D01*
G75*
G02*
X191110000Y-95525000I0J-50000D01*
G01*
X191110000Y-96125000D01*
G75*
G02*
X191060000Y-96175000I-50000J0D01*
G01*
X189860000Y-96175000D01*
G75*
G02*
X189810000Y-96125000I0J50000D01*
G01*
X189810000Y-95525000D01*
G75*
G02*
X189860000Y-95475000I50000J0D01*
G01*
G37*
G36*
G01*
X187320000Y-95475000D02*
X188520000Y-95475000D01*
G75*
G02*
X188570000Y-95525000I0J-50000D01*
G01*
X188570000Y-96125000D01*
G75*
G02*
X188520000Y-96175000I-50000J0D01*
G01*
X187320000Y-96175000D01*
G75*
G02*
X187270000Y-96125000I0J50000D01*
G01*
X187270000Y-95525000D01*
G75*
G02*
X187320000Y-95475000I50000J0D01*
G01*
G37*
G36*
G01*
X197480000Y-96375000D02*
X198680000Y-96375000D01*
G75*
G02*
X198730000Y-96425000I0J-50000D01*
G01*
X198730000Y-97025000D01*
G75*
G02*
X198680000Y-97075000I-50000J0D01*
G01*
X197480000Y-97075000D01*
G75*
G02*
X197430000Y-97025000I0J50000D01*
G01*
X197430000Y-96425000D01*
G75*
G02*
X197480000Y-96375000I50000J0D01*
G01*
G37*
G36*
G01*
X194940000Y-96375000D02*
X196140000Y-96375000D01*
G75*
G02*
X196190000Y-96425000I0J-50000D01*
G01*
X196190000Y-97025000D01*
G75*
G02*
X196140000Y-97075000I-50000J0D01*
G01*
X194940000Y-97075000D01*
G75*
G02*
X194890000Y-97025000I0J50000D01*
G01*
X194890000Y-96425000D01*
G75*
G02*
X194940000Y-96375000I50000J0D01*
G01*
G37*
G36*
G01*
X189860000Y-96375000D02*
X191060000Y-96375000D01*
G75*
G02*
X191110000Y-96425000I0J-50000D01*
G01*
X191110000Y-97025000D01*
G75*
G02*
X191060000Y-97075000I-50000J0D01*
G01*
X189860000Y-97075000D01*
G75*
G02*
X189810000Y-97025000I0J50000D01*
G01*
X189810000Y-96425000D01*
G75*
G02*
X189860000Y-96375000I50000J0D01*
G01*
G37*
G36*
G01*
X187320000Y-96375000D02*
X188520000Y-96375000D01*
G75*
G02*
X188570000Y-96425000I0J-50000D01*
G01*
X188570000Y-97025000D01*
G75*
G02*
X188520000Y-97075000I-50000J0D01*
G01*
X187320000Y-97075000D01*
G75*
G02*
X187270000Y-97025000I0J50000D01*
G01*
X187270000Y-96425000D01*
G75*
G02*
X187320000Y-96375000I50000J0D01*
G01*
G37*
D20*
X187920000Y-94075000D03*
X190460000Y-94075000D03*
X193000000Y-94075000D03*
X195540000Y-94075000D03*
D18*
X198080000Y-94075000D03*
G36*
G01*
X200715000Y-103300000D02*
X201515000Y-103300000D01*
G75*
G02*
X201565000Y-103350000I0J-50000D01*
G01*
X201565000Y-104350000D01*
G75*
G02*
X201515000Y-104400000I-50000J0D01*
G01*
X200715000Y-104400000D01*
G75*
G02*
X200665000Y-104350000I0J50000D01*
G01*
X200665000Y-103350000D01*
G75*
G02*
X200715000Y-103300000I50000J0D01*
G01*
G37*
G36*
G01*
X202925000Y-103300000D02*
X203725000Y-103300000D01*
G75*
G02*
X203775000Y-103350000I0J-50000D01*
G01*
X203775000Y-104350000D01*
G75*
G02*
X203725000Y-104400000I-50000J0D01*
G01*
X202925000Y-104400000D01*
G75*
G02*
X202875000Y-104350000I0J50000D01*
G01*
X202875000Y-103350000D01*
G75*
G02*
X202925000Y-103300000I50000J0D01*
G01*
G37*
G36*
G01*
X200715000Y-110600000D02*
X201515000Y-110600000D01*
G75*
G02*
X201565000Y-110650000I0J-50000D01*
G01*
X201565000Y-111650000D01*
G75*
G02*
X201515000Y-111700000I-50000J0D01*
G01*
X200715000Y-111700000D01*
G75*
G02*
X200665000Y-111650000I0J50000D01*
G01*
X200665000Y-110650000D01*
G75*
G02*
X200715000Y-110600000I50000J0D01*
G01*
G37*
G36*
G01*
X202925000Y-110600000D02*
X203725000Y-110600000D01*
G75*
G02*
X203775000Y-110650000I0J-50000D01*
G01*
X203775000Y-111650000D01*
G75*
G02*
X203725000Y-111700000I-50000J0D01*
G01*
X202925000Y-111700000D01*
G75*
G02*
X202875000Y-111650000I0J50000D01*
G01*
X202875000Y-110650000D01*
G75*
G02*
X202925000Y-110600000I50000J0D01*
G01*
G37*
G36*
G01*
X199715000Y-104850000D02*
X201215000Y-104850000D01*
G75*
G02*
X201265000Y-104900000I0J-50000D01*
G01*
X201265000Y-105600000D01*
G75*
G02*
X201215000Y-105650000I-50000J0D01*
G01*
X199715000Y-105650000D01*
G75*
G02*
X199665000Y-105600000I0J50000D01*
G01*
X199665000Y-104900000D01*
G75*
G02*
X199715000Y-104850000I50000J0D01*
G01*
G37*
G36*
G01*
X199715000Y-107850000D02*
X201215000Y-107850000D01*
G75*
G02*
X201265000Y-107900000I0J-50000D01*
G01*
X201265000Y-108600000D01*
G75*
G02*
X201215000Y-108650000I-50000J0D01*
G01*
X199715000Y-108650000D01*
G75*
G02*
X199665000Y-108600000I0J50000D01*
G01*
X199665000Y-107900000D01*
G75*
G02*
X199715000Y-107850000I50000J0D01*
G01*
G37*
G36*
G01*
X199715000Y-109350000D02*
X201215000Y-109350000D01*
G75*
G02*
X201265000Y-109400000I0J-50000D01*
G01*
X201265000Y-110100000D01*
G75*
G02*
X201215000Y-110150000I-50000J0D01*
G01*
X199715000Y-110150000D01*
G75*
G02*
X199665000Y-110100000I0J50000D01*
G01*
X199665000Y-109400000D01*
G75*
G02*
X199715000Y-109350000I50000J0D01*
G01*
G37*
D21*
X202225000Y-106000000D03*
X202225000Y-109000000D03*
D22*
X201900000Y-99750000D03*
X201900000Y-93250000D03*
D23*
X197000000Y-102625000D03*
X197000000Y-104625000D03*
G36*
X194764645Y-102589645D02*
G01*
X195364645Y-101989645D01*
X195400000Y-101975000D01*
X195600000Y-101975000D01*
X195635355Y-101989645D01*
X195650000Y-102025000D01*
X195650000Y-103225000D01*
X195635355Y-103260355D01*
X195600000Y-103275000D01*
X195400000Y-103275000D01*
X195364645Y-103260355D01*
X194764645Y-102660355D01*
X194750000Y-102625000D01*
X194764645Y-102589645D01*
G37*
G36*
X194764645Y-104589645D02*
G01*
X195364645Y-103989645D01*
X195400000Y-103975000D01*
X195600000Y-103975000D01*
X195635355Y-103989645D01*
X195650000Y-104025000D01*
X195650000Y-105225000D01*
X195635355Y-105260355D01*
X195600000Y-105275000D01*
X195400000Y-105275000D01*
X195364645Y-105260355D01*
X194764645Y-104660355D01*
X194750000Y-104625000D01*
X194764645Y-104589645D01*
G37*
G36*
X193898645Y-103989645D02*
G01*
X193934000Y-103975000D01*
X195184000Y-103975000D01*
X195219355Y-103989645D01*
X195234000Y-104025000D01*
X195219355Y-104060355D01*
X194654710Y-104625000D01*
X195219355Y-105189645D01*
X195234000Y-105225000D01*
X195219355Y-105260355D01*
X195184000Y-105275000D01*
X193934000Y-105275000D01*
X193898645Y-105260355D01*
X193884000Y-105225000D01*
X193884000Y-104025000D01*
X193898645Y-103989645D01*
G37*
G36*
X193898645Y-101989645D02*
G01*
X193934000Y-101975000D01*
X195184000Y-101975000D01*
X195219355Y-101989645D01*
X195234000Y-102025000D01*
X195219355Y-102060355D01*
X194654710Y-102625000D01*
X195219355Y-103189645D01*
X195234000Y-103225000D01*
X195219355Y-103260355D01*
X195184000Y-103275000D01*
X193934000Y-103275000D01*
X193898645Y-103260355D01*
X193884000Y-103225000D01*
X193884000Y-102025000D01*
X193898645Y-101989645D01*
G37*
%LPD*%
M02*
