G04 #@! TF.GenerationSoftware,KiCad,Pcbnew,8.0.6+1*
G04 #@! TF.CreationDate,2024-11-30T16:17:38+00:00*
G04 #@! TF.ProjectId,corney_island_wireless,636f726e-6579-45f6-9973-6c616e645f77,0.2*
G04 #@! TF.SameCoordinates,Original*
G04 #@! TF.FileFunction,Copper,L1,Top*
G04 #@! TF.FilePolarity,Positive*
%FSLAX46Y46*%
G04 Gerber Fmt 4.6, Leading zero omitted, Abs format (unit mm)*
G04 Created by KiCad (PCBNEW 8.0.6+1) date 2024-11-30 16:17:38*
%MOMM*%
%LPD*%
G01*
G04 APERTURE LIST*
G04 #@! TA.AperFunction,SMDPad,CuDef*
%ADD10R,2.600000X2.600000*%
G04 #@! TD*
G04 #@! TA.AperFunction,SMDPad,CuDef*
%ADD11R,0.900000X1.200000*%
G04 #@! TD*
G04 #@! TA.AperFunction,ComponentPad*
%ADD12C,1.700000*%
G04 #@! TD*
G04 #@! TA.AperFunction,ComponentPad*
%ADD13C,0.800000*%
G04 #@! TD*
G04 #@! TA.AperFunction,SMDPad,CuDef*
%ADD14R,0.600000X1.200000*%
G04 #@! TD*
G04 #@! TA.AperFunction,SMDPad,CuDef*
%ADD15R,1.200000X0.600000*%
G04 #@! TD*
G04 #@! TA.AperFunction,ComponentPad*
%ADD16O,1.700000X1.700000*%
G04 #@! TD*
G04 #@! TA.AperFunction,SMDPad,CuDef*
%ADD17R,0.800000X1.000000*%
G04 #@! TD*
G04 #@! TA.AperFunction,SMDPad,CuDef*
%ADD18R,1.500000X0.700000*%
G04 #@! TD*
G04 #@! TA.AperFunction,ComponentPad*
%ADD19C,2.000000*%
G04 #@! TD*
G04 #@! TA.AperFunction,ComponentPad*
%ADD20O,1.750000X1.200000*%
G04 #@! TD*
G04 #@! TA.AperFunction,Conductor*
%ADD21C,0.250000*%
G04 #@! TD*
G04 APERTURE END LIST*
D10*
X103275000Y-94050000D03*
X91725000Y-96250000D03*
X103275000Y-77050000D03*
X91725000Y-79250000D03*
X103275000Y-60050000D03*
X91725000Y-62250000D03*
X121275000Y-89800000D03*
X109725000Y-92000000D03*
X121275000Y-72800000D03*
X109725000Y-75000000D03*
X121275000Y-55800000D03*
X109725000Y-58000000D03*
X139275000Y-87675000D03*
X127725000Y-89875000D03*
X139275000Y-70675000D03*
X127725000Y-72875000D03*
X139275000Y-53675000D03*
X127725000Y-55875000D03*
X157275000Y-89800000D03*
X145725000Y-92000000D03*
X157275000Y-72800000D03*
X145725000Y-75000000D03*
X157275000Y-55800000D03*
X145725000Y-58000000D03*
X175275000Y-91925000D03*
X163725000Y-94125000D03*
X175275000Y-74925000D03*
X163725000Y-77125000D03*
X175275000Y-57925000D03*
X163725000Y-60125000D03*
X153675000Y-112325000D03*
X142125000Y-114525000D03*
G04 #@! TA.AperFunction,SMDPad,CuDef*
G36*
X173404506Y-116913615D02*
G01*
X174077435Y-114402208D01*
X176588842Y-115075137D01*
X175915913Y-117586544D01*
X173404506Y-116913615D01*
G37*
G04 #@! TD.AperFunction*
G04 #@! TA.AperFunction,SMDPad,CuDef*
G36*
X161678661Y-116049292D02*
G01*
X162351590Y-113537885D01*
X164862997Y-114210814D01*
X164190068Y-116722221D01*
X161678661Y-116049292D01*
G37*
G04 #@! TD.AperFunction*
G04 #@! TA.AperFunction,SMDPad,CuDef*
G36*
X192866294Y-125533009D02*
G01*
X194166294Y-123281343D01*
X196417960Y-124581343D01*
X195117960Y-126833009D01*
X192866294Y-125533009D01*
G37*
G04 #@! TD.AperFunction*
G04 #@! TA.AperFunction,SMDPad,CuDef*
G36*
X181763701Y-121663265D02*
G01*
X183063701Y-119411599D01*
X185315367Y-120711599D01*
X184015367Y-122963265D01*
X181763701Y-121663265D01*
G37*
G04 #@! TD.AperFunction*
D11*
X101650000Y-105000000D03*
X98350000Y-105000000D03*
X101650000Y-88000000D03*
X98350000Y-88000000D03*
X101650000Y-71000000D03*
X98350000Y-71000000D03*
X119650000Y-100750000D03*
X116350000Y-100750000D03*
X119650000Y-83750000D03*
X116350000Y-83750000D03*
X119650000Y-66750000D03*
X116350000Y-66750000D03*
X137650000Y-98625000D03*
X134350000Y-98625000D03*
X137650000Y-81625000D03*
X134350000Y-81625000D03*
X137650000Y-64625000D03*
X134350000Y-64625000D03*
X155650000Y-100750000D03*
X152350000Y-100750000D03*
X155650000Y-83750000D03*
X152350000Y-83750000D03*
X155650000Y-66750000D03*
X152350000Y-66750000D03*
X173650000Y-102875000D03*
X170350000Y-102875000D03*
X173650000Y-85875000D03*
X170350000Y-85875000D03*
X173650000Y-68875000D03*
X170350000Y-68875000D03*
X152050000Y-123275000D03*
X148750000Y-123275000D03*
G04 #@! TA.AperFunction,SMDPad,CuDef*
G36*
X171182935Y-125687595D02*
G01*
X170872352Y-126846706D01*
X170003019Y-126613769D01*
X170313602Y-125454658D01*
X171182935Y-125687595D01*
G37*
G04 #@! TD.AperFunction*
G04 #@! TA.AperFunction,SMDPad,CuDef*
G36*
X167995379Y-124833493D02*
G01*
X167684796Y-125992604D01*
X166815463Y-125759667D01*
X167126046Y-124600556D01*
X167995379Y-124833493D01*
G37*
G04 #@! TD.AperFunction*
G04 #@! TA.AperFunction,SMDPad,CuDef*
G36*
X188449547Y-133433039D02*
G01*
X187849547Y-134472269D01*
X187070125Y-134022269D01*
X187670125Y-132983039D01*
X188449547Y-133433039D01*
G37*
G04 #@! TD.AperFunction*
G04 #@! TA.AperFunction,SMDPad,CuDef*
G36*
X185591663Y-131783039D02*
G01*
X184991663Y-132822269D01*
X184212241Y-132372269D01*
X184812241Y-131333039D01*
X185591663Y-131783039D01*
G37*
G04 #@! TD.AperFunction*
D12*
X185380000Y-63170000D03*
X200620000Y-63170000D03*
D13*
X196400000Y-63170000D03*
X189600000Y-63170000D03*
D14*
X187520000Y-63170000D03*
X188420000Y-63170000D03*
X197580000Y-63170000D03*
X198480000Y-63170000D03*
D12*
X185380000Y-65710000D03*
X200620000Y-65710000D03*
D13*
X196400000Y-65710000D03*
X189600000Y-65710000D03*
D14*
X187520000Y-65710000D03*
X188420000Y-65710000D03*
X197580000Y-65710000D03*
X198480000Y-65710000D03*
D12*
X185380000Y-68250000D03*
X200620000Y-68250000D03*
D13*
X196400000Y-68250000D03*
X189600000Y-68250000D03*
D14*
X187520000Y-68250000D03*
X188420000Y-68250000D03*
X197580000Y-68250000D03*
X198480000Y-68250000D03*
D12*
X185380000Y-70790000D03*
X200620000Y-70790000D03*
D13*
X196400000Y-70790000D03*
X189600000Y-70790000D03*
D14*
X187520000Y-70790000D03*
X188420000Y-70790000D03*
X197580000Y-70790000D03*
X198480000Y-70790000D03*
D12*
X185380000Y-73330000D03*
X200620000Y-73330000D03*
D13*
X196400000Y-73330000D03*
X189600000Y-73330000D03*
D14*
X187520000Y-73330000D03*
X188420000Y-73330000D03*
X197580000Y-73330000D03*
X198480000Y-73330000D03*
D12*
X185380000Y-75870000D03*
X200620000Y-75870000D03*
D13*
X196400000Y-75870000D03*
X189600000Y-75870000D03*
D14*
X187520000Y-75870000D03*
X188420000Y-75870000D03*
X197580000Y-75870000D03*
X198480000Y-75870000D03*
D12*
X185380000Y-78410000D03*
X200620000Y-78410000D03*
D13*
X196400000Y-78410000D03*
X189600000Y-78410000D03*
D14*
X187520000Y-78410000D03*
X188420000Y-78410000D03*
X197580000Y-78410000D03*
X198480000Y-78410000D03*
D12*
X185380000Y-80950000D03*
X200620000Y-80950000D03*
D13*
X196400000Y-80950000D03*
X189600000Y-80950000D03*
D14*
X187520000Y-80950000D03*
X188420000Y-80950000D03*
X197580000Y-80950000D03*
X198480000Y-80950000D03*
D12*
X185380000Y-83490000D03*
X200620000Y-83490000D03*
D13*
X196400000Y-83490000D03*
X189600000Y-83490000D03*
D14*
X187520000Y-83490000D03*
X188420000Y-83490000D03*
X197580000Y-83490000D03*
X198480000Y-83490000D03*
D12*
X185380000Y-86030000D03*
X200620000Y-86030000D03*
D13*
X196400000Y-86030000D03*
X189600000Y-86030000D03*
D14*
X187520000Y-86030000D03*
X188420000Y-86030000D03*
X197580000Y-86030000D03*
X198480000Y-86030000D03*
D12*
X185380000Y-88570000D03*
X200620000Y-88570000D03*
D13*
X196400000Y-88570000D03*
X189600000Y-88570000D03*
D14*
X187520000Y-88570000D03*
X188420000Y-88570000D03*
X197580000Y-88570000D03*
X198480000Y-88570000D03*
D12*
X185380000Y-91110000D03*
X200620000Y-91110000D03*
D13*
X196400000Y-91110000D03*
X189600000Y-91110000D03*
D14*
X187520000Y-91110000D03*
X188420000Y-91110000D03*
X197580000Y-91110000D03*
X198480000Y-91110000D03*
D15*
X189190000Y-99950000D03*
X191730000Y-99950000D03*
X194270000Y-99950000D03*
X196810000Y-99950000D03*
X189190000Y-100850000D03*
X191730000Y-100850000D03*
X194270000Y-100850000D03*
X196810000Y-100850000D03*
D16*
X189190000Y-98200000D03*
X191730000Y-98200000D03*
X194270000Y-98200000D03*
X196810000Y-98200000D03*
D17*
X203325000Y-94975000D03*
X201115000Y-94975000D03*
X201115000Y-102275000D03*
X203325000Y-102275000D03*
D18*
X200465000Y-100875000D03*
X200465000Y-97875000D03*
X200465000Y-96375000D03*
D19*
X201900000Y-112875000D03*
X201900000Y-106375000D03*
D20*
X193000000Y-106750000D03*
X193000000Y-104750000D03*
G04 #@! TA.AperFunction,SMDPad,CuDef*
G36*
X194600000Y-107350000D02*
G01*
X194400000Y-107350000D01*
X194400000Y-106150000D01*
X194600000Y-106150000D01*
X195200000Y-106750000D01*
X194600000Y-107350000D01*
G37*
G04 #@! TD.AperFunction*
G04 #@! TA.AperFunction,SMDPad,CuDef*
G36*
X194600000Y-105350000D02*
G01*
X194400000Y-105350000D01*
X194400000Y-104150000D01*
X194600000Y-104150000D01*
X195200000Y-104750000D01*
X194600000Y-105350000D01*
G37*
G04 #@! TD.AperFunction*
G04 #@! TA.AperFunction,SMDPad,CuDef*
G36*
X194816000Y-107350000D02*
G01*
X195416000Y-106750000D01*
X194816000Y-106150000D01*
X196066000Y-106150000D01*
X196066000Y-107350000D01*
X194816000Y-107350000D01*
G37*
G04 #@! TD.AperFunction*
G04 #@! TA.AperFunction,SMDPad,CuDef*
G36*
X194816000Y-105350000D02*
G01*
X195416000Y-104750000D01*
X194816000Y-104150000D01*
X196066000Y-104150000D01*
X196066000Y-105350000D01*
X194816000Y-105350000D01*
G37*
G04 #@! TD.AperFunction*
D21*
X197580000Y-63170000D02*
X196400000Y-63170000D01*
X188420000Y-63170000D02*
X189600000Y-63170000D01*
X185380000Y-63170000D02*
X187500000Y-63170000D01*
X198500000Y-63170000D02*
X200620000Y-63170000D01*
X197580000Y-65710000D02*
X196400000Y-65710000D01*
X188420000Y-65710000D02*
X189600000Y-65710000D01*
X185380000Y-65710000D02*
X187500000Y-65710000D01*
X198500000Y-65710000D02*
X200620000Y-65710000D01*
X197580000Y-68250000D02*
X196400000Y-68250000D01*
X188420000Y-68250000D02*
X189600000Y-68250000D01*
X185380000Y-68250000D02*
X187500000Y-68250000D01*
X198500000Y-68250000D02*
X200620000Y-68250000D01*
X197580000Y-70790000D02*
X196400000Y-70790000D01*
X188420000Y-70790000D02*
X189600000Y-70790000D01*
X185380000Y-70790000D02*
X187500000Y-70790000D01*
X198500000Y-70790000D02*
X200620000Y-70790000D01*
X197580000Y-73330000D02*
X196400000Y-73330000D01*
X188420000Y-73330000D02*
X189600000Y-73330000D01*
X185380000Y-73330000D02*
X187500000Y-73330000D01*
X198500000Y-73330000D02*
X200620000Y-73330000D01*
X197580000Y-75870000D02*
X196400000Y-75870000D01*
X188420000Y-75870000D02*
X189600000Y-75870000D01*
X185380000Y-75870000D02*
X187500000Y-75870000D01*
X198500000Y-75870000D02*
X200620000Y-75870000D01*
X197580000Y-78410000D02*
X196400000Y-78410000D01*
X188420000Y-78410000D02*
X189600000Y-78410000D01*
X185380000Y-78410000D02*
X187500000Y-78410000D01*
X198500000Y-78410000D02*
X200620000Y-78410000D01*
X197580000Y-80950000D02*
X196400000Y-80950000D01*
X188420000Y-80950000D02*
X189600000Y-80950000D01*
X185380000Y-80950000D02*
X187500000Y-80950000D01*
X198500000Y-80950000D02*
X200620000Y-80950000D01*
X197580000Y-83490000D02*
X196400000Y-83490000D01*
X188420000Y-83490000D02*
X189600000Y-83490000D01*
X185380000Y-83490000D02*
X187500000Y-83490000D01*
X198500000Y-83490000D02*
X200620000Y-83490000D01*
X197580000Y-86030000D02*
X196400000Y-86030000D01*
X188420000Y-86030000D02*
X189600000Y-86030000D01*
X185380000Y-86030000D02*
X187500000Y-86030000D01*
X198500000Y-86030000D02*
X200620000Y-86030000D01*
X197580000Y-88570000D02*
X196400000Y-88570000D01*
X188420000Y-88570000D02*
X189600000Y-88570000D01*
X185380000Y-88570000D02*
X187500000Y-88570000D01*
X198500000Y-88570000D02*
X200620000Y-88570000D01*
X197580000Y-91110000D02*
X196400000Y-91110000D01*
X188420000Y-91110000D02*
X189600000Y-91110000D01*
X185380000Y-91110000D02*
X187500000Y-91110000D01*
X198500000Y-91110000D02*
X200620000Y-91110000D01*
X189190000Y-98200000D02*
X189190000Y-99950000D01*
X191730000Y-98200000D02*
X191730000Y-99950000D01*
X194270000Y-98200000D02*
X194270000Y-99950000D01*
X196810000Y-98200000D02*
X196810000Y-99950000D01*
X194800000Y-106750000D02*
X193000000Y-106750000D01*
X194800000Y-104750000D02*
X193000000Y-104750000D01*
M02*
