G04 #@! TF.GenerationSoftware,KiCad,Pcbnew,8.0.6+1*
G04 #@! TF.CreationDate,2024-11-30T16:17:38+00:00*
G04 #@! TF.ProjectId,corney_island_wireless,636f726e-6579-45f6-9973-6c616e645f77,0.2*
G04 #@! TF.SameCoordinates,Original*
G04 #@! TF.FileFunction,Soldermask,Bot*
G04 #@! TF.FilePolarity,Negative*
%FSLAX46Y46*%
G04 Gerber Fmt 4.6, Leading zero omitted, Abs format (unit mm)*
G04 Created by KiCad (PCBNEW 8.0.6+1) date 2024-11-30 16:17:38*
%MOMM*%
%LPD*%
G01*
G04 APERTURE LIST*
%ADD10C,2.300000*%
%ADD11C,4.400000*%
%ADD12C,3.500000*%
%ADD13C,2.000000*%
%ADD14C,3.100000*%
%ADD15C,1.800000*%
%ADD16C,0.900000*%
%ADD17O,1.800000X1.800000*%
%ADD18C,1.000000*%
%ADD19C,2.100000*%
%ADD20O,1.850000X1.300000*%
G04 APERTURE END LIST*
D10*
X185000000Y-107700000D03*
X201000000Y-116600000D03*
D11*
X109000000Y-70250000D03*
X109000000Y-87250000D03*
X163000000Y-70250000D03*
X141400000Y-109775000D03*
X181186589Y-115013004D03*
D12*
X100000000Y-100000000D03*
D13*
X105500000Y-100000000D03*
X94500000Y-100000000D03*
D14*
X100000000Y-94050000D03*
G36*
G01*
X95375000Y-95350000D02*
X95375000Y-92750000D01*
G75*
G02*
X95425000Y-92700000I50000J0D01*
G01*
X98025000Y-92700000D01*
G75*
G02*
X98075000Y-92750000I0J-50000D01*
G01*
X98075000Y-95350000D01*
G75*
G02*
X98025000Y-95400000I-50000J0D01*
G01*
X95425000Y-95400000D01*
G75*
G02*
X95375000Y-95350000I0J50000D01*
G01*
G37*
G36*
G01*
X106925000Y-97550000D02*
X106925000Y-94950000D01*
G75*
G02*
X106975000Y-94900000I50000J0D01*
G01*
X109575000Y-94900000D01*
G75*
G02*
X109625000Y-94950000I0J-50000D01*
G01*
X109625000Y-97550000D01*
G75*
G02*
X109575000Y-97600000I-50000J0D01*
G01*
X106975000Y-97600000D01*
G75*
G02*
X106925000Y-97550000I0J50000D01*
G01*
G37*
X105000000Y-96250000D03*
D12*
X100000000Y-83000000D03*
D13*
X105500000Y-83000000D03*
X94500000Y-83000000D03*
D14*
X100000000Y-77050000D03*
G36*
G01*
X95375000Y-78350000D02*
X95375000Y-75750000D01*
G75*
G02*
X95425000Y-75700000I50000J0D01*
G01*
X98025000Y-75700000D01*
G75*
G02*
X98075000Y-75750000I0J-50000D01*
G01*
X98075000Y-78350000D01*
G75*
G02*
X98025000Y-78400000I-50000J0D01*
G01*
X95425000Y-78400000D01*
G75*
G02*
X95375000Y-78350000I0J50000D01*
G01*
G37*
G36*
G01*
X106925000Y-80550000D02*
X106925000Y-77950000D01*
G75*
G02*
X106975000Y-77900000I50000J0D01*
G01*
X109575000Y-77900000D01*
G75*
G02*
X109625000Y-77950000I0J-50000D01*
G01*
X109625000Y-80550000D01*
G75*
G02*
X109575000Y-80600000I-50000J0D01*
G01*
X106975000Y-80600000D01*
G75*
G02*
X106925000Y-80550000I0J50000D01*
G01*
G37*
X105000000Y-79250000D03*
D12*
X100000000Y-66000000D03*
D13*
X105500000Y-66000000D03*
X94500000Y-66000000D03*
D14*
X100000000Y-60050000D03*
G36*
G01*
X95375000Y-61350000D02*
X95375000Y-58750000D01*
G75*
G02*
X95425000Y-58700000I50000J0D01*
G01*
X98025000Y-58700000D01*
G75*
G02*
X98075000Y-58750000I0J-50000D01*
G01*
X98075000Y-61350000D01*
G75*
G02*
X98025000Y-61400000I-50000J0D01*
G01*
X95425000Y-61400000D01*
G75*
G02*
X95375000Y-61350000I0J50000D01*
G01*
G37*
G36*
G01*
X106925000Y-63550000D02*
X106925000Y-60950000D01*
G75*
G02*
X106975000Y-60900000I50000J0D01*
G01*
X109575000Y-60900000D01*
G75*
G02*
X109625000Y-60950000I0J-50000D01*
G01*
X109625000Y-63550000D01*
G75*
G02*
X109575000Y-63600000I-50000J0D01*
G01*
X106975000Y-63600000D01*
G75*
G02*
X106925000Y-63550000I0J50000D01*
G01*
G37*
X105000000Y-62250000D03*
D12*
X118000000Y-95750000D03*
D13*
X123500000Y-95750000D03*
X112500000Y-95750000D03*
D14*
X118000000Y-89800000D03*
G36*
G01*
X113375000Y-91100000D02*
X113375000Y-88500000D01*
G75*
G02*
X113425000Y-88450000I50000J0D01*
G01*
X116025000Y-88450000D01*
G75*
G02*
X116075000Y-88500000I0J-50000D01*
G01*
X116075000Y-91100000D01*
G75*
G02*
X116025000Y-91150000I-50000J0D01*
G01*
X113425000Y-91150000D01*
G75*
G02*
X113375000Y-91100000I0J50000D01*
G01*
G37*
G36*
G01*
X124925000Y-93300000D02*
X124925000Y-90700000D01*
G75*
G02*
X124975000Y-90650000I50000J0D01*
G01*
X127575000Y-90650000D01*
G75*
G02*
X127625000Y-90700000I0J-50000D01*
G01*
X127625000Y-93300000D01*
G75*
G02*
X127575000Y-93350000I-50000J0D01*
G01*
X124975000Y-93350000D01*
G75*
G02*
X124925000Y-93300000I0J50000D01*
G01*
G37*
X123000000Y-92000000D03*
D12*
X118000000Y-78750000D03*
D13*
X123500000Y-78750000D03*
X112500000Y-78750000D03*
D14*
X118000000Y-72800000D03*
G36*
G01*
X113375000Y-74100000D02*
X113375000Y-71500000D01*
G75*
G02*
X113425000Y-71450000I50000J0D01*
G01*
X116025000Y-71450000D01*
G75*
G02*
X116075000Y-71500000I0J-50000D01*
G01*
X116075000Y-74100000D01*
G75*
G02*
X116025000Y-74150000I-50000J0D01*
G01*
X113425000Y-74150000D01*
G75*
G02*
X113375000Y-74100000I0J50000D01*
G01*
G37*
G36*
G01*
X124925000Y-76300000D02*
X124925000Y-73700000D01*
G75*
G02*
X124975000Y-73650000I50000J0D01*
G01*
X127575000Y-73650000D01*
G75*
G02*
X127625000Y-73700000I0J-50000D01*
G01*
X127625000Y-76300000D01*
G75*
G02*
X127575000Y-76350000I-50000J0D01*
G01*
X124975000Y-76350000D01*
G75*
G02*
X124925000Y-76300000I0J50000D01*
G01*
G37*
X123000000Y-75000000D03*
D12*
X118000000Y-61750000D03*
D13*
X123500000Y-61750000D03*
X112500000Y-61750000D03*
D14*
X118000000Y-55800000D03*
G36*
G01*
X113375000Y-57100000D02*
X113375000Y-54500000D01*
G75*
G02*
X113425000Y-54450000I50000J0D01*
G01*
X116025000Y-54450000D01*
G75*
G02*
X116075000Y-54500000I0J-50000D01*
G01*
X116075000Y-57100000D01*
G75*
G02*
X116025000Y-57150000I-50000J0D01*
G01*
X113425000Y-57150000D01*
G75*
G02*
X113375000Y-57100000I0J50000D01*
G01*
G37*
G36*
G01*
X124925000Y-59300000D02*
X124925000Y-56700000D01*
G75*
G02*
X124975000Y-56650000I50000J0D01*
G01*
X127575000Y-56650000D01*
G75*
G02*
X127625000Y-56700000I0J-50000D01*
G01*
X127625000Y-59300000D01*
G75*
G02*
X127575000Y-59350000I-50000J0D01*
G01*
X124975000Y-59350000D01*
G75*
G02*
X124925000Y-59300000I0J50000D01*
G01*
G37*
X123000000Y-58000000D03*
D12*
X136000000Y-93625000D03*
D13*
X141500000Y-93625000D03*
X130500000Y-93625000D03*
D14*
X136000000Y-87675000D03*
G36*
G01*
X131375000Y-88975000D02*
X131375000Y-86375000D01*
G75*
G02*
X131425000Y-86325000I50000J0D01*
G01*
X134025000Y-86325000D01*
G75*
G02*
X134075000Y-86375000I0J-50000D01*
G01*
X134075000Y-88975000D01*
G75*
G02*
X134025000Y-89025000I-50000J0D01*
G01*
X131425000Y-89025000D01*
G75*
G02*
X131375000Y-88975000I0J50000D01*
G01*
G37*
G36*
G01*
X142925000Y-91175000D02*
X142925000Y-88575000D01*
G75*
G02*
X142975000Y-88525000I50000J0D01*
G01*
X145575000Y-88525000D01*
G75*
G02*
X145625000Y-88575000I0J-50000D01*
G01*
X145625000Y-91175000D01*
G75*
G02*
X145575000Y-91225000I-50000J0D01*
G01*
X142975000Y-91225000D01*
G75*
G02*
X142925000Y-91175000I0J50000D01*
G01*
G37*
X141000000Y-89875000D03*
D12*
X136000000Y-76625000D03*
D13*
X141500000Y-76625000D03*
X130500000Y-76625000D03*
D14*
X136000000Y-70675000D03*
G36*
G01*
X131375000Y-71975000D02*
X131375000Y-69375000D01*
G75*
G02*
X131425000Y-69325000I50000J0D01*
G01*
X134025000Y-69325000D01*
G75*
G02*
X134075000Y-69375000I0J-50000D01*
G01*
X134075000Y-71975000D01*
G75*
G02*
X134025000Y-72025000I-50000J0D01*
G01*
X131425000Y-72025000D01*
G75*
G02*
X131375000Y-71975000I0J50000D01*
G01*
G37*
G36*
G01*
X142925000Y-74175000D02*
X142925000Y-71575000D01*
G75*
G02*
X142975000Y-71525000I50000J0D01*
G01*
X145575000Y-71525000D01*
G75*
G02*
X145625000Y-71575000I0J-50000D01*
G01*
X145625000Y-74175000D01*
G75*
G02*
X145575000Y-74225000I-50000J0D01*
G01*
X142975000Y-74225000D01*
G75*
G02*
X142925000Y-74175000I0J50000D01*
G01*
G37*
X141000000Y-72875000D03*
D12*
X136000000Y-59625000D03*
D13*
X141500000Y-59625000D03*
X130500000Y-59625000D03*
D14*
X136000000Y-53675000D03*
G36*
G01*
X131375000Y-54975000D02*
X131375000Y-52375000D01*
G75*
G02*
X131425000Y-52325000I50000J0D01*
G01*
X134025000Y-52325000D01*
G75*
G02*
X134075000Y-52375000I0J-50000D01*
G01*
X134075000Y-54975000D01*
G75*
G02*
X134025000Y-55025000I-50000J0D01*
G01*
X131425000Y-55025000D01*
G75*
G02*
X131375000Y-54975000I0J50000D01*
G01*
G37*
G36*
G01*
X142925000Y-57175000D02*
X142925000Y-54575000D01*
G75*
G02*
X142975000Y-54525000I50000J0D01*
G01*
X145575000Y-54525000D01*
G75*
G02*
X145625000Y-54575000I0J-50000D01*
G01*
X145625000Y-57175000D01*
G75*
G02*
X145575000Y-57225000I-50000J0D01*
G01*
X142975000Y-57225000D01*
G75*
G02*
X142925000Y-57175000I0J50000D01*
G01*
G37*
X141000000Y-55875000D03*
D12*
X154000000Y-95750000D03*
D13*
X159500000Y-95750000D03*
X148500000Y-95750000D03*
D14*
X154000000Y-89800000D03*
G36*
G01*
X149375000Y-91100000D02*
X149375000Y-88500000D01*
G75*
G02*
X149425000Y-88450000I50000J0D01*
G01*
X152025000Y-88450000D01*
G75*
G02*
X152075000Y-88500000I0J-50000D01*
G01*
X152075000Y-91100000D01*
G75*
G02*
X152025000Y-91150000I-50000J0D01*
G01*
X149425000Y-91150000D01*
G75*
G02*
X149375000Y-91100000I0J50000D01*
G01*
G37*
G36*
G01*
X160925000Y-93300000D02*
X160925000Y-90700000D01*
G75*
G02*
X160975000Y-90650000I50000J0D01*
G01*
X163575000Y-90650000D01*
G75*
G02*
X163625000Y-90700000I0J-50000D01*
G01*
X163625000Y-93300000D01*
G75*
G02*
X163575000Y-93350000I-50000J0D01*
G01*
X160975000Y-93350000D01*
G75*
G02*
X160925000Y-93300000I0J50000D01*
G01*
G37*
X159000000Y-92000000D03*
D12*
X154000000Y-78750000D03*
D13*
X159500000Y-78750000D03*
X148500000Y-78750000D03*
D14*
X154000000Y-72800000D03*
G36*
G01*
X149375000Y-74100000D02*
X149375000Y-71500000D01*
G75*
G02*
X149425000Y-71450000I50000J0D01*
G01*
X152025000Y-71450000D01*
G75*
G02*
X152075000Y-71500000I0J-50000D01*
G01*
X152075000Y-74100000D01*
G75*
G02*
X152025000Y-74150000I-50000J0D01*
G01*
X149425000Y-74150000D01*
G75*
G02*
X149375000Y-74100000I0J50000D01*
G01*
G37*
G36*
G01*
X160925000Y-76300000D02*
X160925000Y-73700000D01*
G75*
G02*
X160975000Y-73650000I50000J0D01*
G01*
X163575000Y-73650000D01*
G75*
G02*
X163625000Y-73700000I0J-50000D01*
G01*
X163625000Y-76300000D01*
G75*
G02*
X163575000Y-76350000I-50000J0D01*
G01*
X160975000Y-76350000D01*
G75*
G02*
X160925000Y-76300000I0J50000D01*
G01*
G37*
X159000000Y-75000000D03*
D12*
X154000000Y-61750000D03*
D13*
X159500000Y-61750000D03*
X148500000Y-61750000D03*
D14*
X154000000Y-55800000D03*
G36*
G01*
X149375000Y-57100000D02*
X149375000Y-54500000D01*
G75*
G02*
X149425000Y-54450000I50000J0D01*
G01*
X152025000Y-54450000D01*
G75*
G02*
X152075000Y-54500000I0J-50000D01*
G01*
X152075000Y-57100000D01*
G75*
G02*
X152025000Y-57150000I-50000J0D01*
G01*
X149425000Y-57150000D01*
G75*
G02*
X149375000Y-57100000I0J50000D01*
G01*
G37*
G36*
G01*
X160925000Y-59300000D02*
X160925000Y-56700000D01*
G75*
G02*
X160975000Y-56650000I50000J0D01*
G01*
X163575000Y-56650000D01*
G75*
G02*
X163625000Y-56700000I0J-50000D01*
G01*
X163625000Y-59300000D01*
G75*
G02*
X163575000Y-59350000I-50000J0D01*
G01*
X160975000Y-59350000D01*
G75*
G02*
X160925000Y-59300000I0J50000D01*
G01*
G37*
X159000000Y-58000000D03*
D12*
X172000000Y-97875000D03*
D13*
X177500000Y-97875000D03*
X166500000Y-97875000D03*
D14*
X172000000Y-91925000D03*
G36*
G01*
X167375000Y-93225000D02*
X167375000Y-90625000D01*
G75*
G02*
X167425000Y-90575000I50000J0D01*
G01*
X170025000Y-90575000D01*
G75*
G02*
X170075000Y-90625000I0J-50000D01*
G01*
X170075000Y-93225000D01*
G75*
G02*
X170025000Y-93275000I-50000J0D01*
G01*
X167425000Y-93275000D01*
G75*
G02*
X167375000Y-93225000I0J50000D01*
G01*
G37*
G36*
G01*
X178925000Y-95425000D02*
X178925000Y-92825000D01*
G75*
G02*
X178975000Y-92775000I50000J0D01*
G01*
X181575000Y-92775000D01*
G75*
G02*
X181625000Y-92825000I0J-50000D01*
G01*
X181625000Y-95425000D01*
G75*
G02*
X181575000Y-95475000I-50000J0D01*
G01*
X178975000Y-95475000D01*
G75*
G02*
X178925000Y-95425000I0J50000D01*
G01*
G37*
X177000000Y-94125000D03*
D12*
X172000000Y-80875000D03*
D13*
X177500000Y-80875000D03*
X166500000Y-80875000D03*
D14*
X172000000Y-74925000D03*
G36*
G01*
X167375000Y-76225000D02*
X167375000Y-73625000D01*
G75*
G02*
X167425000Y-73575000I50000J0D01*
G01*
X170025000Y-73575000D01*
G75*
G02*
X170075000Y-73625000I0J-50000D01*
G01*
X170075000Y-76225000D01*
G75*
G02*
X170025000Y-76275000I-50000J0D01*
G01*
X167425000Y-76275000D01*
G75*
G02*
X167375000Y-76225000I0J50000D01*
G01*
G37*
G36*
G01*
X178925000Y-78425000D02*
X178925000Y-75825000D01*
G75*
G02*
X178975000Y-75775000I50000J0D01*
G01*
X181575000Y-75775000D01*
G75*
G02*
X181625000Y-75825000I0J-50000D01*
G01*
X181625000Y-78425000D01*
G75*
G02*
X181575000Y-78475000I-50000J0D01*
G01*
X178975000Y-78475000D01*
G75*
G02*
X178925000Y-78425000I0J50000D01*
G01*
G37*
X177000000Y-77125000D03*
D12*
X172000000Y-63875000D03*
D13*
X177500000Y-63875000D03*
X166500000Y-63875000D03*
D14*
X172000000Y-57925000D03*
G36*
G01*
X167375000Y-59225000D02*
X167375000Y-56625000D01*
G75*
G02*
X167425000Y-56575000I50000J0D01*
G01*
X170025000Y-56575000D01*
G75*
G02*
X170075000Y-56625000I0J-50000D01*
G01*
X170075000Y-59225000D01*
G75*
G02*
X170025000Y-59275000I-50000J0D01*
G01*
X167425000Y-59275000D01*
G75*
G02*
X167375000Y-59225000I0J50000D01*
G01*
G37*
G36*
G01*
X178925000Y-61425000D02*
X178925000Y-58825000D01*
G75*
G02*
X178975000Y-58775000I50000J0D01*
G01*
X181575000Y-58775000D01*
G75*
G02*
X181625000Y-58825000I0J-50000D01*
G01*
X181625000Y-61425000D01*
G75*
G02*
X181575000Y-61475000I-50000J0D01*
G01*
X178975000Y-61475000D01*
G75*
G02*
X178925000Y-61425000I0J50000D01*
G01*
G37*
X177000000Y-60125000D03*
D12*
X150400000Y-118275000D03*
D13*
X155900000Y-118275000D03*
X144900000Y-118275000D03*
D14*
X150400000Y-112325000D03*
G36*
G01*
X145775000Y-113625000D02*
X145775000Y-111025000D01*
G75*
G02*
X145825000Y-110975000I50000J0D01*
G01*
X148425000Y-110975000D01*
G75*
G02*
X148475000Y-111025000I0J-50000D01*
G01*
X148475000Y-113625000D01*
G75*
G02*
X148425000Y-113675000I-50000J0D01*
G01*
X145825000Y-113675000D01*
G75*
G02*
X145775000Y-113625000I0J50000D01*
G01*
G37*
G36*
G01*
X157325000Y-115825000D02*
X157325000Y-113225000D01*
G75*
G02*
X157375000Y-113175000I50000J0D01*
G01*
X159975000Y-113175000D01*
G75*
G02*
X160025000Y-113225000I0J-50000D01*
G01*
X160025000Y-115825000D01*
G75*
G02*
X159975000Y-115875000I-50000J0D01*
G01*
X157375000Y-115875000D01*
G75*
G02*
X157325000Y-115825000I0J50000D01*
G01*
G37*
X155400000Y-114525000D03*
D12*
X170293294Y-120894002D03*
D13*
X175605886Y-122317507D03*
X164980702Y-119470497D03*
D14*
X171833267Y-115146743D03*
G36*
G01*
X167029396Y-115205409D02*
X167702325Y-112694002D01*
G75*
G02*
X167763562Y-112658647I48296J-12941D01*
G01*
X170274969Y-113331576D01*
G75*
G02*
X170310324Y-113392813I-12941J-48296D01*
G01*
X169637395Y-115904220D01*
G75*
G02*
X169576158Y-115939575I-48296J12941D01*
G01*
X167064751Y-115266646D01*
G75*
G02*
X167029396Y-115205409I12941J48296D01*
G01*
G37*
G36*
G01*
X177616438Y-120319806D02*
X178289367Y-117808399D01*
G75*
G02*
X178350604Y-117773044I48296J-12941D01*
G01*
X180862011Y-118445973D01*
G75*
G02*
X180897366Y-118507210I-12941J-48296D01*
G01*
X180224437Y-121018617D01*
G75*
G02*
X180163200Y-121053972I-48296J12941D01*
G01*
X177651793Y-120381043D01*
G75*
G02*
X177616438Y-120319806I12941J48296D01*
G01*
G37*
X176093495Y-118565875D03*
D12*
X188830894Y-128572527D03*
D13*
X193594034Y-131322527D03*
X184067754Y-125822527D03*
D14*
X191805894Y-123419676D03*
G36*
G01*
X187150527Y-122233009D02*
X188450527Y-119981343D01*
G75*
G02*
X188518828Y-119963042I43301J-25000D01*
G01*
X190770494Y-121263042D01*
G75*
G02*
X190788795Y-121331343I-25000J-43301D01*
G01*
X189488795Y-123583009D01*
G75*
G02*
X189420494Y-123601310I-43301J25000D01*
G01*
X187168828Y-122301310D01*
G75*
G02*
X187150527Y-122233009I25000J43301D01*
G01*
G37*
G36*
G01*
X196053120Y-129913265D02*
X197353120Y-127661599D01*
G75*
G02*
X197421421Y-127643298I43301J-25000D01*
G01*
X199673087Y-128943298D01*
G75*
G02*
X199691388Y-129011599I-25000J-43301D01*
G01*
X198391388Y-131263265D01*
G75*
G02*
X198323087Y-131281566I-43301J25000D01*
G01*
X196071421Y-129981566D01*
G75*
G02*
X196053120Y-129913265I25000J43301D01*
G01*
G37*
X195036021Y-127824932D03*
G36*
G01*
X98850000Y-104400000D02*
X98850000Y-105600000D01*
G75*
G02*
X98800000Y-105650000I-50000J0D01*
G01*
X97900000Y-105650000D01*
G75*
G02*
X97850000Y-105600000I0J50000D01*
G01*
X97850000Y-104400000D01*
G75*
G02*
X97900000Y-104350000I50000J0D01*
G01*
X98800000Y-104350000D01*
G75*
G02*
X98850000Y-104400000I0J-50000D01*
G01*
G37*
G36*
G01*
X102150000Y-104400000D02*
X102150000Y-105600000D01*
G75*
G02*
X102100000Y-105650000I-50000J0D01*
G01*
X101200000Y-105650000D01*
G75*
G02*
X101150000Y-105600000I0J50000D01*
G01*
X101150000Y-104400000D01*
G75*
G02*
X101200000Y-104350000I50000J0D01*
G01*
X102100000Y-104350000D01*
G75*
G02*
X102150000Y-104400000I0J-50000D01*
G01*
G37*
G36*
G01*
X98850000Y-87400000D02*
X98850000Y-88600000D01*
G75*
G02*
X98800000Y-88650000I-50000J0D01*
G01*
X97900000Y-88650000D01*
G75*
G02*
X97850000Y-88600000I0J50000D01*
G01*
X97850000Y-87400000D01*
G75*
G02*
X97900000Y-87350000I50000J0D01*
G01*
X98800000Y-87350000D01*
G75*
G02*
X98850000Y-87400000I0J-50000D01*
G01*
G37*
G36*
G01*
X102150000Y-87400000D02*
X102150000Y-88600000D01*
G75*
G02*
X102100000Y-88650000I-50000J0D01*
G01*
X101200000Y-88650000D01*
G75*
G02*
X101150000Y-88600000I0J50000D01*
G01*
X101150000Y-87400000D01*
G75*
G02*
X101200000Y-87350000I50000J0D01*
G01*
X102100000Y-87350000D01*
G75*
G02*
X102150000Y-87400000I0J-50000D01*
G01*
G37*
G36*
G01*
X98850000Y-70400000D02*
X98850000Y-71600000D01*
G75*
G02*
X98800000Y-71650000I-50000J0D01*
G01*
X97900000Y-71650000D01*
G75*
G02*
X97850000Y-71600000I0J50000D01*
G01*
X97850000Y-70400000D01*
G75*
G02*
X97900000Y-70350000I50000J0D01*
G01*
X98800000Y-70350000D01*
G75*
G02*
X98850000Y-70400000I0J-50000D01*
G01*
G37*
G36*
G01*
X102150000Y-70400000D02*
X102150000Y-71600000D01*
G75*
G02*
X102100000Y-71650000I-50000J0D01*
G01*
X101200000Y-71650000D01*
G75*
G02*
X101150000Y-71600000I0J50000D01*
G01*
X101150000Y-70400000D01*
G75*
G02*
X101200000Y-70350000I50000J0D01*
G01*
X102100000Y-70350000D01*
G75*
G02*
X102150000Y-70400000I0J-50000D01*
G01*
G37*
G36*
G01*
X116850000Y-100150000D02*
X116850000Y-101350000D01*
G75*
G02*
X116800000Y-101400000I-50000J0D01*
G01*
X115900000Y-101400000D01*
G75*
G02*
X115850000Y-101350000I0J50000D01*
G01*
X115850000Y-100150000D01*
G75*
G02*
X115900000Y-100100000I50000J0D01*
G01*
X116800000Y-100100000D01*
G75*
G02*
X116850000Y-100150000I0J-50000D01*
G01*
G37*
G36*
G01*
X120150000Y-100150000D02*
X120150000Y-101350000D01*
G75*
G02*
X120100000Y-101400000I-50000J0D01*
G01*
X119200000Y-101400000D01*
G75*
G02*
X119150000Y-101350000I0J50000D01*
G01*
X119150000Y-100150000D01*
G75*
G02*
X119200000Y-100100000I50000J0D01*
G01*
X120100000Y-100100000D01*
G75*
G02*
X120150000Y-100150000I0J-50000D01*
G01*
G37*
G36*
G01*
X116850000Y-83150000D02*
X116850000Y-84350000D01*
G75*
G02*
X116800000Y-84400000I-50000J0D01*
G01*
X115900000Y-84400000D01*
G75*
G02*
X115850000Y-84350000I0J50000D01*
G01*
X115850000Y-83150000D01*
G75*
G02*
X115900000Y-83100000I50000J0D01*
G01*
X116800000Y-83100000D01*
G75*
G02*
X116850000Y-83150000I0J-50000D01*
G01*
G37*
G36*
G01*
X120150000Y-83150000D02*
X120150000Y-84350000D01*
G75*
G02*
X120100000Y-84400000I-50000J0D01*
G01*
X119200000Y-84400000D01*
G75*
G02*
X119150000Y-84350000I0J50000D01*
G01*
X119150000Y-83150000D01*
G75*
G02*
X119200000Y-83100000I50000J0D01*
G01*
X120100000Y-83100000D01*
G75*
G02*
X120150000Y-83150000I0J-50000D01*
G01*
G37*
G36*
G01*
X116850000Y-66150000D02*
X116850000Y-67350000D01*
G75*
G02*
X116800000Y-67400000I-50000J0D01*
G01*
X115900000Y-67400000D01*
G75*
G02*
X115850000Y-67350000I0J50000D01*
G01*
X115850000Y-66150000D01*
G75*
G02*
X115900000Y-66100000I50000J0D01*
G01*
X116800000Y-66100000D01*
G75*
G02*
X116850000Y-66150000I0J-50000D01*
G01*
G37*
G36*
G01*
X120150000Y-66150000D02*
X120150000Y-67350000D01*
G75*
G02*
X120100000Y-67400000I-50000J0D01*
G01*
X119200000Y-67400000D01*
G75*
G02*
X119150000Y-67350000I0J50000D01*
G01*
X119150000Y-66150000D01*
G75*
G02*
X119200000Y-66100000I50000J0D01*
G01*
X120100000Y-66100000D01*
G75*
G02*
X120150000Y-66150000I0J-50000D01*
G01*
G37*
G36*
G01*
X134850000Y-98025000D02*
X134850000Y-99225000D01*
G75*
G02*
X134800000Y-99275000I-50000J0D01*
G01*
X133900000Y-99275000D01*
G75*
G02*
X133850000Y-99225000I0J50000D01*
G01*
X133850000Y-98025000D01*
G75*
G02*
X133900000Y-97975000I50000J0D01*
G01*
X134800000Y-97975000D01*
G75*
G02*
X134850000Y-98025000I0J-50000D01*
G01*
G37*
G36*
G01*
X138150000Y-98025000D02*
X138150000Y-99225000D01*
G75*
G02*
X138100000Y-99275000I-50000J0D01*
G01*
X137200000Y-99275000D01*
G75*
G02*
X137150000Y-99225000I0J50000D01*
G01*
X137150000Y-98025000D01*
G75*
G02*
X137200000Y-97975000I50000J0D01*
G01*
X138100000Y-97975000D01*
G75*
G02*
X138150000Y-98025000I0J-50000D01*
G01*
G37*
G36*
G01*
X134850000Y-81025000D02*
X134850000Y-82225000D01*
G75*
G02*
X134800000Y-82275000I-50000J0D01*
G01*
X133900000Y-82275000D01*
G75*
G02*
X133850000Y-82225000I0J50000D01*
G01*
X133850000Y-81025000D01*
G75*
G02*
X133900000Y-80975000I50000J0D01*
G01*
X134800000Y-80975000D01*
G75*
G02*
X134850000Y-81025000I0J-50000D01*
G01*
G37*
G36*
G01*
X138150000Y-81025000D02*
X138150000Y-82225000D01*
G75*
G02*
X138100000Y-82275000I-50000J0D01*
G01*
X137200000Y-82275000D01*
G75*
G02*
X137150000Y-82225000I0J50000D01*
G01*
X137150000Y-81025000D01*
G75*
G02*
X137200000Y-80975000I50000J0D01*
G01*
X138100000Y-80975000D01*
G75*
G02*
X138150000Y-81025000I0J-50000D01*
G01*
G37*
G36*
G01*
X134850000Y-64025000D02*
X134850000Y-65225000D01*
G75*
G02*
X134800000Y-65275000I-50000J0D01*
G01*
X133900000Y-65275000D01*
G75*
G02*
X133850000Y-65225000I0J50000D01*
G01*
X133850000Y-64025000D01*
G75*
G02*
X133900000Y-63975000I50000J0D01*
G01*
X134800000Y-63975000D01*
G75*
G02*
X134850000Y-64025000I0J-50000D01*
G01*
G37*
G36*
G01*
X138150000Y-64025000D02*
X138150000Y-65225000D01*
G75*
G02*
X138100000Y-65275000I-50000J0D01*
G01*
X137200000Y-65275000D01*
G75*
G02*
X137150000Y-65225000I0J50000D01*
G01*
X137150000Y-64025000D01*
G75*
G02*
X137200000Y-63975000I50000J0D01*
G01*
X138100000Y-63975000D01*
G75*
G02*
X138150000Y-64025000I0J-50000D01*
G01*
G37*
G36*
G01*
X152850000Y-100150000D02*
X152850000Y-101350000D01*
G75*
G02*
X152800000Y-101400000I-50000J0D01*
G01*
X151900000Y-101400000D01*
G75*
G02*
X151850000Y-101350000I0J50000D01*
G01*
X151850000Y-100150000D01*
G75*
G02*
X151900000Y-100100000I50000J0D01*
G01*
X152800000Y-100100000D01*
G75*
G02*
X152850000Y-100150000I0J-50000D01*
G01*
G37*
G36*
G01*
X156150000Y-100150000D02*
X156150000Y-101350000D01*
G75*
G02*
X156100000Y-101400000I-50000J0D01*
G01*
X155200000Y-101400000D01*
G75*
G02*
X155150000Y-101350000I0J50000D01*
G01*
X155150000Y-100150000D01*
G75*
G02*
X155200000Y-100100000I50000J0D01*
G01*
X156100000Y-100100000D01*
G75*
G02*
X156150000Y-100150000I0J-50000D01*
G01*
G37*
G36*
G01*
X152850000Y-83150000D02*
X152850000Y-84350000D01*
G75*
G02*
X152800000Y-84400000I-50000J0D01*
G01*
X151900000Y-84400000D01*
G75*
G02*
X151850000Y-84350000I0J50000D01*
G01*
X151850000Y-83150000D01*
G75*
G02*
X151900000Y-83100000I50000J0D01*
G01*
X152800000Y-83100000D01*
G75*
G02*
X152850000Y-83150000I0J-50000D01*
G01*
G37*
G36*
G01*
X156150000Y-83150000D02*
X156150000Y-84350000D01*
G75*
G02*
X156100000Y-84400000I-50000J0D01*
G01*
X155200000Y-84400000D01*
G75*
G02*
X155150000Y-84350000I0J50000D01*
G01*
X155150000Y-83150000D01*
G75*
G02*
X155200000Y-83100000I50000J0D01*
G01*
X156100000Y-83100000D01*
G75*
G02*
X156150000Y-83150000I0J-50000D01*
G01*
G37*
G36*
G01*
X152850000Y-66150000D02*
X152850000Y-67350000D01*
G75*
G02*
X152800000Y-67400000I-50000J0D01*
G01*
X151900000Y-67400000D01*
G75*
G02*
X151850000Y-67350000I0J50000D01*
G01*
X151850000Y-66150000D01*
G75*
G02*
X151900000Y-66100000I50000J0D01*
G01*
X152800000Y-66100000D01*
G75*
G02*
X152850000Y-66150000I0J-50000D01*
G01*
G37*
G36*
G01*
X156150000Y-66150000D02*
X156150000Y-67350000D01*
G75*
G02*
X156100000Y-67400000I-50000J0D01*
G01*
X155200000Y-67400000D01*
G75*
G02*
X155150000Y-67350000I0J50000D01*
G01*
X155150000Y-66150000D01*
G75*
G02*
X155200000Y-66100000I50000J0D01*
G01*
X156100000Y-66100000D01*
G75*
G02*
X156150000Y-66150000I0J-50000D01*
G01*
G37*
G36*
G01*
X170850000Y-102275000D02*
X170850000Y-103475000D01*
G75*
G02*
X170800000Y-103525000I-50000J0D01*
G01*
X169900000Y-103525000D01*
G75*
G02*
X169850000Y-103475000I0J50000D01*
G01*
X169850000Y-102275000D01*
G75*
G02*
X169900000Y-102225000I50000J0D01*
G01*
X170800000Y-102225000D01*
G75*
G02*
X170850000Y-102275000I0J-50000D01*
G01*
G37*
G36*
G01*
X174150000Y-102275000D02*
X174150000Y-103475000D01*
G75*
G02*
X174100000Y-103525000I-50000J0D01*
G01*
X173200000Y-103525000D01*
G75*
G02*
X173150000Y-103475000I0J50000D01*
G01*
X173150000Y-102275000D01*
G75*
G02*
X173200000Y-102225000I50000J0D01*
G01*
X174100000Y-102225000D01*
G75*
G02*
X174150000Y-102275000I0J-50000D01*
G01*
G37*
G36*
G01*
X170850000Y-85275000D02*
X170850000Y-86475000D01*
G75*
G02*
X170800000Y-86525000I-50000J0D01*
G01*
X169900000Y-86525000D01*
G75*
G02*
X169850000Y-86475000I0J50000D01*
G01*
X169850000Y-85275000D01*
G75*
G02*
X169900000Y-85225000I50000J0D01*
G01*
X170800000Y-85225000D01*
G75*
G02*
X170850000Y-85275000I0J-50000D01*
G01*
G37*
G36*
G01*
X174150000Y-85275000D02*
X174150000Y-86475000D01*
G75*
G02*
X174100000Y-86525000I-50000J0D01*
G01*
X173200000Y-86525000D01*
G75*
G02*
X173150000Y-86475000I0J50000D01*
G01*
X173150000Y-85275000D01*
G75*
G02*
X173200000Y-85225000I50000J0D01*
G01*
X174100000Y-85225000D01*
G75*
G02*
X174150000Y-85275000I0J-50000D01*
G01*
G37*
G36*
G01*
X170850000Y-68275000D02*
X170850000Y-69475000D01*
G75*
G02*
X170800000Y-69525000I-50000J0D01*
G01*
X169900000Y-69525000D01*
G75*
G02*
X169850000Y-69475000I0J50000D01*
G01*
X169850000Y-68275000D01*
G75*
G02*
X169900000Y-68225000I50000J0D01*
G01*
X170800000Y-68225000D01*
G75*
G02*
X170850000Y-68275000I0J-50000D01*
G01*
G37*
G36*
G01*
X174150000Y-68275000D02*
X174150000Y-69475000D01*
G75*
G02*
X174100000Y-69525000I-50000J0D01*
G01*
X173200000Y-69525000D01*
G75*
G02*
X173150000Y-69475000I0J50000D01*
G01*
X173150000Y-68275000D01*
G75*
G02*
X173200000Y-68225000I50000J0D01*
G01*
X174100000Y-68225000D01*
G75*
G02*
X174150000Y-68275000I0J-50000D01*
G01*
G37*
G36*
G01*
X149250000Y-122675000D02*
X149250000Y-123875000D01*
G75*
G02*
X149200000Y-123925000I-50000J0D01*
G01*
X148300000Y-123925000D01*
G75*
G02*
X148250000Y-123875000I0J50000D01*
G01*
X148250000Y-122675000D01*
G75*
G02*
X148300000Y-122625000I50000J0D01*
G01*
X149200000Y-122625000D01*
G75*
G02*
X149250000Y-122675000I0J-50000D01*
G01*
G37*
G36*
G01*
X152550000Y-122675000D02*
X152550000Y-123875000D01*
G75*
G02*
X152500000Y-123925000I-50000J0D01*
G01*
X151600000Y-123925000D01*
G75*
G02*
X151550000Y-123875000I0J50000D01*
G01*
X151550000Y-122675000D01*
G75*
G02*
X151600000Y-122625000I50000J0D01*
G01*
X152500000Y-122625000D01*
G75*
G02*
X152550000Y-122675000I0J-50000D01*
G01*
G37*
G36*
G01*
X168043675Y-124846434D02*
X167733092Y-126005545D01*
G75*
G02*
X167671855Y-126040900I-48296J12941D01*
G01*
X166802522Y-125807963D01*
G75*
G02*
X166767167Y-125746726I12941J48296D01*
G01*
X167077750Y-124587615D01*
G75*
G02*
X167138987Y-124552260I48296J-12941D01*
G01*
X168008320Y-124785197D01*
G75*
G02*
X168043675Y-124846434I-12941J-48296D01*
G01*
G37*
G36*
G01*
X171231231Y-125700536D02*
X170920648Y-126859647D01*
G75*
G02*
X170859411Y-126895002I-48296J12941D01*
G01*
X169990078Y-126662065D01*
G75*
G02*
X169954723Y-126600828I12941J48296D01*
G01*
X170265306Y-125441717D01*
G75*
G02*
X170326543Y-125406362I48296J-12941D01*
G01*
X171195876Y-125639299D01*
G75*
G02*
X171231231Y-125700536I-12941J-48296D01*
G01*
G37*
G36*
G01*
X185634964Y-131808039D02*
X185034964Y-132847269D01*
G75*
G02*
X184966663Y-132865570I-43301J25000D01*
G01*
X184187241Y-132415570D01*
G75*
G02*
X184168940Y-132347269I25000J43301D01*
G01*
X184768940Y-131308039D01*
G75*
G02*
X184837241Y-131289738I43301J-25000D01*
G01*
X185616663Y-131739738D01*
G75*
G02*
X185634964Y-131808039I-25000J-43301D01*
G01*
G37*
G36*
G01*
X188492848Y-133458039D02*
X187892848Y-134497269D01*
G75*
G02*
X187824547Y-134515570I-43301J25000D01*
G01*
X187045125Y-134065570D01*
G75*
G02*
X187026824Y-133997269I25000J43301D01*
G01*
X187626824Y-132958039D01*
G75*
G02*
X187695125Y-132939738I43301J-25000D01*
G01*
X188474547Y-133389738D01*
G75*
G02*
X188492848Y-133458039I-25000J-43301D01*
G01*
G37*
D12*
X100000000Y-100000000D03*
D13*
X105500000Y-100000000D03*
X94500000Y-100000000D03*
D14*
X100000000Y-94050000D03*
X95000000Y-96250000D03*
D12*
X100000000Y-83000000D03*
D13*
X105500000Y-83000000D03*
X94500000Y-83000000D03*
D14*
X100000000Y-77050000D03*
X95000000Y-79250000D03*
D12*
X100000000Y-66000000D03*
D13*
X105500000Y-66000000D03*
X94500000Y-66000000D03*
D14*
X100000000Y-60050000D03*
X95000000Y-62250000D03*
D12*
X118000000Y-95750000D03*
D13*
X123500000Y-95750000D03*
X112500000Y-95750000D03*
D14*
X118000000Y-89800000D03*
X113000000Y-92000000D03*
D12*
X118000000Y-78750000D03*
D13*
X123500000Y-78750000D03*
X112500000Y-78750000D03*
D14*
X118000000Y-72800000D03*
X113000000Y-75000000D03*
D12*
X118000000Y-61750000D03*
D13*
X123500000Y-61750000D03*
X112500000Y-61750000D03*
D14*
X118000000Y-55800000D03*
X113000000Y-58000000D03*
D12*
X136000000Y-93625000D03*
D13*
X141500000Y-93625000D03*
X130500000Y-93625000D03*
D14*
X136000000Y-87675000D03*
X131000000Y-89875000D03*
D12*
X136000000Y-76625000D03*
D13*
X141500000Y-76625000D03*
X130500000Y-76625000D03*
D14*
X136000000Y-70675000D03*
X131000000Y-72875000D03*
D12*
X136000000Y-59625000D03*
D13*
X141500000Y-59625000D03*
X130500000Y-59625000D03*
D14*
X136000000Y-53675000D03*
X131000000Y-55875000D03*
D12*
X154000000Y-95750000D03*
D13*
X159500000Y-95750000D03*
X148500000Y-95750000D03*
D14*
X154000000Y-89800000D03*
X149000000Y-92000000D03*
D12*
X154000000Y-78750000D03*
D13*
X159500000Y-78750000D03*
X148500000Y-78750000D03*
D14*
X154000000Y-72800000D03*
X149000000Y-75000000D03*
D12*
X154000000Y-61750000D03*
D13*
X159500000Y-61750000D03*
X148500000Y-61750000D03*
D14*
X154000000Y-55800000D03*
X149000000Y-58000000D03*
D12*
X172000000Y-97875000D03*
D13*
X177500000Y-97875000D03*
X166500000Y-97875000D03*
D14*
X172000000Y-91925000D03*
X167000000Y-94125000D03*
D12*
X172000000Y-80875000D03*
D13*
X177500000Y-80875000D03*
X166500000Y-80875000D03*
D14*
X172000000Y-74925000D03*
X167000000Y-77125000D03*
D12*
X172000000Y-63875000D03*
D13*
X177500000Y-63875000D03*
X166500000Y-63875000D03*
D14*
X172000000Y-57925000D03*
X167000000Y-60125000D03*
D12*
X150400000Y-118275000D03*
D13*
X155900000Y-118275000D03*
X144900000Y-118275000D03*
D14*
X150400000Y-112325000D03*
X145400000Y-114525000D03*
D12*
X170293294Y-120894002D03*
D13*
X175605886Y-122317507D03*
X164980702Y-119470497D03*
D14*
X171833267Y-115146743D03*
X166434236Y-115977685D03*
D12*
X188830894Y-128572527D03*
D13*
X193594034Y-131322527D03*
X184067754Y-125822527D03*
D14*
X191805894Y-123419676D03*
X186375767Y-122824932D03*
D15*
X185380000Y-63170000D03*
X200620000Y-63170000D03*
D16*
X196400000Y-63170000D03*
X189600000Y-63170000D03*
G36*
G01*
X187170000Y-63770000D02*
X187170000Y-62570000D01*
G75*
G02*
X187220000Y-62520000I50000J0D01*
G01*
X187820000Y-62520000D01*
G75*
G02*
X187870000Y-62570000I0J-50000D01*
G01*
X187870000Y-63770000D01*
G75*
G02*
X187820000Y-63820000I-50000J0D01*
G01*
X187220000Y-63820000D01*
G75*
G02*
X187170000Y-63770000I0J50000D01*
G01*
G37*
G36*
G01*
X188070000Y-63770000D02*
X188070000Y-62570000D01*
G75*
G02*
X188120000Y-62520000I50000J0D01*
G01*
X188720000Y-62520000D01*
G75*
G02*
X188770000Y-62570000I0J-50000D01*
G01*
X188770000Y-63770000D01*
G75*
G02*
X188720000Y-63820000I-50000J0D01*
G01*
X188120000Y-63820000D01*
G75*
G02*
X188070000Y-63770000I0J50000D01*
G01*
G37*
G36*
G01*
X197230000Y-63770000D02*
X197230000Y-62570000D01*
G75*
G02*
X197280000Y-62520000I50000J0D01*
G01*
X197880000Y-62520000D01*
G75*
G02*
X197930000Y-62570000I0J-50000D01*
G01*
X197930000Y-63770000D01*
G75*
G02*
X197880000Y-63820000I-50000J0D01*
G01*
X197280000Y-63820000D01*
G75*
G02*
X197230000Y-63770000I0J50000D01*
G01*
G37*
G36*
G01*
X198130000Y-63770000D02*
X198130000Y-62570000D01*
G75*
G02*
X198180000Y-62520000I50000J0D01*
G01*
X198780000Y-62520000D01*
G75*
G02*
X198830000Y-62570000I0J-50000D01*
G01*
X198830000Y-63770000D01*
G75*
G02*
X198780000Y-63820000I-50000J0D01*
G01*
X198180000Y-63820000D01*
G75*
G02*
X198130000Y-63770000I0J50000D01*
G01*
G37*
D15*
X185380000Y-65710000D03*
X200620000Y-65710000D03*
D16*
X196400000Y-65710000D03*
X189600000Y-65710000D03*
G36*
G01*
X187170000Y-66310000D02*
X187170000Y-65110000D01*
G75*
G02*
X187220000Y-65060000I50000J0D01*
G01*
X187820000Y-65060000D01*
G75*
G02*
X187870000Y-65110000I0J-50000D01*
G01*
X187870000Y-66310000D01*
G75*
G02*
X187820000Y-66360000I-50000J0D01*
G01*
X187220000Y-66360000D01*
G75*
G02*
X187170000Y-66310000I0J50000D01*
G01*
G37*
G36*
G01*
X188070000Y-66310000D02*
X188070000Y-65110000D01*
G75*
G02*
X188120000Y-65060000I50000J0D01*
G01*
X188720000Y-65060000D01*
G75*
G02*
X188770000Y-65110000I0J-50000D01*
G01*
X188770000Y-66310000D01*
G75*
G02*
X188720000Y-66360000I-50000J0D01*
G01*
X188120000Y-66360000D01*
G75*
G02*
X188070000Y-66310000I0J50000D01*
G01*
G37*
G36*
G01*
X197230000Y-66310000D02*
X197230000Y-65110000D01*
G75*
G02*
X197280000Y-65060000I50000J0D01*
G01*
X197880000Y-65060000D01*
G75*
G02*
X197930000Y-65110000I0J-50000D01*
G01*
X197930000Y-66310000D01*
G75*
G02*
X197880000Y-66360000I-50000J0D01*
G01*
X197280000Y-66360000D01*
G75*
G02*
X197230000Y-66310000I0J50000D01*
G01*
G37*
G36*
G01*
X198130000Y-66310000D02*
X198130000Y-65110000D01*
G75*
G02*
X198180000Y-65060000I50000J0D01*
G01*
X198780000Y-65060000D01*
G75*
G02*
X198830000Y-65110000I0J-50000D01*
G01*
X198830000Y-66310000D01*
G75*
G02*
X198780000Y-66360000I-50000J0D01*
G01*
X198180000Y-66360000D01*
G75*
G02*
X198130000Y-66310000I0J50000D01*
G01*
G37*
D15*
X185380000Y-68250000D03*
X200620000Y-68250000D03*
D16*
X196400000Y-68250000D03*
X189600000Y-68250000D03*
G36*
G01*
X187170000Y-68850000D02*
X187170000Y-67650000D01*
G75*
G02*
X187220000Y-67600000I50000J0D01*
G01*
X187820000Y-67600000D01*
G75*
G02*
X187870000Y-67650000I0J-50000D01*
G01*
X187870000Y-68850000D01*
G75*
G02*
X187820000Y-68900000I-50000J0D01*
G01*
X187220000Y-68900000D01*
G75*
G02*
X187170000Y-68850000I0J50000D01*
G01*
G37*
G36*
G01*
X188070000Y-68850000D02*
X188070000Y-67650000D01*
G75*
G02*
X188120000Y-67600000I50000J0D01*
G01*
X188720000Y-67600000D01*
G75*
G02*
X188770000Y-67650000I0J-50000D01*
G01*
X188770000Y-68850000D01*
G75*
G02*
X188720000Y-68900000I-50000J0D01*
G01*
X188120000Y-68900000D01*
G75*
G02*
X188070000Y-68850000I0J50000D01*
G01*
G37*
G36*
G01*
X197230000Y-68850000D02*
X197230000Y-67650000D01*
G75*
G02*
X197280000Y-67600000I50000J0D01*
G01*
X197880000Y-67600000D01*
G75*
G02*
X197930000Y-67650000I0J-50000D01*
G01*
X197930000Y-68850000D01*
G75*
G02*
X197880000Y-68900000I-50000J0D01*
G01*
X197280000Y-68900000D01*
G75*
G02*
X197230000Y-68850000I0J50000D01*
G01*
G37*
G36*
G01*
X198130000Y-68850000D02*
X198130000Y-67650000D01*
G75*
G02*
X198180000Y-67600000I50000J0D01*
G01*
X198780000Y-67600000D01*
G75*
G02*
X198830000Y-67650000I0J-50000D01*
G01*
X198830000Y-68850000D01*
G75*
G02*
X198780000Y-68900000I-50000J0D01*
G01*
X198180000Y-68900000D01*
G75*
G02*
X198130000Y-68850000I0J50000D01*
G01*
G37*
D15*
X185380000Y-70790000D03*
X200620000Y-70790000D03*
D16*
X196400000Y-70790000D03*
X189600000Y-70790000D03*
G36*
G01*
X187170000Y-71390000D02*
X187170000Y-70190000D01*
G75*
G02*
X187220000Y-70140000I50000J0D01*
G01*
X187820000Y-70140000D01*
G75*
G02*
X187870000Y-70190000I0J-50000D01*
G01*
X187870000Y-71390000D01*
G75*
G02*
X187820000Y-71440000I-50000J0D01*
G01*
X187220000Y-71440000D01*
G75*
G02*
X187170000Y-71390000I0J50000D01*
G01*
G37*
G36*
G01*
X188070000Y-71390000D02*
X188070000Y-70190000D01*
G75*
G02*
X188120000Y-70140000I50000J0D01*
G01*
X188720000Y-70140000D01*
G75*
G02*
X188770000Y-70190000I0J-50000D01*
G01*
X188770000Y-71390000D01*
G75*
G02*
X188720000Y-71440000I-50000J0D01*
G01*
X188120000Y-71440000D01*
G75*
G02*
X188070000Y-71390000I0J50000D01*
G01*
G37*
G36*
G01*
X197230000Y-71390000D02*
X197230000Y-70190000D01*
G75*
G02*
X197280000Y-70140000I50000J0D01*
G01*
X197880000Y-70140000D01*
G75*
G02*
X197930000Y-70190000I0J-50000D01*
G01*
X197930000Y-71390000D01*
G75*
G02*
X197880000Y-71440000I-50000J0D01*
G01*
X197280000Y-71440000D01*
G75*
G02*
X197230000Y-71390000I0J50000D01*
G01*
G37*
G36*
G01*
X198130000Y-71390000D02*
X198130000Y-70190000D01*
G75*
G02*
X198180000Y-70140000I50000J0D01*
G01*
X198780000Y-70140000D01*
G75*
G02*
X198830000Y-70190000I0J-50000D01*
G01*
X198830000Y-71390000D01*
G75*
G02*
X198780000Y-71440000I-50000J0D01*
G01*
X198180000Y-71440000D01*
G75*
G02*
X198130000Y-71390000I0J50000D01*
G01*
G37*
D15*
X185380000Y-73330000D03*
X200620000Y-73330000D03*
D16*
X196400000Y-73330000D03*
X189600000Y-73330000D03*
G36*
G01*
X187170000Y-73930000D02*
X187170000Y-72730000D01*
G75*
G02*
X187220000Y-72680000I50000J0D01*
G01*
X187820000Y-72680000D01*
G75*
G02*
X187870000Y-72730000I0J-50000D01*
G01*
X187870000Y-73930000D01*
G75*
G02*
X187820000Y-73980000I-50000J0D01*
G01*
X187220000Y-73980000D01*
G75*
G02*
X187170000Y-73930000I0J50000D01*
G01*
G37*
G36*
G01*
X188070000Y-73930000D02*
X188070000Y-72730000D01*
G75*
G02*
X188120000Y-72680000I50000J0D01*
G01*
X188720000Y-72680000D01*
G75*
G02*
X188770000Y-72730000I0J-50000D01*
G01*
X188770000Y-73930000D01*
G75*
G02*
X188720000Y-73980000I-50000J0D01*
G01*
X188120000Y-73980000D01*
G75*
G02*
X188070000Y-73930000I0J50000D01*
G01*
G37*
G36*
G01*
X197230000Y-73930000D02*
X197230000Y-72730000D01*
G75*
G02*
X197280000Y-72680000I50000J0D01*
G01*
X197880000Y-72680000D01*
G75*
G02*
X197930000Y-72730000I0J-50000D01*
G01*
X197930000Y-73930000D01*
G75*
G02*
X197880000Y-73980000I-50000J0D01*
G01*
X197280000Y-73980000D01*
G75*
G02*
X197230000Y-73930000I0J50000D01*
G01*
G37*
G36*
G01*
X198130000Y-73930000D02*
X198130000Y-72730000D01*
G75*
G02*
X198180000Y-72680000I50000J0D01*
G01*
X198780000Y-72680000D01*
G75*
G02*
X198830000Y-72730000I0J-50000D01*
G01*
X198830000Y-73930000D01*
G75*
G02*
X198780000Y-73980000I-50000J0D01*
G01*
X198180000Y-73980000D01*
G75*
G02*
X198130000Y-73930000I0J50000D01*
G01*
G37*
D15*
X185380000Y-75870000D03*
X200620000Y-75870000D03*
D16*
X196400000Y-75870000D03*
X189600000Y-75870000D03*
G36*
G01*
X187170000Y-76470000D02*
X187170000Y-75270000D01*
G75*
G02*
X187220000Y-75220000I50000J0D01*
G01*
X187820000Y-75220000D01*
G75*
G02*
X187870000Y-75270000I0J-50000D01*
G01*
X187870000Y-76470000D01*
G75*
G02*
X187820000Y-76520000I-50000J0D01*
G01*
X187220000Y-76520000D01*
G75*
G02*
X187170000Y-76470000I0J50000D01*
G01*
G37*
G36*
G01*
X188070000Y-76470000D02*
X188070000Y-75270000D01*
G75*
G02*
X188120000Y-75220000I50000J0D01*
G01*
X188720000Y-75220000D01*
G75*
G02*
X188770000Y-75270000I0J-50000D01*
G01*
X188770000Y-76470000D01*
G75*
G02*
X188720000Y-76520000I-50000J0D01*
G01*
X188120000Y-76520000D01*
G75*
G02*
X188070000Y-76470000I0J50000D01*
G01*
G37*
G36*
G01*
X197230000Y-76470000D02*
X197230000Y-75270000D01*
G75*
G02*
X197280000Y-75220000I50000J0D01*
G01*
X197880000Y-75220000D01*
G75*
G02*
X197930000Y-75270000I0J-50000D01*
G01*
X197930000Y-76470000D01*
G75*
G02*
X197880000Y-76520000I-50000J0D01*
G01*
X197280000Y-76520000D01*
G75*
G02*
X197230000Y-76470000I0J50000D01*
G01*
G37*
G36*
G01*
X198130000Y-76470000D02*
X198130000Y-75270000D01*
G75*
G02*
X198180000Y-75220000I50000J0D01*
G01*
X198780000Y-75220000D01*
G75*
G02*
X198830000Y-75270000I0J-50000D01*
G01*
X198830000Y-76470000D01*
G75*
G02*
X198780000Y-76520000I-50000J0D01*
G01*
X198180000Y-76520000D01*
G75*
G02*
X198130000Y-76470000I0J50000D01*
G01*
G37*
D15*
X185380000Y-78410000D03*
X200620000Y-78410000D03*
D16*
X196400000Y-78410000D03*
X189600000Y-78410000D03*
G36*
G01*
X187170000Y-79010000D02*
X187170000Y-77810000D01*
G75*
G02*
X187220000Y-77760000I50000J0D01*
G01*
X187820000Y-77760000D01*
G75*
G02*
X187870000Y-77810000I0J-50000D01*
G01*
X187870000Y-79010000D01*
G75*
G02*
X187820000Y-79060000I-50000J0D01*
G01*
X187220000Y-79060000D01*
G75*
G02*
X187170000Y-79010000I0J50000D01*
G01*
G37*
G36*
G01*
X188070000Y-79010000D02*
X188070000Y-77810000D01*
G75*
G02*
X188120000Y-77760000I50000J0D01*
G01*
X188720000Y-77760000D01*
G75*
G02*
X188770000Y-77810000I0J-50000D01*
G01*
X188770000Y-79010000D01*
G75*
G02*
X188720000Y-79060000I-50000J0D01*
G01*
X188120000Y-79060000D01*
G75*
G02*
X188070000Y-79010000I0J50000D01*
G01*
G37*
G36*
G01*
X197230000Y-79010000D02*
X197230000Y-77810000D01*
G75*
G02*
X197280000Y-77760000I50000J0D01*
G01*
X197880000Y-77760000D01*
G75*
G02*
X197930000Y-77810000I0J-50000D01*
G01*
X197930000Y-79010000D01*
G75*
G02*
X197880000Y-79060000I-50000J0D01*
G01*
X197280000Y-79060000D01*
G75*
G02*
X197230000Y-79010000I0J50000D01*
G01*
G37*
G36*
G01*
X198130000Y-79010000D02*
X198130000Y-77810000D01*
G75*
G02*
X198180000Y-77760000I50000J0D01*
G01*
X198780000Y-77760000D01*
G75*
G02*
X198830000Y-77810000I0J-50000D01*
G01*
X198830000Y-79010000D01*
G75*
G02*
X198780000Y-79060000I-50000J0D01*
G01*
X198180000Y-79060000D01*
G75*
G02*
X198130000Y-79010000I0J50000D01*
G01*
G37*
D15*
X185380000Y-80950000D03*
X200620000Y-80950000D03*
D16*
X196400000Y-80950000D03*
X189600000Y-80950000D03*
G36*
G01*
X187170000Y-81550000D02*
X187170000Y-80350000D01*
G75*
G02*
X187220000Y-80300000I50000J0D01*
G01*
X187820000Y-80300000D01*
G75*
G02*
X187870000Y-80350000I0J-50000D01*
G01*
X187870000Y-81550000D01*
G75*
G02*
X187820000Y-81600000I-50000J0D01*
G01*
X187220000Y-81600000D01*
G75*
G02*
X187170000Y-81550000I0J50000D01*
G01*
G37*
G36*
G01*
X188070000Y-81550000D02*
X188070000Y-80350000D01*
G75*
G02*
X188120000Y-80300000I50000J0D01*
G01*
X188720000Y-80300000D01*
G75*
G02*
X188770000Y-80350000I0J-50000D01*
G01*
X188770000Y-81550000D01*
G75*
G02*
X188720000Y-81600000I-50000J0D01*
G01*
X188120000Y-81600000D01*
G75*
G02*
X188070000Y-81550000I0J50000D01*
G01*
G37*
G36*
G01*
X197230000Y-81550000D02*
X197230000Y-80350000D01*
G75*
G02*
X197280000Y-80300000I50000J0D01*
G01*
X197880000Y-80300000D01*
G75*
G02*
X197930000Y-80350000I0J-50000D01*
G01*
X197930000Y-81550000D01*
G75*
G02*
X197880000Y-81600000I-50000J0D01*
G01*
X197280000Y-81600000D01*
G75*
G02*
X197230000Y-81550000I0J50000D01*
G01*
G37*
G36*
G01*
X198130000Y-81550000D02*
X198130000Y-80350000D01*
G75*
G02*
X198180000Y-80300000I50000J0D01*
G01*
X198780000Y-80300000D01*
G75*
G02*
X198830000Y-80350000I0J-50000D01*
G01*
X198830000Y-81550000D01*
G75*
G02*
X198780000Y-81600000I-50000J0D01*
G01*
X198180000Y-81600000D01*
G75*
G02*
X198130000Y-81550000I0J50000D01*
G01*
G37*
D15*
X185380000Y-83490000D03*
X200620000Y-83490000D03*
D16*
X196400000Y-83490000D03*
X189600000Y-83490000D03*
G36*
G01*
X187170000Y-84090000D02*
X187170000Y-82890000D01*
G75*
G02*
X187220000Y-82840000I50000J0D01*
G01*
X187820000Y-82840000D01*
G75*
G02*
X187870000Y-82890000I0J-50000D01*
G01*
X187870000Y-84090000D01*
G75*
G02*
X187820000Y-84140000I-50000J0D01*
G01*
X187220000Y-84140000D01*
G75*
G02*
X187170000Y-84090000I0J50000D01*
G01*
G37*
G36*
G01*
X188070000Y-84090000D02*
X188070000Y-82890000D01*
G75*
G02*
X188120000Y-82840000I50000J0D01*
G01*
X188720000Y-82840000D01*
G75*
G02*
X188770000Y-82890000I0J-50000D01*
G01*
X188770000Y-84090000D01*
G75*
G02*
X188720000Y-84140000I-50000J0D01*
G01*
X188120000Y-84140000D01*
G75*
G02*
X188070000Y-84090000I0J50000D01*
G01*
G37*
G36*
G01*
X197230000Y-84090000D02*
X197230000Y-82890000D01*
G75*
G02*
X197280000Y-82840000I50000J0D01*
G01*
X197880000Y-82840000D01*
G75*
G02*
X197930000Y-82890000I0J-50000D01*
G01*
X197930000Y-84090000D01*
G75*
G02*
X197880000Y-84140000I-50000J0D01*
G01*
X197280000Y-84140000D01*
G75*
G02*
X197230000Y-84090000I0J50000D01*
G01*
G37*
G36*
G01*
X198130000Y-84090000D02*
X198130000Y-82890000D01*
G75*
G02*
X198180000Y-82840000I50000J0D01*
G01*
X198780000Y-82840000D01*
G75*
G02*
X198830000Y-82890000I0J-50000D01*
G01*
X198830000Y-84090000D01*
G75*
G02*
X198780000Y-84140000I-50000J0D01*
G01*
X198180000Y-84140000D01*
G75*
G02*
X198130000Y-84090000I0J50000D01*
G01*
G37*
D15*
X185380000Y-86030000D03*
X200620000Y-86030000D03*
D16*
X196400000Y-86030000D03*
X189600000Y-86030000D03*
G36*
G01*
X187170000Y-86630000D02*
X187170000Y-85430000D01*
G75*
G02*
X187220000Y-85380000I50000J0D01*
G01*
X187820000Y-85380000D01*
G75*
G02*
X187870000Y-85430000I0J-50000D01*
G01*
X187870000Y-86630000D01*
G75*
G02*
X187820000Y-86680000I-50000J0D01*
G01*
X187220000Y-86680000D01*
G75*
G02*
X187170000Y-86630000I0J50000D01*
G01*
G37*
G36*
G01*
X188070000Y-86630000D02*
X188070000Y-85430000D01*
G75*
G02*
X188120000Y-85380000I50000J0D01*
G01*
X188720000Y-85380000D01*
G75*
G02*
X188770000Y-85430000I0J-50000D01*
G01*
X188770000Y-86630000D01*
G75*
G02*
X188720000Y-86680000I-50000J0D01*
G01*
X188120000Y-86680000D01*
G75*
G02*
X188070000Y-86630000I0J50000D01*
G01*
G37*
G36*
G01*
X197230000Y-86630000D02*
X197230000Y-85430000D01*
G75*
G02*
X197280000Y-85380000I50000J0D01*
G01*
X197880000Y-85380000D01*
G75*
G02*
X197930000Y-85430000I0J-50000D01*
G01*
X197930000Y-86630000D01*
G75*
G02*
X197880000Y-86680000I-50000J0D01*
G01*
X197280000Y-86680000D01*
G75*
G02*
X197230000Y-86630000I0J50000D01*
G01*
G37*
G36*
G01*
X198130000Y-86630000D02*
X198130000Y-85430000D01*
G75*
G02*
X198180000Y-85380000I50000J0D01*
G01*
X198780000Y-85380000D01*
G75*
G02*
X198830000Y-85430000I0J-50000D01*
G01*
X198830000Y-86630000D01*
G75*
G02*
X198780000Y-86680000I-50000J0D01*
G01*
X198180000Y-86680000D01*
G75*
G02*
X198130000Y-86630000I0J50000D01*
G01*
G37*
D15*
X185380000Y-88570000D03*
X200620000Y-88570000D03*
D16*
X196400000Y-88570000D03*
X189600000Y-88570000D03*
G36*
G01*
X187170000Y-89170000D02*
X187170000Y-87970000D01*
G75*
G02*
X187220000Y-87920000I50000J0D01*
G01*
X187820000Y-87920000D01*
G75*
G02*
X187870000Y-87970000I0J-50000D01*
G01*
X187870000Y-89170000D01*
G75*
G02*
X187820000Y-89220000I-50000J0D01*
G01*
X187220000Y-89220000D01*
G75*
G02*
X187170000Y-89170000I0J50000D01*
G01*
G37*
G36*
G01*
X188070000Y-89170000D02*
X188070000Y-87970000D01*
G75*
G02*
X188120000Y-87920000I50000J0D01*
G01*
X188720000Y-87920000D01*
G75*
G02*
X188770000Y-87970000I0J-50000D01*
G01*
X188770000Y-89170000D01*
G75*
G02*
X188720000Y-89220000I-50000J0D01*
G01*
X188120000Y-89220000D01*
G75*
G02*
X188070000Y-89170000I0J50000D01*
G01*
G37*
G36*
G01*
X197230000Y-89170000D02*
X197230000Y-87970000D01*
G75*
G02*
X197280000Y-87920000I50000J0D01*
G01*
X197880000Y-87920000D01*
G75*
G02*
X197930000Y-87970000I0J-50000D01*
G01*
X197930000Y-89170000D01*
G75*
G02*
X197880000Y-89220000I-50000J0D01*
G01*
X197280000Y-89220000D01*
G75*
G02*
X197230000Y-89170000I0J50000D01*
G01*
G37*
G36*
G01*
X198130000Y-89170000D02*
X198130000Y-87970000D01*
G75*
G02*
X198180000Y-87920000I50000J0D01*
G01*
X198780000Y-87920000D01*
G75*
G02*
X198830000Y-87970000I0J-50000D01*
G01*
X198830000Y-89170000D01*
G75*
G02*
X198780000Y-89220000I-50000J0D01*
G01*
X198180000Y-89220000D01*
G75*
G02*
X198130000Y-89170000I0J50000D01*
G01*
G37*
D15*
X185380000Y-91110000D03*
X200620000Y-91110000D03*
D16*
X196400000Y-91110000D03*
X189600000Y-91110000D03*
G36*
G01*
X187170000Y-91710000D02*
X187170000Y-90510000D01*
G75*
G02*
X187220000Y-90460000I50000J0D01*
G01*
X187820000Y-90460000D01*
G75*
G02*
X187870000Y-90510000I0J-50000D01*
G01*
X187870000Y-91710000D01*
G75*
G02*
X187820000Y-91760000I-50000J0D01*
G01*
X187220000Y-91760000D01*
G75*
G02*
X187170000Y-91710000I0J50000D01*
G01*
G37*
G36*
G01*
X188070000Y-91710000D02*
X188070000Y-90510000D01*
G75*
G02*
X188120000Y-90460000I50000J0D01*
G01*
X188720000Y-90460000D01*
G75*
G02*
X188770000Y-90510000I0J-50000D01*
G01*
X188770000Y-91710000D01*
G75*
G02*
X188720000Y-91760000I-50000J0D01*
G01*
X188120000Y-91760000D01*
G75*
G02*
X188070000Y-91710000I0J50000D01*
G01*
G37*
G36*
G01*
X197230000Y-91710000D02*
X197230000Y-90510000D01*
G75*
G02*
X197280000Y-90460000I50000J0D01*
G01*
X197880000Y-90460000D01*
G75*
G02*
X197930000Y-90510000I0J-50000D01*
G01*
X197930000Y-91710000D01*
G75*
G02*
X197880000Y-91760000I-50000J0D01*
G01*
X197280000Y-91760000D01*
G75*
G02*
X197230000Y-91710000I0J50000D01*
G01*
G37*
G36*
G01*
X198130000Y-91710000D02*
X198130000Y-90510000D01*
G75*
G02*
X198180000Y-90460000I50000J0D01*
G01*
X198780000Y-90460000D01*
G75*
G02*
X198830000Y-90510000I0J-50000D01*
G01*
X198830000Y-91710000D01*
G75*
G02*
X198780000Y-91760000I-50000J0D01*
G01*
X198180000Y-91760000D01*
G75*
G02*
X198130000Y-91710000I0J50000D01*
G01*
G37*
G36*
G01*
X196210000Y-99600000D02*
X197410000Y-99600000D01*
G75*
G02*
X197460000Y-99650000I0J-50000D01*
G01*
X197460000Y-100250000D01*
G75*
G02*
X197410000Y-100300000I-50000J0D01*
G01*
X196210000Y-100300000D01*
G75*
G02*
X196160000Y-100250000I0J50000D01*
G01*
X196160000Y-99650000D01*
G75*
G02*
X196210000Y-99600000I50000J0D01*
G01*
G37*
G36*
G01*
X193670000Y-99600000D02*
X194870000Y-99600000D01*
G75*
G02*
X194920000Y-99650000I0J-50000D01*
G01*
X194920000Y-100250000D01*
G75*
G02*
X194870000Y-100300000I-50000J0D01*
G01*
X193670000Y-100300000D01*
G75*
G02*
X193620000Y-100250000I0J50000D01*
G01*
X193620000Y-99650000D01*
G75*
G02*
X193670000Y-99600000I50000J0D01*
G01*
G37*
G36*
G01*
X191130000Y-99600000D02*
X192330000Y-99600000D01*
G75*
G02*
X192380000Y-99650000I0J-50000D01*
G01*
X192380000Y-100250000D01*
G75*
G02*
X192330000Y-100300000I-50000J0D01*
G01*
X191130000Y-100300000D01*
G75*
G02*
X191080000Y-100250000I0J50000D01*
G01*
X191080000Y-99650000D01*
G75*
G02*
X191130000Y-99600000I50000J0D01*
G01*
G37*
G36*
G01*
X188590000Y-99600000D02*
X189790000Y-99600000D01*
G75*
G02*
X189840000Y-99650000I0J-50000D01*
G01*
X189840000Y-100250000D01*
G75*
G02*
X189790000Y-100300000I-50000J0D01*
G01*
X188590000Y-100300000D01*
G75*
G02*
X188540000Y-100250000I0J50000D01*
G01*
X188540000Y-99650000D01*
G75*
G02*
X188590000Y-99600000I50000J0D01*
G01*
G37*
G36*
G01*
X196210000Y-100500000D02*
X197410000Y-100500000D01*
G75*
G02*
X197460000Y-100550000I0J-50000D01*
G01*
X197460000Y-101150000D01*
G75*
G02*
X197410000Y-101200000I-50000J0D01*
G01*
X196210000Y-101200000D01*
G75*
G02*
X196160000Y-101150000I0J50000D01*
G01*
X196160000Y-100550000D01*
G75*
G02*
X196210000Y-100500000I50000J0D01*
G01*
G37*
G36*
G01*
X193670000Y-100500000D02*
X194870000Y-100500000D01*
G75*
G02*
X194920000Y-100550000I0J-50000D01*
G01*
X194920000Y-101150000D01*
G75*
G02*
X194870000Y-101200000I-50000J0D01*
G01*
X193670000Y-101200000D01*
G75*
G02*
X193620000Y-101150000I0J50000D01*
G01*
X193620000Y-100550000D01*
G75*
G02*
X193670000Y-100500000I50000J0D01*
G01*
G37*
G36*
G01*
X191130000Y-100500000D02*
X192330000Y-100500000D01*
G75*
G02*
X192380000Y-100550000I0J-50000D01*
G01*
X192380000Y-101150000D01*
G75*
G02*
X192330000Y-101200000I-50000J0D01*
G01*
X191130000Y-101200000D01*
G75*
G02*
X191080000Y-101150000I0J50000D01*
G01*
X191080000Y-100550000D01*
G75*
G02*
X191130000Y-100500000I50000J0D01*
G01*
G37*
G36*
G01*
X188590000Y-100500000D02*
X189790000Y-100500000D01*
G75*
G02*
X189840000Y-100550000I0J-50000D01*
G01*
X189840000Y-101150000D01*
G75*
G02*
X189790000Y-101200000I-50000J0D01*
G01*
X188590000Y-101200000D01*
G75*
G02*
X188540000Y-101150000I0J50000D01*
G01*
X188540000Y-100550000D01*
G75*
G02*
X188590000Y-100500000I50000J0D01*
G01*
G37*
D17*
X189190000Y-98200000D03*
X191730000Y-98200000D03*
X194270000Y-98200000D03*
X196810000Y-98200000D03*
G36*
G01*
X200715000Y-94425000D02*
X201515000Y-94425000D01*
G75*
G02*
X201565000Y-94475000I0J-50000D01*
G01*
X201565000Y-95475000D01*
G75*
G02*
X201515000Y-95525000I-50000J0D01*
G01*
X200715000Y-95525000D01*
G75*
G02*
X200665000Y-95475000I0J50000D01*
G01*
X200665000Y-94475000D01*
G75*
G02*
X200715000Y-94425000I50000J0D01*
G01*
G37*
G36*
G01*
X202925000Y-94425000D02*
X203725000Y-94425000D01*
G75*
G02*
X203775000Y-94475000I0J-50000D01*
G01*
X203775000Y-95475000D01*
G75*
G02*
X203725000Y-95525000I-50000J0D01*
G01*
X202925000Y-95525000D01*
G75*
G02*
X202875000Y-95475000I0J50000D01*
G01*
X202875000Y-94475000D01*
G75*
G02*
X202925000Y-94425000I50000J0D01*
G01*
G37*
G36*
G01*
X200715000Y-101725000D02*
X201515000Y-101725000D01*
G75*
G02*
X201565000Y-101775000I0J-50000D01*
G01*
X201565000Y-102775000D01*
G75*
G02*
X201515000Y-102825000I-50000J0D01*
G01*
X200715000Y-102825000D01*
G75*
G02*
X200665000Y-102775000I0J50000D01*
G01*
X200665000Y-101775000D01*
G75*
G02*
X200715000Y-101725000I50000J0D01*
G01*
G37*
G36*
G01*
X202925000Y-101725000D02*
X203725000Y-101725000D01*
G75*
G02*
X203775000Y-101775000I0J-50000D01*
G01*
X203775000Y-102775000D01*
G75*
G02*
X203725000Y-102825000I-50000J0D01*
G01*
X202925000Y-102825000D01*
G75*
G02*
X202875000Y-102775000I0J50000D01*
G01*
X202875000Y-101775000D01*
G75*
G02*
X202925000Y-101725000I50000J0D01*
G01*
G37*
G36*
G01*
X199715000Y-95975000D02*
X201215000Y-95975000D01*
G75*
G02*
X201265000Y-96025000I0J-50000D01*
G01*
X201265000Y-96725000D01*
G75*
G02*
X201215000Y-96775000I-50000J0D01*
G01*
X199715000Y-96775000D01*
G75*
G02*
X199665000Y-96725000I0J50000D01*
G01*
X199665000Y-96025000D01*
G75*
G02*
X199715000Y-95975000I50000J0D01*
G01*
G37*
G36*
G01*
X199715000Y-98975000D02*
X201215000Y-98975000D01*
G75*
G02*
X201265000Y-99025000I0J-50000D01*
G01*
X201265000Y-99725000D01*
G75*
G02*
X201215000Y-99775000I-50000J0D01*
G01*
X199715000Y-99775000D01*
G75*
G02*
X199665000Y-99725000I0J50000D01*
G01*
X199665000Y-99025000D01*
G75*
G02*
X199715000Y-98975000I50000J0D01*
G01*
G37*
G36*
G01*
X199715000Y-100475000D02*
X201215000Y-100475000D01*
G75*
G02*
X201265000Y-100525000I0J-50000D01*
G01*
X201265000Y-101225000D01*
G75*
G02*
X201215000Y-101275000I-50000J0D01*
G01*
X199715000Y-101275000D01*
G75*
G02*
X199665000Y-101225000I0J50000D01*
G01*
X199665000Y-100525000D01*
G75*
G02*
X199715000Y-100475000I50000J0D01*
G01*
G37*
D18*
X202225000Y-97125000D03*
X202225000Y-100125000D03*
D19*
X201900000Y-112875000D03*
X201900000Y-106375000D03*
D20*
X193000000Y-106750000D03*
X193000000Y-104750000D03*
G36*
X195235355Y-106785355D02*
G01*
X194635355Y-107385355D01*
X194600000Y-107400000D01*
X194400000Y-107400000D01*
X194364645Y-107385355D01*
X194350000Y-107350000D01*
X194350000Y-106150000D01*
X194364645Y-106114645D01*
X194400000Y-106100000D01*
X194600000Y-106100000D01*
X194635355Y-106114645D01*
X195235355Y-106714645D01*
X195250000Y-106750000D01*
X195235355Y-106785355D01*
G37*
G36*
X195235355Y-104785355D02*
G01*
X194635355Y-105385355D01*
X194600000Y-105400000D01*
X194400000Y-105400000D01*
X194364645Y-105385355D01*
X194350000Y-105350000D01*
X194350000Y-104150000D01*
X194364645Y-104114645D01*
X194400000Y-104100000D01*
X194600000Y-104100000D01*
X194635355Y-104114645D01*
X195235355Y-104714645D01*
X195250000Y-104750000D01*
X195235355Y-104785355D01*
G37*
G36*
X196101355Y-105385355D02*
G01*
X196066000Y-105400000D01*
X194816000Y-105400000D01*
X194780645Y-105385355D01*
X194766000Y-105350000D01*
X194780645Y-105314645D01*
X195345290Y-104750000D01*
X194780645Y-104185355D01*
X194766000Y-104150000D01*
X194780645Y-104114645D01*
X194816000Y-104100000D01*
X196066000Y-104100000D01*
X196101355Y-104114645D01*
X196116000Y-104150000D01*
X196116000Y-105350000D01*
X196101355Y-105385355D01*
G37*
G36*
X196101355Y-107385355D02*
G01*
X196066000Y-107400000D01*
X194816000Y-107400000D01*
X194780645Y-107385355D01*
X194766000Y-107350000D01*
X194780645Y-107314645D01*
X195345290Y-106750000D01*
X194780645Y-106185355D01*
X194766000Y-106150000D01*
X194780645Y-106114645D01*
X194816000Y-106100000D01*
X196066000Y-106100000D01*
X196101355Y-106114645D01*
X196116000Y-106150000D01*
X196116000Y-107350000D01*
X196101355Y-107385355D01*
G37*
M02*
