%TF.GenerationSoftware,KiCad,Pcbnew,8.0.6+1*%
%TF.CreationDate,2024-11-30T16:17:36+00:00*%
%TF.ProjectId,controller_overlay,636f6e74-726f-46c6-9c65-725f6f766572,0.2*%
%TF.SameCoordinates,Original*%
%TF.FileFunction,Drillmap*%
%TF.FilePolarity,Positive*%
%FSLAX45Y45*%
G04 Gerber Fmt 4.5, Leading zero omitted, Abs format (unit mm)*
G04 Created by KiCad (PCBNEW 8.0.6+1) date 2024-11-30 16:17:36*
%MOMM*%
%LPD*%
G01*
G04 APERTURE LIST*
%ADD10C,0.150000*%
%ADD11C,0.200000*%
%ADD12C,0.220000*%
G04 APERTURE END LIST*
D10*
X18200000Y-10930848D02*
X18200000Y-5962500D01*
X18250000Y-5912500D02*
X20350000Y-5912500D01*
X20400000Y-5962500D02*
X20400000Y-12143284D01*
X20325000Y-12186585D02*
X18225000Y-10974150D01*
X18200000Y-5962500D02*
G75*
G02*
X18250000Y-5912500I50000J0D01*
G01*
X20350000Y-5912500D02*
G75*
G02*
X20400000Y-5962500I0J-50000D01*
G01*
X20400000Y-12143284D02*
G75*
G02*
X20324988Y-12186606I-50000J-28D01*
G01*
X18225000Y-10974150D02*
G75*
G02*
X18200002Y-10930848I25000J43300D01*
G01*
X18610000Y-10770000D02*
G75*
G02*
X18390000Y-10770000I-110000J0D01*
G01*
X18390000Y-10770000D02*
G75*
G02*
X18610000Y-10770000I110000J0D01*
G01*
X20210000Y-11660000D02*
G75*
G02*
X19990000Y-11660000I-110000J0D01*
G01*
X19990000Y-11660000D02*
G75*
G02*
X20210000Y-11660000I110000J0D01*
G01*
D11*
D12*
X18390000Y-10660000D02*
X18610000Y-10880000D01*
X18610000Y-10660000D02*
X18390000Y-10880000D01*
X19990000Y-11550000D02*
X20210000Y-11770000D01*
X20210000Y-11550000D02*
X19990000Y-11770000D01*
D11*
X18453277Y-12512296D02*
X18453277Y-12312296D01*
X18453277Y-12312296D02*
X18500896Y-12312296D01*
X18500896Y-12312296D02*
X18529467Y-12321820D01*
X18529467Y-12321820D02*
X18548515Y-12340867D01*
X18548515Y-12340867D02*
X18558039Y-12359915D01*
X18558039Y-12359915D02*
X18567563Y-12398010D01*
X18567563Y-12398010D02*
X18567563Y-12426582D01*
X18567563Y-12426582D02*
X18558039Y-12464677D01*
X18558039Y-12464677D02*
X18548515Y-12483724D01*
X18548515Y-12483724D02*
X18529467Y-12502772D01*
X18529467Y-12502772D02*
X18500896Y-12512296D01*
X18500896Y-12512296D02*
X18453277Y-12512296D01*
X18653277Y-12512296D02*
X18653277Y-12378962D01*
X18653277Y-12417058D02*
X18662801Y-12398010D01*
X18662801Y-12398010D02*
X18672324Y-12388486D01*
X18672324Y-12388486D02*
X18691372Y-12378962D01*
X18691372Y-12378962D02*
X18710420Y-12378962D01*
X18777086Y-12512296D02*
X18777086Y-12378962D01*
X18777086Y-12312296D02*
X18767563Y-12321820D01*
X18767563Y-12321820D02*
X18777086Y-12331343D01*
X18777086Y-12331343D02*
X18786610Y-12321820D01*
X18786610Y-12321820D02*
X18777086Y-12312296D01*
X18777086Y-12312296D02*
X18777086Y-12331343D01*
X18900896Y-12512296D02*
X18881848Y-12502772D01*
X18881848Y-12502772D02*
X18872324Y-12483724D01*
X18872324Y-12483724D02*
X18872324Y-12312296D01*
X19005658Y-12512296D02*
X18986610Y-12502772D01*
X18986610Y-12502772D02*
X18977086Y-12483724D01*
X18977086Y-12483724D02*
X18977086Y-12312296D01*
X19234229Y-12512296D02*
X19234229Y-12312296D01*
X19234229Y-12312296D02*
X19300896Y-12455153D01*
X19300896Y-12455153D02*
X19367563Y-12312296D01*
X19367563Y-12312296D02*
X19367563Y-12512296D01*
X19548515Y-12512296D02*
X19548515Y-12407534D01*
X19548515Y-12407534D02*
X19538991Y-12388486D01*
X19538991Y-12388486D02*
X19519944Y-12378962D01*
X19519944Y-12378962D02*
X19481848Y-12378962D01*
X19481848Y-12378962D02*
X19462801Y-12388486D01*
X19548515Y-12502772D02*
X19529467Y-12512296D01*
X19529467Y-12512296D02*
X19481848Y-12512296D01*
X19481848Y-12512296D02*
X19462801Y-12502772D01*
X19462801Y-12502772D02*
X19453277Y-12483724D01*
X19453277Y-12483724D02*
X19453277Y-12464677D01*
X19453277Y-12464677D02*
X19462801Y-12445629D01*
X19462801Y-12445629D02*
X19481848Y-12436105D01*
X19481848Y-12436105D02*
X19529467Y-12436105D01*
X19529467Y-12436105D02*
X19548515Y-12426582D01*
X19643753Y-12378962D02*
X19643753Y-12578962D01*
X19643753Y-12388486D02*
X19662801Y-12378962D01*
X19662801Y-12378962D02*
X19700896Y-12378962D01*
X19700896Y-12378962D02*
X19719944Y-12388486D01*
X19719944Y-12388486D02*
X19729467Y-12398010D01*
X19729467Y-12398010D02*
X19738991Y-12417058D01*
X19738991Y-12417058D02*
X19738991Y-12474201D01*
X19738991Y-12474201D02*
X19729467Y-12493248D01*
X19729467Y-12493248D02*
X19719944Y-12502772D01*
X19719944Y-12502772D02*
X19700896Y-12512296D01*
X19700896Y-12512296D02*
X19662801Y-12512296D01*
X19662801Y-12512296D02*
X19643753Y-12502772D01*
X19824705Y-12493248D02*
X19834229Y-12502772D01*
X19834229Y-12502772D02*
X19824705Y-12512296D01*
X19824705Y-12512296D02*
X19815182Y-12502772D01*
X19815182Y-12502772D02*
X19824705Y-12493248D01*
X19824705Y-12493248D02*
X19824705Y-12512296D01*
X19824705Y-12388486D02*
X19834229Y-12398010D01*
X19834229Y-12398010D02*
X19824705Y-12407534D01*
X19824705Y-12407534D02*
X19815182Y-12398010D01*
X19815182Y-12398010D02*
X19824705Y-12388486D01*
X19824705Y-12388486D02*
X19824705Y-12407534D01*
X17992500Y-12740812D02*
X18192500Y-12940812D01*
X18192500Y-12740812D02*
X17992500Y-12940812D01*
X18443753Y-12751343D02*
X18453277Y-12741820D01*
X18453277Y-12741820D02*
X18472324Y-12732296D01*
X18472324Y-12732296D02*
X18519944Y-12732296D01*
X18519944Y-12732296D02*
X18538991Y-12741820D01*
X18538991Y-12741820D02*
X18548515Y-12751343D01*
X18548515Y-12751343D02*
X18558039Y-12770391D01*
X18558039Y-12770391D02*
X18558039Y-12789439D01*
X18558039Y-12789439D02*
X18548515Y-12818010D01*
X18548515Y-12818010D02*
X18434229Y-12932296D01*
X18434229Y-12932296D02*
X18558039Y-12932296D01*
X18643753Y-12913248D02*
X18653277Y-12922772D01*
X18653277Y-12922772D02*
X18643753Y-12932296D01*
X18643753Y-12932296D02*
X18634229Y-12922772D01*
X18634229Y-12922772D02*
X18643753Y-12913248D01*
X18643753Y-12913248D02*
X18643753Y-12932296D01*
X18729467Y-12751343D02*
X18738991Y-12741820D01*
X18738991Y-12741820D02*
X18758039Y-12732296D01*
X18758039Y-12732296D02*
X18805658Y-12732296D01*
X18805658Y-12732296D02*
X18824705Y-12741820D01*
X18824705Y-12741820D02*
X18834229Y-12751343D01*
X18834229Y-12751343D02*
X18843753Y-12770391D01*
X18843753Y-12770391D02*
X18843753Y-12789439D01*
X18843753Y-12789439D02*
X18834229Y-12818010D01*
X18834229Y-12818010D02*
X18719944Y-12932296D01*
X18719944Y-12932296D02*
X18843753Y-12932296D01*
X18967563Y-12732296D02*
X18986610Y-12732296D01*
X18986610Y-12732296D02*
X19005658Y-12741820D01*
X19005658Y-12741820D02*
X19015182Y-12751343D01*
X19015182Y-12751343D02*
X19024705Y-12770391D01*
X19024705Y-12770391D02*
X19034229Y-12808486D01*
X19034229Y-12808486D02*
X19034229Y-12856105D01*
X19034229Y-12856105D02*
X19024705Y-12894201D01*
X19024705Y-12894201D02*
X19015182Y-12913248D01*
X19015182Y-12913248D02*
X19005658Y-12922772D01*
X19005658Y-12922772D02*
X18986610Y-12932296D01*
X18986610Y-12932296D02*
X18967563Y-12932296D01*
X18967563Y-12932296D02*
X18948515Y-12922772D01*
X18948515Y-12922772D02*
X18938991Y-12913248D01*
X18938991Y-12913248D02*
X18929467Y-12894201D01*
X18929467Y-12894201D02*
X18919944Y-12856105D01*
X18919944Y-12856105D02*
X18919944Y-12808486D01*
X18919944Y-12808486D02*
X18929467Y-12770391D01*
X18929467Y-12770391D02*
X18938991Y-12751343D01*
X18938991Y-12751343D02*
X18948515Y-12741820D01*
X18948515Y-12741820D02*
X18967563Y-12732296D01*
X19158039Y-12732296D02*
X19177086Y-12732296D01*
X19177086Y-12732296D02*
X19196134Y-12741820D01*
X19196134Y-12741820D02*
X19205658Y-12751343D01*
X19205658Y-12751343D02*
X19215182Y-12770391D01*
X19215182Y-12770391D02*
X19224705Y-12808486D01*
X19224705Y-12808486D02*
X19224705Y-12856105D01*
X19224705Y-12856105D02*
X19215182Y-12894201D01*
X19215182Y-12894201D02*
X19205658Y-12913248D01*
X19205658Y-12913248D02*
X19196134Y-12922772D01*
X19196134Y-12922772D02*
X19177086Y-12932296D01*
X19177086Y-12932296D02*
X19158039Y-12932296D01*
X19158039Y-12932296D02*
X19138991Y-12922772D01*
X19138991Y-12922772D02*
X19129467Y-12913248D01*
X19129467Y-12913248D02*
X19119944Y-12894201D01*
X19119944Y-12894201D02*
X19110420Y-12856105D01*
X19110420Y-12856105D02*
X19110420Y-12808486D01*
X19110420Y-12808486D02*
X19119944Y-12770391D01*
X19119944Y-12770391D02*
X19129467Y-12751343D01*
X19129467Y-12751343D02*
X19138991Y-12741820D01*
X19138991Y-12741820D02*
X19158039Y-12732296D01*
X19310420Y-12932296D02*
X19310420Y-12798962D01*
X19310420Y-12818010D02*
X19319944Y-12808486D01*
X19319944Y-12808486D02*
X19338991Y-12798962D01*
X19338991Y-12798962D02*
X19367563Y-12798962D01*
X19367563Y-12798962D02*
X19386610Y-12808486D01*
X19386610Y-12808486D02*
X19396134Y-12827534D01*
X19396134Y-12827534D02*
X19396134Y-12932296D01*
X19396134Y-12827534D02*
X19405658Y-12808486D01*
X19405658Y-12808486D02*
X19424705Y-12798962D01*
X19424705Y-12798962D02*
X19453277Y-12798962D01*
X19453277Y-12798962D02*
X19472325Y-12808486D01*
X19472325Y-12808486D02*
X19481848Y-12827534D01*
X19481848Y-12827534D02*
X19481848Y-12932296D01*
X19577086Y-12932296D02*
X19577086Y-12798962D01*
X19577086Y-12818010D02*
X19586610Y-12808486D01*
X19586610Y-12808486D02*
X19605658Y-12798962D01*
X19605658Y-12798962D02*
X19634229Y-12798962D01*
X19634229Y-12798962D02*
X19653277Y-12808486D01*
X19653277Y-12808486D02*
X19662801Y-12827534D01*
X19662801Y-12827534D02*
X19662801Y-12932296D01*
X19662801Y-12827534D02*
X19672325Y-12808486D01*
X19672325Y-12808486D02*
X19691372Y-12798962D01*
X19691372Y-12798962D02*
X19719944Y-12798962D01*
X19719944Y-12798962D02*
X19738991Y-12808486D01*
X19738991Y-12808486D02*
X19748515Y-12827534D01*
X19748515Y-12827534D02*
X19748515Y-12932296D01*
X20138991Y-12722772D02*
X19967563Y-12979915D01*
X20396134Y-12732296D02*
X20415182Y-12732296D01*
X20415182Y-12732296D02*
X20434229Y-12741820D01*
X20434229Y-12741820D02*
X20443753Y-12751343D01*
X20443753Y-12751343D02*
X20453277Y-12770391D01*
X20453277Y-12770391D02*
X20462801Y-12808486D01*
X20462801Y-12808486D02*
X20462801Y-12856105D01*
X20462801Y-12856105D02*
X20453277Y-12894201D01*
X20453277Y-12894201D02*
X20443753Y-12913248D01*
X20443753Y-12913248D02*
X20434229Y-12922772D01*
X20434229Y-12922772D02*
X20415182Y-12932296D01*
X20415182Y-12932296D02*
X20396134Y-12932296D01*
X20396134Y-12932296D02*
X20377087Y-12922772D01*
X20377087Y-12922772D02*
X20367563Y-12913248D01*
X20367563Y-12913248D02*
X20358039Y-12894201D01*
X20358039Y-12894201D02*
X20348515Y-12856105D01*
X20348515Y-12856105D02*
X20348515Y-12808486D01*
X20348515Y-12808486D02*
X20358039Y-12770391D01*
X20358039Y-12770391D02*
X20367563Y-12751343D01*
X20367563Y-12751343D02*
X20377087Y-12741820D01*
X20377087Y-12741820D02*
X20396134Y-12732296D01*
X20548515Y-12913248D02*
X20558039Y-12922772D01*
X20558039Y-12922772D02*
X20548515Y-12932296D01*
X20548515Y-12932296D02*
X20538991Y-12922772D01*
X20538991Y-12922772D02*
X20548515Y-12913248D01*
X20548515Y-12913248D02*
X20548515Y-12932296D01*
X20681848Y-12732296D02*
X20700896Y-12732296D01*
X20700896Y-12732296D02*
X20719944Y-12741820D01*
X20719944Y-12741820D02*
X20729468Y-12751343D01*
X20729468Y-12751343D02*
X20738991Y-12770391D01*
X20738991Y-12770391D02*
X20748515Y-12808486D01*
X20748515Y-12808486D02*
X20748515Y-12856105D01*
X20748515Y-12856105D02*
X20738991Y-12894201D01*
X20738991Y-12894201D02*
X20729468Y-12913248D01*
X20729468Y-12913248D02*
X20719944Y-12922772D01*
X20719944Y-12922772D02*
X20700896Y-12932296D01*
X20700896Y-12932296D02*
X20681848Y-12932296D01*
X20681848Y-12932296D02*
X20662801Y-12922772D01*
X20662801Y-12922772D02*
X20653277Y-12913248D01*
X20653277Y-12913248D02*
X20643753Y-12894201D01*
X20643753Y-12894201D02*
X20634229Y-12856105D01*
X20634229Y-12856105D02*
X20634229Y-12808486D01*
X20634229Y-12808486D02*
X20643753Y-12770391D01*
X20643753Y-12770391D02*
X20653277Y-12751343D01*
X20653277Y-12751343D02*
X20662801Y-12741820D01*
X20662801Y-12741820D02*
X20681848Y-12732296D01*
X20862801Y-12818010D02*
X20843753Y-12808486D01*
X20843753Y-12808486D02*
X20834229Y-12798962D01*
X20834229Y-12798962D02*
X20824706Y-12779915D01*
X20824706Y-12779915D02*
X20824706Y-12770391D01*
X20824706Y-12770391D02*
X20834229Y-12751343D01*
X20834229Y-12751343D02*
X20843753Y-12741820D01*
X20843753Y-12741820D02*
X20862801Y-12732296D01*
X20862801Y-12732296D02*
X20900896Y-12732296D01*
X20900896Y-12732296D02*
X20919944Y-12741820D01*
X20919944Y-12741820D02*
X20929468Y-12751343D01*
X20929468Y-12751343D02*
X20938991Y-12770391D01*
X20938991Y-12770391D02*
X20938991Y-12779915D01*
X20938991Y-12779915D02*
X20929468Y-12798962D01*
X20929468Y-12798962D02*
X20919944Y-12808486D01*
X20919944Y-12808486D02*
X20900896Y-12818010D01*
X20900896Y-12818010D02*
X20862801Y-12818010D01*
X20862801Y-12818010D02*
X20843753Y-12827534D01*
X20843753Y-12827534D02*
X20834229Y-12837058D01*
X20834229Y-12837058D02*
X20824706Y-12856105D01*
X20824706Y-12856105D02*
X20824706Y-12894201D01*
X20824706Y-12894201D02*
X20834229Y-12913248D01*
X20834229Y-12913248D02*
X20843753Y-12922772D01*
X20843753Y-12922772D02*
X20862801Y-12932296D01*
X20862801Y-12932296D02*
X20900896Y-12932296D01*
X20900896Y-12932296D02*
X20919944Y-12922772D01*
X20919944Y-12922772D02*
X20929468Y-12913248D01*
X20929468Y-12913248D02*
X20938991Y-12894201D01*
X20938991Y-12894201D02*
X20938991Y-12856105D01*
X20938991Y-12856105D02*
X20929468Y-12837058D01*
X20929468Y-12837058D02*
X20919944Y-12827534D01*
X20919944Y-12827534D02*
X20900896Y-12818010D01*
X21110420Y-12732296D02*
X21072325Y-12732296D01*
X21072325Y-12732296D02*
X21053277Y-12741820D01*
X21053277Y-12741820D02*
X21043753Y-12751343D01*
X21043753Y-12751343D02*
X21024706Y-12779915D01*
X21024706Y-12779915D02*
X21015182Y-12818010D01*
X21015182Y-12818010D02*
X21015182Y-12894201D01*
X21015182Y-12894201D02*
X21024706Y-12913248D01*
X21024706Y-12913248D02*
X21034229Y-12922772D01*
X21034229Y-12922772D02*
X21053277Y-12932296D01*
X21053277Y-12932296D02*
X21091372Y-12932296D01*
X21091372Y-12932296D02*
X21110420Y-12922772D01*
X21110420Y-12922772D02*
X21119944Y-12913248D01*
X21119944Y-12913248D02*
X21129468Y-12894201D01*
X21129468Y-12894201D02*
X21129468Y-12846582D01*
X21129468Y-12846582D02*
X21119944Y-12827534D01*
X21119944Y-12827534D02*
X21110420Y-12818010D01*
X21110420Y-12818010D02*
X21091372Y-12808486D01*
X21091372Y-12808486D02*
X21053277Y-12808486D01*
X21053277Y-12808486D02*
X21034229Y-12818010D01*
X21034229Y-12818010D02*
X21024706Y-12827534D01*
X21024706Y-12827534D02*
X21015182Y-12846582D01*
X21300896Y-12732296D02*
X21262801Y-12732296D01*
X21262801Y-12732296D02*
X21243753Y-12741820D01*
X21243753Y-12741820D02*
X21234229Y-12751343D01*
X21234229Y-12751343D02*
X21215182Y-12779915D01*
X21215182Y-12779915D02*
X21205658Y-12818010D01*
X21205658Y-12818010D02*
X21205658Y-12894201D01*
X21205658Y-12894201D02*
X21215182Y-12913248D01*
X21215182Y-12913248D02*
X21224706Y-12922772D01*
X21224706Y-12922772D02*
X21243753Y-12932296D01*
X21243753Y-12932296D02*
X21281849Y-12932296D01*
X21281849Y-12932296D02*
X21300896Y-12922772D01*
X21300896Y-12922772D02*
X21310420Y-12913248D01*
X21310420Y-12913248D02*
X21319944Y-12894201D01*
X21319944Y-12894201D02*
X21319944Y-12846582D01*
X21319944Y-12846582D02*
X21310420Y-12827534D01*
X21310420Y-12827534D02*
X21300896Y-12818010D01*
X21300896Y-12818010D02*
X21281849Y-12808486D01*
X21281849Y-12808486D02*
X21243753Y-12808486D01*
X21243753Y-12808486D02*
X21224706Y-12818010D01*
X21224706Y-12818010D02*
X21215182Y-12827534D01*
X21215182Y-12827534D02*
X21205658Y-12846582D01*
X21396134Y-12732296D02*
X21396134Y-12770391D01*
X21472325Y-12732296D02*
X21472325Y-12770391D01*
X21767563Y-13008486D02*
X21758039Y-12998962D01*
X21758039Y-12998962D02*
X21738991Y-12970391D01*
X21738991Y-12970391D02*
X21729468Y-12951343D01*
X21729468Y-12951343D02*
X21719944Y-12922772D01*
X21719944Y-12922772D02*
X21710420Y-12875153D01*
X21710420Y-12875153D02*
X21710420Y-12837058D01*
X21710420Y-12837058D02*
X21719944Y-12789439D01*
X21719944Y-12789439D02*
X21729468Y-12760867D01*
X21729468Y-12760867D02*
X21738991Y-12741820D01*
X21738991Y-12741820D02*
X21758039Y-12713248D01*
X21758039Y-12713248D02*
X21767563Y-12703724D01*
X21834230Y-12751343D02*
X21843753Y-12741820D01*
X21843753Y-12741820D02*
X21862801Y-12732296D01*
X21862801Y-12732296D02*
X21910420Y-12732296D01*
X21910420Y-12732296D02*
X21929468Y-12741820D01*
X21929468Y-12741820D02*
X21938991Y-12751343D01*
X21938991Y-12751343D02*
X21948515Y-12770391D01*
X21948515Y-12770391D02*
X21948515Y-12789439D01*
X21948515Y-12789439D02*
X21938991Y-12818010D01*
X21938991Y-12818010D02*
X21824706Y-12932296D01*
X21824706Y-12932296D02*
X21948515Y-12932296D01*
X22186611Y-12932296D02*
X22186611Y-12732296D01*
X22272325Y-12932296D02*
X22272325Y-12827534D01*
X22272325Y-12827534D02*
X22262801Y-12808486D01*
X22262801Y-12808486D02*
X22243753Y-12798962D01*
X22243753Y-12798962D02*
X22215182Y-12798962D01*
X22215182Y-12798962D02*
X22196134Y-12808486D01*
X22196134Y-12808486D02*
X22186611Y-12818010D01*
X22396134Y-12932296D02*
X22377087Y-12922772D01*
X22377087Y-12922772D02*
X22367563Y-12913248D01*
X22367563Y-12913248D02*
X22358039Y-12894201D01*
X22358039Y-12894201D02*
X22358039Y-12837058D01*
X22358039Y-12837058D02*
X22367563Y-12818010D01*
X22367563Y-12818010D02*
X22377087Y-12808486D01*
X22377087Y-12808486D02*
X22396134Y-12798962D01*
X22396134Y-12798962D02*
X22424706Y-12798962D01*
X22424706Y-12798962D02*
X22443753Y-12808486D01*
X22443753Y-12808486D02*
X22453277Y-12818010D01*
X22453277Y-12818010D02*
X22462801Y-12837058D01*
X22462801Y-12837058D02*
X22462801Y-12894201D01*
X22462801Y-12894201D02*
X22453277Y-12913248D01*
X22453277Y-12913248D02*
X22443753Y-12922772D01*
X22443753Y-12922772D02*
X22424706Y-12932296D01*
X22424706Y-12932296D02*
X22396134Y-12932296D01*
X22577087Y-12932296D02*
X22558039Y-12922772D01*
X22558039Y-12922772D02*
X22548515Y-12903724D01*
X22548515Y-12903724D02*
X22548515Y-12732296D01*
X22729468Y-12922772D02*
X22710420Y-12932296D01*
X22710420Y-12932296D02*
X22672325Y-12932296D01*
X22672325Y-12932296D02*
X22653277Y-12922772D01*
X22653277Y-12922772D02*
X22643753Y-12903724D01*
X22643753Y-12903724D02*
X22643753Y-12827534D01*
X22643753Y-12827534D02*
X22653277Y-12808486D01*
X22653277Y-12808486D02*
X22672325Y-12798962D01*
X22672325Y-12798962D02*
X22710420Y-12798962D01*
X22710420Y-12798962D02*
X22729468Y-12808486D01*
X22729468Y-12808486D02*
X22738991Y-12827534D01*
X22738991Y-12827534D02*
X22738991Y-12846582D01*
X22738991Y-12846582D02*
X22643753Y-12865629D01*
X22815182Y-12922772D02*
X22834230Y-12932296D01*
X22834230Y-12932296D02*
X22872325Y-12932296D01*
X22872325Y-12932296D02*
X22891372Y-12922772D01*
X22891372Y-12922772D02*
X22900896Y-12903724D01*
X22900896Y-12903724D02*
X22900896Y-12894201D01*
X22900896Y-12894201D02*
X22891372Y-12875153D01*
X22891372Y-12875153D02*
X22872325Y-12865629D01*
X22872325Y-12865629D02*
X22843753Y-12865629D01*
X22843753Y-12865629D02*
X22824706Y-12856105D01*
X22824706Y-12856105D02*
X22815182Y-12837058D01*
X22815182Y-12837058D02*
X22815182Y-12827534D01*
X22815182Y-12827534D02*
X22824706Y-12808486D01*
X22824706Y-12808486D02*
X22843753Y-12798962D01*
X22843753Y-12798962D02*
X22872325Y-12798962D01*
X22872325Y-12798962D02*
X22891372Y-12808486D01*
X22967563Y-13008486D02*
X22977087Y-12998962D01*
X22977087Y-12998962D02*
X22996134Y-12970391D01*
X22996134Y-12970391D02*
X23005658Y-12951343D01*
X23005658Y-12951343D02*
X23015182Y-12922772D01*
X23015182Y-12922772D02*
X23024706Y-12875153D01*
X23024706Y-12875153D02*
X23024706Y-12837058D01*
X23024706Y-12837058D02*
X23015182Y-12789439D01*
X23015182Y-12789439D02*
X23005658Y-12760867D01*
X23005658Y-12760867D02*
X22996134Y-12741820D01*
X22996134Y-12741820D02*
X22977087Y-12713248D01*
X22977087Y-12713248D02*
X22967563Y-12703724D01*
X23329468Y-13008486D02*
X23319944Y-12998962D01*
X23319944Y-12998962D02*
X23300896Y-12970391D01*
X23300896Y-12970391D02*
X23291372Y-12951343D01*
X23291372Y-12951343D02*
X23281849Y-12922772D01*
X23281849Y-12922772D02*
X23272325Y-12875153D01*
X23272325Y-12875153D02*
X23272325Y-12837058D01*
X23272325Y-12837058D02*
X23281849Y-12789439D01*
X23281849Y-12789439D02*
X23291372Y-12760867D01*
X23291372Y-12760867D02*
X23300896Y-12741820D01*
X23300896Y-12741820D02*
X23319944Y-12713248D01*
X23319944Y-12713248D02*
X23329468Y-12703724D01*
X23405658Y-12798962D02*
X23405658Y-12932296D01*
X23405658Y-12818010D02*
X23415182Y-12808486D01*
X23415182Y-12808486D02*
X23434230Y-12798962D01*
X23434230Y-12798962D02*
X23462801Y-12798962D01*
X23462801Y-12798962D02*
X23481849Y-12808486D01*
X23481849Y-12808486D02*
X23491372Y-12827534D01*
X23491372Y-12827534D02*
X23491372Y-12932296D01*
X23615182Y-12932296D02*
X23596134Y-12922772D01*
X23596134Y-12922772D02*
X23586611Y-12913248D01*
X23586611Y-12913248D02*
X23577087Y-12894201D01*
X23577087Y-12894201D02*
X23577087Y-12837058D01*
X23577087Y-12837058D02*
X23586611Y-12818010D01*
X23586611Y-12818010D02*
X23596134Y-12808486D01*
X23596134Y-12808486D02*
X23615182Y-12798962D01*
X23615182Y-12798962D02*
X23643753Y-12798962D01*
X23643753Y-12798962D02*
X23662801Y-12808486D01*
X23662801Y-12808486D02*
X23672325Y-12818010D01*
X23672325Y-12818010D02*
X23681849Y-12837058D01*
X23681849Y-12837058D02*
X23681849Y-12894201D01*
X23681849Y-12894201D02*
X23672325Y-12913248D01*
X23672325Y-12913248D02*
X23662801Y-12922772D01*
X23662801Y-12922772D02*
X23643753Y-12932296D01*
X23643753Y-12932296D02*
X23615182Y-12932296D01*
X23738992Y-12798962D02*
X23815182Y-12798962D01*
X23767563Y-12732296D02*
X23767563Y-12903724D01*
X23767563Y-12903724D02*
X23777087Y-12922772D01*
X23777087Y-12922772D02*
X23796134Y-12932296D01*
X23796134Y-12932296D02*
X23815182Y-12932296D01*
X24034230Y-12798962D02*
X24034230Y-12998962D01*
X24034230Y-12808486D02*
X24053277Y-12798962D01*
X24053277Y-12798962D02*
X24091373Y-12798962D01*
X24091373Y-12798962D02*
X24110420Y-12808486D01*
X24110420Y-12808486D02*
X24119944Y-12818010D01*
X24119944Y-12818010D02*
X24129468Y-12837058D01*
X24129468Y-12837058D02*
X24129468Y-12894201D01*
X24129468Y-12894201D02*
X24119944Y-12913248D01*
X24119944Y-12913248D02*
X24110420Y-12922772D01*
X24110420Y-12922772D02*
X24091373Y-12932296D01*
X24091373Y-12932296D02*
X24053277Y-12932296D01*
X24053277Y-12932296D02*
X24034230Y-12922772D01*
X24243753Y-12932296D02*
X24224706Y-12922772D01*
X24224706Y-12922772D02*
X24215182Y-12903724D01*
X24215182Y-12903724D02*
X24215182Y-12732296D01*
X24405658Y-12932296D02*
X24405658Y-12827534D01*
X24405658Y-12827534D02*
X24396134Y-12808486D01*
X24396134Y-12808486D02*
X24377087Y-12798962D01*
X24377087Y-12798962D02*
X24338992Y-12798962D01*
X24338992Y-12798962D02*
X24319944Y-12808486D01*
X24405658Y-12922772D02*
X24386611Y-12932296D01*
X24386611Y-12932296D02*
X24338992Y-12932296D01*
X24338992Y-12932296D02*
X24319944Y-12922772D01*
X24319944Y-12922772D02*
X24310420Y-12903724D01*
X24310420Y-12903724D02*
X24310420Y-12884677D01*
X24310420Y-12884677D02*
X24319944Y-12865629D01*
X24319944Y-12865629D02*
X24338992Y-12856105D01*
X24338992Y-12856105D02*
X24386611Y-12856105D01*
X24386611Y-12856105D02*
X24405658Y-12846582D01*
X24472325Y-12798962D02*
X24548515Y-12798962D01*
X24500896Y-12732296D02*
X24500896Y-12903724D01*
X24500896Y-12903724D02*
X24510420Y-12922772D01*
X24510420Y-12922772D02*
X24529468Y-12932296D01*
X24529468Y-12932296D02*
X24548515Y-12932296D01*
X24691373Y-12922772D02*
X24672325Y-12932296D01*
X24672325Y-12932296D02*
X24634230Y-12932296D01*
X24634230Y-12932296D02*
X24615182Y-12922772D01*
X24615182Y-12922772D02*
X24605658Y-12903724D01*
X24605658Y-12903724D02*
X24605658Y-12827534D01*
X24605658Y-12827534D02*
X24615182Y-12808486D01*
X24615182Y-12808486D02*
X24634230Y-12798962D01*
X24634230Y-12798962D02*
X24672325Y-12798962D01*
X24672325Y-12798962D02*
X24691373Y-12808486D01*
X24691373Y-12808486D02*
X24700896Y-12827534D01*
X24700896Y-12827534D02*
X24700896Y-12846582D01*
X24700896Y-12846582D02*
X24605658Y-12865629D01*
X24872325Y-12932296D02*
X24872325Y-12732296D01*
X24872325Y-12922772D02*
X24853277Y-12932296D01*
X24853277Y-12932296D02*
X24815182Y-12932296D01*
X24815182Y-12932296D02*
X24796134Y-12922772D01*
X24796134Y-12922772D02*
X24786611Y-12913248D01*
X24786611Y-12913248D02*
X24777087Y-12894201D01*
X24777087Y-12894201D02*
X24777087Y-12837058D01*
X24777087Y-12837058D02*
X24786611Y-12818010D01*
X24786611Y-12818010D02*
X24796134Y-12808486D01*
X24796134Y-12808486D02*
X24815182Y-12798962D01*
X24815182Y-12798962D02*
X24853277Y-12798962D01*
X24853277Y-12798962D02*
X24872325Y-12808486D01*
X24948515Y-13008486D02*
X24958039Y-12998962D01*
X24958039Y-12998962D02*
X24977087Y-12970391D01*
X24977087Y-12970391D02*
X24986611Y-12951343D01*
X24986611Y-12951343D02*
X24996134Y-12922772D01*
X24996134Y-12922772D02*
X25005658Y-12875153D01*
X25005658Y-12875153D02*
X25005658Y-12837058D01*
X25005658Y-12837058D02*
X24996134Y-12789439D01*
X24996134Y-12789439D02*
X24986611Y-12760867D01*
X24986611Y-12760867D02*
X24977087Y-12741820D01*
X24977087Y-12741820D02*
X24958039Y-12713248D01*
X24958039Y-12713248D02*
X24948515Y-12703724D01*
M02*
